<?xml version="1.0" encoding="UTF-8" standalone="no" ?>
<COLLADA xmlns="http://www.collada.org/2005/11/COLLADASchema" version="1.4.1">
  <asset>
    <contributor>
      <author>Assimp</author>
      <authoring_tool>Assimp Exporter</authoring_tool>
    </contributor>
    <created>2025-12-07T16:35:00</created>
    <modified>2025-12-07T16:35:00</modified>
    <unit name="meter" meter="1" />
    <up_axis>Y_UP</up_axis>
  </asset>
  <library_images>
  </library_images>
  <library_effects>
    <effect id="DefaultMaterial-fx" name="DefaultMaterial">
      <profile_COMMON>
        <technique sid="standard">
          <phong>
            <ambient>
              <color sid="ambient">0.0500000007   0.0500000007   0.0500000007   1</color>
            </ambient>
            <diffuse>
              <color sid="diffuse">1   1   1   1</color>
            </diffuse>
            <specular>
              <color sid="specular">1   1   1   1</color>
            </specular>
          </phong>
        </technique>
      </profile_COMMON>
    </effect>
  </library_effects>
  <library_materials>
    <material id="DefaultMaterial" name="DefaultMaterial">
      <instance_effect url="#DefaultMaterial-fx"/>
    </material>
  </library_materials>
  <library_geometries>
    <geometry id="mesh_0" name="" >
      <mesh>
        <source id="mesh_0-positions" name="mesh_0-positions">
          <float_array id="mesh_0-positions-array" count="2556"> 0.00215251977 -0.0163570065 -0.0113430237 0.00185273867 -0.0154029988 -0.0113430237 0.0018485639 -0.0154043101 -0.0112427948 0.00215251977 -0.0163570065 -0.0113430237 0.0018485639 -0.0154043101 -0.0112427948 0.00214834488 -0.0163583178 -0.0112427948 0.0018485639 -0.0154043101 -0.0112427948 0.00183607114 -0.0154082356 -0.0111433286 0.00214834488 -0.0163583178 -0.0112427948 0.00214834488 -0.0163583178 -0.0112427948 0.00183607114 -0.0154082356 -0.0111433286 0.00213585212 -0.0163622443 -0.0111433286 0.00183607114 -0.0154082356 -0.0111433286 0.00181535562 -0.0154147455 -0.0110453824 0.00213585212 -0.0163622443 -0.0111433286 0.00213585212 -0.0163622443 -0.0111433286 0.00181535562 -0.0154147455 -0.0110453824 0.00211513671 -0.0163687542 -0.0110453824 0.00181535562 -0.0154147455 -0.0110453824 0.00178657495 -0.0154237896 -0.0109497011 0.00211513671 -0.0163687542 -0.0110453824 0.00211513671 -0.0163687542 -0.0110453824 0.00178657495 -0.0154237896 -0.0109497011 0.00208635605 -0.0163777974 -0.0109497011 0.00178657495 -0.0154237896 -0.0109497011 0.00174994813 -0.0154352989 -0.0108570131 0.00208635605 -0.0163777974 -0.0109497011 0.00208635605 -0.0163777974 -0.0109497011 0.00174994813 -0.0154352989 -0.0108570131 0.00204972923 -0.0163893066 -0.0108570131 0.00174994813 -0.0154352989 -0.0108570131 0.00170575397 -0.0154491859 -0.0107680243 0.00204972923 -0.0163893066 -0.0108570131 0.00204972923 -0.0163893066 -0.0108570131 0.00170575397 -0.0154491859 -0.0107680243 0.00200553495 -0.0164031945 -0.0107680243 0.00170575397 -0.0154491859 -0.0107680243 0.00165432878 -0.0154653452 -0.0106834108 0.00200553495 -0.0164031945 -0.0107680243 0.00200553495 -0.0164031945 -0.0107680243 0.00165432878 -0.0154653452 -0.0106834108 0.00195410987 -0.016419353 -0.0106834108 0.00165432878 -0.0154653452 -0.0106834108 0.00159606396 -0.0154836541 -0.0106038181 0.00195410987 -0.016419353 -0.0106834108 0.00195410987 -0.016419353 -0.0106834108 0.00159606396 -0.0154836541 -0.0106038181 0.00189584494 -0.0164376628 -0.0106038181 0.00159606396 -0.0154836541 -0.0106038181 0.00153140281 -0.0155039728 -0.0105298515 0.00189584494 -0.0164376628 -0.0106038181 0.00189584494 -0.0164376628 -0.0106038181 0.00153140281 -0.0155039728 -0.0105298515 0.00183118391 -0.0164579805 -0.0105298515 0.00153140281 -0.0155039728 -0.0105298515 0.00146083767 -0.0155261466 -0.0104620727 0.00183118391 -0.0164579805 -0.0105298515 0.00183118391 -0.0164579805 -0.0105298515 0.00146083767 -0.0155261466 -0.0104620727 0.00176061876 -0.0164801553 -0.0104620727 0.00146083767 -0.0155261466 -0.0104620727 0.00138490542 -0.0155500071 -0.0104009993 0.00176061876 -0.0164801553 -0.0104620727 0.00176061876 -0.0164801553 -0.0104620727 0.00138490542 -0.0155500071 -0.0104009993 0.00168468652 -0.0165040158 -0.0104009993 0.00138490542 -0.0155500071 -0.0104009993 0.00130418409 -0.0155753726 -0.0103470944 0.00168468652 -0.0165040158 -0.0104009993 0.00168468652 -0.0165040158 -0.0104009993 0.00130418409 -0.0155753726 -0.0103470944 0.00160396518 -0.0165293813 -0.0103470944 0.00130418409 -0.0155753726 -0.0103470944 0.00121928786 -0.0156020494 -0.0103007704 0.00160396518 -0.0165293813 -0.0103470944 0.00160396518 -0.0165293813 -0.0103470944 0.00121928786 -0.0156020494 -0.0103007704 0.00151906896 -0.0165560581 -0.0103007704 0.00121928786 -0.0156020494 -0.0103007704 0.00113086298 -0.0156298354 -0.0102623776 0.00151906896 -0.0165560581 -0.0103007704 0.00151906896 -0.0165560581 -0.0103007704 0.00113086298 -0.0156298354 -0.0102623776 0.00143064407 -0.0165838432 -0.0102623776 0.00113086298 -0.0156298354 -0.0102623776 0.00103958219 -0.0156585183 -0.0102322092 0.00143064407 -0.0165838432 -0.0102623776 0.00143064407 -0.0165838432 -0.0102623776 0.00103958219 -0.0156585183 -0.0102322092 0.00133936328 -0.0166125279 -0.0102322092 0.00103958219 -0.0156585183 -0.0102322092 0.000946140499 -0.015687881 -0.0102104954 0.00133936328 -0.0166125279 -0.0102322092 0.00133936328 -0.0166125279 -0.0102322092 0.000946140499 -0.015687881 -0.0102104954 0.00124592159 -0.0166418906 -0.0102104954 0.000946140499 -0.015687881 -0.0102104954 0.000851248857 -0.0157177001 -0.0101974001 0.00124592159 -0.0166418906 -0.0102104954 0.00124592159 -0.0166418906 -0.0102104954 0.000851248857 -0.0157177001 -0.0101974001 0.00115102995 -0.0166717079 -0.0101974001 0.000851248857 -0.0157177001 -0.0101974001 0.000755629502 -0.0157477465 -0.0101930238 0.00115102995 -0.0166717079 -0.0101974001 0.00115102995 -0.0166717079 -0.0101974001 0.000755629502 -0.0157477465 -0.0101930238 0.0010554106 -0.0167017542 -0.0101930238 0.000755629502 -0.0157477465 -0.0101930238 0.00066001009 -0.0157777928 -0.0101974001 0.0010554106 -0.0167017542 -0.0101930238 0.0010554106 -0.0167017542 -0.0101930238 0.00066001009 -0.0157777928 -0.0101974001 0.000959791185 -0.0167318024 -0.0101974001 0.00066001009 -0.0157777928 -0.0101974001 0.000565118447 -0.0158076119 -0.0102104954 0.000959791185 -0.0167318024 -0.0101974001 0.000959791185 -0.0167318024 -0.0101974001 0.000565118447 -0.0158076119 -0.0102104954 0.000864899543 -0.0167616196 -0.0102104954 0.000565118447 -0.0158076119 -0.0102104954 0.000471676729 -0.0158369746 -0.0102322092 0.000864899543 -0.0167616196 -0.0102104954 0.000864899543 -0.0167616196 -0.0102104954 0.000471676729 -0.0158369746 -0.0102322092 0.000771457795 -0.0167909823 -0.0102322092 0.000471676729 -0.0158369746 -0.0102322092 0.000380396028 -0.0158656575 -0.0102623776 0.000771457795 -0.0167909823 -0.0102322092 0.000771457795 -0.0167909823 -0.0102322092 0.000380396028 -0.0158656575 -0.0102623776 0.000680177123 -0.0168196652 -0.0102623776 0.000380396028 -0.0158656575 -0.0102623776 0.000291971082 -0.0158934444 -0.0103007704 0.000680177123 -0.0168196652 -0.0102623776 0.000680177123 -0.0168196652 -0.0102623776 0.000291971082 -0.0158934444 -0.0103007704 0.000591752178 -0.0168474521 -0.0103007704 0.000291971082 -0.0158934444 -0.0103007704 0.000207074874 -0.0159201212 -0.0103470944 0.000591752178 -0.0168474521 -0.0103007704 0.000591752178 -0.0168474521 -0.0103007704 0.000207074874 -0.0159201212 -0.0103470944 0.000506855955 -0.016874129 -0.0103470944 0.000207074874 -0.0159201212 -0.0103470944 0.00012635348 -0.0159454867 -0.0104009993 0.000506855955 -0.016874129 -0.0103470944 0.000506855955 -0.016874129 -0.0103470944 0.00012635348 -0.0159454867 -0.0104009993 0.00042613456 -0.0168994945 -0.0104009993 0.00012635348 -0.0159454867 -0.0104009993 5.04212621e-05 -0.0159693472 -0.0104620727 0.00042613456 -0.0168994945 -0.0104009993 0.00042613456 -0.0168994945 -0.0104009993 5.04212621e-05 -0.0159693472 -0.0104620727 0.000350202346 -0.0169233549 -0.0104620727 5.04212621e-05 -0.0159693472 -0.0104620727 -2.01438925e-05 -0.0159915201 -0.0105298515 0.000350202346 -0.0169233549 -0.0104620727 0.000350202346 -0.0169233549 -0.0104620727 -2.01438925e-05 -0.0159915201 -0.0105298515 0.000279637199 -0.0169455279 -0.0105298515 -2.01438925e-05 -0.0159915201 -0.0105298515 -8.48049458e-05 -0.0160118397 -0.0106038181 0.000279637199 -0.0169455279 -0.0105298515 0.000279637199 -0.0169455279 -0.0105298515 -8.48049458e-05 -0.0160118397 -0.0106038181 0.000214976142 -0.0169658475 -0.0106038181 -8.48049458e-05 -0.0160118397 -0.0106038181 -0.000143069788 -0.0160301477 -0.0106834108 0.000214976142 -0.0169658475 -0.0106038181 0.000214976142 -0.0169658475 -0.0106038181 -0.000143069788 -0.0160301477 -0.0106834108 0.000156711307 -0.0169841554 -0.0106834108 -0.000143069788 -0.0160301477 -0.0106834108 -0.000194494976 -0.016046308 -0.0107680243 0.000156711307 -0.0169841554 -0.0106834108 0.000156711307 -0.0169841554 -0.0106834108 -0.000194494976 -0.016046308 -0.0107680243 0.000105286104 -0.0170003157 -0.0107680243 -0.000194494976 -0.016046308 -0.0107680243 -0.000238689157 -0.016060194 -0.0108570131 0.000105286104 -0.0170003157 -0.0107680243 0.000105286104 -0.0170003157 -0.0107680243 -0.000238689157 -0.016060194 -0.0108570131 6.10919305e-05 -0.0170142036 -0.0108570131 -0.000238689157 -0.016060194 -0.0108570131 -0.00027531595 -0.0160717033 -0.0109497011 6.10919305e-05 -0.0170142036 -0.0108570131 6.10919305e-05 -0.0170142036 -0.0108570131 -0.00027531595 -0.0160717033 -0.0109497011 2.44651237e-05 -0.0170257129 -0.0109497011 -0.00027531595 -0.0160717033 -0.0109497011 -0.00030409664 -0.0160807483 -0.0110453824 2.44651237e-05 -0.0170257129 -0.0109497011 2.44651237e-05 -0.0170257129 -0.0109497011 -0.00030409664 -0.0160807483 -0.0110453824 -4.31556782e-06 -0.017034756 -0.0110453824 -0.00030409664 -0.0160807483 -0.0110453824 -0.000324812194 -0.0160872582 -0.0111433286 -4.31556782e-06 -0.017034756 -0.0110453824 -4.31556782e-06 -0.017034756 -0.0110453824 -0.000324812194 -0.0160872582 -0.0111433286 -2.50311041e-05 -0.017041266 -0.0111433286 -0.000324812194 -0.0160872582 -0.0111433286 -0.000337304926 -0.0160911828 -0.0112427948 -2.50311041e-05 -0.017041266 -0.0111433286 -2.50311041e-05 -0.017041266 -0.0111433286 -0.000337304926 -0.0160911828 -0.0112427948 -3.75238269e-05 -0.0170451906 -0.0112427948 -0.000337304926 -0.0160911828 -0.0112427948 -0.000341479754 -0.0160924941 -0.0113430237 -3.75238269e-05 -0.0170451906 -0.0112427948 -3.75238269e-05 -0.0170451906 -0.0112427948 -0.000341479754 -0.0160924941 -0.0113430237 -4.16986586e-05 -0.0170465037 -0.0113430237 0.000279637199 -0.0169455279 -0.0105298515 0.000214976142 -0.0169658475 -0.0106038181 0.00189584494 -0.0164376628 -0.0120822294 0.00189584494 -0.0164376628 -0.0120822294 0.000214976142 -0.0169658475 -0.0106038181 0.00183118391 -0.0164579805 -0.0121561969 0.000959791185 -0.0167318024 -0.0124886483 0.0010554106 -0.0167017542 -0.0124930236 0.000214976142 -0.0169658475 -0.0106038181 0.00200553495 -0.0164031945 -0.0119180242 0.00176061876 -0.0164801553 -0.0104620727 0.00195410987 -0.016419353 -0.0120026367 0.00176061876 -0.0164801553 -0.0104620727 0.00189584494 -0.0164376628 -0.0120822294 0.00195410987 -0.016419353 -0.0120026367 0.000279637199 -0.0169455279 -0.0121561969 0.000350202346 -0.0169233549 -0.0122239748 -4.31556782e-06 -0.017034756 -0.0116406661 0.0010554106 -0.0167017542 -0.0124930236 0.00115102995 -0.0166717079 -0.0124886483 0.000214976142 -0.0169658475 -0.0106038181 0.00115102995 -0.0166717079 -0.0124886483 0.00124592159 -0.0166418906 -0.012475553 0.000214976142 -0.0169658475 -0.0106038181 0.000214976142 -0.0169658475 -0.0106038181 0.00124592159 -0.0166418906 -0.012475553 0.00133936328 -0.0166125279 -0.0124538383 0.000156711307 -0.0169841554 -0.0106834108 0.000105286104 -0.0170003157 -0.0107680243 0.000771457795 -0.0167909823 -0.0124538383 0.000105286104 -0.0170003157 -0.0107680243 6.10919305e-05 -0.0170142036 -0.0108570131 0.000771457795 -0.0167909823 -0.0124538383 0.000350202346 -0.0169233549 -0.0122239748 0.00042613456 -0.0168994945 -0.0122850491 -4.31556782e-06 -0.017034756 -0.0116406661 0.00042613456 -0.0168994945 -0.0122850491 0.000506855955 -0.016874129 -0.0123389531 -4.31556782e-06 -0.017034756 -0.0116406661 -4.31556782e-06 -0.017034756 -0.0116406661 0.000506855955 -0.016874129 -0.0123389531 0.000591752178 -0.0168474521 -0.012385278 0.000156711307 -0.0169841554 -0.0106834108 0.000771457795 -0.0167909823 -0.0124538383 0.000214976142 -0.0169658475 -0.0106038181 0.000771457795 -0.0167909823 -0.0124538383 0.000864899543 -0.0167616196 -0.012475553 0.000214976142 -0.0169658475 -0.0106038181 0.000214976142 -0.0169658475 -0.0106038181 0.000864899543 -0.0167616196 -0.012475553 0.000959791185 -0.0167318024 -0.0124886483 0.00211513671 -0.0163687542 -0.0116406661 0.00213585212 -0.0163622443 -0.0115427198 0.00176061876 -0.0164801553 -0.0104620727 0.00213585212 -0.0163622443 -0.0115427198 0.00214834488 -0.0163583178 -0.0114432527 0.00176061876 -0.0164801553 -0.0104620727 0.00176061876 -0.0164801553 -0.0104620727 0.00214834488 -0.0163583178 -0.0114432527 0.00215251977 -0.0163570065 -0.0113430237 0.00124592159 -0.0166418906 -0.0102104954 0.00115102995 -0.0166717079 -0.0101974001 0.00189584494 -0.0164376628 -0.0120822294 0.00115102995 -0.0166717079 -0.0101974001 0.0010554106 -0.0167017542 -0.0101930238 0.00189584494 -0.0164376628 -0.0120822294 0.00189584494 -0.0164376628 -0.0120822294 0.0010554106 -0.0167017542 -0.0101930238 0.000959791185 -0.0167318024 -0.0101974001 0.000680177123 -0.0168196652 -0.0102623776 0.000591752178 -0.0168474521 -0.0103007704 0.00189584494 -0.0164376628 -0.0120822294 0.000591752178 -0.0168474521 -0.0103007704 0.000506855955 -0.016874129 -0.0103470944 0.00189584494 -0.0164376628 -0.0120822294 6.10919305e-05 -0.0170142036 -0.0108570131 2.44651237e-05 -0.0170257129 -0.0109497011 0.000771457795 -0.0167909823 -0.0124538383 2.44651237e-05 -0.0170257129 -0.0109497011 -4.31556782e-06 -0.017034756 -0.0110453824 0.000771457795 -0.0167909823 -0.0124538383 0.000771457795 -0.0167909823 -0.0124538383 -4.31556782e-06 -0.017034756 -0.0110453824 -2.50311041e-05 -0.017041266 -0.0111433286 0.00133936328 -0.0166125279 -0.0124538383 0.00143064407 -0.0165838432 -0.0124236709 0.000214976142 -0.0169658475 -0.0106038181 0.00143064407 -0.0165838432 -0.0124236709 0.00151906896 -0.0165560581 -0.012385278 0.000214976142 -0.0169658475 -0.0106038181 0.000214976142 -0.0169658475 -0.0106038181 0.00151906896 -0.0165560581 -0.012385278 0.00160396518 -0.0165293813 -0.0123389531 0.00200553495 -0.0164031945 -0.0119180242 0.00204972923 -0.0163893066 -0.0118290354 0.00176061876 -0.0164801553 -0.0104620727 0.00204972923 -0.0163893066 -0.0118290354 0.00208635605 -0.0163777974 -0.0117363473 0.00176061876 -0.0164801553 -0.0104620727 0.00176061876 -0.0164801553 -0.0104620727 0.00208635605 -0.0163777974 -0.0117363473 0.00211513671 -0.0163687542 -0.0116406661 0.00215251977 -0.0163570065 -0.0113430237 0.00214834488 -0.0163583178 -0.0112427948 0.00176061876 -0.0164801553 -0.0104620727 0.00214834488 -0.0163583178 -0.0112427948 0.00213585212 -0.0163622443 -0.0111433286 0.00176061876 -0.0164801553 -0.0104620727 0.00176061876 -0.0164801553 -0.0104620727 0.00213585212 -0.0163622443 -0.0111433286 0.00211513671 -0.0163687542 -0.0110453824 0.00176061876 -0.0164801553 -0.0104620727 0.00168468652 -0.0165040158 -0.0104009993 0.00189584494 -0.0164376628 -0.0120822294 0.00168468652 -0.0165040158 -0.0104009993 0.00160396518 -0.0165293813 -0.0103470944 0.00189584494 -0.0164376628 -0.0120822294 0.00189584494 -0.0164376628 -0.0120822294 0.00160396518 -0.0165293813 -0.0103470944 0.00151906896 -0.0165560581 -0.0103007704 0.000959791185 -0.0167318024 -0.0101974001 0.000864899543 -0.0167616196 -0.0102104954 0.00189584494 -0.0164376628 -0.0120822294 0.000864899543 -0.0167616196 -0.0102104954 0.000771457795 -0.0167909823 -0.0102322092 0.00189584494 -0.0164376628 -0.0120822294 0.00189584494 -0.0164376628 -0.0120822294 0.000771457795 -0.0167909823 -0.0102322092 0.000680177123 -0.0168196652 -0.0102623776 0.000506855955 -0.016874129 -0.0103470944 0.00042613456 -0.0168994945 -0.0104009993 0.00189584494 -0.0164376628 -0.0120822294 0.00042613456 -0.0168994945 -0.0104009993 0.000350202346 -0.0169233549 -0.0104620727 0.00189584494 -0.0164376628 -0.0120822294 0.00189584494 -0.0164376628 -0.0120822294 0.000350202346 -0.0169233549 -0.0104620727 0.000279637199 -0.0169455279 -0.0105298515 -2.50311041e-05 -0.017041266 -0.0111433286 -3.75238269e-05 -0.0170451906 -0.0112427948 0.000771457795 -0.0167909823 -0.0124538383 -3.75238269e-05 -0.0170451906 -0.0112427948 -4.16986586e-05 -0.0170465037 -0.0113430237 0.000771457795 -0.0167909823 -0.0124538383 0.000771457795 -0.0167909823 -0.0124538383 -4.16986586e-05 -0.0170465037 -0.0113430237 -3.75238269e-05 -0.0170451906 -0.0114432527 0.000591752178 -0.0168474521 -0.012385278 0.000680177123 -0.0168196652 -0.0124236709 -4.31556782e-06 -0.017034756 -0.0116406661 0.000680177123 -0.0168196652 -0.0124236709 0.000771457795 -0.0167909823 -0.0124538383 -4.31556782e-06 -0.017034756 -0.0116406661 -4.31556782e-06 -0.017034756 -0.0116406661 0.000771457795 -0.0167909823 -0.0124538383 -2.50311041e-05 -0.017041266 -0.0115427198 0.000771457795 -0.0167909823 -0.0124538383 -3.75238269e-05 -0.0170451906 -0.0114432527 -2.50311041e-05 -0.017041266 -0.0115427198 0.000105286104 -0.0170003157 -0.0119180242 -4.31556782e-06 -0.017034756 -0.0116406661 6.10919305e-05 -0.0170142036 -0.0118290354 -4.31556782e-06 -0.017034756 -0.0116406661 2.44651237e-05 -0.0170257129 -0.0117363473 6.10919305e-05 -0.0170142036 -0.0118290354 0.000105286104 -0.0170003157 -0.0119180242 0.000156711307 -0.0169841554 -0.0120026367 -4.31556782e-06 -0.017034756 -0.0116406661 0.000156711307 -0.0169841554 -0.0120026367 0.000214976142 -0.0169658475 -0.0120822294 -4.31556782e-06 -0.017034756 -0.0116406661 -4.31556782e-06 -0.017034756 -0.0116406661 0.000214976142 -0.0169658475 -0.0120822294 0.000279637199 -0.0169455279 -0.0121561969 0.00160396518 -0.0165293813 -0.0123389531 0.00168468652 -0.0165040158 -0.0122850491 0.000214976142 -0.0169658475 -0.0106038181 0.00168468652 -0.0165040158 -0.0122850491 0.00176061876 -0.0164801553 -0.0122239748 0.000214976142 -0.0169658475 -0.0106038181 0.000214976142 -0.0169658475 -0.0106038181 0.00176061876 -0.0164801553 -0.0122239748 0.00183118391 -0.0164579805 -0.0121561969 0.00151906896 -0.0165560581 -0.0103007704 0.00143064407 -0.0165838432 -0.0102623776 0.00189584494 -0.0164376628 -0.0120822294 0.00143064407 -0.0165838432 -0.0102623776 0.00133936328 -0.0166125279 -0.0102322092 0.00189584494 -0.0164376628 -0.0120822294 0.00189584494 -0.0164376628 -0.0120822294 0.00133936328 -0.0166125279 -0.0102322092 0.00124592159 -0.0166418906 -0.0102104954 0.00211513671 -0.0163687542 -0.0110453824 0.00208635605 -0.0163777974 -0.0109497011 0.00176061876 -0.0164801553 -0.0104620727 0.00208635605 -0.0163777974 -0.0109497011 0.00204972923 -0.0163893066 -0.0108570131 0.00176061876 -0.0164801553 -0.0104620727 0.00176061876 -0.0164801553 -0.0104620727 0.00204972923 -0.0163893066 -0.0108570131 0.00200553495 -0.0164031945 -0.0107680243 0.00200553495 -0.0164031945 -0.0107680243 0.00195410987 -0.016419353 -0.0106834108 0.00176061876 -0.0164801553 -0.0104620727 0.00195410987 -0.016419353 -0.0106834108 0.00189584494 -0.0164376628 -0.0106038181 0.00176061876 -0.0164801553 -0.0104620727 0.00176061876 -0.0164801553 -0.0104620727 0.00189584494 -0.0164376628 -0.0106038181 0.00183118391 -0.0164579805 -0.0105298515 -2.01438925e-05 -0.0159915201 -0.0105298515 5.04212621e-05 -0.0159693472 -0.0104620727 0.00159606396 -0.0154836541 -0.0120822294 0.000471676729 -0.0158369746 -0.0102322092 0.00159606396 -0.0154836541 -0.0120822294 0.000380396028 -0.0158656575 -0.0102623776 0.00159606396 -0.0154836541 -0.0120822294 0.000291971082 -0.0158934444 -0.0103007704 0.000380396028 -0.0158656575 -0.0102623776 0.000946140499 -0.015687881 -0.0102104954 0.00159606396 -0.0154836541 -0.0120822294 0.000851248857 -0.0157177001 -0.0101974001 0.00159606396 -0.0154836541 -0.0120822294 0.000755629502 -0.0157477465 -0.0101930238 0.000851248857 -0.0157177001 -0.0101974001 -2.01438925e-05 -0.0159915201 -0.0105298515 0.00159606396 -0.0154836541 -0.0120822294 -8.48049458e-05 -0.0160118397 -0.0106038181 0.00159606396 -0.0154836541 -0.0120822294 0.00153140281 -0.0155039728 -0.0121561969 -8.48049458e-05 -0.0160118397 -0.0106038181 -8.48049458e-05 -0.0160118397 -0.0106038181 0.00153140281 -0.0155039728 -0.0121561969 0.00146083767 -0.0155261466 -0.0122239748 0.000946140499 -0.015687881 -0.012475553 0.000851248857 -0.0157177001 -0.0124886483 -8.48049458e-05 -0.0160118397 -0.0106038181 0.000851248857 -0.0157177001 -0.0124886483 0.000755629502 -0.0157477465 -0.0124930236 -8.48049458e-05 -0.0160118397 -0.0106038181 -8.48049458e-05 -0.0160118397 -0.0106038181 0.000755629502 -0.0157477465 -0.0124930236 0.00066001009 -0.0157777928 -0.0124886483 0.000291971082 -0.0158934444 -0.012385278 0.000207074874 -0.0159201212 -0.0123389531 -8.48049458e-05 -0.0160118397 -0.0120822294 -0.000143069788 -0.0160301477 -0.0120026367 -0.000194494976 -0.016046308 -0.0119180242 0.000471676729 -0.0158369746 -0.0124538383 5.04212621e-05 -0.0159693472 -0.0104620727 0.00012635348 -0.0159454867 -0.0104009993 0.00159606396 -0.0154836541 -0.0120822294 0.00012635348 -0.0159454867 -0.0104009993 0.000207074874 -0.0159201212 -0.0103470944 0.00159606396 -0.0154836541 -0.0120822294 0.00159606396 -0.0154836541 -0.0120822294 0.000207074874 -0.0159201212 -0.0103470944 0.000291971082 -0.0158934444 -0.0103007704 0.000471676729 -0.0158369746 -0.0102322092 0.000565118447 -0.0158076119 -0.0102104954 0.00159606396 -0.0154836541 -0.0120822294 0.000565118447 -0.0158076119 -0.0102104954 0.00066001009 -0.0157777928 -0.0101974001 0.00159606396 -0.0154836541 -0.0120822294 0.00159606396 -0.0154836541 -0.0120822294 0.00066001009 -0.0157777928 -0.0101974001 0.000755629502 -0.0157477465 -0.0101930238 0.00066001009 -0.0157777928 -0.0124886483 0.000565118447 -0.0158076119 -0.012475553 -8.48049458e-05 -0.0160118397 -0.0106038181 0.000565118447 -0.0158076119 -0.012475553 0.000471676729 -0.0158369746 -0.0124538383 -8.48049458e-05 -0.0160118397 -0.0106038181 -8.48049458e-05 -0.0160118397 -0.0106038181 0.000471676729 -0.0158369746 -0.0124538383 -0.000143069788 -0.0160301477 -0.0106834108 0.000471676729 -0.0158369746 -0.0124538383 -0.000194494976 -0.016046308 -0.0107680243 -0.000143069788 -0.0160301477 -0.0106834108 0.000946140499 -0.015687881 -0.0102104954 0.00103958219 -0.0156585183 -0.0102322092 0.00159606396 -0.0154836541 -0.0120822294 0.00103958219 -0.0156585183 -0.0102322092 0.00113086298 -0.0156298354 -0.0102623776 0.00159606396 -0.0154836541 -0.0120822294 0.00159606396 -0.0154836541 -0.0120822294 0.00113086298 -0.0156298354 -0.0102623776 0.00121928786 -0.0156020494 -0.0103007704 0.00121928786 -0.0156020494 -0.0103007704 0.00130418409 -0.0155753726 -0.0103470944 0.00159606396 -0.0154836541 -0.0120822294 0.00130418409 -0.0155753726 -0.0103470944 0.00138490542 -0.0155500071 -0.0104009993 0.00159606396 -0.0154836541 -0.0120822294 0.00159606396 -0.0154836541 -0.0120822294 0.00138490542 -0.0155500071 -0.0104009993 0.00146083767 -0.0155261466 -0.0104620727 0.00146083767 -0.0155261466 -0.0104620727 0.00153140281 -0.0155039728 -0.0105298515 0.00159606396 -0.0154836541 -0.0120822294 0.00153140281 -0.0155039728 -0.0105298515 0.00159606396 -0.0154836541 -0.0106038181 0.00159606396 -0.0154836541 -0.0120822294 0.00159606396 -0.0154836541 -0.0120822294 0.00159606396 -0.0154836541 -0.0106038181 0.00165432878 -0.0154653452 -0.0106834108 0.00146083767 -0.0155261466 -0.0122239748 0.00138490542 -0.0155500071 -0.0122850491 -8.48049458e-05 -0.0160118397 -0.0106038181 0.00138490542 -0.0155500071 -0.0122850491 0.00130418409 -0.0155753726 -0.0123389531 -8.48049458e-05 -0.0160118397 -0.0106038181 -8.48049458e-05 -0.0160118397 -0.0106038181 0.00130418409 -0.0155753726 -0.0123389531 0.00121928786 -0.0156020494 -0.012385278 -0.000143069788 -0.0160301477 -0.0120026367 0.000471676729 -0.0158369746 -0.0124538383 -8.48049458e-05 -0.0160118397 -0.0120822294 0.000471676729 -0.0158369746 -0.0124538383 0.000380396028 -0.0158656575 -0.0124236709 -8.48049458e-05 -0.0160118397 -0.0120822294 -8.48049458e-05 -0.0160118397 -0.0120822294 0.000380396028 -0.0158656575 -0.0124236709 0.000291971082 -0.0158934444 -0.012385278 0.000207074874 -0.0159201212 -0.0123389531 0.00012635348 -0.0159454867 -0.0122850491 -8.48049458e-05 -0.0160118397 -0.0120822294 0.00012635348 -0.0159454867 -0.0122850491 5.04212621e-05 -0.0159693472 -0.0122239748 -8.48049458e-05 -0.0160118397 -0.0120822294 -8.48049458e-05 -0.0160118397 -0.0120822294 5.04212621e-05 -0.0159693472 -0.0122239748 -2.01438925e-05 -0.0159915201 -0.0121561969 -0.000194494976 -0.016046308 -0.0119180242 -0.000238689157 -0.016060194 -0.0118290354 0.000471676729 -0.0158369746 -0.0124538383 -0.000238689157 -0.016060194 -0.0118290354 -0.00027531595 -0.0160717033 -0.0117363473 0.000471676729 -0.0158369746 -0.0124538383 0.000471676729 -0.0158369746 -0.0124538383 -0.00027531595 -0.0160717033 -0.0117363473 -0.00030409664 -0.0160807483 -0.0116406661 -0.00030409664 -0.0160807483 -0.0116406661 -0.000324812194 -0.0160872582 -0.0115427198 0.000471676729 -0.0158369746 -0.0124538383 -0.000324812194 -0.0160872582 -0.0115427198 -0.000337304926 -0.0160911828 -0.0114432527 0.000471676729 -0.0158369746 -0.0124538383 0.000471676729 -0.0158369746 -0.0124538383 -0.000337304926 -0.0160911828 -0.0114432527 -0.000341479754 -0.0160924941 -0.0113430237 -0.000341479754 -0.0160924941 -0.0113430237 -0.000337304926 -0.0160911828 -0.0112427948 0.000471676729 -0.0158369746 -0.0124538383 -0.000337304926 -0.0160911828 -0.0112427948 -0.000324812194 -0.0160872582 -0.0111433286 0.000471676729 -0.0158369746 -0.0124538383 0.000471676729 -0.0158369746 -0.0124538383 -0.000324812194 -0.0160872582 -0.0111433286 -0.00030409664 -0.0160807483 -0.0110453824 -0.00030409664 -0.0160807483 -0.0110453824 -0.00027531595 -0.0160717033 -0.0109497011 0.000471676729 -0.0158369746 -0.0124538383 -0.00027531595 -0.0160717033 -0.0109497011 -0.000238689157 -0.016060194 -0.0108570131 0.000471676729 -0.0158369746 -0.0124538383 0.000471676729 -0.0158369746 -0.0124538383 -0.000238689157 -0.016060194 -0.0108570131 -0.000194494976 -0.016046308 -0.0107680243 0.00174994813 -0.0154352989 -0.0108570131 0.00183607114 -0.0154082356 -0.0115427198 0.00181535562 -0.0154147455 -0.0116406661 0.00181535562 -0.0154147455 -0.0116406661 0.00178657495 -0.0154237896 -0.0117363473 0.00174994813 -0.0154352989 -0.0108570131 0.00178657495 -0.0154237896 -0.0117363473 0.00174994813 -0.0154352989 -0.0118290354 0.00174994813 -0.0154352989 -0.0108570131 0.00174994813 -0.0154352989 -0.0108570131 0.00174994813 -0.0154352989 -0.0118290354 0.00170575397 -0.0154491859 -0.0119180242 0.00165432878 -0.0154653452 -0.0106834108 0.00170575397 -0.0154491859 -0.0107680243 0.00159606396 -0.0154836541 -0.0120822294 0.00170575397 -0.0154491859 -0.0107680243 0.00174994813 -0.0154352989 -0.0108570131 0.00159606396 -0.0154836541 -0.0120822294 0.00159606396 -0.0154836541 -0.0120822294 0.00174994813 -0.0154352989 -0.0108570131 0.00165432878 -0.0154653452 -0.0120026367 0.00174994813 -0.0154352989 -0.0108570131 0.00170575397 -0.0154491859 -0.0119180242 0.00165432878 -0.0154653452 -0.0120026367 0.00121928786 -0.0156020494 -0.012385278 0.00113086298 -0.0156298354 -0.0124236709 -8.48049458e-05 -0.0160118397 -0.0106038181 0.00113086298 -0.0156298354 -0.0124236709 0.00103958219 -0.0156585183 -0.0124538383 -8.48049458e-05 -0.0160118397 -0.0106038181 -8.48049458e-05 -0.0160118397 -0.0106038181 0.00103958219 -0.0156585183 -0.0124538383 0.000946140499 -0.015687881 -0.012475553 0.00178657495 -0.0154237896 -0.0109497011 0.00181535562 -0.0154147455 -0.0110453824 0.00174994813 -0.0154352989 -0.0108570131 0.00181535562 -0.0154147455 -0.0110453824 0.00183607114 -0.0154082356 -0.0111433286 0.00174994813 -0.0154352989 -0.0108570131 0.00174994813 -0.0154352989 -0.0108570131 0.00183607114 -0.0154082356 -0.0111433286 0.0018485639 -0.0154043101 -0.0112427948 0.0018485639 -0.0154043101 -0.0112427948 0.00185273867 -0.0154029988 -0.0113430237 0.00174994813 -0.0154352989 -0.0108570131 0.00185273867 -0.0154029988 -0.0113430237 0.0018485639 -0.0154043101 -0.0114432527 0.00174994813 -0.0154352989 -0.0108570131 0.00174994813 -0.0154352989 -0.0108570131 0.0018485639 -0.0154043101 -0.0114432527 0.00183607114 -0.0154082356 -0.0115427198 -4.16986586e-05 -0.0170465037 -0.0113430237 -0.000341479754 -0.0160924941 -0.0113430237 -0.000337304926 -0.0160911828 -0.0114432527 -4.16986586e-05 -0.0170465037 -0.0113430237 -0.000337304926 -0.0160911828 -0.0114432527 -3.75238269e-05 -0.0170451906 -0.0114432527 -0.000337304926 -0.0160911828 -0.0114432527 -0.000324812194 -0.0160872582 -0.0115427198 -3.75238269e-05 -0.0170451906 -0.0114432527 -3.75238269e-05 -0.0170451906 -0.0114432527 -0.000324812194 -0.0160872582 -0.0115427198 -2.50311041e-05 -0.017041266 -0.0115427198 -0.000324812194 -0.0160872582 -0.0115427198 -0.00030409664 -0.0160807483 -0.0116406661 -2.50311041e-05 -0.017041266 -0.0115427198 -2.50311041e-05 -0.017041266 -0.0115427198 -0.00030409664 -0.0160807483 -0.0116406661 -4.31556782e-06 -0.017034756 -0.0116406661 -0.00030409664 -0.0160807483 -0.0116406661 -0.00027531595 -0.0160717033 -0.0117363473 -4.31556782e-06 -0.017034756 -0.0116406661 -4.31556782e-06 -0.017034756 -0.0116406661 -0.00027531595 -0.0160717033 -0.0117363473 2.44651237e-05 -0.0170257129 -0.0117363473 -0.00027531595 -0.0160717033 -0.0117363473 -0.000238689157 -0.016060194 -0.0118290354 2.44651237e-05 -0.0170257129 -0.0117363473 2.44651237e-05 -0.0170257129 -0.0117363473 -0.000238689157 -0.016060194 -0.0118290354 6.10919305e-05 -0.0170142036 -0.0118290354 -0.000238689157 -0.016060194 -0.0118290354 -0.000194494976 -0.016046308 -0.0119180242 6.10919305e-05 -0.0170142036 -0.0118290354 6.10919305e-05 -0.0170142036 -0.0118290354 -0.000194494976 -0.016046308 -0.0119180242 0.000105286104 -0.0170003157 -0.0119180242 -0.000194494976 -0.016046308 -0.0119180242 -0.000143069788 -0.0160301477 -0.0120026367 0.000105286104 -0.0170003157 -0.0119180242 0.000105286104 -0.0170003157 -0.0119180242 -0.000143069788 -0.0160301477 -0.0120026367 0.000156711307 -0.0169841554 -0.0120026367 -0.000143069788 -0.0160301477 -0.0120026367 -8.48049458e-05 -0.0160118397 -0.0120822294 0.000156711307 -0.0169841554 -0.0120026367 0.000156711307 -0.0169841554 -0.0120026367 -8.48049458e-05 -0.0160118397 -0.0120822294 0.000214976142 -0.0169658475 -0.0120822294 -8.48049458e-05 -0.0160118397 -0.0120822294 -2.01438925e-05 -0.0159915201 -0.0121561969 0.000214976142 -0.0169658475 -0.0120822294 0.000214976142 -0.0169658475 -0.0120822294 -2.01438925e-05 -0.0159915201 -0.0121561969 0.000279637199 -0.0169455279 -0.0121561969 -2.01438925e-05 -0.0159915201 -0.0121561969 5.04212621e-05 -0.0159693472 -0.0122239748 0.000279637199 -0.0169455279 -0.0121561969 0.000279637199 -0.0169455279 -0.0121561969 5.04212621e-05 -0.0159693472 -0.0122239748 0.000350202346 -0.0169233549 -0.0122239748 5.04212621e-05 -0.0159693472 -0.0122239748 0.00012635348 -0.0159454867 -0.0122850491 0.000350202346 -0.0169233549 -0.0122239748 0.000350202346 -0.0169233549 -0.0122239748 0.00012635348 -0.0159454867 -0.0122850491 0.00042613456 -0.0168994945 -0.0122850491 0.00012635348 -0.0159454867 -0.0122850491 0.000207074874 -0.0159201212 -0.0123389531 0.00042613456 -0.0168994945 -0.0122850491 0.00042613456 -0.0168994945 -0.0122850491 0.000207074874 -0.0159201212 -0.0123389531 0.000506855955 -0.016874129 -0.0123389531 0.000207074874 -0.0159201212 -0.0123389531 0.000291971082 -0.0158934444 -0.012385278 0.000506855955 -0.016874129 -0.0123389531 0.000506855955 -0.016874129 -0.0123389531 0.000291971082 -0.0158934444 -0.012385278 0.000591752178 -0.0168474521 -0.012385278 0.000291971082 -0.0158934444 -0.012385278 0.000380396028 -0.0158656575 -0.0124236709 0.000591752178 -0.0168474521 -0.012385278 0.000591752178 -0.0168474521 -0.012385278 0.000380396028 -0.0158656575 -0.0124236709 0.000680177123 -0.0168196652 -0.0124236709 0.000380396028 -0.0158656575 -0.0124236709 0.000471676729 -0.0158369746 -0.0124538383 0.000680177123 -0.0168196652 -0.0124236709 0.000680177123 -0.0168196652 -0.0124236709 0.000471676729 -0.0158369746 -0.0124538383 0.000771457795 -0.0167909823 -0.0124538383 0.000471676729 -0.0158369746 -0.0124538383 0.000565118447 -0.0158076119 -0.012475553 0.000771457795 -0.0167909823 -0.0124538383 0.000771457795 -0.0167909823 -0.0124538383 0.000565118447 -0.0158076119 -0.012475553 0.000864899543 -0.0167616196 -0.012475553 0.000565118447 -0.0158076119 -0.012475553 0.00066001009 -0.0157777928 -0.0124886483 0.000864899543 -0.0167616196 -0.012475553 0.000864899543 -0.0167616196 -0.012475553 0.00066001009 -0.0157777928 -0.0124886483 0.000959791185 -0.0167318024 -0.0124886483 0.00066001009 -0.0157777928 -0.0124886483 0.000755629502 -0.0157477465 -0.0124930236 0.000959791185 -0.0167318024 -0.0124886483 0.000959791185 -0.0167318024 -0.0124886483 0.000755629502 -0.0157477465 -0.0124930236 0.0010554106 -0.0167017542 -0.0124930236 0.000755629502 -0.0157477465 -0.0124930236 0.000851248857 -0.0157177001 -0.0124886483 0.0010554106 -0.0167017542 -0.0124930236 0.0010554106 -0.0167017542 -0.0124930236 0.000851248857 -0.0157177001 -0.0124886483 0.00115102995 -0.0166717079 -0.0124886483 0.000851248857 -0.0157177001 -0.0124886483 0.000946140499 -0.015687881 -0.012475553 0.00115102995 -0.0166717079 -0.0124886483 0.00115102995 -0.0166717079 -0.0124886483 0.000946140499 -0.015687881 -0.012475553 0.00124592159 -0.0166418906 -0.012475553 0.000946140499 -0.015687881 -0.012475553 0.00103958219 -0.0156585183 -0.0124538383 0.00124592159 -0.0166418906 -0.012475553 0.00124592159 -0.0166418906 -0.012475553 0.00103958219 -0.0156585183 -0.0124538383 0.00133936328 -0.0166125279 -0.0124538383 0.00103958219 -0.0156585183 -0.0124538383 0.00113086298 -0.0156298354 -0.0124236709 0.00133936328 -0.0166125279 -0.0124538383 0.00133936328 -0.0166125279 -0.0124538383 0.00113086298 -0.0156298354 -0.0124236709 0.00143064407 -0.0165838432 -0.0124236709 0.00113086298 -0.0156298354 -0.0124236709 0.00121928786 -0.0156020494 -0.012385278 0.00143064407 -0.0165838432 -0.0124236709 0.00143064407 -0.0165838432 -0.0124236709 0.00121928786 -0.0156020494 -0.012385278 0.00151906896 -0.0165560581 -0.012385278 0.00121928786 -0.0156020494 -0.012385278 0.00130418409 -0.0155753726 -0.0123389531 0.00151906896 -0.0165560581 -0.012385278 0.00151906896 -0.0165560581 -0.012385278 0.00130418409 -0.0155753726 -0.0123389531 0.00160396518 -0.0165293813 -0.0123389531 0.00130418409 -0.0155753726 -0.0123389531 0.00138490542 -0.0155500071 -0.0122850491 0.00160396518 -0.0165293813 -0.0123389531 0.00160396518 -0.0165293813 -0.0123389531 0.00138490542 -0.0155500071 -0.0122850491 0.00168468652 -0.0165040158 -0.0122850491 0.00138490542 -0.0155500071 -0.0122850491 0.00146083767 -0.0155261466 -0.0122239748 0.00168468652 -0.0165040158 -0.0122850491 0.00168468652 -0.0165040158 -0.0122850491 0.00146083767 -0.0155261466 -0.0122239748 0.00176061876 -0.0164801553 -0.0122239748 0.00146083767 -0.0155261466 -0.0122239748 0.00153140281 -0.0155039728 -0.0121561969 0.00176061876 -0.0164801553 -0.0122239748 0.00176061876 -0.0164801553 -0.0122239748 0.00153140281 -0.0155039728 -0.0121561969 0.00183118391 -0.0164579805 -0.0121561969 0.00153140281 -0.0155039728 -0.0121561969 0.00159606396 -0.0154836541 -0.0120822294 0.00183118391 -0.0164579805 -0.0121561969 0.00183118391 -0.0164579805 -0.0121561969 0.00159606396 -0.0154836541 -0.0120822294 0.00189584494 -0.0164376628 -0.0120822294 0.00159606396 -0.0154836541 -0.0120822294 0.00165432878 -0.0154653452 -0.0120026367 0.00189584494 -0.0164376628 -0.0120822294 0.00189584494 -0.0164376628 -0.0120822294 0.00165432878 -0.0154653452 -0.0120026367 0.00195410987 -0.016419353 -0.0120026367 0.00165432878 -0.0154653452 -0.0120026367 0.00170575397 -0.0154491859 -0.0119180242 0.00195410987 -0.016419353 -0.0120026367 0.00195410987 -0.016419353 -0.0120026367 0.00170575397 -0.0154491859 -0.0119180242 0.00200553495 -0.0164031945 -0.0119180242 0.00170575397 -0.0154491859 -0.0119180242 0.00174994813 -0.0154352989 -0.0118290354 0.00200553495 -0.0164031945 -0.0119180242 0.00200553495 -0.0164031945 -0.0119180242 0.00174994813 -0.0154352989 -0.0118290354 0.00204972923 -0.0163893066 -0.0118290354 0.00174994813 -0.0154352989 -0.0118290354 0.00178657495 -0.0154237896 -0.0117363473 0.00204972923 -0.0163893066 -0.0118290354 0.00204972923 -0.0163893066 -0.0118290354 0.00178657495 -0.0154237896 -0.0117363473 0.00208635605 -0.0163777974 -0.0117363473 0.00178657495 -0.0154237896 -0.0117363473 0.00181535562 -0.0154147455 -0.0116406661 0.00208635605 -0.0163777974 -0.0117363473 0.00208635605 -0.0163777974 -0.0117363473 0.00181535562 -0.0154147455 -0.0116406661 0.00211513671 -0.0163687542 -0.0116406661 0.00181535562 -0.0154147455 -0.0116406661 0.00183607114 -0.0154082356 -0.0115427198 0.00211513671 -0.0163687542 -0.0116406661 0.00211513671 -0.0163687542 -0.0116406661 0.00183607114 -0.0154082356 -0.0115427198 0.00213585212 -0.0163622443 -0.0115427198 0.00183607114 -0.0154082356 -0.0115427198 0.0018485639 -0.0154043101 -0.0114432527 0.00213585212 -0.0163622443 -0.0115427198 0.00213585212 -0.0163622443 -0.0115427198 0.0018485639 -0.0154043101 -0.0114432527 0.00214834488 -0.0163583178 -0.0114432527 0.0018485639 -0.0154043101 -0.0114432527 0.00185273867 -0.0154029988 -0.0113430237 0.00214834488 -0.0163583178 -0.0114432527 0.00214834488 -0.0163583178 -0.0114432527 0.00185273867 -0.0154029988 -0.0113430237 0.00215251977 -0.0163570065 -0.0113430237 </float_array>
          <technique_common>
            <accessor count="852" offset="0" source="#mesh_0-positions-array" stride="3">
              <param name="X" type="float" />
              <param name="Y" type="float" />
              <param name="Z" type="float" />
            </accessor>
          </technique_common>
        </source>
        <source id="mesh_0-normals" name="mesh_0-normals">
          <float_array id="mesh_0-normals-array" count="2556"> 0.953100085 0.299495876 0.043617174 0.953100085 0.299495876 0.043617174 0.953100085 0.299495876 0.043617174 0.953100085 0.299495757 0.0436182804 0.953100085 0.299495757 0.0436182804 0.953100085 0.299495757 0.0436182804 0.945846319 0.297216386 0.130526394 0.945846319 0.297216386 0.130526394 0.945846319 0.297216386 0.130526394 0.945846081 0.297216028 0.130529135 0.945846081 0.297216028 0.130529135 0.945846081 0.297216028 0.130529135 0.931393981 0.29267469 0.216441244 0.931393981 0.29267469 0.216441244 0.931393981 0.29267469 0.216441244 0.93139416 0.292674869 0.216440186 0.93139416 0.292674869 0.216440186 0.93139416 0.292674869 0.216440186 0.909853578 0.285906106 0.300706059 0.909853578 0.285906106 0.300706059 0.909853578 0.285906106 0.300706059 0.909854293 0.285906613 0.300703555 0.909854293 0.285906613 0.300703555 0.909854293 0.285906613 0.300703555 0.881388724 0.276961774 0.382682711 0.881388724 0.276961774 0.382682711 0.881388724 0.276961774 0.382682711 0.881388724 0.276961774 0.382682711 0.881388724 0.276961774 0.382682711 0.881388724 0.276961774 0.382682711 0.846215427 0.265909165 0.46174857 0.846215427 0.265909165 0.46174857 0.846215427 0.265909165 0.46174857 0.846213996 0.26590836 0.46175164 0.846213996 0.26590836 0.46175164 0.846213996 0.26590836 0.46175164 0.804603994 0.252833098 0.537296832 0.804603994 0.252833098 0.537296832 0.804603994 0.252833098 0.537296832 0.804605544 0.252833933 0.53729403 0.804605544 0.252833933 0.53729403 0.804605544 0.252833933 0.53729403 0.756864786 0.237832189 0.608762324 0.756864786 0.237832189 0.608762324 0.756864786 0.237832189 0.608762324 0.756863058 0.237831339 0.608764768 0.756863058 0.237831339 0.608764768 0.756863058 0.237831339 0.608764768 0.703366041 0.221020803 0.675593078 0.703366041 0.221020803 0.675593078 0.703366041 0.221020803 0.675593078 0.703367829 0.221021667 0.675590932 0.703367829 0.221021667 0.675590932 0.703367829 0.221021667 0.675590932 0.644521415 0.202530161 0.737274468 0.644521415 0.202530161 0.737274468 0.644521415 0.202530161 0.737274468 0.644520164 0.202529564 0.73727572 0.644520164 0.202529564 0.73727572 0.644520164 0.202529564 0.73727572 0.580760717 0.182494238 0.793355405 0.580760717 0.182494238 0.793355405 0.580760717 0.182494238 0.793355405 0.580760717 0.182494238 0.793355405 0.580760717 0.182494238 0.793355405 0.580760717 0.182494238 0.793355405 0.512592137 0.161073416 0.843388796 0.512592137 0.161073416 0.843388796 0.512592137 0.161073416 0.843388796 0.512592137 0.161073416 0.843388796 0.512592137 0.161073416 0.843388796 0.512592137 0.161073416 0.843388796 0.440506727 0.138421789 0.887013674 0.440506727 0.138421789 0.887013674 0.440506727 0.138421789 0.887013674 0.440506727 0.138421789 0.887013674 0.440506727 0.138421789 0.887013674 0.440506727 0.138421789 0.887013674 0.365085602 0.114721976 0.923878431 0.365085602 0.114721976 0.923878431 0.365085602 0.114721976 0.923878431 0.365086496 0.114722371 0.923878014 0.365086496 0.114722371 0.923878014 0.365086496 0.114722371 0.923878014 0.286877215 0.0901464 0.953716457 0.286877215 0.0901464 0.953716457 0.286877215 0.0901464 0.953716457 0.286875725 0.0901457593 0.953716993 0.286875725 0.0901457593 0.953716993 0.286875725 0.0901457593 0.953716993 0.206481233 0.0648831725 0.976296902 0.206481233 0.0648831725 0.976296902 0.206481233 0.0648831725 0.976296902 0.206481233 0.0648831725 0.976296902 0.206481233 0.0648831725 0.976296902 0.206481233 0.0648831725 0.976296902 0.124525875 0.039130114 0.991444468 0.124525875 0.039130114 0.991444468 0.124525875 0.039130114 0.991444468 0.124526545 0.0391304009 0.991444349 0.124526545 0.0391304009 0.991444349 0.124526545 0.0391304009 0.991444349 0.0416150875 0.0130768502 0.999048114 0.0416150875 0.0130768502 0.999048114 0.0416150875 0.0130768502 0.999048114 0.0416150875 0.0130768502 0.999048114 0.0416150875 0.0130768502 0.999048114 0.0416150875 0.0130768502 0.999048114 -0.0416150652 -0.0130768437 0.999048114 -0.0416150652 -0.0130768437 0.999048114 -0.0416150652 -0.0130768437 0.999048114 -0.0416148417 -0.0130767478 0.999048173 -0.0416148417 -0.0130767478 0.999048173 -0.0416148417 -0.0130767478 0.999048173 -0.124525875 -0.039130114 0.991444468 -0.124525875 -0.039130114 0.991444468 -0.124525875 -0.039130114 0.991444468 -0.124526545 -0.0391304009 0.991444349 -0.124526545 -0.0391304009 0.991444349 -0.124526545 -0.0391304009 0.991444349 -0.206481129 -0.0648832694 0.976296961 -0.206481129 -0.0648832694 0.976296961 -0.206481129 -0.0648832694 0.976296961 -0.206481084 -0.064883247 0.976296961 -0.206481084 -0.064883247 0.976296961 -0.206481084 -0.064883247 0.976296961 -0.286877424 -0.0901464671 0.953716397 -0.286877424 -0.0901464671 0.953716397 -0.286877424 -0.0901464671 0.953716397 -0.286877513 -0.0901464969 0.953716338 -0.286877513 -0.0901464969 0.953716338 -0.286877513 -0.0901464969 0.953716338 -0.36508444 -0.114721723 0.923878908 -0.36508444 -0.114721723 0.923878908 -0.36508444 -0.114721723 0.923878908 -0.36508444 -0.114721723 0.923878908 -0.36508444 -0.114721723 0.923878908 -0.36508444 -0.114721723 0.923878908 -0.440506727 -0.138421923 0.887013614 -0.440506727 -0.138421923 0.887013614 -0.440506727 -0.138421923 0.887013614 -0.440506697 -0.138421908 0.887013674 -0.440506697 -0.138421908 0.887013674 -0.440506697 -0.138421908 0.887013674 -0.512591839 -0.161073476 0.843388975 -0.512591839 -0.161073476 0.843388975 -0.512591839 -0.161073476 0.843388975 -0.512591839 -0.161073476 0.843388975 -0.512591839 -0.161073476 0.843388975 -0.512591839 -0.161073476 0.843388975 -0.580760777 -0.182494432 0.793355346 -0.580760777 -0.182494432 0.793355346 -0.580760777 -0.182494432 0.793355346 -0.580760837 -0.182494432 0.793355346 -0.580760837 -0.182494432 0.793355346 -0.580760837 -0.182494432 0.793355346 -0.644522727 -0.202530563 0.737273216 -0.644522727 -0.202530563 0.737273216 -0.644522727 -0.202530563 0.737273216 -0.644522786 -0.202530578 0.737273216 -0.644522786 -0.202530578 0.737273216 -0.644522786 -0.202530578 0.737273216 -0.703365088 -0.221020788 0.675594091 -0.703365088 -0.221020788 0.675594091 -0.703365088 -0.221020788 0.675594091 -0.703365028 -0.221020788 0.675594151 -0.703365028 -0.221020788 0.675594151 -0.703365028 -0.221020788 0.675594151 -0.756865978 -0.237832561 0.608760715 -0.756865978 -0.237832561 0.608760715 -0.756865978 -0.237832561 0.608760715 -0.756865978 -0.237832576 0.608760655 -0.756865978 -0.237832576 0.608760655 -0.756865978 -0.237832576 0.608760655 -0.804602683 -0.252833039 0.537298799 -0.804602683 -0.252833039 0.537298799 -0.804602683 -0.252833039 0.537298799 -0.804602623 -0.252833009 0.537298858 -0.804602623 -0.252833009 0.537298858 -0.804602623 -0.252833009 0.537298858 -0.8462165 -0.265909463 0.461746484 -0.8462165 -0.265909463 0.461746484 -0.8462165 -0.265909463 0.461746484 -0.846214473 -0.265908331 0.461750835 -0.846214473 -0.265908331 0.461750835 -0.846214473 -0.265908331 0.461750835 -0.881389022 -0.276961327 0.382682472 -0.881389022 -0.276961327 0.382682472 -0.881389022 -0.276961327 0.382682472 -0.881388962 -0.276961297 0.382682592 -0.881388962 -0.276961297 0.382682592 -0.881388962 -0.276961297 0.382682592 -0.909852862 -0.28590557 0.30070886 -0.909852862 -0.28590557 0.30070886 -0.909852862 -0.28590557 0.30070886 -0.909854174 -0.285906553 0.300703794 -0.909854174 -0.285906553 0.300703794 -0.909854174 -0.285906553 0.300703794 -0.931393802 -0.292675018 0.216441497 -0.931393802 -0.292675018 0.216441497 -0.931393802 -0.292675018 0.216441497 -0.931393802 -0.292675048 0.216441348 -0.931393802 -0.292675048 0.216441348 -0.931393802 -0.292675048 0.216441348 -0.945846677 -0.297216624 0.130523384 -0.945846677 -0.297216624 0.130523384 -0.945846677 -0.297216624 0.130523384 -0.945846677 -0.297216624 0.130523309 -0.945846677 -0.297216624 0.130523309 -0.945846677 -0.297216624 0.130523309 -0.953100026 -0.299495876 0.0436177291 -0.953100026 -0.299495876 0.0436177291 -0.953100026 -0.299495876 0.0436177291 -0.953099966 -0.29949528 0.043623317 -0.953099966 -0.29949528 0.043623317 -0.953099966 -0.29949528 0.043623317 0.299786478 -0.954006314 6.91430523e-06 0.299786478 -0.954006314 6.91430523e-06 0.299786478 -0.954006314 6.91430523e-06 0.29977566 -0.954009712 -6.60034448e-06 0.29977566 -0.954009712 -6.60034448e-06 0.29977566 -0.954009712 -6.60034448e-06 0.299793929 -0.95400399 5.88251532e-06 0.299793929 -0.95400399 5.88251532e-06 0.299793929 -0.95400399 5.88251532e-06 0.299767524 -0.954012275 -2.47612275e-06 0.299767524 -0.954012275 -2.47612275e-06 0.299767524 -0.954012275 -2.47612275e-06 0.299794674 -0.954003751 1.27219357e-06 0.299794674 -0.954003751 1.27219357e-06 0.299794674 -0.954003751 1.27219357e-06 0.299752653 -0.954016924 -1.85739736e-05 0.299752653 -0.954016924 -1.85739736e-05 0.299752653 -0.954016924 -1.85739736e-05 0.299777031 -0.954009295 -2.374926e-06 0.299777031 -0.954009295 -2.374926e-06 0.299777031 -0.954009295 -2.374926e-06 0.299773484 -0.954010427 -4.31706303e-06 0.299773484 -0.954010427 -4.31706303e-06 0.299773484 -0.954010427 -4.31706303e-06 0.299783081 -0.954007387 1.48763297e-06 0.299783081 -0.954007387 1.48763297e-06 0.299783081 -0.954007387 1.48763297e-06 0.29978928 -0.95400542 3.53029441e-06 0.29978928 -0.95400542 3.53029441e-06 0.29978928 -0.95400542 3.53029441e-06 0.2997877 -0.954005957 2.84109365e-06 0.2997877 -0.954005957 2.84109365e-06 0.2997877 -0.954005957 2.84109365e-06 0.299782902 -0.954007447 1.61989726e-06 0.299782902 -0.954007447 1.61989726e-06 0.299782902 -0.954007447 1.61989726e-06 0.299784362 -0.95400697 2.68955273e-06 0.299784362 -0.95400697 2.68955273e-06 0.299784362 -0.95400697 2.68955273e-06 0.299774051 -0.954010248 -5.59576984e-06 0.299774051 -0.954010248 -5.59576984e-06 0.299774051 -0.954010248 -5.59576984e-06 0.299772531 -0.954010725 -2.85774604e-06 0.299772531 -0.954010725 -2.85774604e-06 0.299772531 -0.954010725 -2.85774604e-06 0.299783379 -0.954007328 7.24030031e-07 0.299783379 -0.954007328 7.24030031e-07 0.299783379 -0.954007328 7.24030031e-07 0.299772501 -0.954010725 -3.41969599e-06 0.299772501 -0.954010725 -3.41969599e-06 0.299772501 -0.954010725 -3.41969599e-06 0.299788892 -0.954005539 2.79775827e-06 0.299788892 -0.954005539 2.79775827e-06 0.299788892 -0.954005539 2.79775827e-06 0.299796492 -0.954003155 5.68741825e-06 0.299796492 -0.954003155 5.68741825e-06 0.299796492 -0.954003155 5.68741825e-06 0.299771547 -0.954011023 -5.14171097e-06 0.299771547 -0.954011023 -5.14171097e-06 0.299771547 -0.954011023 -5.14171097e-06 0.299772501 -0.954010725 -3.4294892e-06 0.299772501 -0.954010725 -3.4294892e-06 0.299772501 -0.954010725 -3.4294892e-06 0.299776882 -0.954009354 -1.53234475e-06 0.299776882 -0.954009354 -1.53234475e-06 0.299776882 -0.954009354 -1.53234475e-06 0.299793422 -0.954004169 6.55149961e-06 0.299793422 -0.954004169 6.55149961e-06 0.299793422 -0.954004169 6.55149961e-06 0.299787641 -0.954005957 5.25592895e-06 0.299787641 -0.954005957 5.25592895e-06 0.299787641 -0.954005957 5.25592895e-06 0.299778044 -0.954008996 -2.45229876e-06 0.299778044 -0.954008996 -2.45229876e-06 0.299778044 -0.954008996 -2.45229876e-06 0.299780637 -0.954008162 -6.0715837e-07 0.299780637 -0.954008162 -6.0715837e-07 0.299780637 -0.954008162 -6.0715837e-07 0.299773425 -0.954010427 -4.54186056e-06 0.299773425 -0.954010427 -4.54186056e-06 0.299773425 -0.954010427 -4.54186056e-06 0.299786001 -0.954006493 3.07697064e-06 0.299786001 -0.954006493 3.07697064e-06 0.299786001 -0.954006493 3.07697064e-06 0.299791127 -0.954004884 6.8620443e-06 0.299791127 -0.954004884 6.8620443e-06 0.299791127 -0.954004884 6.8620443e-06 0.299773872 -0.954010308 -5.78993422e-06 0.299773872 -0.954010308 -5.78993422e-06 0.299773872 -0.954010308 -5.78993422e-06 0.299778044 -0.954008996 -2.44528474e-06 0.299778044 -0.954008996 -2.44528474e-06 0.299778044 -0.954008996 -2.44528474e-06 0.299789369 -0.95400542 1.56127521e-06 0.299789369 -0.95400542 1.56127521e-06 0.299789369 -0.95400542 1.56127521e-06 0.299780369 -0.954008222 -5.3198886e-07 0.299780369 -0.954008222 -5.3198886e-07 0.299780369 -0.954008222 -5.3198886e-07 0.299770206 -0.95401144 -3.38307223e-06 0.299770206 -0.95401144 -3.38307223e-06 0.299770206 -0.95401144 -3.38307223e-06 0.299794763 -0.954003751 6.20399578e-06 0.299794763 -0.954003751 6.20399578e-06 0.299794763 -0.954003751 6.20399578e-06 0.299764991 -0.95401305 -1.0032476e-05 0.299764991 -0.95401305 -1.0032476e-05 0.299764991 -0.95401305 -1.0032476e-05 0.299769491 -0.954011679 -7.30810325e-06 0.299769491 -0.954011679 -7.30810325e-06 0.299769491 -0.954011679 -7.30810325e-06 0.29978165 -0.954007864 7.81425982e-08 0.29978165 -0.954007864 7.81425982e-08 0.29978165 -0.954007864 7.81425982e-08 0.299783081 -0.954007387 2.7399534e-07 0.299783081 -0.954007387 2.7399534e-07 0.299783081 -0.954007387 2.7399534e-07 0.299776345 -0.954009533 -9.70370365e-07 0.299776345 -0.954009533 -9.70370365e-07 0.299776345 -0.954009533 -9.70370365e-07 0.299773484 -0.954010427 -4.3257287e-06 0.299773484 -0.954010427 -4.3257287e-06 0.299773484 -0.954010427 -4.3257287e-06 0.299782932 -0.954007447 1.38818928e-06 0.299782932 -0.954007447 1.38818928e-06 0.299782932 -0.954007447 1.38818928e-06 0.299776673 -0.954009414 -2.79698497e-06 0.299776673 -0.954009414 -2.79698497e-06 0.299776673 -0.954009414 -2.79698497e-06 0.299782068 -0.954007685 1.07835297e-06 0.299782068 -0.954007685 1.07835297e-06 0.299782068 -0.954007685 1.07835297e-06 0.299781382 -0.954007924 4.33977164e-07 0.299781382 -0.954007924 4.33977164e-07 0.299781382 -0.954007924 4.33977164e-07 0.299774677 -0.95401001 -6.61058539e-06 0.299774677 -0.95401001 -6.61058539e-06 0.299774677 -0.95401001 -6.61058539e-06 0.299769014 -0.954011798 -8.27293024e-06 0.299769014 -0.954011798 -8.27293024e-06 0.299769014 -0.954011798 -8.27293024e-06 0.299796134 -0.954003274 1.16252286e-05 0.299796134 -0.954003274 1.16252286e-05 0.299796134 -0.954003274 1.16252286e-05 0.299765468 -0.95401293 -1.30281323e-05 0.299765468 -0.95401293 -1.30281323e-05 0.299765468 -0.95401293 -1.30281323e-05 0.299794674 -0.954003751 1.2531109e-05 0.299794674 -0.954003751 1.2531109e-05 0.299794674 -0.954003751 1.2531109e-05 0.299773455 -0.954010427 -7.82843836e-06 0.299773455 -0.954010427 -7.82843836e-06 0.299773455 -0.954010427 -7.82843836e-06 0.29977572 -0.954009712 -5.4715083e-06 0.29977572 -0.954009712 -5.4715083e-06 0.29977572 -0.954009712 -5.4715083e-06 0.299793541 -0.954004109 1.16571991e-05 0.299793541 -0.954004109 1.16571991e-05 0.299793541 -0.954004109 1.16571991e-05 0.299844652 -0.953988016 2.82360761e-05 0.299844652 -0.953988016 2.82360761e-05 0.299844652 -0.953988016 2.82360761e-05 0.299841583 -0.953989029 2.70633354e-05 0.299841583 -0.953989029 2.70633354e-05 0.299841583 -0.953989029 2.70633354e-05 0.29982236 -0.953995049 1.85602839e-05 0.29982236 -0.953995049 1.85602839e-05 0.29982236 -0.953995049 1.85602839e-05 0.299745113 -0.954019308 -1.91943727e-05 0.299745113 -0.954019308 -1.91943727e-05 0.299745113 -0.954019308 -1.91943727e-05 0.299811304 -0.953998506 1.69261602e-05 0.299811304 -0.953998506 1.69261602e-05 0.299811304 -0.953998506 1.69261602e-05 0.299782187 -0.954007685 1.1976789e-06 0.299782187 -0.954007685 1.1976789e-06 0.299782187 -0.954007685 1.1976789e-06 0.299781322 -0.954007924 3.74997001e-07 0.299781322 -0.954007924 3.74997001e-07 0.299781322 -0.954007924 3.74997001e-07 0.299786627 -0.954006255 5.92863262e-06 0.299786627 -0.954006255 5.92863262e-06 0.299786627 -0.954006255 5.92863262e-06 0.299770683 -0.954011261 -2.2839331e-06 0.299770683 -0.954011261 -2.2839331e-06 0.299770683 -0.954011261 -2.2839331e-06 0.299794525 -0.954003811 4.40564418e-06 0.299794525 -0.954003811 4.40564418e-06 0.299794525 -0.954003811 4.40564418e-06 0.299783558 -0.954007268 7.84421275e-07 0.299783558 -0.954007268 7.84421275e-07 0.299783558 -0.954007268 7.84421275e-07 0.299800515 -0.954001904 1.33960348e-05 0.299800515 -0.954001904 1.33960348e-05 0.299800515 -0.954001904 1.33960348e-05 0.299786776 -0.954006255 3.31593583e-06 0.299786776 -0.954006255 3.31593583e-06 0.299786776 -0.954006255 3.31593583e-06 0.299762428 -0.954013884 -1.62553824e-05 0.299762428 -0.954013884 -1.62553824e-05 0.299762428 -0.954013884 -1.62553824e-05 0.299834847 -0.953991115 4.74385961e-05 0.299834847 -0.953991115 4.74385961e-05 0.299834847 -0.953991115 4.74385961e-05 0.299729854 -0.954024136 -5.34250612e-05 0.299729854 -0.954024136 -5.34250612e-05 0.299729854 -0.954024136 -5.34250612e-05 0.299912304 -0.953966796 0.000137830575 0.299912304 -0.953966796 0.000137830575 0.299912304 -0.953966796 0.000137830575 -0.299774885 0.95400995 6.90195611e-06 -0.299774885 0.95400995 6.90195611e-06 -0.299774885 0.95400995 6.90195611e-06 -0.299776703 0.954009414 3.23350491e-06 -0.299776703 0.954009414 3.23350491e-06 -0.299776703 0.954009414 3.23350491e-06 -0.29978776 0.954005897 -4.89234071e-06 -0.29978776 0.954005897 -4.89234071e-06 -0.29978776 0.954005897 -4.89234071e-06 -0.299790472 0.954005063 -3.91831873e-06 -0.299790472 0.954005063 -3.91831873e-06 -0.299790472 0.954005063 -3.91831873e-06 -0.299776852 0.954009354 1.993561e-06 -0.299776852 0.954009354 1.993561e-06 -0.299776852 0.954009354 1.993561e-06 -0.299786776 0.954006255 -6.67103041e-06 -0.299786776 0.954006255 -6.67103041e-06 -0.299786776 0.954006255 -6.67103041e-06 -0.299781173 0.954007983 3.28029358e-07 -0.299781173 0.954007983 3.28029358e-07 -0.299781173 0.954007983 3.28029358e-07 -0.299780905 0.954008102 6.26454266e-07 -0.299780905 0.954008102 6.26454266e-07 -0.299780905 0.954008102 6.26454266e-07 -0.299789429 0.95400542 -4.3853488e-06 -0.299789429 0.95400542 -4.3853488e-06 -0.299789429 0.95400542 -4.3853488e-06 -0.299777031 0.954009295 2.37605741e-06 -0.299777031 0.954009295 2.37605741e-06 -0.299777031 0.954009295 2.37605741e-06 -0.299776673 0.954009414 2.55767009e-06 -0.299776673 0.954009414 2.55767009e-06 -0.299776673 0.954009414 2.55767009e-06 -0.299769253 0.954011738 1.53358123e-05 -0.299769253 0.954011738 1.53358123e-05 -0.299769253 0.954011738 1.53358123e-05 -0.299768239 0.954012036 1.76376907e-05 -0.299768239 0.954012036 1.76376907e-05 -0.299768239 0.954012036 1.76376907e-05 -0.299781591 0.954007864 -1.26971386e-07 -0.299781591 0.954007864 -1.26971386e-07 -0.299781591 0.954007864 -1.26971386e-07 -0.299782246 0.954007626 -7.56140196e-07 -0.299782246 0.954007626 -7.56140196e-07 -0.299782246 0.954007626 -7.56140196e-07 -0.299778253 0.954008937 2.76780929e-06 -0.299778253 0.954008937 2.76780929e-06 -0.299778253 0.954008937 2.76780929e-06 -0.299783081 0.954007387 -1.02948752e-06 -0.299783081 0.954007387 -1.02948752e-06 -0.299783081 0.954007387 -1.02948752e-06 -0.299789369 0.95400542 -4.83625217e-06 -0.299789369 0.95400542 -4.83625217e-06 -0.299789369 0.95400542 -4.83625217e-06 -0.299776852 0.954009354 1.9935635e-06 -0.299776852 0.954009354 1.9935635e-06 -0.299776852 0.954009354 1.9935635e-06 -0.299790412 0.954005063 -3.40872316e-06 -0.299790412 0.954005063 -3.40872316e-06 -0.299790412 0.954005063 -3.40872316e-06 -0.299783468 0.954007268 -7.58029785e-07 -0.299783468 0.954007268 -7.58029785e-07 -0.299783468 0.954007268 -7.58029785e-07 -0.299772501 0.954010725 2.86322006e-06 -0.299772501 0.954010725 2.86322006e-06 -0.299772501 0.954010725 2.86322006e-06 -0.29978931 0.95400542 -3.55217685e-06 -0.29978931 0.95400542 -3.55217685e-06 -0.29978931 0.95400542 -3.55217685e-06 -0.299783677 0.954007208 -1.32105436e-06 -0.299783677 0.954007208 -1.32105436e-06 -0.299783677 0.954007208 -1.32105436e-06 -0.299775004 0.95400995 1.54219219e-06 -0.299775004 0.95400995 1.54219219e-06 -0.299775004 0.95400995 1.54219219e-06 -0.299780786 0.954008102 -7.76556845e-08 -0.299780786 0.954008102 -7.76556845e-08 -0.299780786 0.954008102 -7.76556845e-08 -0.299776345 0.954009533 9.48224738e-07 -0.299776345 0.954009533 9.48224738e-07 -0.299776345 0.954009533 9.48224738e-07 -0.299783081 0.954007387 -2.96654008e-07 -0.299783081 0.954007387 -2.96654008e-07 -0.299783081 0.954007387 -2.96654008e-07 -0.29978168 0.954007804 -1.01233347e-07 -0.29978168 0.954007804 -1.01233347e-07 -0.29978168 0.954007804 -1.01233347e-07 -0.299780339 0.954008281 2.22632082e-08 -0.299780339 0.954008281 2.22632082e-08 -0.299780339 0.954008281 2.22632082e-08 -0.299780816 0.954008102 -0 -0.299780816 0.954008102 -0 -0.299780816 0.954008102 -0 -0.299782932 0.954007447 0 -0.299782932 0.954007447 0 -0.299782932 0.954007447 0 -0.299781561 0.954007864 -6.39389341e-08 -0.299781561 0.954007864 -6.39389341e-08 -0.299781561 0.954007864 -6.39389341e-08 -0.299782395 0.954007626 -8.63176581e-07 -0.299782395 0.954007626 -8.63176581e-07 -0.299782395 0.954007626 -8.63176581e-07 -0.299778223 0.954008937 2.80254517e-06 -0.299778223 0.954008937 2.80254517e-06 -0.299778223 0.954008937 2.80254517e-06 -0.299792856 0.954004347 -1.92332827e-05 -0.299792856 0.954004347 -1.92332827e-05 -0.299792856 0.954004347 -1.92332827e-05 -0.299770385 0.954011381 1.77239708e-05 -0.299770385 0.954011381 1.77239708e-05 -0.299770385 0.954011381 1.77239708e-05 -0.299800515 0.954001904 -2.73735313e-05 -0.299800515 0.954001904 -2.73735313e-05 -0.299800515 0.954001904 -2.73735313e-05 -0.299786448 0.954006314 -6.12411395e-06 -0.299786448 0.954006314 -6.12411395e-06 -0.299786448 0.954006314 -6.12411395e-06 -0.299784839 0.954006851 -4.29100419e-06 -0.299784839 0.954006851 -4.29100419e-06 -0.299784839 0.954006851 -4.29100419e-06 -0.299638748 0.954052746 0.00014882753 -0.299638748 0.954052746 0.00014882753 -0.299638748 0.954052746 0.00014882753 -0.299797684 0.954002798 -2.26092088e-05 -0.299797684 0.954002798 -2.26092088e-05 -0.299797684 0.954002798 -2.26092088e-05 -0.299779713 0.95400846 -1.64435605e-07 -0.299779713 0.95400846 -1.64435605e-07 -0.299779713 0.95400846 -1.64435605e-07 -0.299764842 0.954013109 1.68734659e-05 -0.299764842 0.954013109 1.68734659e-05 -0.299764842 0.954013109 1.68734659e-05 -0.299775779 0.954009712 5.40422343e-06 -0.299775779 0.954009712 5.40422343e-06 -0.299775779 0.954009712 5.40422343e-06 -0.299793571 0.954004109 -1.16879046e-05 -0.299793571 0.954004109 -1.16879046e-05 -0.299793571 0.954004109 -1.16879046e-05 -0.299786717 0.954006255 -5.66225026e-06 -0.299786717 0.954006255 -5.66225026e-06 -0.299786717 0.954006255 -5.66225026e-06 -0.299773395 0.954010427 5.05259777e-06 -0.299773395 0.954010427 5.05259777e-06 -0.299773395 0.954010427 5.05259777e-06 -0.299768984 0.954011798 8.29471992e-06 -0.299768984 0.954011798 8.29471992e-06 -0.299768984 0.954011798 8.29471992e-06 -0.299785942 0.954006493 -3.03913066e-06 -0.299785942 0.954006493 -3.03913066e-06 -0.299785942 0.954006493 -3.03913066e-06 -0.299793273 0.954004169 -7.47240301e-06 -0.299793273 0.954004169 -7.47240301e-06 -0.299793273 0.954004169 -7.47240301e-06 -0.299779475 0.95400852 5.68154306e-08 -0.299779475 0.95400852 5.68154306e-08 -0.299779475 0.95400852 5.68154306e-08 -0.299767286 0.954012334 6.01666989e-06 -0.299767286 0.954012334 6.01666989e-06 -0.299767286 0.954012334 6.01666989e-06 -0.299794793 0.954003692 -1.07514381e-06 -0.299794793 0.954003692 -1.07514381e-06 -0.299794793 0.954003692 -1.07514381e-06 -0.299786985 0.954006195 -3.59170173e-07 -0.299786985 0.954006195 -3.59170173e-07 -0.299786985 0.954006195 -3.59170173e-07 -0.299779117 0.954008639 -0 -0.299779117 0.954008639 -0 -0.299779117 0.954008639 -0 -0.299774647 0.954010069 0 -0.299774647 0.954010069 0 -0.299774647 0.954010069 0 -0.299779177 0.954008639 -1.71787534e-07 -0.299779177 0.954008639 -1.71787534e-07 -0.299779177 0.954008639 -1.71787534e-07 -0.299775571 0.954009771 -5.02705575e-07 -0.299775571 0.954009771 -5.02705575e-07 -0.299775571 0.954009771 -5.02705575e-07 -0.299783707 0.954007208 6.19553077e-07 -0.299783707 0.954007208 6.19553077e-07 -0.299783707 0.954007208 6.19553077e-07 -0.299779236 0.954008579 2.09919108e-07 -0.299779236 0.954008579 2.09919108e-07 -0.299779236 0.954008579 2.09919108e-07 -0.299780965 0.954008043 5.87848149e-07 -0.299780965 0.954008043 5.87848149e-07 -0.299780965 0.954008043 5.87848149e-07 -0.299776614 0.954009414 3.79133712e-06 -0.299776614 0.954009414 3.79133712e-06 -0.299776614 0.954009414 3.79133712e-06 -0.29978326 0.954007328 -6.44954639e-07 -0.29978326 0.954007328 -6.44954639e-07 -0.29978326 0.954007328 -6.44954639e-07 -0.299750656 0.95401758 1.23657674e-05 -0.299750656 0.95401758 1.23657674e-05 -0.299750656 0.95401758 1.23657674e-05 -0.29975757 0.954015374 9.72018552e-06 -0.29975757 0.954015374 9.72018552e-06 -0.29975757 0.954015374 9.72018552e-06 -0.299797058 0.954002976 -3.32396871e-06 -0.299797058 0.954002976 -3.32396871e-06 -0.299797058 0.954002976 -3.32396871e-06 -0.299808264 0.95399946 -6.47442539e-06 -0.299808264 0.95399946 -6.47442539e-06 -0.299808264 0.95399946 -6.47442539e-06 -0.299761713 0.954014122 4.34394451e-06 -0.299761713 0.954014122 4.34394451e-06 -0.299761713 0.954014122 4.34394451e-06 -0.299779981 0.954008341 9.680208e-07 -0.299779981 0.954008341 9.680208e-07 -0.299779981 0.954008341 9.680208e-07 -0.953100204 -0.299495339 -0.0436177291 -0.953100204 -0.299495339 -0.0436177291 -0.953100204 -0.299495339 -0.0436177291 -0.953099847 -0.299495816 -0.043623317 -0.953099847 -0.299495816 -0.043623317 -0.953099847 -0.299495816 -0.043623317 -0.945846796 -0.297216684 -0.130522192 -0.945846796 -0.297216684 -0.130522192 -0.945846796 -0.297216684 -0.130522192 -0.945846856 -0.297216654 -0.130522102 -0.945846856 -0.297216654 -0.130522102 -0.945846856 -0.297216654 -0.130522102 -0.931393802 -0.292675048 -0.216441497 -0.931393802 -0.292675048 -0.216441497 -0.931393802 -0.292675048 -0.216441497 -0.931393862 -0.292675018 -0.216441348 -0.931393862 -0.292675018 -0.216441348 -0.931393862 -0.292675018 -0.216441348 -0.909852684 -0.285906076 -0.30070886 -0.909852684 -0.285906076 -0.30070886 -0.909852684 -0.285906076 -0.30070886 -0.909854352 -0.285906047 -0.300703794 -0.909854352 -0.285906047 -0.300703794 -0.909854352 -0.285906047 -0.300703794 -0.881389022 -0.276961297 -0.382682472 -0.881389022 -0.276961297 -0.382682472 -0.881389022 -0.276961297 -0.382682472 -0.881388962 -0.276961297 -0.382682592 -0.881388962 -0.276961297 -0.382682592 -0.881388962 -0.276961297 -0.382682592 -0.846216619 -0.265909016 -0.461746484 -0.846216619 -0.265909016 -0.461746484 -0.846216619 -0.265909016 -0.461746484 -0.846214354 -0.265908808 -0.461750835 -0.846214354 -0.265908808 -0.461750835 -0.846214354 -0.265908808 -0.461750835 -0.80460012 -0.252832234 -0.537302971 -0.80460012 -0.252832234 -0.537302971 -0.80460012 -0.252832234 -0.537302971 -0.80460006 -0.252832204 -0.53730309 -0.80460006 -0.252832204 -0.53730309 -0.80460006 -0.252832204 -0.53730309 -0.756865978 -0.237832561 -0.608760715 -0.756865978 -0.237832561 -0.608760715 -0.756865978 -0.237832561 -0.608760715 -0.756865978 -0.237832576 -0.608760655 -0.756865978 -0.237832576 -0.608760655 -0.756865978 -0.237832576 -0.608760655 -0.703369081 -0.221022055 -0.675589502 -0.703369081 -0.221022055 -0.675589502 -0.703369081 -0.221022055 -0.675589502 -0.703369081 -0.221022055 -0.675589502 -0.703369081 -0.221022055 -0.675589502 -0.703369081 -0.221022055 -0.675589502 -0.644517899 -0.202529058 -0.737277865 -0.644517899 -0.202529058 -0.737277865 -0.644517899 -0.202529058 -0.737277865 -0.644517958 -0.202529058 -0.737277806 -0.644517958 -0.202529058 -0.737277806 -0.644517958 -0.202529058 -0.737277806 -0.58076638 -0.18249619 -0.793350875 -0.58076638 -0.18249619 -0.793350875 -0.58076638 -0.18249619 -0.793350875 -0.58076638 -0.18249619 -0.793350816 -0.58076638 -0.18249619 -0.793350816 -0.58076638 -0.18249619 -0.793350816 -0.51258558 -0.161071494 -0.843393147 -0.51258558 -0.161071494 -0.843393147 -0.51258558 -0.161071494 -0.843393147 -0.51258558 -0.161071494 -0.843393147 -0.51258558 -0.161071494 -0.843393147 -0.51258558 -0.161071494 -0.843393147 -0.4405137 -0.138424113 -0.887009859 -0.4405137 -0.138424113 -0.887009859 -0.4405137 -0.138424113 -0.887009859 -0.440513641 -0.138424098 -0.887009859 -0.440513641 -0.138424098 -0.887009859 -0.440513641 -0.138424098 -0.887009859 -0.36508444 -0.114721723 -0.923878908 -0.36508444 -0.114721723 -0.923878908 -0.36508444 -0.114721723 -0.923878908 -0.36508444 -0.114721723 -0.923878908 -0.36508444 -0.114721723 -0.923878908 -0.36508444 -0.114721723 -0.923878908 -0.286869377 -0.0901439413 -0.953719079 -0.286869377 -0.0901439413 -0.953719079 -0.286869377 -0.0901439413 -0.953719079 -0.286869466 -0.0901439562 -0.95371902 -0.286869466 -0.0901439562 -0.95371902 -0.286869466 -0.0901439562 -0.95371902 -0.206489578 -0.0648859143 -0.976294994 -0.206489578 -0.0648859143 -0.976294994 -0.206489578 -0.0648859143 -0.976294994 -0.206489518 -0.0648859069 -0.976294994 -0.206489518 -0.0648859069 -0.976294994 -0.206489518 -0.0648859069 -0.976294994 -0.124525853 -0.0391301848 -0.991444468 -0.124525853 -0.0391301848 -0.991444468 -0.124525853 -0.0391301848 -0.991444468 -0.124526568 -0.0391303301 -0.991444349 -0.124526568 -0.0391303301 -0.991444349 -0.124526568 -0.0391303301 -0.991444349 -0.0416062325 -0.0130740423 -0.999048531 -0.0416062325 -0.0130740423 -0.999048531 -0.0416062325 -0.0130740423 -0.999048531 -0.0416059941 -0.0130739929 -0.999048531 -0.0416059941 -0.0130739929 -0.999048531 -0.0416059941 -0.0130739929 -0.999048531 0.0416062474 0.013074073 -0.999048531 0.0416062474 0.013074073 -0.999048531 0.0416062474 0.013074073 -0.999048531 0.0416062474 0.013074073 -0.999048531 0.0416062474 0.013074073 -0.999048531 0.0416062474 0.013074073 -0.999048531 0.124525853 0.0391301848 -0.991444468 0.124525853 0.0391301848 -0.991444468 0.124525853 0.0391301848 -0.991444468 0.124526568 0.0391303301 -0.991444349 0.124526568 0.0391303301 -0.991444349 0.124526568 0.0391303301 -0.991444349 0.206489667 0.0648858249 -0.976294935 0.206489667 0.0648858249 -0.976294935 0.206489667 0.0648858249 -0.976294935 0.206489667 0.0648858249 -0.976294935 0.206489667 0.0648858249 -0.976294935 0.206489667 0.0648858249 -0.976294935 0.286869198 0.0901437104 -0.953719139 0.286869198 0.0901437104 -0.953719139 0.286869198 0.0901437104 -0.953719139 0.286867619 0.09014339 -0.953719616 0.286867619 0.09014339 -0.953719616 0.286867619 0.09014339 -0.953719616 0.365085572 0.114722081 -0.923878431 0.365085572 0.114722081 -0.923878431 0.365085572 0.114722081 -0.923878431 0.365086526 0.114722274 -0.923878014 0.365086526 0.114722274 -0.923878014 0.365086526 0.114722274 -0.923878014 0.4405137 0.138423979 -0.887009859 0.4405137 0.138423979 -0.887009859 0.4405137 0.138423979 -0.887009859 0.4405137 0.138423979 -0.887009859 0.4405137 0.138423979 -0.887009859 0.4405137 0.138423979 -0.887009859 0.512585819 0.161071435 -0.843392968 0.512585819 0.161071435 -0.843392968 0.512585819 0.161071435 -0.843392968 0.512585819 0.161071435 -0.843392968 0.512585819 0.161071435 -0.843392968 0.512585819 0.161071435 -0.843392968 0.58076632 0.182495996 -0.793350935 0.58076632 0.182495996 -0.793350935 0.58076632 0.182495996 -0.793350935 0.58076632 0.182495996 -0.793350935 0.58076632 0.182495996 -0.793350935 0.58076632 0.182495996 -0.793350935 0.644516706 0.202528477 -0.737279117 0.644516706 0.202528477 -0.737279117 0.644516706 0.202528477 -0.737279117 0.644515276 0.202528238 -0.737280369 0.644515276 0.202528238 -0.737280369 0.644515276 0.202528238 -0.737280369 0.703370035 0.221022353 -0.675588429 0.703370035 0.221022353 -0.675588429 0.703370035 0.221022353 -0.675588429 0.703371942 0.221022666 -0.675586343 0.703371942 0.221022666 -0.675586343 0.703371942 0.221022666 -0.675586343 0.756864846 0.237831905 -0.608762324 0.756864846 0.237831905 -0.608762324 0.756864846 0.237831905 -0.608762324 0.756862998 0.237831637 -0.608764768 0.756862998 0.237831637 -0.608764768 0.756862998 0.237831637 -0.608764768 0.804601312 0.252832621 -0.537301004 0.804601312 0.252832621 -0.537301004 0.804601312 0.252832621 -0.537301004 0.8046031 0.25283283 -0.537298262 0.8046031 0.25283283 -0.537298262 0.8046031 0.25283283 -0.537298262 0.846215546 0.265908837 -0.46174857 0.846215546 0.265908837 -0.46174857 0.846215546 0.265908837 -0.46174857 0.846213937 0.265908688 -0.46175164 0.846213937 0.265908688 -0.46175164 0.846213937 0.265908688 -0.46175164 0.881388724 0.276961774 -0.382682711 0.881388724 0.276961774 -0.382682711 0.881388724 0.276961774 -0.382682711 0.881388724 0.276961774 -0.382682711 0.881388724 0.276961774 -0.382682711 0.881388724 0.276961774 -0.382682711 0.909853518 0.285906374 -0.300706059 0.909853518 0.285906374 -0.300706059 0.909853518 0.285906374 -0.300706059 0.909854352 0.285906345 -0.300703555 0.909854352 0.285906345 -0.300703555 0.909854352 0.285906345 -0.300703555 0.931393921 0.29267481 -0.216441244 0.931393921 0.29267481 -0.216441244 0.931393921 0.29267481 -0.216441244 0.93139416 0.29267478 -0.216440186 0.93139416 0.29267478 -0.216440186 0.93139416 0.29267478 -0.216440186 0.945846558 0.297216177 -0.130525202 0.945846558 0.297216177 -0.130525202 0.945846558 0.297216177 -0.130525202 0.94584614 0.297216326 -0.130527928 0.94584614 0.297216326 -0.130527928 0.94584614 0.297216326 -0.130527928 0.953100085 0.299495786 -0.043617174 0.953100085 0.299495786 -0.043617174 0.953100085 0.299495786 -0.043617174 0.953100026 0.299495876 -0.0436182804 0.953100026 0.299495876 -0.0436182804 0.953100026 0.299495876 -0.0436182804 </float_array>
          <technique_common>
            <accessor count="852" offset="0" source="#mesh_0-normals-array" stride="3">
              <param name="X" type="float" />
              <param name="Y" type="float" />
              <param name="Z" type="float" />
            </accessor>
          </technique_common>
        </source>
        <vertices id="mesh_0-vertices">
          <input semantic="POSITION" source="#mesh_0-positions" />
        </vertices>
        <polylist count="284" material="defaultMaterial">
          <input offset="0" semantic="VERTEX" source="#mesh_0-vertices" />
          <input offset="0" semantic="NORMAL" source="#mesh_0-normals" />
          <vcount>3 3 3 3 3 3 3 3 3 3 3 3 3 3 3 3 3 3 3 3 3 3 3 3 3 3 3 3 3 3 3 3 3 3 3 3 3 3 3 3 3 3 3 3 3 3 3 3 3 3 3 3 3 3 3 3 3 3 3 3 3 3 3 3 3 3 3 3 3 3 3 3 3 3 3 3 3 3 3 3 3 3 3 3 3 3 3 3 3 3 3 3 3 3 3 3 3 3 3 3 3 3 3 3 3 3 3 3 3 3 3 3 3 3 3 3 3 3 3 3 3 3 3 3 3 3 3 3 3 3 3 3 3 3 3 3 3 3 3 3 3 3 3 3 3 3 3 3 3 3 3 3 3 3 3 3 3 3 3 3 3 3 3 3 3 3 3 3 3 3 3 3 3 3 3 3 3 3 3 3 3 3 3 3 3 3 3 3 3 3 3 3 3 3 3 3 3 3 3 3 3 3 3 3 3 3 3 3 3 3 3 3 3 3 3 3 3 3 3 3 3 3 3 3 3 3 3 3 3 3 3 3 3 3 3 3 3 3 3 3 3 3 3 3 3 3 3 3 3 3 3 3 3 3 3 3 3 3 3 3 3 3 3 3 3 3 3 3 3 3 3 3 3 3 3 3 3 3 3 3 3 3 3 3 </vcount>
          <p>0 1 2 3 4 5 6 7 8 9 10 11 12 13 14 15 16 17 18 19 20 21 22 23 24 25 26 27 28 29 30 31 32 33 34 35 36 37 38 39 40 41 42 43 44 45 46 47 48 49 50 51 52 53 54 55 56 57 58 59 60 61 62 63 64 65 66 67 68 69 70 71 72 73 74 75 76 77 78 79 80 81 82 83 84 85 86 87 88 89 90 91 92 93 94 95 96 97 98 99 100 101 102 103 104 105 106 107 108 109 110 111 112 113 114 115 116 117 118 119 120 121 122 123 124 125 126 127 128 129 130 131 132 133 134 135 136 137 138 139 140 141 142 143 144 145 146 147 148 149 150 151 152 153 154 155 156 157 158 159 160 161 162 163 164 165 166 167 168 169 170 171 172 173 174 175 176 177 178 179 180 181 182 183 184 185 186 187 188 189 190 191 192 193 194 195 196 197 198 199 200 201 202 203 204 205 206 207 208 209 210 211 212 213 214 215 216 217 218 219 220 221 222 223 224 225 226 227 228 229 230 231 232 233 234 235 236 237 238 239 240 241 242 243 244 245 246 247 248 249 250 251 252 253 254 255 256 257 258 259 260 261 262 263 264 265 266 267 268 269 270 271 272 273 274 275 276 277 278 279 280 281 282 283 284 285 286 287 288 289 290 291 292 293 294 295 296 297 298 299 300 301 302 303 304 305 306 307 308 309 310 311 312 313 314 315 316 317 318 319 320 321 322 323 324 325 326 327 328 329 330 331 332 333 334 335 336 337 338 339 340 341 342 343 344 345 346 347 348 349 350 351 352 353 354 355 356 357 358 359 360 361 362 363 364 365 366 367 368 369 370 371 372 373 374 375 376 377 378 379 380 381 382 383 384 385 386 387 388 389 390 391 392 393 394 395 396 397 398 399 400 401 402 403 404 405 406 407 408 409 410 411 412 413 414 415 416 417 418 419 420 421 422 423 424 425 426 427 428 429 430 431 432 433 434 435 436 437 438 439 440 441 442 443 444 445 446 447 448 449 450 451 452 453 454 455 456 457 458 459 460 461 462 463 464 465 466 467 468 469 470 471 472 473 474 475 476 477 478 479 480 481 482 483 484 485 486 487 488 489 490 491 492 493 494 495 496 497 498 499 500 501 502 503 504 505 506 507 508 509 510 511 512 513 514 515 516 517 518 519 520 521 522 523 524 525 526 527 528 529 530 531 532 533 534 535 536 537 538 539 540 541 542 543 544 545 546 547 548 549 550 551 552 553 554 555 556 557 558 559 560 561 562 563 564 565 566 567 568 569 570 571 572 573 574 575 576 577 578 579 580 581 582 583 584 585 586 587 588 589 590 591 592 593 594 595 596 597 598 599 600 601 602 603 604 605 606 607 608 609 610 611 612 613 614 615 616 617 618 619 620 621 622 623 624 625 626 627 628 629 630 631 632 633 634 635 636 637 638 639 640 641 642 643 644 645 646 647 648 649 650 651 652 653 654 655 656 657 658 659 660 661 662 663 664 665 666 667 668 669 670 671 672 673 674 675 676 677 678 679 680 681 682 683 684 685 686 687 688 689 690 691 692 693 694 695 696 697 698 699 700 701 702 703 704 705 706 707 708 709 710 711 712 713 714 715 716 717 718 719 720 721 722 723 724 725 726 727 728 729 730 731 732 733 734 735 736 737 738 739 740 741 742 743 744 745 746 747 748 749 750 751 752 753 754 755 756 757 758 759 760 761 762 763 764 765 766 767 768 769 770 771 772 773 774 775 776 777 778 779 780 781 782 783 784 785 786 787 788 789 790 791 792 793 794 795 796 797 798 799 800 801 802 803 804 805 806 807 808 809 810 811 812 813 814 815 816 817 818 819 820 821 822 823 824 825 826 827 828 829 830 831 832 833 834 835 836 837 838 839 840 841 842 843 844 845 846 847 848 849 850 851 </p>
        </polylist>
      </mesh>
    </geometry>
  </library_geometries>
  <library_controllers>
  </library_controllers>
  <library_visual_scenes>
    <visual_scene id="_ySTL_BINARY_" name="&lt;STL_BINARY&gt;">
      <node id="node" name="" type="NODE">
        <matrix sid="matrix">1 0 0 0 0 1 0 0 0 0 1 0 0 0 0 1</matrix>
        <instance_geometry url="#mesh_0">
          <bind_material>
            <technique_common>
              <instance_material symbol="defaultMaterial" target="#DefaultMaterial">
              </instance_material>
            </technique_common>
          </bind_material>
        </instance_geometry>
      </node>
    </visual_scene>
  </library_visual_scenes>
  <scene>
    <instance_visual_scene url="#_ySTL_BINARY_" />
  </scene>
</COLLADA>
