<?xml version="1.0" encoding="UTF-8" standalone="no" ?>
<COLLADA xmlns="http://www.collada.org/2005/11/COLLADASchema" version="1.4.1">
  <asset>
    <contributor>
      <author>Assimp</author>
      <authoring_tool>Assimp Exporter</authoring_tool>
    </contributor>
    <created>2025-12-07T16:35:00</created>
    <modified>2025-12-07T16:35:00</modified>
    <unit name="meter" meter="1" />
    <up_axis>Y_UP</up_axis>
  </asset>
  <library_images>
  </library_images>
  <library_effects>
    <effect id="DefaultMaterial-fx" name="DefaultMaterial">
      <profile_COMMON>
        <technique sid="standard">
          <phong>
            <ambient>
              <color sid="ambient">0.0500000007   0.0500000007   0.0500000007   1</color>
            </ambient>
            <diffuse>
              <color sid="diffuse">1   1   1   1</color>
            </diffuse>
            <specular>
              <color sid="specular">1   1   1   1</color>
            </specular>
          </phong>
        </technique>
      </profile_COMMON>
    </effect>
  </library_effects>
  <library_materials>
    <material id="DefaultMaterial" name="DefaultMaterial">
      <instance_effect url="#DefaultMaterial-fx"/>
    </material>
  </library_materials>
  <library_geometries>
    <geometry id="mesh_0" name="" >
      <mesh>
        <source id="mesh_0-positions" name="mesh_0-positions">
          <float_array id="mesh_0-positions-array" count="2556"> 0.00974720065 -0.0139705045 -0.0116406661 0.00976791605 -0.0139639955 -0.0115427198 0.00765652908 -0.0146274632 -0.0109497011 0.00760703301 -0.0146430163 -0.0111433286 0.00759454025 -0.0146469427 -0.0112427948 0.00971841998 -0.0139795486 -0.0117363473 0.00963759888 -0.0140049448 -0.0119180242 0.00968179293 -0.0139910579 -0.0118290354 0.00778877549 -0.0145859076 -0.0120026367 0.00968179293 -0.0139910579 -0.0118290354 0.00971841998 -0.0139795486 -0.0117363473 0.00778877549 -0.0145859076 -0.0120026367 0.00778877549 -0.0145859076 -0.0120026367 0.00971841998 -0.0139795486 -0.0117363473 0.00773735018 -0.0146020669 -0.0119180242 0.00971841998 -0.0139795486 -0.0117363473 0.00769315613 -0.0146159539 -0.0118290354 0.00773735018 -0.0146020669 -0.0119180242 0.00939268339 -0.0140819065 -0.0122239748 0.00946324784 -0.0140597317 -0.0121561969 0.00778877549 -0.0145859076 -0.0120026367 0.00976791605 -0.0139639955 -0.0115427198 0.00978040881 -0.01396007 -0.0114432527 0.00765652908 -0.0146274632 -0.0109497011 0.00978040881 -0.01396007 -0.0114432527 0.00978458393 -0.0139587577 -0.0113430237 0.00765652908 -0.0146274632 -0.0109497011 0.00765652908 -0.0146274632 -0.0109497011 0.00978458393 -0.0139587577 -0.0113430237 0.00978040881 -0.01396007 -0.0112427948 0.00978040881 -0.01396007 -0.0112427948 0.00976791605 -0.0139639955 -0.0111433286 0.00765652908 -0.0146274632 -0.0109497011 0.00976791605 -0.0139639955 -0.0111433286 0.00974720065 -0.0139705045 -0.0110453824 0.00765652908 -0.0146274632 -0.0109497011 0.00765652908 -0.0146274632 -0.0109497011 0.00974720065 -0.0139705045 -0.0110453824 0.00971841998 -0.0139795486 -0.0109497011 0.00784703996 -0.0145675987 -0.0106038181 0.00778877549 -0.0145859076 -0.0106834108 0.00971841998 -0.0139795486 -0.0109497011 0.00974720065 -0.0139705045 -0.0116406661 0.00765652908 -0.0146274632 -0.0109497011 0.00971841998 -0.0139795486 -0.0117363473 0.00765652908 -0.0146274632 -0.0109497011 0.00762774842 -0.0146365073 -0.0110453824 0.00971841998 -0.0139795486 -0.0117363473 0.00971841998 -0.0139795486 -0.0117363473 0.00762774842 -0.0146365073 -0.0110453824 0.00760703301 -0.0146430163 -0.0111433286 0.00760703301 -0.0146430163 -0.0115427198 0.00762774842 -0.0146365073 -0.0116406661 0.00971841998 -0.0139795486 -0.0117363473 0.00762774842 -0.0146365073 -0.0116406661 0.00765652908 -0.0146274632 -0.0117363473 0.00971841998 -0.0139795486 -0.0117363473 0.00971841998 -0.0139795486 -0.0117363473 0.00765652908 -0.0146274632 -0.0117363473 0.00769315613 -0.0146159539 -0.0118290354 0.00946324784 -0.0140597317 -0.0121561969 0.00952790957 -0.0140394131 -0.0120822294 0.00778877549 -0.0145859076 -0.0120026367 0.00952790957 -0.0140394131 -0.0120822294 0.00958617404 -0.0140211051 -0.0120026367 0.00778877549 -0.0145859076 -0.0120026367 0.00778877549 -0.0145859076 -0.0120026367 0.00958617404 -0.0140211051 -0.0120026367 0.00963759888 -0.0140049448 -0.0119180242 0.00759454025 -0.0146469427 -0.0112427948 0.0075903656 -0.014648254 -0.0113430237 0.00971841998 -0.0139795486 -0.0117363473 0.0075903656 -0.014648254 -0.0113430237 0.00759454025 -0.0146469427 -0.0114432527 0.00971841998 -0.0139795486 -0.0117363473 0.00971841998 -0.0139795486 -0.0117363473 0.00759454025 -0.0146469427 -0.0114432527 0.00760703301 -0.0146430163 -0.0115427198 0.00791170169 -0.01454728 -0.0121561969 0.00798226614 -0.0145251062 -0.0122239748 0.00859185494 -0.0143335527 -0.0124886483 0.00897142757 -0.0142142782 -0.0102322092 0.00887798611 -0.0142436409 -0.0102104954 0.00971841998 -0.0139795486 -0.0109497011 0.00778877549 -0.0145859076 -0.0106834108 0.00773735018 -0.0146020669 -0.0107680243 0.00971841998 -0.0139795486 -0.0109497011 0.00773735018 -0.0146020669 -0.0107680243 0.00769315613 -0.0146159539 -0.0108570131 0.00971841998 -0.0139795486 -0.0109497011 0.00971841998 -0.0139795486 -0.0109497011 0.00769315613 -0.0146159539 -0.0108570131 0.00765652908 -0.0146274632 -0.0109497011 0.00798226614 -0.0145251062 -0.0122239748 0.00805819873 -0.0145012457 -0.0122850491 0.00859185494 -0.0143335527 -0.0124886483 0.00805819873 -0.0145012457 -0.0122850491 0.00813892018 -0.0144758802 -0.0123389531 0.00859185494 -0.0143335527 -0.0124886483 0.00859185494 -0.0143335527 -0.0124886483 0.00813892018 -0.0144758802 -0.0123389531 0.00822381675 -0.0144492025 -0.012385278 0.00822381675 -0.0144492025 -0.012385278 0.00831224117 -0.0144214164 -0.0124236709 0.00859185494 -0.0143335527 -0.0124886483 0.00831224117 -0.0144214164 -0.0124236709 0.00840352196 -0.0143927336 -0.0124538383 0.00859185494 -0.0143335527 -0.0124886483 0.00859185494 -0.0143335527 -0.0124886483 0.00840352196 -0.0143927336 -0.0124538383 0.00849696342 -0.0143633708 -0.012475553 0.00868747476 -0.0143035064 -0.0124930236 0.00878309365 -0.0142734591 -0.0124886483 0.00778877549 -0.0145859076 -0.0120026367 0.00878309365 -0.0142734591 -0.0124886483 0.00887798611 -0.0142436409 -0.012475553 0.00778877549 -0.0145859076 -0.0120026367 0.00915113278 -0.0141578093 -0.012385278 0.00923602935 -0.0141311316 -0.0123389531 0.00778877549 -0.0145859076 -0.0120026367 0.00923602935 -0.0141311316 -0.0123389531 0.0093167508 -0.0141057661 -0.0122850491 0.00778877549 -0.0145859076 -0.0120026367 0.00778877549 -0.0145859076 -0.0120026367 0.0093167508 -0.0141057661 -0.0122850491 0.00939268339 -0.0140819065 -0.0122239748 0.00859185494 -0.0143335527 -0.0101974001 0.00849696342 -0.0143633708 -0.0102104954 0.00971841998 -0.0139795486 -0.0109497011 0.00849696342 -0.0143633708 -0.0102104954 0.00840352196 -0.0143927336 -0.0102322092 0.00971841998 -0.0139795486 -0.0109497011 0.00971841998 -0.0139795486 -0.0109497011 0.00840352196 -0.0143927336 -0.0102322092 0.00831224117 -0.0144214164 -0.0102623776 0.00831224117 -0.0144214164 -0.0102623776 0.00822381675 -0.0144492025 -0.0103007704 0.00971841998 -0.0139795486 -0.0109497011 0.00822381675 -0.0144492025 -0.0103007704 0.00813892018 -0.0144758802 -0.0103470944 0.00971841998 -0.0139795486 -0.0109497011 0.00971841998 -0.0139795486 -0.0109497011 0.00813892018 -0.0144758802 -0.0103470944 0.00805819873 -0.0145012457 -0.0104009993 0.00805819873 -0.0145012457 -0.0104009993 0.00798226614 -0.0145251062 -0.0104620727 0.00971841998 -0.0139795486 -0.0109497011 0.00798226614 -0.0145251062 -0.0104620727 0.00791170169 -0.01454728 -0.0105298515 0.00971841998 -0.0139795486 -0.0109497011 0.00971841998 -0.0139795486 -0.0109497011 0.00791170169 -0.01454728 -0.0105298515 0.00784703996 -0.0145675987 -0.0106038181 0.00868747476 -0.0143035064 -0.0124930236 0.00778877549 -0.0145859076 -0.0120026367 0.00859185494 -0.0143335527 -0.0124886483 0.00778877549 -0.0145859076 -0.0120026367 0.00784703996 -0.0145675987 -0.0120822294 0.00859185494 -0.0143335527 -0.0124886483 0.00859185494 -0.0143335527 -0.0124886483 0.00784703996 -0.0145675987 -0.0120822294 0.00791170169 -0.01454728 -0.0121561969 0.00968179293 -0.0139910579 -0.0108570131 0.00963759888 -0.0140049448 -0.0107680243 0.00915113278 -0.0141578093 -0.0103007704 0.00963759888 -0.0140049448 -0.0107680243 0.00958617404 -0.0140211051 -0.0106834108 0.00915113278 -0.0141578093 -0.0103007704 0.00946324784 -0.0140597317 -0.0105298515 0.00939268339 -0.0140819065 -0.0104620727 0.0093167508 -0.0141057661 -0.0104009993 0.00968179293 -0.0139910579 -0.0108570131 0.00915113278 -0.0141578093 -0.0103007704 0.00971841998 -0.0139795486 -0.0109497011 0.00915113278 -0.0141578093 -0.0103007704 0.00906270836 -0.0141855953 -0.0102623776 0.00971841998 -0.0139795486 -0.0109497011 0.00971841998 -0.0139795486 -0.0109497011 0.00906270836 -0.0141855953 -0.0102623776 0.00897142757 -0.0142142782 -0.0102322092 0.00887798611 -0.0142436409 -0.0102104954 0.00878309365 -0.0142734591 -0.0101974001 0.00971841998 -0.0139795486 -0.0109497011 0.00878309365 -0.0142734591 -0.0101974001 0.00868747476 -0.0143035064 -0.0101930238 0.00971841998 -0.0139795486 -0.0109497011 0.00971841998 -0.0139795486 -0.0109497011 0.00868747476 -0.0143035064 -0.0101930238 0.00859185494 -0.0143335527 -0.0101974001 0.00887798611 -0.0142436409 -0.012475553 0.00897142757 -0.0142142782 -0.0124538383 0.00778877549 -0.0145859076 -0.0120026367 0.00897142757 -0.0142142782 -0.0124538383 0.00906270836 -0.0141855953 -0.0124236709 0.00778877549 -0.0145859076 -0.0120026367 0.00778877549 -0.0145859076 -0.0120026367 0.00906270836 -0.0141855953 -0.0124236709 0.00915113278 -0.0141578093 -0.012385278 0.00958617404 -0.0140211051 -0.0106834108 0.00952790957 -0.0140394131 -0.0106038181 0.00915113278 -0.0141578093 -0.0103007704 0.00952790957 -0.0140394131 -0.0106038181 0.00946324784 -0.0140597317 -0.0105298515 0.00915113278 -0.0141578093 -0.0103007704 0.00915113278 -0.0141578093 -0.0103007704 0.00946324784 -0.0140597317 -0.0105298515 0.00923602935 -0.0141311316 -0.0103470944 0.00946324784 -0.0140597317 -0.0105298515 0.0093167508 -0.0141057661 -0.0104009993 0.00923602935 -0.0141311316 -0.0103470944 0.00978458393 -0.0139587577 -0.0113430237 0.0094848033 -0.01300475 -0.0113430237 0.00948062818 -0.0130060613 -0.0112427948 0.00978458393 -0.0139587577 -0.0113430237 0.00948062818 -0.0130060613 -0.0112427948 0.00978040881 -0.01396007 -0.0112427948 0.00948062818 -0.0130060613 -0.0112427948 0.00946813542 -0.0130099868 -0.0111433286 0.00978040881 -0.01396007 -0.0112427948 0.00978040881 -0.01396007 -0.0112427948 0.00946813542 -0.0130099868 -0.0111433286 0.00976791605 -0.0139639955 -0.0111433286 0.00946813542 -0.0130099868 -0.0111433286 0.00944742002 -0.0130164968 -0.0110453824 0.00976791605 -0.0139639955 -0.0111433286 0.00976791605 -0.0139639955 -0.0111433286 0.00944742002 -0.0130164968 -0.0110453824 0.00974720065 -0.0139705045 -0.0110453824 0.00944742002 -0.0130164968 -0.0110453824 0.00941863935 -0.0130255409 -0.0109497011 0.00974720065 -0.0139705045 -0.0110453824 0.00974720065 -0.0139705045 -0.0110453824 0.00941863935 -0.0130255409 -0.0109497011 0.00971841998 -0.0139795486 -0.0109497011 0.00941863935 -0.0130255409 -0.0109497011 0.0093820123 -0.0130370501 -0.0108570131 0.00971841998 -0.0139795486 -0.0109497011 0.00971841998 -0.0139795486 -0.0109497011 0.0093820123 -0.0130370501 -0.0108570131 0.00968179293 -0.0139910579 -0.0108570131 0.0093820123 -0.0130370501 -0.0108570131 0.00933781825 -0.0130509371 -0.0107680243 0.00968179293 -0.0139910579 -0.0108570131 0.00968179293 -0.0139910579 -0.0108570131 0.00933781825 -0.0130509371 -0.0107680243 0.00963759888 -0.0140049448 -0.0107680243 0.00933781825 -0.0130509371 -0.0107680243 0.00928639248 -0.0130670965 -0.0106834108 0.00963759888 -0.0140049448 -0.0107680243 0.00963759888 -0.0140049448 -0.0107680243 0.00928639248 -0.0130670965 -0.0106834108 0.00958617404 -0.0140211051 -0.0106834108 0.00928639248 -0.0130670965 -0.0106834108 0.00922812801 -0.0130854053 -0.0106038181 0.00958617404 -0.0140211051 -0.0106834108 0.00958617404 -0.0140211051 -0.0106834108 0.00922812801 -0.0130854053 -0.0106038181 0.00952790957 -0.0140394131 -0.0106038181 0.00922812801 -0.0130854053 -0.0106038181 0.00916346721 -0.013105724 -0.0105298515 0.00952790957 -0.0140394131 -0.0106038181 0.00952790957 -0.0140394131 -0.0106038181 0.00916346721 -0.013105724 -0.0105298515 0.00946324784 -0.0140597317 -0.0105298515 0.00916346721 -0.013105724 -0.0105298515 0.00909290183 -0.0131278979 -0.0104620727 0.00946324784 -0.0140597317 -0.0105298515 0.00946324784 -0.0140597317 -0.0105298515 0.00909290183 -0.0131278979 -0.0104620727 0.00939268339 -0.0140819065 -0.0104620727 0.00909290183 -0.0131278979 -0.0104620727 0.00901696924 -0.0131517584 -0.0104009993 0.00939268339 -0.0140819065 -0.0104620727 0.00939268339 -0.0140819065 -0.0104620727 0.00901696924 -0.0131517584 -0.0104009993 0.0093167508 -0.0141057661 -0.0104009993 0.00901696924 -0.0131517584 -0.0104009993 0.00893624779 -0.0131771239 -0.0103470944 0.0093167508 -0.0141057661 -0.0104009993 0.0093167508 -0.0141057661 -0.0104009993 0.00893624779 -0.0131771239 -0.0103470944 0.00923602935 -0.0141311316 -0.0103470944 0.00893624779 -0.0131771239 -0.0103470944 0.00885135215 -0.0132038007 -0.0103007704 0.00923602935 -0.0141311316 -0.0103470944 0.00923602935 -0.0141311316 -0.0103470944 0.00885135215 -0.0132038007 -0.0103007704 0.00915113278 -0.0141578093 -0.0103007704 0.00885135215 -0.0132038007 -0.0103007704 0.00876292679 -0.0132315867 -0.0102623776 0.00915113278 -0.0141578093 -0.0103007704 0.00915113278 -0.0141578093 -0.0103007704 0.00876292679 -0.0132315867 -0.0102623776 0.00906270836 -0.0141855953 -0.0102623776 0.00876292679 -0.0132315867 -0.0102623776 0.00867164601 -0.0132602705 -0.0102322092 0.00906270836 -0.0141855953 -0.0102623776 0.00906270836 -0.0141855953 -0.0102623776 0.00867164601 -0.0132602705 -0.0102322092 0.00897142757 -0.0142142782 -0.0102322092 0.00867164601 -0.0132602705 -0.0102322092 0.00857820455 -0.0132896332 -0.0102104954 0.00897142757 -0.0142142782 -0.0102322092 0.00897142757 -0.0142142782 -0.0102322092 0.00857820455 -0.0132896332 -0.0102104954 0.00887798611 -0.0142436409 -0.0102104954 0.00857820455 -0.0132896332 -0.0102104954 0.00848331302 -0.0133194514 -0.0101974001 0.00887798611 -0.0142436409 -0.0102104954 0.00887798611 -0.0142436409 -0.0102104954 0.00848331302 -0.0133194514 -0.0101974001 0.00878309365 -0.0142734591 -0.0101974001 0.00848331302 -0.0133194514 -0.0101974001 0.0083876932 -0.0133494977 -0.0101930238 0.00878309365 -0.0142734591 -0.0101974001 0.00878309365 -0.0142734591 -0.0101974001 0.0083876932 -0.0133494977 -0.0101930238 0.00868747476 -0.0143035064 -0.0101930238 0.0083876932 -0.0133494977 -0.0101930238 0.00829207432 -0.013379545 -0.0101974001 0.00868747476 -0.0143035064 -0.0101930238 0.00868747476 -0.0143035064 -0.0101930238 0.00829207432 -0.013379545 -0.0101974001 0.00859185494 -0.0143335527 -0.0101974001 0.00829207432 -0.013379545 -0.0101974001 0.00819718279 -0.0134093631 -0.0102104954 0.00859185494 -0.0143335527 -0.0101974001 0.00859185494 -0.0143335527 -0.0101974001 0.00819718279 -0.0134093631 -0.0102104954 0.00849696342 -0.0143633708 -0.0102104954 0.00819718279 -0.0134093631 -0.0102104954 0.00810374133 -0.0134387249 -0.0102322092 0.00849696342 -0.0143633708 -0.0102104954 0.00849696342 -0.0143633708 -0.0102104954 0.00810374133 -0.0134387249 -0.0102322092 0.00840352196 -0.0143927336 -0.0102322092 0.00810374133 -0.0134387249 -0.0102322092 0.00801246054 -0.0134674087 -0.0102623776 0.00840352196 -0.0143927336 -0.0102322092 0.00840352196 -0.0143927336 -0.0102322092 0.00801246054 -0.0134674087 -0.0102623776 0.00831224117 -0.0144214164 -0.0102623776 0.00801246054 -0.0134674087 -0.0102623776 0.00792403519 -0.0134951947 -0.0103007704 0.00831224117 -0.0144214164 -0.0102623776 0.00831224117 -0.0144214164 -0.0102623776 0.00792403519 -0.0134951947 -0.0103007704 0.00822381675 -0.0144492025 -0.0103007704 0.00792403519 -0.0134951947 -0.0103007704 0.00783913862 -0.0135218725 -0.0103470944 0.00822381675 -0.0144492025 -0.0103007704 0.00822381675 -0.0144492025 -0.0103007704 0.00783913862 -0.0135218725 -0.0103470944 0.00813892018 -0.0144758802 -0.0103470944 0.00783913862 -0.0135218725 -0.0103470944 0.00775841763 -0.013547237 -0.0104009993 0.00813892018 -0.0144758802 -0.0103470944 0.00813892018 -0.0144758802 -0.0103470944 0.00775841763 -0.013547237 -0.0104009993 0.00805819873 -0.0145012457 -0.0104009993 0.00775841763 -0.013547237 -0.0104009993 0.00768248551 -0.0135710975 -0.0104620727 0.00805819873 -0.0145012457 -0.0104009993 0.00805819873 -0.0145012457 -0.0104009993 0.00768248551 -0.0135710975 -0.0104620727 0.00798226614 -0.0145251062 -0.0104620727 0.00768248551 -0.0135710975 -0.0104620727 0.00761192013 -0.0135932714 -0.0105298515 0.00798226614 -0.0145251062 -0.0104620727 0.00798226614 -0.0145251062 -0.0104620727 0.00761192013 -0.0135932714 -0.0105298515 0.00791170169 -0.01454728 -0.0105298515 0.00761192013 -0.0135932714 -0.0105298515 0.00754725933 -0.01361359 -0.0106038181 0.00791170169 -0.01454728 -0.0105298515 0.00791170169 -0.01454728 -0.0105298515 0.00754725933 -0.01361359 -0.0106038181 0.00784703996 -0.0145675987 -0.0106038181 0.00754725933 -0.01361359 -0.0106038181 0.00748899439 -0.0136318989 -0.0106834108 0.00784703996 -0.0145675987 -0.0106038181 0.00784703996 -0.0145675987 -0.0106038181 0.00748899439 -0.0136318989 -0.0106834108 0.00778877549 -0.0145859076 -0.0106834108 0.00748899439 -0.0136318989 -0.0106834108 0.00743756909 -0.0136480583 -0.0107680243 0.00778877549 -0.0145859076 -0.0106834108 0.00778877549 -0.0145859076 -0.0106834108 0.00743756909 -0.0136480583 -0.0107680243 0.00773735018 -0.0146020669 -0.0107680243 0.00743756909 -0.0136480583 -0.0107680243 0.00739337504 -0.0136619462 -0.0108570131 0.00773735018 -0.0146020669 -0.0107680243 0.00773735018 -0.0146020669 -0.0107680243 0.00739337504 -0.0136619462 -0.0108570131 0.00769315613 -0.0146159539 -0.0108570131 0.00739337504 -0.0136619462 -0.0108570131 0.00735674798 -0.0136734555 -0.0109497011 0.00769315613 -0.0146159539 -0.0108570131 0.00769315613 -0.0146159539 -0.0108570131 0.00735674798 -0.0136734555 -0.0109497011 0.00765652908 -0.0146274632 -0.0109497011 0.00735674798 -0.0136734555 -0.0109497011 0.00732796732 -0.0136824995 -0.0110453824 0.00765652908 -0.0146274632 -0.0109497011 0.00765652908 -0.0146274632 -0.0109497011 0.00732796732 -0.0136824995 -0.0110453824 0.00762774842 -0.0146365073 -0.0110453824 0.00732796732 -0.0136824995 -0.0110453824 0.00730725192 -0.0136890085 -0.0111433286 0.00762774842 -0.0146365073 -0.0110453824 0.00762774842 -0.0146365073 -0.0110453824 0.00730725192 -0.0136890085 -0.0111433286 0.00760703301 -0.0146430163 -0.0111433286 0.00730725192 -0.0136890085 -0.0111433286 0.00729475915 -0.0136929341 -0.0112427948 0.00760703301 -0.0146430163 -0.0111433286 0.00760703301 -0.0146430163 -0.0111433286 0.00729475915 -0.0136929341 -0.0112427948 0.00759454025 -0.0146469427 -0.0112427948 0.00729475915 -0.0136929341 -0.0112427948 0.0072905845 -0.0136942463 -0.0113430237 0.00759454025 -0.0146469427 -0.0112427948 0.00759454025 -0.0146469427 -0.0112427948 0.0072905845 -0.0136942463 -0.0113430237 0.0075903656 -0.014648254 -0.0113430237 0.00754725933 -0.01361359 -0.0120822294 0.00748899439 -0.0136318989 -0.0120026367 0.00928639248 -0.0130670965 -0.0120026367 0.0093820123 -0.0130370501 -0.0118290354 0.00735674798 -0.0136734555 -0.0109497011 0.00941863935 -0.0130255409 -0.0117363473 0.00735674798 -0.0136734555 -0.0109497011 0.00739337504 -0.0136619462 -0.0108570131 0.00941863935 -0.0130255409 -0.0117363473 0.00810374133 -0.0134387249 -0.0102322092 0.00819718279 -0.0134093631 -0.0102104954 0.00941863935 -0.0130255409 -0.0117363473 0.0093820123 -0.0130370501 -0.0118290354 0.00933781825 -0.0130509371 -0.0119180242 0.00735674798 -0.0136734555 -0.0109497011 0.00933781825 -0.0130509371 -0.0119180242 0.00928639248 -0.0130670965 -0.0120026367 0.00735674798 -0.0136734555 -0.0109497011 0.00735674798 -0.0136734555 -0.0109497011 0.00928639248 -0.0130670965 -0.0120026367 0.00732796732 -0.0136824995 -0.0110453824 0.00739337504 -0.0136619462 -0.0108570131 0.00743756909 -0.0136480583 -0.0107680243 0.00941863935 -0.0130255409 -0.0117363473 0.00743756909 -0.0136480583 -0.0107680243 0.00748899439 -0.0136318989 -0.0106834108 0.00941863935 -0.0130255409 -0.0117363473 0.00941863935 -0.0130255409 -0.0117363473 0.00748899439 -0.0136318989 -0.0106834108 0.00754725933 -0.01361359 -0.0106038181 0.00810374133 -0.0134387249 -0.0102322092 0.00941863935 -0.0130255409 -0.0117363473 0.00801246054 -0.0134674087 -0.0102623776 0.00754725933 -0.01361359 -0.0106038181 0.00761192013 -0.0135932714 -0.0105298515 0.00941863935 -0.0130255409 -0.0117363473 0.00761192013 -0.0135932714 -0.0105298515 0.00768248551 -0.0135710975 -0.0104620727 0.00941863935 -0.0130255409 -0.0117363473 0.00941863935 -0.0130255409 -0.0117363473 0.00768248551 -0.0135710975 -0.0104620727 0.00775841763 -0.013547237 -0.0104009993 0.00819718279 -0.0134093631 -0.0102104954 0.00829207432 -0.013379545 -0.0101974001 0.00941863935 -0.0130255409 -0.0117363473 0.00829207432 -0.013379545 -0.0101974001 0.0083876932 -0.0133494977 -0.0101930238 0.00941863935 -0.0130255409 -0.0117363473 0.00941863935 -0.0130255409 -0.0117363473 0.0083876932 -0.0133494977 -0.0101930238 0.00848331302 -0.0133194514 -0.0101974001 0.00928639248 -0.0130670965 -0.0120026367 0.00735674798 -0.0136734555 -0.0117363473 0.00732796732 -0.0136824995 -0.0116406661 0.00775841763 -0.013547237 -0.0104009993 0.00783913862 -0.0135218725 -0.0103470944 0.00941863935 -0.0130255409 -0.0117363473 0.00783913862 -0.0135218725 -0.0103470944 0.00792403519 -0.0134951947 -0.0103007704 0.00941863935 -0.0130255409 -0.0117363473 0.00941863935 -0.0130255409 -0.0117363473 0.00792403519 -0.0134951947 -0.0103007704 0.00801246054 -0.0134674087 -0.0102623776 0.00848331302 -0.0133194514 -0.0101974001 0.00857820455 -0.0132896332 -0.0102104954 0.00941863935 -0.0130255409 -0.0117363473 0.00857820455 -0.0132896332 -0.0102104954 0.00867164601 -0.0132602705 -0.0102322092 0.00941863935 -0.0130255409 -0.0117363473 0.00941863935 -0.0130255409 -0.0117363473 0.00867164601 -0.0132602705 -0.0102322092 0.00876292679 -0.0132315867 -0.0102623776 0.00829207432 -0.013379545 -0.0124886483 0.00819718279 -0.0134093631 -0.012475553 0.00928639248 -0.0130670965 -0.0120026367 0.00819718279 -0.0134093631 -0.012475553 0.00810374133 -0.0134387249 -0.0124538383 0.00928639248 -0.0130670965 -0.0120026367 0.00928639248 -0.0130670965 -0.0120026367 0.00810374133 -0.0134387249 -0.0124538383 0.00801246054 -0.0134674087 -0.0124236709 0.00748899439 -0.0136318989 -0.0120026367 0.00743756909 -0.0136480583 -0.0119180242 0.00928639248 -0.0130670965 -0.0120026367 0.00743756909 -0.0136480583 -0.0119180242 0.00739337504 -0.0136619462 -0.0118290354 0.00928639248 -0.0130670965 -0.0120026367 0.00928639248 -0.0130670965 -0.0120026367 0.00739337504 -0.0136619462 -0.0118290354 0.00735674798 -0.0136734555 -0.0117363473 0.00732796732 -0.0136824995 -0.0116406661 0.00730725192 -0.0136890085 -0.0115427198 0.00928639248 -0.0130670965 -0.0120026367 0.00730725192 -0.0136890085 -0.0115427198 0.00729475915 -0.0136929341 -0.0114432527 0.00928639248 -0.0130670965 -0.0120026367 0.00928639248 -0.0130670965 -0.0120026367 0.00729475915 -0.0136929341 -0.0114432527 0.0072905845 -0.0136942463 -0.0113430237 0.0072905845 -0.0136942463 -0.0113430237 0.00729475915 -0.0136929341 -0.0112427948 0.00928639248 -0.0130670965 -0.0120026367 0.00729475915 -0.0136929341 -0.0112427948 0.00730725192 -0.0136890085 -0.0111433286 0.00928639248 -0.0130670965 -0.0120026367 0.00928639248 -0.0130670965 -0.0120026367 0.00730725192 -0.0136890085 -0.0111433286 0.00732796732 -0.0136824995 -0.0110453824 0.00922812801 -0.0130854053 -0.0106038181 0.00928639248 -0.0130670965 -0.0106834108 0.00941863935 -0.0130255409 -0.0117363473 0.00928639248 -0.0130670965 -0.0106834108 0.00933781825 -0.0130509371 -0.0107680243 0.00941863935 -0.0130255409 -0.0117363473 0.00941863935 -0.0130255409 -0.0117363473 0.00933781825 -0.0130509371 -0.0107680243 0.00944742002 -0.0130164968 -0.0116406661 0.00933781825 -0.0130509371 -0.0107680243 0.00946813542 -0.0130099868 -0.0115427198 0.00944742002 -0.0130164968 -0.0116406661 0.00922812801 -0.0130854053 -0.0120822294 0.00848331302 -0.0133194514 -0.0124886483 0.00928639248 -0.0130670965 -0.0120026367 0.00848331302 -0.0133194514 -0.0124886483 0.0083876932 -0.0133494977 -0.0124930236 0.00928639248 -0.0130670965 -0.0120026367 0.00928639248 -0.0130670965 -0.0120026367 0.0083876932 -0.0133494977 -0.0124930236 0.00829207432 -0.013379545 -0.0124886483 0.00922812801 -0.0130854053 -0.0120822294 0.00916346721 -0.013105724 -0.0121561969 0.00848331302 -0.0133194514 -0.0124886483 0.00916346721 -0.013105724 -0.0121561969 0.00909290183 -0.0131278979 -0.0122239748 0.00848331302 -0.0133194514 -0.0124886483 0.00848331302 -0.0133194514 -0.0124886483 0.00909290183 -0.0131278979 -0.0122239748 0.00901696924 -0.0131517584 -0.0122850491 0.00801246054 -0.0134674087 -0.0124236709 0.00792403519 -0.0134951947 -0.012385278 0.00928639248 -0.0130670965 -0.0120026367 0.00792403519 -0.0134951947 -0.012385278 0.00783913862 -0.0135218725 -0.0123389531 0.00928639248 -0.0130670965 -0.0120026367 0.00928639248 -0.0130670965 -0.0120026367 0.00783913862 -0.0135218725 -0.0123389531 0.00775841763 -0.013547237 -0.0122850491 0.00901696924 -0.0131517584 -0.0122850491 0.00893624779 -0.0131771239 -0.0123389531 0.00848331302 -0.0133194514 -0.0124886483 0.00893624779 -0.0131771239 -0.0123389531 0.00885135215 -0.0132038007 -0.012385278 0.00848331302 -0.0133194514 -0.0124886483 0.00848331302 -0.0133194514 -0.0124886483 0.00885135215 -0.0132038007 -0.012385278 0.00857820455 -0.0132896332 -0.012475553 0.00885135215 -0.0132038007 -0.012385278 0.00876292679 -0.0132315867 -0.0124236709 0.00857820455 -0.0132896332 -0.012475553 0.00857820455 -0.0132896332 -0.012475553 0.00876292679 -0.0132315867 -0.0124236709 0.00867164601 -0.0132602705 -0.0124538383 0.00775841763 -0.013547237 -0.0122850491 0.00768248551 -0.0135710975 -0.0122239748 0.00928639248 -0.0130670965 -0.0120026367 0.00768248551 -0.0135710975 -0.0122239748 0.00761192013 -0.0135932714 -0.0121561969 0.00928639248 -0.0130670965 -0.0120026367 0.00928639248 -0.0130670965 -0.0120026367 0.00761192013 -0.0135932714 -0.0121561969 0.00754725933 -0.01361359 -0.0120822294 0.00876292679 -0.0132315867 -0.0102623776 0.00885135215 -0.0132038007 -0.0103007704 0.00941863935 -0.0130255409 -0.0117363473 0.00885135215 -0.0132038007 -0.0103007704 0.00893624779 -0.0131771239 -0.0103470944 0.00941863935 -0.0130255409 -0.0117363473 0.00941863935 -0.0130255409 -0.0117363473 0.00893624779 -0.0131771239 -0.0103470944 0.00901696924 -0.0131517584 -0.0104009993 0.00901696924 -0.0131517584 -0.0104009993 0.00909290183 -0.0131278979 -0.0104620727 0.00941863935 -0.0130255409 -0.0117363473 0.00909290183 -0.0131278979 -0.0104620727 0.00916346721 -0.013105724 -0.0105298515 0.00941863935 -0.0130255409 -0.0117363473 0.00941863935 -0.0130255409 -0.0117363473 0.00916346721 -0.013105724 -0.0105298515 0.00922812801 -0.0130854053 -0.0106038181 0.00933781825 -0.0130509371 -0.0107680243 0.0093820123 -0.0130370501 -0.0108570131 0.00941863935 -0.0130255409 -0.0109497011 0.00941863935 -0.0130255409 -0.0109497011 0.00944742002 -0.0130164968 -0.0110453824 0.00933781825 -0.0130509371 -0.0107680243 0.00944742002 -0.0130164968 -0.0110453824 0.00946813542 -0.0130099868 -0.0111433286 0.00933781825 -0.0130509371 -0.0107680243 0.00933781825 -0.0130509371 -0.0107680243 0.00946813542 -0.0130099868 -0.0111433286 0.00948062818 -0.0130060613 -0.0112427948 0.00948062818 -0.0130060613 -0.0112427948 0.0094848033 -0.01300475 -0.0113430237 0.00933781825 -0.0130509371 -0.0107680243 0.0094848033 -0.01300475 -0.0113430237 0.00948062818 -0.0130060613 -0.0114432527 0.00933781825 -0.0130509371 -0.0107680243 0.00933781825 -0.0130509371 -0.0107680243 0.00948062818 -0.0130060613 -0.0114432527 0.00946813542 -0.0130099868 -0.0115427198 0.0075903656 -0.014648254 -0.0113430237 0.0072905845 -0.0136942463 -0.0113430237 0.00729475915 -0.0136929341 -0.0114432527 0.0075903656 -0.014648254 -0.0113430237 0.00729475915 -0.0136929341 -0.0114432527 0.00759454025 -0.0146469427 -0.0114432527 0.00729475915 -0.0136929341 -0.0114432527 0.00730725192 -0.0136890085 -0.0115427198 0.00759454025 -0.0146469427 -0.0114432527 0.00759454025 -0.0146469427 -0.0114432527 0.00730725192 -0.0136890085 -0.0115427198 0.00760703301 -0.0146430163 -0.0115427198 0.00730725192 -0.0136890085 -0.0115427198 0.00732796732 -0.0136824995 -0.0116406661 0.00760703301 -0.0146430163 -0.0115427198 0.00760703301 -0.0146430163 -0.0115427198 0.00732796732 -0.0136824995 -0.0116406661 0.00762774842 -0.0146365073 -0.0116406661 0.00732796732 -0.0136824995 -0.0116406661 0.00735674798 -0.0136734555 -0.0117363473 0.00762774842 -0.0146365073 -0.0116406661 0.00762774842 -0.0146365073 -0.0116406661 0.00735674798 -0.0136734555 -0.0117363473 0.00765652908 -0.0146274632 -0.0117363473 0.00735674798 -0.0136734555 -0.0117363473 0.00739337504 -0.0136619462 -0.0118290354 0.00765652908 -0.0146274632 -0.0117363473 0.00765652908 -0.0146274632 -0.0117363473 0.00739337504 -0.0136619462 -0.0118290354 0.00769315613 -0.0146159539 -0.0118290354 0.00739337504 -0.0136619462 -0.0118290354 0.00743756909 -0.0136480583 -0.0119180242 0.00769315613 -0.0146159539 -0.0118290354 0.00769315613 -0.0146159539 -0.0118290354 0.00743756909 -0.0136480583 -0.0119180242 0.00773735018 -0.0146020669 -0.0119180242 0.00743756909 -0.0136480583 -0.0119180242 0.00748899439 -0.0136318989 -0.0120026367 0.00773735018 -0.0146020669 -0.0119180242 0.00773735018 -0.0146020669 -0.0119180242 0.00748899439 -0.0136318989 -0.0120026367 0.00778877549 -0.0145859076 -0.0120026367 0.00748899439 -0.0136318989 -0.0120026367 0.00754725933 -0.01361359 -0.0120822294 0.00778877549 -0.0145859076 -0.0120026367 0.00778877549 -0.0145859076 -0.0120026367 0.00754725933 -0.01361359 -0.0120822294 0.00784703996 -0.0145675987 -0.0120822294 0.00754725933 -0.01361359 -0.0120822294 0.00761192013 -0.0135932714 -0.0121561969 0.00784703996 -0.0145675987 -0.0120822294 0.00784703996 -0.0145675987 -0.0120822294 0.00761192013 -0.0135932714 -0.0121561969 0.00791170169 -0.01454728 -0.0121561969 0.00761192013 -0.0135932714 -0.0121561969 0.00768248551 -0.0135710975 -0.0122239748 0.00791170169 -0.01454728 -0.0121561969 0.00791170169 -0.01454728 -0.0121561969 0.00768248551 -0.0135710975 -0.0122239748 0.00798226614 -0.0145251062 -0.0122239748 0.00768248551 -0.0135710975 -0.0122239748 0.00775841763 -0.013547237 -0.0122850491 0.00798226614 -0.0145251062 -0.0122239748 0.00798226614 -0.0145251062 -0.0122239748 0.00775841763 -0.013547237 -0.0122850491 0.00805819873 -0.0145012457 -0.0122850491 0.00775841763 -0.013547237 -0.0122850491 0.00783913862 -0.0135218725 -0.0123389531 0.00805819873 -0.0145012457 -0.0122850491 0.00805819873 -0.0145012457 -0.0122850491 0.00783913862 -0.0135218725 -0.0123389531 0.00813892018 -0.0144758802 -0.0123389531 0.00783913862 -0.0135218725 -0.0123389531 0.00792403519 -0.0134951947 -0.012385278 0.00813892018 -0.0144758802 -0.0123389531 0.00813892018 -0.0144758802 -0.0123389531 0.00792403519 -0.0134951947 -0.012385278 0.00822381675 -0.0144492025 -0.012385278 0.00792403519 -0.0134951947 -0.012385278 0.00801246054 -0.0134674087 -0.0124236709 0.00822381675 -0.0144492025 -0.012385278 0.00822381675 -0.0144492025 -0.012385278 0.00801246054 -0.0134674087 -0.0124236709 0.00831224117 -0.0144214164 -0.0124236709 0.00801246054 -0.0134674087 -0.0124236709 0.00810374133 -0.0134387249 -0.0124538383 0.00831224117 -0.0144214164 -0.0124236709 0.00831224117 -0.0144214164 -0.0124236709 0.00810374133 -0.0134387249 -0.0124538383 0.00840352196 -0.0143927336 -0.0124538383 0.00810374133 -0.0134387249 -0.0124538383 0.00819718279 -0.0134093631 -0.012475553 0.00840352196 -0.0143927336 -0.0124538383 0.00840352196 -0.0143927336 -0.0124538383 0.00819718279 -0.0134093631 -0.012475553 0.00849696342 -0.0143633708 -0.012475553 0.00819718279 -0.0134093631 -0.012475553 0.00829207432 -0.013379545 -0.0124886483 0.00849696342 -0.0143633708 -0.012475553 0.00849696342 -0.0143633708 -0.012475553 0.00829207432 -0.013379545 -0.0124886483 0.00859185494 -0.0143335527 -0.0124886483 0.00829207432 -0.013379545 -0.0124886483 0.0083876932 -0.0133494977 -0.0124930236 0.00859185494 -0.0143335527 -0.0124886483 0.00859185494 -0.0143335527 -0.0124886483 0.0083876932 -0.0133494977 -0.0124930236 0.00868747476 -0.0143035064 -0.0124930236 0.0083876932 -0.0133494977 -0.0124930236 0.00848331302 -0.0133194514 -0.0124886483 0.00868747476 -0.0143035064 -0.0124930236 0.00868747476 -0.0143035064 -0.0124930236 0.00848331302 -0.0133194514 -0.0124886483 0.00878309365 -0.0142734591 -0.0124886483 0.00848331302 -0.0133194514 -0.0124886483 0.00857820455 -0.0132896332 -0.012475553 0.00878309365 -0.0142734591 -0.0124886483 0.00878309365 -0.0142734591 -0.0124886483 0.00857820455 -0.0132896332 -0.012475553 0.00887798611 -0.0142436409 -0.012475553 0.00857820455 -0.0132896332 -0.012475553 0.00867164601 -0.0132602705 -0.0124538383 0.00887798611 -0.0142436409 -0.012475553 0.00887798611 -0.0142436409 -0.012475553 0.00867164601 -0.0132602705 -0.0124538383 0.00897142757 -0.0142142782 -0.0124538383 0.00867164601 -0.0132602705 -0.0124538383 0.00876292679 -0.0132315867 -0.0124236709 0.00897142757 -0.0142142782 -0.0124538383 0.00897142757 -0.0142142782 -0.0124538383 0.00876292679 -0.0132315867 -0.0124236709 0.00906270836 -0.0141855953 -0.0124236709 0.00876292679 -0.0132315867 -0.0124236709 0.00885135215 -0.0132038007 -0.012385278 0.00906270836 -0.0141855953 -0.0124236709 0.00906270836 -0.0141855953 -0.0124236709 0.00885135215 -0.0132038007 -0.012385278 0.00915113278 -0.0141578093 -0.012385278 0.00885135215 -0.0132038007 -0.012385278 0.00893624779 -0.0131771239 -0.0123389531 0.00915113278 -0.0141578093 -0.012385278 0.00915113278 -0.0141578093 -0.012385278 0.00893624779 -0.0131771239 -0.0123389531 0.00923602935 -0.0141311316 -0.0123389531 0.00893624779 -0.0131771239 -0.0123389531 0.00901696924 -0.0131517584 -0.0122850491 0.00923602935 -0.0141311316 -0.0123389531 0.00923602935 -0.0141311316 -0.0123389531 0.00901696924 -0.0131517584 -0.0122850491 0.0093167508 -0.0141057661 -0.0122850491 0.00901696924 -0.0131517584 -0.0122850491 0.00909290183 -0.0131278979 -0.0122239748 0.0093167508 -0.0141057661 -0.0122850491 0.0093167508 -0.0141057661 -0.0122850491 0.00909290183 -0.0131278979 -0.0122239748 0.00939268339 -0.0140819065 -0.0122239748 0.00909290183 -0.0131278979 -0.0122239748 0.00916346721 -0.013105724 -0.0121561969 0.00939268339 -0.0140819065 -0.0122239748 0.00939268339 -0.0140819065 -0.0122239748 0.00916346721 -0.013105724 -0.0121561969 0.00946324784 -0.0140597317 -0.0121561969 0.00916346721 -0.013105724 -0.0121561969 0.00922812801 -0.0130854053 -0.0120822294 0.00946324784 -0.0140597317 -0.0121561969 0.00946324784 -0.0140597317 -0.0121561969 0.00922812801 -0.0130854053 -0.0120822294 0.00952790957 -0.0140394131 -0.0120822294 0.00922812801 -0.0130854053 -0.0120822294 0.00928639248 -0.0130670965 -0.0120026367 0.00952790957 -0.0140394131 -0.0120822294 0.00952790957 -0.0140394131 -0.0120822294 0.00928639248 -0.0130670965 -0.0120026367 0.00958617404 -0.0140211051 -0.0120026367 0.00928639248 -0.0130670965 -0.0120026367 0.00933781825 -0.0130509371 -0.0119180242 0.00958617404 -0.0140211051 -0.0120026367 0.00958617404 -0.0140211051 -0.0120026367 0.00933781825 -0.0130509371 -0.0119180242 0.00963759888 -0.0140049448 -0.0119180242 0.00933781825 -0.0130509371 -0.0119180242 0.0093820123 -0.0130370501 -0.0118290354 0.00963759888 -0.0140049448 -0.0119180242 0.00963759888 -0.0140049448 -0.0119180242 0.0093820123 -0.0130370501 -0.0118290354 0.00968179293 -0.0139910579 -0.0118290354 0.0093820123 -0.0130370501 -0.0118290354 0.00941863935 -0.0130255409 -0.0117363473 0.00968179293 -0.0139910579 -0.0118290354 0.00968179293 -0.0139910579 -0.0118290354 0.00941863935 -0.0130255409 -0.0117363473 0.00971841998 -0.0139795486 -0.0117363473 0.00941863935 -0.0130255409 -0.0117363473 0.00944742002 -0.0130164968 -0.0116406661 0.00971841998 -0.0139795486 -0.0117363473 0.00971841998 -0.0139795486 -0.0117363473 0.00944742002 -0.0130164968 -0.0116406661 0.00974720065 -0.0139705045 -0.0116406661 0.00944742002 -0.0130164968 -0.0116406661 0.00946813542 -0.0130099868 -0.0115427198 0.00974720065 -0.0139705045 -0.0116406661 0.00974720065 -0.0139705045 -0.0116406661 0.00946813542 -0.0130099868 -0.0115427198 0.00976791605 -0.0139639955 -0.0115427198 0.00946813542 -0.0130099868 -0.0115427198 0.00948062818 -0.0130060613 -0.0114432527 0.00976791605 -0.0139639955 -0.0115427198 0.00976791605 -0.0139639955 -0.0115427198 0.00948062818 -0.0130060613 -0.0114432527 0.00978040881 -0.01396007 -0.0114432527 0.00948062818 -0.0130060613 -0.0114432527 0.0094848033 -0.01300475 -0.0113430237 0.00978040881 -0.01396007 -0.0114432527 0.00978040881 -0.01396007 -0.0114432527 0.0094848033 -0.01300475 -0.0113430237 0.00978458393 -0.0139587577 -0.0113430237 </float_array>
          <technique_common>
            <accessor count="852" offset="0" source="#mesh_0-positions-array" stride="3">
              <param name="X" type="float" />
              <param name="Y" type="float" />
              <param name="Z" type="float" />
            </accessor>
          </technique_common>
        </source>
        <source id="mesh_0-normals" name="mesh_0-normals">
          <float_array id="mesh_0-normals-array" count="2556"> 0.299779862 -0.9540084 -4.1694293e-06 0.299779862 -0.9540084 -4.1694293e-06 0.299779862 -0.9540084 -4.1694293e-06 0.299782842 -0.954007447 7.56813688e-06 0.299782842 -0.954007447 7.56813688e-06 0.299782842 -0.954007447 7.56813688e-06 0.29978165 -0.954007864 -3.42424437e-06 0.29978165 -0.954007864 -3.42424437e-06 0.29978165 -0.954007864 -3.42424437e-06 0.299781501 -0.954007864 -1.78324763e-06 0.299781501 -0.954007864 -1.78324763e-06 0.299781501 -0.954007864 -1.78324763e-06 0.299781054 -0.954008043 1.83498594e-06 0.299781054 -0.954008043 1.83498594e-06 0.299781054 -0.954008043 1.83498594e-06 0.299780935 -0.954008043 3.04636615e-06 0.299780935 -0.954008043 3.04636615e-06 0.299780935 -0.954008043 3.04636615e-06 0.299782664 -0.954007506 1.35504824e-05 0.299782664 -0.954007506 1.35504824e-05 0.299782664 -0.954007506 1.35504824e-05 0.299780637 -0.954008162 -1.06005359e-06 0.299780637 -0.954008162 -1.06005359e-06 0.299780637 -0.954008162 -1.06005359e-06 0.299781412 -0.954007924 2.57449074e-06 0.299781412 -0.954007924 2.57449074e-06 0.299781412 -0.954007924 2.57449074e-06 0.299780548 -0.954008162 -2.61444188e-06 0.299780548 -0.954008162 -2.61444188e-06 0.299780548 -0.954008162 -2.61444188e-06 0.299781024 -0.954008043 1.11024622e-06 0.299781024 -0.954008043 1.11024622e-06 0.299781024 -0.954008043 1.11024622e-06 0.299781293 -0.954007983 4.50446987e-06 0.299781293 -0.954007983 4.50446987e-06 0.299781293 -0.954007983 4.50446987e-06 0.299780995 -0.954008043 -2.33200831e-06 0.299780995 -0.954008043 -2.33200831e-06 0.299780995 -0.954008043 -2.33200831e-06 0.299781591 -0.954007864 2.40022314e-06 0.299781591 -0.954007864 2.40022314e-06 0.299781591 -0.954007864 2.40022314e-06 0.29978174 -0.954007804 2.09193854e-06 0.29978174 -0.954007804 2.09193854e-06 0.29978174 -0.954007804 2.09193854e-06 0.29978174 -0.954007804 2.09193854e-06 0.29978174 -0.954007804 2.09193854e-06 0.29978174 -0.954007804 2.09193854e-06 0.299779862 -0.9540084 -4.1694293e-06 0.299779862 -0.9540084 -4.1694293e-06 0.299779862 -0.9540084 -4.1694293e-06 0.299781293 -0.954007983 4.50446987e-06 0.299781293 -0.954007983 4.50446987e-06 0.299781293 -0.954007983 4.50446987e-06 0.299780995 -0.954008043 -2.33200831e-06 0.299780995 -0.954008043 -2.33200831e-06 0.299780995 -0.954008043 -2.33200831e-06 0.299780995 -0.954008043 1.56876013e-06 0.299780995 -0.954008043 1.56876013e-06 0.299780995 -0.954008043 1.56876013e-06 0.299781293 -0.954007924 -2.82125666e-06 0.299781293 -0.954007924 -2.82125666e-06 0.299781293 -0.954007924 -2.82125666e-06 0.299781054 -0.954008043 -8.35069295e-06 0.299781054 -0.954008043 -8.35069295e-06 0.299781054 -0.954008043 -8.35069295e-06 0.299781054 -0.954008043 1.0302404e-05 0.299781054 -0.954008043 1.0302404e-05 0.299781054 -0.954008043 1.0302404e-05 0.29978022 -0.954008281 -4.84296106e-06 0.29978022 -0.954008281 -4.84296106e-06 0.29978022 -0.954008281 -4.84296106e-06 0.299781859 -0.954007745 4.91810215e-06 0.299781859 -0.954007745 4.91810215e-06 0.299781859 -0.954007745 4.91810215e-06 0.29978025 -0.954008281 -7.92634182e-06 0.29978025 -0.954008281 -7.92634182e-06 0.29978025 -0.954008281 -7.92634182e-06 0.299780488 -0.954008222 -2.93110634e-06 0.299780488 -0.954008222 -2.93110634e-06 0.299780488 -0.954008222 -2.93110634e-06 0.299785137 -0.954006732 4.99358748e-06 0.299785137 -0.954006732 4.99358748e-06 0.299785137 -0.954006732 4.99358748e-06 0.299781054 -0.954008043 -1.83496672e-06 0.299781054 -0.954008043 -1.83496672e-06 0.299781054 -0.954008043 -1.83496672e-06 0.299780935 -0.954008043 -3.04636615e-06 0.299780935 -0.954008043 -3.04636615e-06 0.299780935 -0.954008043 -3.04636615e-06 0.299780995 -0.954008043 -1.56876013e-06 0.299780995 -0.954008043 -1.56876013e-06 0.299780995 -0.954008043 -1.56876013e-06 0.29978317 -0.954007387 3.85450721e-06 0.29978317 -0.954007387 3.85450721e-06 0.29978317 -0.954007387 3.85450721e-06 0.299780905 -0.954008102 -2.64102982e-06 0.299780905 -0.954008102 -2.64102982e-06 0.299780905 -0.954008102 -2.64102982e-06 0.299776286 -0.954009533 -1.79889175e-05 0.299776286 -0.954009533 -1.79889175e-05 0.299776286 -0.954009533 -1.79889175e-05 0.299778551 -0.954008818 -9.1908496e-06 0.299778551 -0.954008818 -9.1908496e-06 0.299778551 -0.954008818 -9.1908496e-06 0.299792379 -0.954004467 5.62373752e-05 0.299792379 -0.954004467 5.62373752e-05 0.299792379 -0.954004467 5.62373752e-05 0.299778461 -0.954008818 -2.64467526e-05 0.299778461 -0.954008818 -2.64467526e-05 0.299778461 -0.954008818 -2.64467526e-05 0.299786299 -0.954006374 1.05171348e-05 0.299786299 -0.954006374 1.05171348e-05 0.299786299 -0.954006374 1.05171348e-05 0.299779683 -0.95400846 -4.36981463e-06 0.299779683 -0.95400846 -4.36981463e-06 0.299779683 -0.95400846 -4.36981463e-06 0.299782604 -0.954007566 5.31628939e-06 0.299782604 -0.954007566 5.31628939e-06 0.299782604 -0.954007566 5.31628939e-06 0.29978174 -0.954007804 1.28481963e-06 0.29978174 -0.954007804 1.28481963e-06 0.29978174 -0.954007804 1.28481963e-06 0.299779326 -0.954008579 -1.31338165e-05 0.299779326 -0.954008579 -1.31338165e-05 0.299779326 -0.954008579 -1.31338165e-05 0.29978165 -0.954007864 1.13332237e-06 0.29978165 -0.954007864 1.13332237e-06 0.29978165 -0.954007864 1.13332237e-06 0.29978323 -0.954007328 3.9859151e-06 0.29978323 -0.954007328 3.9859151e-06 0.29978323 -0.954007328 3.9859151e-06 0.299777657 -0.954009116 -7.24514621e-06 0.299777657 -0.954009116 -7.24514621e-06 0.299777657 -0.954009116 -7.24514621e-06 0.299781561 -0.954007864 1.55607495e-06 0.299781561 -0.954007864 1.55607495e-06 0.299781561 -0.954007864 1.55607495e-06 0.299782842 -0.954007447 4.80231029e-06 0.299782842 -0.954007447 4.80231029e-06 0.299782842 -0.954007447 4.80231029e-06 0.29978168 -0.954007864 1.40357884e-06 0.29978168 -0.954007864 1.40357884e-06 0.29978168 -0.954007864 1.40357884e-06 0.299780995 -0.954008043 -8.6759087e-07 0.299780995 -0.954008043 -8.6759087e-07 0.299780995 -0.954008043 -8.6759087e-07 0.299781621 -0.954007864 1.63359778e-06 0.299781621 -0.954007864 1.63359778e-06 0.299781621 -0.954007864 1.63359778e-06 0.299780786 -0.954008102 -2.32813113e-06 0.299780786 -0.954008102 -2.32813113e-06 0.299780786 -0.954008102 -2.32813113e-06 0.299775124 -0.954009891 -1.19857132e-05 0.299775124 -0.954009891 -1.19857132e-05 0.299775124 -0.954009891 -1.19857132e-05 0.299779445 -0.95400852 -4.11145538e-06 0.299779445 -0.95400852 -4.11145538e-06 0.299779445 -0.95400852 -4.11145538e-06 0.299784362 -0.95400697 5.75496415e-06 0.299784362 -0.95400697 5.75496415e-06 0.299784362 -0.95400697 5.75496415e-06 0.299788505 -0.954005659 7.17200965e-06 0.299788505 -0.954005659 7.17200965e-06 0.299788505 -0.954005659 7.17200965e-06 0.299762249 -0.954013944 -2.28733225e-05 0.299762249 -0.954013944 -2.28733225e-05 0.299762249 -0.954013944 -2.28733225e-05 0.299641937 -0.954051733 -0.000174522283 0.299641937 -0.954051733 -0.000174522283 0.299641937 -0.954051733 -0.000174522283 0.29978469 -0.95400691 3.16509568e-06 0.29978469 -0.95400691 3.16509568e-06 0.29978469 -0.95400691 3.16509568e-06 0.299782664 -0.954007506 1.22092933e-06 0.299782664 -0.954007506 1.22092933e-06 0.299782664 -0.954007506 1.22092933e-06 0.29977268 -0.954010665 -9.22715572e-06 0.29977268 -0.954010665 -9.22715572e-06 0.29977268 -0.954010665 -9.22715572e-06 0.299778759 -0.954008758 -2.97575457e-06 0.299778759 -0.954008758 -2.97575457e-06 0.299778759 -0.954008758 -2.97575457e-06 0.299787074 -0.954006135 8.40821576e-06 0.299787074 -0.954006135 8.40821576e-06 0.299787074 -0.954006135 8.40821576e-06 0.299775958 -0.954009652 -8.24035669e-06 0.299775958 -0.954009652 -8.24035669e-06 0.299775958 -0.954009652 -8.24035669e-06 0.29978314 -0.954007387 4.40771373e-06 0.29978314 -0.954007387 4.40771373e-06 0.29978314 -0.954007387 4.40771373e-06 0.299778312 -0.954008877 -9.47073022e-06 0.299778312 -0.954008877 -9.47073022e-06 0.299778312 -0.954008877 -9.47073022e-06 0.299781591 -0.954007864 1.45422689e-06 0.299781591 -0.954007864 1.45422689e-06 0.299781591 -0.954007864 1.45422689e-06 0.299798399 -0.954002559 2.22846211e-05 0.299798399 -0.954002559 2.22846211e-05 0.299798399 -0.954002559 2.22846211e-05 0.299790889 -0.954004943 1.20292989e-05 0.299790889 -0.954004943 1.20292989e-05 0.299790889 -0.954004943 1.20292989e-05 0.299792141 -0.954004526 1.39008707e-05 0.299792141 -0.954004526 1.39008707e-05 0.299792141 -0.954004526 1.39008707e-05 0.299785256 -0.954006732 4.51168626e-06 0.299785256 -0.954006732 4.51168626e-06 0.299785256 -0.954006732 4.51168626e-06 0.953100085 0.299495429 0.0436204895 0.953100085 0.299495429 0.0436204895 0.953100085 0.299495429 0.0436204895 0.953100026 0.299495101 0.0436232686 0.953100026 0.299495101 0.0436232686 0.953100026 0.299495101 0.0436232686 0.945846498 0.297215819 0.130526394 0.945846498 0.297215819 0.130526394 0.945846498 0.297215819 0.130526394 0.945846498 0.297215819 0.130526394 0.945846498 0.297215819 0.130526394 0.945846498 0.297215819 0.130526394 0.931394279 0.292674452 0.216440186 0.931394279 0.292674452 0.216440186 0.931394279 0.292674452 0.216440186 0.931394756 0.292674899 0.216437533 0.931394756 0.292674899 0.216437533 0.931394756 0.292674899 0.216437533 0.909853637 0.285905957 0.300706059 0.909853637 0.285905957 0.300706059 0.909853637 0.285905957 0.300706059 0.909853637 0.285905957 0.300706059 0.909853637 0.285905957 0.300706059 0.909853637 0.285905957 0.300706059 0.881388128 0.276961148 0.382684588 0.881388128 0.276961148 0.382684588 0.881388128 0.276961148 0.382684588 0.881388128 0.276961148 0.382684588 0.881388128 0.276961148 0.382684588 0.881388128 0.276961148 0.382684588 0.846215963 0.265908927 0.461747706 0.846215963 0.265908927 0.461747706 0.846215963 0.265908927 0.461747706 0.846215963 0.265908927 0.461747706 0.846215963 0.265908927 0.461747706 0.846215963 0.265908927 0.461747706 0.80460161 0.252832294 0.537300766 0.80460161 0.252832294 0.537300766 0.80460161 0.252832294 0.537300766 0.804604053 0.252833635 0.537296414 0.804604053 0.252833635 0.537296414 0.804604053 0.252833635 0.537296414 0.756866276 0.2378328 0.608760238 0.756866276 0.2378328 0.608760238 0.756866276 0.2378328 0.608760238 0.756867468 0.237833411 0.60875845 0.756867468 0.237833411 0.60875845 0.756867468 0.237833411 0.60875845 0.703367472 0.221021891 0.67559123 0.703367472 0.221021891 0.67559123 0.703367472 0.221021891 0.67559123 0.703363419 0.221019939 0.675596058 0.703363419 0.221019939 0.675596058 0.703363419 0.221019939 0.675596058 0.644520462 0.20252955 0.737275481 0.644520462 0.20252955 0.737275481 0.644520462 0.20252955 0.737275481 0.644523263 0.202530846 0.737272739 0.644523263 0.202530846 0.737272739 0.644523263 0.202530846 0.737272739 0.580759108 0.182494015 0.793356657 0.580759108 0.182494015 0.793356657 0.580759108 0.182494015 0.793356657 0.58076036 0.182494581 0.793355644 0.58076036 0.182494581 0.793355644 0.58076036 0.182494581 0.793355644 0.512591541 0.16107364 0.843389094 0.512591541 0.16107364 0.843389094 0.512591541 0.16107364 0.843389094 0.512591541 0.16107364 0.843389094 0.512591541 0.16107364 0.843389094 0.512591541 0.16107364 0.843389094 0.440508783 0.138422787 0.887012482 0.440508783 0.138422787 0.887012482 0.440508783 0.138422787 0.887012482 0.440504402 0.13842085 0.887014985 0.440504402 0.13842085 0.887014985 0.440504402 0.13842085 0.887014985 0.365084141 0.114721343 0.923879087 0.365084141 0.114721343 0.923879087 0.365084141 0.114721343 0.923879087 0.365087032 0.11472261 0.923877776 0.365087032 0.11472261 0.923877776 0.365087032 0.11472261 0.923877776 0.28687644 0.0901462063 0.953716695 0.28687644 0.0901462063 0.953716695 0.28687644 0.0901462063 0.953716695 0.286877155 0.0901465267 0.953716457 0.286877155 0.0901465267 0.953716457 0.286877155 0.0901465267 0.953716457 0.206481606 0.0648835227 0.976296842 0.206481606 0.0648835227 0.976296842 0.206481606 0.0648835227 0.976296842 0.206481606 0.0648835227 0.976296842 0.206481606 0.0648835227 0.976296842 0.206481606 0.0648835227 0.976296842 0.124526322 0.0391303897 0.991444409 0.124526322 0.0391303897 0.991444409 0.124526322 0.0391303897 0.991444409 0.124525256 0.0391299352 0.991444528 0.124525256 0.0391299352 0.991444528 0.124525256 0.0391299352 0.991444528 0.0416149087 0.0130767738 0.999048173 0.0416149087 0.0130767738 0.999048173 0.0416149087 0.0130767738 0.999048173 0.0416151546 0.0130768791 0.999048114 0.0416151546 0.0130768791 0.999048114 0.0416151546 0.0130768791 0.999048114 -0.0416151546 -0.0130768791 0.999048114 -0.0416151546 -0.0130768791 0.999048114 -0.0416151546 -0.0130768791 0.999048114 -0.0416149087 -0.0130767738 0.999048173 -0.0416149087 -0.0130767738 0.999048173 -0.0416149087 -0.0130767738 0.999048173 -0.124526352 -0.0391302779 0.991444409 -0.124526352 -0.0391302779 0.991444409 -0.124526352 -0.0391302779 0.991444409 -0.124526352 -0.0391302779 0.991444409 -0.124526352 -0.0391302779 0.991444409 -0.124526352 -0.0391302779 0.991444409 -0.206482232 -0.0648835152 0.976296663 -0.206482232 -0.0648835152 0.976296663 -0.206482232 -0.0648835152 0.976296663 -0.20648168 -0.0648832768 0.976296842 -0.20648168 -0.0648832768 0.976296842 -0.20648168 -0.0648832768 0.976296842 -0.2868765 -0.090145953 0.953716695 -0.2868765 -0.090145953 0.953716695 -0.2868765 -0.090145953 0.953716695 -0.286877245 -0.0901462734 0.953716457 -0.286877245 -0.0901462734 0.953716457 -0.286877245 -0.0901462734 0.953716457 -0.365084112 -0.114721447 0.923879087 -0.365084112 -0.114721447 0.923879087 -0.365084112 -0.114721447 0.923879087 -0.365087003 -0.114722714 0.923877776 -0.365087003 -0.114722714 0.923877776 -0.365087003 -0.114722714 0.923877776 -0.440504223 -0.138421357 0.887014985 -0.440504223 -0.138421357 0.887014985 -0.440504223 -0.138421357 0.887014985 -0.440504223 -0.138421357 0.887014985 -0.440504223 -0.138421357 0.887014985 -0.440504223 -0.138421357 0.887014985 -0.51259464 -0.161074623 0.843387008 -0.51259464 -0.161074623 0.843387008 -0.51259464 -0.161074623 0.843387008 -0.51259166 -0.161073267 0.843389094 -0.51259166 -0.161073267 0.843389094 -0.51259166 -0.161073267 0.843389094 -0.580761254 -0.182494402 0.793354988 -0.580761254 -0.182494402 0.793354988 -0.580761254 -0.182494402 0.793354988 -0.580759287 -0.182493508 0.793356657 -0.580759287 -0.182493508 0.793356657 -0.580759287 -0.182493508 0.793356657 -0.644520521 -0.202529371 0.737275481 -0.644520521 -0.202529371 0.737275481 -0.644520521 -0.202529371 0.737275481 -0.644524574 -0.202531263 0.737271428 -0.644524574 -0.202531263 0.737271428 -0.644524574 -0.202531263 0.737271428 -0.703367531 -0.221021697 0.67559123 -0.703367531 -0.221021697 0.67559123 -0.703367531 -0.221021697 0.67559123 -0.703363478 -0.221019745 0.675596058 -0.703363478 -0.221019745 0.675596058 -0.703363478 -0.221019745 0.675596058 -0.756864429 -0.237831488 0.60876298 -0.756864429 -0.237831488 0.60876298 -0.756864429 -0.237831488 0.60876298 -0.756866395 -0.237832472 0.608760238 -0.756866395 -0.237832472 0.608760238 -0.756866395 -0.237832472 0.608760238 -0.804603457 -0.252833039 0.537297606 -0.804603457 -0.252833039 0.537297606 -0.804603457 -0.252833039 0.537297606 -0.804603457 -0.252833039 0.537297606 -0.804603457 -0.252833039 0.537297606 -0.804603457 -0.252833039 0.537297606 -0.846214831 -0.265908718 0.461749911 -0.846214831 -0.265908718 0.461749911 -0.846214831 -0.265908718 0.461749911 -0.846215844 -0.265909284 0.461747706 -0.846215844 -0.265909284 0.461747706 -0.846215844 -0.265909284 0.461747706 -0.881388009 -0.276961565 0.382684588 -0.881388009 -0.276961565 0.382684588 -0.881388009 -0.276961565 0.382684588 -0.881388009 -0.276961565 0.382684588 -0.881388009 -0.276961565 0.382684588 -0.881388009 -0.276961565 0.382684588 -0.909853518 -0.285906374 0.300706059 -0.909853518 -0.285906374 0.300706059 -0.909853518 -0.285906374 0.300706059 -0.909853518 -0.285906374 0.300706059 -0.909853518 -0.285906374 0.300706059 -0.909853518 -0.285906374 0.300706059 -0.931394637 -0.292675316 0.216437533 -0.931394637 -0.292675316 0.216437533 -0.931394637 -0.292675316 0.216437533 -0.931394637 -0.292675316 0.216437533 -0.931394637 -0.292675316 0.216437533 -0.931394637 -0.292675316 0.216437533 -0.945846319 -0.297216505 0.130526394 -0.945846319 -0.297216505 0.130526394 -0.945846319 -0.297216505 0.130526394 -0.945846021 -0.297216117 0.130529135 -0.945846021 -0.297216117 0.130529135 -0.945846021 -0.297216117 0.130529135 -0.953100085 -0.299495608 0.0436188467 -0.953100085 -0.299495608 0.0436188467 -0.953100085 -0.299495608 0.0436188467 -0.953100145 -0.299495906 0.0436160713 -0.953100145 -0.299495906 0.0436160713 -0.953100145 -0.299495906 0.0436160713 -0.299781144 0.954007983 1.0015176e-06 -0.299781144 0.954007983 1.0015176e-06 -0.299781144 0.954007983 1.0015176e-06 -0.299780488 0.954008222 1.33998719e-06 -0.299780488 0.954008222 1.33998719e-06 -0.299780488 0.954008222 1.33998719e-06 -0.299780488 0.954008222 1.33998719e-06 -0.299780488 0.954008222 1.33998719e-06 -0.299780488 0.954008222 1.33998719e-06 -0.299776286 0.954009533 4.16450348e-06 -0.299776286 0.954009533 4.16450348e-06 -0.299776286 0.954009533 4.16450348e-06 -0.299780011 0.954008341 2.53480584e-06 -0.299780011 0.954008341 2.53480584e-06 -0.299780011 0.954008341 2.53480584e-06 -0.299779922 0.9540084 2.73250816e-06 -0.299779922 0.9540084 2.73250816e-06 -0.299779922 0.9540084 2.73250816e-06 -0.299782246 0.954007685 -1.92655057e-06 -0.299782246 0.954007685 -1.92655057e-06 -0.299782246 0.954007685 -1.92655057e-06 -0.29978326 0.954007328 -5.67847565e-06 -0.29978326 0.954007328 -5.67847565e-06 -0.29978326 0.954007328 -5.67847565e-06 -0.29978016 0.954008281 1.25038605e-06 -0.29978016 0.954008281 1.25038605e-06 -0.29978016 0.954008281 1.25038605e-06 -0.299781263 0.954007983 -9.13809288e-07 -0.299781263 0.954007983 -9.13809288e-07 -0.299781263 0.954007983 -9.13809288e-07 -0.299783498 0.954007268 -2.7545484e-06 -0.299783498 0.954007268 -2.7545484e-06 -0.299783498 0.954007268 -2.7545484e-06 -0.299781293 0.954007983 -9.71407303e-07 -0.299781293 0.954007983 -9.71407303e-07 -0.299781293 0.954007983 -9.71407303e-07 -0.29978019 0.954008281 8.36158961e-07 -0.29978019 0.954008281 8.36158961e-07 -0.29978019 0.954008281 8.36158961e-07 -0.299781352 0.954007924 -9.15763451e-07 -0.299781352 0.954007924 -9.15763451e-07 -0.299781352 0.954007924 -9.15763451e-07 -0.29978171 0.954007804 -6.07168545e-07 -0.29978171 0.954007804 -6.07168545e-07 -0.29978171 0.954007804 -6.07168545e-07 -0.299786538 0.954006314 -4.48489254e-06 -0.299786538 0.954006314 -4.48489254e-06 -0.299786538 0.954006314 -4.48489254e-06 -0.299775451 0.954009771 3.64700236e-06 -0.299775451 0.954009771 3.64700236e-06 -0.299775451 0.954009771 3.64700236e-06 -0.299780995 0.954008043 2.33989203e-06 -0.299780995 0.954008043 2.33989203e-06 -0.299780995 0.954008043 2.33989203e-06 -0.299777061 0.954009295 4.92973459e-06 -0.299777061 0.954009295 4.92973459e-06 -0.299777061 0.954009295 4.92973459e-06 -0.299783617 0.954007208 -3.24817688e-06 -0.299783617 0.954007208 -3.24817688e-06 -0.299783617 0.954007208 -3.24817688e-06 -0.299779773 0.95400846 1.16108072e-06 -0.299779773 0.95400846 1.16108072e-06 -0.299779773 0.95400846 1.16108072e-06 -0.299781889 0.954007745 -6.36488892e-07 -0.299781889 0.954007745 -6.36488892e-07 -0.299781889 0.954007745 -6.36488892e-07 -0.299784541 0.95400691 -2.25112626e-06 -0.299784541 0.95400691 -2.25112626e-06 -0.299784541 0.95400691 -2.25112626e-06 -0.299785107 0.954006732 -2.55136456e-06 -0.299785107 0.954006732 -2.55136456e-06 -0.299785107 0.954006732 -2.55136456e-06 -0.29978177 0.954007804 3.24275732e-07 -0.29978177 0.954007804 3.24275732e-07 -0.29978177 0.954007804 3.24275732e-07 -0.299777567 0.954009116 -1.02416479e-05 -0.299777567 0.954009116 -1.02416479e-05 -0.299777567 0.954009116 -1.02416479e-05 -0.299782842 0.954007447 4.9234859e-06 -0.299782842 0.954007447 4.9234859e-06 -0.299782842 0.954007447 4.9234859e-06 -0.299781144 0.954007983 -1.89531363e-06 -0.299781144 0.954007983 -1.89531363e-06 -0.299781144 0.954007983 -1.89531363e-06 -0.299780756 0.954008102 7.03645401e-06 -0.299780756 0.954008102 7.03645401e-06 -0.299780756 0.954008102 7.03645401e-06 -0.299781501 0.954007864 -1.78324763e-06 -0.299781501 0.954007864 -1.78324763e-06 -0.299781501 0.954007864 -1.78324763e-06 -0.299782157 0.954007685 -4.70826899e-06 -0.299782157 0.954007685 -4.70826899e-06 -0.299782157 0.954007685 -4.70826899e-06 -0.299781412 0.954007924 -1.16699925e-06 -0.299781412 0.954007924 -1.16699925e-06 -0.299781412 0.954007924 -1.16699925e-06 -0.299780101 0.954008341 4.02775322e-06 -0.299780101 0.954008341 4.02775322e-06 -0.299780101 0.954008341 4.02775322e-06 -0.299782485 0.954007566 -3.91836647e-06 -0.299782485 0.954007566 -3.91836647e-06 -0.299782485 0.954007566 -3.91836647e-06 -0.299780756 0.954008102 1.07436199e-06 -0.299780756 0.954008102 1.07436199e-06 -0.299780756 0.954008102 1.07436199e-06 -0.299779564 0.95400852 4.10034136e-06 -0.299779564 0.95400852 4.10034136e-06 -0.299779564 0.95400852 4.10034136e-06 -0.299786329 0.954006374 -1.40868394e-06 -0.299786329 0.954006374 -1.40868394e-06 -0.299786329 0.954006374 -1.40868394e-06 -0.299775749 0.954009712 4.83674967e-08 -0.299775749 0.954009712 4.83674967e-08 -0.299775749 0.954009712 4.83674967e-08 -0.299785495 0.954006612 -8.45643171e-07 -0.299785495 0.954006612 -8.45643171e-07 -0.299785495 0.954006612 -8.45643171e-07 -0.299792916 0.954004288 -1.86732939e-06 -0.299792916 0.954004288 -1.86732939e-06 -0.299792916 0.954004288 -1.86732939e-06 -0.299779445 0.95400852 -4.11145538e-06 -0.299779445 0.95400852 -4.11145538e-06 -0.299779445 0.95400852 -4.11145538e-06 -0.299775124 0.954009891 -1.19857132e-05 -0.299775124 0.954009891 -1.19857132e-05 -0.299775124 0.954009891 -1.19857132e-05 -0.299786299 0.954006374 1.05171348e-05 -0.299786299 0.954006374 1.05171348e-05 -0.299786299 0.954006374 1.05171348e-05 -0.299780756 0.954008102 -1.46230923e-06 -0.299780756 0.954008102 -1.46230923e-06 -0.299780756 0.954008102 -1.46230923e-06 -0.299783468 0.954007268 4.58626573e-06 -0.299783468 0.954007268 4.58626573e-06 -0.299783468 0.954007268 4.58626573e-06 -0.29978317 0.954007387 3.85450721e-06 -0.29978317 0.954007387 3.85450721e-06 -0.29978317 0.954007387 3.85450721e-06 -0.299780488 0.954008222 -2.96139183e-06 -0.299780488 0.954008222 -2.96139183e-06 -0.299780488 0.954008222 -2.96139183e-06 -0.299782604 0.954007566 5.31628939e-06 -0.299782604 0.954007566 5.31628939e-06 -0.299782604 0.954007566 5.31628939e-06 -0.299779564 0.95400852 -9.02168267e-06 -0.299779564 0.95400852 -9.02168267e-06 -0.299779564 0.95400852 -9.02168267e-06 -0.299780905 0.954008102 -2.64102982e-06 -0.299780905 0.954008102 -2.64102982e-06 -0.299780905 0.954008102 -2.64102982e-06 -0.299786329 0.954006374 1.53666406e-05 -0.299786329 0.954006374 1.53666406e-05 -0.299786329 0.954006374 1.53666406e-05 -0.299781203 0.954007983 -4.65829771e-06 -0.299781203 0.954007983 -4.65829771e-06 -0.299781203 0.954007983 -4.65829771e-06 -0.299793154 0.954004228 3.50578084e-05 -0.299793154 0.954004228 3.50578084e-05 -0.299793154 0.954004228 3.50578084e-05 -0.299783468 0.954007268 -2.89948275e-06 -0.299783468 0.954007268 -2.89948275e-06 -0.299783468 0.954007268 -2.89948275e-06 -0.299781263 0.954007983 1.04965443e-06 -0.299781263 0.954007983 1.04965443e-06 -0.299781263 0.954007983 1.04965443e-06 -0.299780905 0.954008102 -1.6717679e-06 -0.299780905 0.954008102 -1.6717679e-06 -0.299780905 0.954008102 -1.6717679e-06 -0.299781144 0.954007983 1.10256269e-06 -0.299781144 0.954007983 1.10256269e-06 -0.299781144 0.954007983 1.10256269e-06 -0.299779177 0.954008639 3.45665825e-07 -0.299779177 0.954008639 3.45665825e-07 -0.299779177 0.954008639 3.45665825e-07 -0.299778342 0.954008877 7.00269197e-07 -0.299778342 0.954008877 7.00269197e-07 -0.299778342 0.954008877 7.00269197e-07 -0.29978323 0.954007328 -1.1584101e-06 -0.29978323 0.954007328 -1.1584101e-06 -0.29978323 0.954007328 -1.1584101e-06 -0.299780548 0.954008162 -2.74513269e-07 -0.299780548 0.954008162 -2.74513269e-07 -0.299780548 0.954008162 -2.74513269e-07 -0.299779415 0.95400852 4.54098164e-08 -0.299779415 0.95400852 4.54098164e-08 -0.299779415 0.95400852 4.54098164e-08 -0.29978314 0.954007387 -8.23135224e-07 -0.29978314 0.954007387 -8.23135224e-07 -0.29978314 0.954007387 -8.23135224e-07 -0.299767464 0.954012275 4.31702529e-06 -0.299767464 0.954012275 4.31702529e-06 -0.299767464 0.954012275 4.31702529e-06 -0.299751699 0.954017282 1.2022163e-05 -0.299751699 0.954017282 1.2022163e-05 -0.299751699 0.954017282 1.2022163e-05 -0.29975453 0.954016387 1.07831656e-05 -0.29975453 0.954016387 1.07831656e-05 -0.29975453 0.954016387 1.07831656e-05 -0.299788386 0.954005718 -2.12778718e-06 -0.299788386 0.954005718 -2.12778718e-06 -0.299788386 0.954005718 -2.12778718e-06 -0.299804121 0.954000771 -7.32933131e-06 -0.299804121 0.954000771 -7.32933131e-06 -0.299804121 0.954000771 -7.32933131e-06 -0.299759239 0.954014897 5.27540578e-06 -0.299759239 0.954014897 5.27540578e-06 -0.299759239 0.954014897 5.27540578e-06 -0.29977861 0.954008818 7.77568914e-07 -0.29977861 0.954008818 7.77568914e-07 -0.29977861 0.954008818 7.77568914e-07 -0.953100026 -0.299495846 -0.0436188467 -0.953100026 -0.299495846 -0.0436188467 -0.953100026 -0.299495846 -0.0436188467 -0.953100204 -0.299495637 -0.0436160713 -0.953100204 -0.299495637 -0.0436160713 -0.953100204 -0.299495637 -0.0436160713 -0.945846558 -0.297216296 -0.130525202 -0.945846558 -0.297216296 -0.130525202 -0.945846558 -0.297216296 -0.130525202 -0.945846081 -0.297216445 -0.130527928 -0.945846081 -0.297216445 -0.130527928 -0.945846081 -0.297216445 -0.130527928 -0.931394637 -0.292675316 -0.216437533 -0.931394637 -0.292675316 -0.216437533 -0.931394637 -0.292675316 -0.216437533 -0.931394637 -0.292675316 -0.216437533 -0.931394637 -0.292675316 -0.216437533 -0.931394637 -0.292675316 -0.216437533 -0.909853518 -0.285906374 -0.300706059 -0.909853518 -0.285906374 -0.300706059 -0.909853518 -0.285906374 -0.300706059 -0.909853518 -0.285906374 -0.300706059 -0.909853518 -0.285906374 -0.300706059 -0.909853518 -0.285906374 -0.300706059 -0.881388009 -0.276961565 -0.382684588 -0.881388009 -0.276961565 -0.382684588 -0.881388009 -0.276961565 -0.382684588 -0.881388009 -0.276961565 -0.382684588 -0.881388009 -0.276961565 -0.382684588 -0.881388009 -0.276961565 -0.382684588 -0.846214771 -0.265908957 -0.461749911 -0.846214771 -0.265908957 -0.461749911 -0.846214771 -0.265908957 -0.461749911 -0.846215963 -0.265909046 -0.461747706 -0.846215963 -0.265909046 -0.461747706 -0.846215963 -0.265909046 -0.461747706 -0.804600894 -0.252832234 -0.537301779 -0.804600894 -0.252832234 -0.537301779 -0.804600894 -0.252832234 -0.537301779 -0.804600894 -0.252832234 -0.537301779 -0.804600894 -0.252832234 -0.537301779 -0.804600894 -0.252832234 -0.537301779 -0.756864309 -0.237831831 -0.60876298 -0.756864309 -0.237831831 -0.60876298 -0.756864309 -0.237831831 -0.60876298 -0.756866455 -0.237832129 -0.608760238 -0.756866455 -0.237832129 -0.608760238 -0.756866455 -0.237832129 -0.608760238 -0.703371763 -0.221022338 -0.675586641 -0.703371763 -0.221022338 -0.675586641 -0.703371763 -0.221022338 -0.675586641 -0.703367352 -0.221021637 -0.675591469 -0.703367352 -0.221021637 -0.675591469 -0.703367352 -0.221021637 -0.675591469 -0.644515514 -0.202528432 -0.73728013 -0.644515514 -0.202528432 -0.73728013 -0.644515514 -0.202528432 -0.73728013 -0.644519925 -0.202529177 -0.737276077 -0.644519925 -0.202529177 -0.737276077 -0.644519925 -0.202529177 -0.737276077 -0.580766916 -0.182495892 -0.793350518 -0.580766916 -0.182495892 -0.793350518 -0.580766916 -0.182495892 -0.793350518 -0.580764771 -0.18249552 -0.793352187 -0.580764771 -0.18249552 -0.793352187 -0.580764771 -0.18249552 -0.793352187 -0.512588501 -0.161072269 -0.84339124 -0.512588501 -0.161072269 -0.84339124 -0.512588501 -0.161072269 -0.84339124 -0.512585223 -0.161071658 -0.843393326 -0.512585223 -0.161071658 -0.843393326 -0.512585223 -0.161071658 -0.843393326 -0.440511197 -0.138423547 -0.88701117 -0.440511197 -0.138423547 -0.88701117 -0.440511197 -0.138423547 -0.88701117 -0.440511197 -0.138423547 -0.88701117 -0.440511197 -0.138423547 -0.88701117 -0.440511197 -0.138423547 -0.88701117 -0.365084022 -0.114721775 -0.923879087 -0.365084022 -0.114721775 -0.923879087 -0.365084022 -0.114721775 -0.923879087 -0.365087122 -0.114722386 -0.923877776 -0.365087122 -0.114722386 -0.923877776 -0.365087122 -0.114722386 -0.923877776 -0.286868423 -0.0901435018 -0.953719378 -0.286868423 -0.0901435018 -0.953719378 -0.286868423 -0.0901435018 -0.953719378 -0.286869228 -0.0901436582 -0.953719139 -0.286869228 -0.0901436582 -0.953719139 -0.286869228 -0.0901436582 -0.953719139 -0.206490681 -0.064886108 -0.976294696 -0.206490681 -0.064886108 -0.976294696 -0.206490681 -0.064886108 -0.976294696 -0.206490114 -0.0648859888 -0.976294875 -0.206490114 -0.0648859888 -0.976294875 -0.206490114 -0.0648859888 -0.976294875 -0.124526352 -0.0391302779 -0.991444409 -0.124526352 -0.0391302779 -0.991444409 -0.124526352 -0.0391302779 -0.991444409 -0.124526352 -0.0391302779 -0.991444409 -0.124526352 -0.0391302779 -0.991444409 -0.124526352 -0.0391302779 -0.991444409 -0.0416063219 -0.0130740758 -0.999048531 -0.0416063219 -0.0130740758 -0.999048531 -0.0416063219 -0.0130740758 -0.999048531 -0.0416060612 -0.0130740218 -0.999048531 -0.0416060612 -0.0130740218 -0.999048531 -0.0416060612 -0.0130740218 -0.999048531 0.0416060612 0.0130740218 -0.999048531 0.0416060612 0.0130740218 -0.999048531 0.0416060612 0.0130740218 -0.999048531 0.0416063219 0.0130740758 -0.999048531 0.0416063219 0.0130740758 -0.999048531 0.0416063219 0.0130740758 -0.999048531 0.124526352 0.0391302779 -0.991444409 0.124526352 0.0391302779 -0.991444409 0.124526352 0.0391302779 -0.991444409 0.124525227 0.039130047 -0.991444528 0.124525227 0.039130047 -0.991444528 0.124525227 0.039130047 -0.991444528 0.206490055 0.0648861751 -0.976294875 0.206490055 0.0648861751 -0.976294875 0.206490055 0.0648861751 -0.976294875 0.206490055 0.0648861751 -0.976294875 0.206490055 0.0648861751 -0.976294875 0.206490055 0.0648861751 -0.976294875 0.286868334 0.0901437551 -0.953719378 0.286868334 0.0901437551 -0.953719378 0.286868334 0.0901437551 -0.953719378 0.286869138 0.090143919 -0.953719139 0.286869138 0.090143919 -0.953719139 0.286869138 0.090143919 -0.953719139 0.365084052 0.114721671 -0.923879087 0.365084052 0.114721671 -0.923879087 0.365084052 0.114721671 -0.923879087 0.365087152 0.114722282 -0.923877776 0.365087152 0.114722282 -0.923877776 0.365087152 0.114722282 -0.923877776 0.440515906 0.138424471 -0.887008667 0.440515906 0.138424471 -0.887008667 0.440515906 0.138424471 -0.887008667 0.440511197 0.138423547 -0.88701117 0.440511197 0.138423547 -0.88701117 0.440511197 0.138423547 -0.88701117 0.512585223 0.161071658 -0.843393326 0.512585223 0.161071658 -0.843393326 0.512585223 0.161071658 -0.843393326 0.512585223 0.161071658 -0.843393326 0.512585223 0.161071658 -0.843393326 0.512585223 0.161071658 -0.843393326 0.580764651 0.182495937 -0.793352187 0.580764651 0.182495937 -0.793352187 0.580764651 0.182495937 -0.793352187 0.580765963 0.182496175 -0.793351114 0.580765963 0.182496175 -0.793351114 0.580765963 0.182496175 -0.793351114 0.644515514 0.202528432 -0.73728013 0.644515514 0.202528432 -0.73728013 0.644515514 0.202528432 -0.73728013 0.644518554 0.202528939 -0.737277329 0.644518554 0.202528939 -0.737277329 0.644518554 0.202528939 -0.737277329 0.703371704 0.221022531 -0.675586641 0.703371704 0.221022531 -0.675586641 0.703371704 0.221022531 -0.675586641 0.703367293 0.221021846 -0.675591469 0.703367293 0.221021846 -0.675591469 0.703367293 0.221021846 -0.675591469 0.756866217 0.237833008 -0.608760238 0.756866217 0.237833008 -0.608760238 0.756866217 0.237833008 -0.608760238 0.756867528 0.237833202 -0.60875845 0.756867528 0.237833202 -0.60875845 0.756867528 0.237833202 -0.60875845 0.804598868 0.252831995 -0.537304938 0.804598868 0.252831995 -0.537304938 0.804598868 0.252831995 -0.537304938 0.804601669 0.252832323 -0.537300646 0.804601669 0.252832323 -0.537300646 0.804601669 0.252832323 -0.537300646 0.846215963 0.265908927 -0.461747706 0.846215963 0.265908927 -0.461747706 0.846215963 0.265908927 -0.461747706 0.846215963 0.265908927 -0.461747706 0.846215963 0.265908927 -0.461747706 0.846215963 0.265908927 -0.461747706 0.881388128 0.276961148 -0.382684588 0.881388128 0.276961148 -0.382684588 0.881388128 0.276961148 -0.382684588 0.881388128 0.276961148 -0.382684588 0.881388128 0.276961148 -0.382684588 0.881388128 0.276961148 -0.382684588 0.909853637 0.285905957 -0.300706059 0.909853637 0.285905957 -0.300706059 0.909853637 0.285905957 -0.300706059 0.909853637 0.285905957 -0.300706059 0.909853637 0.285905957 -0.300706059 0.909853637 0.285905957 -0.300706059 0.931394219 0.29267472 -0.216440186 0.931394219 0.29267472 -0.216440186 0.931394219 0.29267472 -0.216440186 0.931394815 0.292674631 -0.216437533 0.931394815 0.292674631 -0.216437533 0.931394815 0.292674631 -0.216437533 0.945846677 0.297215849 -0.130525202 0.945846677 0.297215849 -0.130525202 0.945846677 0.297215849 -0.130525202 0.945846677 0.297215849 -0.130525202 0.945846677 0.297215849 -0.130525202 0.945846677 0.297215849 -0.130525202 0.953100145 0.299495161 -0.0436204895 0.953100145 0.299495161 -0.0436204895 0.953100145 0.299495161 -0.0436204895 0.953099966 0.299495369 -0.0436232686 0.953099966 0.299495369 -0.0436232686 0.953099966 0.299495369 -0.0436232686 </float_array>
          <technique_common>
            <accessor count="852" offset="0" source="#mesh_0-normals-array" stride="3">
              <param name="X" type="float" />
              <param name="Y" type="float" />
              <param name="Z" type="float" />
            </accessor>
          </technique_common>
        </source>
        <vertices id="mesh_0-vertices">
          <input semantic="POSITION" source="#mesh_0-positions" />
        </vertices>
        <polylist count="284" material="defaultMaterial">
          <input offset="0" semantic="VERTEX" source="#mesh_0-vertices" />
          <input offset="0" semantic="NORMAL" source="#mesh_0-normals" />
          <vcount>3 3 3 3 3 3 3 3 3 3 3 3 3 3 3 3 3 3 3 3 3 3 3 3 3 3 3 3 3 3 3 3 3 3 3 3 3 3 3 3 3 3 3 3 3 3 3 3 3 3 3 3 3 3 3 3 3 3 3 3 3 3 3 3 3 3 3 3 3 3 3 3 3 3 3 3 3 3 3 3 3 3 3 3 3 3 3 3 3 3 3 3 3 3 3 3 3 3 3 3 3 3 3 3 3 3 3 3 3 3 3 3 3 3 3 3 3 3 3 3 3 3 3 3 3 3 3 3 3 3 3 3 3 3 3 3 3 3 3 3 3 3 3 3 3 3 3 3 3 3 3 3 3 3 3 3 3 3 3 3 3 3 3 3 3 3 3 3 3 3 3 3 3 3 3 3 3 3 3 3 3 3 3 3 3 3 3 3 3 3 3 3 3 3 3 3 3 3 3 3 3 3 3 3 3 3 3 3 3 3 3 3 3 3 3 3 3 3 3 3 3 3 3 3 3 3 3 3 3 3 3 3 3 3 3 3 3 3 3 3 3 3 3 3 3 3 3 3 3 3 3 3 3 3 3 3 3 3 3 3 3 3 3 3 3 3 3 3 3 3 3 3 3 3 3 3 3 3 3 3 3 3 3 3 </vcount>
          <p>0 1 2 3 4 5 6 7 8 9 10 11 12 13 14 15 16 17 18 19 20 21 22 23 24 25 26 27 28 29 30 31 32 33 34 35 36 37 38 39 40 41 42 43 44 45 46 47 48 49 50 51 52 53 54 55 56 57 58 59 60 61 62 63 64 65 66 67 68 69 70 71 72 73 74 75 76 77 78 79 80 81 82 83 84 85 86 87 88 89 90 91 92 93 94 95 96 97 98 99 100 101 102 103 104 105 106 107 108 109 110 111 112 113 114 115 116 117 118 119 120 121 122 123 124 125 126 127 128 129 130 131 132 133 134 135 136 137 138 139 140 141 142 143 144 145 146 147 148 149 150 151 152 153 154 155 156 157 158 159 160 161 162 163 164 165 166 167 168 169 170 171 172 173 174 175 176 177 178 179 180 181 182 183 184 185 186 187 188 189 190 191 192 193 194 195 196 197 198 199 200 201 202 203 204 205 206 207 208 209 210 211 212 213 214 215 216 217 218 219 220 221 222 223 224 225 226 227 228 229 230 231 232 233 234 235 236 237 238 239 240 241 242 243 244 245 246 247 248 249 250 251 252 253 254 255 256 257 258 259 260 261 262 263 264 265 266 267 268 269 270 271 272 273 274 275 276 277 278 279 280 281 282 283 284 285 286 287 288 289 290 291 292 293 294 295 296 297 298 299 300 301 302 303 304 305 306 307 308 309 310 311 312 313 314 315 316 317 318 319 320 321 322 323 324 325 326 327 328 329 330 331 332 333 334 335 336 337 338 339 340 341 342 343 344 345 346 347 348 349 350 351 352 353 354 355 356 357 358 359 360 361 362 363 364 365 366 367 368 369 370 371 372 373 374 375 376 377 378 379 380 381 382 383 384 385 386 387 388 389 390 391 392 393 394 395 396 397 398 399 400 401 402 403 404 405 406 407 408 409 410 411 412 413 414 415 416 417 418 419 420 421 422 423 424 425 426 427 428 429 430 431 432 433 434 435 436 437 438 439 440 441 442 443 444 445 446 447 448 449 450 451 452 453 454 455 456 457 458 459 460 461 462 463 464 465 466 467 468 469 470 471 472 473 474 475 476 477 478 479 480 481 482 483 484 485 486 487 488 489 490 491 492 493 494 495 496 497 498 499 500 501 502 503 504 505 506 507 508 509 510 511 512 513 514 515 516 517 518 519 520 521 522 523 524 525 526 527 528 529 530 531 532 533 534 535 536 537 538 539 540 541 542 543 544 545 546 547 548 549 550 551 552 553 554 555 556 557 558 559 560 561 562 563 564 565 566 567 568 569 570 571 572 573 574 575 576 577 578 579 580 581 582 583 584 585 586 587 588 589 590 591 592 593 594 595 596 597 598 599 600 601 602 603 604 605 606 607 608 609 610 611 612 613 614 615 616 617 618 619 620 621 622 623 624 625 626 627 628 629 630 631 632 633 634 635 636 637 638 639 640 641 642 643 644 645 646 647 648 649 650 651 652 653 654 655 656 657 658 659 660 661 662 663 664 665 666 667 668 669 670 671 672 673 674 675 676 677 678 679 680 681 682 683 684 685 686 687 688 689 690 691 692 693 694 695 696 697 698 699 700 701 702 703 704 705 706 707 708 709 710 711 712 713 714 715 716 717 718 719 720 721 722 723 724 725 726 727 728 729 730 731 732 733 734 735 736 737 738 739 740 741 742 743 744 745 746 747 748 749 750 751 752 753 754 755 756 757 758 759 760 761 762 763 764 765 766 767 768 769 770 771 772 773 774 775 776 777 778 779 780 781 782 783 784 785 786 787 788 789 790 791 792 793 794 795 796 797 798 799 800 801 802 803 804 805 806 807 808 809 810 811 812 813 814 815 816 817 818 819 820 821 822 823 824 825 826 827 828 829 830 831 832 833 834 835 836 837 838 839 840 841 842 843 844 845 846 847 848 849 850 851 </p>
        </polylist>
      </mesh>
    </geometry>
  </library_geometries>
  <library_controllers>
  </library_controllers>
  <library_visual_scenes>
    <visual_scene id="_ySTL_BINARY_" name="&lt;STL_BINARY&gt;">
      <node id="node" name="" type="NODE">
        <matrix sid="matrix">1 0 0 0 0 1 0 0 0 0 1 0 0 0 0 1</matrix>
        <instance_geometry url="#mesh_0">
          <bind_material>
            <technique_common>
              <instance_material symbol="defaultMaterial" target="#DefaultMaterial">
              </instance_material>
            </technique_common>
          </bind_material>
        </instance_geometry>
      </node>
    </visual_scene>
  </library_visual_scenes>
  <scene>
    <instance_visual_scene url="#_ySTL_BINARY_" />
  </scene>
</COLLADA>
