<?xml version="1.0" encoding="UTF-8" standalone="no" ?>
<COLLADA xmlns="http://www.collada.org/2005/11/COLLADASchema" version="1.4.1">
  <asset>
    <contributor>
      <author>Assimp</author>
      <authoring_tool>Assimp Exporter</authoring_tool>
    </contributor>
    <created>2025-12-07T16:35:04</created>
    <modified>2025-12-07T16:35:04</modified>
    <unit name="meter" meter="1" />
    <up_axis>Y_UP</up_axis>
  </asset>
  <library_images>
  </library_images>
  <library_effects>
    <effect id="DefaultMaterial-fx" name="DefaultMaterial">
      <profile_COMMON>
        <technique sid="standard">
          <phong>
            <ambient>
              <color sid="ambient">0.0500000007   0.0500000007   0.0500000007   1</color>
            </ambient>
            <diffuse>
              <color sid="diffuse">1   1   1   1</color>
            </diffuse>
            <specular>
              <color sid="specular">1   1   1   1</color>
            </specular>
          </phong>
        </technique>
      </profile_COMMON>
    </effect>
  </library_effects>
  <library_materials>
    <material id="DefaultMaterial" name="DefaultMaterial">
      <instance_effect url="#DefaultMaterial-fx"/>
    </material>
  </library_materials>
  <library_geometries>
    <geometry id="mesh_0" name="" >
      <mesh>
        <source id="mesh_0-positions" name="mesh_0-positions">
          <float_array id="mesh_0-positions-array" count="1404"> 0.0206000004 0.00155000004 0.0390000008 0.0206000004 0.00190000003 0.0390000008 0.0186000001 0.00270000007 0.0390000008 0.0205727406 0.00210705516 0.0390000008 0.0205517542 0.00217361609 0.0390000008 0.0197999999 0.00270000007 0.0390000008 0.0205727406 0.00210705516 0.0390000008 0.0197999999 0.00270000007 0.0390000008 0.0205878466 0.00203891844 0.0390000008 0.0205517542 0.00217361609 0.0390000008 0.0205250457 0.00223809457 0.0390000008 0.0197999999 0.00270000007 0.0390000008 0.0205250457 0.00223809457 0.0390000008 0.0204928201 0.00230000005 0.0390000008 0.0197999999 0.00270000007 0.0390000008 0.0197999999 0.00270000007 0.0390000008 0.0204928201 0.00230000005 0.0390000008 0.0204553213 0.00235886103 0.0390000008 0.0204553213 0.00109113881 0.0390000008 0.0204928201 0.00115000003 0.0390000008 0.0197999999 0.000750000007 0.0390000008 0.0204928201 0.00115000003 0.0390000008 0.0205250457 0.00121190539 0.0390000008 0.0197999999 0.000750000007 0.0390000008 0.0199389178 0.000762153824 0.0390000008 0.0200070553 0.000777259353 0.0390000008 0.0202588607 0.000894678349 0.0390000008 0.0203142297 0.00093716447 0.0390000008 0.0203656852 0.000984314596 0.0390000008 0.0197999999 0.000750000007 0.0390000008 0.0203656852 0.000984314596 0.0390000008 0.0204128362 0.00103576994 0.0390000008 0.0197999999 0.000750000007 0.0390000008 0.0197999999 0.000750000007 0.0390000008 0.0204128362 0.00103576994 0.0390000008 0.0204553213 0.00109113881 0.0390000008 0.0205250457 0.00121190539 0.0390000008 0.0205517542 0.00127638387 0.0390000008 0.0197999999 0.000750000007 0.0390000008 0.0205517542 0.00127638387 0.0390000008 0.0205727406 0.0013429448 0.0390000008 0.0197999999 0.000750000007 0.0390000008 0.0197999999 0.000750000007 0.0390000008 0.0205727406 0.0013429448 0.0390000008 0.0205878466 0.00141108141 0.0390000008 0.0186000001 0.00270000007 0.0390000008 0.0206000004 0.00190000003 0.0390000008 0.0197999999 0.00270000007 0.0390000008 0.0206000004 0.00190000003 0.0390000008 0.020596955 0.00196972466 0.0390000008 0.0197999999 0.00270000007 0.0390000008 0.0197999999 0.00270000007 0.0390000008 0.020596955 0.00196972466 0.0390000008 0.0205878466 0.00203891844 0.0390000008 0.0204553213 0.00235886103 0.0390000008 0.0204128362 0.00241423002 0.0390000008 0.0197999999 0.00270000007 0.0390000008 0.0204128362 0.00241423002 0.0390000008 0.0203656852 0.00246568536 0.0390000008 0.0197999999 0.00270000007 0.0390000008 0.0197999999 0.00270000007 0.0390000008 0.0203656852 0.00246568536 0.0390000008 0.0203142297 0.00251283566 0.0390000008 0.0203142297 0.00251283566 0.0390000008 0.0202588607 0.00255532167 0.0390000008 0.0197999999 0.00270000007 0.0390000008 0.0202588607 0.00255532167 0.0390000008 0.0201999992 0.00259282021 0.0390000008 0.0197999999 0.00270000007 0.0390000008 0.0197999999 0.00270000007 0.0390000008 0.0201999992 0.00259282021 0.0390000008 0.0201380942 0.0026250463 0.0390000008 0.0186000001 0.00270000007 0.0390000008 0.0186000001 0.000750000007 0.0390000008 0.0206000004 0.00155000004 0.0390000008 0.0186000001 0.000750000007 0.0390000008 0.0197999999 0.000750000007 0.0390000008 0.0206000004 0.00155000004 0.0390000008 0.0206000004 0.00155000004 0.0390000008 0.0197999999 0.000750000007 0.0390000008 0.020596955 0.00148027542 0.0390000008 0.0197999999 0.000750000007 0.0390000008 0.0205878466 0.00141108141 0.0390000008 0.020596955 0.00148027542 0.0390000008 0.0201380942 0.0026250463 0.0390000008 0.0200736169 0.00265175407 0.0390000008 0.0197999999 0.00270000007 0.0390000008 0.0200736169 0.00265175407 0.0390000008 0.0200070553 0.00267274072 0.0390000008 0.0197999999 0.00270000007 0.0390000008 0.0197999999 0.00270000007 0.0390000008 0.0200070553 0.00267274072 0.0390000008 0.0198697243 0.00269695581 0.0390000008 0.0200070553 0.00267274072 0.0390000008 0.0199389178 0.00268784631 0.0390000008 0.0198697243 0.00269695581 0.0390000008 0.0203142297 0.00093716447 0.0390000008 0.0197999999 0.000750000007 0.0390000008 0.0202588607 0.000894678349 0.0390000008 0.0197999999 0.000750000007 0.0390000008 0.0198697243 0.000753044267 0.0390000008 0.0202588607 0.000894678349 0.0390000008 0.0202588607 0.000894678349 0.0390000008 0.0198697243 0.000753044267 0.0390000008 0.0199389178 0.000762153824 0.0390000008 0.0200070553 0.000777259353 0.0390000008 0.0200736169 0.000798245892 0.0390000008 0.0202588607 0.000894678349 0.0390000008 0.0200736169 0.000798245892 0.0390000008 0.0201380942 0.000824953779 0.0390000008 0.0202588607 0.000894678349 0.0390000008 0.0202588607 0.000894678349 0.0390000008 0.0201380942 0.000824953779 0.0390000008 0.0201999992 0.000857179693 0.0390000008 0.0197999999 0.00270000007 0.0390000008 0.0197999999 0.00270000007 0.0379999988 0.0186000001 0.00270000007 0.0390000008 0.0197999999 0.00270000007 0.0379999988 0.0186000001 0.00270000007 0.0379999988 0.0186000001 0.00270000007 0.0390000008 0.0186000001 0.00270000007 0.0379999988 0.0186000001 0.000750000007 0.0379999988 0.0186000001 0.00270000007 0.0390000008 0.0186000001 0.000750000007 0.0379999988 0.0186000001 0.000750000007 0.0390000008 0.0186000001 0.00270000007 0.0390000008 0.0204128362 0.00241423002 0.0379999988 0.0204553213 0.00235886103 0.0379999988 0.0197999999 0.00270000007 0.0379999988 0.0204553213 0.00235886103 0.0379999988 0.0204928201 0.00230000005 0.0379999988 0.0197999999 0.00270000007 0.0379999988 0.0197999999 0.00270000007 0.0379999988 0.0204928201 0.00230000005 0.0379999988 0.0205250457 0.00223809457 0.0379999988 0.0205250457 0.00223809457 0.0379999988 0.0205517542 0.00217361609 0.0379999988 0.0197999999 0.00270000007 0.0379999988 0.0205517542 0.00217361609 0.0379999988 0.0205727406 0.00210705516 0.0379999988 0.0197999999 0.00270000007 0.0379999988 0.0197999999 0.00270000007 0.0379999988 0.0205727406 0.00210705516 0.0379999988 0.0205878466 0.00203891844 0.0379999988 0.0205878466 0.00141108141 0.0379999988 0.0205727406 0.0013429448 0.0379999988 0.0197999999 0.000750000007 0.0379999988 0.0205727406 0.0013429448 0.0379999988 0.0205517542 0.00127638387 0.0379999988 0.0197999999 0.000750000007 0.0379999988 0.0205517542 0.00127638387 0.0379999988 0.0205250457 0.00121190539 0.0379999988 0.0197999999 0.000750000007 0.0379999988 0.0197999999 0.000750000007 0.0379999988 0.0205250457 0.00121190539 0.0379999988 0.0204928201 0.00115000003 0.0379999988 0.0202588607 0.00255532167 0.0379999988 0.0203142297 0.00251283566 0.0379999988 0.0197999999 0.00270000007 0.0379999988 0.0203142297 0.00251283566 0.0379999988 0.0203656852 0.00246568536 0.0379999988 0.0197999999 0.00270000007 0.0379999988 0.0197999999 0.00270000007 0.0379999988 0.0203656852 0.00246568536 0.0379999988 0.0204128362 0.00241423002 0.0379999988 0.0205878466 0.00203891844 0.0379999988 0.020596955 0.00196972466 0.0379999988 0.0197999999 0.00270000007 0.0379999988 0.020596955 0.00196972466 0.0379999988 0.0206000004 0.00190000003 0.0379999988 0.0197999999 0.00270000007 0.0379999988 0.0197999999 0.00270000007 0.0379999988 0.0206000004 0.00190000003 0.0379999988 0.0186000001 0.00270000007 0.0379999988 0.0204928201 0.00115000003 0.0379999988 0.0204553213 0.00109113881 0.0379999988 0.0197999999 0.000750000007 0.0379999988 0.0204553213 0.00109113881 0.0379999988 0.0204128362 0.00103576994 0.0379999988 0.0197999999 0.000750000007 0.0379999988 0.0197999999 0.000750000007 0.0379999988 0.0204128362 0.00103576994 0.0379999988 0.0203656852 0.000984314596 0.0379999988 0.0198697243 0.00269695581 0.0379999988 0.0199389178 0.00268784631 0.0379999988 0.0200070553 0.00267274072 0.0379999988 0.0186000001 0.00270000007 0.0379999988 0.0206000004 0.00190000003 0.0379999988 0.0186000001 0.000750000007 0.0379999988 0.0206000004 0.00190000003 0.0379999988 0.0206000004 0.00155000004 0.0379999988 0.0186000001 0.000750000007 0.0379999988 0.0186000001 0.000750000007 0.0379999988 0.0206000004 0.00155000004 0.0379999988 0.0197999999 0.000750000007 0.0379999988 0.0206000004 0.00155000004 0.0379999988 0.020596955 0.00148027542 0.0379999988 0.0197999999 0.000750000007 0.0379999988 0.0197999999 0.000750000007 0.0379999988 0.020596955 0.00148027542 0.0379999988 0.0205878466 0.00141108141 0.0379999988 0.0202588607 0.000894678349 0.0379999988 0.0201999992 0.000857179693 0.0379999988 0.0201380942 0.000824953779 0.0379999988 0.0200070553 0.00267274072 0.0379999988 0.0200736169 0.00265175407 0.0379999988 0.0198697243 0.00269695581 0.0379999988 0.0200736169 0.00265175407 0.0379999988 0.0201380942 0.0026250463 0.0379999988 0.0198697243 0.00269695581 0.0379999988 0.0198697243 0.00269695581 0.0379999988 0.0201380942 0.0026250463 0.0379999988 0.0197999999 0.00270000007 0.0379999988 0.0201380942 0.0026250463 0.0379999988 0.0201999992 0.00259282021 0.0379999988 0.0197999999 0.00270000007 0.0379999988 0.0197999999 0.00270000007 0.0379999988 0.0201999992 0.00259282021 0.0379999988 0.0202588607 0.00255532167 0.0379999988 0.0201380942 0.000824953779 0.0379999988 0.0200736169 0.000798245892 0.0379999988 0.0202588607 0.000894678349 0.0379999988 0.0200736169 0.000798245892 0.0379999988 0.0200070553 0.000777259353 0.0379999988 0.0202588607 0.000894678349 0.0379999988 0.0202588607 0.000894678349 0.0379999988 0.0200070553 0.000777259353 0.0379999988 0.0199389178 0.000762153824 0.0379999988 0.0203656852 0.000984314596 0.0379999988 0.0203142297 0.00093716447 0.0379999988 0.0197999999 0.000750000007 0.0379999988 0.0203142297 0.00093716447 0.0379999988 0.0202588607 0.000894678349 0.0379999988 0.0197999999 0.000750000007 0.0379999988 0.0197999999 0.000750000007 0.0379999988 0.0202588607 0.000894678349 0.0379999988 0.0198697243 0.000753044267 0.0379999988 0.0202588607 0.000894678349 0.0379999988 0.0199389178 0.000762153824 0.0379999988 0.0198697243 0.000753044267 0.0379999988 0.0197999999 0.000750000007 0.0379999988 0.0197999999 0.000750000007 0.0390000008 0.0186000001 0.000750000007 0.0379999988 0.0197999999 0.000750000007 0.0390000008 0.0186000001 0.000750000007 0.0390000008 0.0186000001 0.000750000007 0.0379999988 0.0197999999 0.000750000007 0.0390000008 0.0197999999 0.000750000007 0.0379999988 0.0198697243 0.000753044267 0.0379999988 0.0197999999 0.000750000007 0.0390000008 0.0198697243 0.000753044267 0.0379999988 0.0198697243 0.000753044267 0.0390000008 0.0198697243 0.000753044267 0.0379999988 0.0199389178 0.000762153824 0.0379999988 0.0198697243 0.000753044267 0.0390000008 0.0198697243 0.000753044267 0.0390000008 0.0199389178 0.000762153824 0.0379999988 0.0199389178 0.000762153824 0.0390000008 0.0199389178 0.000762153824 0.0379999988 0.0200070553 0.000777259353 0.0379999988 0.0199389178 0.000762153824 0.0390000008 0.0199389178 0.000762153824 0.0390000008 0.0200070553 0.000777259353 0.0379999988 0.0200070553 0.000777259353 0.0390000008 0.0200070553 0.000777259353 0.0379999988 0.0200736169 0.000798245892 0.0379999988 0.0200070553 0.000777259353 0.0390000008 0.0200070553 0.000777259353 0.0390000008 0.0200736169 0.000798245892 0.0379999988 0.0200736169 0.000798245892 0.0390000008 0.0200736169 0.000798245892 0.0379999988 0.0201380942 0.000824953779 0.0379999988 0.0200736169 0.000798245892 0.0390000008 0.0200736169 0.000798245892 0.0390000008 0.0201380942 0.000824953779 0.0379999988 0.0201380942 0.000824953779 0.0390000008 0.0201380942 0.000824953779 0.0379999988 0.0201999992 0.000857179693 0.0379999988 0.0201380942 0.000824953779 0.0390000008 0.0201380942 0.000824953779 0.0390000008 0.0201999992 0.000857179693 0.0379999988 0.0201999992 0.000857179693 0.0390000008 0.0201999992 0.000857179693 0.0379999988 0.0202588607 0.000894678349 0.0379999988 0.0201999992 0.000857179693 0.0390000008 0.0201999992 0.000857179693 0.0390000008 0.0202588607 0.000894678349 0.0379999988 0.0202588607 0.000894678349 0.0390000008 0.0202588607 0.000894678349 0.0379999988 0.0203142297 0.00093716447 0.0379999988 0.0202588607 0.000894678349 0.0390000008 0.0202588607 0.000894678349 0.0390000008 0.0203142297 0.00093716447 0.0379999988 0.0203142297 0.00093716447 0.0390000008 0.0203142297 0.00093716447 0.0379999988 0.0203656852 0.000984314596 0.0379999988 0.0203142297 0.00093716447 0.0390000008 0.0203142297 0.00093716447 0.0390000008 0.0203656852 0.000984314596 0.0379999988 0.0203656852 0.000984314596 0.0390000008 0.0203656852 0.000984314596 0.0379999988 0.0204128362 0.00103576994 0.0379999988 0.0203656852 0.000984314596 0.0390000008 0.0203656852 0.000984314596 0.0390000008 0.0204128362 0.00103576994 0.0379999988 0.0204128362 0.00103576994 0.0390000008 0.0204128362 0.00103576994 0.0379999988 0.0204553213 0.00109113881 0.0379999988 0.0204128362 0.00103576994 0.0390000008 0.0204128362 0.00103576994 0.0390000008 0.0204553213 0.00109113881 0.0379999988 0.0204553213 0.00109113881 0.0390000008 0.0204553213 0.00109113881 0.0379999988 0.0204928201 0.00115000003 0.0379999988 0.0204553213 0.00109113881 0.0390000008 0.0204553213 0.00109113881 0.0390000008 0.0204928201 0.00115000003 0.0379999988 0.0204928201 0.00115000003 0.0390000008 0.0204928201 0.00115000003 0.0379999988 0.0205250457 0.00121190539 0.0379999988 0.0204928201 0.00115000003 0.0390000008 0.0204928201 0.00115000003 0.0390000008 0.0205250457 0.00121190539 0.0379999988 0.0205250457 0.00121190539 0.0390000008 0.0205250457 0.00121190539 0.0379999988 0.0205517542 0.00127638387 0.0379999988 0.0205250457 0.00121190539 0.0390000008 0.0205250457 0.00121190539 0.0390000008 0.0205517542 0.00127638387 0.0379999988 0.0205517542 0.00127638387 0.0390000008 0.0205517542 0.00127638387 0.0379999988 0.0205727406 0.0013429448 0.0379999988 0.0205517542 0.00127638387 0.0390000008 0.0205517542 0.00127638387 0.0390000008 0.0205727406 0.0013429448 0.0379999988 0.0205727406 0.0013429448 0.0390000008 0.0205727406 0.0013429448 0.0379999988 0.0205878466 0.00141108141 0.0379999988 0.0205727406 0.0013429448 0.0390000008 0.0205727406 0.0013429448 0.0390000008 0.0205878466 0.00141108141 0.0379999988 0.0205878466 0.00141108141 0.0390000008 0.0205878466 0.00141108141 0.0379999988 0.020596955 0.00148027542 0.0379999988 0.0205878466 0.00141108141 0.0390000008 0.0205878466 0.00141108141 0.0390000008 0.020596955 0.00148027542 0.0379999988 0.020596955 0.00148027542 0.0390000008 0.020596955 0.00148027542 0.0379999988 0.0206000004 0.00155000004 0.0379999988 0.020596955 0.00148027542 0.0390000008 0.020596955 0.00148027542 0.0390000008 0.0206000004 0.00155000004 0.0379999988 0.0206000004 0.00155000004 0.0390000008 0.0206000004 0.00190000003 0.0379999988 0.0206000004 0.00190000003 0.0390000008 0.0206000004 0.00155000004 0.0379999988 0.0206000004 0.00190000003 0.0390000008 0.0206000004 0.00155000004 0.0390000008 0.0206000004 0.00155000004 0.0379999988 0.0206000004 0.00190000003 0.0390000008 0.0206000004 0.00190000003 0.0379999988 0.020596955 0.00196972466 0.0379999988 0.0206000004 0.00190000003 0.0390000008 0.020596955 0.00196972466 0.0379999988 0.020596955 0.00196972466 0.0390000008 0.020596955 0.00196972466 0.0379999988 0.0205878466 0.00203891844 0.0379999988 0.020596955 0.00196972466 0.0390000008 0.020596955 0.00196972466 0.0390000008 0.0205878466 0.00203891844 0.0379999988 0.0205878466 0.00203891844 0.0390000008 0.0205878466 0.00203891844 0.0379999988 0.0205727406 0.00210705516 0.0379999988 0.0205878466 0.00203891844 0.0390000008 0.0205878466 0.00203891844 0.0390000008 0.0205727406 0.00210705516 0.0379999988 0.0205727406 0.00210705516 0.0390000008 0.0205727406 0.00210705516 0.0379999988 0.0205517542 0.00217361609 0.0379999988 0.0205727406 0.00210705516 0.0390000008 0.0205727406 0.00210705516 0.0390000008 0.0205517542 0.00217361609 0.0379999988 0.0205517542 0.00217361609 0.0390000008 0.0205517542 0.00217361609 0.0379999988 0.0205250457 0.00223809457 0.0379999988 0.0205517542 0.00217361609 0.0390000008 0.0205517542 0.00217361609 0.0390000008 0.0205250457 0.00223809457 0.0379999988 0.0205250457 0.00223809457 0.0390000008 0.0205250457 0.00223809457 0.0379999988 0.0204928201 0.00230000005 0.0379999988 0.0205250457 0.00223809457 0.0390000008 0.0205250457 0.00223809457 0.0390000008 0.0204928201 0.00230000005 0.0379999988 0.0204928201 0.00230000005 0.0390000008 0.0204928201 0.00230000005 0.0379999988 0.0204553213 0.00235886103 0.0379999988 0.0204928201 0.00230000005 0.0390000008 0.0204928201 0.00230000005 0.0390000008 0.0204553213 0.00235886103 0.0379999988 0.0204553213 0.00235886103 0.0390000008 0.0204553213 0.00235886103 0.0379999988 0.0204128362 0.00241423002 0.0379999988 0.0204553213 0.00235886103 0.0390000008 0.0204553213 0.00235886103 0.0390000008 0.0204128362 0.00241423002 0.0379999988 0.0204128362 0.00241423002 0.0390000008 0.0204128362 0.00241423002 0.0379999988 0.0203656852 0.00246568536 0.0379999988 0.0204128362 0.00241423002 0.0390000008 0.0204128362 0.00241423002 0.0390000008 0.0203656852 0.00246568536 0.0379999988 0.0203656852 0.00246568536 0.0390000008 0.0203656852 0.00246568536 0.0379999988 0.0203142297 0.00251283566 0.0379999988 0.0203656852 0.00246568536 0.0390000008 0.0203656852 0.00246568536 0.0390000008 0.0203142297 0.00251283566 0.0379999988 0.0203142297 0.00251283566 0.0390000008 0.0203142297 0.00251283566 0.0379999988 0.0202588607 0.00255532167 0.0379999988 0.0203142297 0.00251283566 0.0390000008 0.0203142297 0.00251283566 0.0390000008 0.0202588607 0.00255532167 0.0379999988 0.0202588607 0.00255532167 0.0390000008 0.0202588607 0.00255532167 0.0379999988 0.0201999992 0.00259282021 0.0379999988 0.0202588607 0.00255532167 0.0390000008 0.0202588607 0.00255532167 0.0390000008 0.0201999992 0.00259282021 0.0379999988 0.0201999992 0.00259282021 0.0390000008 0.0201999992 0.00259282021 0.0379999988 0.0201380942 0.0026250463 0.0379999988 0.0201999992 0.00259282021 0.0390000008 0.0201999992 0.00259282021 0.0390000008 0.0201380942 0.0026250463 0.0379999988 0.0201380942 0.0026250463 0.0390000008 0.0201380942 0.0026250463 0.0379999988 0.0200736169 0.00265175407 0.0379999988 0.0201380942 0.0026250463 0.0390000008 0.0201380942 0.0026250463 0.0390000008 0.0200736169 0.00265175407 0.0379999988 0.0200736169 0.00265175407 0.0390000008 0.0200736169 0.00265175407 0.0379999988 0.0200070553 0.00267274072 0.0379999988 0.0200736169 0.00265175407 0.0390000008 0.0200736169 0.00265175407 0.0390000008 0.0200070553 0.00267274072 0.0379999988 0.0200070553 0.00267274072 0.0390000008 0.0200070553 0.00267274072 0.0379999988 0.0199389178 0.00268784631 0.0379999988 0.0200070553 0.00267274072 0.0390000008 0.0200070553 0.00267274072 0.0390000008 0.0199389178 0.00268784631 0.0379999988 0.0199389178 0.00268784631 0.0390000008 0.0199389178 0.00268784631 0.0379999988 0.0198697243 0.00269695581 0.0379999988 0.0199389178 0.00268784631 0.0390000008 0.0199389178 0.00268784631 0.0390000008 0.0198697243 0.00269695581 0.0379999988 0.0198697243 0.00269695581 0.0390000008 0.0198697243 0.00269695581 0.0379999988 0.0197999999 0.00270000007 0.0379999988 0.0198697243 0.00269695581 0.0390000008 0.0198697243 0.00269695581 0.0390000008 0.0197999999 0.00270000007 0.0379999988 0.0197999999 0.00270000007 0.0390000008 </float_array>
          <technique_common>
            <accessor count="468" offset="0" source="#mesh_0-positions-array" stride="3">
              <param name="X" type="float" />
              <param name="Y" type="float" />
              <param name="Z" type="float" />
            </accessor>
          </technique_common>
        </source>
        <source id="mesh_0-normals" name="mesh_0-normals">
          <float_array id="mesh_0-normals-array" count="1404"> 0 -0 1 0 -0 1 0 -0 1 0 0 1 0 0 1 0 0 1 0 0 1 0 0 1 0 0 1 0 0 1 0 0 1 0 0 1 -0 -0 1 -0 -0 1 -0 -0 1 0 0 1 0 0 1 0 0 1 0 -0 1 0 -0 1 0 -0 1 0 -0 1 0 -0 1 0 -0 1 0 0 1 0 0 1 0 0 1 0 -0 1 0 -0 1 0 -0 1 0 -0 1 0 -0 1 0 -0 1 0 0 1 0 0 1 0 0 1 0 -0 1 0 -0 1 0 -0 1 0 -0 1 0 -0 1 0 -0 1 0 0 1 0 0 1 0 0 1 -0 0 1 -0 0 1 -0 0 1 -0 -0 1 -0 -0 1 -0 -0 1 0 0 1 0 0 1 0 0 1 0 0 1 0 0 1 0 0 1 -0 -0 1 -0 -0 1 -0 -0 1 0 0 1 0 0 1 0 0 1 0 0 1 0 0 1 0 0 1 -0 -0 1 -0 -0 1 -0 -0 1 0 0 1 0 0 1 0 0 1 0 0 1 0 0 1 0 0 1 -0 -0 1 -0 -0 1 -0 -0 1 0 0 1 0 0 1 0 0 1 -0 -0 1 -0 -0 1 -0 -0 1 0 0 1 0 0 1 0 0 1 -0 -0 1 -0 -0 1 -0 -0 1 0 0 1 0 0 1 0 0 1 -0 -0 1 -0 -0 1 -0 -0 1 0 0 1 0 0 1 0 0 1 -0 -0 1 -0 -0 1 -0 -0 1 0 0 1 0 0 1 0 0 1 0 0 1 0 0 1 0 0 1 -0 -0 1 -0 -0 1 -0 -0 1 0 0 1 0 0 1 0 0 1 0 1 0 0 1 0 0 1 0 -0 1 -0 -0 1 -0 -0 1 -0 -1 0 0 -1 0 0 -1 0 0 -1 -0 -0 -1 -0 -0 -1 -0 -0 -0 -0 -1 -0 -0 -1 -0 -0 -1 -0 -0 -1 -0 -0 -1 -0 -0 -1 0 0 -1 0 0 -1 0 0 -1 -0 -0 -1 -0 -0 -1 -0 -0 -1 -0 -0 -1 -0 -0 -1 -0 -0 -1 0 0 -1 0 0 -1 0 0 -1 0 0 -1 0 0 -1 0 0 -1 0 0 -1 0 0 -1 0 0 -1 -0 -0 -1 -0 -0 -1 -0 -0 -1 0 0 -1 0 0 -1 0 0 -1 -0 -0 -1 -0 -0 -1 -0 -0 -1 -0 -0 -1 -0 -0 -1 -0 -0 -1 0 0 -1 0 0 -1 0 0 -1 -0 -0 -1 -0 -0 -1 -0 -0 -1 -0 -0 -1 -0 -0 -1 -0 -0 -1 -0 -0 -1 -0 -0 -1 -0 -0 -1 0 0 -1 0 0 -1 0 0 -1 -0 -0 -1 -0 -0 -1 -0 -0 -1 0 0 -1 0 0 -1 0 0 -1 0 0 -1 0 0 -1 0 0 -1 0 0 -1 0 0 -1 0 0 -1 -0 -0 -1 -0 -0 -1 -0 -0 -1 0 0 -1 0 0 -1 0 0 -1 -0 -0 -1 -0 -0 -1 -0 -0 -1 0 0 -1 0 0 -1 0 0 -1 0 0 -1 0 0 -1 0 0 -1 -0 -0 -1 -0 -0 -1 -0 -0 -1 -0 -0 -1 -0 -0 -1 -0 -0 -1 -0 -0 -1 -0 -0 -1 -0 -0 -1 -0 -0 -1 -0 -0 -1 -0 -0 -1 0 0 -1 0 0 -1 0 0 -1 -0 0 -1 -0 0 -1 -0 0 -1 -0 0 -1 -0 0 -1 -0 0 -1 0 0 -1 0 0 -1 0 0 -1 0 0 -1 0 0 -1 0 0 -1 -0 -0 -1 -0 -0 -1 -0 -0 -1 0 0 -1 0 0 -1 0 0 -1 -0 -0 -1 -0 -0 -1 -0 -0 -1 0 -1 0 0 -1 0 0 -1 0 -0 -1 -0 -0 -1 -0 -0 -1 -0 0.0436197855 -0.999048233 0 0.0436197855 -0.999048233 0 0.0436197855 -0.999048233 0 0.0436197855 -0.999048233 0 0.0436197855 -0.999048233 0 0.0436197855 -0.999048233 0 0.13052696 -0.991444767 -0 0.13052696 -0.991444767 -0 0.13052696 -0.991444767 -0 0.13052696 -0.991444767 0 0.13052696 -0.991444767 0 0.13052696 -0.991444767 0 0.216437235 -0.976296544 -0 0.216437235 -0.976296544 -0 0.216437235 -0.976296544 -0 0.216437235 -0.976296544 0 0.216437235 -0.976296544 0 0.216437235 -0.976296544 0 0.300702393 -0.953718007 -0 0.300702393 -0.953718007 -0 0.300702393 -0.953718007 -0 0.300702393 -0.953718007 0 0.300702393 -0.953718007 0 0.300702393 -0.953718007 0 0.382689595 -0.923877001 -0 0.382689595 -0.923877001 -0 0.382689595 -0.923877001 -0 0.382689595 -0.923877001 0 0.382689595 -0.923877001 0 0.382689595 -0.923877001 0 0.461750925 -0.887009621 -0 0.461750925 -0.887009621 -0 0.461750925 -0.887009621 -0 0.461750925 -0.887009621 0 0.461750925 -0.887009621 0 0.461750925 -0.887009621 0 0.537297308 -0.843392909 -0 0.537297308 -0.843392909 -0 0.537297308 -0.843392909 -0 0.537297308 -0.843392909 0 0.537297308 -0.843392909 0 0.537297308 -0.843392909 0 0.60876143 -0.793353319 -0 0.60876143 -0.793353319 -0 0.60876143 -0.793353319 -0 0.60876143 -0.793353319 0 0.60876143 -0.793353319 0 0.60876143 -0.793353319 0 0.675588489 -0.737278879 -0 0.675588489 -0.737278879 -0 0.675588489 -0.737278879 -0 0.675588489 -0.737278879 0 0.675588489 -0.737278879 0 0.675588489 -0.737278879 0 0.73727113 -0.675596952 -0 0.73727113 -0.675596952 -0 0.73727113 -0.675596952 -0 0.73727113 -0.675596952 0 0.73727113 -0.675596952 0 0.73727113 -0.675596952 0 0.793359995 -0.608752787 -0 0.793359995 -0.608752787 -0 0.793359995 -0.608752787 -0 0.793359995 -0.608752787 0 0.793359995 -0.608752787 0 0.793359995 -0.608752787 0 0.84339118 -0.53730005 -0 0.84339118 -0.53730005 -0 0.84339118 -0.53730005 -0 0.84339118 -0.53730005 0 0.84339118 -0.53730005 0 0.84339118 -0.53730005 0 0.887012422 -0.46174559 -0 0.887012422 -0.46174559 -0 0.887012422 -0.46174559 -0 0.887012422 -0.46174559 0 0.887012422 -0.46174559 0 0.887012422 -0.46174559 0 0.923876464 -0.382690817 -0 0.923876464 -0.382690817 -0 0.923876464 -0.382690817 -0 0.923876464 -0.382690817 0 0.923876464 -0.382690817 0 0.923876464 -0.382690817 0 0.953717589 -0.300703764 -0 0.953717589 -0.300703764 -0 0.953717589 -0.300703764 -0 0.953717589 -0.300703764 0 0.953717589 -0.300703764 0 0.953717589 -0.300703764 0 0.976294398 -0.216446847 -0 0.976294398 -0.216446847 -0 0.976294398 -0.216446847 -0 0.976294398 -0.216446847 0 0.976294398 -0.216446847 0 0.976294398 -0.216446847 0 0.991447151 -0.130508885 -0 0.991447151 -0.130508885 -0 0.991447151 -0.130508885 -0 0.991447151 -0.130508885 0 0.991447151 -0.130508885 0 0.991447151 -0.130508885 0 0.999047458 -0.0436362885 -0 0.999047458 -0.0436362885 -0 0.999047458 -0.0436362885 -0 0.999047458 -0.0436362885 0 0.999047458 -0.0436362885 0 0.999047458 -0.0436362885 0 1 0 -0 1 0 -0 1 0 -0 1 0 -0 1 0 -0 1 0 -0 0.999047458 0.0436362885 0 0.999047458 0.0436362885 0 0.999047458 0.0436362885 0 0.999047458 0.0436362885 0 0.999047458 0.0436362885 0 0.999047458 0.0436362885 0 0.991447091 0.130509317 -0 0.991447091 0.130509317 -0 0.991447091 0.130509317 -0 0.991447091 0.130509317 0 0.991447091 0.130509317 0 0.991447091 0.130509317 0 0.976294458 0.216446504 -0 0.976294458 0.216446504 -0 0.976294458 0.216446504 -0 0.976294458 0.216446504 0 0.976294458 0.216446504 0 0.976294458 0.216446504 0 0.953717589 0.300703764 -0 0.953717589 0.300703764 -0 0.953717589 0.300703764 -0 0.953717589 0.300703764 0 0.953717589 0.300703764 0 0.953717589 0.300703764 0 0.923876464 0.382690817 -0 0.923876464 0.382690817 -0 0.923876464 0.382690817 -0 0.923876464 0.382690817 0 0.923876464 0.382690817 0 0.923876464 0.382690817 0 0.88701278 0.461744905 -0 0.88701278 0.461744905 -0 0.88701278 0.461744905 -0 0.88701278 0.461744905 0 0.88701278 0.461744905 0 0.88701278 0.461744905 0 0.843390226 0.53730154 -0 0.843390226 0.53730154 -0 0.843390226 0.53730154 -0 0.843390226 0.53730154 0 0.843390226 0.53730154 0 0.843390226 0.53730154 0 0.793360591 0.608752012 -0 0.793360591 0.608752012 -0 0.793360591 0.608752012 -0 0.793360591 0.608752012 0 0.793360591 0.608752012 0 0.793360591 0.608752012 0 0.73727113 0.675596952 -0 0.73727113 0.675596952 -0 0.73727113 0.675596952 -0 0.73727113 0.675596952 0 0.73727113 0.675596952 0 0.73727113 0.675596952 0 0.675589859 0.737277627 -0 0.675589859 0.737277627 -0 0.675589859 0.737277627 -0 0.675589859 0.737277627 0 0.675589859 0.737277627 0 0.675589859 0.737277627 0 0.608760417 0.793354154 -0 0.608760417 0.793354154 -0 0.608760417 0.793354154 -0 0.608760417 0.793354154 0 0.608760417 0.793354154 0 0.608760417 0.793354154 0 0.537296176 0.843393624 -0 0.537296176 0.843393624 -0 0.537296176 0.843393624 -0 0.537296176 0.843393624 0 0.537296176 0.843393624 0 0.537296176 0.843393624 0 0.461752892 0.887008607 -0 0.461752892 0.887008607 -0 0.461752892 0.887008607 -0 0.461752892 0.887008607 0 0.461752892 0.887008607 0 0.461752892 0.887008607 0 0.382688165 0.923877537 -0 0.382688165 0.923877537 -0 0.382688165 0.923877537 -0 0.382688165 0.923877537 0 0.382688165 0.923877537 0 0.382688165 0.923877537 0 0.300703913 0.95371753 -0 0.300703913 0.95371753 -0 0.300703913 0.95371753 -0 0.300703913 0.95371753 0 0.300703913 0.95371753 0 0.300703913 0.95371753 0 0.216438025 0.976296365 -0 0.216438025 0.976296365 -0 0.216438025 0.976296365 -0 0.216438025 0.976296365 0 0.216438025 0.976296365 0 0.216438025 0.976296365 0 0.13052614 0.991444886 -0 0.13052614 0.991444886 -0 0.13052614 0.991444886 -0 0.13052614 0.991444886 0 0.13052614 0.991444886 0 0.13052614 0.991444886 0 0.0436197855 0.999048233 -0 0.0436197855 0.999048233 -0 0.0436197855 0.999048233 -0 0.0436197855 0.999048233 0 0.0436197855 0.999048233 0 0.0436197855 0.999048233 0 </float_array>
          <technique_common>
            <accessor count="468" offset="0" source="#mesh_0-normals-array" stride="3">
              <param name="X" type="float" />
              <param name="Y" type="float" />
              <param name="Z" type="float" />
            </accessor>
          </technique_common>
        </source>
        <vertices id="mesh_0-vertices">
          <input semantic="POSITION" source="#mesh_0-positions" />
        </vertices>
        <polylist count="156" material="defaultMaterial">
          <input offset="0" semantic="VERTEX" source="#mesh_0-vertices" />
          <input offset="0" semantic="NORMAL" source="#mesh_0-normals" />
          <vcount>3 3 3 3 3 3 3 3 3 3 3 3 3 3 3 3 3 3 3 3 3 3 3 3 3 3 3 3 3 3 3 3 3 3 3 3 3 3 3 3 3 3 3 3 3 3 3 3 3 3 3 3 3 3 3 3 3 3 3 3 3 3 3 3 3 3 3 3 3 3 3 3 3 3 3 3 3 3 3 3 3 3 3 3 3 3 3 3 3 3 3 3 3 3 3 3 3 3 3 3 3 3 3 3 3 3 3 3 3 3 3 3 3 3 3 3 3 3 3 3 3 3 3 3 3 3 3 3 3 3 3 3 3 3 3 3 3 3 3 3 3 3 3 3 3 3 3 3 3 3 3 3 3 3 3 3 </vcount>
          <p>0 1 2 3 4 5 6 7 8 9 10 11 12 13 14 15 16 17 18 19 20 21 22 23 24 25 26 27 28 29 30 31 32 33 34 35 36 37 38 39 40 41 42 43 44 45 46 47 48 49 50 51 52 53 54 55 56 57 58 59 60 61 62 63 64 65 66 67 68 69 70 71 72 73 74 75 76 77 78 79 80 81 82 83 84 85 86 87 88 89 90 91 92 93 94 95 96 97 98 99 100 101 102 103 104 105 106 107 108 109 110 111 112 113 114 115 116 117 118 119 120 121 122 123 124 125 126 127 128 129 130 131 132 133 134 135 136 137 138 139 140 141 142 143 144 145 146 147 148 149 150 151 152 153 154 155 156 157 158 159 160 161 162 163 164 165 166 167 168 169 170 171 172 173 174 175 176 177 178 179 180 181 182 183 184 185 186 187 188 189 190 191 192 193 194 195 196 197 198 199 200 201 202 203 204 205 206 207 208 209 210 211 212 213 214 215 216 217 218 219 220 221 222 223 224 225 226 227 228 229 230 231 232 233 234 235 236 237 238 239 240 241 242 243 244 245 246 247 248 249 250 251 252 253 254 255 256 257 258 259 260 261 262 263 264 265 266 267 268 269 270 271 272 273 274 275 276 277 278 279 280 281 282 283 284 285 286 287 288 289 290 291 292 293 294 295 296 297 298 299 300 301 302 303 304 305 306 307 308 309 310 311 312 313 314 315 316 317 318 319 320 321 322 323 324 325 326 327 328 329 330 331 332 333 334 335 336 337 338 339 340 341 342 343 344 345 346 347 348 349 350 351 352 353 354 355 356 357 358 359 360 361 362 363 364 365 366 367 368 369 370 371 372 373 374 375 376 377 378 379 380 381 382 383 384 385 386 387 388 389 390 391 392 393 394 395 396 397 398 399 400 401 402 403 404 405 406 407 408 409 410 411 412 413 414 415 416 417 418 419 420 421 422 423 424 425 426 427 428 429 430 431 432 433 434 435 436 437 438 439 440 441 442 443 444 445 446 447 448 449 450 451 452 453 454 455 456 457 458 459 460 461 462 463 464 465 466 467 </p>
        </polylist>
      </mesh>
    </geometry>
  </library_geometries>
  <library_controllers>
  </library_controllers>
  <library_visual_scenes>
    <visual_scene id="_ySTL_BINARY_" name="&lt;STL_BINARY&gt;">
      <node id="node" name="" type="NODE">
        <matrix sid="matrix">1 0 0 0 0 1 0 0 0 0 1 0 0 0 0 1</matrix>
        <instance_geometry url="#mesh_0">
          <bind_material>
            <technique_common>
              <instance_material symbol="defaultMaterial" target="#DefaultMaterial">
              </instance_material>
            </technique_common>
          </bind_material>
        </instance_geometry>
      </node>
    </visual_scene>
  </library_visual_scenes>
  <scene>
    <instance_visual_scene url="#_ySTL_BINARY_" />
  </scene>
</COLLADA>
