<?xml version="1.0" encoding="UTF-8" standalone="no" ?>
<COLLADA xmlns="http://www.collada.org/2005/11/COLLADASchema" version="1.4.1">
  <asset>
    <contributor>
      <author>Assimp</author>
      <authoring_tool>Assimp Exporter</authoring_tool>
    </contributor>
    <created>2025-12-07T16:35:04</created>
    <modified>2025-12-07T16:35:04</modified>
    <unit name="meter" meter="1" />
    <up_axis>Y_UP</up_axis>
  </asset>
  <library_images>
  </library_images>
  <library_effects>
    <effect id="DefaultMaterial-fx" name="DefaultMaterial">
      <profile_COMMON>
        <technique sid="standard">
          <phong>
            <ambient>
              <color sid="ambient">0.0500000007   0.0500000007   0.0500000007   1</color>
            </ambient>
            <diffuse>
              <color sid="diffuse">1   1   1   1</color>
            </diffuse>
            <specular>
              <color sid="specular">1   1   1   1</color>
            </specular>
          </phong>
        </technique>
      </profile_COMMON>
    </effect>
  </library_effects>
  <library_materials>
    <material id="DefaultMaterial" name="DefaultMaterial">
      <instance_effect url="#DefaultMaterial-fx"/>
    </material>
  </library_materials>
  <library_geometries>
    <geometry id="mesh_0" name="" >
      <mesh>
        <source id="mesh_0-positions" name="mesh_0-positions">
          <float_array id="mesh_0-positions-array" count="2052"> 0.00360237784 0.014997622 0.0250499994 0.00214525941 0.014540527 0.0250499994 0.00218816428 0.0144976219 0.0250499994 0.00360237784 0.014997622 0.0250499994 0.00360237784 0.0159118362 0.0250499994 0.00214525941 0.014540527 0.0250499994 0.00360237784 0.0159118362 0.0250499994 0.00355947297 0.0159547403 0.0250499994 0.00214525941 0.014540527 0.0250499994 0.00214525941 0.014540527 0.0250499994 0.00355947297 0.0159547403 0.0250499994 0.00208632182 0.014604846 0.0250499994 0.00355947297 0.0159547403 0.0250499994 0.00349515397 0.0160136782 0.0250499994 0.00208632182 0.014604846 0.0250499994 0.00323178736 0.0145146595 0.0250499994 0.0034854 0.0146762282 0.0250499994 0.00318920193 0.0145052187 0.0250499994 0.0034854 0.0146762282 0.0250499994 0.00314595574 0.0144995246 0.0250499994 0.00318920193 0.0145052187 0.0250499994 0.00218816428 0.0144976219 0.0250499994 0.00310237776 0.0144976219 0.0250499994 0.00360237784 0.014997622 0.0250499994 0.00310237776 0.0144976219 0.0250499994 0.00314595574 0.0144995246 0.0250499994 0.00360237784 0.014997622 0.0250499994 0.00360237784 0.014997622 0.0250499994 0.00314595574 0.0144995246 0.0250499994 0.00360047515 0.0149540445 0.0250499994 0.00314595574 0.0144995246 0.0250499994 0.00359478174 0.0149107985 0.0250499994 0.00360047515 0.0149540445 0.0250499994 0.00208632182 0.014604846 0.0250499994 0.00302601443 0.0162324421 0.0250499994 0.00293952203 0.0162438285 0.0250499994 0.00214525941 0.0159547403 0.0250499994 0.00208632182 0.0158904213 0.0250499994 0.00208632182 0.014604846 0.0250499994 0.0034854 0.0146762282 0.0250499994 0.00351195387 0.0147108342 0.0250499994 0.00314595574 0.0144995246 0.0250499994 0.00351195387 0.0147108342 0.0250499994 0.0035353906 0.0147476224 0.0250499994 0.00314595574 0.0144995246 0.0250499994 0.00314595574 0.0144995246 0.0250499994 0.0035353906 0.0147476224 0.0250499994 0.00355553185 0.0147863133 0.0250499994 0.00349515397 0.0160136782 0.0250499994 0.00342594273 0.0160667859 0.0250499994 0.00208632182 0.014604846 0.0250499994 0.00342594273 0.0160667859 0.0250499994 0.00335236616 0.0161136594 0.0250499994 0.00208632182 0.014604846 0.0250499994 0.00208632182 0.014604846 0.0250499994 0.00335236616 0.0161136594 0.0250499994 0.00327498442 0.0161539409 0.0250499994 0.00208632182 0.014604846 0.0250499994 0.00242974795 0.0161539409 0.0250499994 0.00235236622 0.0161136594 0.0250499994 0.00208632182 0.0158904213 0.0250499994 0.00203321432 0.015821211 0.0250499994 0.00208632182 0.014604846 0.0250499994 0.00203321432 0.015821211 0.0250499994 0.00198634085 0.0157476328 0.0250499994 0.00208632182 0.014604846 0.0250499994 0.00208632182 0.014604846 0.0250499994 0.00198634085 0.0157476328 0.0250499994 0.00203321432 0.0146740573 0.0250499994 0.00198634085 0.0157476328 0.0250499994 0.00198634085 0.0147476336 0.0250499994 0.00203321432 0.0146740573 0.0250499994 0.00355553185 0.0147863133 0.0250499994 0.00357222417 0.0148266125 0.0250499994 0.00314595574 0.0144995246 0.0250499994 0.00357222417 0.0148266125 0.0250499994 0.00358534069 0.0148682129 0.0250499994 0.00314595574 0.0144995246 0.0250499994 0.00314595574 0.0144995246 0.0250499994 0.00358534069 0.0148682129 0.0250499994 0.00359478174 0.0149107985 0.0250499994 0.00327498442 0.0161539409 0.0250499994 0.00319438637 0.016187327 0.0250499994 0.00208632182 0.014604846 0.0250499994 0.00319438637 0.016187327 0.0250499994 0.00311118527 0.0162135605 0.0250499994 0.00208632182 0.014604846 0.0250499994 0.00208632182 0.014604846 0.0250499994 0.00311118527 0.0162135605 0.0250499994 0.00302601443 0.0162324421 0.0250499994 0.00293952203 0.0162438285 0.0250499994 0.00285236631 0.0162476338 0.0250499994 0.00208632182 0.014604846 0.0250499994 0.00285236631 0.0162476338 0.0250499994 0.00276521058 0.0162438285 0.0250499994 0.00208632182 0.014604846 0.0250499994 0.00208632182 0.014604846 0.0250499994 0.00276521058 0.0162438285 0.0250499994 0.00267871819 0.0162324421 0.0250499994 0.00267871819 0.0162324421 0.0250499994 0.00259354734 0.0162135605 0.0250499994 0.00208632182 0.014604846 0.0250499994 0.00259354734 0.0162135605 0.0250499994 0.00251034624 0.016187327 0.0250499994 0.00208632182 0.014604846 0.0250499994 0.00208632182 0.014604846 0.0250499994 0.00251034624 0.016187327 0.0250499994 0.00242974795 0.0161539409 0.0250499994 0.00235236622 0.0161136594 0.0250499994 0.00227878988 0.0160667859 0.0250499994 0.00208632182 0.014604846 0.0250499994 0.00227878988 0.0160667859 0.0250499994 0.00220957864 0.0160136782 0.0250499994 0.00208632182 0.014604846 0.0250499994 0.00208632182 0.014604846 0.0250499994 0.00220957864 0.0160136782 0.0250499994 0.00214525941 0.0159547403 0.0250499994 0.00185236626 0.0152476337 0.0250499994 0.00198634085 0.0157476328 0.0250499994 0.00194605847 0.0156702511 0.0250499994 0.00185236626 0.0152476337 0.0250499994 0.00185617153 0.0151604777 0.0250499994 0.00198634085 0.0157476328 0.0250499994 0.00185617153 0.0151604777 0.0250499994 0.00186755846 0.0150739858 0.0250499994 0.00198634085 0.0157476328 0.0250499994 0.00198634085 0.0157476328 0.0250499994 0.00186755846 0.0150739858 0.0250499994 0.00188644044 0.0149888145 0.0250499994 0.00188644044 0.0149888145 0.0250499994 0.0019126737 0.0149056138 0.0250499994 0.00198634085 0.0157476328 0.0250499994 0.0019126737 0.0149056138 0.0250499994 0.00194605847 0.0148250153 0.0250499994 0.00198634085 0.0157476328 0.0250499994 0.00198634085 0.0157476328 0.0250499994 0.00194605847 0.0148250153 0.0250499994 0.00198634085 0.0147476336 0.0250499994 0.00323178736 0.0145146595 0.0250499994 0.00327338791 0.0145277763 0.0250499994 0.0034854 0.0146762282 0.0250499994 0.00327338791 0.0145277763 0.0250499994 0.00331368693 0.0145444684 0.0250499994 0.0034854 0.0146762282 0.0250499994 0.0034854 0.0146762282 0.0250499994 0.00331368693 0.0145444684 0.0250499994 0.0033523778 0.0145646092 0.0250499994 0.0033523778 0.0145646092 0.0250499994 0.00338916597 0.0145880459 0.0250499994 0.0034854 0.0146762282 0.0250499994 0.00338916597 0.0145880459 0.0250499994 0.00342377159 0.0146145998 0.0250499994 0.0034854 0.0146762282 0.0250499994 0.0034854 0.0146762282 0.0250499994 0.00342377159 0.0146145998 0.0250499994 0.00345593132 0.0146440687 0.0250499994 0.00194605847 0.0156702511 0.0250499994 0.0019126737 0.0155896535 0.0250499994 0.00185236626 0.0152476337 0.0250499994 0.0019126737 0.0155896535 0.0250499994 0.00188644044 0.0155064529 0.0250499994 0.00185236626 0.0152476337 0.0250499994 0.00185236626 0.0152476337 0.0250499994 0.00188644044 0.0155064529 0.0250499994 0.00185617153 0.0153347896 0.0250499994 0.00188644044 0.0155064529 0.0250499994 0.00186755846 0.0154212816 0.0250499994 0.00185617153 0.0153347896 0.0250499994 0.00360237784 0.0159118362 0.0250000004 0.00355947297 0.0159547403 0.0250000004 0.00360237784 0.0159118362 0.0250499994 0.00355947297 0.0159547403 0.0250000004 0.00355947297 0.0159547403 0.0250499994 0.00360237784 0.0159118362 0.0250499994 0.00355947297 0.0159547403 0.0250499994 0.00355947297 0.0159547403 0.0250000004 0.00349515397 0.0160136782 0.0250000004 0.00355947297 0.0159547403 0.0250499994 0.00349515397 0.0160136782 0.0250000004 0.00349515397 0.0160136782 0.0250499994 0.00349515397 0.0160136782 0.0250000004 0.00342594273 0.0160667859 0.0250000004 0.00349515397 0.0160136782 0.0250499994 0.00349515397 0.0160136782 0.0250499994 0.00342594273 0.0160667859 0.0250000004 0.00342594273 0.0160667859 0.0250499994 0.00342594273 0.0160667859 0.0250000004 0.00335236616 0.0161136594 0.0250000004 0.00342594273 0.0160667859 0.0250499994 0.00342594273 0.0160667859 0.0250499994 0.00335236616 0.0161136594 0.0250000004 0.00335236616 0.0161136594 0.0250499994 0.00335236616 0.0161136594 0.0250000004 0.00327498442 0.0161539409 0.0250000004 0.00335236616 0.0161136594 0.0250499994 0.00335236616 0.0161136594 0.0250499994 0.00327498442 0.0161539409 0.0250000004 0.00327498442 0.0161539409 0.0250499994 0.00327498442 0.0161539409 0.0250000004 0.00319438637 0.016187327 0.0250000004 0.00327498442 0.0161539409 0.0250499994 0.00327498442 0.0161539409 0.0250499994 0.00319438637 0.016187327 0.0250000004 0.00319438637 0.016187327 0.0250499994 0.00319438637 0.016187327 0.0250000004 0.00311118527 0.0162135605 0.0250000004 0.00319438637 0.016187327 0.0250499994 0.00319438637 0.016187327 0.0250499994 0.00311118527 0.0162135605 0.0250000004 0.00311118527 0.0162135605 0.0250499994 0.00311118527 0.0162135605 0.0250000004 0.00302601443 0.0162324421 0.0250000004 0.00311118527 0.0162135605 0.0250499994 0.00311118527 0.0162135605 0.0250499994 0.00302601443 0.0162324421 0.0250000004 0.00302601443 0.0162324421 0.0250499994 0.00302601443 0.0162324421 0.0250000004 0.00293952203 0.0162438285 0.0250000004 0.00302601443 0.0162324421 0.0250499994 0.00302601443 0.0162324421 0.0250499994 0.00293952203 0.0162438285 0.0250000004 0.00293952203 0.0162438285 0.0250499994 0.00293952203 0.0162438285 0.0250000004 0.00285236631 0.0162476338 0.0250000004 0.00293952203 0.0162438285 0.0250499994 0.00293952203 0.0162438285 0.0250499994 0.00285236631 0.0162476338 0.0250000004 0.00285236631 0.0162476338 0.0250499994 0.00285236631 0.0162476338 0.0250000004 0.00276521058 0.0162438285 0.0250000004 0.00285236631 0.0162476338 0.0250499994 0.00285236631 0.0162476338 0.0250499994 0.00276521058 0.0162438285 0.0250000004 0.00276521058 0.0162438285 0.0250499994 0.00276521058 0.0162438285 0.0250000004 0.00267871819 0.0162324421 0.0250000004 0.00276521058 0.0162438285 0.0250499994 0.00276521058 0.0162438285 0.0250499994 0.00267871819 0.0162324421 0.0250000004 0.00267871819 0.0162324421 0.0250499994 0.00267871819 0.0162324421 0.0250000004 0.00259354734 0.0162135605 0.0250000004 0.00267871819 0.0162324421 0.0250499994 0.00267871819 0.0162324421 0.0250499994 0.00259354734 0.0162135605 0.0250000004 0.00259354734 0.0162135605 0.0250499994 0.00259354734 0.0162135605 0.0250000004 0.00251034624 0.016187327 0.0250000004 0.00259354734 0.0162135605 0.0250499994 0.00259354734 0.0162135605 0.0250499994 0.00251034624 0.016187327 0.0250000004 0.00251034624 0.016187327 0.0250499994 0.00251034624 0.016187327 0.0250000004 0.00242974795 0.0161539409 0.0250000004 0.00251034624 0.016187327 0.0250499994 0.00251034624 0.016187327 0.0250499994 0.00242974795 0.0161539409 0.0250000004 0.00242974795 0.0161539409 0.0250499994 0.00242974795 0.0161539409 0.0250000004 0.00235236622 0.0161136594 0.0250000004 0.00242974795 0.0161539409 0.0250499994 0.00242974795 0.0161539409 0.0250499994 0.00235236622 0.0161136594 0.0250000004 0.00235236622 0.0161136594 0.0250499994 0.00235236622 0.0161136594 0.0250000004 0.00227878988 0.0160667859 0.0250000004 0.00235236622 0.0161136594 0.0250499994 0.00235236622 0.0161136594 0.0250499994 0.00227878988 0.0160667859 0.0250000004 0.00227878988 0.0160667859 0.0250499994 0.00227878988 0.0160667859 0.0250000004 0.00220957864 0.0160136782 0.0250000004 0.00227878988 0.0160667859 0.0250499994 0.00227878988 0.0160667859 0.0250499994 0.00220957864 0.0160136782 0.0250000004 0.00220957864 0.0160136782 0.0250499994 0.00220957864 0.0160136782 0.0250000004 0.00214525941 0.0159547403 0.0250000004 0.00220957864 0.0160136782 0.0250499994 0.00220957864 0.0160136782 0.0250499994 0.00214525941 0.0159547403 0.0250000004 0.00214525941 0.0159547403 0.0250499994 0.00214525941 0.0159547403 0.0250000004 0.00208632182 0.0158904213 0.0250000004 0.00214525941 0.0159547403 0.0250499994 0.00214525941 0.0159547403 0.0250499994 0.00208632182 0.0158904213 0.0250000004 0.00208632182 0.0158904213 0.0250499994 0.00208632182 0.0158904213 0.0250000004 0.00203321432 0.015821211 0.0250000004 0.00208632182 0.0158904213 0.0250499994 0.00208632182 0.0158904213 0.0250499994 0.00203321432 0.015821211 0.0250000004 0.00203321432 0.015821211 0.0250499994 0.00203321432 0.015821211 0.0250000004 0.00198634085 0.0157476328 0.0250000004 0.00203321432 0.015821211 0.0250499994 0.00203321432 0.015821211 0.0250499994 0.00198634085 0.0157476328 0.0250000004 0.00198634085 0.0157476328 0.0250499994 0.00198634085 0.0157476328 0.0250000004 0.00194605847 0.0156702511 0.0250000004 0.00198634085 0.0157476328 0.0250499994 0.00198634085 0.0157476328 0.0250499994 0.00194605847 0.0156702511 0.0250000004 0.00194605847 0.0156702511 0.0250499994 0.00194605847 0.0156702511 0.0250000004 0.0019126737 0.0155896535 0.0250000004 0.00194605847 0.0156702511 0.0250499994 0.00194605847 0.0156702511 0.0250499994 0.0019126737 0.0155896535 0.0250000004 0.0019126737 0.0155896535 0.0250499994 0.0019126737 0.0155896535 0.0250000004 0.00188644044 0.0155064529 0.0250000004 0.0019126737 0.0155896535 0.0250499994 0.0019126737 0.0155896535 0.0250499994 0.00188644044 0.0155064529 0.0250000004 0.00188644044 0.0155064529 0.0250499994 0.00188644044 0.0155064529 0.0250000004 0.00186755846 0.0154212816 0.0250000004 0.00188644044 0.0155064529 0.0250499994 0.00188644044 0.0155064529 0.0250499994 0.00186755846 0.0154212816 0.0250000004 0.00186755846 0.0154212816 0.0250499994 0.00186755846 0.0154212816 0.0250000004 0.00185617153 0.0153347896 0.0250000004 0.00186755846 0.0154212816 0.0250499994 0.00186755846 0.0154212816 0.0250499994 0.00185617153 0.0153347896 0.0250000004 0.00185617153 0.0153347896 0.0250499994 0.00185617153 0.0153347896 0.0250000004 0.00185236626 0.0152476337 0.0250000004 0.00185617153 0.0153347896 0.0250499994 0.00185617153 0.0153347896 0.0250499994 0.00185236626 0.0152476337 0.0250000004 0.00185236626 0.0152476337 0.0250499994 0.00185236626 0.0152476337 0.0250000004 0.00185617153 0.0151604777 0.0250000004 0.00185236626 0.0152476337 0.0250499994 0.00185236626 0.0152476337 0.0250499994 0.00185617153 0.0151604777 0.0250000004 0.00185617153 0.0151604777 0.0250499994 0.00185617153 0.0151604777 0.0250000004 0.00186755846 0.0150739858 0.0250000004 0.00185617153 0.0151604777 0.0250499994 0.00185617153 0.0151604777 0.0250499994 0.00186755846 0.0150739858 0.0250000004 0.00186755846 0.0150739858 0.0250499994 0.00186755846 0.0150739858 0.0250000004 0.00188644044 0.0149888145 0.0250000004 0.00186755846 0.0150739858 0.0250499994 0.00186755846 0.0150739858 0.0250499994 0.00188644044 0.0149888145 0.0250000004 0.00188644044 0.0149888145 0.0250499994 0.00188644044 0.0149888145 0.0250000004 0.0019126737 0.0149056138 0.0250000004 0.00188644044 0.0149888145 0.0250499994 0.00188644044 0.0149888145 0.0250499994 0.0019126737 0.0149056138 0.0250000004 0.0019126737 0.0149056138 0.0250499994 0.0019126737 0.0149056138 0.0250000004 0.00194605847 0.0148250153 0.0250000004 0.0019126737 0.0149056138 0.0250499994 0.0019126737 0.0149056138 0.0250499994 0.00194605847 0.0148250153 0.0250000004 0.00194605847 0.0148250153 0.0250499994 0.00194605847 0.0148250153 0.0250000004 0.00198634085 0.0147476336 0.0250000004 0.00194605847 0.0148250153 0.0250499994 0.00194605847 0.0148250153 0.0250499994 0.00198634085 0.0147476336 0.0250000004 0.00198634085 0.0147476336 0.0250499994 0.00198634085 0.0147476336 0.0250000004 0.00203321432 0.0146740573 0.0250000004 0.00198634085 0.0147476336 0.0250499994 0.00198634085 0.0147476336 0.0250499994 0.00203321432 0.0146740573 0.0250000004 0.00203321432 0.0146740573 0.0250499994 0.00203321432 0.0146740573 0.0250000004 0.00208632182 0.014604846 0.0250000004 0.00203321432 0.0146740573 0.0250499994 0.00203321432 0.0146740573 0.0250499994 0.00208632182 0.014604846 0.0250000004 0.00208632182 0.014604846 0.0250499994 0.00208632182 0.014604846 0.0250000004 0.00214525941 0.014540527 0.0250000004 0.00208632182 0.014604846 0.0250499994 0.00208632182 0.014604846 0.0250499994 0.00214525941 0.014540527 0.0250000004 0.00214525941 0.014540527 0.0250499994 0.00355947297 0.0159547403 0.0250000004 0.00360237784 0.0159118362 0.0250000004 0.00360237784 0.014997622 0.0250000004 0.00349515397 0.0160136782 0.0250000004 0.00355947297 0.0159547403 0.0250000004 0.00310237776 0.0144976219 0.0250000004 0.00218816428 0.0144976219 0.0250000004 0.00214525941 0.014540527 0.0250000004 0.00302601443 0.0162324421 0.0250000004 0.00214525941 0.014540527 0.0250000004 0.00208632182 0.014604846 0.0250000004 0.00302601443 0.0162324421 0.0250000004 0.00359478174 0.0149107985 0.0250000004 0.00358534069 0.0148682129 0.0250000004 0.00310237776 0.0144976219 0.0250000004 0.00319438637 0.016187327 0.0250000004 0.00327498442 0.0161539409 0.0250000004 0.00310237776 0.0144976219 0.0250000004 0.00327338791 0.0145277763 0.0250000004 0.00323178736 0.0145146595 0.0250000004 0.0034854 0.0146762282 0.0250000004 0.00323178736 0.0145146595 0.0250000004 0.00318920193 0.0145052187 0.0250000004 0.0034854 0.0146762282 0.0250000004 0.00327498442 0.0161539409 0.0250000004 0.00335236616 0.0161136594 0.0250000004 0.00310237776 0.0144976219 0.0250000004 0.00335236616 0.0161136594 0.0250000004 0.00342594273 0.0160667859 0.0250000004 0.00310237776 0.0144976219 0.0250000004 0.00310237776 0.0144976219 0.0250000004 0.00342594273 0.0160667859 0.0250000004 0.00349515397 0.0160136782 0.0250000004 0.00355947297 0.0159547403 0.0250000004 0.00360237784 0.014997622 0.0250000004 0.00310237776 0.0144976219 0.0250000004 0.00360237784 0.014997622 0.0250000004 0.00360047515 0.0149540445 0.0250000004 0.00310237776 0.0144976219 0.0250000004 0.00310237776 0.0144976219 0.0250000004 0.00360047515 0.0149540445 0.0250000004 0.00359478174 0.0149107985 0.0250000004 0.0035353906 0.0147476224 0.0250000004 0.00351195387 0.0147108342 0.0250000004 0.00310237776 0.0144976219 0.0250000004 0.00351195387 0.0147108342 0.0250000004 0.0034854 0.0146762282 0.0250000004 0.00310237776 0.0144976219 0.0250000004 0.00310237776 0.0144976219 0.0250000004 0.0034854 0.0146762282 0.0250000004 0.00314595574 0.0144995246 0.0250000004 0.0034854 0.0146762282 0.0250000004 0.00318920193 0.0145052187 0.0250000004 0.00314595574 0.0144995246 0.0250000004 0.00276521058 0.0162438285 0.0250000004 0.00285236631 0.0162476338 0.0250000004 0.00208632182 0.014604846 0.0250000004 0.00285236631 0.0162476338 0.0250000004 0.00293952203 0.0162438285 0.0250000004 0.00208632182 0.014604846 0.0250000004 0.00208632182 0.014604846 0.0250000004 0.00293952203 0.0162438285 0.0250000004 0.00302601443 0.0162324421 0.0250000004 0.00218816428 0.0144976219 0.0250000004 0.00302601443 0.0162324421 0.0250000004 0.00310237776 0.0144976219 0.0250000004 0.00302601443 0.0162324421 0.0250000004 0.00311118527 0.0162135605 0.0250000004 0.00310237776 0.0144976219 0.0250000004 0.00310237776 0.0144976219 0.0250000004 0.00311118527 0.0162135605 0.0250000004 0.00319438637 0.016187327 0.0250000004 0.00358534069 0.0148682129 0.0250000004 0.00357222417 0.0148266125 0.0250000004 0.00310237776 0.0144976219 0.0250000004 0.00357222417 0.0148266125 0.0250000004 0.00355553185 0.0147863133 0.0250000004 0.00310237776 0.0144976219 0.0250000004 0.00310237776 0.0144976219 0.0250000004 0.00355553185 0.0147863133 0.0250000004 0.0035353906 0.0147476224 0.0250000004 0.00338916597 0.0145880459 0.0250000004 0.0034854 0.0146762282 0.0250000004 0.00342377159 0.0146145998 0.0250000004 0.0034854 0.0146762282 0.0250000004 0.00345593132 0.0146440687 0.0250000004 0.00342377159 0.0146145998 0.0250000004 0.00338916597 0.0145880459 0.0250000004 0.0033523778 0.0145646092 0.0250000004 0.0034854 0.0146762282 0.0250000004 0.0033523778 0.0145646092 0.0250000004 0.00331368693 0.0145444684 0.0250000004 0.0034854 0.0146762282 0.0250000004 0.0034854 0.0146762282 0.0250000004 0.00331368693 0.0145444684 0.0250000004 0.00327338791 0.0145277763 0.0250000004 0.00198634085 0.0157476328 0.0250000004 0.00198634085 0.0147476336 0.0250000004 0.00194605847 0.0148250153 0.0250000004 0.00203321432 0.015821211 0.0250000004 0.00208632182 0.014604846 0.0250000004 0.00198634085 0.0157476328 0.0250000004 0.00208632182 0.014604846 0.0250000004 0.00203321432 0.0146740573 0.0250000004 0.00198634085 0.0157476328 0.0250000004 0.00198634085 0.0157476328 0.0250000004 0.00203321432 0.0146740573 0.0250000004 0.00198634085 0.0147476336 0.0250000004 0.00203321432 0.015821211 0.0250000004 0.00208632182 0.0158904213 0.0250000004 0.00208632182 0.014604846 0.0250000004 0.00208632182 0.0158904213 0.0250000004 0.00214525941 0.0159547403 0.0250000004 0.00208632182 0.014604846 0.0250000004 0.00208632182 0.014604846 0.0250000004 0.00214525941 0.0159547403 0.0250000004 0.00220957864 0.0160136782 0.0250000004 0.00208632182 0.014604846 0.0250000004 0.00242974795 0.0161539409 0.0250000004 0.00251034624 0.016187327 0.0250000004 0.00194605847 0.0148250153 0.0250000004 0.0019126737 0.0149056138 0.0250000004 0.00198634085 0.0157476328 0.0250000004 0.0019126737 0.0149056138 0.0250000004 0.00188644044 0.0149888145 0.0250000004 0.00198634085 0.0157476328 0.0250000004 0.00198634085 0.0157476328 0.0250000004 0.00188644044 0.0149888145 0.0250000004 0.00186755846 0.0150739858 0.0250000004 0.00186755846 0.0150739858 0.0250000004 0.00185617153 0.0151604777 0.0250000004 0.00198634085 0.0157476328 0.0250000004 0.00185617153 0.0151604777 0.0250000004 0.00185236626 0.0152476337 0.0250000004 0.00198634085 0.0157476328 0.0250000004 0.00198634085 0.0157476328 0.0250000004 0.00185236626 0.0152476337 0.0250000004 0.00194605847 0.0156702511 0.0250000004 0.00185236626 0.0152476337 0.0250000004 0.0019126737 0.0155896535 0.0250000004 0.00194605847 0.0156702511 0.0250000004 0.00220957864 0.0160136782 0.0250000004 0.00227878988 0.0160667859 0.0250000004 0.00208632182 0.014604846 0.0250000004 0.00227878988 0.0160667859 0.0250000004 0.00235236622 0.0161136594 0.0250000004 0.00208632182 0.014604846 0.0250000004 0.00208632182 0.014604846 0.0250000004 0.00235236622 0.0161136594 0.0250000004 0.00242974795 0.0161539409 0.0250000004 0.00251034624 0.016187327 0.0250000004 0.00259354734 0.0162135605 0.0250000004 0.00208632182 0.014604846 0.0250000004 0.00259354734 0.0162135605 0.0250000004 0.00267871819 0.0162324421 0.0250000004 0.00208632182 0.014604846 0.0250000004 0.00208632182 0.014604846 0.0250000004 0.00267871819 0.0162324421 0.0250000004 0.00276521058 0.0162438285 0.0250000004 0.0019126737 0.0155896535 0.0250000004 0.00185236626 0.0152476337 0.0250000004 0.00188644044 0.0155064529 0.0250000004 0.00185236626 0.0152476337 0.0250000004 0.00185617153 0.0153347896 0.0250000004 0.00188644044 0.0155064529 0.0250000004 0.00188644044 0.0155064529 0.0250000004 0.00185617153 0.0153347896 0.0250000004 0.00186755846 0.0154212816 0.0250000004 0.00218816428 0.0144976219 0.0250499994 0.00214525941 0.014540527 0.0250499994 0.00218816428 0.0144976219 0.0250000004 0.00214525941 0.014540527 0.0250499994 0.00214525941 0.014540527 0.0250000004 0.00218816428 0.0144976219 0.0250000004 0.00310237776 0.0144976219 0.0250000004 0.00310237776 0.0144976219 0.0250499994 0.00218816428 0.0144976219 0.0250000004 0.00310237776 0.0144976219 0.0250499994 0.00218816428 0.0144976219 0.0250499994 0.00218816428 0.0144976219 0.0250000004 0.00360237784 0.014997622 0.0250000004 0.00360237784 0.014997622 0.0250499994 0.00360047515 0.0149540445 0.0250499994 0.00360237784 0.014997622 0.0250000004 0.00360047515 0.0149540445 0.0250499994 0.00360047515 0.0149540445 0.0250000004 0.00360047515 0.0149540445 0.0250499994 0.00359478174 0.0149107985 0.0250499994 0.00360047515 0.0149540445 0.0250000004 0.00360047515 0.0149540445 0.0250000004 0.00359478174 0.0149107985 0.0250499994 0.00359478174 0.0149107985 0.0250000004 0.00359478174 0.0149107985 0.0250499994 0.00358534069 0.0148682129 0.0250499994 0.00359478174 0.0149107985 0.0250000004 0.00359478174 0.0149107985 0.0250000004 0.00358534069 0.0148682129 0.0250499994 0.00358534069 0.0148682129 0.0250000004 0.00358534069 0.0148682129 0.0250499994 0.00357222417 0.0148266125 0.0250499994 0.00358534069 0.0148682129 0.0250000004 0.00358534069 0.0148682129 0.0250000004 0.00357222417 0.0148266125 0.0250499994 0.00357222417 0.0148266125 0.0250000004 0.00357222417 0.0148266125 0.0250499994 0.00355553185 0.0147863133 0.0250499994 0.00357222417 0.0148266125 0.0250000004 0.00357222417 0.0148266125 0.0250000004 0.00355553185 0.0147863133 0.0250499994 0.00355553185 0.0147863133 0.0250000004 0.00355553185 0.0147863133 0.0250499994 0.0035353906 0.0147476224 0.0250499994 0.00355553185 0.0147863133 0.0250000004 0.00355553185 0.0147863133 0.0250000004 0.0035353906 0.0147476224 0.0250499994 0.0035353906 0.0147476224 0.0250000004 0.0035353906 0.0147476224 0.0250499994 0.00351195387 0.0147108342 0.0250499994 0.0035353906 0.0147476224 0.0250000004 0.0035353906 0.0147476224 0.0250000004 0.00351195387 0.0147108342 0.0250499994 0.00351195387 0.0147108342 0.0250000004 0.00351195387 0.0147108342 0.0250499994 0.0034854 0.0146762282 0.0250499994 0.00351195387 0.0147108342 0.0250000004 0.00351195387 0.0147108342 0.0250000004 0.0034854 0.0146762282 0.0250499994 0.0034854 0.0146762282 0.0250000004 0.0034854 0.0146762282 0.0250499994 0.00345593132 0.0146440687 0.0250499994 0.0034854 0.0146762282 0.0250000004 0.0034854 0.0146762282 0.0250000004 0.00345593132 0.0146440687 0.0250499994 0.00345593132 0.0146440687 0.0250000004 0.00345593132 0.0146440687 0.0250499994 0.00342377159 0.0146145998 0.0250499994 0.00345593132 0.0146440687 0.0250000004 0.00345593132 0.0146440687 0.0250000004 0.00342377159 0.0146145998 0.0250499994 0.00342377159 0.0146145998 0.0250000004 0.00342377159 0.0146145998 0.0250499994 0.00338916597 0.0145880459 0.0250499994 0.00342377159 0.0146145998 0.0250000004 0.00342377159 0.0146145998 0.0250000004 0.00338916597 0.0145880459 0.0250499994 0.00338916597 0.0145880459 0.0250000004 0.00338916597 0.0145880459 0.0250499994 0.0033523778 0.0145646092 0.0250499994 0.00338916597 0.0145880459 0.0250000004 0.00338916597 0.0145880459 0.0250000004 0.0033523778 0.0145646092 0.0250499994 0.0033523778 0.0145646092 0.0250000004 0.0033523778 0.0145646092 0.0250499994 0.00331368693 0.0145444684 0.0250499994 0.0033523778 0.0145646092 0.0250000004 0.0033523778 0.0145646092 0.0250000004 0.00331368693 0.0145444684 0.0250499994 0.00331368693 0.0145444684 0.0250000004 0.00331368693 0.0145444684 0.0250499994 0.00327338791 0.0145277763 0.0250499994 0.00331368693 0.0145444684 0.0250000004 0.00331368693 0.0145444684 0.0250000004 0.00327338791 0.0145277763 0.0250499994 0.00327338791 0.0145277763 0.0250000004 0.00327338791 0.0145277763 0.0250499994 0.00323178736 0.0145146595 0.0250499994 0.00327338791 0.0145277763 0.0250000004 0.00327338791 0.0145277763 0.0250000004 0.00323178736 0.0145146595 0.0250499994 0.00323178736 0.0145146595 0.0250000004 0.00323178736 0.0145146595 0.0250499994 0.00318920193 0.0145052187 0.0250499994 0.00323178736 0.0145146595 0.0250000004 0.00323178736 0.0145146595 0.0250000004 0.00318920193 0.0145052187 0.0250499994 0.00318920193 0.0145052187 0.0250000004 0.00318920193 0.0145052187 0.0250499994 0.00314595574 0.0144995246 0.0250499994 0.00318920193 0.0145052187 0.0250000004 0.00318920193 0.0145052187 0.0250000004 0.00314595574 0.0144995246 0.0250499994 0.00314595574 0.0144995246 0.0250000004 0.00314595574 0.0144995246 0.0250499994 0.00310237776 0.0144976219 0.0250499994 0.00314595574 0.0144995246 0.0250000004 0.00314595574 0.0144995246 0.0250000004 0.00310237776 0.0144976219 0.0250499994 0.00310237776 0.0144976219 0.0250000004 0.00360237784 0.0159118362 0.0250000004 0.00360237784 0.0159118362 0.0250499994 0.00360237784 0.014997622 0.0250000004 0.00360237784 0.0159118362 0.0250499994 0.00360237784 0.014997622 0.0250499994 0.00360237784 0.014997622 0.0250000004 </float_array>
          <technique_common>
            <accessor count="684" offset="0" source="#mesh_0-positions-array" stride="3">
              <param name="X" type="float" />
              <param name="Y" type="float" />
              <param name="Z" type="float" />
            </accessor>
          </technique_common>
        </source>
        <source id="mesh_0-normals" name="mesh_0-normals">
          <float_array id="mesh_0-normals-array" count="2052"> 0 0 1 0 0 1 0 0 1 0 -0 1 0 -0 1 0 -0 1 0 -0 1 0 -0 1 0 -0 1 0 -0 1 0 -0 1 0 -0 1 0 -0 1 0 -0 1 0 -0 1 0 -0 1 0 -0 1 0 -0 1 -0 -0 1 -0 -0 1 -0 -0 1 0 0 1 0 0 1 0 0 1 -0 -0 1 -0 -0 1 -0 -0 1 0 0 1 0 0 1 0 0 1 -0 -0 1 -0 -0 1 -0 -0 1 0 0 1 0 0 1 0 0 1 0 0 1 0 0 1 0 0 1 0 -0 1 0 -0 1 0 -0 1 0 -0 1 0 -0 1 0 -0 1 0 0 1 0 0 1 0 0 1 0 0 1 0 0 1 0 0 1 0 -0 1 0 -0 1 0 -0 1 0 0 1 0 0 1 0 0 1 0 0 1 0 0 1 0 0 1 0 0 1 0 0 1 0 0 1 -0 0 1 -0 0 1 -0 0 1 0 0 1 0 0 1 0 0 1 -0 -0 1 -0 -0 1 -0 -0 1 0 -0 1 0 -0 1 0 -0 1 0 -0 1 0 -0 1 0 -0 1 0 0 1 0 0 1 0 0 1 0 0 1 0 0 1 0 0 1 0 -0 1 0 -0 1 0 -0 1 0 0 1 0 0 1 0 0 1 0 0 1 0 0 1 0 0 1 -0 -0 1 -0 -0 1 -0 -0 1 0 0 1 0 0 1 0 0 1 0 0 1 0 0 1 0 0 1 -0 -0 1 -0 -0 1 -0 -0 1 0 0 1 0 0 1 0 0 1 0 0 1 0 0 1 0 0 1 -0 -0 1 -0 -0 1 -0 -0 1 0 0 1 0 0 1 0 0 1 0 0 1 0 0 1 0 0 1 -0 0 1 -0 0 1 -0 0 1 -0 -0 1 -0 -0 1 -0 -0 1 0 0 1 0 0 1 0 0 1 -0 0 1 -0 0 1 -0 0 1 -0 -0 1 -0 -0 1 -0 -0 1 0 0 1 0 0 1 0 0 1 0 0 1 0 0 1 0 0 1 -0 -0 1 -0 -0 1 -0 -0 1 0 0 1 0 0 1 0 0 1 0 0 1 0 0 1 0 0 1 -0 -0 1 -0 -0 1 -0 -0 1 0 0 1 0 0 1 0 0 1 0 0 1 0 0 1 0 0 1 -0 -0 1 -0 -0 1 -0 -0 1 0 0 1 0 0 1 0 0 1 -0 -0 1 -0 -0 1 -0 -0 1 0.707101047 0.707112551 -0 0.707101047 0.707112551 -0 0.707101047 0.707112551 -0 0.707101047 0.707112551 -0 0.707101047 0.707112551 -0 0.707101047 0.707112551 -0 0.675592184 0.737275541 0 0.675592184 0.737275541 0 0.675592184 0.737275541 0 0.675592184 0.737275541 0 0.675592184 0.737275541 0 0.675592184 0.737275541 0 0.608762085 0.793352842 -0 0.608762085 0.793352842 -0 0.608762085 0.793352842 -0 0.608762085 0.793352842 0 0.608762085 0.793352842 0 0.608762085 0.793352842 0 0.537299752 0.843391359 -0 0.537299752 0.843391359 -0 0.537299752 0.843391359 -0 0.537299752 0.843391359 0 0.537299752 0.843391359 0 0.537299752 0.843391359 0 0.461741269 0.887014687 -0 0.461741269 0.887014687 -0 0.461741269 0.887014687 -0 0.461741269 0.887014687 0 0.461741269 0.887014687 0 0.461741269 0.887014687 0 0.382695615 0.923874497 -0 0.382695615 0.923874497 -0 0.382695615 0.923874497 -0 0.382695615 0.923874497 0 0.382695615 0.923874497 0 0.382695615 0.923874497 0 0.300708801 0.95371598 -0 0.300708801 0.95371598 -0 0.300708801 0.95371598 -0 0.300708801 0.95371598 0 0.300708801 0.95371598 0 0.300708801 0.95371598 0 0.216436461 0.976296723 -0 0.216436461 0.976296723 -0 0.216436461 0.976296723 -0 0.216436461 0.976296723 0 0.216436461 0.976296723 0 0.216436461 0.976296723 0 0.130519554 0.99144572 -0 0.130519554 0.99144572 -0 0.130519554 0.99144572 -0 0.130519554 0.99144572 0 0.130519554 0.99144572 0 0.130519554 0.99144572 0 0.0436203331 0.999048173 -0 0.0436203331 0.999048173 -0 0.0436203331 0.999048173 -0 0.0436203331 0.999048173 0 0.0436203331 0.999048173 0 0.0436203331 0.999048173 0 -0.0436203331 0.999048173 -0 -0.0436203331 0.999048173 -0 -0.0436203331 0.999048173 -0 -0.0436203331 0.999048173 0 -0.0436203331 0.999048173 0 -0.0436203331 0.999048173 0 -0.130519554 0.99144572 -0 -0.130519554 0.99144572 -0 -0.130519554 0.99144572 -0 -0.130519554 0.99144572 0 -0.130519554 0.99144572 0 -0.130519554 0.99144572 0 -0.216436461 0.976296723 -0 -0.216436461 0.976296723 -0 -0.216436461 0.976296723 -0 -0.216436461 0.976296723 0 -0.216436461 0.976296723 0 -0.216436461 0.976296723 0 -0.300708801 0.95371598 -0 -0.300708801 0.95371598 -0 -0.300708801 0.95371598 -0 -0.300708801 0.95371598 0 -0.300708801 0.95371598 0 -0.300708801 0.95371598 0 -0.382694662 0.923874855 -0 -0.382694662 0.923874855 -0 -0.382694662 0.923874855 -0 -0.382694662 0.923874855 0 -0.382694662 0.923874855 0 -0.382694662 0.923874855 0 -0.461741269 0.887014687 -0 -0.461741269 0.887014687 -0 -0.461741269 0.887014687 -0 -0.461741269 0.887014687 0 -0.461741269 0.887014687 0 -0.461741269 0.887014687 0 -0.537300944 0.843390584 -0 -0.537300944 0.843390584 -0 -0.537300944 0.843390584 -0 -0.537300944 0.843390584 0 -0.537300944 0.843390584 0 -0.537300944 0.843390584 0 -0.608762085 0.793352842 -0 -0.608762085 0.793352842 -0 -0.608762085 0.793352842 -0 -0.608762085 0.793352842 0 -0.608762085 0.793352842 0 -0.608762085 0.793352842 0 -0.675590813 0.737276793 -0 -0.675590813 0.737276793 -0 -0.675590813 0.737276793 -0 -0.675590813 0.737276793 0 -0.675590813 0.737276793 0 -0.675590813 0.737276793 0 -0.737276852 0.675590694 -0 -0.737276852 0.675590694 -0 -0.737276852 0.675590694 -0 -0.737276852 0.675590694 0 -0.737276852 0.675590694 0 -0.737276852 0.675590694 0 -0.79335016 0.608765543 -0 -0.79335016 0.608765543 -0 -0.79335016 0.608765543 -0 -0.79335016 0.608765543 0 -0.79335016 0.608765543 0 -0.79335016 0.608765543 0 -0.843396783 0.537291288 -0 -0.843396783 0.537291288 -0 -0.843396783 0.537291288 -0 -0.843396783 0.537291288 0 -0.843396783 0.537291288 0 -0.843396783 0.537291288 0 -0.887010813 0.4617486 -0 -0.887010813 0.4617486 -0 -0.887010813 0.4617486 -0 -0.887010813 0.4617486 0 -0.887010813 0.4617486 0 -0.887010813 0.4617486 0 -0.923878908 0.382684976 -0 -0.923878908 0.382684976 -0 -0.923878908 0.382684976 -0 -0.923878908 0.382684976 0 -0.923878908 0.382684976 0 -0.923878908 0.382684976 0 -0.953716278 0.300707906 -0 -0.953716278 0.300707906 -0 -0.953716278 0.300707906 -0 -0.953716278 0.300707906 0 -0.953716278 0.300707906 0 -0.953716278 0.300707906 0 -0.976296127 0.216439158 -0 -0.976296127 0.216439158 -0 -0.976296127 0.216439158 -0 -0.976296127 0.216439158 0 -0.976296127 0.216439158 0 -0.976296127 0.216439158 0 -0.991444767 0.130526796 -0 -0.991444767 0.130526796 -0 -0.991444767 0.130526796 -0 -0.991444767 0.130526796 0 -0.991444767 0.130526796 0 -0.991444767 0.130526796 0 -0.999048233 0.0436188877 -0 -0.999048233 0.0436188877 -0 -0.999048233 0.0436188877 -0 -0.999048233 0.0436188877 0 -0.999048233 0.0436188877 0 -0.999048233 0.0436188877 0 -0.999048233 -0.0436188877 0 -0.999048233 -0.0436188877 0 -0.999048233 -0.0436188877 0 -0.999048233 -0.0436188877 0 -0.999048233 -0.0436188877 0 -0.999048233 -0.0436188877 0 -0.991444767 -0.130526796 0 -0.991444767 -0.130526796 0 -0.991444767 -0.130526796 0 -0.991444767 -0.130526796 0 -0.991444767 -0.130526796 0 -0.991444767 -0.130526796 0 -0.976296127 -0.216439158 0 -0.976296127 -0.216439158 0 -0.976296127 -0.216439158 0 -0.976296127 -0.216439158 0 -0.976296127 -0.216439158 0 -0.976296127 -0.216439158 0 -0.953716278 -0.300707906 0 -0.953716278 -0.300707906 0 -0.953716278 -0.300707906 0 -0.953716278 -0.300707906 0 -0.953716278 -0.300707906 0 -0.953716278 -0.300707906 0 -0.923880458 -0.382681191 0 -0.923880458 -0.382681191 0 -0.923880458 -0.382681191 0 -0.923880458 -0.382681191 0 -0.923880458 -0.382681191 0 -0.923880458 -0.382681191 0 -0.887010813 -0.4617486 0 -0.887010813 -0.4617486 0 -0.887010813 -0.4617486 0 -0.887010813 -0.4617486 0 -0.887010813 -0.4617486 0 -0.887010813 -0.4617486 0 -0.843390584 -0.537300944 0 -0.843390584 -0.537300944 0 -0.843390584 -0.537300944 0 -0.843390584 -0.537300944 0 -0.843390584 -0.537300944 0 -0.843390584 -0.537300944 0 -0.793354154 -0.608760417 0 -0.793354154 -0.608760417 0 -0.793354154 -0.608760417 0 -0.793354154 -0.608760417 0 -0.793354154 -0.608760417 0 -0.793354154 -0.608760417 0 -0.737276852 -0.675590694 0 -0.737276852 -0.675590694 0 -0.737276852 -0.675590694 0 -0.737276852 -0.675590694 0 -0.737276852 -0.675590694 0 -0.737276852 -0.675590694 0 0 0 -1 0 0 -1 0 0 -1 0 -0 -1 0 -0 -1 0 -0 -1 0 0 -1 0 0 -1 0 0 -1 -0 0 -1 -0 0 -1 -0 0 -1 0 0 -1 0 0 -1 0 0 -1 0 -0 -1 0 -0 -1 0 -0 -1 -0 0 -1 -0 0 -1 -0 0 -1 -0 0 -1 -0 0 -1 -0 0 -1 0 -0 -1 0 -0 -1 0 -0 -1 -0 -0 -1 -0 -0 -1 -0 -0 -1 0 0 -1 0 0 -1 0 0 -1 0 -0 -1 0 -0 -1 0 -0 -1 -0 -0 -1 -0 -0 -1 -0 -0 -1 0 0 -1 0 0 -1 0 0 -1 0 0 -1 0 0 -1 0 0 -1 -0 -0 -1 -0 -0 -1 -0 -0 -1 0 0 -1 0 0 -1 0 0 -1 -0 -0 -1 -0 -0 -1 -0 -0 -1 0 -0 -1 0 -0 -1 0 -0 -1 -0 -0 -1 -0 -0 -1 -0 -0 -1 0 0 -1 0 0 -1 0 0 -1 0 0 -1 0 0 -1 0 0 -1 -0 -0 -1 -0 -0 -1 -0 -0 -1 0 0 -1 0 0 -1 0 0 -1 0 0 -1 0 0 -1 0 0 -1 -0 -0 -1 -0 -0 -1 -0 -0 -1 0 0 -1 0 0 -1 0 0 -1 0 0 -1 0 0 -1 0 0 -1 -0 -0 -1 -0 -0 -1 -0 -0 -1 -0 0 -1 -0 0 -1 -0 0 -1 -0 0 -1 -0 0 -1 -0 0 -1 0 0 -1 0 0 -1 0 0 -1 0 -0 -1 0 -0 -1 0 -0 -1 0 -0 -1 0 -0 -1 0 -0 -1 -0 -0 -1 -0 -0 -1 -0 -0 -1 0 0 -1 0 0 -1 0 0 -1 0 0 -1 0 0 -1 0 0 -1 0 -0 -1 0 -0 -1 0 -0 -1 0 0 -1 0 0 -1 0 0 -1 0 0 -1 0 0 -1 0 0 -1 0 0 -1 0 0 -1 0 0 -1 -0 0 -1 -0 0 -1 -0 0 -1 0 0 -1 0 0 -1 0 0 -1 0 0 -1 0 0 -1 0 0 -1 -0 0 -1 -0 0 -1 -0 0 -1 0 0 -1 0 0 -1 0 0 -1 -0 -0 -1 -0 -0 -1 -0 -0 -1 0 -0 -1 0 -0 -1 0 -0 -1 0 -0 -1 0 -0 -1 0 -0 -1 0 0 -1 0 0 -1 0 0 -1 0 -0 -1 0 -0 -1 0 -0 -1 0 -0 -1 0 -0 -1 0 -0 -1 0 0 -1 0 0 -1 0 0 -1 0 0 -1 0 0 -1 0 0 -1 -0 -0 -1 -0 -0 -1 -0 -0 -1 0 0 -1 0 0 -1 0 0 -1 -0.707108676 -0.707104862 -0 -0.707108676 -0.707104862 -0 -0.707108676 -0.707104862 -0 -0.707108676 -0.707104862 -0 -0.707108676 -0.707104862 -0 -0.707108676 -0.707104862 -0 0 -1 0 0 -1 0 0 -1 0 -0 -1 -0 -0 -1 -0 -0 -1 -0 0.999048173 -0.0436206833 0 0.999048173 -0.0436206833 0 0.999048173 -0.0436206833 0 0.999048173 -0.0436206833 0 0.999048173 -0.0436206833 0 0.999048173 -0.0436206833 0 0.991444945 -0.130525485 -0 0.991444945 -0.130525485 -0 0.991444945 -0.130525485 -0 0.991444945 -0.130525485 0 0.991444945 -0.130525485 0 0.991444945 -0.130525485 0 0.976295829 -0.216440424 -0 0.976295829 -0.216440424 -0 0.976295829 -0.216440424 -0 0.976295829 -0.216440424 0 0.976295829 -0.216440424 0 0.976295829 -0.216440424 0 0.953717053 -0.300705492 -0 0.953717053 -0.300705492 -0 0.953717053 -0.300705492 -0 0.953717053 -0.300705492 0 0.953717053 -0.300705492 0 0.953717053 -0.300705492 0 0.923880935 -0.382680058 -0 0.923880935 -0.382680058 -0 0.923880935 -0.382680058 -0 0.923880935 -0.382680058 0 0.923880935 -0.382680058 0 0.923880935 -0.382680058 0 0.887010276 -0.461749673 -0 0.887010276 -0.461749673 -0 0.887010276 -0.461749673 -0 0.887010276 -0.461749673 0 0.887010276 -0.461749673 0 0.887010276 -0.461749673 0 0.843390584 -0.537300944 -0 0.843390584 -0.537300944 -0 0.843390584 -0.537300944 -0 0.843390584 -0.537300944 0 0.843390584 -0.537300944 0 0.843390584 -0.537300944 0 0.793356836 -0.6087569 -0 0.793356836 -0.6087569 -0 0.793356836 -0.6087569 -0 0.793356836 -0.6087569 0 0.793356836 -0.6087569 0 0.793356836 -0.6087569 0 0.737278223 -0.675589263 -0 0.737278223 -0.675589263 -0 0.737278223 -0.675589263 -0 0.737278223 -0.675589263 0 0.737278223 -0.675589263 0 0.737278223 -0.675589263 0 0.675589502 -0.737277985 -0 0.675589502 -0.737277985 -0 0.675589502 -0.737277985 -0 0.675589502 -0.737277985 0 0.675589502 -0.737277985 0 0.675589502 -0.737277985 0 0.608762085 -0.793352842 -0 0.608762085 -0.793352842 -0 0.608762085 -0.793352842 -0 0.608762085 -0.793352842 0 0.608762085 -0.793352842 0 0.608762085 -0.793352842 0 0.537300944 -0.843390584 -0 0.537300944 -0.843390584 -0 0.537300944 -0.843390584 -0 0.537300944 -0.843390584 0 0.537300944 -0.843390584 0 0.537300944 -0.843390584 0 0.461741269 -0.887014687 -0 0.461741269 -0.887014687 -0 0.461741269 -0.887014687 -0 0.461741269 -0.887014687 0 0.461741269 -0.887014687 0 0.461741269 -0.887014687 0 0.382677376 -0.923882008 -0 0.382677376 -0.923882008 -0 0.382677376 -0.923882008 -0 0.382677376 -0.923882008 0 0.382677376 -0.923882008 0 0.382677376 -0.923882008 0 0.300708801 -0.95371598 -0 0.300708801 -0.95371598 -0 0.300708801 -0.95371598 -0 0.300708801 -0.95371598 0 0.300708801 -0.95371598 0 0.300708801 -0.95371598 0 0.216436461 -0.976296723 -0 0.216436461 -0.976296723 -0 0.216436461 -0.976296723 -0 0.216436461 -0.976296723 0 0.216436461 -0.976296723 0 0.216436461 -0.976296723 0 0.130540535 -0.991442978 -0 0.130540535 -0.991442978 -0 0.130540535 -0.991442978 -0 0.130540535 -0.991442978 0 0.130540535 -0.991442978 0 0.130540535 -0.991442978 0 0.0436202176 -0.999048173 -0 0.0436202176 -0.999048173 -0 0.0436202176 -0.999048173 -0 0.0436202176 -0.999048173 0 0.0436202176 -0.999048173 0 0.0436202176 -0.999048173 0 1 0 -0 1 0 -0 1 0 -0 1 0 -0 1 0 -0 1 0 -0 </float_array>
          <technique_common>
            <accessor count="684" offset="0" source="#mesh_0-normals-array" stride="3">
              <param name="X" type="float" />
              <param name="Y" type="float" />
              <param name="Z" type="float" />
            </accessor>
          </technique_common>
        </source>
        <vertices id="mesh_0-vertices">
          <input semantic="POSITION" source="#mesh_0-positions" />
        </vertices>
        <polylist count="228" material="defaultMaterial">
          <input offset="0" semantic="VERTEX" source="#mesh_0-vertices" />
          <input offset="0" semantic="NORMAL" source="#mesh_0-normals" />
          <vcount>3 3 3 3 3 3 3 3 3 3 3 3 3 3 3 3 3 3 3 3 3 3 3 3 3 3 3 3 3 3 3 3 3 3 3 3 3 3 3 3 3 3 3 3 3 3 3 3 3 3 3 3 3 3 3 3 3 3 3 3 3 3 3 3 3 3 3 3 3 3 3 3 3 3 3 3 3 3 3 3 3 3 3 3 3 3 3 3 3 3 3 3 3 3 3 3 3 3 3 3 3 3 3 3 3 3 3 3 3 3 3 3 3 3 3 3 3 3 3 3 3 3 3 3 3 3 3 3 3 3 3 3 3 3 3 3 3 3 3 3 3 3 3 3 3 3 3 3 3 3 3 3 3 3 3 3 3 3 3 3 3 3 3 3 3 3 3 3 3 3 3 3 3 3 3 3 3 3 3 3 3 3 3 3 3 3 3 3 3 3 3 3 3 3 3 3 3 3 3 3 3 3 3 3 3 3 3 3 3 3 3 3 3 3 3 3 3 3 3 3 3 3 3 3 3 3 3 3 </vcount>
          <p>0 1 2 3 4 5 6 7 8 9 10 11 12 13 14 15 16 17 18 19 20 21 22 23 24 25 26 27 28 29 30 31 32 33 34 35 36 37 38 39 40 41 42 43 44 45 46 47 48 49 50 51 52 53 54 55 56 57 58 59 60 61 62 63 64 65 66 67 68 69 70 71 72 73 74 75 76 77 78 79 80 81 82 83 84 85 86 87 88 89 90 91 92 93 94 95 96 97 98 99 100 101 102 103 104 105 106 107 108 109 110 111 112 113 114 115 116 117 118 119 120 121 122 123 124 125 126 127 128 129 130 131 132 133 134 135 136 137 138 139 140 141 142 143 144 145 146 147 148 149 150 151 152 153 154 155 156 157 158 159 160 161 162 163 164 165 166 167 168 169 170 171 172 173 174 175 176 177 178 179 180 181 182 183 184 185 186 187 188 189 190 191 192 193 194 195 196 197 198 199 200 201 202 203 204 205 206 207 208 209 210 211 212 213 214 215 216 217 218 219 220 221 222 223 224 225 226 227 228 229 230 231 232 233 234 235 236 237 238 239 240 241 242 243 244 245 246 247 248 249 250 251 252 253 254 255 256 257 258 259 260 261 262 263 264 265 266 267 268 269 270 271 272 273 274 275 276 277 278 279 280 281 282 283 284 285 286 287 288 289 290 291 292 293 294 295 296 297 298 299 300 301 302 303 304 305 306 307 308 309 310 311 312 313 314 315 316 317 318 319 320 321 322 323 324 325 326 327 328 329 330 331 332 333 334 335 336 337 338 339 340 341 342 343 344 345 346 347 348 349 350 351 352 353 354 355 356 357 358 359 360 361 362 363 364 365 366 367 368 369 370 371 372 373 374 375 376 377 378 379 380 381 382 383 384 385 386 387 388 389 390 391 392 393 394 395 396 397 398 399 400 401 402 403 404 405 406 407 408 409 410 411 412 413 414 415 416 417 418 419 420 421 422 423 424 425 426 427 428 429 430 431 432 433 434 435 436 437 438 439 440 441 442 443 444 445 446 447 448 449 450 451 452 453 454 455 456 457 458 459 460 461 462 463 464 465 466 467 468 469 470 471 472 473 474 475 476 477 478 479 480 481 482 483 484 485 486 487 488 489 490 491 492 493 494 495 496 497 498 499 500 501 502 503 504 505 506 507 508 509 510 511 512 513 514 515 516 517 518 519 520 521 522 523 524 525 526 527 528 529 530 531 532 533 534 535 536 537 538 539 540 541 542 543 544 545 546 547 548 549 550 551 552 553 554 555 556 557 558 559 560 561 562 563 564 565 566 567 568 569 570 571 572 573 574 575 576 577 578 579 580 581 582 583 584 585 586 587 588 589 590 591 592 593 594 595 596 597 598 599 600 601 602 603 604 605 606 607 608 609 610 611 612 613 614 615 616 617 618 619 620 621 622 623 624 625 626 627 628 629 630 631 632 633 634 635 636 637 638 639 640 641 642 643 644 645 646 647 648 649 650 651 652 653 654 655 656 657 658 659 660 661 662 663 664 665 666 667 668 669 670 671 672 673 674 675 676 677 678 679 680 681 682 683 </p>
        </polylist>
      </mesh>
    </geometry>
  </library_geometries>
  <library_controllers>
  </library_controllers>
  <library_visual_scenes>
    <visual_scene id="_ySTL_BINARY_" name="&lt;STL_BINARY&gt;">
      <node id="node" name="" type="NODE">
        <matrix sid="matrix">1 0 0 0 0 1 0 0 0 0 1 0 0 0 0 1</matrix>
        <instance_geometry url="#mesh_0">
          <bind_material>
            <technique_common>
              <instance_material symbol="defaultMaterial" target="#DefaultMaterial">
              </instance_material>
            </technique_common>
          </bind_material>
        </instance_geometry>
      </node>
    </visual_scene>
  </library_visual_scenes>
  <scene>
    <instance_visual_scene url="#_ySTL_BINARY_" />
  </scene>
</COLLADA>
