<?xml version="1.0" encoding="UTF-8" standalone="no" ?>
<COLLADA xmlns="http://www.collada.org/2005/11/COLLADASchema" version="1.4.1">
  <asset>
    <contributor>
      <author>Assimp</author>
      <authoring_tool>Assimp Exporter</authoring_tool>
    </contributor>
    <created>2025-12-07T16:35:04</created>
    <modified>2025-12-07T16:35:04</modified>
    <unit name="meter" meter="1" />
    <up_axis>Y_UP</up_axis>
  </asset>
  <library_images>
  </library_images>
  <library_effects>
    <effect id="DefaultMaterial-fx" name="DefaultMaterial">
      <profile_COMMON>
        <technique sid="standard">
          <phong>
            <ambient>
              <color sid="ambient">0.0500000007   0.0500000007   0.0500000007   1</color>
            </ambient>
            <diffuse>
              <color sid="diffuse">1   1   1   1</color>
            </diffuse>
            <specular>
              <color sid="specular">1   1   1   1</color>
            </specular>
          </phong>
        </technique>
      </profile_COMMON>
    </effect>
  </library_effects>
  <library_materials>
    <material id="DefaultMaterial" name="DefaultMaterial">
      <instance_effect url="#DefaultMaterial-fx"/>
    </material>
  </library_materials>
  <library_geometries>
    <geometry id="mesh_0" name="" >
      <mesh>
        <source id="mesh_0-positions" name="mesh_0-positions">
          <float_array id="mesh_0-positions-array" count="1656"> -0.0332566835 -0.00240767305 -0.110847853 -0.0331695303 -0.00340386783 -0.110847853 -0.0309256129 -0.00220373063 -0.110847853 -0.0331695303 -0.00340386783 -0.110847853 -0.0308384579 -0.00319992541 -0.110847853 -0.0309256129 -0.00220373063 -0.110847853 -0.0333002619 -0.00190957566 -0.114347853 -0.0323040672 -0.00182241993 -0.114347853 -0.0331259519 -0.00390196498 -0.114347853 -0.0323040672 -0.00182241993 -0.114347853 -0.0321297571 -0.00381480926 -0.114347853 -0.0331259519 -0.00390196498 -0.114347853 -0.0331259519 -0.00390196498 -0.111347854 -0.0307948794 -0.0036980228 -0.111347854 -0.0307950452 -0.00369612733 -0.111304276 -0.0331259519 -0.00390196498 -0.111347854 -0.0307950452 -0.00369612733 -0.111304276 -0.0331261158 -0.00390006974 -0.111304276 -0.0307950452 -0.00369612733 -0.111304276 -0.0307955425 -0.00369045557 -0.111261033 -0.0331261158 -0.00390006974 -0.111304276 -0.0331261158 -0.00390006974 -0.111304276 -0.0307955425 -0.00369045557 -0.111261033 -0.033126615 -0.00389439776 -0.111261033 -0.0307955425 -0.00369045557 -0.111261033 -0.0307963639 -0.00368105038 -0.111218445 -0.033126615 -0.00389439776 -0.111261033 -0.033126615 -0.00389439776 -0.111261033 -0.0307963639 -0.00368105038 -0.111218445 -0.0331274383 -0.0038849928 -0.111218445 -0.0307963639 -0.00368105038 -0.111218445 -0.0307975076 -0.00366798369 -0.111176848 -0.0331274383 -0.0038849928 -0.111218445 -0.0331274383 -0.0038849928 -0.111218445 -0.0307975076 -0.00366798369 -0.111176848 -0.0331285782 -0.00387192611 -0.111176848 -0.0307975076 -0.00366798369 -0.111176848 -0.0307989623 -0.00365135493 -0.111136548 -0.0331285782 -0.00387192611 -0.111176848 -0.0331285782 -0.00387192611 -0.111176848 -0.0307989623 -0.00365135493 -0.111136548 -0.0331300348 -0.00385529711 -0.111136548 -0.0307989623 -0.00365135493 -0.111136548 -0.0308007188 -0.00363129028 -0.111097857 -0.0331300348 -0.00385529711 -0.111136548 -0.0331300348 -0.00385529711 -0.111136548 -0.0308007188 -0.00363129028 -0.111097857 -0.0331317894 -0.0038352327 -0.111097857 -0.0308007188 -0.00363129028 -0.111097857 -0.0308027603 -0.00360794272 -0.111061066 -0.0331317894 -0.0038352327 -0.111097857 -0.0331317894 -0.0038352327 -0.111097857 -0.0308027603 -0.00360794272 -0.111061066 -0.0331338309 -0.00381188514 -0.111061066 -0.0308027603 -0.00360794272 -0.111061066 -0.0308050755 -0.00358149013 -0.111026466 -0.0331338309 -0.00381188514 -0.111061066 -0.0331338309 -0.00381188514 -0.111061066 -0.0308050755 -0.00358149013 -0.111026466 -0.033136148 -0.00378543232 -0.111026466 -0.0308050755 -0.00358149013 -0.111026466 -0.0308076441 -0.00355213345 -0.110994302 -0.033136148 -0.00378543232 -0.111026466 -0.033136148 -0.00378543232 -0.111026466 -0.0308076441 -0.00355213345 -0.110994302 -0.0331387147 -0.00375607563 -0.110994302 -0.0308076441 -0.00355213345 -0.110994302 -0.0308104455 -0.00352009619 -0.110964835 -0.0331387147 -0.00375607563 -0.110994302 -0.0331387147 -0.00375607563 -0.110994302 -0.0308104455 -0.00352009619 -0.110964835 -0.0331415199 -0.0037240386 -0.110964835 -0.0308104455 -0.00352009619 -0.110964835 -0.030813463 -0.00348562235 -0.110938281 -0.0331415199 -0.0037240386 -0.110964835 -0.0331415199 -0.0037240386 -0.110964835 -0.030813463 -0.00348562235 -0.110938281 -0.0331445336 -0.00368956453 -0.110938281 -0.030813463 -0.00348562235 -0.110938281 -0.0308166686 -0.00344897411 -0.110914841 -0.0331445336 -0.00368956453 -0.110938281 -0.0331445336 -0.00368956453 -0.110938281 -0.0308166686 -0.00344897411 -0.110914841 -0.0331477411 -0.00365291629 -0.110914841 -0.0308166686 -0.00344897411 -0.110914841 -0.0308200419 -0.00341043039 -0.110894702 -0.0331477411 -0.00365291629 -0.110914841 -0.0331477411 -0.00365291629 -0.110914841 -0.0308200419 -0.00341043039 -0.110894702 -0.0331511125 -0.00361437281 -0.110894702 -0.0308200419 -0.00341043039 -0.110894702 -0.030823553 -0.0033702848 -0.110878013 -0.0331511125 -0.00361437281 -0.110894702 -0.0331511125 -0.00361437281 -0.110894702 -0.030823553 -0.0033702848 -0.110878013 -0.0331546254 -0.00357422698 -0.110878013 -0.030823553 -0.0033702848 -0.110878013 -0.0308271796 -0.00332884234 -0.110864893 -0.0331546254 -0.00357422698 -0.110878013 -0.0331546254 -0.00357422698 -0.110878013 -0.0308271796 -0.00332884234 -0.110864893 -0.0331582502 -0.00353278476 -0.110864893 -0.0308271796 -0.00332884234 -0.110864893 -0.0308308899 -0.00328641897 -0.110855453 -0.0331582502 -0.00353278476 -0.110864893 -0.0331582502 -0.00353278476 -0.110864893 -0.0308308899 -0.00328641897 -0.110855453 -0.0331619605 -0.00349036139 -0.110855453 -0.0308308899 -0.00328641897 -0.110855453 -0.0308346599 -0.00324333739 -0.11084976 -0.0331619605 -0.00349036139 -0.110855453 -0.0331619605 -0.00349036139 -0.110855453 -0.0308346599 -0.00324333739 -0.11084976 -0.0331657305 -0.0034472798 -0.11084976 -0.0308346599 -0.00324333739 -0.11084976 -0.0308384579 -0.00319992541 -0.110847853 -0.0331657305 -0.0034472798 -0.11084976 -0.0331657305 -0.0034472798 -0.11084976 -0.0308384579 -0.00319992541 -0.110847853 -0.0331695303 -0.00340386783 -0.110847853 -0.0309691913 -0.00170563336 -0.111347854 -0.0333002619 -0.00190957566 -0.111347854 -0.033300098 -0.00191147113 -0.111304276 -0.0309691913 -0.00170563336 -0.111347854 -0.033300098 -0.00191147113 -0.111304276 -0.0309690256 -0.00170752872 -0.111304276 -0.033300098 -0.00191147113 -0.111304276 -0.0332996026 -0.00191714289 -0.111261033 -0.0309690256 -0.00170752872 -0.111304276 -0.0309690256 -0.00170752872 -0.111304276 -0.0332996026 -0.00191714289 -0.111261033 -0.0309685301 -0.00171320059 -0.111261033 -0.0332996026 -0.00191714289 -0.111261033 -0.0332987793 -0.00192654796 -0.111218445 -0.0309685301 -0.00171320059 -0.111261033 -0.0309685301 -0.00171320059 -0.111261033 -0.0332987793 -0.00192654796 -0.111218445 -0.0309677068 -0.00172260555 -0.111218445 -0.0332987793 -0.00192654796 -0.111218445 -0.0332976356 -0.00193961465 -0.111176848 -0.0309677068 -0.00172260555 -0.111218445 -0.0309677068 -0.00172260555 -0.111218445 -0.0332976356 -0.00193961465 -0.111176848 -0.0309665632 -0.00173567224 -0.111176848 -0.0332976356 -0.00193961465 -0.111176848 -0.033296179 -0.00195624353 -0.111136548 -0.0309665632 -0.00173567224 -0.111176848 -0.0309665632 -0.00173567224 -0.111176848 -0.033296179 -0.00195624353 -0.111136548 -0.0309651084 -0.00175230112 -0.111136548 -0.033296179 -0.00195624353 -0.111136548 -0.0332944244 -0.00197630795 -0.111097857 -0.0309651084 -0.00175230112 -0.111136548 -0.0309651084 -0.00175230112 -0.111136548 -0.0332944244 -0.00197630795 -0.111097857 -0.0309633538 -0.00177236577 -0.111097857 -0.0332944244 -0.00197630795 -0.111097857 -0.033292383 -0.00199965551 -0.111061066 -0.0309633538 -0.00177236577 -0.111097857 -0.0309633538 -0.00177236577 -0.111097857 -0.033292383 -0.00199965551 -0.111061066 -0.0309613105 -0.00179571321 -0.111061066 -0.033292383 -0.00199965551 -0.111061066 -0.0332900696 -0.00202610833 -0.111026466 -0.0309613105 -0.00179571321 -0.111061066 -0.0309613105 -0.00179571321 -0.111061066 -0.0332900696 -0.00202610833 -0.111026466 -0.0309589952 -0.00182216591 -0.111026466 -0.0332900696 -0.00202610833 -0.111026466 -0.0332874991 -0.00205546501 -0.110994302 -0.0309589952 -0.00182216591 -0.111026466 -0.0309589952 -0.00182216591 -0.111026466 -0.0332874991 -0.00205546501 -0.110994302 -0.0309564285 -0.00185152271 -0.110994302 -0.0332874991 -0.00205546501 -0.110994302 -0.0332846977 -0.00208750227 -0.110964835 -0.0309564285 -0.00185152271 -0.110994302 -0.0309564285 -0.00185152271 -0.110994302 -0.0332846977 -0.00208750227 -0.110964835 -0.0309536252 -0.00188355986 -0.110964835 -0.0332846977 -0.00208750227 -0.110964835 -0.0332816802 -0.00212197611 -0.110938281 -0.0309536252 -0.00188355986 -0.110964835 -0.0309536252 -0.00188355986 -0.110964835 -0.0332816802 -0.00212197611 -0.110938281 -0.0309506096 -0.00191803381 -0.110938281 -0.0332816802 -0.00212197611 -0.110938281 -0.0332784727 -0.00215862435 -0.110914841 -0.0309506096 -0.00191803381 -0.110938281 -0.0309506096 -0.00191803381 -0.110938281 -0.0332784727 -0.00215862435 -0.110914841 -0.0309474021 -0.00195468194 -0.110914841 -0.0332784727 -0.00215862435 -0.110914841 -0.0332751013 -0.00219716807 -0.110894702 -0.0309474021 -0.00195468194 -0.110914841 -0.0309474021 -0.00195468194 -0.110914841 -0.0332751013 -0.00219716807 -0.110894702 -0.0309440307 -0.00199322565 -0.110894702 -0.0332751013 -0.00219716807 -0.110894702 -0.0332715884 -0.00223731366 -0.110878013 -0.0309440307 -0.00199322565 -0.110894702 -0.0309440307 -0.00199322565 -0.110894702 -0.0332715884 -0.00223731366 -0.110878013 -0.0309405178 -0.00203337125 -0.110878013 -0.0332715884 -0.00223731366 -0.110878013 -0.0332679637 -0.00227875588 -0.110864893 -0.0309405178 -0.00203337125 -0.110878013 -0.0309405178 -0.00203337125 -0.110878013 -0.0332679637 -0.00227875588 -0.110864893 -0.0309368931 -0.0020748137 -0.110864893 -0.0332679637 -0.00227875588 -0.110864893 -0.0332642533 -0.00232117926 -0.110855453 -0.0309368931 -0.0020748137 -0.110864893 -0.0309368931 -0.0020748137 -0.110864893 -0.0332642533 -0.00232117926 -0.110855453 -0.0309331808 -0.00211723708 -0.110855453 -0.0332642533 -0.00232117926 -0.110855453 -0.0332604833 -0.00236426108 -0.11084976 -0.0309331808 -0.00211723708 -0.110855453 -0.0309331808 -0.00211723708 -0.110855453 -0.0332604833 -0.00236426108 -0.11084976 -0.0309294108 -0.00216031866 -0.11084976 -0.0332604833 -0.00236426108 -0.11084976 -0.0332566835 -0.00240767305 -0.110847853 -0.0309294108 -0.00216031866 -0.11084976 -0.0309294108 -0.00216031866 -0.11084976 -0.0332566835 -0.00240767305 -0.110847853 -0.0309256129 -0.00220373063 -0.110847853 -0.0331657305 -0.0034472798 -0.11084976 -0.0331695303 -0.00340386783 -0.110847853 -0.0331259519 -0.00390196498 -0.111347854 -0.0331511125 -0.00361437281 -0.110894702 -0.0331546254 -0.00357422698 -0.110878013 -0.0331259519 -0.00390196498 -0.111347854 -0.0332566835 -0.00240767305 -0.110847853 -0.0333002619 -0.00190957566 -0.114347853 -0.0331695303 -0.00340386783 -0.110847853 -0.0333002619 -0.00190957566 -0.114347853 -0.0331259519 -0.00390196498 -0.114347853 -0.0331695303 -0.00340386783 -0.110847853 -0.0331695303 -0.00340386783 -0.110847853 -0.0331259519 -0.00390196498 -0.114347853 -0.0331259519 -0.00390196498 -0.111347854 -0.0331300348 -0.00385529711 -0.111136548 -0.0331317894 -0.0038352327 -0.111097857 -0.0331259519 -0.00390196498 -0.111347854 -0.0331511125 -0.00361437281 -0.110894702 -0.0331259519 -0.00390196498 -0.111347854 -0.0331477411 -0.00365291629 -0.110914841 -0.0331546254 -0.00357422698 -0.110878013 -0.0331582502 -0.00353278476 -0.110864893 -0.0331259519 -0.00390196498 -0.111347854 -0.0331582502 -0.00353278476 -0.110864893 -0.0331619605 -0.00349036139 -0.110855453 -0.0331259519 -0.00390196498 -0.111347854 -0.0331259519 -0.00390196498 -0.111347854 -0.0331619605 -0.00349036139 -0.110855453 -0.0331657305 -0.0034472798 -0.11084976 -0.0332900696 -0.00202610833 -0.111026466 -0.033292383 -0.00199965551 -0.111061066 -0.033300098 -0.00191147113 -0.111304276 -0.0331259519 -0.00390196498 -0.111347854 -0.0331261158 -0.00390006974 -0.111304276 -0.033126615 -0.00389439776 -0.111261033 -0.0331387147 -0.00375607563 -0.110994302 -0.0331415199 -0.0037240386 -0.110964835 -0.0331259519 -0.00390196498 -0.111347854 -0.0331415199 -0.0037240386 -0.110964835 -0.0331445336 -0.00368956453 -0.110938281 -0.0331259519 -0.00390196498 -0.111347854 -0.0331259519 -0.00390196498 -0.111347854 -0.0331445336 -0.00368956453 -0.110938281 -0.0331477411 -0.00365291629 -0.110914841 -0.0332604833 -0.00236426108 -0.11084976 -0.033300098 -0.00191147113 -0.111304276 -0.0332566835 -0.00240767305 -0.110847853 -0.033300098 -0.00191147113 -0.111304276 -0.0333002619 -0.00190957566 -0.111347854 -0.0332566835 -0.00240767305 -0.110847853 -0.0332566835 -0.00240767305 -0.110847853 -0.0333002619 -0.00190957566 -0.111347854 -0.0333002619 -0.00190957566 -0.114347853 -0.033126615 -0.00389439776 -0.111261033 -0.0331274383 -0.0038849928 -0.111218445 -0.0331259519 -0.00390196498 -0.111347854 -0.0331274383 -0.0038849928 -0.111218445 -0.0331285782 -0.00387192611 -0.111176848 -0.0331259519 -0.00390196498 -0.111347854 -0.0331259519 -0.00390196498 -0.111347854 -0.0331285782 -0.00387192611 -0.111176848 -0.0331300348 -0.00385529711 -0.111136548 -0.0331317894 -0.0038352327 -0.111097857 -0.0331338309 -0.00381188514 -0.111061066 -0.0331259519 -0.00390196498 -0.111347854 -0.0331338309 -0.00381188514 -0.111061066 -0.033136148 -0.00378543232 -0.111026466 -0.0331259519 -0.00390196498 -0.111347854 -0.0331259519 -0.00390196498 -0.111347854 -0.033136148 -0.00378543232 -0.111026466 -0.0331387147 -0.00375607563 -0.110994302 -0.033300098 -0.00191147113 -0.111304276 -0.0332976356 -0.00193961465 -0.111176848 -0.0332996026 -0.00191714289 -0.111261033 -0.0332976356 -0.00193961465 -0.111176848 -0.0332987793 -0.00192654796 -0.111218445 -0.0332996026 -0.00191714289 -0.111261033 -0.0332604833 -0.00236426108 -0.11084976 -0.0332642533 -0.00232117926 -0.110855453 -0.033300098 -0.00191147113 -0.111304276 -0.0332642533 -0.00232117926 -0.110855453 -0.0332679637 -0.00227875588 -0.110864893 -0.033300098 -0.00191147113 -0.111304276 -0.033300098 -0.00191147113 -0.111304276 -0.0332679637 -0.00227875588 -0.110864893 -0.0332715884 -0.00223731366 -0.110878013 -0.0332715884 -0.00223731366 -0.110878013 -0.0332751013 -0.00219716807 -0.110894702 -0.033300098 -0.00191147113 -0.111304276 -0.0332751013 -0.00219716807 -0.110894702 -0.0332784727 -0.00215862435 -0.110914841 -0.033300098 -0.00191147113 -0.111304276 -0.033300098 -0.00191147113 -0.111304276 -0.0332784727 -0.00215862435 -0.110914841 -0.0332816802 -0.00212197611 -0.110938281 -0.0332816802 -0.00212197611 -0.110938281 -0.0332846977 -0.00208750227 -0.110964835 -0.033300098 -0.00191147113 -0.111304276 -0.0332846977 -0.00208750227 -0.110964835 -0.0332874991 -0.00205546501 -0.110994302 -0.033300098 -0.00191147113 -0.111304276 -0.033300098 -0.00191147113 -0.111304276 -0.0332874991 -0.00205546501 -0.110994302 -0.0332900696 -0.00202610833 -0.111026466 -0.033292383 -0.00199965551 -0.111061066 -0.0332944244 -0.00197630795 -0.111097857 -0.033300098 -0.00191147113 -0.111304276 -0.0332944244 -0.00197630795 -0.111097857 -0.033296179 -0.00195624353 -0.111136548 -0.033300098 -0.00191147113 -0.111304276 -0.033300098 -0.00191147113 -0.111304276 -0.033296179 -0.00195624353 -0.111136548 -0.0332976356 -0.00193961465 -0.111176848 -0.0323040672 -0.00182241993 -0.114347853 -0.0323040672 -0.00182241993 -0.115347855 -0.0321297571 -0.00381480926 -0.114347853 -0.0323040672 -0.00182241993 -0.115347855 -0.0321297571 -0.00381480926 -0.115347855 -0.0321297571 -0.00381480926 -0.114347853 -0.0321297571 -0.00381480926 -0.114347853 -0.0321297571 -0.00381480926 -0.115347855 -0.0319305174 -0.00379737816 -0.115547858 -0.0331259519 -0.00390196498 -0.111347854 -0.0331259519 -0.00390196498 -0.114347853 -0.0307948794 -0.0036980228 -0.111347854 -0.0331259519 -0.00390196498 -0.114347853 -0.0321297571 -0.00381480926 -0.114347853 -0.0307948794 -0.0036980228 -0.111347854 -0.0307948794 -0.0036980228 -0.111347854 -0.0321297571 -0.00381480926 -0.114347853 -0.0307948794 -0.0036980228 -0.115547858 -0.0321297571 -0.00381480926 -0.114347853 -0.0319305174 -0.00379737816 -0.115547858 -0.0307948794 -0.0036980228 -0.115547858 -0.0323040672 -0.00182241993 -0.114347853 -0.0333002619 -0.00190957566 -0.114347853 -0.0333002619 -0.00190957566 -0.111347854 -0.0321048312 -0.00180498883 -0.115547858 -0.0323040672 -0.00182241993 -0.115347855 -0.0309691913 -0.00170563336 -0.115547858 -0.0323040672 -0.00182241993 -0.115347855 -0.0323040672 -0.00182241993 -0.114347853 -0.0309691913 -0.00170563336 -0.115547858 -0.0309691913 -0.00170563336 -0.115547858 -0.0323040672 -0.00182241993 -0.114347853 -0.0309691913 -0.00170563336 -0.111347854 -0.0323040672 -0.00182241993 -0.114347853 -0.0333002619 -0.00190957566 -0.111347854 -0.0309691913 -0.00170563336 -0.111347854 -0.0321048312 -0.00180498883 -0.115547858 -0.0319305174 -0.00379737816 -0.115547858 -0.0323040672 -0.00182241993 -0.115347855 -0.0319305174 -0.00379737816 -0.115547858 -0.0321297571 -0.00381480926 -0.115347855 -0.0323040672 -0.00182241993 -0.115347855 -0.0310127698 -0.00120753597 -0.115547858 -0.0310127698 -0.00120753597 -0.11034786 -0.0305146724 -0.00116395811 -0.115547858 -0.0310127698 -0.00120753597 -0.11034786 -0.0305146724 -0.00116395811 -0.11034786 -0.0305146724 -0.00116395811 -0.115547858 -0.0305146724 -0.00116395811 -0.11034786 -0.0302532054 -0.00415254198 -0.11034786 -0.0305146724 -0.00116395811 -0.115547858 -0.0302532054 -0.00415254198 -0.11034786 -0.0302532054 -0.00415254198 -0.115547858 -0.0305146724 -0.00116395811 -0.115547858 -0.0309691913 -0.00170563336 -0.115547858 -0.0310127698 -0.00120753597 -0.115547858 -0.0305146724 -0.00116395811 -0.115547858 -0.0302532054 -0.00415254198 -0.115547858 -0.0307513028 -0.00419611996 -0.115547858 -0.0307948794 -0.0036980228 -0.115547858 -0.0319305174 -0.00379737816 -0.115547858 -0.0321048312 -0.00180498883 -0.115547858 -0.0307948794 -0.0036980228 -0.115547858 -0.0321048312 -0.00180498883 -0.115547858 -0.0309691913 -0.00170563336 -0.115547858 -0.0307948794 -0.0036980228 -0.115547858 -0.0307948794 -0.0036980228 -0.115547858 -0.0309691913 -0.00170563336 -0.115547858 -0.0302532054 -0.00415254198 -0.115547858 -0.0309691913 -0.00170563336 -0.115547858 -0.0305146724 -0.00116395811 -0.115547858 -0.0302532054 -0.00415254198 -0.115547858 -0.0307513028 -0.00419611996 -0.11034786 -0.0307513028 -0.00419611996 -0.115547858 -0.0302532054 -0.00415254198 -0.11034786 -0.0307513028 -0.00419611996 -0.115547858 -0.0302532054 -0.00415254198 -0.115547858 -0.0302532054 -0.00415254198 -0.11034786 -0.0310127698 -0.00120753597 -0.11034786 -0.0307513028 -0.00419611996 -0.11034786 -0.0305146724 -0.00116395811 -0.11034786 -0.0307513028 -0.00419611996 -0.11034786 -0.0302532054 -0.00415254198 -0.11034786 -0.0305146724 -0.00116395811 -0.11034786 -0.0307948794 -0.0036980228 -0.115547858 -0.0307513028 -0.00419611996 -0.115547858 -0.0307948794 -0.0036980228 -0.111347854 -0.0307513028 -0.00419611996 -0.115547858 -0.0307513028 -0.00419611996 -0.11034786 -0.0307948794 -0.0036980228 -0.111347854 -0.0307948794 -0.0036980228 -0.111347854 -0.0307513028 -0.00419611996 -0.11034786 -0.0307950452 -0.00369612733 -0.111304276 -0.0307513028 -0.00419611996 -0.11034786 -0.0307955425 -0.00369045557 -0.111261033 -0.0307950452 -0.00369612733 -0.111304276 -0.0309536252 -0.00188355986 -0.110964835 -0.0309506096 -0.00191803381 -0.110938281 -0.0310127698 -0.00120753597 -0.11034786 -0.0309506096 -0.00191803381 -0.110938281 -0.0309474021 -0.00195468194 -0.110914841 -0.0310127698 -0.00120753597 -0.11034786 -0.0310127698 -0.00120753597 -0.11034786 -0.0309474021 -0.00195468194 -0.110914841 -0.0309440307 -0.00199322565 -0.110894702 -0.0309440307 -0.00199322565 -0.110894702 -0.0309405178 -0.00203337125 -0.110878013 -0.0310127698 -0.00120753597 -0.11034786 -0.0309405178 -0.00203337125 -0.110878013 -0.0309368931 -0.0020748137 -0.110864893 -0.0310127698 -0.00120753597 -0.11034786 -0.0310127698 -0.00120753597 -0.11034786 -0.0309368931 -0.0020748137 -0.110864893 -0.0309331808 -0.00211723708 -0.110855453 -0.0308346599 -0.00324333739 -0.11084976 -0.0308308899 -0.00328641897 -0.110855453 -0.0307513028 -0.00419611996 -0.11034786 -0.0308308899 -0.00328641897 -0.110855453 -0.0308271796 -0.00332884234 -0.110864893 -0.0307513028 -0.00419611996 -0.11034786 -0.0307513028 -0.00419611996 -0.11034786 -0.0308271796 -0.00332884234 -0.110864893 -0.030823553 -0.0033702848 -0.110878013 -0.0310127698 -0.00120753597 -0.115547858 -0.0309691913 -0.00170563336 -0.115547858 -0.0310127698 -0.00120753597 -0.11034786 -0.0309691913 -0.00170563336 -0.115547858 -0.0309691913 -0.00170563336 -0.111347854 -0.0310127698 -0.00120753597 -0.11034786 -0.0309331808 -0.00211723708 -0.110855453 -0.0309294108 -0.00216031866 -0.11084976 -0.0310127698 -0.00120753597 -0.11034786 -0.0309294108 -0.00216031866 -0.11084976 -0.0309256129 -0.00220373063 -0.110847853 -0.0310127698 -0.00120753597 -0.11034786 -0.0310127698 -0.00120753597 -0.11034786 -0.0309256129 -0.00220373063 -0.110847853 -0.0307513028 -0.00419611996 -0.11034786 -0.0309256129 -0.00220373063 -0.110847853 -0.0308384579 -0.00319992541 -0.110847853 -0.0307513028 -0.00419611996 -0.11034786 -0.0307513028 -0.00419611996 -0.11034786 -0.0308384579 -0.00319992541 -0.110847853 -0.0308346599 -0.00324333739 -0.11084976 -0.030823553 -0.0033702848 -0.110878013 -0.0308200419 -0.00341043039 -0.110894702 -0.0307513028 -0.00419611996 -0.11034786 -0.0308200419 -0.00341043039 -0.110894702 -0.0308166686 -0.00344897411 -0.110914841 -0.0307513028 -0.00419611996 -0.11034786 -0.0307513028 -0.00419611996 -0.11034786 -0.0308166686 -0.00344897411 -0.110914841 -0.030813463 -0.00348562235 -0.110938281 -0.030813463 -0.00348562235 -0.110938281 -0.0308104455 -0.00352009619 -0.110964835 -0.0307513028 -0.00419611996 -0.11034786 -0.0308104455 -0.00352009619 -0.110964835 -0.0308076441 -0.00355213345 -0.110994302 -0.0307513028 -0.00419611996 -0.11034786 -0.0307513028 -0.00419611996 -0.11034786 -0.0308076441 -0.00355213345 -0.110994302 -0.0308050755 -0.00358149013 -0.111026466 -0.0309691913 -0.00170563336 -0.111347854 -0.0309690256 -0.00170752872 -0.111304276 -0.0310127698 -0.00120753597 -0.11034786 -0.0309690256 -0.00170752872 -0.111304276 -0.0309685301 -0.00171320059 -0.111261033 -0.0310127698 -0.00120753597 -0.11034786 -0.0310127698 -0.00120753597 -0.11034786 -0.0309685301 -0.00171320059 -0.111261033 -0.0309677068 -0.00172260555 -0.111218445 -0.0310127698 -0.00120753597 -0.11034786 -0.0309633538 -0.00177236577 -0.111097857 -0.0309613105 -0.00179571321 -0.111061066 -0.0309677068 -0.00172260555 -0.111218445 -0.0309665632 -0.00173567224 -0.111176848 -0.0310127698 -0.00120753597 -0.11034786 -0.0309665632 -0.00173567224 -0.111176848 -0.0309651084 -0.00175230112 -0.111136548 -0.0310127698 -0.00120753597 -0.11034786 -0.0310127698 -0.00120753597 -0.11034786 -0.0309651084 -0.00175230112 -0.111136548 -0.0309633538 -0.00177236577 -0.111097857 -0.0309613105 -0.00179571321 -0.111061066 -0.0309589952 -0.00182216591 -0.111026466 -0.0310127698 -0.00120753597 -0.11034786 -0.0309589952 -0.00182216591 -0.111026466 -0.0309564285 -0.00185152271 -0.110994302 -0.0310127698 -0.00120753597 -0.11034786 -0.0310127698 -0.00120753597 -0.11034786 -0.0309564285 -0.00185152271 -0.110994302 -0.0309536252 -0.00188355986 -0.110964835 -0.0308050755 -0.00358149013 -0.111026466 -0.0308027603 -0.00360794272 -0.111061066 -0.0307513028 -0.00419611996 -0.11034786 -0.0308027603 -0.00360794272 -0.111061066 -0.0308007188 -0.00363129028 -0.111097857 -0.0307513028 -0.00419611996 -0.11034786 -0.0307513028 -0.00419611996 -0.11034786 -0.0308007188 -0.00363129028 -0.111097857 -0.0307989623 -0.00365135493 -0.111136548 -0.0307989623 -0.00365135493 -0.111136548 -0.0307975076 -0.00366798369 -0.111176848 -0.0307513028 -0.00419611996 -0.11034786 -0.0307975076 -0.00366798369 -0.111176848 -0.0307963639 -0.00368105038 -0.111218445 -0.0307513028 -0.00419611996 -0.11034786 -0.0307513028 -0.00419611996 -0.11034786 -0.0307963639 -0.00368105038 -0.111218445 -0.0307955425 -0.00369045557 -0.111261033 </float_array>
          <technique_common>
            <accessor count="552" offset="0" source="#mesh_0-positions-array" stride="3">
              <param name="X" type="float" />
              <param name="Y" type="float" />
              <param name="Z" type="float" />
            </accessor>
          </technique_common>
        </source>
        <source id="mesh_0-normals" name="mesh_0-normals">
          <float_array id="mesh_0-normals-array" count="1656"> -0 0 1 -0 0 1 -0 0 1 -0 -0 1 -0 -0 1 -0 -0 1 0 0 -1 0 0 -1 0 0 -1 -0 -0 -1 -0 -0 -1 -0 -0 -1 0.0870726854 -0.99524653 0.043620158 0.0870726854 -0.99524653 0.043620158 0.0870726854 -0.99524653 0.043620158 0.0870728865 -0.995246887 0.0436111353 0.0870728865 -0.995246887 0.0436111353 0.0870728865 -0.995246887 0.0436111353 0.086410068 -0.987670779 0.130536228 0.086410068 -0.987670779 0.130536228 0.086410068 -0.987670779 0.130536228 0.0864097998 -0.987669647 0.13054511 0.0864097998 -0.987669647 0.13054511 0.0864097998 -0.987669647 0.13054511 0.0850898921 -0.972582996 0.216430232 0.0850898921 -0.972582996 0.216430232 0.0850898921 -0.972582996 0.216430232 0.0850899443 -0.972583294 0.216428712 0.0850899443 -0.972583294 0.216428712 0.0850899443 -0.972583294 0.216428712 0.083121106 -0.950079322 0.300732642 0.083121106 -0.950079322 0.300732642 0.083121106 -0.950079322 0.300732642 0.0831214264 -0.950081468 0.300725877 0.0831214264 -0.950081468 0.300725877 0.0831214264 -0.950081468 0.300725877 0.0805219039 -0.920368791 0.382671475 0.0805219039 -0.920368791 0.382671475 0.0805219039 -0.920368791 0.382671475 0.0805214718 -0.920365632 0.382679194 0.0805214718 -0.920365632 0.382679194 0.0805214718 -0.920365632 0.382679194 0.0773078427 -0.883633733 0.461752057 0.0773078427 -0.883633733 0.461752057 0.0773078427 -0.883633733 0.461752057 0.0773083121 -0.883637369 0.461744964 0.0773083121 -0.883637369 0.461744964 0.0773083121 -0.883637369 0.461744964 0.0735080913 -0.840200603 0.537270367 0.0735080913 -0.840200603 0.537270367 0.0735080913 -0.840200603 0.537270367 0.0735080913 -0.840200603 0.537270367 0.0735080913 -0.840200603 0.537270367 0.0735080913 -0.840200603 0.537270367 0.0691416636 -0.790292203 0.608816564 0.0691416636 -0.790292203 0.608816564 0.0691416636 -0.790292203 0.608816564 0.0691411495 -0.790287912 0.608822286 0.0691411495 -0.790287912 0.608822286 0.0691411495 -0.790287912 0.608822286 0.06426204 -0.734519303 0.675538123 0.06426204 -0.734519303 0.675538123 0.06426204 -0.734519303 0.675538123 0.0642622486 -0.734521151 0.675536096 0.0642622486 -0.734521151 0.675536096 0.0642622486 -0.734521151 0.675536096 0.0588796809 -0.672998071 0.737296939 0.0588796809 -0.672998071 0.737296939 0.0588796809 -0.672998071 0.737296939 0.0588795617 -0.672996998 0.737297893 0.0588795617 -0.672996998 0.737297893 0.0588795617 -0.672996998 0.737297893 0.0530570447 -0.606445253 0.793353081 0.0530570447 -0.606445253 0.793353081 0.0530570447 -0.606445253 0.793353081 0.0530571565 -0.606446266 0.793352306 0.0530571565 -0.606446266 0.793352306 0.0530571565 -0.606446266 0.793352306 0.0468328185 -0.535301745 0.843361557 0.0468328185 -0.535301745 0.843361557 0.0468328185 -0.535301745 0.843361557 0.046832636 -0.535300076 0.843362629 0.046832636 -0.535300076 0.843362629 0.046832636 -0.535300076 0.843362629 0.0402402841 -0.459949046 0.887033045 0.0402402841 -0.459949046 0.887033045 0.0402402841 -0.459949046 0.887033045 0.0402406827 -0.459952742 0.887031078 0.0402406827 -0.459952742 0.887031078 0.0402406827 -0.459952742 0.887031078 0.033347927 -0.381168246 0.923904061 0.033347927 -0.381168246 0.923904061 0.033347927 -0.381168246 0.923904061 0.0333475843 -0.381165087 0.923905373 0.0333475843 -0.381165087 0.923905373 0.0333475843 -0.381165087 0.923905373 0.0262150783 -0.299640059 0.953692079 0.0262150783 -0.299640059 0.953692079 0.0262150783 -0.299640059 0.953692079 0.026215354 -0.299642622 0.953691304 0.026215354 -0.299642622 0.953691304 0.026215354 -0.299642622 0.953691304 0.0188619643 -0.21559307 0.976301134 0.0188619643 -0.21559307 0.976301134 0.0188619643 -0.21559307 0.976301134 0.0188619643 -0.21559307 0.976301134 0.0188619643 -0.21559307 0.976301134 0.0188619643 -0.21559307 0.976301134 0.0113737006 -0.130001888 0.991448522 0.0113737006 -0.130001888 0.991448522 0.0113737006 -0.130001888 0.991448522 0.0113737006 -0.130001888 0.991448522 0.0113737006 -0.130001888 0.991448522 0.0113737006 -0.130001888 0.991448522 0.00381105882 -0.0435605682 0.999043524 0.00381105882 -0.0435605682 0.999043524 0.00381105882 -0.0435605682 0.999043524 0.00381104159 -0.0435604043 0.999043524 0.00381104159 -0.0435604043 0.999043524 0.00381104159 -0.0435604043 0.999043524 -0.0870728195 0.995246649 0.0436164439 -0.0870728195 0.995246649 0.0436164439 -0.0870728195 0.995246649 0.0436164439 -0.0870727971 0.995246649 0.0436175056 -0.0870727971 0.995246649 0.0436175056 -0.0870727971 0.995246649 0.0436175056 -0.0864100382 0.987671256 0.130532563 -0.0864100382 0.987671256 0.130532563 -0.0864100382 0.987671256 0.130532563 -0.0864099637 0.987670958 0.130535185 -0.0864099637 0.987670958 0.130535185 -0.0864099637 0.987670958 0.130535185 -0.0850899145 0.972582757 0.216431245 -0.0850899145 0.972582757 0.216431245 -0.0850899145 0.972582757 0.216431245 -0.0850900114 0.972583294 0.216428712 -0.0850900114 0.972583294 0.216428712 -0.0850900114 0.972583294 0.216428712 -0.0831211731 0.950079322 0.300732642 -0.0831211731 0.950079322 0.300732642 -0.0831211731 0.950079322 0.300732642 -0.0831211731 0.950079322 0.300732642 -0.0831211731 0.950079322 0.300732642 -0.0831211731 0.950079322 0.300732642 -0.0805216432 0.920366585 0.382676929 -0.0805216432 0.920366585 0.382676929 -0.0805216432 0.920366585 0.382676929 -0.080521822 0.920367897 0.38267374 -0.080521822 0.920367897 0.38267374 -0.080521822 0.920367897 0.38267374 -0.0773083121 0.883637369 0.461744964 -0.0773083121 0.883637369 0.461744964 -0.0773083121 0.883637369 0.461744964 -0.0773080364 0.883635223 0.461749136 -0.0773080364 0.883635223 0.461749136 -0.0773080364 0.883635223 0.461749136 -0.0735080019 0.840200663 0.537270367 -0.0735080019 0.840200663 0.537270367 -0.0735080019 0.840200663 0.537270367 -0.0735079497 0.840200186 0.537271142 -0.0735079497 0.840200186 0.537271142 -0.0735079497 0.840200186 0.537271142 -0.0691415071 0.790291488 0.608817577 -0.0691415071 0.790291488 0.608817577 -0.0691415071 0.790291488 0.608817577 -0.0691414475 0.790290952 0.608818233 -0.0691414475 0.790290952 0.608818233 -0.0691414475 0.790290952 0.608818233 -0.0642618984 0.734517455 0.675540149 -0.0642618984 0.734517455 0.675540149 -0.0642618984 0.734517455 0.675540149 -0.0642621741 0.734519839 0.675537586 -0.0642621741 0.734519839 0.675537586 -0.0642621741 0.734519839 0.675537586 -0.0588797145 0.672998071 0.737296939 -0.0588797145 0.672998071 0.737296939 -0.0588797145 0.672998071 0.737296939 -0.0588796549 0.672997534 0.737297416 -0.0588796549 0.672997534 0.737297416 -0.0588796549 0.672997534 0.737297416 -0.0530570857 0.606445253 0.793353081 -0.0530570857 0.606445253 0.793353081 -0.0530570857 0.606445253 0.793353081 -0.0530571416 0.606445789 0.793352664 -0.0530571416 0.606445789 0.793352664 -0.0530571416 0.606445789 0.793352664 -0.0468326993 0.535300076 0.843362629 -0.0468326993 0.535300076 0.843362629 -0.0468326993 0.535300076 0.843362629 -0.0468328297 0.535301268 0.843361855 -0.0468328297 0.535301268 0.843361855 -0.0468328297 0.535301268 0.843361855 -0.0402404927 0.459950566 0.887032211 -0.0402404927 0.459950566 0.887032211 -0.0402404927 0.459950566 0.887032211 -0.0402404927 0.459950566 0.887032211 -0.0402404927 0.459950566 0.887032211 -0.0402404927 0.459950566 0.887032211 -0.0333478115 0.381166935 0.923904598 -0.0333478115 0.381166935 0.923904598 -0.0333478115 0.381166935 0.923904598 -0.0333478115 0.381166935 0.923904598 -0.0333478115 0.381166935 0.923904598 -0.0333478115 0.381166935 0.923904598 -0.026215354 0.299642622 0.953691304 -0.026215354 0.299642622 0.953691304 -0.026215354 0.299642622 0.953691304 -0.0262151919 0.299641103 0.953691781 -0.0262151919 0.299641103 0.953691781 -0.0262151919 0.299641103 0.953691781 -0.0188619439 0.215593085 0.976301134 -0.0188619439 0.215593085 0.976301134 -0.0188619439 0.215593085 0.976301134 -0.01886186 0.215592295 0.976301253 -0.01886186 0.215592295 0.976301253 -0.01886186 0.215592295 0.976301253 -0.0113736186 0.130001202 0.991448581 -0.0113736186 0.130001202 0.991448581 -0.0113736186 0.130001202 0.991448581 -0.0113736922 0.130001888 0.991448522 -0.0113736922 0.130001888 0.991448522 -0.0113736922 0.130001888 0.991448522 -0.00381104159 0.0435604043 0.999043524 -0.00381104159 0.0435604043 0.999043524 -0.00381104159 0.0435604043 0.999043524 -0.00381105882 0.0435605682 0.999043524 -0.00381105882 0.0435605682 0.999043524 -0.00381105882 0.0435605682 0.999043524 -0.996191084 -0.0871971473 4.03815466e-05 -0.996191084 -0.0871971473 4.03815466e-05 -0.996191084 -0.0871971473 4.03815466e-05 -0.996192753 -0.0871778429 1.51106742e-05 -0.996192753 -0.0871778429 1.51106742e-05 -0.996192753 -0.0871778429 1.51106742e-05 -0.996194899 -0.0871531814 5.30159355e-07 -0.996194899 -0.0871531814 5.30159355e-07 -0.996194899 -0.0871531814 5.30159355e-07 -0.99619478 -0.0871550366 -2.69428e-07 -0.99619478 -0.0871550366 -2.69428e-07 -0.99619478 -0.0871550366 -2.69428e-07 -0.996194601 -0.0871569142 0 -0.996194601 -0.0871569142 0 -0.996194601 -0.0871569142 0 -0.996200681 -0.087087214 -1.52887478e-05 -0.996200681 -0.087087214 -1.52887478e-05 -0.996200681 -0.087087214 -1.52887478e-05 -0.996197104 -0.0871284828 -1.64554094e-05 -0.996197104 -0.0871284828 -1.64554094e-05 -0.996197104 -0.0871284828 -1.64554094e-05 -0.996197462 -0.0871244222 -2.24382165e-05 -0.996197462 -0.0871244222 -2.24382165e-05 -0.996197462 -0.0871244222 -2.24382165e-05 -0.996197522 -0.0871231928 -2.33832961e-05 -0.996197522 -0.0871231928 -2.33832961e-05 -0.996197522 -0.0871231928 -2.33832961e-05 -0.996192753 -0.0871780962 2.2859851e-05 -0.996192753 -0.0871780962 2.2859851e-05 -0.996192753 -0.0871780962 2.2859851e-05 -0.996200323 -0.0870911554 2.33659521e-05 -0.996200323 -0.0870911554 2.33659521e-05 -0.996200323 -0.0870911554 2.33659521e-05 -0.996083498 -0.0884173661 9.87058665e-05 -0.996083498 -0.0884173661 9.87058665e-05 -0.996083498 -0.0884173661 9.87058665e-05 -0.996184528 -0.0872718692 5.05954195e-05 -0.996184528 -0.0872718692 5.05954195e-05 -0.996184528 -0.0872718692 5.05954195e-05 -0.996204197 -0.0870471969 -5.4571683e-05 -0.996204197 -0.0870471969 -5.4571683e-05 -0.996204197 -0.0870471969 -5.4571683e-05 -0.996190369 -0.0872049779 2.78788302e-05 -0.996190369 -0.0872049779 2.78788302e-05 -0.996190369 -0.0872049779 2.78788302e-05 -0.996191084 -0.087197125 -3.98950651e-05 -0.996191084 -0.087197125 -3.98950651e-05 -0.996191084 -0.087197125 -3.98950651e-05 -0.996190608 -0.0872026384 -4.59401454e-05 -0.996190608 -0.0872026384 -4.59401454e-05 -0.996190608 -0.0872026384 -4.59401454e-05 -0.996194601 -0.0871568769 0 -0.996194601 -0.0871568769 0 -0.996194601 -0.0871568769 0 -0.996195555 -0.0871460587 -1.29552191e-05 -0.996195555 -0.0871460587 -1.29552191e-05 -0.996195555 -0.0871460587 -1.29552191e-05 -0.99623704 -0.0866704658 -7.58056776e-05 -0.99623704 -0.0866704658 -7.58056776e-05 -0.99623704 -0.0866704658 -7.58056776e-05 -0.99617523 -0.0873780847 4.94438355e-05 -0.99617523 -0.0873780847 4.94438355e-05 -0.99617523 -0.0873780847 4.94438355e-05 -0.996201575 -0.0870774314 -1.79205435e-05 -0.996201575 -0.0870774314 -1.79205435e-05 -0.996201575 -0.0870774314 -1.79205435e-05 -0.996177793 -0.0873490274 6.80424855e-05 -0.996177793 -0.0873490274 6.80424855e-05 -0.996177793 -0.0873490274 6.80424855e-05 -0.996203184 -0.0870587826 -3.80054007e-05 -0.996203184 -0.0870587826 -3.80054007e-05 -0.996203184 -0.0870587826 -3.80054007e-05 -0.9961766 -0.087362431 -4.46087215e-05 -0.9961766 -0.087362431 -4.46087215e-05 -0.9961766 -0.087362431 -4.46087215e-05 -0.996193886 -0.0871649161 8.51989444e-06 -0.996193886 -0.0871649161 8.51989444e-06 -0.996193886 -0.0871649161 8.51989444e-06 -0.996192813 -0.0871772468 -1.99412134e-05 -0.996192813 -0.0871772468 -1.99412134e-05 -0.996192813 -0.0871772468 -1.99412134e-05 -0.996197701 -0.0871214271 3.14057543e-05 -0.996197701 -0.0871214271 3.14057543e-05 -0.996197701 -0.0871214271 3.14057543e-05 -0.996197701 -0.0871216729 3.11984259e-05 -0.996197701 -0.0871216729 3.11984259e-05 -0.996197701 -0.0871216729 3.11984259e-05 -0.996192873 -0.0871767402 -1.12200996e-05 -0.996192873 -0.0871767402 -1.12200996e-05 -0.996192873 -0.0871767402 -1.12200996e-05 -0.996197581 -0.087122567 2.68571675e-05 -0.996197581 -0.087122567 2.68571675e-05 -0.996197581 -0.087122567 2.68571675e-05 -0.996190608 -0.0872028098 -2.44575422e-05 -0.996190608 -0.0872028098 -2.44575422e-05 -0.996190608 -0.0872028098 -2.44575422e-05 -0.996188641 -0.0872247443 -3.71692076e-05 -0.996188641 -0.0872247443 -3.71692076e-05 -0.996188641 -0.0872247443 -3.71692076e-05 -0.996202171 -0.0870704129 4.34749927e-05 -0.996202171 -0.0870704129 4.34749927e-05 -0.996202171 -0.0870704129 4.34749927e-05 -0.996182919 -0.0872901008 -5.93566765e-05 -0.996182919 -0.0872901008 -5.93566765e-05 -0.996182919 -0.0872901008 -5.93566765e-05 -0.996204853 -0.0870392695 4.23221063e-05 -0.996204853 -0.0870392695 4.23221063e-05 -0.996204853 -0.0870392695 4.23221063e-05 -0.996205747 -0.0870296583 4.53636094e-05 -0.996205747 -0.0870296583 4.53636094e-05 -0.996205747 -0.0870296583 4.53636094e-05 -0.996175706 -0.0873723999 -4.68265862e-05 -0.996175706 -0.0873723999 -4.68265862e-05 -0.996175706 -0.0873723999 -4.68265862e-05 -0.99619478 -0.0871550366 -0 -0.99619478 -0.0871550366 -0 -0.99619478 -0.0871550366 -0 -0.99619478 -0.0871550366 -0 -0.99619478 -0.0871550366 -0 -0.99619478 -0.0871550366 -0 0.0871551633 -0.99619472 0 0.0871551633 -0.99619472 0 0.0871551633 -0.99619472 0 0.0871556476 -0.99619472 0 0.0871556476 -0.99619472 0 0.0871556476 -0.99619472 0 0.0871557221 -0.99619472 -6.00843393e-08 0.0871557221 -0.99619472 -6.00843393e-08 0.0871557221 -0.99619472 -6.00843393e-08 0.087155588 -0.99619472 0 0.087155588 -0.99619472 0 0.087155588 -0.99619472 0 0.0871556625 -0.99619472 8.26930275e-08 0.0871556625 -0.99619472 8.26930275e-08 0.0871556625 -0.99619472 8.26930275e-08 -0.0871557221 0.99619472 0 -0.0871557221 0.99619472 0 -0.0871557221 0.99619472 0 -0.0871556178 0.99619472 1.1678942e-06 -0.0871556178 0.99619472 1.1678942e-06 -0.0871556178 0.99619472 1.1678942e-06 -0.0871557966 0.99619472 -0 -0.0871557966 0.99619472 -0 -0.0871557966 0.99619472 -0 -0.0871557966 0.99619472 0 -0.0871557966 0.99619472 0 -0.0871557966 0.99619472 0 -0.0871557593 0.99619472 -1.39687577e-08 -0.0871557593 0.99619472 -1.39687577e-08 -0.0871557593 0.99619472 -1.39687577e-08 -0.704427123 -0.0616302006 -0.707095563 -0.704427123 -0.0616302006 -0.707095563 -0.704427123 -0.0616302006 -0.707095563 -0.704420686 -0.061628323 -0.70710212 -0.704420686 -0.061628323 -0.70710212 -0.704420686 -0.061628323 -0.70710212 -0.0871557221 0.99619472 0 -0.0871557221 0.99619472 0 -0.0871557221 0.99619472 0 -0.0871557221 0.99619472 -0 -0.0871557221 0.99619472 -0 -0.0871557221 0.99619472 -0 0.99619472 0.087155655 0 0.99619472 0.087155655 0 0.99619472 0.087155655 0 0.99619472 0.087155655 0 0.99619472 0.087155655 0 0.99619472 0.087155655 0 0 0 -1 0 0 -1 0 0 -1 -0 0 -1 -0 0 -1 -0 0 -1 0 0 -1 0 0 -1 0 0 -1 0 -0 -1 0 -0 -1 0 -0 -1 0 0 -1 0 0 -1 0 0 -1 0 -0 -1 0 -0 -1 0 -0 -1 0.087155953 -0.996194661 0 0.087155953 -0.996194661 0 0.087155953 -0.996194661 0 0.087155953 -0.996194661 -0 0.087155953 -0.996194661 -0 0.087155953 -0.996194661 -0 -0 0 1 -0 0 1 -0 0 1 -0 -0 1 -0 -0 1 -0 -0 1 -0.996194899 -0.0871532187 0 -0.996194899 -0.0871532187 0 -0.996194899 -0.0871532187 0 -0.996194899 -0.0871532187 0 -0.996194899 -0.0871532187 0 -0.996194899 -0.0871532187 0 -0.996195138 -0.0871510282 1.09859411e-06 -0.996195138 -0.0871510282 1.09859411e-06 -0.996195138 -0.0871510282 1.09859411e-06 -0.996191502 -0.0871925205 -2.07572793e-05 -0.996191502 -0.0871925205 -2.07572793e-05 -0.996191502 -0.0871925205 -2.07572793e-05 -0.996195316 -0.087148726 -7.98351084e-06 -0.996195316 -0.087148726 -7.98351084e-06 -0.996195316 -0.087148726 -7.98351084e-06 -0.996193171 -0.087173529 2.20993043e-05 -0.996193171 -0.087173529 2.20993043e-05 -0.996193171 -0.087173529 2.20993043e-05 -0.996195674 -0.087144807 -1.60395903e-05 -0.996195674 -0.087144807 -1.60395903e-05 -0.996195674 -0.087144807 -1.60395903e-05 -0.996193826 -0.0871660411 1.47032079e-05 -0.996193826 -0.0871660411 1.47032079e-05 -0.996193826 -0.0871660411 1.47032079e-05 -0.996196151 -0.0871394724 -2.70070686e-05 -0.996196151 -0.0871394724 -2.70070686e-05 -0.996196151 -0.0871394724 -2.70070686e-05 -0.996193707 -0.0871673301 2.00822524e-05 -0.996193707 -0.0871673301 2.00822524e-05 -0.996193707 -0.0871673301 2.00822524e-05 -0.996193349 -0.0871711001 -3.0518142e-05 -0.996193349 -0.0871711001 -3.0518142e-05 -0.996193349 -0.0871711001 -3.0518142e-05 -0.996196449 -0.0871357247 3.33588541e-05 -0.996196449 -0.0871357247 3.33588541e-05 -0.996196449 -0.0871357247 3.33588541e-05 -0.996193588 -0.0871684998 -2.20343536e-05 -0.996193588 -0.0871684998 -2.20343536e-05 -0.996193588 -0.0871684998 -2.20343536e-05 -0.996194601 -0.0871568769 0 -0.996194601 -0.0871568769 0 -0.996194601 -0.0871568769 0 -0.996194601 -0.0871568769 0 -0.996194601 -0.0871568769 0 -0.996194601 -0.0871568769 0 -0.996193349 -0.0871714801 2.75786097e-05 -0.996193349 -0.0871714801 2.75786097e-05 -0.996193349 -0.0871714801 2.75786097e-05 -0.996194899 -0.0871532783 -7.23765606e-06 -0.996194899 -0.0871532783 -7.23765606e-06 -0.996194899 -0.0871532783 -7.23765606e-06 -0.99619472 -0.087155655 -2.47410821e-06 -0.99619472 -0.087155655 -2.47410821e-06 -0.99619472 -0.087155655 -2.47410821e-06 -0.99619478 -0.0871550292 4.05852454e-08 -0.99619478 -0.0871550292 4.05852454e-08 -0.99619478 -0.0871550292 4.05852454e-08 -0.996194899 -0.0871531367 3.84387249e-06 -0.996194899 -0.0871531367 3.84387249e-06 -0.996194899 -0.0871531367 3.84387249e-06 -0.99619633 -0.087137334 2.68841704e-05 -0.99619633 -0.087137334 2.68841704e-05 -0.99619633 -0.087137334 2.68841704e-05 -0.99619329 -0.0871721059 -2.34587478e-05 -0.99619329 -0.0871721059 -2.34587478e-05 -0.99619329 -0.0871721059 -2.34587478e-05 -0.996195614 -0.0871449932 1.25380911e-05 -0.996195614 -0.0871449932 1.25380911e-05 -0.996195614 -0.0871449932 1.25380911e-05 -0.996192873 -0.0871766135 -2.5796644e-05 -0.996192873 -0.0871766135 -2.5796644e-05 -0.996192873 -0.0871766135 -2.5796644e-05 -0.996196806 -0.0871317536 2.37256336e-05 -0.996196806 -0.0871317536 2.37256336e-05 -0.996196806 -0.0871317536 2.37256336e-05 -0.996194422 -0.0871589482 -3.57190197e-06 -0.996194422 -0.0871589482 -3.57190197e-06 -0.996194422 -0.0871589482 -3.57190197e-06 -0.99619478 -0.0871548206 -1.03185823e-06 -0.99619478 -0.0871548206 -1.03185823e-06 -0.99619478 -0.0871548206 -1.03185823e-06 -0.996196926 -0.0871299729 -1.41206474e-05 -0.996196926 -0.0871299729 -1.41206474e-05 -0.996196926 -0.0871299729 -1.41206474e-05 -0.996193528 -0.0871692449 7.79420407e-06 -0.996193528 -0.0871692449 7.79420407e-06 -0.996193528 -0.0871692449 7.79420407e-06 -0.996193528 -0.0871687979 1.02078366e-05 -0.996193528 -0.0871687979 1.02078366e-05 -0.996193528 -0.0871687979 1.02078366e-05 -0.996193588 -0.0871685445 7.37258324e-06 -0.996193588 -0.0871685445 7.37258324e-06 -0.996193588 -0.0871685445 7.37258324e-06 -0.996194839 -0.0871539041 -2.0225425e-06 -0.996194839 -0.0871539041 -2.0225425e-06 -0.996194839 -0.0871539041 -2.0225425e-06 -0.996196151 -0.0871390849 -1.23395412e-05 -0.996196151 -0.0871390849 -1.23395412e-05 -0.996196151 -0.0871390849 -1.23395412e-05 -0.996193171 -0.0871733353 1.39787699e-05 -0.996193171 -0.0871733353 1.39787699e-05 -0.996193171 -0.0871733353 1.39787699e-05 -0.996197045 -0.0871287808 -2.66843872e-05 -0.996197045 -0.0871287808 -2.66843872e-05 -0.996197045 -0.0871287808 -2.66843872e-05 -0.996194184 -0.0871618986 6.56518978e-06 -0.996194184 -0.0871618986 6.56518978e-06 -0.996194184 -0.0871618986 6.56518978e-06 -0.99619329 -0.0871718898 -1.53825677e-05 -0.99619329 -0.0871718898 -1.53825677e-05 -0.99619329 -0.0871718898 -1.53825677e-05 -0.996196747 -0.0871325359 1.73191693e-05 -0.996196747 -0.0871325359 1.73191693e-05 -0.996196747 -0.0871325359 1.73191693e-05 -0.996192873 -0.0871765167 -1.60563304e-05 -0.996192873 -0.0871765167 -1.60563304e-05 -0.996192873 -0.0871765167 -1.60563304e-05 -0.996195018 -0.0871520266 9.8989085e-07 -0.996195018 -0.0871520266 9.8989085e-07 -0.996195018 -0.0871520266 9.8989085e-07 -0.996193767 -0.087166205 -8.11177324e-06 -0.996193767 -0.087166205 -8.11177324e-06 -0.996193767 -0.087166205 -8.11177324e-06 -0.996198475 -0.087112844 2.37009208e-05 -0.996198475 -0.087112844 2.37009208e-05 -0.996198475 -0.087112844 2.37009208e-05 </float_array>
          <technique_common>
            <accessor count="552" offset="0" source="#mesh_0-normals-array" stride="3">
              <param name="X" type="float" />
              <param name="Y" type="float" />
              <param name="Z" type="float" />
            </accessor>
          </technique_common>
        </source>
        <vertices id="mesh_0-vertices">
          <input semantic="POSITION" source="#mesh_0-positions" />
        </vertices>
        <polylist count="184" material="defaultMaterial">
          <input offset="0" semantic="VERTEX" source="#mesh_0-vertices" />
          <input offset="0" semantic="NORMAL" source="#mesh_0-normals" />
          <vcount>3 3 3 3 3 3 3 3 3 3 3 3 3 3 3 3 3 3 3 3 3 3 3 3 3 3 3 3 3 3 3 3 3 3 3 3 3 3 3 3 3 3 3 3 3 3 3 3 3 3 3 3 3 3 3 3 3 3 3 3 3 3 3 3 3 3 3 3 3 3 3 3 3 3 3 3 3 3 3 3 3 3 3 3 3 3 3 3 3 3 3 3 3 3 3 3 3 3 3 3 3 3 3 3 3 3 3 3 3 3 3 3 3 3 3 3 3 3 3 3 3 3 3 3 3 3 3 3 3 3 3 3 3 3 3 3 3 3 3 3 3 3 3 3 3 3 3 3 3 3 3 3 3 3 3 3 3 3 3 3 3 3 3 3 3 3 3 3 3 3 3 3 3 3 3 3 3 3 3 3 3 3 3 3 </vcount>
          <p>0 1 2 3 4 5 6 7 8 9 10 11 12 13 14 15 16 17 18 19 20 21 22 23 24 25 26 27 28 29 30 31 32 33 34 35 36 37 38 39 40 41 42 43 44 45 46 47 48 49 50 51 52 53 54 55 56 57 58 59 60 61 62 63 64 65 66 67 68 69 70 71 72 73 74 75 76 77 78 79 80 81 82 83 84 85 86 87 88 89 90 91 92 93 94 95 96 97 98 99 100 101 102 103 104 105 106 107 108 109 110 111 112 113 114 115 116 117 118 119 120 121 122 123 124 125 126 127 128 129 130 131 132 133 134 135 136 137 138 139 140 141 142 143 144 145 146 147 148 149 150 151 152 153 154 155 156 157 158 159 160 161 162 163 164 165 166 167 168 169 170 171 172 173 174 175 176 177 178 179 180 181 182 183 184 185 186 187 188 189 190 191 192 193 194 195 196 197 198 199 200 201 202 203 204 205 206 207 208 209 210 211 212 213 214 215 216 217 218 219 220 221 222 223 224 225 226 227 228 229 230 231 232 233 234 235 236 237 238 239 240 241 242 243 244 245 246 247 248 249 250 251 252 253 254 255 256 257 258 259 260 261 262 263 264 265 266 267 268 269 270 271 272 273 274 275 276 277 278 279 280 281 282 283 284 285 286 287 288 289 290 291 292 293 294 295 296 297 298 299 300 301 302 303 304 305 306 307 308 309 310 311 312 313 314 315 316 317 318 319 320 321 322 323 324 325 326 327 328 329 330 331 332 333 334 335 336 337 338 339 340 341 342 343 344 345 346 347 348 349 350 351 352 353 354 355 356 357 358 359 360 361 362 363 364 365 366 367 368 369 370 371 372 373 374 375 376 377 378 379 380 381 382 383 384 385 386 387 388 389 390 391 392 393 394 395 396 397 398 399 400 401 402 403 404 405 406 407 408 409 410 411 412 413 414 415 416 417 418 419 420 421 422 423 424 425 426 427 428 429 430 431 432 433 434 435 436 437 438 439 440 441 442 443 444 445 446 447 448 449 450 451 452 453 454 455 456 457 458 459 460 461 462 463 464 465 466 467 468 469 470 471 472 473 474 475 476 477 478 479 480 481 482 483 484 485 486 487 488 489 490 491 492 493 494 495 496 497 498 499 500 501 502 503 504 505 506 507 508 509 510 511 512 513 514 515 516 517 518 519 520 521 522 523 524 525 526 527 528 529 530 531 532 533 534 535 536 537 538 539 540 541 542 543 544 545 546 547 548 549 550 551 </p>
        </polylist>
      </mesh>
    </geometry>
  </library_geometries>
  <library_controllers>
  </library_controllers>
  <library_visual_scenes>
    <visual_scene id="_ySTL_BINARY_" name="&lt;STL_BINARY&gt;">
      <node id="node" name="" type="NODE">
        <matrix sid="matrix">1 0 0 0 0 1 0 0 0 0 1 0 0 0 0 1</matrix>
        <instance_geometry url="#mesh_0">
          <bind_material>
            <technique_common>
              <instance_material symbol="defaultMaterial" target="#DefaultMaterial">
              </instance_material>
            </technique_common>
          </bind_material>
        </instance_geometry>
      </node>
    </visual_scene>
  </library_visual_scenes>
  <scene>
    <instance_visual_scene url="#_ySTL_BINARY_" />
  </scene>
</COLLADA>
