<?xml version="1.0" encoding="UTF-8" standalone="no" ?>
<COLLADA xmlns="http://www.collada.org/2005/11/COLLADASchema" version="1.4.1">
  <asset>
    <contributor>
      <author>Assimp</author>
      <authoring_tool>Assimp Exporter</authoring_tool>
    </contributor>
    <created>2025-12-07T16:35:05</created>
    <modified>2025-12-07T16:35:05</modified>
    <unit name="meter" meter="1" />
    <up_axis>Y_UP</up_axis>
  </asset>
  <library_images>
  </library_images>
  <library_effects>
    <effect id="DefaultMaterial-fx" name="DefaultMaterial">
      <profile_COMMON>
        <technique sid="standard">
          <phong>
            <ambient>
              <color sid="ambient">0.0500000007   0.0500000007   0.0500000007   1</color>
            </ambient>
            <diffuse>
              <color sid="diffuse">1   1   1   1</color>
            </diffuse>
            <specular>
              <color sid="specular">1   1   1   1</color>
            </specular>
          </phong>
        </technique>
      </profile_COMMON>
    </effect>
  </library_effects>
  <library_materials>
    <material id="DefaultMaterial" name="DefaultMaterial">
      <instance_effect url="#DefaultMaterial-fx"/>
    </material>
  </library_materials>
  <library_geometries>
    <geometry id="mesh_0" name="" >
      <mesh>
        <source id="mesh_0-positions" name="mesh_0-positions">
          <float_array id="mesh_0-positions-array" count="2556"> 0.00268730544 0.0036896104 0.0419453755 0.00259241369 0.00365979224 0.0419584699 0.00315815816 0.00383756799 0.0441716462 0.00259241369 0.00365979224 0.0419584699 0.002498972 0.00363042974 0.0419801846 0.00315815816 0.00383756799 0.0441716462 0.00315815816 0.00383756799 0.0441716462 0.002498972 0.00363042974 0.0419801846 0.00240769121 0.0036017464 0.042010352 0.00287854415 0.00374970399 0.0442366228 0.00297343568 0.00377952214 0.0442235284 0.00240769121 0.0036017464 0.042010352 0.00297343568 0.00377952214 0.0442235284 0.0030668776 0.00380888465 0.0442018136 0.00240769121 0.0036017464 0.042010352 0.00240769121 0.0036017464 0.042010352 0.0030668776 0.00380888465 0.0442018136 0.00315815816 0.00383756799 0.0441716462 0.00240769121 0.0036017464 0.042010352 0.00231926632 0.00357396016 0.0420487449 0.00231926632 0.00357396016 0.0441332534 0.00231926632 0.00357396016 0.0420487449 0.00223437021 0.00354728312 0.0420950688 0.00231926632 0.00357396016 0.0441332534 0.00231926632 0.00357396016 0.0441332534 0.00223437021 0.00354728312 0.0420950688 0.00223437021 0.00354728312 0.0440869294 0.00324658304 0.003865354 0.0420487449 0.00315815816 0.00383756799 0.042010352 0.00315815816 0.00383756799 0.0441716462 0.00315815816 0.00383756799 0.042010352 0.0030668776 0.00380888465 0.0419801846 0.00315815816 0.00383756799 0.0441716462 0.00315815816 0.00383756799 0.0441716462 0.0030668776 0.00380888465 0.0419801846 0.00297343568 0.00377952214 0.0419584699 0.00231926632 0.00357396016 0.0441332534 0.00240769121 0.0036017464 0.0441716462 0.00240769121 0.0036017464 0.042010352 0.00240769121 0.0036017464 0.0441716462 0.002498972 0.00363042974 0.0442018136 0.00240769121 0.0036017464 0.042010352 0.00240769121 0.0036017464 0.042010352 0.002498972 0.00363042974 0.0442018136 0.00259241369 0.00365979224 0.0442235284 0.00324658304 0.003865354 0.0441332534 0.00341220084 0.00391739653 0.0421489738 0.00315815816 0.00383756799 0.0441716462 0.00341220084 0.00391739653 0.0421489738 0.00333147938 0.00389203127 0.0420950688 0.00315815816 0.00383756799 0.0441716462 0.00315815816 0.00383756799 0.0441716462 0.00333147938 0.00389203127 0.0420950688 0.00324658304 0.003865354 0.0420487449 0.00324658304 0.003865354 0.0441332534 0.00333147938 0.00389203127 0.0440869294 0.00341220084 0.00391739653 0.0421489738 0.00333147938 0.00389203127 0.0440869294 0.00341220084 0.00391739653 0.0440330245 0.00341220084 0.00391739653 0.0421489738 0.00341220084 0.00391739653 0.0421489738 0.00341220084 0.00391739653 0.0440330245 0.00348813296 0.00394125702 0.0439719483 0.00297343568 0.00377952214 0.0419584699 0.00287854415 0.00374970399 0.0419453755 0.00315815816 0.00383756799 0.0441716462 0.00287854415 0.00374970399 0.0419453755 0.0027829248 0.00371965719 0.0419409983 0.00315815816 0.00383756799 0.0441716462 0.00315815816 0.00383756799 0.0441716462 0.0027829248 0.00371965719 0.0419409983 0.00268730544 0.0036896104 0.0419453755 0.00223437021 0.00354728312 0.0440869294 0.00223437021 0.00354728312 0.0420950688 0.00215364876 0.00352191762 0.0440330245 0.00223437021 0.00354728312 0.0420950688 0.00215364876 0.00352191762 0.0421489738 0.00215364876 0.00352191762 0.0440330245 0.00215364876 0.00352191762 0.0440330245 0.00215364876 0.00352191762 0.0421489738 0.00207771664 0.00349805737 0.0422100462 0.00259241369 0.00365979224 0.0442235284 0.00268730544 0.0036896104 0.0442366228 0.00240769121 0.0036017464 0.042010352 0.00268730544 0.0036896104 0.0442366228 0.0027829248 0.00371965719 0.044241 0.00240769121 0.0036017464 0.042010352 0.00240769121 0.0036017464 0.042010352 0.0027829248 0.00371965719 0.044241 0.00287854415 0.00374970399 0.0442366228 0.00207771664 0.00349805737 0.0422100462 0.00200715149 0.00347588328 0.0422778241 0.00215364876 0.00352191762 0.0440330245 0.00200715149 0.00347588328 0.0422778241 0.00194249034 0.00345556461 0.0423517935 0.00215364876 0.00352191762 0.0440330245 0.00215364876 0.00352191762 0.0440330245 0.00194249034 0.00345556461 0.0423517935 0.00207771664 0.00349805737 0.0439719483 0.00194249034 0.00345556461 0.0423517935 0.00200715149 0.00347588328 0.0439041704 0.00207771664 0.00349805737 0.0439719483 0.00348813296 0.00394125702 0.0439719483 0.00355869811 0.00396343088 0.0439041704 0.00341220084 0.00391739653 0.0421489738 0.00355869811 0.00396343088 0.0439041704 0.00362335914 0.00398374954 0.0438302048 0.00341220084 0.00391739653 0.0421489738 0.00341220084 0.00391739653 0.0421489738 0.00362335914 0.00398374954 0.0438302048 0.00368162408 0.00400205841 0.0437506102 0.00368162408 0.00400205841 0.0437506102 0.00373304915 0.00401821779 0.0436659977 0.00341220084 0.00391739653 0.0421489738 0.00373304915 0.00401821779 0.0436659977 0.00377724343 0.00403210521 0.0435770079 0.00341220084 0.00391739653 0.0421489738 0.00341220084 0.00391739653 0.0421489738 0.00377724343 0.00403210521 0.0435770079 0.00381387025 0.00404361449 0.0434843227 0.00373304915 0.00401821779 0.0425160006 0.00386336632 0.00405916804 0.0432906933 0.00387585908 0.00406309357 0.0431912281 0.00373304915 0.00401821779 0.0425160006 0.00368162408 0.00400205841 0.0424313843 0.00386336632 0.00405916804 0.0432906933 0.00368162408 0.00400205841 0.0424313843 0.00362335914 0.00398374954 0.0423517935 0.00386336632 0.00405916804 0.0432906933 0.00386336632 0.00405916804 0.0432906933 0.00362335914 0.00398374954 0.0423517935 0.00355869811 0.00396343088 0.0422778241 0.00381387025 0.00404361449 0.0434843227 0.00384265091 0.00405265857 0.0433886424 0.00341220084 0.00391739653 0.0421489738 0.00384265091 0.00405265857 0.0433886424 0.00386336632 0.00405916804 0.0432906933 0.00341220084 0.00391739653 0.0421489738 0.00341220084 0.00391739653 0.0421489738 0.00386336632 0.00405916804 0.0432906933 0.00348813296 0.00394125702 0.0422100462 0.00386336632 0.00405916804 0.0432906933 0.00355869811 0.00396343088 0.0422778241 0.00348813296 0.00394125702 0.0422100462 0.00183280034 0.00342109636 0.0436659977 0.00188422552 0.00343725597 0.0437506102 0.00194249034 0.00345556461 0.0423517935 0.00188422552 0.00343725597 0.0437506102 0.00194249034 0.00345556461 0.0438302048 0.00194249034 0.00345556461 0.0423517935 0.00194249034 0.00345556461 0.0423517935 0.00194249034 0.00345556461 0.0438302048 0.00200715149 0.00347588328 0.0439041704 0.00381387025 0.00404361449 0.0426976755 0.00387585908 0.00406309357 0.0429907702 0.00384265091 0.00405265857 0.0427933559 0.00387585908 0.00406309357 0.0429907702 0.00386336632 0.00405916804 0.0428913049 0.00384265091 0.00405265857 0.0427933559 0.00387585908 0.00406309357 0.0431912281 0.00388003397 0.00406440534 0.0430909991 0.00373304915 0.00401821779 0.0425160006 0.00388003397 0.00406440534 0.0430909991 0.00387585908 0.00406309357 0.0429907702 0.00373304915 0.00401821779 0.0425160006 0.00373304915 0.00401821779 0.0425160006 0.00387585908 0.00406309357 0.0429907702 0.00377724343 0.00403210521 0.0426049866 0.00387585908 0.00406309357 0.0429907702 0.00381387025 0.00404361449 0.0426976755 0.00377724343 0.00403210521 0.0426049866 0.00172319857 0.00338665606 0.0433886424 0.00175197935 0.0033956999 0.0434843227 0.00194249034 0.00345556461 0.0423517935 0.00175197935 0.0033956999 0.0434843227 0.00178860617 0.00340720918 0.0435770079 0.00194249034 0.00345556461 0.0423517935 0.00194249034 0.00345556461 0.0423517935 0.00178860617 0.00340720918 0.0435770079 0.00183280034 0.00342109636 0.0436659977 0.0016899904 0.00337622082 0.0431912281 0.00183280034 0.00342109636 0.0425160006 0.00168581551 0.00337490882 0.0430909991 0.00183280034 0.00342109636 0.0425160006 0.00178860617 0.00340720918 0.0426049866 0.00168581551 0.00337490882 0.0430909991 0.00168581551 0.00337490882 0.0430909991 0.00178860617 0.00340720918 0.0426049866 0.00175197935 0.0033956999 0.0426976755 0.00194249034 0.00345556461 0.0423517935 0.00188422552 0.00343725597 0.0424313843 0.00172319857 0.00338665606 0.0433886424 0.00188422552 0.00343725597 0.0424313843 0.00183280034 0.00342109636 0.0425160006 0.00172319857 0.00338665606 0.0433886424 0.00172319857 0.00338665606 0.0433886424 0.00183280034 0.00342109636 0.0425160006 0.00170248304 0.00338014634 0.0432906933 0.00183280034 0.00342109636 0.0425160006 0.0016899904 0.00337622082 0.0431912281 0.00170248304 0.00338014634 0.0432906933 0.00175197935 0.0033956999 0.0426976755 0.00172319857 0.00338665606 0.0427933559 0.00168581551 0.00337490882 0.0430909991 0.00172319857 0.00338665606 0.0427933559 0.00170248304 0.00338014634 0.0428913049 0.00168581551 0.00337490882 0.0430909991 0.00168581551 0.00337490882 0.0430909991 0.00170248304 0.00338014634 0.0428913049 0.0016899904 0.00337622082 0.0429907702 0.00198559673 0.00242090086 0.0430909991 0.00168581551 0.00337490882 0.0430909991 0.0016899904 0.00337622082 0.0429907702 0.00198559673 0.00242090086 0.0430909991 0.0016899904 0.00337622082 0.0429907702 0.00198977138 0.00242221286 0.0429907702 0.0016899904 0.00337622082 0.0429907702 0.00170248304 0.00338014634 0.0428913049 0.00198977138 0.00242221286 0.0429907702 0.00198977138 0.00242221286 0.0429907702 0.00170248304 0.00338014634 0.0428913049 0.00200226414 0.00242613838 0.0428913049 0.00170248304 0.00338014634 0.0428913049 0.00172319857 0.00338665606 0.0427933559 0.00200226414 0.00242613838 0.0428913049 0.00200226414 0.00242613838 0.0428913049 0.00172319857 0.00338665606 0.0427933559 0.00202297978 0.00243264786 0.0427933559 0.00172319857 0.00338665606 0.0427933559 0.00175197935 0.0033956999 0.0426976755 0.00202297978 0.00243264786 0.0427933559 0.00202297978 0.00243264786 0.0427933559 0.00175197935 0.0033956999 0.0426976755 0.00205176044 0.0024416917 0.0426976755 0.00175197935 0.0033956999 0.0426976755 0.00178860617 0.00340720918 0.0426049866 0.00205176044 0.0024416917 0.0426976755 0.00205176044 0.0024416917 0.0426976755 0.00178860617 0.00340720918 0.0426049866 0.00208838726 0.00245320122 0.0426049866 0.00178860617 0.00340720918 0.0426049866 0.00183280034 0.00342109636 0.0425160006 0.00208838726 0.00245320122 0.0426049866 0.00208838726 0.00245320122 0.0426049866 0.00183280034 0.00342109636 0.0425160006 0.00213258131 0.0024670884 0.0425160006 0.00183280034 0.00342109636 0.0425160006 0.00188422552 0.00343725597 0.0424313843 0.00213258131 0.0024670884 0.0425160006 0.00213258131 0.0024670884 0.0425160006 0.00188422552 0.00343725597 0.0424313843 0.00218400662 0.00248324801 0.0424313843 0.00188422552 0.00343725597 0.0424313843 0.00194249034 0.00345556461 0.0423517935 0.00218400662 0.00248324801 0.0424313843 0.00218400662 0.00248324801 0.0424313843 0.00194249034 0.00345556461 0.0423517935 0.00224227132 0.00250155665 0.0423517935 0.00194249034 0.00345556461 0.0423517935 0.00200715149 0.00347588328 0.0422778241 0.00224227132 0.00250155665 0.0423517935 0.00224227132 0.00250155665 0.0423517935 0.00200715149 0.00347588328 0.0422778241 0.00230693258 0.00252187531 0.0422778241 0.00200715149 0.00347588328 0.0422778241 0.00207771664 0.00349805737 0.0422100462 0.00230693258 0.00252187531 0.0422778241 0.00230693258 0.00252187531 0.0422778241 0.00207771664 0.00349805737 0.0422100462 0.00237749773 0.00254404917 0.0422100462 0.00207771664 0.00349805737 0.0422100462 0.00215364876 0.00352191762 0.0421489738 0.00237749773 0.00254404917 0.0422100462 0.00237749773 0.00254404917 0.0422100462 0.00215364876 0.00352191762 0.0421489738 0.00245342986 0.00256790966 0.0421489738 0.00215364876 0.00352191762 0.0421489738 0.00223437021 0.00354728312 0.0420950688 0.00245342986 0.00256790966 0.0421489738 0.00245342986 0.00256790966 0.0421489738 0.00223437021 0.00354728312 0.0420950688 0.00253415131 0.00259327493 0.0420950688 0.00223437021 0.00354728312 0.0420950688 0.00231926632 0.00357396016 0.0420487449 0.00253415131 0.00259327493 0.0420950688 0.00253415131 0.00259327493 0.0420950688 0.00231926632 0.00357396016 0.0420487449 0.00261904742 0.0026199522 0.0420487449 0.00231926632 0.00357396016 0.0420487449 0.00240769121 0.0036017464 0.042010352 0.00261904742 0.0026199522 0.0420487449 0.00261904742 0.0026199522 0.0420487449 0.00240769121 0.0036017464 0.042010352 0.0027074723 0.00264773821 0.042010352 0.00240769121 0.0036017464 0.042010352 0.002498972 0.00363042974 0.0419801846 0.0027074723 0.00264773821 0.042010352 0.0027074723 0.00264773821 0.042010352 0.002498972 0.00363042974 0.0419801846 0.00279875309 0.00267642178 0.0419801846 0.002498972 0.00363042974 0.0419801846 0.00259241369 0.00365979224 0.0419584699 0.00279875309 0.00267642178 0.0419801846 0.00279875309 0.00267642178 0.0419801846 0.00259241369 0.00365979224 0.0419584699 0.00289219478 0.00270578428 0.0419584699 0.00259241369 0.00365979224 0.0419584699 0.00268730544 0.0036896104 0.0419453755 0.00289219478 0.00270578428 0.0419584699 0.00289219478 0.00270578428 0.0419584699 0.00268730544 0.0036896104 0.0419453755 0.00298708654 0.00273560244 0.0419453755 0.00268730544 0.0036896104 0.0419453755 0.0027829248 0.00371965719 0.0419409983 0.00298708654 0.00273560244 0.0419453755 0.00298708654 0.00273560244 0.0419453755 0.0027829248 0.00371965719 0.0419409983 0.00308270589 0.00276564923 0.0419409983 0.0027829248 0.00371965719 0.0419409983 0.00287854415 0.00374970399 0.0419453755 0.00308270589 0.00276564923 0.0419409983 0.00308270589 0.00276564923 0.0419409983 0.00287854415 0.00374970399 0.0419453755 0.00317832525 0.00279569603 0.0419453755 0.00287854415 0.00374970399 0.0419453755 0.00297343568 0.00377952214 0.0419584699 0.00317832525 0.00279569603 0.0419453755 0.00317832525 0.00279569603 0.0419453755 0.00297343568 0.00377952214 0.0419584699 0.00327321677 0.00282551395 0.0419584699 0.00297343568 0.00377952214 0.0419584699 0.0030668776 0.00380888465 0.0419801846 0.00327321677 0.00282551395 0.0419584699 0.00327321677 0.00282551395 0.0419584699 0.0030668776 0.00380888465 0.0419801846 0.0033666587 0.00285487669 0.0419801846 0.0030668776 0.00380888465 0.0419801846 0.00315815816 0.00383756799 0.042010352 0.0033666587 0.00285487669 0.0419801846 0.0033666587 0.00285487669 0.0419801846 0.00315815816 0.00383756799 0.042010352 0.00345793925 0.00288356002 0.042010352 0.00315815816 0.00383756799 0.042010352 0.00324658304 0.003865354 0.0420487449 0.00345793925 0.00288356002 0.042010352 0.00345793925 0.00288356002 0.042010352 0.00324658304 0.003865354 0.0420487449 0.00354636414 0.00291134603 0.0420487449 0.00324658304 0.003865354 0.0420487449 0.00333147938 0.00389203127 0.0420950688 0.00354636414 0.00291134603 0.0420487449 0.00354636414 0.00291134603 0.0420487449 0.00333147938 0.00389203127 0.0420950688 0.00363126048 0.0029380233 0.0420950688 0.00333147938 0.00389203127 0.0420950688 0.00341220084 0.00391739653 0.0421489738 0.00363126048 0.0029380233 0.0420950688 0.00363126048 0.0029380233 0.0420950688 0.00341220084 0.00391739653 0.0421489738 0.00371198193 0.00296338857 0.0421489738 0.00341220084 0.00391739653 0.0421489738 0.00348813296 0.00394125702 0.0422100462 0.00371198193 0.00296338857 0.0421489738 0.00371198193 0.00296338857 0.0421489738 0.00348813296 0.00394125702 0.0422100462 0.00378791406 0.00298724906 0.0422100462 0.00348813296 0.00394125702 0.0422100462 0.00355869811 0.00396343088 0.0422778241 0.00378791406 0.00298724906 0.0422100462 0.00378791406 0.00298724906 0.0422100462 0.00355869811 0.00396343088 0.0422778241 0.00385847921 0.00300942292 0.0422778241 0.00355869811 0.00396343088 0.0422778241 0.00362335914 0.00398374954 0.0423517935 0.00385847921 0.00300942292 0.0422778241 0.00385847921 0.00300942292 0.0422778241 0.00362335914 0.00398374954 0.0423517935 0.00392314047 0.00302974158 0.0423517935 0.00362335914 0.00398374954 0.0423517935 0.00368162408 0.00400205841 0.0424313843 0.00392314047 0.00302974158 0.0423517935 0.00392314047 0.00302974158 0.0423517935 0.00368162408 0.00400205841 0.0424313843 0.00398140494 0.00304805045 0.0424313843 0.00368162408 0.00400205841 0.0424313843 0.00373304915 0.00401821779 0.0425160006 0.00398140494 0.00304805045 0.0424313843 0.00398140494 0.00304805045 0.0424313843 0.00373304915 0.00401821779 0.0425160006 0.00403283024 0.00306420983 0.0425160006 0.00373304915 0.00401821779 0.0425160006 0.00377724343 0.00403210521 0.0426049866 0.00403283024 0.00306420983 0.0425160006 0.00403283024 0.00306420983 0.0425160006 0.00377724343 0.00403210521 0.0426049866 0.00407702429 0.00307809724 0.0426049866 0.00377724343 0.00403210521 0.0426049866 0.00381387025 0.00404361449 0.0426976755 0.00407702429 0.00307809724 0.0426049866 0.00407702429 0.00307809724 0.0426049866 0.00381387025 0.00404361449 0.0426976755 0.00411365135 0.00308960653 0.0426976755 0.00381387025 0.00404361449 0.0426976755 0.00384265091 0.00405265857 0.0427933559 0.00411365135 0.00308960653 0.0426976755 0.00411365135 0.00308960653 0.0426976755 0.00384265091 0.00405265857 0.0427933559 0.00414243201 0.00309865037 0.0427933559 0.00384265091 0.00405265857 0.0427933559 0.00386336632 0.00405916804 0.0428913049 0.00414243201 0.00309865037 0.0427933559 0.00414243201 0.00309865037 0.0427933559 0.00386336632 0.00405916804 0.0428913049 0.00416314742 0.00310515985 0.0428913049 0.00386336632 0.00405916804 0.0428913049 0.00387585908 0.00406309357 0.0429907702 0.00416314742 0.00310515985 0.0428913049 0.00416314742 0.00310515985 0.0428913049 0.00387585908 0.00406309357 0.0429907702 0.00417564018 0.00310908561 0.0429907702 0.00387585908 0.00406309357 0.0429907702 0.00388003397 0.00406440534 0.0430909991 0.00417564018 0.00310908561 0.0429907702 0.00417564018 0.00310908561 0.0429907702 0.00388003397 0.00406440534 0.0430909991 0.0041798153 0.00311039737 0.0430909991 0.00345793925 0.00288356002 0.042010352 0.00354636414 0.00291134603 0.0420487449 0.00345793925 0.00288356002 0.0441716462 0.00345793925 0.00288356002 0.0441716462 0.0027074723 0.00264773821 0.042010352 0.00279875309 0.00267642178 0.0419801846 0.00279875309 0.00267642178 0.0419801846 0.00289219478 0.00270578428 0.0419584699 0.00345793925 0.00288356002 0.0441716462 0.00289219478 0.00270578428 0.0419584699 0.00298708654 0.00273560244 0.0419453755 0.00345793925 0.00288356002 0.0441716462 0.00345793925 0.00288356002 0.0441716462 0.00298708654 0.00273560244 0.0419453755 0.00308270589 0.00276564923 0.0419409983 0.00345793925 0.00288356002 0.042010352 0.00345793925 0.00288356002 0.0441716462 0.0033666587 0.00285487669 0.0419801846 0.00345793925 0.00288356002 0.0441716462 0.0033666587 0.00285487669 0.0442018136 0.0027074723 0.00264773821 0.042010352 0.0033666587 0.00285487669 0.0442018136 0.00327321677 0.00282551395 0.0442235284 0.0027074723 0.00264773821 0.042010352 0.0027074723 0.00264773821 0.042010352 0.00327321677 0.00282551395 0.0442235284 0.00317832525 0.00279569603 0.0442366228 0.0027074723 0.00264773821 0.042010352 0.00261904742 0.0026199522 0.0441332534 0.00261904742 0.0026199522 0.0420487449 0.00261904742 0.0026199522 0.0441332534 0.00253415131 0.00259327493 0.0420950688 0.00261904742 0.0026199522 0.0420487449 0.00317832525 0.00279569603 0.0442366228 0.00308270589 0.00276564923 0.044241 0.0027074723 0.00264773821 0.042010352 0.00308270589 0.00276564923 0.044241 0.00298708654 0.00273560244 0.0442366228 0.0027074723 0.00264773821 0.042010352 0.0027074723 0.00264773821 0.042010352 0.00298708654 0.00273560244 0.0442366228 0.00289219478 0.00270578428 0.0442235284 0.00289219478 0.00270578428 0.0442235284 0.00279875309 0.00267642178 0.0442018136 0.0027074723 0.00264773821 0.042010352 0.00279875309 0.00267642178 0.0442018136 0.0027074723 0.00264773821 0.0441716462 0.0027074723 0.00264773821 0.042010352 0.0027074723 0.00264773821 0.042010352 0.0027074723 0.00264773821 0.0441716462 0.00261904742 0.0026199522 0.0441332534 0.00261904742 0.0026199522 0.0441332534 0.00253415131 0.00259327493 0.0440869294 0.00253415131 0.00259327493 0.0420950688 0.00253415131 0.00259327493 0.0440869294 0.00245342986 0.00256790966 0.0440330245 0.00253415131 0.00259327493 0.0420950688 0.00253415131 0.00259327493 0.0420950688 0.00245342986 0.00256790966 0.0440330245 0.00245342986 0.00256790966 0.0421489738 0.00245342986 0.00256790966 0.0440330245 0.00237749773 0.00254404917 0.0422100462 0.00245342986 0.00256790966 0.0421489738 0.00308270589 0.00276564923 0.0419409983 0.00317832525 0.00279569603 0.0419453755 0.00345793925 0.00288356002 0.0441716462 0.00317832525 0.00279569603 0.0419453755 0.00327321677 0.00282551395 0.0419584699 0.00345793925 0.00288356002 0.0441716462 0.00345793925 0.00288356002 0.0441716462 0.00327321677 0.00282551395 0.0419584699 0.0033666587 0.00285487669 0.0419801846 0.00354636414 0.00291134603 0.0420487449 0.00363126048 0.0029380233 0.0420950688 0.00345793925 0.00288356002 0.0441716462 0.00363126048 0.0029380233 0.0420950688 0.00371198193 0.00296338857 0.0421489738 0.00345793925 0.00288356002 0.0441716462 0.00345793925 0.00288356002 0.0441716462 0.00371198193 0.00296338857 0.0421489738 0.00354636414 0.00291134603 0.0441332534 0.00371198193 0.00296338857 0.0421489738 0.00363126048 0.0029380233 0.0440869294 0.00354636414 0.00291134603 0.0441332534 0.00385847921 0.00300942292 0.0422778241 0.00392314047 0.00302974158 0.0423517935 0.00371198193 0.00296338857 0.0440330245 0.00392314047 0.00302974158 0.0423517935 0.00398140494 0.00304805045 0.0424313843 0.00371198193 0.00296338857 0.0440330245 0.00371198193 0.00296338857 0.0440330245 0.00398140494 0.00304805045 0.0424313843 0.00403283024 0.00306420983 0.0425160006 0.00414243201 0.00309865037 0.0427933559 0.00416314742 0.00310515985 0.0428913049 0.00371198193 0.00296338857 0.0440330245 0.00416314742 0.00310515985 0.0428913049 0.00417564018 0.00310908561 0.0429907702 0.00371198193 0.00296338857 0.0440330245 0.00371198193 0.00296338857 0.0440330245 0.00417564018 0.00310908561 0.0429907702 0.00378791406 0.00298724906 0.0439719483 0.00417564018 0.00310908561 0.0429907702 0.00385847921 0.00300942292 0.0439041704 0.00378791406 0.00298724906 0.0439719483 0.00237749773 0.00254404917 0.0439719483 0.00224227132 0.00250155665 0.0423517935 0.00245342986 0.00256790966 0.0440330245 0.00224227132 0.00250155665 0.0423517935 0.00230693258 0.00252187531 0.0422778241 0.00245342986 0.00256790966 0.0440330245 0.00245342986 0.00256790966 0.0440330245 0.00230693258 0.00252187531 0.0422778241 0.00237749773 0.00254404917 0.0422100462 0.00237749773 0.00254404917 0.0439719483 0.00230693258 0.00252187531 0.0439041704 0.00224227132 0.00250155665 0.0423517935 0.00230693258 0.00252187531 0.0439041704 0.00224227132 0.00250155665 0.0438302048 0.00224227132 0.00250155665 0.0423517935 0.00224227132 0.00250155665 0.0423517935 0.00224227132 0.00250155665 0.0438302048 0.00218400662 0.00248324801 0.0424313843 0.00224227132 0.00250155665 0.0438302048 0.00213258131 0.0024670884 0.0425160006 0.00218400662 0.00248324801 0.0424313843 0.00363126048 0.0029380233 0.0440869294 0.00371198193 0.00296338857 0.0421489738 0.00371198193 0.00296338857 0.0440330245 0.00371198193 0.00296338857 0.0421489738 0.00378791406 0.00298724906 0.0422100462 0.00371198193 0.00296338857 0.0440330245 0.00371198193 0.00296338857 0.0440330245 0.00378791406 0.00298724906 0.0422100462 0.00385847921 0.00300942292 0.0422778241 0.00403283024 0.00306420983 0.0425160006 0.00407702429 0.00307809724 0.0426049866 0.00371198193 0.00296338857 0.0440330245 0.00407702429 0.00307809724 0.0426049866 0.00411365135 0.00308960653 0.0426976755 0.00371198193 0.00296338857 0.0440330245 0.00371198193 0.00296338857 0.0440330245 0.00411365135 0.00308960653 0.0426976755 0.00414243201 0.00309865037 0.0427933559 0.00414243201 0.00309865037 0.0433886424 0.00411365135 0.00308960653 0.0434843227 0.00417564018 0.00310908561 0.0429907702 0.00411365135 0.00308960653 0.0434843227 0.00407702429 0.00307809724 0.0435770079 0.00417564018 0.00310908561 0.0429907702 0.00417564018 0.00310908561 0.0429907702 0.00407702429 0.00307809724 0.0435770079 0.00403283024 0.00306420983 0.0436659977 0.00403283024 0.00306420983 0.0436659977 0.00398140494 0.00304805045 0.0437506102 0.00417564018 0.00310908561 0.0429907702 0.00398140494 0.00304805045 0.0437506102 0.00392314047 0.00302974158 0.0438302048 0.00417564018 0.00310908561 0.0429907702 0.00417564018 0.00310908561 0.0429907702 0.00392314047 0.00302974158 0.0438302048 0.00385847921 0.00300942292 0.0439041704 0.00414243201 0.00309865037 0.0433886424 0.00417564018 0.00310908561 0.0429907702 0.00416314742 0.00310515985 0.0432906933 0.00417564018 0.00310908561 0.0429907702 0.0041798153 0.00311039737 0.0430909991 0.00416314742 0.00310515985 0.0432906933 0.00416314742 0.00310515985 0.0432906933 0.0041798153 0.00311039737 0.0430909991 0.00417564018 0.00310908561 0.0431912281 0.00224227132 0.00250155665 0.0438302048 0.00218400662 0.00248324801 0.0437506102 0.00213258131 0.0024670884 0.0425160006 0.00218400662 0.00248324801 0.0437506102 0.00213258131 0.0024670884 0.0436659977 0.00213258131 0.0024670884 0.0425160006 0.00213258131 0.0024670884 0.0425160006 0.00213258131 0.0024670884 0.0436659977 0.00208838726 0.00245320122 0.0435770079 0.00208838726 0.00245320122 0.0435770079 0.00205176044 0.0024416917 0.0434843227 0.00213258131 0.0024670884 0.0425160006 0.00205176044 0.0024416917 0.0434843227 0.00202297978 0.00243264786 0.0433886424 0.00213258131 0.0024670884 0.0425160006 0.00213258131 0.0024670884 0.0425160006 0.00202297978 0.00243264786 0.0433886424 0.00200226414 0.00242613838 0.0432906933 0.00200226414 0.00242613838 0.0432906933 0.00198977138 0.00242221286 0.0431912281 0.00213258131 0.0024670884 0.0425160006 0.00198977138 0.00242221286 0.0431912281 0.00198559673 0.00242090086 0.0430909991 0.00213258131 0.0024670884 0.0425160006 0.00213258131 0.0024670884 0.0425160006 0.00198559673 0.00242090086 0.0430909991 0.00208838726 0.00245320122 0.0426049866 0.00198559673 0.00242090086 0.0430909991 0.00198977138 0.00242221286 0.0429907702 0.00208838726 0.00245320122 0.0426049866 0.00198977138 0.00242221286 0.0429907702 0.00200226414 0.00242613838 0.0428913049 0.00208838726 0.00245320122 0.0426049866 0.00200226414 0.00242613838 0.0428913049 0.00202297978 0.00243264786 0.0427933559 0.00208838726 0.00245320122 0.0426049866 0.00208838726 0.00245320122 0.0426049866 0.00202297978 0.00243264786 0.0427933559 0.00205176044 0.0024416917 0.0426976755 0.0041798153 0.00311039737 0.0430909991 0.00388003397 0.00406440534 0.0430909991 0.00387585908 0.00406309357 0.0431912281 0.0041798153 0.00311039737 0.0430909991 0.00387585908 0.00406309357 0.0431912281 0.00417564018 0.00310908561 0.0431912281 0.00387585908 0.00406309357 0.0431912281 0.00386336632 0.00405916804 0.0432906933 0.00417564018 0.00310908561 0.0431912281 0.00417564018 0.00310908561 0.0431912281 0.00386336632 0.00405916804 0.0432906933 0.00416314742 0.00310515985 0.0432906933 0.00386336632 0.00405916804 0.0432906933 0.00384265091 0.00405265857 0.0433886424 0.00416314742 0.00310515985 0.0432906933 0.00416314742 0.00310515985 0.0432906933 0.00384265091 0.00405265857 0.0433886424 0.00414243201 0.00309865037 0.0433886424 0.00384265091 0.00405265857 0.0433886424 0.00381387025 0.00404361449 0.0434843227 0.00414243201 0.00309865037 0.0433886424 0.00414243201 0.00309865037 0.0433886424 0.00381387025 0.00404361449 0.0434843227 0.00411365135 0.00308960653 0.0434843227 0.00381387025 0.00404361449 0.0434843227 0.00377724343 0.00403210521 0.0435770079 0.00411365135 0.00308960653 0.0434843227 0.00411365135 0.00308960653 0.0434843227 0.00377724343 0.00403210521 0.0435770079 0.00407702429 0.00307809724 0.0435770079 0.00377724343 0.00403210521 0.0435770079 0.00373304915 0.00401821779 0.0436659977 0.00407702429 0.00307809724 0.0435770079 0.00407702429 0.00307809724 0.0435770079 0.00373304915 0.00401821779 0.0436659977 0.00403283024 0.00306420983 0.0436659977 0.00373304915 0.00401821779 0.0436659977 0.00368162408 0.00400205841 0.0437506102 0.00403283024 0.00306420983 0.0436659977 0.00403283024 0.00306420983 0.0436659977 0.00368162408 0.00400205841 0.0437506102 0.00398140494 0.00304805045 0.0437506102 0.00368162408 0.00400205841 0.0437506102 0.00362335914 0.00398374954 0.0438302048 0.00398140494 0.00304805045 0.0437506102 0.00398140494 0.00304805045 0.0437506102 0.00362335914 0.00398374954 0.0438302048 0.00392314047 0.00302974158 0.0438302048 0.00362335914 0.00398374954 0.0438302048 0.00355869811 0.00396343088 0.0439041704 0.00392314047 0.00302974158 0.0438302048 0.00392314047 0.00302974158 0.0438302048 0.00355869811 0.00396343088 0.0439041704 0.00385847921 0.00300942292 0.0439041704 0.00355869811 0.00396343088 0.0439041704 0.00348813296 0.00394125702 0.0439719483 0.00385847921 0.00300942292 0.0439041704 0.00385847921 0.00300942292 0.0439041704 0.00348813296 0.00394125702 0.0439719483 0.00378791406 0.00298724906 0.0439719483 0.00348813296 0.00394125702 0.0439719483 0.00341220084 0.00391739653 0.0440330245 0.00378791406 0.00298724906 0.0439719483 0.00378791406 0.00298724906 0.0439719483 0.00341220084 0.00391739653 0.0440330245 0.00371198193 0.00296338857 0.0440330245 0.00341220084 0.00391739653 0.0440330245 0.00333147938 0.00389203127 0.0440869294 0.00371198193 0.00296338857 0.0440330245 0.00371198193 0.00296338857 0.0440330245 0.00333147938 0.00389203127 0.0440869294 0.00363126048 0.0029380233 0.0440869294 0.00333147938 0.00389203127 0.0440869294 0.00324658304 0.003865354 0.0441332534 0.00363126048 0.0029380233 0.0440869294 0.00363126048 0.0029380233 0.0440869294 0.00324658304 0.003865354 0.0441332534 0.00354636414 0.00291134603 0.0441332534 0.00324658304 0.003865354 0.0441332534 0.00315815816 0.00383756799 0.0441716462 0.00354636414 0.00291134603 0.0441332534 0.00354636414 0.00291134603 0.0441332534 0.00315815816 0.00383756799 0.0441716462 0.00345793925 0.00288356002 0.0441716462 0.00315815816 0.00383756799 0.0441716462 0.0030668776 0.00380888465 0.0442018136 0.00345793925 0.00288356002 0.0441716462 0.00345793925 0.00288356002 0.0441716462 0.0030668776 0.00380888465 0.0442018136 0.0033666587 0.00285487669 0.0442018136 0.0030668776 0.00380888465 0.0442018136 0.00297343568 0.00377952214 0.0442235284 0.0033666587 0.00285487669 0.0442018136 0.0033666587 0.00285487669 0.0442018136 0.00297343568 0.00377952214 0.0442235284 0.00327321677 0.00282551395 0.0442235284 0.00297343568 0.00377952214 0.0442235284 0.00287854415 0.00374970399 0.0442366228 0.00327321677 0.00282551395 0.0442235284 0.00327321677 0.00282551395 0.0442235284 0.00287854415 0.00374970399 0.0442366228 0.00317832525 0.00279569603 0.0442366228 0.00287854415 0.00374970399 0.0442366228 0.0027829248 0.00371965719 0.044241 0.00317832525 0.00279569603 0.0442366228 0.00317832525 0.00279569603 0.0442366228 0.0027829248 0.00371965719 0.044241 0.00308270589 0.00276564923 0.044241 0.0027829248 0.00371965719 0.044241 0.00268730544 0.0036896104 0.0442366228 0.00308270589 0.00276564923 0.044241 0.00308270589 0.00276564923 0.044241 0.00268730544 0.0036896104 0.0442366228 0.00298708654 0.00273560244 0.0442366228 0.00268730544 0.0036896104 0.0442366228 0.00259241369 0.00365979224 0.0442235284 0.00298708654 0.00273560244 0.0442366228 0.00298708654 0.00273560244 0.0442366228 0.00259241369 0.00365979224 0.0442235284 0.00289219478 0.00270578428 0.0442235284 0.00259241369 0.00365979224 0.0442235284 0.002498972 0.00363042974 0.0442018136 0.00289219478 0.00270578428 0.0442235284 0.00289219478 0.00270578428 0.0442235284 0.002498972 0.00363042974 0.0442018136 0.00279875309 0.00267642178 0.0442018136 0.002498972 0.00363042974 0.0442018136 0.00240769121 0.0036017464 0.0441716462 0.00279875309 0.00267642178 0.0442018136 0.00279875309 0.00267642178 0.0442018136 0.00240769121 0.0036017464 0.0441716462 0.0027074723 0.00264773821 0.0441716462 0.00240769121 0.0036017464 0.0441716462 0.00231926632 0.00357396016 0.0441332534 0.0027074723 0.00264773821 0.0441716462 0.0027074723 0.00264773821 0.0441716462 0.00231926632 0.00357396016 0.0441332534 0.00261904742 0.0026199522 0.0441332534 0.00231926632 0.00357396016 0.0441332534 0.00223437021 0.00354728312 0.0440869294 0.00261904742 0.0026199522 0.0441332534 0.00261904742 0.0026199522 0.0441332534 0.00223437021 0.00354728312 0.0440869294 0.00253415131 0.00259327493 0.0440869294 0.00223437021 0.00354728312 0.0440869294 0.00215364876 0.00352191762 0.0440330245 0.00253415131 0.00259327493 0.0440869294 0.00253415131 0.00259327493 0.0440869294 0.00215364876 0.00352191762 0.0440330245 0.00245342986 0.00256790966 0.0440330245 0.00215364876 0.00352191762 0.0440330245 0.00207771664 0.00349805737 0.0439719483 0.00245342986 0.00256790966 0.0440330245 0.00245342986 0.00256790966 0.0440330245 0.00207771664 0.00349805737 0.0439719483 0.00237749773 0.00254404917 0.0439719483 0.00207771664 0.00349805737 0.0439719483 0.00200715149 0.00347588328 0.0439041704 0.00237749773 0.00254404917 0.0439719483 0.00237749773 0.00254404917 0.0439719483 0.00200715149 0.00347588328 0.0439041704 0.00230693258 0.00252187531 0.0439041704 0.00200715149 0.00347588328 0.0439041704 0.00194249034 0.00345556461 0.0438302048 0.00230693258 0.00252187531 0.0439041704 0.00230693258 0.00252187531 0.0439041704 0.00194249034 0.00345556461 0.0438302048 0.00224227132 0.00250155665 0.0438302048 0.00194249034 0.00345556461 0.0438302048 0.00188422552 0.00343725597 0.0437506102 0.00224227132 0.00250155665 0.0438302048 0.00224227132 0.00250155665 0.0438302048 0.00188422552 0.00343725597 0.0437506102 0.00218400662 0.00248324801 0.0437506102 0.00188422552 0.00343725597 0.0437506102 0.00183280034 0.00342109636 0.0436659977 0.00218400662 0.00248324801 0.0437506102 0.00218400662 0.00248324801 0.0437506102 0.00183280034 0.00342109636 0.0436659977 0.00213258131 0.0024670884 0.0436659977 0.00183280034 0.00342109636 0.0436659977 0.00178860617 0.00340720918 0.0435770079 0.00213258131 0.0024670884 0.0436659977 0.00213258131 0.0024670884 0.0436659977 0.00178860617 0.00340720918 0.0435770079 0.00208838726 0.00245320122 0.0435770079 0.00178860617 0.00340720918 0.0435770079 0.00175197935 0.0033956999 0.0434843227 0.00208838726 0.00245320122 0.0435770079 0.00208838726 0.00245320122 0.0435770079 0.00175197935 0.0033956999 0.0434843227 0.00205176044 0.0024416917 0.0434843227 0.00175197935 0.0033956999 0.0434843227 0.00172319857 0.00338665606 0.0433886424 0.00205176044 0.0024416917 0.0434843227 0.00205176044 0.0024416917 0.0434843227 0.00172319857 0.00338665606 0.0433886424 0.00202297978 0.00243264786 0.0433886424 0.00172319857 0.00338665606 0.0433886424 0.00170248304 0.00338014634 0.0432906933 0.00202297978 0.00243264786 0.0433886424 0.00202297978 0.00243264786 0.0433886424 0.00170248304 0.00338014634 0.0432906933 0.00200226414 0.00242613838 0.0432906933 0.00170248304 0.00338014634 0.0432906933 0.0016899904 0.00337622082 0.0431912281 0.00200226414 0.00242613838 0.0432906933 0.00200226414 0.00242613838 0.0432906933 0.0016899904 0.00337622082 0.0431912281 0.00198977138 0.00242221286 0.0431912281 0.0016899904 0.00337622082 0.0431912281 0.00168581551 0.00337490882 0.0430909991 0.00198977138 0.00242221286 0.0431912281 0.00198977138 0.00242221286 0.0431912281 0.00168581551 0.00337490882 0.0430909991 0.00198559673 0.00242090086 0.0430909991 </float_array>
          <technique_common>
            <accessor count="852" offset="0" source="#mesh_0-positions-array" stride="3">
              <param name="X" type="float" />
              <param name="Y" type="float" />
              <param name="Z" type="float" />
            </accessor>
          </technique_common>
        </source>
        <source id="mesh_0-normals" name="mesh_0-normals">
          <float_array id="mesh_0-normals-array" count="2556"> -0.299781114 0.954007983 1.49225201e-08 -0.299781114 0.954007983 1.49225201e-08 -0.299781114 0.954007983 1.49225201e-08 -0.299781203 0.954007983 4.05554914e-08 -0.299781203 0.954007983 4.05554914e-08 -0.299781203 0.954007983 4.05554914e-08 -0.299780011 0.954008341 -3.59507737e-07 -0.299780011 0.954008341 -3.59507737e-07 -0.299780011 0.954008341 -3.59507737e-07 -0.29978177 0.954007804 1.9654334e-07 -0.29978177 0.954007804 1.9654334e-07 -0.29978177 0.954007804 1.9654334e-07 -0.299780577 0.954008162 -1.39682157e-07 -0.299780577 0.954008162 -1.39682157e-07 -0.299780577 0.954008162 -1.39682157e-07 -0.299780637 0.954008162 -1.21329421e-07 -0.299780637 0.954008162 -1.21329421e-07 -0.299780637 0.954008162 -1.21329421e-07 -0.299783021 0.954007387 0 -0.299783021 0.954007387 0 -0.299783021 0.954007387 0 -0.299779594 0.95400852 -0 -0.299779594 0.95400852 -0 -0.299779594 0.95400852 -0 -0.299779594 0.95400852 0 -0.299779594 0.95400852 0 -0.299779594 0.95400852 0 -0.299780756 0.954008102 0 -0.299780756 0.954008102 0 -0.299780756 0.954008102 0 -0.299780607 0.954008162 -0 -0.299780607 0.954008162 -0 -0.299780607 0.954008162 -0 -0.299780548 0.954008162 -2.24497598e-09 -0.299780548 0.954008162 -2.24497598e-09 -0.299780548 0.954008162 -2.24497598e-09 -0.299783021 0.954007387 0 -0.299783021 0.954007387 0 -0.299783021 0.954007387 0 -0.299779892 0.9540084 -0 -0.299779892 0.9540084 -0 -0.299779892 0.9540084 -0 -0.299781233 0.954007983 6.13339211e-08 -0.299781233 0.954007983 6.13339211e-08 -0.299781233 0.954007983 6.13339211e-08 -0.299780756 0.954008102 -1.05200781e-08 -0.299780756 0.954008102 -1.05200781e-08 -0.299780756 0.954008102 -1.05200781e-08 -0.299780071 0.954008341 8.33588274e-08 -0.299780071 0.954008341 8.33588274e-08 -0.299780071 0.954008341 8.33588274e-08 -0.299781203 0.954007983 -2.12722888e-08 -0.299781203 0.954007983 -2.12722888e-08 -0.299781203 0.954007983 -2.12722888e-08 -0.299781233 0.954007983 -5.62974982e-08 -0.299781233 0.954007983 -5.62974982e-08 -0.299781233 0.954007983 -5.62974982e-08 -0.299780011 0.954008341 -0 -0.299780011 0.954008341 -0 -0.299780011 0.954008341 -0 -0.299782008 0.954007745 0 -0.299782008 0.954007745 0 -0.299782008 0.954007745 0 -0.299781799 0.954007804 1.13864729e-07 -0.299781799 0.954007804 1.13864729e-07 -0.299781799 0.954007804 1.13864729e-07 -0.299781173 0.954007983 2.57212793e-08 -0.299781173 0.954007983 2.57212793e-08 -0.299781173 0.954007983 2.57212793e-08 -0.299781173 0.954007983 2.53281698e-08 -0.299781173 0.954007983 2.53281698e-08 -0.299781173 0.954007983 2.53281698e-08 -0.299782515 0.954007566 0 -0.299782515 0.954007566 0 -0.299782515 0.954007566 0 -0.299782515 0.954007566 -0 -0.299782515 0.954007566 -0 -0.299782515 0.954007566 -0 -0.299779356 0.954008579 0 -0.299779356 0.954008579 0 -0.299779356 0.954008579 0 -0.299781144 0.954007983 5.17561496e-08 -0.299781144 0.954007983 5.17561496e-08 -0.299781144 0.954007983 5.17561496e-08 -0.299781173 0.954007983 5.72546739e-08 -0.299781173 0.954007983 5.72546739e-08 -0.299781173 0.954007983 5.72546739e-08 -0.299781173 0.954007983 5.63796263e-08 -0.299781173 0.954007983 5.63796263e-08 -0.299781173 0.954007983 5.63796263e-08 -0.299783081 0.954007387 1.69678174e-07 -0.299783081 0.954007387 1.69678174e-07 -0.299783081 0.954007387 1.69678174e-07 -0.299780846 0.954008102 -3.34278631e-08 -0.299780846 0.954008102 -3.34278631e-08 -0.299780846 0.954008102 -3.34278631e-08 -0.299779177 0.954008639 -2.6633964e-07 -0.299779177 0.954008639 -2.6633964e-07 -0.299779177 0.954008639 -2.6633964e-07 -0.299783319 0.954007328 1.14314602e-07 -0.299783319 0.954007328 1.14314602e-07 -0.299783319 0.954007328 1.14314602e-07 -0.299780428 0.954008222 -7.35498205e-08 -0.299780428 0.954008222 -7.35498205e-08 -0.299780428 0.954008222 -7.35498205e-08 -0.299781293 0.954007924 7.69376829e-09 -0.299781293 0.954007924 7.69376829e-09 -0.299781293 0.954007924 7.69376829e-09 -0.299782217 0.954007685 1.34192533e-07 -0.299782217 0.954007685 1.34192533e-07 -0.299782217 0.954007685 1.34192533e-07 -0.299779952 0.9540084 -2.83036087e-07 -0.299779952 0.9540084 -2.83036087e-07 -0.299779952 0.9540084 -2.83036087e-07 -0.299782515 0.954007566 3.09343591e-07 -0.299782515 0.954007566 3.09343591e-07 -0.299782515 0.954007566 3.09343591e-07 -0.299780011 0.954008341 -3.88393033e-07 -0.299780011 0.954008341 -3.88393033e-07 -0.299780011 0.954008341 -3.88393033e-07 -0.29977861 0.954008818 -7.77578464e-07 -0.29977861 0.954008818 -7.77578464e-07 -0.29977861 0.954008818 -7.77578464e-07 -0.299778283 0.954008877 -8.35909304e-07 -0.299778283 0.954008877 -8.35909304e-07 -0.299778283 0.954008877 -8.35909304e-07 -0.299782574 0.954007566 1.64302463e-07 -0.299782574 0.954007566 1.64302463e-07 -0.299782574 0.954007566 1.64302463e-07 -0.299781024 0.954008043 -2.75789347e-07 -0.299781024 0.954008043 -2.75789347e-07 -0.299781024 0.954008043 -2.75789347e-07 -0.299784631 0.95400691 1.13445549e-06 -0.299784631 0.95400691 1.13445549e-06 -0.299784631 0.95400691 1.13445549e-06 -0.299781561 0.954007864 -3.33967449e-08 -0.299781561 0.954007864 -3.33967449e-08 -0.299781561 0.954007864 -3.33967449e-08 -0.299782187 0.954007685 2.37665489e-07 -0.299782187 0.954007685 2.37665489e-07 -0.299782187 0.954007685 2.37665489e-07 -0.299779743 0.95400846 -6.99748284e-07 -0.299779743 0.95400846 -6.99748284e-07 -0.299779743 0.95400846 -6.99748284e-07 -0.299782634 0.954007506 -1.45193951e-07 -0.299782634 0.954007506 -1.45193951e-07 -0.299782634 0.954007506 -1.45193951e-07 -0.299779445 0.95400852 -0 -0.299779445 0.95400852 -0 -0.299779445 0.95400852 -0 -0.299780816 0.954008102 0 -0.299780816 0.954008102 0 -0.299780816 0.954008102 0 -0.299800515 0.954001904 4.1180856e-06 -0.299800515 0.954001904 4.1180856e-06 -0.299800515 0.954001904 4.1180856e-06 -0.29979381 0.954004049 2.87553394e-06 -0.29979381 0.954004049 2.87553394e-06 -0.29979381 0.954004049 2.87553394e-06 -0.299777687 0.954009116 -9.90599915e-07 -0.299777687 0.954009116 -9.90599915e-07 -0.299777687 0.954009116 -9.90599915e-07 -0.299786121 0.954006433 1.37627069e-06 -0.299786121 0.954006433 1.37627069e-06 -0.299786121 0.954006433 1.37627069e-06 -0.299784809 0.954006851 9.4710208e-07 -0.299784809 0.954006851 9.4710208e-07 -0.299784809 0.954006851 9.4710208e-07 -0.299774885 0.95400995 -1.8367474e-06 -0.299774885 0.95400995 -1.8367474e-06 -0.299774885 0.95400995 -1.8367474e-06 -0.299780041 0.954008341 3.77594809e-08 -0.299780041 0.954008341 3.77594809e-08 -0.299780041 0.954008341 3.77594809e-08 -0.299779475 0.95400852 1.45915507e-07 -0.299779475 0.95400852 1.45915507e-07 -0.299779475 0.95400852 1.45915507e-07 -0.299779475 0.95400852 1.43563966e-07 -0.299779475 0.95400852 1.43563966e-07 -0.299779475 0.95400852 1.43563966e-07 -0.299784482 0.95400697 -9.15032899e-07 -0.299784482 0.95400697 -9.15032899e-07 -0.299784482 0.95400697 -9.15032899e-07 -0.29977712 0.954009295 1.15159628e-06 -0.29977712 0.954009295 1.15159628e-06 -0.29977712 0.954009295 1.15159628e-06 -0.299775749 0.954009712 1.4675777e-06 -0.299775749 0.954009712 1.4675777e-06 -0.299775749 0.954009712 1.4675777e-06 -0.299779147 0.954008639 2.46550485e-07 -0.299779147 0.954008639 2.46550485e-07 -0.299779147 0.954008639 2.46550485e-07 -0.299783766 0.954007208 -6.03780052e-07 -0.299783766 0.954007208 -6.03780052e-07 -0.299783766 0.954007208 -6.03780052e-07 -0.299785823 0.954006553 -8.89613091e-07 -0.299785823 0.954006553 -8.89613091e-07 -0.299785823 0.954006553 -8.89613091e-07 -0.29977867 0.954008758 4.34875489e-07 -0.29977867 0.954008758 4.34875489e-07 -0.29977867 0.954008758 4.34875489e-07 -0.299775183 0.954009891 1.57380032e-06 -0.299775183 0.954009891 1.57380032e-06 -0.299775183 0.954009891 1.57380032e-06 -0.299794137 0.95400393 -1.04428705e-06 -0.299794137 0.95400393 -1.04428705e-06 -0.299794137 0.95400393 -1.04428705e-06 -0.299761146 0.954014301 1.9826507e-06 -0.299761146 0.954014301 1.9826507e-06 -0.299761146 0.954014301 1.9826507e-06 -0.953099906 -0.299495876 -0.0436203629 -0.953099906 -0.299495876 -0.0436203629 -0.953099906 -0.299495876 -0.0436203629 -0.953100085 -0.299495697 -0.0436181538 -0.953100085 -0.299495697 -0.0436181538 -0.953100085 -0.299495697 -0.0436181538 -0.945846319 -0.297216326 -0.130526513 -0.945846319 -0.297216326 -0.130526513 -0.945846319 -0.297216326 -0.130526513 -0.94584614 -0.297216386 -0.130527601 -0.94584614 -0.297216386 -0.130527601 -0.94584614 -0.297216386 -0.130527601 -0.931395233 -0.292675436 -0.216434687 -0.931395233 -0.292675436 -0.216434687 -0.931395233 -0.292675436 -0.216434687 -0.931395173 -0.292675436 -0.216435075 -0.931395173 -0.292675436 -0.216435075 -0.931395173 -0.292675436 -0.216435075 -0.909852624 -0.285906047 -0.300709099 -0.909852624 -0.285906047 -0.300709099 -0.909852624 -0.285906047 -0.300709099 -0.909852922 -0.285906047 -0.300708115 -0.909852922 -0.285906047 -0.300708115 -0.909852922 -0.285906047 -0.300708115 -0.881390095 -0.276962072 -0.382679403 -0.881390095 -0.276962072 -0.382679403 -0.881390095 -0.276962072 -0.382679403 -0.881389856 -0.276962072 -0.382679999 -0.881389856 -0.276962072 -0.382679999 -0.881389856 -0.276962072 -0.382679999 -0.846209526 -0.265907228 -0.461760521 -0.846209526 -0.265907228 -0.461760521 -0.846209526 -0.265907228 -0.461760521 -0.846210003 -0.265907288 -0.461759657 -0.846210003 -0.265907288 -0.461759657 -0.846210003 -0.265907288 -0.461759657 -0.804611325 -0.252835572 -0.537284672 -0.804611325 -0.252835572 -0.537284672 -0.804611325 -0.252835572 -0.537284672 -0.804610789 -0.252835512 -0.537285447 -0.804610789 -0.252835512 -0.537285447 -0.804610789 -0.252835512 -0.537285447 -0.756858528 -0.237830177 -0.608770847 -0.756858528 -0.237830177 -0.608770847 -0.756858528 -0.237830177 -0.608770847 -0.756859064 -0.237830251 -0.608770132 -0.756859064 -0.237830251 -0.608770132 -0.756859064 -0.237830251 -0.608770132 -0.703378141 -0.221024767 -0.67557919 -0.703378141 -0.221024767 -0.67557919 -0.703378141 -0.221024767 -0.67557919 -0.703377604 -0.221024677 -0.675579786 -0.703377604 -0.221024677 -0.675579786 -0.703377604 -0.221024677 -0.675579786 -0.644516289 -0.202528507 -0.737279415 -0.644516289 -0.202528507 -0.737279415 -0.644516289 -0.202528507 -0.737279415 -0.644516647 -0.202528566 -0.737279117 -0.644516647 -0.202528566 -0.737279117 -0.644516647 -0.202528566 -0.737279117 -0.580755949 -0.182492837 -0.79335922 -0.580755949 -0.182492837 -0.79335922 -0.580755949 -0.182492837 -0.79335922 -0.580755651 -0.182492778 -0.793359518 -0.580755651 -0.182492778 -0.793359518 -0.580755651 -0.182492778 -0.793359518 -0.51259166 -0.161073372 -0.843389094 -0.51259166 -0.161073372 -0.843389094 -0.51259166 -0.161073372 -0.843389094 -0.512591958 -0.161073431 -0.843388915 -0.512591958 -0.161073431 -0.843388915 -0.512591958 -0.161073431 -0.843388915 -0.440506876 -0.138421908 -0.887013555 -0.440506876 -0.138421908 -0.887013555 -0.440506876 -0.138421908 -0.887013555 -0.440506577 -0.138421848 -0.887013733 -0.440506577 -0.138421848 -0.887013733 -0.440506577 -0.138421848 -0.887013733 -0.365085334 -0.114721984 -0.923878551 -0.365085334 -0.114721984 -0.923878551 -0.365085334 -0.114721984 -0.923878551 -0.365085572 -0.114722028 -0.923878431 -0.365085572 -0.114722028 -0.923878431 -0.365085572 -0.114722028 -0.923878431 -0.286868781 -0.0901437104 -0.953719258 -0.286868781 -0.0901437104 -0.953719258 -0.286868781 -0.0901437104 -0.953719258 -0.286868572 -0.0901436731 -0.953719318 -0.286868572 -0.0901436731 -0.953719318 -0.286868572 -0.0901436731 -0.953719318 -0.206489772 -0.0648859665 -0.976294935 -0.206489772 -0.0648859665 -0.976294935 -0.206489772 -0.0648859665 -0.976294935 -0.206489772 -0.0648859665 -0.976294935 -0.206489772 -0.0648859665 -0.976294935 -0.206489772 -0.0648859665 -0.976294935 -0.124517359 -0.0391275026 -0.991445661 -0.124517359 -0.0391275026 -0.991445661 -0.124517359 -0.0391275026 -0.991445661 -0.124517359 -0.0391275026 -0.991445661 -0.124517359 -0.0391275026 -0.991445661 -0.124517359 -0.0391275026 -0.991445661 -0.041623868 -0.0130796069 -0.999047756 -0.041623868 -0.0130796069 -0.999047756 -0.041623868 -0.0130796069 -0.999047756 -0.041623868 -0.0130796069 -0.999047756 -0.041623868 -0.0130796069 -0.999047756 -0.041623868 -0.0130796069 -0.999047756 0.041623868 0.0130796069 -0.999047756 0.041623868 0.0130796069 -0.999047756 0.041623868 0.0130796069 -0.999047756 0.041623868 0.0130796069 -0.999047756 0.041623868 0.0130796069 -0.999047756 0.041623868 0.0130796069 -0.999047756 0.124517635 0.039127592 -0.991445601 0.124517635 0.039127592 -0.991445601 0.124517635 0.039127592 -0.991445601 0.124517724 0.0391276069 -0.991445601 0.124517724 0.0391276069 -0.991445601 0.124517724 0.0391276069 -0.991445601 0.206489339 0.0648858175 -0.976295054 0.206489339 0.0648858175 -0.976295054 0.206489339 0.0648858175 -0.976295054 0.20648919 0.0648857877 -0.976295054 0.20648919 0.0648857877 -0.976295054 0.20648919 0.0648857877 -0.976295054 0.286869377 0.090143919 -0.953719079 0.286869377 0.090143919 -0.953719079 0.286869377 0.090143919 -0.953719079 0.286869377 0.090143919 -0.953719079 0.286869377 0.090143919 -0.953719079 0.286869377 0.090143919 -0.953719079 0.365085572 0.114722051 -0.923878431 0.365085572 0.114722051 -0.923878431 0.365085572 0.114722051 -0.923878431 0.365085572 0.114722051 -0.923878431 0.365085572 0.114722051 -0.923878431 0.365085572 0.114722051 -0.923878431 0.440505713 0.13842158 -0.88701421 0.440505713 0.13842158 -0.88701421 0.440505713 0.13842158 -0.88701421 0.440505713 0.13842158 -0.88701421 0.440505713 0.13842158 -0.88701421 0.440505713 0.13842158 -0.88701421 0.512591958 0.161073461 -0.843388915 0.512591958 0.161073461 -0.843388915 0.512591958 0.161073461 -0.843388915 0.512591958 0.161073461 -0.843388915 0.512591958 0.161073461 -0.843388915 0.512591958 0.161073461 -0.843388915 0.580755651 0.182492778 -0.793359518 0.580755651 0.182492778 -0.793359518 0.580755651 0.182492778 -0.793359518 0.580755651 0.182492778 -0.793359518 0.580755651 0.182492778 -0.793359518 0.580755651 0.182492778 -0.793359518 0.644516647 0.202528611 -0.737279117 0.644516647 0.202528611 -0.737279117 0.644516647 0.202528611 -0.737279117 0.644516647 0.202528611 -0.737279117 0.644516647 0.202528611 -0.737279117 0.644516647 0.202528611 -0.737279117 0.703378618 0.221025005 -0.675578594 0.703378618 0.221025005 -0.675578594 0.703378618 0.221025005 -0.675578594 0.703377545 0.221024841 -0.675579786 0.703377545 0.221024841 -0.675579786 0.703377545 0.221024841 -0.675579786 0.756857693 0.237830088 -0.60877198 0.756857693 0.237830088 -0.60877198 0.756857693 0.237830088 -0.60877198 0.756859839 0.237830386 -0.608769178 0.756859839 0.237830386 -0.608769178 0.756859839 0.237830386 -0.608769178 0.8046121 0.252835751 -0.537283421 0.8046121 0.252835751 -0.537283421 0.8046121 0.252835751 -0.537283421 0.804611087 0.252835631 -0.53728497 0.804611087 0.252835631 -0.53728497 0.804611087 0.252835631 -0.53728497 0.846208811 0.265907019 -0.461761951 0.846208811 0.265907019 -0.461761951 0.846208811 0.265907019 -0.461761951 0.846209764 0.265907109 -0.461760223 0.846209764 0.265907109 -0.461760223 0.846209764 0.265907109 -0.461760223 0.881390154 0.276961923 -0.382679403 0.881390154 0.276961923 -0.382679403 0.881390154 0.276961923 -0.382679403 0.88138932 0.276961893 -0.38268131 0.88138932 0.276961893 -0.38268131 0.88138932 0.276961893 -0.38268131 0.909852743 0.285906047 -0.300708741 0.909852743 0.285906047 -0.300708741 0.909852743 0.285906047 -0.300708741 0.909852922 0.285906047 -0.300708115 0.909852922 0.285906047 -0.300708115 0.909852922 0.285906047 -0.300708115 0.93139565 0.292675465 -0.216432974 0.93139565 0.292675465 -0.216432974 0.93139565 0.292675465 -0.216432974 0.93139565 0.292675465 -0.216432974 0.93139565 0.292675465 -0.216432974 0.93139565 0.292675465 -0.216432974 0.9458462 0.297216326 -0.130527601 0.9458462 0.297216326 -0.130527601 0.9458462 0.297216326 -0.130527601 0.945846081 0.297216356 -0.130528286 0.945846081 0.297216356 -0.130528286 0.945846081 0.297216356 -0.130528286 0.953099966 0.299495786 -0.04361967 0.953099966 0.299495786 -0.04361967 0.953099966 0.299495786 -0.04361967 0.953099847 0.299495965 -0.0436218791 0.953099847 0.299495965 -0.0436218791 0.953099847 0.299495965 -0.0436218791 0.299780756 -0.954008102 0 0.299780756 -0.954008102 0 0.299780756 -0.954008102 0 0.299782008 -0.954007745 -3.06266656e-07 0.299782008 -0.954007745 -3.06266656e-07 0.299782008 -0.954007745 -3.06266656e-07 0.299781203 -0.954007983 -4.05554914e-08 0.299781203 -0.954007983 -4.05554914e-08 0.299781203 -0.954007983 -4.05554914e-08 0.299781114 -0.954007983 -1.49225201e-08 0.299781114 -0.954007983 -1.49225201e-08 0.299781114 -0.954007983 -1.49225201e-08 0.299781173 -0.954007983 -2.53281698e-08 0.299781173 -0.954007983 -2.53281698e-08 0.299781173 -0.954007983 -2.53281698e-08 0.299780607 -0.954008162 0 0.299780607 -0.954008162 0 0.299780607 -0.954008162 0 0.299780667 -0.954008162 2.13522497e-07 0.299780667 -0.954008162 2.13522497e-07 0.299780667 -0.954008162 2.13522497e-07 0.299782604 -0.954007566 -4.33896389e-07 0.299782604 -0.954007566 -4.33896389e-07 0.299782604 -0.954007566 -4.33896389e-07 0.299779713 -0.95400846 3.81437673e-07 0.299779713 -0.95400846 3.81437673e-07 0.299779713 -0.95400846 3.81437673e-07 0.299780756 -0.954008102 0 0.299780756 -0.954008102 0 0.299780756 -0.954008102 0 0.299781978 -0.954007745 -0 0.299781978 -0.954007745 -0 0.299781978 -0.954007745 -0 0.299781173 -0.954007983 4.24369091e-08 0.299781173 -0.954007983 4.24369091e-08 0.299781173 -0.954007983 4.24369091e-08 0.299781173 -0.954007983 4.30955573e-08 0.299781173 -0.954007983 4.30955573e-08 0.299781173 -0.954007983 4.30955573e-08 0.299781114 -0.954007983 4.9776844e-08 0.299781114 -0.954007983 4.9776844e-08 0.299781114 -0.954007983 4.9776844e-08 0.299781203 -0.954007983 4.1014836e-08 0.299781203 -0.954007983 4.1014836e-08 0.299781203 -0.954007983 4.1014836e-08 0.299782127 -0.954007685 -0 0.299782127 -0.954007685 -0 0.299782127 -0.954007685 -0 0.299780756 -0.954008102 0 0.299780756 -0.954008102 0 0.299780756 -0.954008102 0 0.299781978 -0.954007745 0 0.299781978 -0.954007745 0 0.299781978 -0.954007745 0 0.299780011 -0.954008341 -0 0.299780011 -0.954008341 -0 0.299780011 -0.954008341 -0 0.299780011 -0.954008341 0 0.299780011 -0.954008341 0 0.299780011 -0.954008341 0 0.299782008 -0.954007745 -0 0.299782008 -0.954007745 -0 0.299782008 -0.954007745 -0 0.299781173 -0.954007983 -2.57212793e-08 0.299781173 -0.954007983 -2.57212793e-08 0.299781173 -0.954007983 -2.57212793e-08 0.299779654 -0.95400846 1.8531955e-07 0.299779654 -0.95400846 1.8531955e-07 0.299779654 -0.95400846 1.8531955e-07 0.299782723 -0.954007506 -9.77363399e-08 0.299782723 -0.954007506 -9.77363399e-08 0.299782723 -0.954007506 -9.77363399e-08 0.299781203 -0.954007983 2.12722888e-08 0.299781203 -0.954007983 2.12722888e-08 0.299781203 -0.954007983 2.12722888e-08 0.299780071 -0.954008341 -8.33588274e-08 0.299780071 -0.954008341 -8.33588274e-08 0.299780071 -0.954008341 -8.33588274e-08 0.299780756 -0.954008102 1.05200781e-08 0.299780756 -0.954008102 1.05200781e-08 0.299780756 -0.954008102 1.05200781e-08 0.299781233 -0.954007983 5.62974982e-08 0.299781233 -0.954007983 5.62974982e-08 0.299781233 -0.954007983 5.62974982e-08 0.299780399 -0.954008222 -7.45493267e-08 0.299780399 -0.954008222 -7.45493267e-08 0.299780399 -0.954008222 -7.45493267e-08 0.299784034 -0.954007089 4.26483069e-07 0.299784034 -0.954007089 4.26483069e-07 0.299784034 -0.954007089 4.26483069e-07 0.299779058 -0.954008639 -4.95985205e-07 0.299779058 -0.954008639 -4.95985205e-07 0.299779058 -0.954008639 -4.95985205e-07 0.299781293 -0.954007983 3.44273907e-08 0.299781293 -0.954007983 3.44273907e-08 0.299781293 -0.954007983 3.44273907e-08 0.299783111 -0.954007387 8.32206467e-07 0.299783111 -0.954007387 8.32206467e-07 0.299783111 -0.954007387 8.32206467e-07 0.299782366 -0.954007626 4.62293912e-07 0.299782366 -0.954007626 4.62293912e-07 0.299782366 -0.954007626 4.62293912e-07 0.299779773 -0.95400846 -6.61356751e-07 0.299779773 -0.95400846 -6.61356751e-07 0.299779773 -0.95400846 -6.61356751e-07 0.299782157 -0.954007685 -1.65446806e-07 0.299782157 -0.954007685 -1.65446806e-07 0.299782157 -0.954007685 -1.65446806e-07 0.299780399 -0.954008222 7.45493267e-08 0.299780399 -0.954008222 7.45493267e-08 0.299780399 -0.954008222 7.45493267e-08 0.299780428 -0.954008222 7.35496783e-08 0.299780428 -0.954008222 7.35496783e-08 0.299780428 -0.954008222 7.35496783e-08 0.299780339 -0.954008222 -1.15471654e-09 0.299780339 -0.954008222 -1.15471654e-09 0.299780339 -0.954008222 -1.15471654e-09 0.299780339 -0.954008281 -0 0.299780339 -0.954008281 -0 0.299780339 -0.954008281 -0 0.299780011 -0.954008341 0 0.299780011 -0.954008341 0 0.299780011 -0.954008341 0 0.299782097 -0.954007685 -9.53901917e-08 0.299782097 -0.954007685 -9.53901917e-08 0.299782097 -0.954007685 -9.53901917e-08 0.299780011 -0.954008341 0 0.299780011 -0.954008341 0 0.299780011 -0.954008341 0 0.299782008 -0.954007745 -0 0.299782008 -0.954007745 -0 0.299782008 -0.954007745 -0 0.299780428 -0.954008222 -7.35496783e-08 0.299780428 -0.954008222 -7.35496783e-08 0.299780428 -0.954008222 -7.35496783e-08 0.299783528 -0.954007268 5.43615613e-07 0.299783528 -0.954007268 5.43615613e-07 0.299783528 -0.954007268 5.43615613e-07 0.299779028 -0.954008639 -7.13852558e-07 0.299779028 -0.954008639 -7.13852558e-07 0.299779028 -0.954008639 -7.13852558e-07 0.299781114 -0.954007983 -2.6289694e-08 0.299781114 -0.954007983 -2.6289694e-08 0.299781114 -0.954007983 -2.6289694e-08 0.299779773 -0.95400846 -4.1770295e-07 0.299779773 -0.95400846 -4.1770295e-07 0.299779773 -0.95400846 -4.1770295e-07 0.299774885 -0.95400995 -1.09399764e-06 0.299774885 -0.95400995 -1.09399764e-06 0.299774885 -0.95400995 -1.09399764e-06 0.299786419 -0.954006314 1.03921275e-06 0.299786419 -0.954006314 1.03921275e-06 0.299786419 -0.954006314 1.03921275e-06 0.299776345 -0.954009533 -1.29917657e-06 0.299776345 -0.954009533 -1.29917657e-06 0.299776345 -0.954009533 -1.29917657e-06 0.299786478 -0.954006314 1.54672841e-06 0.299786478 -0.954006314 1.54672841e-06 0.299786478 -0.954006314 1.54672841e-06 0.299779534 -0.95400852 -7.46551734e-07 0.299779534 -0.95400852 -7.46551734e-07 0.299779534 -0.95400852 -7.46551734e-07 0.299779534 -0.95400852 -4.39949304e-07 0.299779534 -0.95400852 -4.39949304e-07 0.299779534 -0.95400852 -4.39949304e-07 0.299764991 -0.95401305 -1.1058155e-06 0.299764991 -0.95401305 -1.1058155e-06 0.299764991 -0.95401305 -1.1058155e-06 0.299813122 -0.95399797 3.30917533e-06 0.299813122 -0.95399797 3.30917533e-06 0.299813122 -0.95399797 3.30917533e-06 0.299779862 -0.9540084 1.08078659e-07 0.299779862 -0.9540084 1.08078659e-07 0.299779862 -0.9540084 1.08078659e-07 0.299782246 -0.954007685 -0 0.299782246 -0.954007685 -0 0.299782246 -0.954007685 -0 0.299779952 -0.9540084 0 0.299779952 -0.9540084 0 0.299779952 -0.9540084 0 0.299784213 -0.95400703 1.95034275e-07 0.299784213 -0.95400703 1.95034275e-07 0.299784213 -0.95400703 1.95034275e-07 0.299781263 -0.954007983 -7.4153057e-08 0.299781263 -0.954007983 -7.4153057e-08 0.299781263 -0.954007983 -7.4153057e-08 0.299779654 -0.95400846 -2.97964476e-07 0.299779654 -0.95400846 -2.97964476e-07 0.299779654 -0.95400846 -2.97964476e-07 0.299777716 -0.954009056 -6.55011831e-07 0.299777716 -0.954009056 -6.55011831e-07 0.299777716 -0.954009056 -6.55011831e-07 0.299786985 -0.954006195 1.49684843e-06 0.299786985 -0.954006195 1.49684843e-06 0.299786985 -0.954006195 1.49684843e-06 0.299778134 -0.954008937 -9.85771521e-07 0.299778134 -0.954008937 -9.85771521e-07 0.299778134 -0.954008937 -9.85771521e-07 0.299773216 -0.954010487 -2.12589975e-06 0.299773216 -0.954010487 -2.12589975e-06 0.299773216 -0.954010487 -2.12589975e-06 0.299788356 -0.954005718 2.12433201e-06 0.299788356 -0.954005718 2.12433201e-06 0.299788356 -0.954005718 2.12433201e-06 0.299790382 -0.954005122 2.79426877e-06 0.299790382 -0.954005122 2.79426877e-06 0.299790382 -0.954005122 2.79426877e-06 0.299796164 -0.954003274 4.99498356e-06 0.299796164 -0.954003274 4.99498356e-06 0.299796164 -0.954003274 4.99498356e-06 0.953099906 0.299495995 0.04361967 0.953099906 0.299495995 0.04361967 0.953099906 0.299495995 0.04361967 0.953099906 0.299495757 0.0436218791 0.953099906 0.299495757 0.0436218791 0.953099906 0.299495757 0.0436218791 0.94584614 0.297216386 0.130527601 0.94584614 0.297216386 0.130527601 0.94584614 0.297216386 0.130527601 0.945846081 0.297216296 0.130528286 0.945846081 0.297216296 0.130528286 0.945846081 0.297216296 0.130528286 0.93139565 0.292675465 0.216432974 0.93139565 0.292675465 0.216432974 0.93139565 0.292675465 0.216432974 0.93139565 0.292675465 0.216432974 0.93139565 0.292675465 0.216432974 0.93139565 0.292675465 0.216432974 0.909852743 0.285905987 0.300708741 0.909852743 0.285905987 0.300708741 0.909852743 0.285905987 0.300708741 0.909852922 0.285906106 0.300708115 0.909852922 0.285906106 0.300708115 0.909852922 0.285906106 0.300708115 0.88138485 0.276960492 0.382692546 0.88138485 0.276960492 0.382692546 0.88138485 0.276960492 0.382692546 0.881384194 0.276960075 0.382694423 0.881384194 0.276960075 0.382694423 0.881384194 0.276960075 0.382694423 0.84621644 0.265909195 0.461746752 0.84621644 0.265909195 0.461746752 0.84621644 0.265909195 0.461746752 0.846217215 0.265909642 0.461744994 0.846217215 0.265909642 0.461744994 0.846217215 0.265909642 0.461744994 0.804601848 0.252832711 0.537300229 0.804601848 0.252832711 0.537300229 0.804601848 0.252832711 0.537300229 0.804600894 0.252832234 0.537301779 0.804600894 0.252832234 0.537301779 0.804600894 0.252832234 0.537301779 0.756870925 0.237833872 0.608754039 0.756870925 0.237833872 0.608754039 0.756870925 0.237833872 0.608754039 0.756872833 0.237834856 0.608751237 0.756872833 0.237834856 0.608751237 0.756872833 0.237834856 0.608751237 0.703362405 0.221020088 0.675597072 0.703362405 0.221020088 0.675597072 0.703362405 0.221020088 0.675597072 0.703361392 0.221019596 0.675598264 0.703361392 0.221019596 0.675598264 0.703361392 0.221019596 0.675598264 0.644516647 0.202528611 0.737279117 0.644516647 0.202528611 0.737279117 0.644516647 0.202528611 0.737279117 0.644516647 0.202528611 0.737279117 0.644516647 0.202528611 0.737279117 0.644516647 0.202528611 0.737279117 0.580777943 0.182499781 0.793341577 0.580777943 0.182499781 0.793341577 0.580777943 0.182499781 0.793341577 0.580777943 0.182499781 0.793341577 0.580777943 0.182499781 0.793341577 0.580777943 0.182499781 0.793341577 0.512591958 0.161073461 0.843388915 0.512591958 0.161073461 0.843388915 0.512591958 0.161073461 0.843388915 0.512591958 0.161073461 0.843388915 0.512591958 0.161073461 0.843388915 0.512591958 0.161073461 0.843388915 0.440505713 0.13842158 0.88701421 0.440505713 0.13842158 0.88701421 0.440505713 0.13842158 0.88701421 0.440505713 0.13842158 0.88701421 0.440505713 0.13842158 0.88701421 0.440505713 0.13842158 0.88701421 0.365085572 0.114722051 0.923878431 0.365085572 0.114722051 0.923878431 0.365085572 0.114722051 0.923878431 0.365085572 0.114722051 0.923878431 0.365085572 0.114722051 0.923878431 0.365085572 0.114722051 0.923878431 0.286869377 0.090143919 0.953719079 0.286869377 0.090143919 0.953719079 0.286869377 0.090143919 0.953719079 0.286869377 0.090143919 0.953719079 0.286869377 0.090143919 0.953719079 0.286869377 0.090143919 0.953719079 0.206489325 0.0648858324 0.976295054 0.206489325 0.0648858324 0.976295054 0.206489325 0.0648858324 0.976295054 0.20648919 0.0648857728 0.976295054 0.20648919 0.0648857728 0.976295054 0.20648919 0.0648857728 0.976295054 0.124517635 0.0391275808 0.991445601 0.124517635 0.0391275808 0.991445601 0.124517635 0.0391275808 0.991445601 0.124517716 0.0391276181 0.991445601 0.124517716 0.0391276181 0.991445601 0.124517716 0.0391276181 0.991445601 0.041623868 0.0130796069 0.999047756 0.041623868 0.0130796069 0.999047756 0.041623868 0.0130796069 0.999047756 0.041623868 0.0130796069 0.999047756 0.041623868 0.0130796069 0.999047756 0.041623868 0.0130796069 0.999047756 -0.041623868 -0.0130796069 0.999047756 -0.041623868 -0.0130796069 0.999047756 -0.041623868 -0.0130796069 0.999047756 -0.041623868 -0.0130796069 0.999047756 -0.041623868 -0.0130796069 0.999047756 -0.041623868 -0.0130796069 0.999047756 -0.124517359 -0.0391275026 0.991445661 -0.124517359 -0.0391275026 0.991445661 -0.124517359 -0.0391275026 0.991445661 -0.124517359 -0.0391275026 0.991445661 -0.124517359 -0.0391275026 0.991445661 -0.124517359 -0.0391275026 0.991445661 -0.206489772 -0.0648859665 0.976294935 -0.206489772 -0.0648859665 0.976294935 -0.206489772 -0.0648859665 0.976294935 -0.206489772 -0.0648859665 0.976294935 -0.206489772 -0.0648859665 0.976294935 -0.206489772 -0.0648859665 0.976294935 -0.286868781 -0.0901437327 0.953719258 -0.286868781 -0.0901437327 0.953719258 -0.286868781 -0.0901437327 0.953719258 -0.286868602 -0.0901436508 0.953719318 -0.286868602 -0.0901436508 0.953719318 -0.286868602 -0.0901436508 0.953719318 -0.365085334 -0.114721954 0.923878551 -0.365085334 -0.114721954 0.923878551 -0.365085334 -0.114721954 0.923878551 -0.365085572 -0.114722051 0.923878431 -0.365085572 -0.114722051 0.923878431 -0.365085572 -0.114722051 0.923878431 -0.440506846 -0.138421938 0.887013555 -0.440506846 -0.138421938 0.887013555 -0.440506846 -0.138421938 0.887013555 -0.440506577 -0.138421819 0.887013733 -0.440506577 -0.138421819 0.887013733 -0.440506577 -0.138421819 0.887013733 -0.51259166 -0.161073342 0.843389094 -0.51259166 -0.161073342 0.843389094 -0.51259166 -0.161073342 0.843389094 -0.512591958 -0.161073461 0.843388915 -0.512591958 -0.161073461 0.843388915 -0.512591958 -0.161073461 0.843388915 -0.580778241 -0.182499886 0.793341279 -0.580778241 -0.182499886 0.793341279 -0.580778241 -0.182499886 0.793341279 -0.580777943 -0.182499737 0.793341577 -0.580777943 -0.182499737 0.793341577 -0.580777943 -0.182499737 0.793341577 -0.644516349 -0.202528462 0.737279415 -0.644516349 -0.202528462 0.737279415 -0.644516349 -0.202528462 0.737279415 -0.644516647 -0.202528611 0.737279117 -0.644516647 -0.202528611 0.737279117 -0.644516647 -0.202528611 0.737279117 -0.703361928 -0.22101976 0.675597668 -0.703361928 -0.22101976 0.675597668 -0.703361928 -0.22101976 0.675597668 -0.703361452 -0.221019521 0.675598264 -0.703361452 -0.221019521 0.675598264 -0.703361452 -0.221019521 0.675598264 -0.7568717 -0.237834215 0.608752906 -0.7568717 -0.237834215 0.608752906 -0.7568717 -0.237834215 0.608752906 -0.756872177 -0.237834468 0.608752191 -0.756872177 -0.237834468 0.608752191 -0.756872177 -0.237834468 0.608752191 -0.804601014 -0.252832472 0.537301481 -0.804601014 -0.252832472 0.537301481 -0.804601014 -0.252832472 0.537301481 -0.804600596 -0.252832234 0.537302315 -0.804600596 -0.252832234 0.537302315 -0.804600596 -0.252832234 0.537302315 -0.846217096 -0.265909523 0.461745322 -0.846217096 -0.265909523 0.461745322 -0.846217096 -0.265909523 0.461745322 -0.846217513 -0.265909731 0.461744457 -0.846217513 -0.265909731 0.461744457 -0.846217513 -0.265909731 0.461744457 -0.88138485 -0.276960492 0.382692546 -0.88138485 -0.276960492 0.382692546 -0.88138485 -0.276960492 0.382692546 -0.881384671 -0.276960373 0.382693142 -0.881384671 -0.276960373 0.382693142 -0.881384671 -0.276960373 0.382693142 -0.909852624 -0.285905957 0.300709099 -0.909852624 -0.285905957 0.300709099 -0.909852624 -0.285905957 0.300709099 -0.909852922 -0.285906136 0.300708115 -0.909852922 -0.285906136 0.300708115 -0.909852922 -0.285906136 0.300708115 -0.931395233 -0.292675465 0.216434687 -0.931395233 -0.292675465 0.216434687 -0.931395233 -0.292675465 0.216434687 -0.931395173 -0.292675406 0.216435075 -0.931395173 -0.292675406 0.216435075 -0.931395173 -0.292675406 0.216435075 -0.945846319 -0.297216415 0.130526513 -0.945846319 -0.297216415 0.130526513 -0.945846319 -0.297216415 0.130526513 -0.9458462 -0.297216266 0.130527601 -0.9458462 -0.297216266 0.130527601 -0.9458462 -0.297216266 0.130527601 -0.953100026 -0.299495667 0.0436203629 -0.953100026 -0.299495667 0.0436203629 -0.953100026 -0.299495667 0.0436203629 -0.953100026 -0.299495906 0.0436181538 -0.953100026 -0.299495906 0.0436181538 -0.953100026 -0.299495906 0.0436181538 </float_array>
          <technique_common>
            <accessor count="852" offset="0" source="#mesh_0-normals-array" stride="3">
              <param name="X" type="float" />
              <param name="Y" type="float" />
              <param name="Z" type="float" />
            </accessor>
          </technique_common>
        </source>
        <vertices id="mesh_0-vertices">
          <input semantic="POSITION" source="#mesh_0-positions" />
        </vertices>
        <polylist count="284" material="defaultMaterial">
          <input offset="0" semantic="VERTEX" source="#mesh_0-vertices" />
          <input offset="0" semantic="NORMAL" source="#mesh_0-normals" />
          <vcount>3 3 3 3 3 3 3 3 3 3 3 3 3 3 3 3 3 3 3 3 3 3 3 3 3 3 3 3 3 3 3 3 3 3 3 3 3 3 3 3 3 3 3 3 3 3 3 3 3 3 3 3 3 3 3 3 3 3 3 3 3 3 3 3 3 3 3 3 3 3 3 3 3 3 3 3 3 3 3 3 3 3 3 3 3 3 3 3 3 3 3 3 3 3 3 3 3 3 3 3 3 3 3 3 3 3 3 3 3 3 3 3 3 3 3 3 3 3 3 3 3 3 3 3 3 3 3 3 3 3 3 3 3 3 3 3 3 3 3 3 3 3 3 3 3 3 3 3 3 3 3 3 3 3 3 3 3 3 3 3 3 3 3 3 3 3 3 3 3 3 3 3 3 3 3 3 3 3 3 3 3 3 3 3 3 3 3 3 3 3 3 3 3 3 3 3 3 3 3 3 3 3 3 3 3 3 3 3 3 3 3 3 3 3 3 3 3 3 3 3 3 3 3 3 3 3 3 3 3 3 3 3 3 3 3 3 3 3 3 3 3 3 3 3 3 3 3 3 3 3 3 3 3 3 3 3 3 3 3 3 3 3 3 3 3 3 3 3 3 3 3 3 3 3 3 3 3 3 3 3 3 3 3 3 </vcount>
          <p>0 1 2 3 4 5 6 7 8 9 10 11 12 13 14 15 16 17 18 19 20 21 22 23 24 25 26 27 28 29 30 31 32 33 34 35 36 37 38 39 40 41 42 43 44 45 46 47 48 49 50 51 52 53 54 55 56 57 58 59 60 61 62 63 64 65 66 67 68 69 70 71 72 73 74 75 76 77 78 79 80 81 82 83 84 85 86 87 88 89 90 91 92 93 94 95 96 97 98 99 100 101 102 103 104 105 106 107 108 109 110 111 112 113 114 115 116 117 118 119 120 121 122 123 124 125 126 127 128 129 130 131 132 133 134 135 136 137 138 139 140 141 142 143 144 145 146 147 148 149 150 151 152 153 154 155 156 157 158 159 160 161 162 163 164 165 166 167 168 169 170 171 172 173 174 175 176 177 178 179 180 181 182 183 184 185 186 187 188 189 190 191 192 193 194 195 196 197 198 199 200 201 202 203 204 205 206 207 208 209 210 211 212 213 214 215 216 217 218 219 220 221 222 223 224 225 226 227 228 229 230 231 232 233 234 235 236 237 238 239 240 241 242 243 244 245 246 247 248 249 250 251 252 253 254 255 256 257 258 259 260 261 262 263 264 265 266 267 268 269 270 271 272 273 274 275 276 277 278 279 280 281 282 283 284 285 286 287 288 289 290 291 292 293 294 295 296 297 298 299 300 301 302 303 304 305 306 307 308 309 310 311 312 313 314 315 316 317 318 319 320 321 322 323 324 325 326 327 328 329 330 331 332 333 334 335 336 337 338 339 340 341 342 343 344 345 346 347 348 349 350 351 352 353 354 355 356 357 358 359 360 361 362 363 364 365 366 367 368 369 370 371 372 373 374 375 376 377 378 379 380 381 382 383 384 385 386 387 388 389 390 391 392 393 394 395 396 397 398 399 400 401 402 403 404 405 406 407 408 409 410 411 412 413 414 415 416 417 418 419 420 421 422 423 424 425 426 427 428 429 430 431 432 433 434 435 436 437 438 439 440 441 442 443 444 445 446 447 448 449 450 451 452 453 454 455 456 457 458 459 460 461 462 463 464 465 466 467 468 469 470 471 472 473 474 475 476 477 478 479 480 481 482 483 484 485 486 487 488 489 490 491 492 493 494 495 496 497 498 499 500 501 502 503 504 505 506 507 508 509 510 511 512 513 514 515 516 517 518 519 520 521 522 523 524 525 526 527 528 529 530 531 532 533 534 535 536 537 538 539 540 541 542 543 544 545 546 547 548 549 550 551 552 553 554 555 556 557 558 559 560 561 562 563 564 565 566 567 568 569 570 571 572 573 574 575 576 577 578 579 580 581 582 583 584 585 586 587 588 589 590 591 592 593 594 595 596 597 598 599 600 601 602 603 604 605 606 607 608 609 610 611 612 613 614 615 616 617 618 619 620 621 622 623 624 625 626 627 628 629 630 631 632 633 634 635 636 637 638 639 640 641 642 643 644 645 646 647 648 649 650 651 652 653 654 655 656 657 658 659 660 661 662 663 664 665 666 667 668 669 670 671 672 673 674 675 676 677 678 679 680 681 682 683 684 685 686 687 688 689 690 691 692 693 694 695 696 697 698 699 700 701 702 703 704 705 706 707 708 709 710 711 712 713 714 715 716 717 718 719 720 721 722 723 724 725 726 727 728 729 730 731 732 733 734 735 736 737 738 739 740 741 742 743 744 745 746 747 748 749 750 751 752 753 754 755 756 757 758 759 760 761 762 763 764 765 766 767 768 769 770 771 772 773 774 775 776 777 778 779 780 781 782 783 784 785 786 787 788 789 790 791 792 793 794 795 796 797 798 799 800 801 802 803 804 805 806 807 808 809 810 811 812 813 814 815 816 817 818 819 820 821 822 823 824 825 826 827 828 829 830 831 832 833 834 835 836 837 838 839 840 841 842 843 844 845 846 847 848 849 850 851 </p>
        </polylist>
      </mesh>
    </geometry>
  </library_geometries>
  <library_controllers>
  </library_controllers>
  <library_visual_scenes>
    <visual_scene id="_ySTL_BINARY_" name="&lt;STL_BINARY&gt;">
      <node id="node" name="" type="NODE">
        <matrix sid="matrix">1 0 0 0 0 1 0 0 0 0 1 0 0 0 0 1</matrix>
        <instance_geometry url="#mesh_0">
          <bind_material>
            <technique_common>
              <instance_material symbol="defaultMaterial" target="#DefaultMaterial">
              </instance_material>
            </technique_common>
          </bind_material>
        </instance_geometry>
      </node>
    </visual_scene>
  </library_visual_scenes>
  <scene>
    <instance_visual_scene url="#_ySTL_BINARY_" />
  </scene>
</COLLADA>
