<?xml version="1.0" encoding="UTF-8" standalone="no" ?>
<COLLADA xmlns="http://www.collada.org/2005/11/COLLADASchema" version="1.4.1">
  <asset>
    <contributor>
      <author>Assimp</author>
      <authoring_tool>Assimp Exporter</authoring_tool>
    </contributor>
    <created>2025-12-07T16:35:07</created>
    <modified>2025-12-07T16:35:07</modified>
    <unit name="meter" meter="1" />
    <up_axis>Y_UP</up_axis>
  </asset>
  <library_images>
  </library_images>
  <library_effects>
    <effect id="DefaultMaterial-fx" name="DefaultMaterial">
      <profile_COMMON>
        <technique sid="standard">
          <phong>
            <ambient>
              <color sid="ambient">0.0500000007   0.0500000007   0.0500000007   1</color>
            </ambient>
            <diffuse>
              <color sid="diffuse">1   1   1   1</color>
            </diffuse>
            <specular>
              <color sid="specular">1   1   1   1</color>
            </specular>
          </phong>
        </technique>
      </profile_COMMON>
    </effect>
  </library_effects>
  <library_materials>
    <material id="DefaultMaterial" name="DefaultMaterial">
      <instance_effect url="#DefaultMaterial-fx"/>
    </material>
  </library_materials>
  <library_geometries>
    <geometry id="mesh_0" name="" >
      <mesh>
        <source id="mesh_0-positions" name="mesh_0-positions">
          <float_array id="mesh_0-positions-array" count="1872"> 0.00700000022 -0.000750000007 0.00795000046 0.00700000022 0.00234999997 0.00795000046 0.00650000013 -0.000750000007 0.00795000046 0.00700000022 0.00234999997 0.00795000046 0.00650000013 0.00234999997 0.00795000046 0.00650000013 -0.000750000007 0.00795000046 0.00700000022 -0.000750000007 0.00795000046 0.00650000013 -0.000750000007 0.00795000046 0.00700000022 -0.000750000007 0.00765223848 0.00650000013 -0.000750000007 0.00795000046 0.00650000013 -0.000750000007 0.00765223848 0.00700000022 -0.000750000007 0.00765223848 0.00650000013 0.000662264007 0.00735175656 0.00700000022 0.000662264007 0.00735175656 0.00650000013 -0.000750000007 0.00765223848 0.00700000022 0.000662264007 0.00735175656 0.00700000022 -0.000750000007 0.00765223848 0.00650000013 -0.000750000007 0.00765223848 0.00650000013 0.00125172373 0.00744999992 0.00700000022 0.00125172373 0.00744999992 0.00650000013 0.000662264007 0.00735175656 0.00700000022 0.00125172373 0.00744999992 0.00700000022 0.000662264007 0.00735175656 0.00650000013 0.000662264007 0.00735175656 0.00700000022 0.00865000021 0.00705000013 0.00700000022 0.00865000021 0.00925000012 0.00700000022 0.0078499997 0.00714999996 0.00700000022 0.00865000021 0.00925000012 0.00700000022 0.0078499997 0.00915000029 0.00700000022 0.0078499997 0.00714999996 0.00700000022 0.0078499997 0.00714999996 0.00700000022 0.0078499997 0.00915000029 0.00700000022 0.00565000018 0.00714999996 0.00700000022 0.0078499997 0.00915000029 0.00700000022 0.00565000018 0.00744999992 0.00700000022 0.00565000018 0.00714999996 0.00700000022 0.00238472968 0.00795303844 0.00700000022 0.00236743107 0.00795076136 0.00700000022 0.00125172373 0.00744999992 0.00700000022 0.00238472968 0.00795303844 0.00700000022 0.00125172373 0.00744999992 0.00700000022 0.00240176381 0.00795681495 0.00700000022 -0.000750000007 0.00765223848 0.00700000022 0.000662264007 0.00735175656 0.00700000022 -0.000750000007 0.00795000046 0.00700000022 0.000662264007 0.00735175656 0.00700000022 0.00125172373 0.00744999992 0.00700000022 -0.000750000007 0.00795000046 0.00700000022 -0.000750000007 0.00795000046 0.00700000022 0.00125172373 0.00744999992 0.00700000022 0.00234999997 0.00795000046 0.00700000022 0.00125172373 0.00744999992 0.00700000022 0.00236743107 0.00795076136 0.00700000022 0.00234999997 0.00795000046 0.00700000022 0.00241840398 0.00833793823 0.00700000022 0.00243452354 0.00833126158 0.00700000022 0.00565000018 0.00744999992 0.00700000022 0.00253793853 0.00821840391 0.00700000022 0.00254318514 0.00820176397 0.00700000022 0.00565000018 0.00744999992 0.00700000022 0.00254318514 0.00820176397 0.00700000022 0.00254696165 0.00818473008 0.00700000022 0.00565000018 0.00744999992 0.00700000022 0.00565000018 0.00744999992 0.00700000022 0.00254696165 0.00818473008 0.00700000022 0.00254923897 0.00816743076 0.00700000022 0.00254923897 0.00816743076 0.00700000022 0.00255000009 0.00815000013 0.00700000022 0.00565000018 0.00744999992 0.00700000022 0.00255000009 0.00815000013 0.00700000022 0.00254923897 0.00813256856 0.00700000022 0.00565000018 0.00744999992 0.00700000022 0.00565000018 0.00744999992 0.00700000022 0.00254923897 0.00813256856 0.00700000022 0.00254696165 0.00811527018 0.00700000022 0.00254696165 0.00811527018 0.00700000022 0.00254318514 0.00809823629 0.00700000022 0.00565000018 0.00744999992 0.00700000022 0.00254318514 0.00809823629 0.00700000022 0.00253793853 0.00808159634 0.00700000022 0.00565000018 0.00744999992 0.00700000022 0.00565000018 0.00744999992 0.00700000022 0.00253793853 0.00808159634 0.00700000022 0.00253126165 0.00806547608 0.00700000022 0.00234999997 0.00834999979 0.00700000022 0.00236743107 0.00834923889 0.00700000022 0.00125172373 0.00884999987 0.00700000022 0.00236743107 0.00834923889 0.00700000022 0.00238472968 0.00834696181 0.00700000022 0.00125172373 0.00884999987 0.00700000022 0.00125172373 0.00884999987 0.00700000022 0.00238472968 0.00834696181 0.00700000022 0.00240176381 0.0083431853 0.00700000022 0.00243452354 0.00833126158 0.00700000022 0.00245000003 0.0083232047 0.00700000022 0.00565000018 0.00744999992 0.00700000022 0.00245000003 0.0083232047 0.00700000022 0.00246471539 0.00831383001 0.00700000022 0.00565000018 0.00744999992 0.00700000022 0.00565000018 0.00744999992 0.00700000022 0.00246471539 0.00831383001 0.00700000022 0.00247855741 0.00830320921 0.00700000022 0.00247855741 0.00830320921 0.00700000022 0.0024914213 0.00829142146 0.00700000022 0.00565000018 0.00744999992 0.00700000022 0.0024914213 0.00829142146 0.00700000022 0.00250320882 0.0082785571 0.00700000022 0.00565000018 0.00744999992 0.00700000022 0.00565000018 0.00744999992 0.00700000022 0.00250320882 0.0082785571 0.00700000022 0.00251383032 0.00826471485 0.00700000022 0.00251383032 0.00826471485 0.00700000022 0.00252320501 0.00824999996 0.00700000022 0.00565000018 0.00744999992 0.00700000022 0.00252320501 0.00824999996 0.00700000022 0.00253126165 0.00823452324 0.00700000022 0.00565000018 0.00744999992 0.00700000022 0.00565000018 0.00744999992 0.00700000022 0.00253126165 0.00823452324 0.00700000022 0.00253793853 0.00821840391 0.00700000022 0.00250320882 0.00802144222 0.00700000022 0.0024914213 0.00800857879 0.00700000022 0.00565000018 0.00744999992 0.00700000022 0.0024914213 0.00800857879 0.00700000022 0.00247855741 0.00799679104 0.00700000022 0.00565000018 0.00744999992 0.00700000022 0.00565000018 0.00744999992 0.00700000022 0.00247855741 0.00799679104 0.00700000022 0.00246471539 0.00798616931 0.00700000022 0.00246471539 0.00798616931 0.00700000022 0.00245000003 0.00797679462 0.00700000022 0.00565000018 0.00744999992 0.00700000022 0.00245000003 0.00797679462 0.00700000022 0.00243452354 0.00796873868 0.00700000022 0.00565000018 0.00744999992 0.00700000022 0.00565000018 0.00744999992 0.00700000022 0.00243452354 0.00796873868 0.00700000022 0.00125172373 0.00744999992 0.00700000022 0.00243452354 0.00796873868 0.00700000022 0.00241840398 0.00796206109 0.00700000022 0.00125172373 0.00744999992 0.00700000022 0.00125172373 0.00744999992 0.00700000022 0.00241840398 0.00796206109 0.00700000022 0.00240176381 0.00795681495 0.00700000022 0.000662264007 0.00894824322 0.00700000022 -0.000750000007 0.00864776131 0.00700000022 0.00125172373 0.00884999987 0.00700000022 -0.000750000007 0.00864776131 0.00700000022 -0.000750000007 0.00834999979 0.00700000022 0.00125172373 0.00884999987 0.00700000022 0.00125172373 0.00884999987 0.00700000022 -0.000750000007 0.00834999979 0.00700000022 0.00234999997 0.00834999979 0.00700000022 0.00240176381 0.0083431853 0.00700000022 0.00241840398 0.00833793823 0.00700000022 0.00125172373 0.00884999987 0.00700000022 0.00241840398 0.00833793823 0.00700000022 0.00565000018 0.00744999992 0.00700000022 0.00125172373 0.00884999987 0.00700000022 0.00125172373 0.00884999987 0.00700000022 0.00565000018 0.00744999992 0.00700000022 0.00565000018 0.00884999987 0.00700000022 0.00565000018 0.00744999992 0.00700000022 0.0078499997 0.00915000029 0.00700000022 0.00565000018 0.00884999987 0.00700000022 0.00565000018 0.00884999987 0.00700000022 0.0078499997 0.00915000029 0.00700000022 0.00565000018 0.00915000029 0.00700000022 0.00253126165 0.00806547608 0.00700000022 0.00252320501 0.0080500003 0.00700000022 0.00565000018 0.00744999992 0.00700000022 0.00252320501 0.0080500003 0.00700000022 0.00251383032 0.00803528447 0.00700000022 0.00565000018 0.00744999992 0.00700000022 0.00565000018 0.00744999992 0.00700000022 0.00251383032 0.00803528447 0.00700000022 0.00250320882 0.00802144222 0.00700000022 0.00234999997 0.00834999979 0.00650000013 0.00234999997 0.00834999979 0.00700000022 0.00236743107 0.00834923889 0.00650000013 0.00234999997 0.00834999979 0.00650000013 0.00236743107 0.00834923889 0.00700000022 0.00236743107 0.00834923889 0.00700000022 0.00236743107 0.00834923889 0.00650000013 0.00236743107 0.00834923889 0.00700000022 0.00238472968 0.00834696181 0.00650000013 0.00236743107 0.00834923889 0.00650000013 0.00238472968 0.00834696181 0.00700000022 0.00238472968 0.00834696181 0.00700000022 0.00238472968 0.00834696181 0.00650000013 0.00238472968 0.00834696181 0.00700000022 0.00240176381 0.0083431853 0.00650000013 0.00238472968 0.00834696181 0.00650000013 0.00240176381 0.0083431853 0.00700000022 0.00240176381 0.0083431853 0.00700000022 0.00240176381 0.0083431853 0.00650000013 0.00240176381 0.0083431853 0.00700000022 0.00241840398 0.00833793823 0.00650000013 0.00240176381 0.0083431853 0.00650000013 0.00241840398 0.00833793823 0.00700000022 0.00241840398 0.00833793823 0.00700000022 0.00241840398 0.00833793823 0.00650000013 0.00241840398 0.00833793823 0.00700000022 0.00243452354 0.00833126158 0.00650000013 0.00241840398 0.00833793823 0.00650000013 0.00243452354 0.00833126158 0.00700000022 0.00243452354 0.00833126158 0.00700000022 0.00243452354 0.00833126158 0.00650000013 0.00243452354 0.00833126158 0.00700000022 0.00245000003 0.0083232047 0.00650000013 0.00243452354 0.00833126158 0.00650000013 0.00245000003 0.0083232047 0.00700000022 0.00245000003 0.0083232047 0.00700000022 0.00245000003 0.0083232047 0.00650000013 0.00245000003 0.0083232047 0.00700000022 0.00246471539 0.00831383001 0.00650000013 0.00245000003 0.0083232047 0.00650000013 0.00246471539 0.00831383001 0.00700000022 0.00246471539 0.00831383001 0.00700000022 0.00246471539 0.00831383001 0.00650000013 0.00246471539 0.00831383001 0.00700000022 0.00247855741 0.00830320921 0.00650000013 0.00246471539 0.00831383001 0.00650000013 0.00247855741 0.00830320921 0.00700000022 0.00247855741 0.00830320921 0.00700000022 0.00247855741 0.00830320921 0.00650000013 0.00247855741 0.00830320921 0.00700000022 0.0024914213 0.00829142146 0.00650000013 0.00247855741 0.00830320921 0.00650000013 0.0024914213 0.00829142146 0.00700000022 0.0024914213 0.00829142146 0.00700000022 0.0024914213 0.00829142146 0.00650000013 0.0024914213 0.00829142146 0.00700000022 0.00250320882 0.0082785571 0.00650000013 0.0024914213 0.00829142146 0.00650000013 0.00250320882 0.0082785571 0.00700000022 0.00250320882 0.0082785571 0.00700000022 0.00250320882 0.0082785571 0.00650000013 0.00250320882 0.0082785571 0.00700000022 0.00251383032 0.00826471485 0.00650000013 0.00250320882 0.0082785571 0.00650000013 0.00251383032 0.00826471485 0.00700000022 0.00251383032 0.00826471485 0.00700000022 0.00251383032 0.00826471485 0.00650000013 0.00251383032 0.00826471485 0.00700000022 0.00252320501 0.00824999996 0.00650000013 0.00251383032 0.00826471485 0.00650000013 0.00252320501 0.00824999996 0.00700000022 0.00252320501 0.00824999996 0.00700000022 0.00252320501 0.00824999996 0.00650000013 0.00252320501 0.00824999996 0.00700000022 0.00253126165 0.00823452324 0.00650000013 0.00252320501 0.00824999996 0.00650000013 0.00253126165 0.00823452324 0.00700000022 0.00253126165 0.00823452324 0.00700000022 0.00253126165 0.00823452324 0.00650000013 0.00253126165 0.00823452324 0.00700000022 0.00253793853 0.00821840391 0.00650000013 0.00253126165 0.00823452324 0.00650000013 0.00253793853 0.00821840391 0.00700000022 0.00253793853 0.00821840391 0.00700000022 0.00253793853 0.00821840391 0.00650000013 0.00253793853 0.00821840391 0.00700000022 0.00254318514 0.00820176397 0.00650000013 0.00253793853 0.00821840391 0.00650000013 0.00254318514 0.00820176397 0.00700000022 0.00254318514 0.00820176397 0.00700000022 0.00254318514 0.00820176397 0.00650000013 0.00254318514 0.00820176397 0.00700000022 0.00254696165 0.00818473008 0.00650000013 0.00254318514 0.00820176397 0.00650000013 0.00254696165 0.00818473008 0.00700000022 0.00254696165 0.00818473008 0.00700000022 0.00254696165 0.00818473008 0.00650000013 0.00254696165 0.00818473008 0.00700000022 0.00254923897 0.00816743076 0.00650000013 0.00254696165 0.00818473008 0.00650000013 0.00254923897 0.00816743076 0.00700000022 0.00254923897 0.00816743076 0.00700000022 0.00254923897 0.00816743076 0.00650000013 0.00254923897 0.00816743076 0.00700000022 0.00255000009 0.00815000013 0.00650000013 0.00254923897 0.00816743076 0.00650000013 0.00255000009 0.00815000013 0.00700000022 0.00255000009 0.00815000013 0.00700000022 0.00255000009 0.00815000013 0.00650000013 0.00255000009 0.00815000013 0.00700000022 0.00254923897 0.00813256856 0.00650000013 0.00255000009 0.00815000013 0.00650000013 0.00254923897 0.00813256856 0.00700000022 0.00254923897 0.00813256856 0.00700000022 0.00254923897 0.00813256856 0.00650000013 0.00254923897 0.00813256856 0.00700000022 0.00254696165 0.00811527018 0.00650000013 0.00254923897 0.00813256856 0.00650000013 0.00254696165 0.00811527018 0.00700000022 0.00254696165 0.00811527018 0.00700000022 0.00254696165 0.00811527018 0.00650000013 0.00254696165 0.00811527018 0.00700000022 0.00254318514 0.00809823629 0.00650000013 0.00254696165 0.00811527018 0.00650000013 0.00254318514 0.00809823629 0.00700000022 0.00254318514 0.00809823629 0.00700000022 0.00254318514 0.00809823629 0.00650000013 0.00254318514 0.00809823629 0.00700000022 0.00253793853 0.00808159634 0.00650000013 0.00254318514 0.00809823629 0.00650000013 0.00253793853 0.00808159634 0.00700000022 0.00253793853 0.00808159634 0.00700000022 0.00253793853 0.00808159634 0.00650000013 0.00253793853 0.00808159634 0.00700000022 0.00253126165 0.00806547608 0.00650000013 0.00253793853 0.00808159634 0.00650000013 0.00253126165 0.00806547608 0.00700000022 0.00253126165 0.00806547608 0.00700000022 0.00253126165 0.00806547608 0.00650000013 0.00253126165 0.00806547608 0.00700000022 0.00252320501 0.0080500003 0.00650000013 0.00253126165 0.00806547608 0.00650000013 0.00252320501 0.0080500003 0.00700000022 0.00252320501 0.0080500003 0.00700000022 0.00252320501 0.0080500003 0.00650000013 0.00252320501 0.0080500003 0.00700000022 0.00251383032 0.00803528447 0.00650000013 0.00252320501 0.0080500003 0.00650000013 0.00251383032 0.00803528447 0.00700000022 0.00251383032 0.00803528447 0.00700000022 0.00251383032 0.00803528447 0.00650000013 0.00251383032 0.00803528447 0.00700000022 0.00250320882 0.00802144222 0.00650000013 0.00251383032 0.00803528447 0.00650000013 0.00250320882 0.00802144222 0.00700000022 0.00250320882 0.00802144222 0.00700000022 0.00250320882 0.00802144222 0.00650000013 0.00250320882 0.00802144222 0.00700000022 0.0024914213 0.00800857879 0.00650000013 0.00250320882 0.00802144222 0.00650000013 0.0024914213 0.00800857879 0.00700000022 0.0024914213 0.00800857879 0.00700000022 0.0024914213 0.00800857879 0.00650000013 0.0024914213 0.00800857879 0.00700000022 0.00247855741 0.00799679104 0.00650000013 0.0024914213 0.00800857879 0.00650000013 0.00247855741 0.00799679104 0.00700000022 0.00247855741 0.00799679104 0.00700000022 0.00247855741 0.00799679104 0.00650000013 0.00247855741 0.00799679104 0.00700000022 0.00246471539 0.00798616931 0.00650000013 0.00247855741 0.00799679104 0.00650000013 0.00246471539 0.00798616931 0.00700000022 0.00246471539 0.00798616931 0.00700000022 0.00246471539 0.00798616931 0.00650000013 0.00246471539 0.00798616931 0.00700000022 0.00245000003 0.00797679462 0.00650000013 0.00246471539 0.00798616931 0.00650000013 0.00245000003 0.00797679462 0.00700000022 0.00245000003 0.00797679462 0.00700000022 0.00245000003 0.00797679462 0.00650000013 0.00245000003 0.00797679462 0.00700000022 0.00243452354 0.00796873868 0.00650000013 0.00245000003 0.00797679462 0.00650000013 0.00243452354 0.00796873868 0.00700000022 0.00243452354 0.00796873868 0.00700000022 0.00243452354 0.00796873868 0.00650000013 0.00243452354 0.00796873868 0.00700000022 0.00241840398 0.00796206109 0.00650000013 0.00243452354 0.00796873868 0.00650000013 0.00241840398 0.00796206109 0.00700000022 0.00241840398 0.00796206109 0.00700000022 0.00241840398 0.00796206109 0.00650000013 0.00241840398 0.00796206109 0.00700000022 0.00240176381 0.00795681495 0.00650000013 0.00241840398 0.00796206109 0.00650000013 0.00240176381 0.00795681495 0.00700000022 0.00240176381 0.00795681495 0.00700000022 0.00240176381 0.00795681495 0.00650000013 0.00240176381 0.00795681495 0.00700000022 0.00238472968 0.00795303844 0.00650000013 0.00240176381 0.00795681495 0.00650000013 0.00238472968 0.00795303844 0.00700000022 0.00238472968 0.00795303844 0.00700000022 0.00238472968 0.00795303844 0.00650000013 0.00238472968 0.00795303844 0.00700000022 0.00236743107 0.00795076136 0.00650000013 0.00238472968 0.00795303844 0.00650000013 0.00236743107 0.00795076136 0.00700000022 0.00236743107 0.00795076136 0.00700000022 0.00236743107 0.00795076136 0.00650000013 0.00236743107 0.00795076136 0.00700000022 0.00234999997 0.00795000046 0.00650000013 0.00236743107 0.00795076136 0.00650000013 0.00234999997 0.00795000046 0.00700000022 0.00234999997 0.00795000046 0.00650000013 0.00565000018 0.00884999987 0.00650000013 0.0078499997 0.00714999996 0.00650000013 0.00565000018 0.00744999992 0.00650000013 0.0078499997 0.00714999996 0.00650000013 0.00565000018 0.00714999996 0.00650000013 0.00565000018 0.00744999992 0.00650000013 0.00865000021 0.00925000012 0.00650000013 0.00865000021 0.00705000013 0.00650000013 0.0078499997 0.00915000029 0.00650000013 0.00865000021 0.00705000013 0.00650000013 0.0078499997 0.00714999996 0.00650000013 0.0078499997 0.00915000029 0.00650000013 0.0078499997 0.00915000029 0.00650000013 0.0078499997 0.00714999996 0.00650000013 0.00565000018 0.00915000029 0.00650000013 0.0078499997 0.00714999996 0.00650000013 0.00565000018 0.00884999987 0.00650000013 0.00565000018 0.00915000029 0.00650000013 0.00238472968 0.00834696181 0.00650000013 0.00236743107 0.00834923889 0.00650000013 0.00125172373 0.00884999987 0.00650000013 0.000662264007 0.00735175656 0.00650000013 -0.000750000007 0.00765223848 0.00650000013 0.00125172373 0.00744999992 0.00650000013 -0.000750000007 0.00765223848 0.00650000013 -0.000750000007 0.00795000046 0.00650000013 0.00125172373 0.00744999992 0.00650000013 0.00125172373 0.00744999992 0.00650000013 -0.000750000007 0.00795000046 0.00650000013 0.00234999997 0.00795000046 0.00650000013 0.00238472968 0.00834696181 0.00650000013 0.00125172373 0.00884999987 0.00650000013 0.00240176381 0.0083431853 0.00650000013 -0.000750000007 0.00864776131 0.00650000013 0.000662264007 0.00894824322 0.00650000013 -0.000750000007 0.00834999979 0.00650000013 0.000662264007 0.00894824322 0.00650000013 0.00125172373 0.00884999987 0.00650000013 -0.000750000007 0.00834999979 0.00650000013 -0.000750000007 0.00834999979 0.00650000013 0.00125172373 0.00884999987 0.00650000013 0.00234999997 0.00834999979 0.00650000013 0.00125172373 0.00884999987 0.00650000013 0.00236743107 0.00834923889 0.00650000013 0.00234999997 0.00834999979 0.00650000013 0.00253126165 0.00806547608 0.00650000013 0.00253793853 0.00808159634 0.00650000013 0.00565000018 0.00744999992 0.00650000013 0.00253793853 0.00808159634 0.00650000013 0.00254318514 0.00809823629 0.00650000013 0.00565000018 0.00744999992 0.00650000013 0.00565000018 0.00744999992 0.00650000013 0.00254318514 0.00809823629 0.00650000013 0.00254696165 0.00811527018 0.00650000013 0.00254696165 0.00811527018 0.00650000013 0.00254923897 0.00813256856 0.00650000013 0.00565000018 0.00744999992 0.00650000013 0.00254923897 0.00813256856 0.00650000013 0.00255000009 0.00815000013 0.00650000013 0.00565000018 0.00744999992 0.00650000013 0.00565000018 0.00744999992 0.00650000013 0.00255000009 0.00815000013 0.00650000013 0.00565000018 0.00884999987 0.00650000013 0.00255000009 0.00815000013 0.00650000013 0.00254923897 0.00816743076 0.00650000013 0.00565000018 0.00884999987 0.00650000013 0.00565000018 0.00884999987 0.00650000013 0.00254923897 0.00816743076 0.00650000013 0.00254696165 0.00818473008 0.00650000013 0.00254696165 0.00818473008 0.00650000013 0.00254318514 0.00820176397 0.00650000013 0.00565000018 0.00884999987 0.00650000013 0.00254318514 0.00820176397 0.00650000013 0.00253793853 0.00821840391 0.00650000013 0.00565000018 0.00884999987 0.00650000013 0.00565000018 0.00884999987 0.00650000013 0.00253793853 0.00821840391 0.00650000013 0.00253126165 0.00823452324 0.00650000013 0.00241840398 0.00796206109 0.00650000013 0.00243452354 0.00796873868 0.00650000013 0.00565000018 0.00744999992 0.00650000013 0.00243452354 0.00796873868 0.00650000013 0.00245000003 0.00797679462 0.00650000013 0.00565000018 0.00744999992 0.00650000013 0.00565000018 0.00744999992 0.00650000013 0.00245000003 0.00797679462 0.00650000013 0.00246471539 0.00798616931 0.00650000013 0.00246471539 0.00798616931 0.00650000013 0.00247855741 0.00799679104 0.00650000013 0.00565000018 0.00744999992 0.00650000013 0.00247855741 0.00799679104 0.00650000013 0.0024914213 0.00800857879 0.00650000013 0.00565000018 0.00744999992 0.00650000013 0.00565000018 0.00744999992 0.00650000013 0.0024914213 0.00800857879 0.00650000013 0.00250320882 0.00802144222 0.00650000013 0.00250320882 0.0082785571 0.00650000013 0.0024914213 0.00829142146 0.00650000013 0.00565000018 0.00884999987 0.00650000013 0.0024914213 0.00829142146 0.00650000013 0.00247855741 0.00830320921 0.00650000013 0.00565000018 0.00884999987 0.00650000013 0.00565000018 0.00884999987 0.00650000013 0.00247855741 0.00830320921 0.00650000013 0.00246471539 0.00831383001 0.00650000013 0.00234999997 0.00795000046 0.00650000013 0.00236743107 0.00795076136 0.00650000013 0.00125172373 0.00744999992 0.00650000013 0.00236743107 0.00795076136 0.00650000013 0.00238472968 0.00795303844 0.00650000013 0.00125172373 0.00744999992 0.00650000013 0.00125172373 0.00744999992 0.00650000013 0.00238472968 0.00795303844 0.00650000013 0.00565000018 0.00744999992 0.00650000013 0.00238472968 0.00795303844 0.00650000013 0.00240176381 0.00795681495 0.00650000013 0.00565000018 0.00744999992 0.00650000013 0.00565000018 0.00744999992 0.00650000013 0.00240176381 0.00795681495 0.00650000013 0.00241840398 0.00796206109 0.00650000013 0.00250320882 0.00802144222 0.00650000013 0.00251383032 0.00803528447 0.00650000013 0.00565000018 0.00744999992 0.00650000013 0.00251383032 0.00803528447 0.00650000013 0.00252320501 0.0080500003 0.00650000013 0.00565000018 0.00744999992 0.00650000013 0.00565000018 0.00744999992 0.00650000013 0.00252320501 0.0080500003 0.00650000013 0.00253126165 0.00806547608 0.00650000013 0.00253126165 0.00823452324 0.00650000013 0.00252320501 0.00824999996 0.00650000013 0.00565000018 0.00884999987 0.00650000013 0.00252320501 0.00824999996 0.00650000013 0.00251383032 0.00826471485 0.00650000013 0.00565000018 0.00884999987 0.00650000013 0.00565000018 0.00884999987 0.00650000013 0.00251383032 0.00826471485 0.00650000013 0.00250320882 0.0082785571 0.00650000013 0.00246471539 0.00831383001 0.00650000013 0.00245000003 0.0083232047 0.00650000013 0.00565000018 0.00884999987 0.00650000013 0.00245000003 0.0083232047 0.00650000013 0.00243452354 0.00833126158 0.00650000013 0.00565000018 0.00884999987 0.00650000013 0.00565000018 0.00884999987 0.00650000013 0.00243452354 0.00833126158 0.00650000013 0.00125172373 0.00884999987 0.00650000013 0.00243452354 0.00833126158 0.00650000013 0.00241840398 0.00833793823 0.00650000013 0.00125172373 0.00884999987 0.00650000013 0.00125172373 0.00884999987 0.00650000013 0.00241840398 0.00833793823 0.00650000013 0.00240176381 0.0083431853 0.00650000013 0.0078499997 0.00714999996 0.00650000013 0.00865000021 0.00705000013 0.00700000022 0.0078499997 0.00714999996 0.00650000013 0.00865000021 0.00705000013 0.00700000022 0.00865000021 0.00705000013 0.00700000022 0.0078499997 0.00714999996 0.00700000022 0.0078499997 0.00915000029 0.00700000022 0.00865000021 0.00925000012 0.00650000013 0.0078499997 0.00915000029 0.00700000022 0.00865000021 0.00925000012 0.00650000013 0.00865000021 0.00925000012 0.00650000013 0.0078499997 0.00915000029 0.00700000022 0.00865000021 0.00925000012 0.00700000022 0.00865000021 0.00705000013 0.00650000013 0.00865000021 0.00925000012 0.00700000022 0.00865000021 0.00705000013 0.00650000013 0.00865000021 0.00705000013 0.00650000013 0.00865000021 0.00925000012 0.00700000022 0.00234999997 0.00834999979 0.00700000022 -0.000750000007 0.00834999979 0.00650000013 0.00234999997 0.00834999979 0.00700000022 -0.000750000007 0.00834999979 0.00650000013 -0.000750000007 0.00834999979 0.00650000013 0.00234999997 0.00834999979 0.00650000013 -0.000750000007 0.00834999979 0.00700000022 -0.000750000007 0.00834999979 0.00650000013 -0.000750000007 0.00864776131 0.00700000022 -0.000750000007 0.00834999979 0.00700000022 -0.000750000007 0.00864776131 0.00650000013 -0.000750000007 0.00864776131 0.00650000013 -0.000750000007 0.00864776131 0.00700000022 -0.000750000007 0.00864776131 0.00650000013 0.000662264007 0.00894824322 0.00700000022 -0.000750000007 0.00864776131 0.00700000022 0.000662264007 0.00894824322 0.00650000013 0.000662264007 0.00894824322 0.00650000013 0.000662264007 0.00894824322 0.00700000022 0.000662264007 0.00894824322 0.00650000013 0.00125172373 0.00884999987 0.00700000022 0.000662264007 0.00894824322 0.00700000022 0.00125172373 0.00884999987 0.00650000013 0.00125172373 0.00884999987 0.00650000013 0.00125172373 0.00884999987 0.00700000022 0.00125172373 0.00884999987 0.00650000013 0.00565000018 0.00884999987 0.00700000022 0.00125172373 0.00884999987 0.00700000022 0.00565000018 0.00884999987 0.00650000013 0.00565000018 0.00884999987 0.00700000022 0.00565000018 0.00915000029 0.00650000013 0.00565000018 0.00915000029 0.00700000022 0.00565000018 0.00884999987 0.00650000013 0.00565000018 0.00915000029 0.00650000013 0.00565000018 0.00884999987 0.00700000022 0.00565000018 0.00884999987 0.00700000022 0.0078499997 0.00915000029 0.00650000013 0.0078499997 0.00915000029 0.00700000022 0.00565000018 0.00915000029 0.00650000013 0.0078499997 0.00915000029 0.00650000013 0.00565000018 0.00915000029 0.00700000022 0.00565000018 0.00915000029 0.00700000022 0.00565000018 0.00714999996 0.00650000013 0.00565000018 0.00714999996 0.00700000022 0.0078499997 0.00714999996 0.00650000013 0.00565000018 0.00714999996 0.00650000013 0.0078499997 0.00714999996 0.00700000022 0.0078499997 0.00714999996 0.00700000022 0.00565000018 0.00744999992 0.00650000013 0.00565000018 0.00744999992 0.00700000022 0.00565000018 0.00714999996 0.00650000013 0.00565000018 0.00744999992 0.00650000013 0.00565000018 0.00714999996 0.00700000022 0.00565000018 0.00714999996 0.00650000013 0.00565000018 0.00744999992 0.00700000022 0.00565000018 0.00744999992 0.00650000013 0.00125172373 0.00744999992 0.00700000022 0.00565000018 0.00744999992 0.00700000022 0.00125172373 0.00744999992 0.00650000013 0.00125172373 0.00744999992 </float_array>
          <technique_common>
            <accessor count="624" offset="0" source="#mesh_0-positions-array" stride="3">
              <param name="X" type="float" />
              <param name="Y" type="float" />
              <param name="Z" type="float" />
            </accessor>
          </technique_common>
        </source>
        <source id="mesh_0-normals" name="mesh_0-normals">
          <float_array id="mesh_0-normals-array" count="1872"> 0 -0 1 0 -0 1 0 -0 1 0 -0 1 0 -0 1 0 -0 1 -0 -1 -0 -0 -1 -0 -0 -1 -0 -0 -1 -0 -0 -1 -0 -0 -1 -0 0 -0.208107784 -0.978105903 0 -0.208107784 -0.978105903 0 -0.208107784 -0.978105903 -0 -0.208107784 -0.978105903 -0 -0.208107784 -0.978105903 -0 -0.208107784 -0.978105903 0 0.164399102 -0.986393929 0 0.164399102 -0.986393929 0 0.164399102 -0.986393929 -0 0.164399102 -0.986393929 -0 0.164399102 -0.986393929 -0 0.164399102 -0.986393929 1 0 -0 1 0 -0 1 0 -0 1 -0 -0 1 -0 -0 1 -0 -0 1 0 -0 1 0 -0 1 0 -0 1 -0 -0 1 -0 -0 1 -0 -0 1 0 0 1 0 0 1 0 0 1 -0 0 1 -0 0 1 -0 0 1 -0 0 1 -0 0 1 -0 0 1 -0 -0 1 -0 -0 1 -0 -0 1 -0 0 1 -0 0 1 -0 0 1 -0 -0 1 -0 -0 1 -0 -0 1 0 0 1 0 0 1 0 0 1 0 0 1 0 0 1 0 0 1 -0 -0 1 -0 -0 1 -0 -0 1 0 0 1 0 0 1 0 0 1 0 0 1 0 0 1 0 0 1 -0 0 1 -0 0 1 -0 0 1 0 0 1 0 0 1 0 0 1 0 0 1 0 0 1 0 0 1 -0 0 1 -0 0 1 -0 0 1 0 0 1 0 0 1 0 0 1 -0 -0 1 -0 -0 1 -0 -0 1 -0 -0 1 -0 -0 1 -0 -0 1 0 0 1 0 0 1 0 0 1 0 0 1 0 0 1 0 0 1 -0 -0 1 -0 -0 1 -0 -0 1 0 0 1 0 0 1 0 0 1 0 0 1 0 0 1 0 0 1 -0 -0 1 -0 -0 1 -0 -0 1 0 0 1 0 0 1 0 0 1 0 0 1 0 0 1 0 0 1 -0 -0 1 -0 -0 1 -0 -0 1 0 0 1 0 0 1 0 0 1 0 0 1 0 0 1 0 0 1 -0 0 1 -0 0 1 -0 0 1 0 0 1 0 0 1 0 0 1 0 0 1 0 0 1 0 0 1 -0 0 1 -0 0 1 -0 0 1 0 0 1 0 0 1 0 0 1 -0 -0 1 -0 -0 1 -0 -0 1 0 0 1 0 0 1 0 0 1 0 0 1 0 0 1 0 0 1 -0 -0 1 -0 -0 1 -0 -0 1 0 0 1 0 0 1 0 0 1 -0 -0 1 -0 -0 1 -0 -0 1 -0 -0 1 -0 -0 1 -0 -0 1 -0 0 1 -0 0 1 -0 0 1 -0 -0 1 -0 -0 1 -0 -0 1 0 0 1 0 0 1 0 0 1 0 0 1 0 0 1 0 0 1 -0 0 1 -0 0 1 -0 0 1 0 0 1 0 0 1 0 0 -0 -0.0436097942 -0.99904865 -0 -0.0436097942 -0.99904865 -0 -0.0436097942 -0.99904865 -0 -0.0436097942 -0.99904865 -0 -0.0436097942 -0.99904865 -0 -0.0436097942 -0.99904865 -0 -0.130508021 -0.99144727 -0 -0.130508021 -0.99144727 -0 -0.130508021 -0.99144727 -0 -0.130508021 -0.99144727 -0 -0.130508021 -0.99144727 -0 -0.130508021 -0.99144727 -0 -0.216447204 -0.976294339 -0 -0.216447204 -0.976294339 -0 -0.216447204 -0.976294339 -0 -0.216447204 -0.976294339 -0 -0.216447204 -0.976294339 -0 -0.216447204 -0.976294339 -0 -0.300729007 -0.953709662 -0 -0.300729007 -0.953709662 -0 -0.300729007 -0.953709662 -0 -0.300729007 -0.953709662 -0 -0.300729007 -0.953709662 -0 -0.300729007 -0.953709662 -0 -0.38266921 -0.923885405 -0 -0.38266921 -0.923885405 -0 -0.38266921 -0.923885405 -0 -0.38266921 -0.923885405 -0 -0.38266921 -0.923885405 -0 -0.38266921 -0.923885405 -0 -0.461763173 -0.887003243 -0 -0.461763173 -0.887003243 -0 -0.461763173 -0.887003243 -0 -0.461763173 -0.887003243 -0 -0.461763173 -0.887003243 -0 -0.461763173 -0.887003243 -0 -0.537298501 -0.843392134 -0 -0.537298501 -0.843392134 -0 -0.537298501 -0.843392134 -0 -0.537298501 -0.843392134 -0 -0.537298501 -0.843392134 -0 -0.537298501 -0.843392134 -0 -0.608741641 -0.793368518 -0 -0.608741641 -0.793368518 -0 -0.608741641 -0.793368518 -0 -0.608741641 -0.793368518 -0 -0.608741641 -0.793368518 -0 -0.608741641 -0.793368518 -0 -0.675595284 -0.73727268 -0 -0.675595284 -0.73727268 -0 -0.675595284 -0.73727268 -0 -0.675595284 -0.73727268 -0 -0.675595284 -0.73727268 -0 -0.675595284 -0.73727268 -0 -0.737291515 -0.67557478 -0 -0.737291515 -0.67557478 -0 -0.737291515 -0.67557478 -0 -0.737291515 -0.67557478 -0 -0.737291515 -0.67557478 -0 -0.737291515 -0.67557478 -0 -0.793354154 -0.608760417 -0 -0.793354154 -0.608760417 -0 -0.793354154 -0.608760417 -0 -0.793354154 -0.608760417 -0 -0.793354154 -0.608760417 -0 -0.793354154 -0.608760417 -0 -0.843384445 -0.5373106 -0 -0.843384445 -0.5373106 -0 -0.843384445 -0.5373106 -0 -0.843384445 -0.5373106 -0 -0.843384445 -0.5373106 -0 -0.843384445 -0.5373106 -0 -0.887011588 -0.461747229 -0 -0.887011588 -0.461747229 -0 -0.887011588 -0.461747229 -0 -0.887011588 -0.461747229 -0 -0.887011588 -0.461747229 -0 -0.887011588 -0.461747229 -0 -0.923878729 -0.382685333 -0 -0.923878729 -0.382685333 -0 -0.923878729 -0.382685333 -0 -0.923878729 -0.382685333 -0 -0.923878729 -0.382685333 -0 -0.923878729 -0.382685333 -0 -0.953716099 -0.300708532 -0 -0.953716099 -0.300708532 -0 -0.953716099 -0.300708532 -0 -0.953716099 -0.300708532 -0 -0.953716099 -0.300708532 -0 -0.953716099 -0.300708532 -0 -0.976293683 -0.216450021 -0 -0.976293683 -0.216450021 -0 -0.976293683 -0.216450021 -0 -0.976293683 -0.216450021 -0 -0.976293683 -0.216450021 -0 -0.976293683 -0.216450021 -0 -0.991446197 -0.130515948 -0 -0.991446197 -0.130515948 -0 -0.991446197 -0.130515948 -0 -0.991446197 -0.130515948 -0 -0.991446197 -0.130515948 -0 -0.991446197 -0.130515948 -0 -0.999047995 -0.0436242782 -0 -0.999047995 -0.0436242782 -0 -0.999047995 -0.0436242782 -0 -0.999047995 -0.0436242782 -0 -0.999047995 -0.0436242782 -0 -0.999047995 -0.0436242782 0 -0.999048114 0.0436219499 0 -0.999048114 0.0436219499 0 -0.999048114 0.0436219499 -0 -0.999048114 0.0436219499 -0 -0.999048114 0.0436219499 -0 -0.999048114 0.0436219499 0 -0.991445303 0.130522862 0 -0.991445303 0.130522862 0 -0.991445303 0.130522862 -0 -0.991445303 0.130522862 -0 -0.991445303 0.130522862 -0 -0.991445303 0.130522862 0 -0.976293683 0.216450021 0 -0.976293683 0.216450021 0 -0.976293683 0.216450021 -0 -0.976293683 0.216450021 -0 -0.976293683 0.216450021 -0 -0.976293683 0.216450021 0 -0.953716099 0.300708532 0 -0.953716099 0.300708532 0 -0.953716099 0.300708532 -0 -0.953716099 0.300708532 -0 -0.953716099 0.300708532 -0 -0.953716099 0.300708532 0 -0.923886538 0.382666469 0 -0.923886538 0.382666469 0 -0.923886538 0.382666469 -0 -0.923886538 0.382666469 -0 -0.923886538 0.382666469 -0 -0.923886538 0.382666469 0 -0.887000203 0.461769074 0 -0.887000203 0.461769074 0 -0.887000203 0.461769074 -0 -0.887000203 0.461769074 -0 -0.887000203 0.461769074 -0 -0.887000203 0.461769074 0 -0.843399823 0.537286401 0 -0.843399823 0.537286401 0 -0.843399823 0.537286401 -0 -0.843399823 0.537286401 -0 -0.843399823 0.537286401 -0 -0.843399823 0.537286401 0 -0.793354154 0.608760417 0 -0.793354154 0.608760417 0 -0.793354154 0.608760417 -0 -0.793354154 0.608760417 -0 -0.793354154 0.608760417 -0 -0.793354154 0.608760417 0 -0.737267137 0.675601363 0 -0.737267137 0.675601363 0 -0.737267137 0.675601363 -0 -0.737267137 0.675601363 -0 -0.737267137 0.675601363 -0 -0.737267137 0.675601363 0 -0.675595284 0.73727268 0 -0.675595284 0.73727268 0 -0.675595284 0.73727268 -0 -0.675595284 0.73727268 -0 -0.675595284 0.73727268 -0 -0.675595284 0.73727268 0 -0.608775258 0.793342769 0 -0.608775258 0.793342769 0 -0.608775258 0.793342769 -0 -0.608775258 0.793342769 -0 -0.608775258 0.793342769 -0 -0.608775258 0.793342769 0 -0.537298501 0.843392134 0 -0.537298501 0.843392134 0 -0.537298501 0.843392134 -0 -0.537298501 0.843392134 -0 -0.537298501 0.843392134 -0 -0.537298501 0.843392134 0 -0.461721182 0.887025118 0 -0.461721182 0.887025118 0 -0.461721182 0.887025118 -0 -0.461721182 0.887025118 -0 -0.461721182 0.887025118 -0 -0.461721182 0.887025118 0 -0.382714778 0.92386657 0 -0.382714778 0.92386657 0 -0.382714778 0.92386657 -0 -0.382714778 0.92386657 -0 -0.382714778 0.92386657 -0 -0.382714778 0.92386657 0 -0.300680429 0.953724921 0 -0.300680429 0.953724921 0 -0.300680429 0.953724921 -0 -0.300680429 0.953724921 -0 -0.300680429 0.953724921 -0 -0.300680429 0.953724921 0 -0.216447204 0.976294339 0 -0.216447204 0.976294339 0 -0.216447204 0.976294339 -0 -0.216447204 0.976294339 -0 -0.216447204 0.976294339 -0 -0.216447204 0.976294339 0 -0.130508021 0.99144727 0 -0.130508021 0.99144727 0 -0.130508021 0.99144727 -0 -0.130508021 0.99144727 -0 -0.130508021 0.99144727 -0 -0.130508021 0.99144727 0 -0.0436097942 0.99904865 0 -0.0436097942 0.99904865 0 -0.0436097942 0.99904865 -0 -0.0436097942 0.99904865 -0 -0.0436097942 0.99904865 -0 -0.0436097942 0.99904865 -1 0 0 -1 0 0 -1 0 0 -1 -0 -0 -1 -0 -0 -1 -0 -0 -1 0 -0 -1 0 -0 -1 0 -0 -1 -0 -0 -1 -0 -0 -1 -0 -0 -1 -0 -0 -1 -0 -0 -1 -0 -0 -1 -0 -0 -1 -0 -0 -1 -0 -0 -1 0 0 -1 0 0 -1 0 0 -1 0 0 -1 0 0 -1 0 0 -1 0 -0 -1 0 -0 -1 0 -0 -1 0 0 -1 0 0 -1 0 0 -1 0 0 -1 0 0 -1 0 0 -1 0 0 -1 0 0 -1 0 0 -1 -0 -0 -1 -0 -0 -1 -0 -0 -1 0 0 -1 0 0 -1 0 0 -1 -0 -0 -1 -0 -0 -1 -0 -0 -1 0 0 -1 0 0 -1 0 0 -1 0 -0 -1 0 -0 -1 0 -0 -1 0 0 -1 0 0 -1 0 0 -1 0 0 -1 0 0 -1 0 0 -1 0 -0 -1 0 -0 -1 0 -0 -1 0 0 -1 0 0 -1 0 0 -1 -0 0 -1 -0 0 -1 -0 0 -1 0 0 -1 0 0 -1 0 0 -1 0 0 -1 0 0 -1 0 0 -1 -0 0 -1 -0 0 -1 -0 0 -1 0 0 -1 0 0 -1 0 0 -1 0 0 -1 0 0 -1 0 0 -1 0 -0 -1 0 -0 -1 0 -0 -1 0 0 -1 0 0 -1 0 0 -1 0 0 -1 0 0 -1 0 0 -1 0 -0 -1 0 -0 -1 0 -0 -1 0 0 -1 0 0 -1 0 0 -1 0 0 -1 0 0 -1 0 0 -1 -0 0 -1 -0 0 -1 -0 0 -1 0 0 -1 0 0 -1 0 0 -1 0 -0 -1 0 -0 -1 0 -0 -1 0 -0 -1 0 -0 -1 0 -0 -1 0 0 -1 0 0 -1 0 0 -1 0 -0 -1 0 -0 -1 0 -0 -1 0 0 -1 0 0 -1 0 0 -1 0 0 -1 0 0 -1 0 0 -1 0 -0 -1 0 -0 -1 0 -0 -1 0 0 -1 0 0 -1 0 0 -1 0 0 -1 0 0 -1 0 0 -1 -0 0 -1 -0 0 -1 -0 0 -1 0 0 -1 0 0 -1 0 0 -1 0 0 -1 0 0 -1 0 0 -1 -0 0 -1 -0 0 -1 -0 0 -1 -0 0 -1 -0 0 -1 -0 0 -1 -0 -0 -1 -0 -0 -1 -0 -0 -1 0 0 -1 0 0 -1 0 0 0 -0.124034449 -0.99227792 0 -0.124034449 -0.99227792 0 -0.124034449 -0.99227792 0 -0.124034449 -0.99227792 0 -0.124034449 -0.99227792 0 -0.124034449 -0.99227792 0 -0.124034449 0.99227792 0 -0.124034449 0.99227792 0 -0.124034449 0.99227792 -0 -0.124034449 0.99227792 -0 -0.124034449 0.99227792 -0 -0.124034449 0.99227792 0 1 0 0 1 0 0 1 0 -0 1 -0 -0 1 -0 -0 1 -0 -0 -0 -1 -0 -0 -1 -0 -0 -1 -0 -0 -1 -0 -0 -1 -0 -0 -1 0 -1 0 0 -1 0 0 -1 0 -0 -1 0 -0 -1 0 -0 -1 0 0 -0.208107784 0.978105903 0 -0.208107784 0.978105903 0 -0.208107784 0.978105903 -0 -0.208107784 0.978105903 -0 -0.208107784 0.978105903 -0 -0.208107784 0.978105903 -0 0.164399102 0.986393929 -0 0.164399102 0.986393929 -0 0.164399102 0.986393929 -0 0.164399102 0.986393929 -0 0.164399102 0.986393929 -0 0.164399102 0.986393929 0 0 1 0 0 1 0 0 1 -0 -0 1 -0 -0 1 -0 -0 1 -0 -1 -0 -0 -1 -0 -0 -1 -0 -0 -1 -0 -0 -1 -0 -0 -1 -0 0 0 1 0 0 1 0 0 1 -0 -0 1 -0 -0 1 -0 -0 1 0 0 -1 0 0 -1 0 0 -1 -0 -0 -1 -0 -0 -1 -0 -0 -1 -0 -1 -0 -0 -1 -0 -0 -1 -0 -0 -1 -0 -0 -1 -0 -0 -1 -0 0 0 -1 0 0 -1 0 0 -1 -0 -0 -1 -0 -0 -1 -0 -0 -1 </float_array>
          <technique_common>
            <accessor count="624" offset="0" source="#mesh_0-normals-array" stride="3">
              <param name="X" type="float" />
              <param name="Y" type="float" />
              <param name="Z" type="float" />
            </accessor>
          </technique_common>
        </source>
        <vertices id="mesh_0-vertices">
          <input semantic="POSITION" source="#mesh_0-positions" />
        </vertices>
        <polylist count="208" material="defaultMaterial">
          <input offset="0" semantic="VERTEX" source="#mesh_0-vertices" />
          <input offset="0" semantic="NORMAL" source="#mesh_0-normals" />
          <vcount>3 3 3 3 3 3 3 3 3 3 3 3 3 3 3 3 3 3 3 3 3 3 3 3 3 3 3 3 3 3 3 3 3 3 3 3 3 3 3 3 3 3 3 3 3 3 3 3 3 3 3 3 3 3 3 3 3 3 3 3 3 3 3 3 3 3 3 3 3 3 3 3 3 3 3 3 3 3 3 3 3 3 3 3 3 3 3 3 3 3 3 3 3 3 3 3 3 3 3 3 3 3 3 3 3 3 3 3 3 3 3 3 3 3 3 3 3 3 3 3 3 3 3 3 3 3 3 3 3 3 3 3 3 3 3 3 3 3 3 3 3 3 3 3 3 3 3 3 3 3 3 3 3 3 3 3 3 3 3 3 3 3 3 3 3 3 3 3 3 3 3 3 3 3 3 3 3 3 3 3 3 3 3 3 3 3 3 3 3 3 3 3 3 3 3 3 3 3 3 3 3 3 3 3 3 3 3 3 </vcount>
          <p>0 1 2 3 4 5 6 7 8 9 10 11 12 13 14 15 16 17 18 19 20 21 22 23 24 25 26 27 28 29 30 31 32 33 34 35 36 37 38 39 40 41 42 43 44 45 46 47 48 49 50 51 52 53 54 55 56 57 58 59 60 61 62 63 64 65 66 67 68 69 70 71 72 73 74 75 76 77 78 79 80 81 82 83 84 85 86 87 88 89 90 91 92 93 94 95 96 97 98 99 100 101 102 103 104 105 106 107 108 109 110 111 112 113 114 115 116 117 118 119 120 121 122 123 124 125 126 127 128 129 130 131 132 133 134 135 136 137 138 139 140 141 142 143 144 145 146 147 148 149 150 151 152 153 154 155 156 157 158 159 160 161 162 163 164 165 166 167 168 169 170 171 172 173 174 175 176 177 178 179 180 181 182 183 184 185 186 187 188 189 190 191 192 193 194 195 196 197 198 199 200 201 202 203 204 205 206 207 208 209 210 211 212 213 214 215 216 217 218 219 220 221 222 223 224 225 226 227 228 229 230 231 232 233 234 235 236 237 238 239 240 241 242 243 244 245 246 247 248 249 250 251 252 253 254 255 256 257 258 259 260 261 262 263 264 265 266 267 268 269 270 271 272 273 274 275 276 277 278 279 280 281 282 283 284 285 286 287 288 289 290 291 292 293 294 295 296 297 298 299 300 301 302 303 304 305 306 307 308 309 310 311 312 313 314 315 316 317 318 319 320 321 322 323 324 325 326 327 328 329 330 331 332 333 334 335 336 337 338 339 340 341 342 343 344 345 346 347 348 349 350 351 352 353 354 355 356 357 358 359 360 361 362 363 364 365 366 367 368 369 370 371 372 373 374 375 376 377 378 379 380 381 382 383 384 385 386 387 388 389 390 391 392 393 394 395 396 397 398 399 400 401 402 403 404 405 406 407 408 409 410 411 412 413 414 415 416 417 418 419 420 421 422 423 424 425 426 427 428 429 430 431 432 433 434 435 436 437 438 439 440 441 442 443 444 445 446 447 448 449 450 451 452 453 454 455 456 457 458 459 460 461 462 463 464 465 466 467 468 469 470 471 472 473 474 475 476 477 478 479 480 481 482 483 484 485 486 487 488 489 490 491 492 493 494 495 496 497 498 499 500 501 502 503 504 505 506 507 508 509 510 511 512 513 514 515 516 517 518 519 520 521 522 523 524 525 526 527 528 529 530 531 532 533 534 535 536 537 538 539 540 541 542 543 544 545 546 547 548 549 550 551 552 553 554 555 556 557 558 559 560 561 562 563 564 565 566 567 568 569 570 571 572 573 574 575 576 577 578 579 580 581 582 583 584 585 586 587 588 589 590 591 592 593 594 595 596 597 598 599 600 601 602 603 604 605 606 607 608 609 610 611 612 613 614 615 616 617 618 619 620 621 622 623 </p>
        </polylist>
      </mesh>
    </geometry>
  </library_geometries>
  <library_controllers>
  </library_controllers>
  <library_visual_scenes>
    <visual_scene id="_ySTL_BINARY_" name="&lt;STL_BINARY&gt;">
      <node id="node" name="" type="NODE">
        <matrix sid="matrix">1 0 0 0 0 1 0 0 0 0 1 0 0 0 0 1</matrix>
        <instance_geometry url="#mesh_0">
          <bind_material>
            <technique_common>
              <instance_material symbol="defaultMaterial" target="#DefaultMaterial">
              </instance_material>
            </technique_common>
          </bind_material>
        </instance_geometry>
      </node>
    </visual_scene>
  </library_visual_scenes>
  <scene>
    <instance_visual_scene url="#_ySTL_BINARY_" />
  </scene>
</COLLADA>
