<?xml version="1.0" encoding="UTF-8" standalone="no" ?>
<COLLADA xmlns="http://www.collada.org/2005/11/COLLADASchema" version="1.4.1">
  <asset>
    <contributor>
      <author>Assimp</author>
      <authoring_tool>Assimp Exporter</authoring_tool>
    </contributor>
    <created>2025-12-07T16:35:00</created>
    <modified>2025-12-07T16:35:00</modified>
    <unit name="meter" meter="1" />
    <up_axis>Y_UP</up_axis>
  </asset>
  <library_images>
  </library_images>
  <library_effects>
    <effect id="DefaultMaterial-fx" name="DefaultMaterial">
      <profile_COMMON>
        <technique sid="standard">
          <phong>
            <ambient>
              <color sid="ambient">0.0500000007   0.0500000007   0.0500000007   1</color>
            </ambient>
            <diffuse>
              <color sid="diffuse">1   1   1   1</color>
            </diffuse>
            <specular>
              <color sid="specular">1   1   1   1</color>
            </specular>
          </phong>
        </technique>
      </profile_COMMON>
    </effect>
  </library_effects>
  <library_materials>
    <material id="DefaultMaterial" name="DefaultMaterial">
      <instance_effect url="#DefaultMaterial-fx"/>
    </material>
  </library_materials>
  <library_geometries>
    <geometry id="mesh_0" name="" >
      <mesh>
        <source id="mesh_0-positions" name="mesh_0-positions">
          <float_array id="mesh_0-positions-array" count="2556"> 0.00458749011 -0.015591858 -0.0124538383 0.00468093157 -0.0155624952 -0.012475553 0.00424216641 -0.0157003701 -0.0104009993 0.00571187725 -0.0152385375 -0.0106038181 0.00564721599 -0.0152588561 -0.0105298515 0.00586576108 -0.0151901823 -0.0118290354 0.00409566937 -0.0157464035 -0.0105298515 0.00384049723 -0.0158265885 -0.0117363473 0.00387712405 -0.0158150792 -0.0118290354 0.00424216641 -0.0157003701 -0.0104009993 0.0049670618 -0.0154725835 -0.0124886483 0.00506195379 -0.0154427653 -0.012475553 0.00550071849 -0.0153048905 -0.0122850491 0.00424216641 -0.0157003701 -0.0104009993 0.00541999703 -0.015330256 -0.0123389531 0.00424216641 -0.0157003701 -0.0104009993 0.00533510093 -0.0153569337 -0.012385278 0.00541999703 -0.015330256 -0.0123389531 0.00387712405 -0.0158150792 -0.0118290354 0.00392131833 -0.0158011913 -0.0119180242 0.00409566937 -0.0157464035 -0.0105298515 0.00392131833 -0.0158011913 -0.0119180242 0.00397274317 -0.015785031 -0.0120026367 0.00409566937 -0.0157464035 -0.0105298515 0.00409566937 -0.0157464035 -0.0105298515 0.00397274317 -0.015785031 -0.0120026367 0.00416623428 -0.0157242306 -0.0104620727 0.00468093157 -0.0155624952 -0.012475553 0.00477582309 -0.0155326771 -0.0124886483 0.00424216641 -0.0157003701 -0.0104009993 0.00477582309 -0.0155326771 -0.0124886483 0.00487144245 -0.0155026307 -0.0124930236 0.00424216641 -0.0157003701 -0.0104009993 0.00424216641 -0.0157003701 -0.0104009993 0.00487144245 -0.0155026307 -0.0124930236 0.0049670618 -0.0154725835 -0.0124886483 0.00557665108 -0.01528103 -0.0122239748 0.0049670618 -0.0154725835 -0.0101974001 0.00550071849 -0.0153048905 -0.0122850491 0.0049670618 -0.0154725835 -0.0101974001 0.00487144245 -0.0155026307 -0.0101930238 0.00550071849 -0.0153048905 -0.0122850491 0.00550071849 -0.0153048905 -0.0122850491 0.00487144245 -0.0155026307 -0.0101930238 0.00477582309 -0.0155326771 -0.0101974001 0.00557665108 -0.01528103 -0.0122239748 0.00564721599 -0.0152588561 -0.0121561969 0.0049670618 -0.0154725835 -0.0101974001 0.00564721599 -0.0152588561 -0.0121561969 0.00571187725 -0.0152385375 -0.0120822294 0.0049670618 -0.0154725835 -0.0101974001 0.0049670618 -0.0154725835 -0.0101974001 0.00571187725 -0.0152385375 -0.0120822294 0.00577014172 -0.0152202295 -0.0120026367 0.00409566937 -0.0157464035 -0.0121561969 0.00416623428 -0.0157242306 -0.0122239748 0.00424216641 -0.0157003701 -0.0104009993 0.00416623428 -0.0157242306 -0.0122239748 0.00424216641 -0.0157003701 -0.0122850491 0.00424216641 -0.0157003701 -0.0104009993 0.00424216641 -0.0157003701 -0.0104009993 0.00424216641 -0.0157003701 -0.0122850491 0.00432288786 -0.0156750046 -0.0123389531 0.00506195379 -0.0154427653 -0.012475553 0.00515539525 -0.0154134026 -0.0124538383 0.00424216641 -0.0157003701 -0.0104009993 0.00515539525 -0.0154134026 -0.0124538383 0.00524667604 -0.0153847197 -0.0124236709 0.00424216641 -0.0157003701 -0.0104009993 0.00424216641 -0.0157003701 -0.0104009993 0.00524667604 -0.0153847197 -0.0124236709 0.00533510093 -0.0153569337 -0.012385278 0.00564721599 -0.0152588561 -0.0105298515 0.00557665108 -0.01528103 -0.0104620727 0.00586576108 -0.0151901823 -0.0118290354 0.00557665108 -0.01528103 -0.0104620727 0.00550071849 -0.0153048905 -0.0104009993 0.00586576108 -0.0151901823 -0.0118290354 0.00586576108 -0.0151901823 -0.0118290354 0.00550071849 -0.0153048905 -0.0104009993 0.00541999703 -0.015330256 -0.0103470944 0.00541999703 -0.015330256 -0.0103470944 0.00533510093 -0.0153569337 -0.0103007704 0.00586576108 -0.0151901823 -0.0118290354 0.00533510093 -0.0153569337 -0.0103007704 0.00524667604 -0.0153847197 -0.0102623776 0.00586576108 -0.0151901823 -0.0118290354 0.00586576108 -0.0151901823 -0.0118290354 0.00524667604 -0.0153847197 -0.0102623776 0.00515539525 -0.0154134026 -0.0102322092 0.00577014172 -0.0152202295 -0.0120026367 0.00582156703 -0.0152040692 -0.0119180242 0.0049670618 -0.0154725835 -0.0101974001 0.00582156703 -0.0152040692 -0.0119180242 0.00586576108 -0.0151901823 -0.0118290354 0.0049670618 -0.0154725835 -0.0101974001 0.0049670618 -0.0154725835 -0.0101974001 0.00586576108 -0.0151901823 -0.0118290354 0.00506195379 -0.0154427653 -0.0102104954 0.00586576108 -0.0151901823 -0.0118290354 0.00515539525 -0.0154134026 -0.0102322092 0.00506195379 -0.0154427653 -0.0102104954 0.00477582309 -0.0155326771 -0.0101974001 0.00468093157 -0.0155624952 -0.0102104954 0.00550071849 -0.0153048905 -0.0122850491 0.00468093157 -0.0155624952 -0.0102104954 0.00458749011 -0.015591858 -0.0102322092 0.00550071849 -0.0153048905 -0.0122850491 0.00550071849 -0.0153048905 -0.0122850491 0.00458749011 -0.015591858 -0.0102322092 0.00449620932 -0.0156205408 -0.0102623776 0.00449620932 -0.0156205408 -0.0102623776 0.00440778444 -0.0156483278 -0.0103007704 0.00550071849 -0.0153048905 -0.0122850491 0.00440778444 -0.0156483278 -0.0103007704 0.00432288786 -0.0156750046 -0.0103470944 0.00550071849 -0.0153048905 -0.0122850491 0.00550071849 -0.0153048905 -0.0122850491 0.00432288786 -0.0156750046 -0.0103470944 0.00424216641 -0.0157003701 -0.0104009993 0.00403100811 -0.0157667231 -0.0106038181 0.00377850817 -0.0158460662 -0.0112427948 0.00409566937 -0.0157464035 -0.0105298515 0.00377850817 -0.0158460662 -0.0112427948 0.00377433351 -0.0158473793 -0.0113430237 0.00409566937 -0.0157464035 -0.0105298515 0.00409566937 -0.0157464035 -0.0105298515 0.00377433351 -0.0158473793 -0.0113430237 0.00377850817 -0.0158460662 -0.0114432527 0.00381171657 -0.0158356316 -0.0110453824 0.00392131833 -0.0158011913 -0.0107680243 0.00384049723 -0.0158265885 -0.0109497011 0.00392131833 -0.0158011913 -0.0107680243 0.00387712405 -0.0158150792 -0.0108570131 0.00384049723 -0.0158265885 -0.0109497011 0.00403100811 -0.0157667231 -0.0106038181 0.00397274317 -0.015785031 -0.0106834108 0.00377850817 -0.0158460662 -0.0112427948 0.00397274317 -0.015785031 -0.0106834108 0.00392131833 -0.0158011913 -0.0107680243 0.00377850817 -0.0158460662 -0.0112427948 0.00377850817 -0.0158460662 -0.0112427948 0.00392131833 -0.0158011913 -0.0107680243 0.00379100093 -0.0158421416 -0.0111433286 0.00392131833 -0.0158011913 -0.0107680243 0.00381171657 -0.0158356316 -0.0110453824 0.00379100093 -0.0158421416 -0.0111433286 0.00377850817 -0.0158460662 -0.0114432527 0.00379100093 -0.0158421416 -0.0115427198 0.00409566937 -0.0157464035 -0.0105298515 0.00379100093 -0.0158421416 -0.0115427198 0.00381171657 -0.0158356316 -0.0116406661 0.00409566937 -0.0157464035 -0.0105298515 0.00409566937 -0.0157464035 -0.0105298515 0.00381171657 -0.0158356316 -0.0116406661 0.00384049723 -0.0158265885 -0.0117363473 0.00432288786 -0.0156750046 -0.0123389531 0.00440778444 -0.0156483278 -0.012385278 0.00424216641 -0.0157003701 -0.0104009993 0.00440778444 -0.0156483278 -0.012385278 0.00449620932 -0.0156205408 -0.0124236709 0.00424216641 -0.0157003701 -0.0104009993 0.00424216641 -0.0157003701 -0.0104009993 0.00449620932 -0.0156205408 -0.0124236709 0.00458749011 -0.015591858 -0.0124538383 0.00571187725 -0.0152385375 -0.0106038181 0.00586576108 -0.0151901823 -0.0118290354 0.00577014172 -0.0152202295 -0.0106834108 0.00586576108 -0.0151901823 -0.0118290354 0.00590238813 -0.015178673 -0.0117363473 0.00577014172 -0.0152202295 -0.0106834108 0.00577014172 -0.0152202295 -0.0106834108 0.00590238813 -0.015178673 -0.0117363473 0.00593116879 -0.0151696289 -0.0116406661 0.00416623428 -0.0157242306 -0.0104620727 0.00397274317 -0.015785031 -0.0120026367 0.00424216641 -0.0157003701 -0.0104009993 0.00397274317 -0.015785031 -0.0120026367 0.00403100811 -0.0157667231 -0.0120822294 0.00424216641 -0.0157003701 -0.0104009993 0.00424216641 -0.0157003701 -0.0104009993 0.00403100811 -0.0157667231 -0.0120822294 0.00409566937 -0.0157464035 -0.0121561969 0.00593116879 -0.0151696289 -0.0116406661 0.0059518842 -0.0151631199 -0.0115427198 0.00577014172 -0.0152202295 -0.0106834108 0.0059518842 -0.0151631199 -0.0115427198 0.00596437696 -0.0151591944 -0.0114432527 0.00577014172 -0.0152202295 -0.0106834108 0.00577014172 -0.0152202295 -0.0106834108 0.00596437696 -0.0151591944 -0.0114432527 0.00596855208 -0.0151578821 -0.0113430237 0.00590238813 -0.015178673 -0.0109497011 0.00586576108 -0.0151901823 -0.0108570131 0.00593116879 -0.0151696289 -0.0110453824 0.00586576108 -0.0151901823 -0.0108570131 0.0059518842 -0.0151631199 -0.0111433286 0.00593116879 -0.0151696289 -0.0110453824 0.00596855208 -0.0151578821 -0.0113430237 0.00596437696 -0.0151591944 -0.0112427948 0.00577014172 -0.0152202295 -0.0106834108 0.00596437696 -0.0151591944 -0.0112427948 0.0059518842 -0.0151631199 -0.0111433286 0.00577014172 -0.0152202295 -0.0106834108 0.00577014172 -0.0152202295 -0.0106834108 0.0059518842 -0.0151631199 -0.0111433286 0.00582156703 -0.0152040692 -0.0107680243 0.0059518842 -0.0151631199 -0.0111433286 0.00586576108 -0.0151901823 -0.0108570131 0.00582156703 -0.0152040692 -0.0107680243 0.00596855208 -0.0151578821 -0.0113430237 0.00566877099 -0.0142038744 -0.0113430237 0.00566459587 -0.0142051857 -0.0112427948 0.00596855208 -0.0151578821 -0.0113430237 0.00566459587 -0.0142051857 -0.0112427948 0.00596437696 -0.0151591944 -0.0112427948 0.00566459587 -0.0142051857 -0.0112427948 0.00565210311 -0.0142091112 -0.0111433286 0.00596437696 -0.0151591944 -0.0112427948 0.00596437696 -0.0151591944 -0.0112427948 0.00565210311 -0.0142091112 -0.0111433286 0.0059518842 -0.0151631199 -0.0111433286 0.00565210311 -0.0142091112 -0.0111433286 0.0056313877 -0.0142156212 -0.0110453824 0.0059518842 -0.0151631199 -0.0111433286 0.0059518842 -0.0151631199 -0.0111433286 0.0056313877 -0.0142156212 -0.0110453824 0.00593116879 -0.0151696289 -0.0110453824 0.0056313877 -0.0142156212 -0.0110453824 0.00560260704 -0.0142246652 -0.0109497011 0.00593116879 -0.0151696289 -0.0110453824 0.00593116879 -0.0151696289 -0.0110453824 0.00560260704 -0.0142246652 -0.0109497011 0.00590238813 -0.015178673 -0.0109497011 0.00560260704 -0.0142246652 -0.0109497011 0.00556597998 -0.0142361745 -0.0108570131 0.00590238813 -0.015178673 -0.0109497011 0.00590238813 -0.015178673 -0.0109497011 0.00556597998 -0.0142361745 -0.0108570131 0.00586576108 -0.0151901823 -0.0108570131 0.00556597998 -0.0142361745 -0.0108570131 0.00552178593 -0.0142500615 -0.0107680243 0.00586576108 -0.0151901823 -0.0108570131 0.00586576108 -0.0151901823 -0.0108570131 0.00552178593 -0.0142500615 -0.0107680243 0.00582156703 -0.0152040692 -0.0107680243 0.00552178593 -0.0142500615 -0.0107680243 0.00547036063 -0.0142662209 -0.0106834108 0.00582156703 -0.0152040692 -0.0107680243 0.00582156703 -0.0152040692 -0.0107680243 0.00547036063 -0.0142662209 -0.0106834108 0.00577014172 -0.0152202295 -0.0106834108 0.00547036063 -0.0142662209 -0.0106834108 0.00541209616 -0.0142845297 -0.0106038181 0.00577014172 -0.0152202295 -0.0106834108 0.00577014172 -0.0152202295 -0.0106834108 0.00541209616 -0.0142845297 -0.0106038181 0.00571187725 -0.0152385375 -0.0106038181 0.00541209616 -0.0142845297 -0.0106038181 0.0053474349 -0.0143048484 -0.0105298515 0.00571187725 -0.0152385375 -0.0106038181 0.00571187725 -0.0152385375 -0.0106038181 0.0053474349 -0.0143048484 -0.0105298515 0.00564721599 -0.0152588561 -0.0105298515 0.0053474349 -0.0143048484 -0.0105298515 0.00527686998 -0.0143270222 -0.0104620727 0.00564721599 -0.0152588561 -0.0105298515 0.00564721599 -0.0152588561 -0.0105298515 0.00527686998 -0.0143270222 -0.0104620727 0.00557665108 -0.01528103 -0.0104620727 0.00527686998 -0.0143270222 -0.0104620727 0.00520093739 -0.0143508827 -0.0104009993 0.00557665108 -0.01528103 -0.0104620727 0.00557665108 -0.01528103 -0.0104620727 0.00520093739 -0.0143508827 -0.0104009993 0.00550071849 -0.0153048905 -0.0104009993 0.00520093739 -0.0143508827 -0.0104009993 0.00512021594 -0.0143762482 -0.0103470944 0.00550071849 -0.0153048905 -0.0104009993 0.00550071849 -0.0153048905 -0.0104009993 0.00512021594 -0.0143762482 -0.0103470944 0.00541999703 -0.015330256 -0.0103470944 0.00512021594 -0.0143762482 -0.0103470944 0.00503531983 -0.014402925 -0.0103007704 0.00541999703 -0.015330256 -0.0103470944 0.00541999703 -0.015330256 -0.0103470944 0.00503531983 -0.014402925 -0.0103007704 0.00533510093 -0.0153569337 -0.0103007704 0.00503531983 -0.014402925 -0.0103007704 0.00494689494 -0.014430711 -0.0102623776 0.00533510093 -0.0153569337 -0.0103007704 0.00533510093 -0.0153569337 -0.0103007704 0.00494689494 -0.014430711 -0.0102623776 0.00524667604 -0.0153847197 -0.0102623776 0.00494689494 -0.014430711 -0.0102623776 0.00485561416 -0.0144593948 -0.0102322092 0.00524667604 -0.0153847197 -0.0102623776 0.00524667604 -0.0153847197 -0.0102623776 0.00485561416 -0.0144593948 -0.0102322092 0.00515539525 -0.0154134026 -0.0102322092 0.00485561416 -0.0144593948 -0.0102322092 0.0047621727 -0.0144887576 -0.0102104954 0.00515539525 -0.0154134026 -0.0102322092 0.00515539525 -0.0154134026 -0.0102322092 0.0047621727 -0.0144887576 -0.0102104954 0.00506195379 -0.0154427653 -0.0102104954 0.0047621727 -0.0144887576 -0.0102104954 0.00466728071 -0.0145185757 -0.0101974001 0.00506195379 -0.0154427653 -0.0102104954 0.00506195379 -0.0154427653 -0.0102104954 0.00466728071 -0.0145185757 -0.0101974001 0.0049670618 -0.0154725835 -0.0101974001 0.00466728071 -0.0145185757 -0.0101974001 0.00457166135 -0.0145486221 -0.0101930238 0.0049670618 -0.0154725835 -0.0101974001 0.0049670618 -0.0154725835 -0.0101974001 0.00457166135 -0.0145486221 -0.0101930238 0.00487144245 -0.0155026307 -0.0101930238 0.00457166135 -0.0145486221 -0.0101930238 0.004476042 -0.0145786693 -0.0101974001 0.00487144245 -0.0155026307 -0.0101930238 0.00487144245 -0.0155026307 -0.0101930238 0.004476042 -0.0145786693 -0.0101974001 0.00477582309 -0.0155326771 -0.0101974001 0.004476042 -0.0145786693 -0.0101974001 0.00438115047 -0.0146084875 -0.0102104954 0.00477582309 -0.0155326771 -0.0101974001 0.00477582309 -0.0155326771 -0.0101974001 0.00438115047 -0.0146084875 -0.0102104954 0.00468093157 -0.0155624952 -0.0102104954 0.00438115047 -0.0146084875 -0.0102104954 0.00428770902 -0.0146378493 -0.0102322092 0.00468093157 -0.0155624952 -0.0102104954 0.00468093157 -0.0155624952 -0.0102104954 0.00428770902 -0.0146378493 -0.0102322092 0.00458749011 -0.015591858 -0.0102322092 0.00428770902 -0.0146378493 -0.0102322092 0.00419642823 -0.0146665331 -0.0102623776 0.00458749011 -0.015591858 -0.0102322092 0.00458749011 -0.015591858 -0.0102322092 0.00419642823 -0.0146665331 -0.0102623776 0.00449620932 -0.0156205408 -0.0102623776 0.00419642823 -0.0146665331 -0.0102623776 0.00410800334 -0.0146943191 -0.0103007704 0.00449620932 -0.0156205408 -0.0102623776 0.00449620932 -0.0156205408 -0.0102623776 0.00410800334 -0.0146943191 -0.0103007704 0.00440778444 -0.0156483278 -0.0103007704 0.00410800334 -0.0146943191 -0.0103007704 0.00402310677 -0.0147209968 -0.0103470944 0.00440778444 -0.0156483278 -0.0103007704 0.00440778444 -0.0156483278 -0.0103007704 0.00402310677 -0.0147209968 -0.0103470944 0.00432288786 -0.0156750046 -0.0103470944 0.00402310677 -0.0147209968 -0.0103470944 0.00394238578 -0.0147463614 -0.0104009993 0.00432288786 -0.0156750046 -0.0103470944 0.00432288786 -0.0156750046 -0.0103470944 0.00394238578 -0.0147463614 -0.0104009993 0.00424216641 -0.0157003701 -0.0104009993 0.00394238578 -0.0147463614 -0.0104009993 0.00386645342 -0.0147702219 -0.0104620727 0.00424216641 -0.0157003701 -0.0104009993 0.00424216641 -0.0157003701 -0.0104009993 0.00386645342 -0.0147702219 -0.0104620727 0.00416623428 -0.0157242306 -0.0104620727 0.00386645342 -0.0147702219 -0.0104620727 0.00379588827 -0.0147923958 -0.0105298515 0.00416623428 -0.0157242306 -0.0104620727 0.00416623428 -0.0157242306 -0.0104620727 0.00379588827 -0.0147923958 -0.0105298515 0.00409566937 -0.0157464035 -0.0105298515 0.00379588827 -0.0147923958 -0.0105298515 0.00373122725 -0.0148127144 -0.0106038181 0.00409566937 -0.0157464035 -0.0105298515 0.00409566937 -0.0157464035 -0.0105298515 0.00373122725 -0.0148127144 -0.0106038181 0.00403100811 -0.0157667231 -0.0106038181 0.00373122725 -0.0148127144 -0.0106038181 0.00367296231 -0.0148310233 -0.0106834108 0.00403100811 -0.0157667231 -0.0106038181 0.00403100811 -0.0157667231 -0.0106038181 0.00367296231 -0.0148310233 -0.0106834108 0.00397274317 -0.015785031 -0.0106834108 0.00367296231 -0.0148310233 -0.0106834108 0.00362153701 -0.0148471827 -0.0107680243 0.00397274317 -0.015785031 -0.0106834108 0.00397274317 -0.015785031 -0.0106834108 0.00362153701 -0.0148471827 -0.0107680243 0.00392131833 -0.0158011913 -0.0107680243 0.00362153701 -0.0148471827 -0.0107680243 0.00357734296 -0.0148610706 -0.0108570131 0.00392131833 -0.0158011913 -0.0107680243 0.00392131833 -0.0158011913 -0.0107680243 0.00357734296 -0.0148610706 -0.0108570131 0.00387712405 -0.0158150792 -0.0108570131 0.00357734296 -0.0148610706 -0.0108570131 0.00354071613 -0.0148725798 -0.0109497011 0.00387712405 -0.0158150792 -0.0108570131 0.00387712405 -0.0158150792 -0.0108570131 0.00354071613 -0.0148725798 -0.0109497011 0.00384049723 -0.0158265885 -0.0109497011 0.00354071613 -0.0148725798 -0.0109497011 0.00351193547 -0.0148816239 -0.0110453824 0.00384049723 -0.0158265885 -0.0109497011 0.00384049723 -0.0158265885 -0.0109497011 0.00351193547 -0.0148816239 -0.0110453824 0.00381171657 -0.0158356316 -0.0110453824 0.00351193547 -0.0148816239 -0.0110453824 0.00349121983 -0.0148881329 -0.0111433286 0.00381171657 -0.0158356316 -0.0110453824 0.00381171657 -0.0158356316 -0.0110453824 0.00349121983 -0.0148881329 -0.0111433286 0.00379100093 -0.0158421416 -0.0111433286 0.00349121983 -0.0148881329 -0.0111433286 0.00347872707 -0.0148920584 -0.0112427948 0.00379100093 -0.0158421416 -0.0111433286 0.00379100093 -0.0158421416 -0.0111433286 0.00347872707 -0.0148920584 -0.0112427948 0.00377850817 -0.0158460662 -0.0112427948 0.00347872707 -0.0148920584 -0.0112427948 0.00347455242 -0.0148933707 -0.0113430237 0.00377850817 -0.0158460662 -0.0112427948 0.00377850817 -0.0158460662 -0.0112427948 0.00347455242 -0.0148933707 -0.0113430237 0.00377433351 -0.0158473793 -0.0113430237 0.00438115047 -0.0146084875 -0.0102104954 0.004476042 -0.0145786693 -0.0101974001 0.00566459587 -0.0142051857 -0.0114432527 0.00351193547 -0.0148816239 -0.0110453824 0.00354071613 -0.0148725798 -0.0109497011 0.00566459587 -0.0142051857 -0.0114432527 0.00354071613 -0.0148725798 -0.0109497011 0.00357734296 -0.0148610706 -0.0108570131 0.00566459587 -0.0142051857 -0.0114432527 0.00373122725 -0.0148127144 -0.0106038181 0.00379588827 -0.0147923958 -0.0105298515 0.00566459587 -0.0142051857 -0.0114432527 0.00379588827 -0.0147923958 -0.0105298515 0.00386645342 -0.0147702219 -0.0104620727 0.00566459587 -0.0142051857 -0.0114432527 0.0056313877 -0.0142156212 -0.0110453824 0.00565210311 -0.0142091112 -0.0111433286 0.00466728071 -0.0145185757 -0.0101974001 0.00565210311 -0.0142091112 -0.0111433286 0.00566459587 -0.0142051857 -0.0112427948 0.00466728071 -0.0145185757 -0.0101974001 0.00565210311 -0.0142091112 -0.0115427198 0.0056313877 -0.0142156212 -0.0116406661 0.00347872707 -0.0148920584 -0.0112427948 0.0056313877 -0.0142156212 -0.0116406661 0.00560260704 -0.0142246652 -0.0117363473 0.00347872707 -0.0148920584 -0.0112427948 0.00347872707 -0.0148920584 -0.0112427948 0.00560260704 -0.0142246652 -0.0117363473 0.00556597998 -0.0142361745 -0.0118290354 0.00367296231 -0.0148310233 -0.0120026367 0.00457166135 -0.0145486221 -0.0124930236 0.004476042 -0.0145786693 -0.0124886483 0.00565210311 -0.0142091112 -0.0115427198 0.00347872707 -0.0148920584 -0.0112427948 0.00566459587 -0.0142051857 -0.0114432527 0.00347872707 -0.0148920584 -0.0112427948 0.00349121983 -0.0148881329 -0.0111433286 0.00566459587 -0.0142051857 -0.0114432527 0.00566459587 -0.0142051857 -0.0114432527 0.00349121983 -0.0148881329 -0.0111433286 0.00351193547 -0.0148816239 -0.0110453824 0.00357734296 -0.0148610706 -0.0108570131 0.00362153701 -0.0148471827 -0.0107680243 0.00566459587 -0.0142051857 -0.0114432527 0.00362153701 -0.0148471827 -0.0107680243 0.00367296231 -0.0148310233 -0.0106834108 0.00566459587 -0.0142051857 -0.0114432527 0.00566459587 -0.0142051857 -0.0114432527 0.00367296231 -0.0148310233 -0.0106834108 0.00373122725 -0.0148127144 -0.0106038181 0.00386645342 -0.0147702219 -0.0104620727 0.00394238578 -0.0147463614 -0.0104009993 0.00566459587 -0.0142051857 -0.0114432527 0.00394238578 -0.0147463614 -0.0104009993 0.00402310677 -0.0147209968 -0.0103470944 0.00566459587 -0.0142051857 -0.0114432527 0.00566459587 -0.0142051857 -0.0114432527 0.00402310677 -0.0147209968 -0.0103470944 0.00410800334 -0.0146943191 -0.0103007704 0.00410800334 -0.0146943191 -0.0103007704 0.00419642823 -0.0146665331 -0.0102623776 0.00566459587 -0.0142051857 -0.0114432527 0.00419642823 -0.0146665331 -0.0102623776 0.00428770902 -0.0146378493 -0.0102322092 0.00566459587 -0.0142051857 -0.0114432527 0.00566459587 -0.0142051857 -0.0114432527 0.00428770902 -0.0146378493 -0.0102322092 0.00438115047 -0.0146084875 -0.0102104954 0.0047621727 -0.0144887576 -0.0102104954 0.00485561416 -0.0144593948 -0.0102322092 0.00556597998 -0.0142361745 -0.0108570131 0.00485561416 -0.0144593948 -0.0102322092 0.00494689494 -0.014430711 -0.0102623776 0.00556597998 -0.0142361745 -0.0108570131 0.0053474349 -0.0143048484 -0.0105298515 0.00541209616 -0.0142845297 -0.0106038181 0.00547036063 -0.0142662209 -0.0106834108 0.0047621727 -0.0144887576 -0.0102104954 0.00556597998 -0.0142361745 -0.0108570131 0.00466728071 -0.0145185757 -0.0101974001 0.00556597998 -0.0142361745 -0.0108570131 0.00560260704 -0.0142246652 -0.0109497011 0.00466728071 -0.0145185757 -0.0101974001 0.00466728071 -0.0145185757 -0.0101974001 0.00560260704 -0.0142246652 -0.0109497011 0.0056313877 -0.0142156212 -0.0110453824 0.004476042 -0.0145786693 -0.0101974001 0.00457166135 -0.0145486221 -0.0101930238 0.00566459587 -0.0142051857 -0.0114432527 0.00457166135 -0.0145486221 -0.0101930238 0.00466728071 -0.0145185757 -0.0101974001 0.00566459587 -0.0142051857 -0.0114432527 0.00566459587 -0.0142051857 -0.0114432527 0.00466728071 -0.0145185757 -0.0101974001 0.00566877099 -0.0142038744 -0.0113430237 0.00466728071 -0.0145185757 -0.0101974001 0.00566459587 -0.0142051857 -0.0112427948 0.00566877099 -0.0142038744 -0.0113430237 0.00556597998 -0.0142361745 -0.0118290354 0.00552178593 -0.0142500615 -0.0119180242 0.00347872707 -0.0148920584 -0.0112427948 0.00552178593 -0.0142500615 -0.0119180242 0.00547036063 -0.0142662209 -0.0120026367 0.00347872707 -0.0148920584 -0.0112427948 0.00347872707 -0.0148920584 -0.0112427948 0.00547036063 -0.0142662209 -0.0120026367 0.00541209616 -0.0142845297 -0.0120822294 0.00541209616 -0.0142845297 -0.0120822294 0.0053474349 -0.0143048484 -0.0121561969 0.00347872707 -0.0148920584 -0.0112427948 0.0053474349 -0.0143048484 -0.0121561969 0.00527686998 -0.0143270222 -0.0122239748 0.00347872707 -0.0148920584 -0.0112427948 0.00347872707 -0.0148920584 -0.0112427948 0.00527686998 -0.0143270222 -0.0122239748 0.00520093739 -0.0143508827 -0.0122850491 0.00520093739 -0.0143508827 -0.0122850491 0.00512021594 -0.0143762482 -0.0123389531 0.00347872707 -0.0148920584 -0.0112427948 0.00512021594 -0.0143762482 -0.0123389531 0.00503531983 -0.014402925 -0.012385278 0.00347872707 -0.0148920584 -0.0112427948 0.00347872707 -0.0148920584 -0.0112427948 0.00503531983 -0.014402925 -0.012385278 0.00494689494 -0.014430711 -0.0124236709 0.00494689494 -0.014430711 -0.0124236709 0.00485561416 -0.0144593948 -0.0124538383 0.00347872707 -0.0148920584 -0.0112427948 0.00485561416 -0.0144593948 -0.0124538383 0.0047621727 -0.0144887576 -0.012475553 0.00347872707 -0.0148920584 -0.0112427948 0.00347872707 -0.0148920584 -0.0112427948 0.0047621727 -0.0144887576 -0.012475553 0.00466728071 -0.0145185757 -0.0124886483 0.004476042 -0.0145786693 -0.0124886483 0.00438115047 -0.0146084875 -0.012475553 0.00367296231 -0.0148310233 -0.0120026367 0.00438115047 -0.0146084875 -0.012475553 0.00428770902 -0.0146378493 -0.0124538383 0.00367296231 -0.0148310233 -0.0120026367 0.00367296231 -0.0148310233 -0.0120026367 0.00428770902 -0.0146378493 -0.0124538383 0.00419642823 -0.0146665331 -0.0124236709 0.00419642823 -0.0146665331 -0.0124236709 0.00410800334 -0.0146943191 -0.012385278 0.00367296231 -0.0148310233 -0.0120026367 0.00410800334 -0.0146943191 -0.012385278 0.00402310677 -0.0147209968 -0.0123389531 0.00367296231 -0.0148310233 -0.0120026367 0.00367296231 -0.0148310233 -0.0120026367 0.00402310677 -0.0147209968 -0.0123389531 0.00394238578 -0.0147463614 -0.0122850491 0.00394238578 -0.0147463614 -0.0122850491 0.00386645342 -0.0147702219 -0.0122239748 0.00367296231 -0.0148310233 -0.0120026367 0.00386645342 -0.0147702219 -0.0122239748 0.00379588827 -0.0147923958 -0.0121561969 0.00367296231 -0.0148310233 -0.0120026367 0.00367296231 -0.0148310233 -0.0120026367 0.00379588827 -0.0147923958 -0.0121561969 0.00373122725 -0.0148127144 -0.0120822294 0.00457166135 -0.0145486221 -0.0124930236 0.00367296231 -0.0148310233 -0.0120026367 0.00466728071 -0.0145185757 -0.0124886483 0.00367296231 -0.0148310233 -0.0120026367 0.00362153701 -0.0148471827 -0.0119180242 0.00466728071 -0.0145185757 -0.0124886483 0.00466728071 -0.0145185757 -0.0124886483 0.00362153701 -0.0148471827 -0.0119180242 0.00357734296 -0.0148610706 -0.0118290354 0.00357734296 -0.0148610706 -0.0118290354 0.00354071613 -0.0148725798 -0.0117363473 0.00466728071 -0.0145185757 -0.0124886483 0.00354071613 -0.0148725798 -0.0117363473 0.00351193547 -0.0148816239 -0.0116406661 0.00466728071 -0.0145185757 -0.0124886483 0.00466728071 -0.0145185757 -0.0124886483 0.00351193547 -0.0148816239 -0.0116406661 0.00349121983 -0.0148881329 -0.0115427198 0.00349121983 -0.0148881329 -0.0115427198 0.00347872707 -0.0148920584 -0.0114432527 0.00466728071 -0.0145185757 -0.0124886483 0.00347872707 -0.0148920584 -0.0114432527 0.00347455242 -0.0148933707 -0.0113430237 0.00466728071 -0.0145185757 -0.0124886483 0.00466728071 -0.0145185757 -0.0124886483 0.00347455242 -0.0148933707 -0.0113430237 0.00347872707 -0.0148920584 -0.0112427948 0.00494689494 -0.014430711 -0.0102623776 0.00503531983 -0.014402925 -0.0103007704 0.00556597998 -0.0142361745 -0.0108570131 0.00503531983 -0.014402925 -0.0103007704 0.00512021594 -0.0143762482 -0.0103470944 0.00556597998 -0.0142361745 -0.0108570131 0.00556597998 -0.0142361745 -0.0108570131 0.00512021594 -0.0143762482 -0.0103470944 0.00520093739 -0.0143508827 -0.0104009993 0.00520093739 -0.0143508827 -0.0104009993 0.00527686998 -0.0143270222 -0.0104620727 0.00556597998 -0.0142361745 -0.0108570131 0.00527686998 -0.0143270222 -0.0104620727 0.0053474349 -0.0143048484 -0.0105298515 0.00556597998 -0.0142361745 -0.0108570131 0.00556597998 -0.0142361745 -0.0108570131 0.0053474349 -0.0143048484 -0.0105298515 0.00552178593 -0.0142500615 -0.0107680243 0.0053474349 -0.0143048484 -0.0105298515 0.00547036063 -0.0142662209 -0.0106834108 0.00552178593 -0.0142500615 -0.0107680243 0.00377433351 -0.0158473793 -0.0113430237 0.00347455242 -0.0148933707 -0.0113430237 0.00347872707 -0.0148920584 -0.0114432527 0.00377433351 -0.0158473793 -0.0113430237 0.00347872707 -0.0148920584 -0.0114432527 0.00377850817 -0.0158460662 -0.0114432527 0.00347872707 -0.0148920584 -0.0114432527 0.00349121983 -0.0148881329 -0.0115427198 0.00377850817 -0.0158460662 -0.0114432527 0.00377850817 -0.0158460662 -0.0114432527 0.00349121983 -0.0148881329 -0.0115427198 0.00379100093 -0.0158421416 -0.0115427198 0.00349121983 -0.0148881329 -0.0115427198 0.00351193547 -0.0148816239 -0.0116406661 0.00379100093 -0.0158421416 -0.0115427198 0.00379100093 -0.0158421416 -0.0115427198 0.00351193547 -0.0148816239 -0.0116406661 0.00381171657 -0.0158356316 -0.0116406661 0.00351193547 -0.0148816239 -0.0116406661 0.00354071613 -0.0148725798 -0.0117363473 0.00381171657 -0.0158356316 -0.0116406661 0.00381171657 -0.0158356316 -0.0116406661 0.00354071613 -0.0148725798 -0.0117363473 0.00384049723 -0.0158265885 -0.0117363473 0.00354071613 -0.0148725798 -0.0117363473 0.00357734296 -0.0148610706 -0.0118290354 0.00384049723 -0.0158265885 -0.0117363473 0.00384049723 -0.0158265885 -0.0117363473 0.00357734296 -0.0148610706 -0.0118290354 0.00387712405 -0.0158150792 -0.0118290354 0.00357734296 -0.0148610706 -0.0118290354 0.00362153701 -0.0148471827 -0.0119180242 0.00387712405 -0.0158150792 -0.0118290354 0.00387712405 -0.0158150792 -0.0118290354 0.00362153701 -0.0148471827 -0.0119180242 0.00392131833 -0.0158011913 -0.0119180242 0.00362153701 -0.0148471827 -0.0119180242 0.00367296231 -0.0148310233 -0.0120026367 0.00392131833 -0.0158011913 -0.0119180242 0.00392131833 -0.0158011913 -0.0119180242 0.00367296231 -0.0148310233 -0.0120026367 0.00397274317 -0.015785031 -0.0120026367 0.00367296231 -0.0148310233 -0.0120026367 0.00373122725 -0.0148127144 -0.0120822294 0.00397274317 -0.015785031 -0.0120026367 0.00397274317 -0.015785031 -0.0120026367 0.00373122725 -0.0148127144 -0.0120822294 0.00403100811 -0.0157667231 -0.0120822294 0.00373122725 -0.0148127144 -0.0120822294 0.00379588827 -0.0147923958 -0.0121561969 0.00403100811 -0.0157667231 -0.0120822294 0.00403100811 -0.0157667231 -0.0120822294 0.00379588827 -0.0147923958 -0.0121561969 0.00409566937 -0.0157464035 -0.0121561969 0.00379588827 -0.0147923958 -0.0121561969 0.00386645342 -0.0147702219 -0.0122239748 0.00409566937 -0.0157464035 -0.0121561969 0.00409566937 -0.0157464035 -0.0121561969 0.00386645342 -0.0147702219 -0.0122239748 0.00416623428 -0.0157242306 -0.0122239748 0.00386645342 -0.0147702219 -0.0122239748 0.00394238578 -0.0147463614 -0.0122850491 0.00416623428 -0.0157242306 -0.0122239748 0.00416623428 -0.0157242306 -0.0122239748 0.00394238578 -0.0147463614 -0.0122850491 0.00424216641 -0.0157003701 -0.0122850491 0.00394238578 -0.0147463614 -0.0122850491 0.00402310677 -0.0147209968 -0.0123389531 0.00424216641 -0.0157003701 -0.0122850491 0.00424216641 -0.0157003701 -0.0122850491 0.00402310677 -0.0147209968 -0.0123389531 0.00432288786 -0.0156750046 -0.0123389531 0.00402310677 -0.0147209968 -0.0123389531 0.00410800334 -0.0146943191 -0.012385278 0.00432288786 -0.0156750046 -0.0123389531 0.00432288786 -0.0156750046 -0.0123389531 0.00410800334 -0.0146943191 -0.012385278 0.00440778444 -0.0156483278 -0.012385278 0.00410800334 -0.0146943191 -0.012385278 0.00419642823 -0.0146665331 -0.0124236709 0.00440778444 -0.0156483278 -0.012385278 0.00440778444 -0.0156483278 -0.012385278 0.00419642823 -0.0146665331 -0.0124236709 0.00449620932 -0.0156205408 -0.0124236709 0.00419642823 -0.0146665331 -0.0124236709 0.00428770902 -0.0146378493 -0.0124538383 0.00449620932 -0.0156205408 -0.0124236709 0.00449620932 -0.0156205408 -0.0124236709 0.00428770902 -0.0146378493 -0.0124538383 0.00458749011 -0.015591858 -0.0124538383 0.00428770902 -0.0146378493 -0.0124538383 0.00438115047 -0.0146084875 -0.012475553 0.00458749011 -0.015591858 -0.0124538383 0.00458749011 -0.015591858 -0.0124538383 0.00438115047 -0.0146084875 -0.012475553 0.00468093157 -0.0155624952 -0.012475553 0.00438115047 -0.0146084875 -0.012475553 0.004476042 -0.0145786693 -0.0124886483 0.00468093157 -0.0155624952 -0.012475553 0.00468093157 -0.0155624952 -0.012475553 0.004476042 -0.0145786693 -0.0124886483 0.00477582309 -0.0155326771 -0.0124886483 0.004476042 -0.0145786693 -0.0124886483 0.00457166135 -0.0145486221 -0.0124930236 0.00477582309 -0.0155326771 -0.0124886483 0.00477582309 -0.0155326771 -0.0124886483 0.00457166135 -0.0145486221 -0.0124930236 0.00487144245 -0.0155026307 -0.0124930236 0.00457166135 -0.0145486221 -0.0124930236 0.00466728071 -0.0145185757 -0.0124886483 0.00487144245 -0.0155026307 -0.0124930236 0.00487144245 -0.0155026307 -0.0124930236 0.00466728071 -0.0145185757 -0.0124886483 0.0049670618 -0.0154725835 -0.0124886483 0.00466728071 -0.0145185757 -0.0124886483 0.0047621727 -0.0144887576 -0.012475553 0.0049670618 -0.0154725835 -0.0124886483 0.0049670618 -0.0154725835 -0.0124886483 0.0047621727 -0.0144887576 -0.012475553 0.00506195379 -0.0154427653 -0.012475553 0.0047621727 -0.0144887576 -0.012475553 0.00485561416 -0.0144593948 -0.0124538383 0.00506195379 -0.0154427653 -0.012475553 0.00506195379 -0.0154427653 -0.012475553 0.00485561416 -0.0144593948 -0.0124538383 0.00515539525 -0.0154134026 -0.0124538383 0.00485561416 -0.0144593948 -0.0124538383 0.00494689494 -0.014430711 -0.0124236709 0.00515539525 -0.0154134026 -0.0124538383 0.00515539525 -0.0154134026 -0.0124538383 0.00494689494 -0.014430711 -0.0124236709 0.00524667604 -0.0153847197 -0.0124236709 0.00494689494 -0.014430711 -0.0124236709 0.00503531983 -0.014402925 -0.012385278 0.00524667604 -0.0153847197 -0.0124236709 0.00524667604 -0.0153847197 -0.0124236709 0.00503531983 -0.014402925 -0.012385278 0.00533510093 -0.0153569337 -0.012385278 0.00503531983 -0.014402925 -0.012385278 0.00512021594 -0.0143762482 -0.0123389531 0.00533510093 -0.0153569337 -0.012385278 0.00533510093 -0.0153569337 -0.012385278 0.00512021594 -0.0143762482 -0.0123389531 0.00541999703 -0.015330256 -0.0123389531 0.00512021594 -0.0143762482 -0.0123389531 0.00520093739 -0.0143508827 -0.0122850491 0.00541999703 -0.015330256 -0.0123389531 0.00541999703 -0.015330256 -0.0123389531 0.00520093739 -0.0143508827 -0.0122850491 0.00550071849 -0.0153048905 -0.0122850491 0.00520093739 -0.0143508827 -0.0122850491 0.00527686998 -0.0143270222 -0.0122239748 0.00550071849 -0.0153048905 -0.0122850491 0.00550071849 -0.0153048905 -0.0122850491 0.00527686998 -0.0143270222 -0.0122239748 0.00557665108 -0.01528103 -0.0122239748 0.00527686998 -0.0143270222 -0.0122239748 0.0053474349 -0.0143048484 -0.0121561969 0.00557665108 -0.01528103 -0.0122239748 0.00557665108 -0.01528103 -0.0122239748 0.0053474349 -0.0143048484 -0.0121561969 0.00564721599 -0.0152588561 -0.0121561969 0.0053474349 -0.0143048484 -0.0121561969 0.00541209616 -0.0142845297 -0.0120822294 0.00564721599 -0.0152588561 -0.0121561969 0.00564721599 -0.0152588561 -0.0121561969 0.00541209616 -0.0142845297 -0.0120822294 0.00571187725 -0.0152385375 -0.0120822294 0.00541209616 -0.0142845297 -0.0120822294 0.00547036063 -0.0142662209 -0.0120026367 0.00571187725 -0.0152385375 -0.0120822294 0.00571187725 -0.0152385375 -0.0120822294 0.00547036063 -0.0142662209 -0.0120026367 0.00577014172 -0.0152202295 -0.0120026367 0.00547036063 -0.0142662209 -0.0120026367 0.00552178593 -0.0142500615 -0.0119180242 0.00577014172 -0.0152202295 -0.0120026367 0.00577014172 -0.0152202295 -0.0120026367 0.00552178593 -0.0142500615 -0.0119180242 0.00582156703 -0.0152040692 -0.0119180242 0.00552178593 -0.0142500615 -0.0119180242 0.00556597998 -0.0142361745 -0.0118290354 0.00582156703 -0.0152040692 -0.0119180242 0.00582156703 -0.0152040692 -0.0119180242 0.00556597998 -0.0142361745 -0.0118290354 0.00586576108 -0.0151901823 -0.0118290354 0.00556597998 -0.0142361745 -0.0118290354 0.00560260704 -0.0142246652 -0.0117363473 0.00586576108 -0.0151901823 -0.0118290354 0.00586576108 -0.0151901823 -0.0118290354 0.00560260704 -0.0142246652 -0.0117363473 0.00590238813 -0.015178673 -0.0117363473 0.00560260704 -0.0142246652 -0.0117363473 0.0056313877 -0.0142156212 -0.0116406661 0.00590238813 -0.015178673 -0.0117363473 0.00590238813 -0.015178673 -0.0117363473 0.0056313877 -0.0142156212 -0.0116406661 0.00593116879 -0.0151696289 -0.0116406661 0.0056313877 -0.0142156212 -0.0116406661 0.00565210311 -0.0142091112 -0.0115427198 0.00593116879 -0.0151696289 -0.0116406661 0.00593116879 -0.0151696289 -0.0116406661 0.00565210311 -0.0142091112 -0.0115427198 0.0059518842 -0.0151631199 -0.0115427198 0.00565210311 -0.0142091112 -0.0115427198 0.00566459587 -0.0142051857 -0.0114432527 0.0059518842 -0.0151631199 -0.0115427198 0.0059518842 -0.0151631199 -0.0115427198 0.00566459587 -0.0142051857 -0.0114432527 0.00596437696 -0.0151591944 -0.0114432527 0.00566459587 -0.0142051857 -0.0114432527 0.00566877099 -0.0142038744 -0.0113430237 0.00596437696 -0.0151591944 -0.0114432527 0.00596437696 -0.0151591944 -0.0114432527 0.00566877099 -0.0142038744 -0.0113430237 0.00596855208 -0.0151578821 -0.0113430237 </float_array>
          <technique_common>
            <accessor count="852" offset="0" source="#mesh_0-positions-array" stride="3">
              <param name="X" type="float" />
              <param name="Y" type="float" />
              <param name="Z" type="float" />
            </accessor>
          </technique_common>
        </source>
        <source id="mesh_0-normals" name="mesh_0-normals">
          <float_array id="mesh_0-normals-array" count="2556"> 0.299784213 -0.95400703 6.15837735e-07 0.299784213 -0.95400703 6.15837735e-07 0.299784213 -0.95400703 6.15837735e-07 0.299780399 -0.954008222 8.00858331e-08 0.299780399 -0.954008222 8.00858331e-08 0.299780399 -0.954008222 8.00858331e-08 0.299781501 -0.954007864 1.03135665e-06 0.299781501 -0.954007864 1.03135665e-06 0.299781501 -0.954007864 1.03135665e-06 0.299780518 -0.954008222 -3.72729261e-07 0.299780518 -0.954008222 -3.72729261e-07 0.299780518 -0.954008222 -3.72729261e-07 0.299782217 -0.954007685 5.02590126e-07 0.299782217 -0.954007685 5.02590126e-07 0.299782217 -0.954007685 5.02590126e-07 0.299785405 -0.954006672 2.64107962e-06 0.299785405 -0.954006672 2.64107962e-06 0.299785405 -0.954006672 2.64107962e-06 0.299790919 -0.954004943 -7.09484596e-07 0.299790919 -0.954004943 -7.09484596e-07 0.299790919 -0.954004943 -7.09484596e-07 0.299794674 -0.954003751 -1.22517395e-06 0.299794674 -0.954003751 -1.22517395e-06 0.299794674 -0.954003751 -1.22517395e-06 0.299768776 -0.954011858 1.14759757e-06 0.299768776 -0.954011858 1.14759757e-06 0.299768776 -0.954011858 1.14759757e-06 0.299781799 -0.954007804 5.93632947e-08 0.299781799 -0.954007804 5.93632947e-08 0.299781799 -0.954007804 5.93632947e-08 0.299776882 -0.954009354 -1.32150012e-06 0.299776882 -0.954009354 -1.32150012e-06 0.299776882 -0.954009354 -1.32150012e-06 0.299785346 -0.954006672 1.47142953e-06 0.299785346 -0.954006672 1.47142953e-06 0.299785346 -0.954006672 1.47142953e-06 0.299780548 -0.954008162 -2.90083676e-07 0.299780548 -0.954008162 -2.90083676e-07 0.299780548 -0.954008162 -2.90083676e-07 0.299785435 -0.954006672 1.08187317e-06 0.299785435 -0.954006672 1.08187317e-06 0.299785435 -0.954006672 1.08187317e-06 0.299777001 -0.954009295 -1.70454769e-06 0.299777001 -0.954009295 -1.70454769e-06 0.299777001 -0.954009295 -1.70454769e-06 0.299781293 -0.954007983 -4.820577e-08 0.299781293 -0.954007983 -4.820577e-08 0.299781293 -0.954007983 -4.820577e-08 0.299780637 -0.954008162 -2.98439488e-07 0.299780637 -0.954008162 -2.98439488e-07 0.299780637 -0.954008162 -2.98439488e-07 0.299774408 -0.954010129 -2.99970725e-06 0.299774408 -0.954010129 -2.99970725e-06 0.299774408 -0.954010129 -2.99970725e-06 0.299770266 -0.95401144 5.38216113e-07 0.299770266 -0.95401144 5.38216113e-07 0.299770266 -0.95401144 5.38216113e-07 0.299782008 -0.954007745 -0 0.299782008 -0.954007745 -0 0.299782008 -0.954007745 -0 0.299782515 -0.954007566 0 0.299782515 -0.954007566 0 0.299782515 -0.954007566 0 0.299783856 -0.954007149 1.07587437e-06 0.299783856 -0.954007149 1.07587437e-06 0.299783856 -0.954007149 1.07587437e-06 0.299776256 -0.954009533 -2.62982007e-06 0.299776256 -0.954009533 -2.62982007e-06 0.299776256 -0.954009533 -2.62982007e-06 0.299780816 -0.954008102 -1.51619432e-07 0.299780816 -0.954008102 -1.51619432e-07 0.299780816 -0.954008102 -1.51619432e-07 0.299781501 -0.954007864 2.80933079e-07 0.299781501 -0.954007864 2.80933079e-07 0.299781501 -0.954007864 2.80933079e-07 0.299780369 -0.954008222 1.71564896e-08 0.299780369 -0.954008222 1.71564896e-08 0.299780369 -0.954008222 1.71564896e-08 0.299782991 -0.954007447 7.51820608e-07 0.299782991 -0.954007447 7.51820608e-07 0.299782991 -0.954007447 7.51820608e-07 0.299787909 -0.954005897 2.38281746e-06 0.299787909 -0.954005897 2.38281746e-06 0.299787909 -0.954005897 2.38281746e-06 0.299780577 -0.954008162 -4.15050579e-07 0.299780577 -0.954008162 -4.15050579e-07 0.299780577 -0.954008162 -4.15050579e-07 0.299774557 -0.954010069 -3.02872581e-06 0.299774557 -0.954010069 -3.02872581e-06 0.299774557 -0.954010069 -3.02872581e-06 0.299788326 -0.954005718 3.80228971e-06 0.299788326 -0.954005718 3.80228971e-06 0.299788326 -0.954005718 3.80228971e-06 0.299778372 -0.954008877 -1.63661389e-06 0.299778372 -0.954008877 -1.63661389e-06 0.299778372 -0.954008877 -1.63661389e-06 0.299780399 -0.954008222 -3.99216077e-07 0.299780399 -0.954008222 -3.99216077e-07 0.299780399 -0.954008222 -3.99216077e-07 0.299784452 -0.95400697 1.80692973e-06 0.299784452 -0.95400697 1.80692973e-06 0.299784452 -0.95400697 1.80692973e-06 0.29978177 -0.954007804 1.14727655e-07 0.29978177 -0.954007804 1.14727655e-07 0.29978177 -0.954007804 1.14727655e-07 0.299783856 -0.954007149 1.01424712e-06 0.299783856 -0.954007149 1.01424712e-06 0.299783856 -0.954007149 1.01424712e-06 0.299776286 -0.954009533 -2.68909298e-06 0.299776286 -0.954009533 -2.68909298e-06 0.299776286 -0.954009533 -2.68909298e-06 0.299788356 -0.954005718 3.89652632e-06 0.299788356 -0.954005718 3.89652632e-06 0.299788356 -0.954005718 3.89652632e-06 0.29977715 -0.954009235 -2.88598426e-06 0.29977715 -0.954009235 -2.88598426e-06 0.29977715 -0.954009235 -2.88598426e-06 0.299782217 -0.954007685 5.02587454e-07 0.299782217 -0.954007685 5.02587454e-07 0.299782217 -0.954007685 5.02587454e-07 0.299804777 -0.954000592 -1.14717668e-05 0.299804777 -0.954000592 -1.14717668e-05 0.299804777 -0.954000592 -1.14717668e-05 0.299752325 -0.954017043 1.41630771e-05 0.299752325 -0.954017043 1.41630771e-05 0.299752325 -0.954017043 1.41630771e-05 0.299811333 -0.953998506 -1.14618961e-05 0.299811333 -0.953998506 -1.14618961e-05 0.299811333 -0.953998506 -1.14618961e-05 0.299841255 -0.953989089 -2.68627155e-05 0.299841255 -0.953989089 -2.68627155e-05 0.299841255 -0.953989089 -2.68627155e-05 0.299843222 -0.953988492 -2.78266925e-05 0.299843222 -0.953988492 -2.78266925e-05 0.299843222 -0.953988492 -2.78266925e-05 0.299756944 -0.954015613 9.29180442e-06 0.299756944 -0.954015613 9.29180442e-06 0.299756944 -0.954015613 9.29180442e-06 0.299816728 -0.953996837 -1.35172086e-05 0.299816728 -0.953996837 -1.35172086e-05 0.299816728 -0.953996837 -1.35172086e-05 0.299824297 -0.953994453 -1.60167765e-05 0.299824297 -0.953994453 -1.60167765e-05 0.299824297 -0.953994453 -1.60167765e-05 0.299758077 -0.954015255 9.25004861e-06 0.299758077 -0.954015255 9.25004861e-06 0.299758077 -0.954015255 9.25004861e-06 0.299761891 -0.954014063 7.40502355e-06 0.299761891 -0.954014063 7.40502355e-06 0.299761891 -0.954014063 7.40502355e-06 0.299789906 -0.954005241 -1.85254567e-06 0.299789906 -0.954005241 -1.85254567e-06 0.299789906 -0.954005241 -1.85254567e-06 0.299770683 -0.954011261 3.54423287e-06 0.299770683 -0.954011261 3.54423287e-06 0.299770683 -0.954011261 3.54423287e-06 0.299775541 -0.954009771 -3.19056738e-07 0.299775541 -0.954009771 -3.19056738e-07 0.299775541 -0.954009771 -3.19056738e-07 0.299790293 -0.954005122 1.03335412e-06 0.299790293 -0.954005122 1.03335412e-06 0.299790293 -0.954005122 1.03335412e-06 0.299775153 -0.954009891 -1.05648417e-06 0.299775153 -0.954009891 -1.05648417e-06 0.299775153 -0.954009891 -1.05648417e-06 0.299768806 -0.954011858 -1.52309622e-06 0.299768806 -0.954011858 -1.52309622e-06 0.299768806 -0.954011858 -1.52309622e-06 0.299778789 -0.954008758 -6.06068511e-07 0.299778789 -0.954008758 -6.06068511e-07 0.299778789 -0.954008758 -6.06068511e-07 0.299786627 -0.954006255 4.75212943e-07 0.299786627 -0.954006255 4.75212943e-07 0.299786627 -0.954006255 4.75212943e-07 0.299782574 -0.954007566 -7.54943699e-07 0.299782574 -0.954007566 -7.54943699e-07 0.299782574 -0.954007566 -7.54943699e-07 0.299770385 -0.954011381 1.50058281e-06 0.299770385 -0.954011381 1.50058281e-06 0.299770385 -0.954011381 1.50058281e-06 0.299791366 -0.954004765 -1.39813665e-06 0.299791366 -0.954004765 -1.39813665e-06 0.299791366 -0.954004765 -1.39813665e-06 0.299771726 -0.954010963 -2.27990017e-06 0.299771726 -0.954010963 -2.27990017e-06 0.299771726 -0.954010963 -2.27990017e-06 0.299778342 -0.954008877 -7.41714302e-07 0.299778342 -0.954008877 -7.41714302e-07 0.299778342 -0.954008877 -7.41714302e-07 0.299788922 -0.954005539 2.23085067e-06 0.299788922 -0.954005539 2.23085067e-06 0.299788922 -0.954005539 2.23085067e-06 0.299743384 -0.954019845 -1.47658893e-05 0.299743384 -0.954019845 -1.47658893e-05 0.299743384 -0.954019845 -1.47658893e-05 0.299813539 -0.95399785 1.19967772e-05 0.299813539 -0.95399785 1.19967772e-05 0.299813539 -0.95399785 1.19967772e-05 0.299773246 -0.954010487 -2.94806205e-06 0.299773246 -0.954010487 -2.94806205e-06 0.299773246 -0.954010487 -2.94806205e-06 0.299785525 -0.954006612 1.73299873e-06 0.299785525 -0.954006612 1.73299873e-06 0.299785525 -0.954006612 1.73299873e-06 0.299817234 -0.953996658 1.550661e-05 0.299817234 -0.953996658 1.550661e-05 0.299817234 -0.953996658 1.550661e-05 0.299772501 -0.954010725 -1.56888791e-06 0.299772501 -0.954010725 -1.56888791e-06 0.299772501 -0.954010725 -1.56888791e-06 0.953099966 0.299495846 0.0436204895 0.953099966 0.299495846 0.0436204895 0.953099966 0.299495846 0.0436204895 0.953099906 0.299495548 0.0436232686 0.953099906 0.299495548 0.0436232686 0.953099906 0.299495548 0.0436232686 0.945846379 0.297216237 0.130526394 0.945846379 0.297216237 0.130526394 0.945846379 0.297216237 0.130526394 0.945846379 0.297216237 0.130526394 0.945846379 0.297216237 0.130526394 0.945846379 0.297216237 0.130526394 0.93139416 0.292674869 0.216440186 0.93139416 0.292674869 0.216440186 0.93139416 0.292674869 0.216440186 0.931394637 0.292675316 0.216437533 0.931394637 0.292675316 0.216437533 0.931394637 0.292675316 0.216437533 0.909853518 0.285906374 0.300706059 0.909853518 0.285906374 0.300706059 0.909853518 0.285906374 0.300706059 0.909853518 0.285906374 0.300706059 0.909853518 0.285906374 0.300706059 0.909853518 0.285906374 0.300706059 0.881388009 0.276961565 0.382684588 0.881388009 0.276961565 0.382684588 0.881388009 0.276961565 0.382684588 0.881388009 0.276961565 0.382684588 0.881388009 0.276961565 0.382684588 0.881388009 0.276961565 0.382684588 0.846215844 0.265909284 0.461747706 0.846215844 0.265909284 0.461747706 0.846215844 0.265909284 0.461747706 0.846215844 0.265909284 0.461747706 0.846215844 0.265909284 0.461747706 0.846215844 0.265909284 0.461747706 0.804603398 0.252833277 0.537297606 0.804603398 0.252833277 0.537297606 0.804603398 0.252833277 0.537297606 0.804602265 0.252832651 0.537299573 0.804602265 0.252832651 0.537299573 0.804602265 0.252832651 0.537299573 0.756866395 0.237832472 0.608760238 0.756866395 0.237832472 0.608760238 0.756866395 0.237832472 0.608760238 0.756867588 0.237833083 0.60875845 0.756867588 0.237833083 0.60875845 0.756867588 0.237833083 0.60875845 0.703365445 0.221020922 0.675593674 0.703365445 0.221020922 0.675593674 0.703365445 0.221020922 0.675593674 0.703365445 0.221020922 0.675593674 0.703365445 0.221020922 0.675593674 0.703365445 0.221020922 0.675593674 0.644522488 0.202530488 0.737273455 0.644522488 0.202530488 0.737273455 0.644522488 0.202530488 0.737273455 0.644522488 0.202530488 0.737273455 0.644522488 0.202530488 0.737273455 0.644522488 0.202530488 0.737273455 0.580759168 0.182493925 0.793356657 0.580759168 0.182493925 0.793356657 0.580759168 0.182493925 0.793356657 0.580759168 0.182493925 0.793356657 0.580759168 0.182493925 0.793356657 0.580759168 0.182493925 0.793356657 0.5125916 0.161073416 0.843389094 0.5125916 0.161073416 0.843389094 0.5125916 0.161073416 0.843389094 0.5125916 0.161073416 0.843389094 0.5125916 0.161073416 0.843389094 0.5125916 0.161073416 0.843389094 0.440507114 0.138422042 0.887013435 0.440507114 0.138422042 0.887013435 0.440507114 0.138422042 0.887013435 0.440506071 0.13842158 0.887014031 0.440506071 0.13842158 0.887014031 0.440506071 0.13842158 0.887014031 0.365085602 0.114721976 0.923878431 0.365085602 0.114721976 0.923878431 0.365085602 0.114721976 0.923878431 0.365085602 0.114721976 0.923878431 0.365085602 0.114721976 0.923878431 0.365085602 0.114721976 0.923878431 0.28687647 0.0901460797 0.953716695 0.28687647 0.0901460797 0.953716695 0.28687647 0.0901460797 0.953716695 0.286877215 0.0901464 0.953716457 0.286877215 0.0901464 0.953716457 0.286877215 0.0901464 0.953716457 0.206481636 0.0648834258 0.976296842 0.206481636 0.0648834258 0.976296842 0.206481636 0.0648834258 0.976296842 0.206481636 0.0648834258 0.976296842 0.206481636 0.0648834258 0.976296842 0.206481636 0.0648834258 0.976296842 0.124525793 0.0391301624 0.991444468 0.124525793 0.0391301624 0.991444468 0.124525793 0.0391301624 0.991444468 0.124525793 0.0391301624 0.991444468 0.124525793 0.0391301624 0.991444468 0.124525793 0.0391301624 0.991444468 0.0416150875 0.0130768502 0.999048114 0.0416150875 0.0130768502 0.999048114 0.0416150875 0.0130768502 0.999048114 0.0416149758 0.0130768027 0.999048114 0.0416149758 0.0130768027 0.999048114 0.0416149758 0.0130768027 0.999048114 -0.0416149758 -0.0130768027 0.999048114 -0.0416149758 -0.0130768027 0.999048114 -0.0416149758 -0.0130768027 0.999048114 -0.0416150875 -0.0130768502 0.999048114 -0.0416150875 -0.0130768502 0.999048114 -0.0416150875 -0.0130768502 0.999048114 -0.124526337 -0.0391303338 0.991444409 -0.124526337 -0.0391303338 0.991444409 -0.124526337 -0.0391303338 0.991444409 -0.124526337 -0.0391303338 0.991444409 -0.124526337 -0.0391303338 0.991444409 -0.124526337 -0.0391303338 0.991444409 -0.206482202 -0.0648836046 0.976296663 -0.206482202 -0.0648836046 0.976296663 -0.206482202 -0.0648836046 0.976296663 -0.20648165 -0.0648833662 0.976296842 -0.20648165 -0.0648833662 0.976296842 -0.20648165 -0.0648833662 0.976296842 -0.28687647 -0.0901460797 0.953716695 -0.28687647 -0.0901460797 0.953716695 -0.28687647 -0.0901460797 0.953716695 -0.286877215 -0.0901464 0.953716457 -0.286877215 -0.0901464 0.953716457 -0.286877215 -0.0901464 0.953716457 -0.365085572 -0.114722081 0.923878431 -0.365085572 -0.114722081 0.923878431 -0.365085572 -0.114722081 0.923878431 -0.365084648 -0.114721686 0.923878849 -0.365084648 -0.114721686 0.923878849 -0.365084648 -0.114721686 0.923878849 -0.440504342 -0.138421044 0.887014985 -0.440504342 -0.138421044 0.887014985 -0.440504342 -0.138421044 0.887014985 -0.440505385 -0.138421506 0.887014389 -0.440505385 -0.138421506 0.887014389 -0.440505385 -0.138421506 0.887014389 -0.512594759 -0.161074385 0.843387008 -0.512594759 -0.161074385 0.843387008 -0.512594759 -0.161074385 0.843387008 -0.51259172 -0.161073044 0.843389094 -0.51259172 -0.161073044 0.843389094 -0.51259172 -0.161073044 0.843389094 -0.5807603 -0.182493821 0.793355823 -0.5807603 -0.182493821 0.793355823 -0.5807603 -0.182493821 0.793355823 -0.580761254 -0.182494268 0.793354988 -0.580761254 -0.182494268 0.793354988 -0.580761254 -0.182494268 0.793354988 -0.644521534 -0.202529848 0.737274468 -0.644521534 -0.202529848 0.737274468 -0.644521534 -0.202529848 0.737274468 -0.644523799 -0.202530906 0.737272203 -0.644523799 -0.202530906 0.737272203 -0.644523799 -0.202530906 0.737272203 -0.703366518 -0.22102125 0.675592482 -0.703366518 -0.22102125 0.675592482 -0.703366518 -0.22102125 0.675592482 -0.703364253 -0.221020147 0.675595164 -0.703364253 -0.221020147 0.675595164 -0.703364253 -0.221020147 0.675595164 -0.756864369 -0.237831652 0.60876298 -0.756864369 -0.237831652 0.60876298 -0.756864369 -0.237831652 0.60876298 -0.756865621 -0.237832263 0.608761251 -0.756865621 -0.237832263 0.608761251 -0.756865621 -0.237832263 0.608761251 -0.804603457 -0.252833098 0.537297606 -0.804603457 -0.252833098 0.537297606 -0.804603457 -0.252833098 0.537297606 -0.804604113 -0.252833456 0.537296414 -0.804604113 -0.252833456 0.537296414 -0.804604113 -0.252833456 0.537296414 -0.846214771 -0.265908897 0.461749911 -0.846214771 -0.265908897 0.461749911 -0.846214771 -0.265908897 0.461749911 -0.846213996 -0.26590845 0.46175164 -0.846213996 -0.26590845 0.46175164 -0.846213996 -0.26590845 0.46175164 -0.881388843 -0.276961535 0.382682711 -0.881388843 -0.276961535 0.382682711 -0.881388843 -0.276961535 0.382682711 -0.881388843 -0.276961535 0.382682711 -0.881388843 -0.276961535 0.382682711 -0.881388843 -0.276961535 0.382682711 -0.909853578 -0.285906106 0.300706059 -0.909853578 -0.285906106 0.300706059 -0.909853578 -0.285906106 0.300706059 -0.909854293 -0.285906613 0.300703555 -0.909854293 -0.285906613 0.300703555 -0.909854293 -0.285906613 0.300703555 -0.93139416 -0.292675167 0.216439635 -0.93139416 -0.292675167 0.216439635 -0.93139416 -0.292675167 0.216439635 -0.931393683 -0.29267472 0.216442287 -0.931393683 -0.29267472 0.216442287 -0.931393683 -0.29267472 0.216442287 -0.945846379 -0.297216237 0.130526394 -0.945846379 -0.297216237 0.130526394 -0.945846379 -0.297216237 0.130526394 -0.945846617 -0.297216594 0.130523667 -0.945846617 -0.297216594 0.130523667 -0.945846617 -0.297216594 0.130523667 -0.953100026 -0.299495846 0.0436188467 -0.953100026 -0.299495846 0.0436188467 -0.953100026 -0.299495846 0.0436188467 -0.953099966 -0.299495548 0.0436216258 -0.953099966 -0.299495548 0.0436216258 -0.953099966 -0.299495548 0.0436216258 -0.29978174 0.954007804 -3.66000677e-07 -0.29978174 0.954007804 -3.66000677e-07 -0.29978174 0.954007804 -3.66000677e-07 -0.29978171 0.954007804 -2.10466192e-06 -0.29978171 0.954007804 -2.10466192e-06 -0.29978171 0.954007804 -2.10466192e-06 -0.299781084 0.954008043 8.43644557e-07 -0.299781084 0.954008043 8.43644557e-07 -0.299781084 0.954008043 8.43644557e-07 -0.299781114 0.954007983 -1.78197908e-07 -0.299781114 0.954007983 -1.78197908e-07 -0.299781114 0.954007983 -1.78197908e-07 -0.299780816 0.954008102 5.2569311e-07 -0.299780816 0.954008102 5.2569311e-07 -0.299780816 0.954008102 5.2569311e-07 -0.299776614 0.954009414 5.65497976e-06 -0.299776614 0.954009414 5.65497976e-06 -0.299776614 0.954009414 5.65497976e-06 -0.299782723 0.954007506 -1.34789161e-06 -0.299782723 0.954007506 -1.34789161e-06 -0.299782723 0.954007506 -1.34789161e-06 -0.29978168 0.954007804 -4.47455022e-06 -0.29978168 0.954007804 -4.47455022e-06 -0.29978168 0.954007804 -4.47455022e-06 -0.299781322 0.954007924 -2.23151369e-06 -0.299781322 0.954007924 -2.23151369e-06 -0.299781322 0.954007924 -2.23151369e-06 -0.299780548 0.954008162 1.37005259e-06 -0.299780548 0.954008162 1.37005259e-06 -0.299780548 0.954008162 1.37005259e-06 -0.299785793 0.954006553 -9.36666947e-06 -0.299785793 0.954006553 -9.36666947e-06 -0.299785793 0.954006553 -9.36666947e-06 -0.299780995 0.954008043 1.10731798e-06 -0.299780995 0.954008043 1.10731798e-06 -0.299780995 0.954008043 1.10731798e-06 -0.299780995 0.954008043 1.10732822e-06 -0.299780995 0.954008043 1.10732822e-06 -0.299780995 0.954008043 1.10732822e-06 -0.299780488 0.954008222 5.03179854e-06 -0.299780488 0.954008222 5.03179854e-06 -0.299780488 0.954008222 5.03179854e-06 -0.299782813 0.954007506 -5.92508832e-06 -0.299782813 0.954007506 -5.92508832e-06 -0.299782813 0.954007506 -5.92508832e-06 -0.299780577 0.954008162 1.51289555e-06 -0.299780577 0.954008162 1.51289555e-06 -0.299780577 0.954008162 1.51289555e-06 -0.299781382 0.954007924 -8.12621977e-07 -0.299781382 0.954007924 -8.12621977e-07 -0.299781382 0.954007924 -8.12621977e-07 -0.299781114 0.954007983 -9.29042514e-08 -0.299781114 0.954007983 -9.29042514e-08 -0.299781114 0.954007983 -9.29042514e-08 -0.299777746 0.954009056 6.03316767e-06 -0.299777746 0.954009056 6.03316767e-06 -0.299777746 0.954009056 6.03316767e-06 -0.299783528 0.954007268 -3.46088632e-06 -0.299783528 0.954007268 -3.46088632e-06 -0.299783528 0.954007268 -3.46088632e-06 -0.299780905 0.954008102 4.31727216e-07 -0.299780905 0.954008102 4.31727216e-07 -0.299780905 0.954008102 4.31727216e-07 -0.299783438 0.954007268 -3.00093006e-06 -0.299783438 0.954007268 -3.00093006e-06 -0.299783438 0.954007268 -3.00093006e-06 -0.299776584 0.954009414 5.54142616e-06 -0.299776584 0.954009414 5.54142616e-06 -0.299776584 0.954009414 5.54142616e-06 -0.299785256 0.954006732 -5.62737887e-06 -0.299785256 0.954006732 -5.62737887e-06 -0.299785256 0.954006732 -5.62737887e-06 -0.299786478 0.954006314 -7.15111673e-06 -0.299786478 0.954006314 -7.15111673e-06 -0.299786478 0.954006314 -7.15111673e-06 -0.299758494 0.954015136 2.09637255e-05 -0.299758494 0.954015136 2.09637255e-05 -0.299758494 0.954015136 2.09637255e-05 -0.299780309 0.954008281 1.12373812e-06 -0.299780309 0.954008281 1.12373812e-06 -0.299780309 0.954008281 1.12373812e-06 -0.299782574 0.954007566 -2.24584801e-06 -0.299782574 0.954007566 -2.24584801e-06 -0.299782574 0.954007566 -2.24584801e-06 -0.29977864 0.954008758 3.11315512e-06 -0.29977864 0.954008758 3.11315512e-06 -0.29977864 0.954008758 3.11315512e-06 -0.299785227 0.954006732 -4.01549732e-06 -0.299785227 0.954006732 -4.01549732e-06 -0.299785227 0.954006732 -4.01549732e-06 -0.299776763 0.954009354 4.11123028e-06 -0.299776763 0.954009354 4.11123028e-06 -0.299776763 0.954009354 4.11123028e-06 -0.299774647 0.954010069 5.98034649e-06 -0.299774647 0.954010069 5.98034649e-06 -0.299774647 0.954010069 5.98034649e-06 -0.29978773 0.954005957 -6.57877263e-06 -0.29978773 0.954005957 -6.57877263e-06 -0.29978773 0.954005957 -6.57877263e-06 -0.29978022 0.954008281 2.6514831e-06 -0.29978022 0.954008281 2.6514831e-06 -0.29978022 0.954008281 2.6514831e-06 -0.299780577 0.954008162 1.51290908e-06 -0.299780577 0.954008162 1.51290908e-06 -0.299780577 0.954008162 1.51290908e-06 -0.299781859 0.954007804 -2.18361379e-06 -0.299781859 0.954007804 -2.18361379e-06 -0.299781859 0.954007804 -2.18361379e-06 -0.299780816 0.954008102 4.60063234e-07 -0.299780816 0.954008102 4.60063234e-07 -0.299780816 0.954008102 4.60063234e-07 -0.299781084 0.954008043 -1.82568471e-07 -0.299781084 0.954008043 -1.82568471e-07 -0.299781084 0.954008043 -1.82568471e-07 -0.299780726 0.954008102 5.3049564e-07 -0.299780726 0.954008102 5.3049564e-07 -0.299780726 0.954008102 5.3049564e-07 -0.29978174 0.954007804 -1.2867547e-06 -0.29978174 0.954007804 -1.2867547e-06 -0.29978174 0.954007804 -1.2867547e-06 -0.299778879 0.954008698 3.39771259e-06 -0.299778879 0.954008698 3.39771259e-06 -0.299778879 0.954008698 3.39771259e-06 -0.299780905 0.954008102 3.93341196e-07 -0.299780905 0.954008102 3.93341196e-07 -0.299780905 0.954008102 3.93341196e-07 -0.299783409 0.954007268 -3.04284913e-06 -0.299783409 0.954007268 -3.04284913e-06 -0.299783409 0.954007268 -3.04284913e-06 -0.299783409 0.954007268 -3.0554977e-06 -0.299783409 0.954007268 -3.0554977e-06 -0.299783409 0.954007268 -3.0554977e-06 -0.299780488 0.954008222 2.93493486e-07 -0.299780488 0.954008222 2.93493486e-07 -0.299780488 0.954008222 2.93493486e-07 -0.299782157 0.954007685 -2.74253489e-06 -0.299782157 0.954007685 -2.74253489e-06 -0.299782157 0.954007685 -2.74253489e-06 -0.29977271 0.954010665 1.27686426e-05 -0.29977271 0.954010665 1.27686426e-05 -0.29977271 0.954010665 1.27686426e-05 -0.299786866 0.954006195 -8.39841778e-06 -0.299786866 0.954006195 -8.39841778e-06 -0.299786866 0.954006195 -8.39841778e-06 -0.299780786 0.954008102 -1.05953994e-07 -0.299780786 0.954008102 -1.05953994e-07 -0.299780786 0.954008102 -1.05953994e-07 -0.299792647 0.954004407 -1.49154193e-05 -0.299792647 0.954004407 -1.49154193e-05 -0.299792647 0.954004407 -1.49154193e-05 -0.299761474 0.954014182 2.07352678e-05 -0.299761474 0.954014182 2.07352678e-05 -0.299761474 0.954014182 2.07352678e-05 -0.299780965 0.954008043 3.16557987e-07 -0.299780965 0.954008043 3.16557987e-07 -0.299780965 0.954008043 3.16557987e-07 -0.299775481 0.954009771 5.58676265e-06 -0.299775481 0.954009771 5.58676265e-06 -0.299775481 0.954009771 5.58676265e-06 -0.299775779 0.954009712 5.32006015e-06 -0.299775779 0.954009712 5.32006015e-06 -0.299775779 0.954009712 5.32006015e-06 -0.299777269 0.954009235 7.79392303e-06 -0.299777269 0.954009235 7.79392303e-06 -0.299777269 0.954009235 7.79392303e-06 -0.29978177 0.954007804 -2.31304648e-06 -0.29978177 0.954007804 -2.31304648e-06 -0.29978177 0.954007804 -2.31304648e-06 -0.299775779 0.954009712 9.76521005e-06 -0.299775779 0.954009712 9.76521005e-06 -0.299775779 0.954009712 9.76521005e-06 -0.29978177 0.954007804 -1.14955765e-06 -0.29978177 0.954007804 -1.14955765e-06 -0.29978177 0.954007804 -1.14955765e-06 -0.299779326 0.954008579 2.88912952e-06 -0.299779326 0.954008579 2.88912952e-06 -0.299779326 0.954008579 2.88912952e-06 -0.299785376 0.954006672 -6.16462466e-06 -0.299785376 0.954006672 -6.16462466e-06 -0.299785376 0.954006672 -6.16462466e-06 -0.29978174 0.954007804 -1.21167091e-06 -0.29978174 0.954007804 -1.21167091e-06 -0.29978174 0.954007804 -1.21167091e-06 -0.299777448 0.954009175 4.14854003e-06 -0.299777448 0.954009175 4.14854003e-06 -0.299777448 0.954009175 4.14854003e-06 -0.299784422 0.95400697 -3.82936469e-06 -0.299784422 0.95400697 -3.82936469e-06 -0.299784422 0.95400697 -3.82936469e-06 -0.299781173 0.954007983 -1.07357755e-06 -0.299781173 0.954007983 -1.07357755e-06 -0.299781173 0.954007983 -1.07357755e-06 -0.299774021 0.954010248 6.42545456e-06 -0.299774021 0.954010248 6.42545456e-06 -0.299774021 0.954010248 6.42545456e-06 -0.299785078 0.954006791 -4.19499202e-06 -0.299785078 0.954006791 -4.19499202e-06 -0.299785078 0.954006791 -4.19499202e-06 -0.299780428 0.954008222 -1.19840237e-07 -0.299780428 0.954008222 -1.19840237e-07 -0.299780428 0.954008222 -1.19840237e-07 -0.299783528 0.954007268 -2.61001242e-06 -0.299783528 0.954007268 -2.61001242e-06 -0.299783528 0.954007268 -2.61001242e-06 -0.299793333 0.954004169 -9.80842287e-06 -0.299793333 0.954004169 -9.80842287e-06 -0.299793333 0.954004169 -9.80842287e-06 -0.299795061 0.954003632 -1.11892741e-05 -0.299795061 0.954003632 -1.11892741e-05 -0.299795061 0.954003632 -1.11892741e-05 -0.953100085 -0.299495608 -0.0436188467 -0.953100085 -0.299495608 -0.0436188467 -0.953100085 -0.299495608 -0.0436188467 -0.953099906 -0.299495816 -0.0436216258 -0.953099906 -0.299495816 -0.0436216258 -0.953099906 -0.299495816 -0.0436216258 -0.945846438 -0.297216535 -0.130525202 -0.945846438 -0.297216535 -0.130525202 -0.945846438 -0.297216535 -0.130525202 -0.945846856 -0.297216386 -0.13052246 -0.945846856 -0.297216386 -0.13052246 -0.945846856 -0.297216386 -0.13052246 -0.931394279 -0.292674899 -0.216439635 -0.931394279 -0.292674899 -0.216439635 -0.931394279 -0.292674899 -0.216439635 -0.931393623 -0.292674989 -0.216442287 -0.931393623 -0.292674989 -0.216442287 -0.931393623 -0.292674989 -0.216442287 -0.909853518 -0.285906374 -0.300706059 -0.909853518 -0.285906374 -0.300706059 -0.909853518 -0.285906374 -0.300706059 -0.909854352 -0.285906345 -0.300703555 -0.909854352 -0.285906345 -0.300703555 -0.909854352 -0.285906345 -0.300703555 -0.881388843 -0.276961535 -0.382682711 -0.881388843 -0.276961535 -0.382682711 -0.881388843 -0.276961535 -0.382682711 -0.881388843 -0.276961535 -0.382682711 -0.881388843 -0.276961535 -0.382682711 -0.881388843 -0.276961535 -0.382682711 -0.846214831 -0.265908718 -0.461749911 -0.846214831 -0.265908718 -0.461749911 -0.846214831 -0.265908718 -0.461749911 -0.846213937 -0.265908629 -0.46175164 -0.846213937 -0.265908629 -0.46175164 -0.846213937 -0.265908629 -0.46175164 -0.804600835 -0.252832413 -0.537301779 -0.804600835 -0.252832413 -0.537301779 -0.804600835 -0.252832413 -0.537301779 -0.80460161 -0.252832502 -0.537300646 -0.80460161 -0.252832502 -0.537300646 -0.80460161 -0.252832502 -0.537300646 -0.756864309 -0.237831861 -0.60876298 -0.756864309 -0.237831861 -0.60876298 -0.756864309 -0.237831861 -0.60876298 -0.75686568 -0.237832054 -0.608761251 -0.75686568 -0.237832054 -0.608761251 -0.75686568 -0.237832054 -0.608761251 -0.703370631 -0.221022159 -0.675587833 -0.703370631 -0.221022159 -0.675587833 -0.703370631 -0.221022159 -0.675587833 -0.703368187 -0.221021771 -0.675590575 -0.703368187 -0.221021771 -0.675590575 -0.703368187 -0.221021771 -0.675590575 -0.644516647 -0.202528656 -0.737279117 -0.644516647 -0.202528656 -0.737279117 -0.644516647 -0.202528656 -0.737279117 -0.644519091 -0.202529073 -0.737276793 -0.644519091 -0.202529073 -0.737276793 -0.644519091 -0.202529073 -0.737276793 -0.580765843 -0.182495698 -0.793351352 -0.580765843 -0.182495698 -0.793351352 -0.580765843 -0.182495698 -0.793351352 -0.580766916 -0.182495892 -0.793350518 -0.580766916 -0.182495892 -0.793350518 -0.580766916 -0.182495892 -0.793350518 -0.512588561 -0.161072046 -0.84339124 -0.512588561 -0.161072046 -0.84339124 -0.512588561 -0.161072046 -0.84339124 -0.512585342 -0.161071435 -0.843393326 -0.512585342 -0.161071435 -0.843393326 -0.512585342 -0.161071435 -0.843393326 -0.440511256 -0.138423353 -0.88701117 -0.440511256 -0.138423353 -0.88701117 -0.440511256 -0.138423353 -0.88701117 -0.440512389 -0.138423577 -0.887010574 -0.440512389 -0.138423577 -0.887010574 -0.440512389 -0.138423577 -0.887010574 -0.365085602 -0.114721976 -0.923878431 -0.365085602 -0.114721976 -0.923878431 -0.365085602 -0.114721976 -0.923878431 -0.365084618 -0.114721783 -0.923878849 -0.365084618 -0.114721783 -0.923878849 -0.365084618 -0.114721783 -0.923878849 -0.286868393 -0.0901436284 -0.953719378 -0.286868393 -0.0901436284 -0.953719378 -0.286868393 -0.0901436284 -0.953719378 -0.286869168 -0.0901437923 -0.953719139 -0.286869168 -0.0901437923 -0.953719139 -0.286869168 -0.0901437923 -0.953719139 -0.206490651 -0.0648861974 -0.976294696 -0.206490651 -0.0648861974 -0.976294696 -0.206490651 -0.0648861974 -0.976294696 -0.206490085 -0.0648860782 -0.976294875 -0.206490085 -0.0648860782 -0.976294875 -0.206490085 -0.0648860782 -0.976294875 -0.124526337 -0.0391303338 -0.991444409 -0.124526337 -0.0391303338 -0.991444409 -0.124526337 -0.0391303338 -0.991444409 -0.124526337 -0.0391303338 -0.991444409 -0.124526337 -0.0391303338 -0.991444409 -0.124526337 -0.0391303338 -0.991444409 -0.0416061319 -0.0130740367 -0.999048531 -0.0416061319 -0.0130740367 -0.999048531 -0.0416061319 -0.0130740367 -0.999048531 -0.0416062512 -0.0130740609 -0.999048531 -0.0416062512 -0.0130740609 -0.999048531 -0.0416062512 -0.0130740609 -0.999048531 0.0416062512 0.0130740609 -0.999048531 0.0416062512 0.0130740609 -0.999048531 0.0416062512 0.0130740609 -0.999048531 0.0416061319 0.0130740367 -0.999048531 0.0416061319 0.0130740367 -0.999048531 0.0416061319 0.0130740367 -0.999048531 0.124525793 0.0391301624 -0.991444468 0.124525793 0.0391301624 -0.991444468 0.124525793 0.0391301624 -0.991444468 0.124525793 0.0391301624 -0.991444468 0.124525793 0.0391301624 -0.991444468 0.124525793 0.0391301624 -0.991444468 0.206490085 0.0648860782 -0.976294875 0.206490085 0.0648860782 -0.976294875 0.206490085 0.0648860782 -0.976294875 0.206490085 0.0648860782 -0.976294875 0.206490085 0.0648860782 -0.976294875 0.206490085 0.0648860782 -0.976294875 0.286868393 0.0901436284 -0.953719378 0.286868393 0.0901436284 -0.953719378 0.286868393 0.0901436284 -0.953719378 0.286869168 0.0901437923 -0.953719139 0.286869168 0.0901437923 -0.953719139 0.286869168 0.0901437923 -0.953719139 0.365085602 0.114721976 -0.923878431 0.365085602 0.114721976 -0.923878431 0.365085602 0.114721976 -0.923878431 0.365085602 0.114721976 -0.923878431 0.365085602 0.114721976 -0.923878431 0.365085602 0.114721976 -0.923878431 0.440514117 0.138424113 -0.887009621 0.440514117 0.138424113 -0.887009621 0.440514117 0.138424113 -0.887009621 0.440512985 0.13842389 -0.887010217 0.440512985 0.13842389 -0.887010217 0.440512985 0.13842389 -0.887010217 0.512585342 0.161071435 -0.843393326 0.512585342 0.161071435 -0.843393326 0.512585342 0.161071435 -0.843393326 0.512585342 0.161071435 -0.843393326 0.512585342 0.161071435 -0.843393326 0.512585342 0.161071435 -0.843393326 0.580764711 0.182495669 -0.793352187 0.580764711 0.182495669 -0.793352187 0.580764711 0.182495669 -0.793352187 0.580764711 0.182495669 -0.793352187 0.580764711 0.182495669 -0.793352187 0.580764711 0.182495669 -0.793352187 0.64451766 0.202528983 -0.737278104 0.64451766 0.202528983 -0.737278104 0.64451766 0.202528983 -0.737278104 0.64451766 0.202528983 -0.737278104 0.64451766 0.202528983 -0.737278104 0.64451766 0.202528983 -0.737278104 0.703369498 0.221022189 -0.675589025 0.703369498 0.221022189 -0.675589025 0.703369498 0.221022189 -0.675589025 0.703369498 0.221022189 -0.675589025 0.703369498 0.221022189 -0.675589025 0.703369498 0.221022189 -0.675589025 0.756866336 0.23783268 -0.608760238 0.756866336 0.23783268 -0.608760238 0.756866336 0.23783268 -0.608760238 0.756867647 0.237832874 -0.60875845 0.756867647 0.237832874 -0.60875845 0.756867647 0.237832874 -0.60875845 0.804600894 0.252832234 -0.537301779 0.804600894 0.252832234 -0.537301779 0.804600894 0.252832234 -0.537301779 0.804599643 0.252832085 -0.537303805 0.804599643 0.252832085 -0.537303805 0.804599643 0.252832085 -0.537303805 0.846215844 0.265909284 -0.461747706 0.846215844 0.265909284 -0.461747706 0.846215844 0.265909284 -0.461747706 0.846215844 0.265909284 -0.461747706 0.846215844 0.265909284 -0.461747706 0.846215844 0.265909284 -0.461747706 0.881388009 0.276961565 -0.382684588 0.881388009 0.276961565 -0.382684588 0.881388009 0.276961565 -0.382684588 0.881388009 0.276961565 -0.382684588 0.881388009 0.276961565 -0.382684588 0.881388009 0.276961565 -0.382684588 0.909853518 0.285906374 -0.300706059 0.909853518 0.285906374 -0.300706059 0.909853518 0.285906374 -0.300706059 0.909853518 0.285906374 -0.300706059 0.909853518 0.285906374 -0.300706059 0.909853518 0.285906374 -0.300706059 0.9313941 0.292675138 -0.216440186 0.9313941 0.292675138 -0.216440186 0.9313941 0.292675138 -0.216440186 0.931394696 0.292675048 -0.216437533 0.931394696 0.292675048 -0.216437533 0.931394696 0.292675048 -0.216437533 0.945846558 0.297216296 -0.130525202 0.945846558 0.297216296 -0.130525202 0.945846558 0.297216296 -0.130525202 0.945846558 0.297216296 -0.130525202 0.945846558 0.297216296 -0.130525202 0.945846558 0.297216296 -0.130525202 0.953100026 0.299495578 -0.0436204895 0.953100026 0.299495578 -0.0436204895 0.953100026 0.299495578 -0.0436204895 0.953099847 0.299495786 -0.0436232686 0.953099847 0.299495786 -0.0436232686 0.953099847 0.299495786 -0.0436232686 </float_array>
          <technique_common>
            <accessor count="852" offset="0" source="#mesh_0-normals-array" stride="3">
              <param name="X" type="float" />
              <param name="Y" type="float" />
              <param name="Z" type="float" />
            </accessor>
          </technique_common>
        </source>
        <vertices id="mesh_0-vertices">
          <input semantic="POSITION" source="#mesh_0-positions" />
        </vertices>
        <polylist count="284" material="defaultMaterial">
          <input offset="0" semantic="VERTEX" source="#mesh_0-vertices" />
          <input offset="0" semantic="NORMAL" source="#mesh_0-normals" />
          <vcount>3 3 3 3 3 3 3 3 3 3 3 3 3 3 3 3 3 3 3 3 3 3 3 3 3 3 3 3 3 3 3 3 3 3 3 3 3 3 3 3 3 3 3 3 3 3 3 3 3 3 3 3 3 3 3 3 3 3 3 3 3 3 3 3 3 3 3 3 3 3 3 3 3 3 3 3 3 3 3 3 3 3 3 3 3 3 3 3 3 3 3 3 3 3 3 3 3 3 3 3 3 3 3 3 3 3 3 3 3 3 3 3 3 3 3 3 3 3 3 3 3 3 3 3 3 3 3 3 3 3 3 3 3 3 3 3 3 3 3 3 3 3 3 3 3 3 3 3 3 3 3 3 3 3 3 3 3 3 3 3 3 3 3 3 3 3 3 3 3 3 3 3 3 3 3 3 3 3 3 3 3 3 3 3 3 3 3 3 3 3 3 3 3 3 3 3 3 3 3 3 3 3 3 3 3 3 3 3 3 3 3 3 3 3 3 3 3 3 3 3 3 3 3 3 3 3 3 3 3 3 3 3 3 3 3 3 3 3 3 3 3 3 3 3 3 3 3 3 3 3 3 3 3 3 3 3 3 3 3 3 3 3 3 3 3 3 3 3 3 3 3 3 3 3 3 3 3 3 3 3 3 3 3 3 </vcount>
          <p>0 1 2 3 4 5 6 7 8 9 10 11 12 13 14 15 16 17 18 19 20 21 22 23 24 25 26 27 28 29 30 31 32 33 34 35 36 37 38 39 40 41 42 43 44 45 46 47 48 49 50 51 52 53 54 55 56 57 58 59 60 61 62 63 64 65 66 67 68 69 70 71 72 73 74 75 76 77 78 79 80 81 82 83 84 85 86 87 88 89 90 91 92 93 94 95 96 97 98 99 100 101 102 103 104 105 106 107 108 109 110 111 112 113 114 115 116 117 118 119 120 121 122 123 124 125 126 127 128 129 130 131 132 133 134 135 136 137 138 139 140 141 142 143 144 145 146 147 148 149 150 151 152 153 154 155 156 157 158 159 160 161 162 163 164 165 166 167 168 169 170 171 172 173 174 175 176 177 178 179 180 181 182 183 184 185 186 187 188 189 190 191 192 193 194 195 196 197 198 199 200 201 202 203 204 205 206 207 208 209 210 211 212 213 214 215 216 217 218 219 220 221 222 223 224 225 226 227 228 229 230 231 232 233 234 235 236 237 238 239 240 241 242 243 244 245 246 247 248 249 250 251 252 253 254 255 256 257 258 259 260 261 262 263 264 265 266 267 268 269 270 271 272 273 274 275 276 277 278 279 280 281 282 283 284 285 286 287 288 289 290 291 292 293 294 295 296 297 298 299 300 301 302 303 304 305 306 307 308 309 310 311 312 313 314 315 316 317 318 319 320 321 322 323 324 325 326 327 328 329 330 331 332 333 334 335 336 337 338 339 340 341 342 343 344 345 346 347 348 349 350 351 352 353 354 355 356 357 358 359 360 361 362 363 364 365 366 367 368 369 370 371 372 373 374 375 376 377 378 379 380 381 382 383 384 385 386 387 388 389 390 391 392 393 394 395 396 397 398 399 400 401 402 403 404 405 406 407 408 409 410 411 412 413 414 415 416 417 418 419 420 421 422 423 424 425 426 427 428 429 430 431 432 433 434 435 436 437 438 439 440 441 442 443 444 445 446 447 448 449 450 451 452 453 454 455 456 457 458 459 460 461 462 463 464 465 466 467 468 469 470 471 472 473 474 475 476 477 478 479 480 481 482 483 484 485 486 487 488 489 490 491 492 493 494 495 496 497 498 499 500 501 502 503 504 505 506 507 508 509 510 511 512 513 514 515 516 517 518 519 520 521 522 523 524 525 526 527 528 529 530 531 532 533 534 535 536 537 538 539 540 541 542 543 544 545 546 547 548 549 550 551 552 553 554 555 556 557 558 559 560 561 562 563 564 565 566 567 568 569 570 571 572 573 574 575 576 577 578 579 580 581 582 583 584 585 586 587 588 589 590 591 592 593 594 595 596 597 598 599 600 601 602 603 604 605 606 607 608 609 610 611 612 613 614 615 616 617 618 619 620 621 622 623 624 625 626 627 628 629 630 631 632 633 634 635 636 637 638 639 640 641 642 643 644 645 646 647 648 649 650 651 652 653 654 655 656 657 658 659 660 661 662 663 664 665 666 667 668 669 670 671 672 673 674 675 676 677 678 679 680 681 682 683 684 685 686 687 688 689 690 691 692 693 694 695 696 697 698 699 700 701 702 703 704 705 706 707 708 709 710 711 712 713 714 715 716 717 718 719 720 721 722 723 724 725 726 727 728 729 730 731 732 733 734 735 736 737 738 739 740 741 742 743 744 745 746 747 748 749 750 751 752 753 754 755 756 757 758 759 760 761 762 763 764 765 766 767 768 769 770 771 772 773 774 775 776 777 778 779 780 781 782 783 784 785 786 787 788 789 790 791 792 793 794 795 796 797 798 799 800 801 802 803 804 805 806 807 808 809 810 811 812 813 814 815 816 817 818 819 820 821 822 823 824 825 826 827 828 829 830 831 832 833 834 835 836 837 838 839 840 841 842 843 844 845 846 847 848 849 850 851 </p>
        </polylist>
      </mesh>
    </geometry>
  </library_geometries>
  <library_controllers>
  </library_controllers>
  <library_visual_scenes>
    <visual_scene id="_ySTL_BINARY_" name="&lt;STL_BINARY&gt;">
      <node id="node" name="" type="NODE">
        <matrix sid="matrix">1 0 0 0 0 1 0 0 0 0 1 0 0 0 0 1</matrix>
        <instance_geometry url="#mesh_0">
          <bind_material>
            <technique_common>
              <instance_material symbol="defaultMaterial" target="#DefaultMaterial">
              </instance_material>
            </technique_common>
          </bind_material>
        </instance_geometry>
      </node>
    </visual_scene>
  </library_visual_scenes>
  <scene>
    <instance_visual_scene url="#_ySTL_BINARY_" />
  </scene>
</COLLADA>
