<?xml version="1.0" encoding="UTF-8" standalone="no" ?>
<COLLADA xmlns="http://www.collada.org/2005/11/COLLADASchema" version="1.4.1">
  <asset>
    <contributor>
      <author>Assimp</author>
      <authoring_tool>Assimp Exporter</authoring_tool>
    </contributor>
    <created>2025-12-07T16:35:04</created>
    <modified>2025-12-07T16:35:04</modified>
    <unit name="meter" meter="1" />
    <up_axis>Y_UP</up_axis>
  </asset>
  <library_images>
  </library_images>
  <library_effects>
    <effect id="DefaultMaterial-fx" name="DefaultMaterial">
      <profile_COMMON>
        <technique sid="standard">
          <phong>
            <ambient>
              <color sid="ambient">0.0500000007   0.0500000007   0.0500000007   1</color>
            </ambient>
            <diffuse>
              <color sid="diffuse">1   1   1   1</color>
            </diffuse>
            <specular>
              <color sid="specular">1   1   1   1</color>
            </specular>
          </phong>
        </technique>
      </profile_COMMON>
    </effect>
  </library_effects>
  <library_materials>
    <material id="DefaultMaterial" name="DefaultMaterial">
      <instance_effect url="#DefaultMaterial-fx"/>
    </material>
  </library_materials>
  <library_geometries>
    <geometry id="mesh_0" name="" >
      <mesh>
        <source id="mesh_0-positions" name="mesh_0-positions">
          <float_array id="mesh_0-positions-array" count="2556"> 0.0152486097 0.0742073804 0.150728956 0.0141971409 0.0708725527 0.150728956 0.0153942108 0.0741614774 0.150728956 0.0141971409 0.0708725527 0.150728956 0.014342743 0.0708266422 0.150728956 0.0153942108 0.0741614774 0.150728956 0.014342743 0.0742073804 0.150728956 0.0141971409 0.0741614774 0.150728956 0.0141971409 0.0708725527 0.150728956 0.0141971409 0.0741614774 0.150728956 0.014056094 0.0741030499 0.150728956 0.0141971409 0.0708725527 0.150728956 0.0152486097 0.0742073804 0.150728956 0.0150995599 0.0742404237 0.150728956 0.0141971409 0.0708725527 0.150728956 0.0150995599 0.0742404237 0.150728956 0.0149481986 0.074260354 0.150728956 0.0141971409 0.0708725527 0.150728956 0.0141971409 0.0708725527 0.150728956 0.0149481986 0.074260354 0.150728956 0.0147956759 0.0742670149 0.150728956 0.0147956759 0.0742670149 0.150728956 0.0146431532 0.074260354 0.150728956 0.0141971409 0.0708725527 0.150728956 0.0146431532 0.074260354 0.150728956 0.0144917918 0.0742404237 0.150728956 0.0141971409 0.0708725527 0.150728956 0.0141971409 0.0708725527 0.150728956 0.0144917918 0.0742404237 0.150728956 0.014342743 0.0742073804 0.150728956 0.014056094 0.0741030499 0.150728956 0.013920676 0.07403256 0.150728956 0.0141971409 0.0708725527 0.150728956 0.013920676 0.07403256 0.150728956 0.0137919169 0.0739505291 0.150728956 0.0141971409 0.0708725527 0.150728956 0.0141971409 0.0708725527 0.150728956 0.0137919169 0.0739505291 0.150728956 0.014056094 0.0709309727 0.150728956 0.0137919169 0.0739505291 0.150728956 0.013920676 0.0710014701 0.150728956 0.014056094 0.0709309727 0.150728956 0.014342743 0.0708266422 0.150728956 0.0144917918 0.0707935989 0.150728956 0.0153942108 0.0741614774 0.150728956 0.0144917918 0.0707935989 0.150728956 0.0146431532 0.070773676 0.150728956 0.0153942108 0.0741614774 0.150728956 0.0153942108 0.0741614774 0.150728956 0.0146431532 0.070773676 0.150728956 0.0147956759 0.0707670152 0.150728956 0.0147956759 0.0707670152 0.150728956 0.0149481986 0.070773676 0.150728956 0.0153942108 0.0741614774 0.150728956 0.0149481986 0.070773676 0.150728956 0.0150995599 0.0707935989 0.150728956 0.0153942108 0.0741614774 0.150728956 0.0153942108 0.0741614774 0.150728956 0.0150995599 0.0707935989 0.150728956 0.0152486097 0.0708266422 0.150728956 0.0152486097 0.0708266422 0.150728956 0.0153942108 0.0708725527 0.150728956 0.0153942108 0.0741614774 0.150728956 0.0153942108 0.0708725527 0.150728956 0.0155352578 0.0709309727 0.150728956 0.0153942108 0.0741614774 0.150728956 0.0153942108 0.0741614774 0.150728956 0.0155352578 0.0709309727 0.150728956 0.0156706758 0.0710014701 0.150728956 0.0165390167 0.0723644942 0.150728956 0.0157994349 0.0739505291 0.150728956 0.0156706758 0.07403256 0.150728956 0.0156706758 0.07403256 0.150728956 0.0155352578 0.0741030499 0.150728956 0.0165390167 0.0723644942 0.150728956 0.0155352578 0.0741030499 0.150728956 0.0153942108 0.0741614774 0.150728956 0.0165390167 0.0723644942 0.150728956 0.0165390167 0.0723644942 0.150728956 0.0153942108 0.0741614774 0.150728956 0.0165190902 0.0722131282 0.150728956 0.0153942108 0.0741614774 0.150728956 0.0164860468 0.0720640793 0.150728956 0.0165190902 0.0722131282 0.150728956 0.0157994349 0.0739505291 0.150728956 0.0165390167 0.0723644942 0.150728956 0.0159205534 0.0738575906 0.150728956 0.0165390167 0.0723644942 0.150728956 0.0165456757 0.072517015 0.150728956 0.0159205534 0.0738575906 0.150728956 0.0159205534 0.0738575906 0.150728956 0.0165456757 0.072517015 0.150728956 0.0165390167 0.0726695359 0.150728956 0.0131512135 0.0719184801 0.150728956 0.0132096373 0.0717774332 0.150728956 0.0136707975 0.0738575906 0.150728956 0.0156706758 0.0710014701 0.150728956 0.0157994349 0.0710834935 0.150728956 0.0153942108 0.0741614774 0.150728956 0.0157994349 0.0710834935 0.150728956 0.0159205534 0.0711764321 0.150728956 0.0153942108 0.0741614774 0.150728956 0.0153942108 0.0741614774 0.150728956 0.0159205534 0.0711764321 0.150728956 0.016033113 0.0712795779 0.150728956 0.016033113 0.0712795779 0.150728956 0.0161362533 0.0713921338 0.150728956 0.0153942108 0.0741614774 0.150728956 0.0161362533 0.0713921338 0.150728956 0.0162291918 0.0715132579 0.150728956 0.0153942108 0.0741614774 0.150728956 0.0153942108 0.0741614774 0.150728956 0.0162291918 0.0715132579 0.150728956 0.0163112208 0.0716420114 0.150728956 0.0163112208 0.0716420114 0.150728956 0.0163817145 0.0717774332 0.150728956 0.0153942108 0.0741614774 0.150728956 0.0163817145 0.0717774332 0.150728956 0.0164401382 0.0719184801 0.150728956 0.0153942108 0.0741614774 0.150728956 0.0153942108 0.0741614774 0.150728956 0.0164401382 0.0719184801 0.150728956 0.0164860468 0.0720640793 0.150728956 0.0165390167 0.0726695359 0.150728956 0.0165190902 0.0728208944 0.150728956 0.0159205534 0.0738575906 0.150728956 0.0165190902 0.0728208944 0.150728956 0.0164860468 0.0729699433 0.150728956 0.0159205534 0.0738575906 0.150728956 0.0159205534 0.0738575906 0.150728956 0.0164860468 0.0729699433 0.150728956 0.0164401382 0.07311555 0.150728956 0.0163112208 0.0733920112 0.150728956 0.0162291918 0.0735207722 0.150728956 0.0161362533 0.0736418888 0.150728956 0.0134550985 0.0736418888 0.150728956 0.01336216 0.0735207722 0.150728956 0.0131053058 0.0720640793 0.150728956 0.01336216 0.0735207722 0.150728956 0.0132801319 0.0733920112 0.150728956 0.0131053058 0.0720640793 0.150728956 0.0131053058 0.0729699433 0.150728956 0.0130722625 0.0728208944 0.150728956 0.013052335 0.0726695359 0.150728956 0.0132096373 0.0717774332 0.150728956 0.0132801319 0.0716420114 0.150728956 0.0136707975 0.0738575906 0.150728956 0.0132801319 0.0716420114 0.150728956 0.01336216 0.0715132579 0.150728956 0.0136707975 0.0738575906 0.150728956 0.0136707975 0.0738575906 0.150728956 0.01336216 0.0715132579 0.150728956 0.0134550985 0.0713921338 0.150728956 0.0134550985 0.0713921338 0.150728956 0.0135582387 0.0712795779 0.150728956 0.0136707975 0.0738575906 0.150728956 0.0135582387 0.0712795779 0.150728956 0.0136707975 0.0711764321 0.150728956 0.0136707975 0.0738575906 0.150728956 0.0136707975 0.0738575906 0.150728956 0.0136707975 0.0711764321 0.150728956 0.0137919169 0.0739505291 0.150728956 0.0136707975 0.0711764321 0.150728956 0.0137919169 0.0710834935 0.150728956 0.0137919169 0.0739505291 0.150728956 0.0137919169 0.0739505291 0.150728956 0.0137919169 0.0710834935 0.150728956 0.013920676 0.0710014701 0.150728956 0.0164401382 0.07311555 0.150728956 0.0163817145 0.0732565969 0.150728956 0.0159205534 0.0738575906 0.150728956 0.0163817145 0.0732565969 0.150728956 0.0163112208 0.0733920112 0.150728956 0.0159205534 0.0738575906 0.150728956 0.0159205534 0.0738575906 0.150728956 0.0163112208 0.0733920112 0.150728956 0.016033113 0.0737544522 0.150728956 0.0163112208 0.0733920112 0.150728956 0.0161362533 0.0736418888 0.150728956 0.016033113 0.0737544522 0.150728956 0.0131512135 0.0719184801 0.150728956 0.0136707975 0.0738575906 0.150728956 0.0131053058 0.0720640793 0.150728956 0.0136707975 0.0738575906 0.150728956 0.0135582387 0.0737544522 0.150728956 0.0131053058 0.0720640793 0.150728956 0.0131053058 0.0720640793 0.150728956 0.0135582387 0.0737544522 0.150728956 0.0134550985 0.0736418888 0.150728956 0.013052335 0.0723644942 0.150728956 0.0130722625 0.0722131282 0.150728956 0.0131512135 0.07311555 0.150728956 0.0130722625 0.0722131282 0.150728956 0.0131053058 0.0720640793 0.150728956 0.0131512135 0.07311555 0.150728956 0.0131512135 0.07311555 0.150728956 0.0131053058 0.0720640793 0.150728956 0.0132096373 0.0732565969 0.150728956 0.0131053058 0.0720640793 0.150728956 0.0132801319 0.0733920112 0.150728956 0.0132096373 0.0732565969 0.150728956 0.0131053058 0.0729699433 0.150728956 0.013052335 0.0726695359 0.150728956 0.0131512135 0.07311555 0.150728956 0.013052335 0.0726695359 0.150728956 0.0130456761 0.072517015 0.150728956 0.0131512135 0.07311555 0.150728956 0.0131512135 0.07311555 0.150728956 0.0130456761 0.072517015 0.150728956 0.013052335 0.0723644942 0.150728956 0.0152486097 0.0742073804 0.147228956 0.0153942108 0.0741614774 0.147228956 0.0141971409 0.0708725527 0.147228956 0.0141971409 0.0708725527 0.147228956 0.0153942108 0.0741614774 0.147228956 0.014342743 0.0708266422 0.147228956 0.0153942108 0.0741614774 0.147228956 0.0153942108 0.0708725527 0.147228956 0.0152486097 0.0708266422 0.147228956 0.0156706758 0.07403256 0.147228956 0.0157994349 0.0739505291 0.147228956 0.0165390167 0.0723644942 0.147228956 0.0157994349 0.0739505291 0.147228956 0.0159205534 0.0738575906 0.147228956 0.0165390167 0.0723644942 0.147228956 0.0165390167 0.0723644942 0.147228956 0.0159205534 0.0738575906 0.147228956 0.0165456757 0.072517015 0.147228956 0.014056094 0.0709309727 0.147228956 0.0141971409 0.0741614774 0.147228956 0.0141971409 0.0708725527 0.147228956 0.0141971409 0.0741614774 0.147228956 0.014342743 0.0742073804 0.147228956 0.0141971409 0.0708725527 0.147228956 0.0157994349 0.0710834935 0.147228956 0.0156706758 0.0710014701 0.147228956 0.0153942108 0.0741614774 0.147228956 0.0156706758 0.0710014701 0.147228956 0.0155352578 0.0709309727 0.147228956 0.0153942108 0.0741614774 0.147228956 0.0153942108 0.0741614774 0.147228956 0.0155352578 0.0709309727 0.147228956 0.0153942108 0.0708725527 0.147228956 0.0152486097 0.0708266422 0.147228956 0.0150995599 0.0707935989 0.147228956 0.0153942108 0.0741614774 0.147228956 0.0150995599 0.0707935989 0.147228956 0.0149481986 0.070773676 0.147228956 0.0153942108 0.0741614774 0.147228956 0.0153942108 0.0741614774 0.147228956 0.0149481986 0.070773676 0.147228956 0.0147956759 0.0707670152 0.147228956 0.0147956759 0.0707670152 0.147228956 0.0146431532 0.070773676 0.147228956 0.0153942108 0.0741614774 0.147228956 0.0146431532 0.070773676 0.147228956 0.0144917918 0.0707935989 0.147228956 0.0153942108 0.0741614774 0.147228956 0.0153942108 0.0741614774 0.147228956 0.0144917918 0.0707935989 0.147228956 0.014342743 0.0708266422 0.147228956 0.014056094 0.0709309727 0.147228956 0.013920676 0.0710014701 0.147228956 0.0141971409 0.0741614774 0.147228956 0.013920676 0.0710014701 0.147228956 0.0137919169 0.0710834935 0.147228956 0.0141971409 0.0741614774 0.147228956 0.0141971409 0.0741614774 0.147228956 0.0137919169 0.0710834935 0.147228956 0.014056094 0.0741030499 0.147228956 0.0137919169 0.0710834935 0.147228956 0.013920676 0.07403256 0.147228956 0.014056094 0.0741030499 0.147228956 0.014342743 0.0742073804 0.147228956 0.0144917918 0.0742404237 0.147228956 0.0141971409 0.0708725527 0.147228956 0.0144917918 0.0742404237 0.147228956 0.0146431532 0.074260354 0.147228956 0.0141971409 0.0708725527 0.147228956 0.0141971409 0.0708725527 0.147228956 0.0146431532 0.074260354 0.147228956 0.0147956759 0.0742670149 0.147228956 0.0147956759 0.0742670149 0.147228956 0.0149481986 0.074260354 0.147228956 0.0141971409 0.0708725527 0.147228956 0.0149481986 0.074260354 0.147228956 0.0150995599 0.0742404237 0.147228956 0.0141971409 0.0708725527 0.147228956 0.0141971409 0.0708725527 0.147228956 0.0150995599 0.0742404237 0.147228956 0.0152486097 0.0742073804 0.147228956 0.0164401382 0.07311555 0.147228956 0.0164860468 0.0729699433 0.147228956 0.0159205534 0.0738575906 0.147228956 0.0165190902 0.0722131282 0.147228956 0.0153942108 0.0741614774 0.147228956 0.0165390167 0.0723644942 0.147228956 0.0153942108 0.0741614774 0.147228956 0.0155352578 0.0741030499 0.147228956 0.0165390167 0.0723644942 0.147228956 0.0165390167 0.0723644942 0.147228956 0.0155352578 0.0741030499 0.147228956 0.0156706758 0.07403256 0.147228956 0.0161362533 0.0736418888 0.147228956 0.0162291918 0.0735207722 0.147228956 0.0163112208 0.0733920112 0.147228956 0.0164860468 0.0729699433 0.147228956 0.0165190902 0.0728208944 0.147228956 0.0159205534 0.0738575906 0.147228956 0.0165190902 0.0728208944 0.147228956 0.0165390167 0.0726695359 0.147228956 0.0159205534 0.0738575906 0.147228956 0.0159205534 0.0738575906 0.147228956 0.0165390167 0.0726695359 0.147228956 0.0165456757 0.072517015 0.147228956 0.0161362533 0.0736418888 0.147228956 0.0163112208 0.0733920112 0.147228956 0.016033113 0.0737544522 0.147228956 0.0165190902 0.0722131282 0.147228956 0.0164860468 0.0720640793 0.147228956 0.0153942108 0.0741614774 0.147228956 0.0164860468 0.0720640793 0.147228956 0.0164401382 0.0719184801 0.147228956 0.0153942108 0.0741614774 0.147228956 0.0153942108 0.0741614774 0.147228956 0.0164401382 0.0719184801 0.147228956 0.0163817145 0.0717774332 0.147228956 0.0163817145 0.0717774332 0.147228956 0.0163112208 0.0716420114 0.147228956 0.0153942108 0.0741614774 0.147228956 0.0163112208 0.0716420114 0.147228956 0.0162291918 0.0715132579 0.147228956 0.0153942108 0.0741614774 0.147228956 0.0153942108 0.0741614774 0.147228956 0.0162291918 0.0715132579 0.147228956 0.0161362533 0.0713921338 0.147228956 0.0161362533 0.0713921338 0.147228956 0.016033113 0.0712795779 0.147228956 0.0153942108 0.0741614774 0.147228956 0.016033113 0.0712795779 0.147228956 0.0159205534 0.0711764321 0.147228956 0.0153942108 0.0741614774 0.147228956 0.0153942108 0.0741614774 0.147228956 0.0159205534 0.0711764321 0.147228956 0.0157994349 0.0710834935 0.147228956 0.0130722625 0.0722131282 0.147228956 0.013052335 0.0723644942 0.147228956 0.0131512135 0.07311555 0.147228956 0.016033113 0.0737544522 0.147228956 0.0163112208 0.0733920112 0.147228956 0.0159205534 0.0738575906 0.147228956 0.0163112208 0.0733920112 0.147228956 0.0163817145 0.0732565969 0.147228956 0.0159205534 0.0738575906 0.147228956 0.0159205534 0.0738575906 0.147228956 0.0163817145 0.0732565969 0.147228956 0.0164401382 0.07311555 0.147228956 0.013920676 0.07403256 0.147228956 0.0137919169 0.0710834935 0.147228956 0.0137919169 0.0739505291 0.147228956 0.0137919169 0.0710834935 0.147228956 0.0136707975 0.0711764321 0.147228956 0.0137919169 0.0739505291 0.147228956 0.0137919169 0.0739505291 0.147228956 0.0136707975 0.0711764321 0.147228956 0.0136707975 0.0738575906 0.147228956 0.0136707975 0.0711764321 0.147228956 0.0135582387 0.0712795779 0.147228956 0.0136707975 0.0738575906 0.147228956 0.0136707975 0.0738575906 0.147228956 0.0135582387 0.0712795779 0.147228956 0.0134550985 0.0713921338 0.147228956 0.0134550985 0.0713921338 0.147228956 0.01336216 0.0715132579 0.147228956 0.0136707975 0.0738575906 0.147228956 0.01336216 0.0715132579 0.147228956 0.0132801319 0.0716420114 0.147228956 0.0136707975 0.0738575906 0.147228956 0.0136707975 0.0738575906 0.147228956 0.0132801319 0.0716420114 0.147228956 0.0132096373 0.0717774332 0.147228956 0.0132801319 0.0733920112 0.147228956 0.01336216 0.0735207722 0.147228956 0.0131053058 0.0720640793 0.147228956 0.01336216 0.0735207722 0.147228956 0.0134550985 0.0736418888 0.147228956 0.0131053058 0.0720640793 0.147228956 0.0130722625 0.0722131282 0.147228956 0.0131512135 0.07311555 0.147228956 0.0131053058 0.0720640793 0.147228956 0.0131512135 0.07311555 0.147228956 0.0132096373 0.0732565969 0.147228956 0.0131053058 0.0720640793 0.147228956 0.0131053058 0.0720640793 0.147228956 0.0132096373 0.0732565969 0.147228956 0.0132801319 0.0733920112 0.147228956 0.0132096373 0.0717774332 0.147228956 0.0131512135 0.0719184801 0.147228956 0.0136707975 0.0738575906 0.147228956 0.0131512135 0.0719184801 0.147228956 0.0131053058 0.0720640793 0.147228956 0.0136707975 0.0738575906 0.147228956 0.0136707975 0.0738575906 0.147228956 0.0131053058 0.0720640793 0.147228956 0.0135582387 0.0737544522 0.147228956 0.0131053058 0.0720640793 0.147228956 0.0134550985 0.0736418888 0.147228956 0.0135582387 0.0737544522 0.147228956 0.013052335 0.0723644942 0.147228956 0.0130456761 0.072517015 0.147228956 0.0131512135 0.07311555 0.147228956 0.0130456761 0.072517015 0.147228956 0.013052335 0.0726695359 0.147228956 0.0131512135 0.07311555 0.147228956 0.0131512135 0.07311555 0.147228956 0.013052335 0.0726695359 0.147228956 0.0131053058 0.0729699433 0.147228956 0.013052335 0.0726695359 0.147228956 0.0130722625 0.0728208944 0.147228956 0.0131053058 0.0729699433 0.147228956 0.0147956759 0.0707670152 0.150728956 0.0147956759 0.0707670152 0.147228956 0.0149481986 0.070773676 0.147228956 0.0147956759 0.0707670152 0.150728956 0.0149481986 0.070773676 0.147228956 0.0149481986 0.070773676 0.150728956 0.0149481986 0.070773676 0.147228956 0.0150995599 0.0707935989 0.147228956 0.0149481986 0.070773676 0.150728956 0.0149481986 0.070773676 0.150728956 0.0150995599 0.0707935989 0.147228956 0.0150995599 0.0707935989 0.150728956 0.0150995599 0.0707935989 0.147228956 0.0152486097 0.0708266422 0.147228956 0.0150995599 0.0707935989 0.150728956 0.0150995599 0.0707935989 0.150728956 0.0152486097 0.0708266422 0.147228956 0.0152486097 0.0708266422 0.150728956 0.0152486097 0.0708266422 0.147228956 0.0153942108 0.0708725527 0.147228956 0.0152486097 0.0708266422 0.150728956 0.0152486097 0.0708266422 0.150728956 0.0153942108 0.0708725527 0.147228956 0.0153942108 0.0708725527 0.150728956 0.0153942108 0.0708725527 0.147228956 0.0155352578 0.0709309727 0.147228956 0.0153942108 0.0708725527 0.150728956 0.0153942108 0.0708725527 0.150728956 0.0155352578 0.0709309727 0.147228956 0.0155352578 0.0709309727 0.150728956 0.0155352578 0.0709309727 0.147228956 0.0156706758 0.0710014701 0.147228956 0.0155352578 0.0709309727 0.150728956 0.0155352578 0.0709309727 0.150728956 0.0156706758 0.0710014701 0.147228956 0.0156706758 0.0710014701 0.150728956 0.0156706758 0.0710014701 0.147228956 0.0157994349 0.0710834935 0.147228956 0.0156706758 0.0710014701 0.150728956 0.0156706758 0.0710014701 0.150728956 0.0157994349 0.0710834935 0.147228956 0.0157994349 0.0710834935 0.150728956 0.0157994349 0.0710834935 0.147228956 0.0159205534 0.0711764321 0.147228956 0.0157994349 0.0710834935 0.150728956 0.0157994349 0.0710834935 0.150728956 0.0159205534 0.0711764321 0.147228956 0.0159205534 0.0711764321 0.150728956 0.0159205534 0.0711764321 0.147228956 0.016033113 0.0712795779 0.147228956 0.0159205534 0.0711764321 0.150728956 0.0159205534 0.0711764321 0.150728956 0.016033113 0.0712795779 0.147228956 0.016033113 0.0712795779 0.150728956 0.016033113 0.0712795779 0.147228956 0.0161362533 0.0713921338 0.147228956 0.016033113 0.0712795779 0.150728956 0.016033113 0.0712795779 0.150728956 0.0161362533 0.0713921338 0.147228956 0.0161362533 0.0713921338 0.150728956 0.0161362533 0.0713921338 0.147228956 0.0162291918 0.0715132579 0.147228956 0.0161362533 0.0713921338 0.150728956 0.0161362533 0.0713921338 0.150728956 0.0162291918 0.0715132579 0.147228956 0.0162291918 0.0715132579 0.150728956 0.0162291918 0.0715132579 0.147228956 0.0163112208 0.0716420114 0.147228956 0.0162291918 0.0715132579 0.150728956 0.0162291918 0.0715132579 0.150728956 0.0163112208 0.0716420114 0.147228956 0.0163112208 0.0716420114 0.150728956 0.0163112208 0.0716420114 0.147228956 0.0163817145 0.0717774332 0.147228956 0.0163112208 0.0716420114 0.150728956 0.0163112208 0.0716420114 0.150728956 0.0163817145 0.0717774332 0.147228956 0.0163817145 0.0717774332 0.150728956 0.0163817145 0.0717774332 0.147228956 0.0164401382 0.0719184801 0.147228956 0.0163817145 0.0717774332 0.150728956 0.0163817145 0.0717774332 0.150728956 0.0164401382 0.0719184801 0.147228956 0.0164401382 0.0719184801 0.150728956 0.0164401382 0.0719184801 0.147228956 0.0164860468 0.0720640793 0.147228956 0.0164401382 0.0719184801 0.150728956 0.0164401382 0.0719184801 0.150728956 0.0164860468 0.0720640793 0.147228956 0.0164860468 0.0720640793 0.150728956 0.0164860468 0.0720640793 0.147228956 0.0165190902 0.0722131282 0.147228956 0.0164860468 0.0720640793 0.150728956 0.0164860468 0.0720640793 0.150728956 0.0165190902 0.0722131282 0.147228956 0.0165190902 0.0722131282 0.150728956 0.0165190902 0.0722131282 0.147228956 0.0165390167 0.0723644942 0.147228956 0.0165190902 0.0722131282 0.150728956 0.0165190902 0.0722131282 0.150728956 0.0165390167 0.0723644942 0.147228956 0.0165390167 0.0723644942 0.150728956 0.0165390167 0.0723644942 0.147228956 0.0165456757 0.072517015 0.147228956 0.0165390167 0.0723644942 0.150728956 0.0165390167 0.0723644942 0.150728956 0.0165456757 0.072517015 0.147228956 0.0165456757 0.072517015 0.150728956 0.0165456757 0.072517015 0.147228956 0.0165390167 0.0726695359 0.147228956 0.0165456757 0.072517015 0.150728956 0.0165456757 0.072517015 0.150728956 0.0165390167 0.0726695359 0.147228956 0.0165390167 0.0726695359 0.150728956 0.0165390167 0.0726695359 0.147228956 0.0165190902 0.0728208944 0.147228956 0.0165390167 0.0726695359 0.150728956 0.0165390167 0.0726695359 0.150728956 0.0165190902 0.0728208944 0.147228956 0.0165190902 0.0728208944 0.150728956 0.0165190902 0.0728208944 0.147228956 0.0164860468 0.0729699433 0.147228956 0.0165190902 0.0728208944 0.150728956 0.0165190902 0.0728208944 0.150728956 0.0164860468 0.0729699433 0.147228956 0.0164860468 0.0729699433 0.150728956 0.0164860468 0.0729699433 0.147228956 0.0164401382 0.07311555 0.147228956 0.0164860468 0.0729699433 0.150728956 0.0164860468 0.0729699433 0.150728956 0.0164401382 0.07311555 0.147228956 0.0164401382 0.07311555 0.150728956 0.0164401382 0.07311555 0.147228956 0.0163817145 0.0732565969 0.147228956 0.0164401382 0.07311555 0.150728956 0.0164401382 0.07311555 0.150728956 0.0163817145 0.0732565969 0.147228956 0.0163817145 0.0732565969 0.150728956 0.0163817145 0.0732565969 0.147228956 0.0163112208 0.0733920112 0.147228956 0.0163817145 0.0732565969 0.150728956 0.0163817145 0.0732565969 0.150728956 0.0163112208 0.0733920112 0.147228956 0.0163112208 0.0733920112 0.150728956 0.0163112208 0.0733920112 0.147228956 0.0162291918 0.0735207722 0.147228956 0.0163112208 0.0733920112 0.150728956 0.0163112208 0.0733920112 0.150728956 0.0162291918 0.0735207722 0.147228956 0.0162291918 0.0735207722 0.150728956 0.0162291918 0.0735207722 0.147228956 0.0161362533 0.0736418888 0.147228956 0.0162291918 0.0735207722 0.150728956 0.0162291918 0.0735207722 0.150728956 0.0161362533 0.0736418888 0.147228956 0.0161362533 0.0736418888 0.150728956 0.0161362533 0.0736418888 0.147228956 0.016033113 0.0737544522 0.147228956 0.0161362533 0.0736418888 0.150728956 0.0161362533 0.0736418888 0.150728956 0.016033113 0.0737544522 0.147228956 0.016033113 0.0737544522 0.150728956 0.016033113 0.0737544522 0.147228956 0.0159205534 0.0738575906 0.147228956 0.016033113 0.0737544522 0.150728956 0.016033113 0.0737544522 0.150728956 0.0159205534 0.0738575906 0.147228956 0.0159205534 0.0738575906 0.150728956 0.0159205534 0.0738575906 0.147228956 0.0157994349 0.0739505291 0.147228956 0.0159205534 0.0738575906 0.150728956 0.0159205534 0.0738575906 0.150728956 0.0157994349 0.0739505291 0.147228956 0.0157994349 0.0739505291 0.150728956 0.0157994349 0.0739505291 0.147228956 0.0156706758 0.07403256 0.147228956 0.0157994349 0.0739505291 0.150728956 0.0157994349 0.0739505291 0.150728956 0.0156706758 0.07403256 0.147228956 0.0156706758 0.07403256 0.150728956 0.0156706758 0.07403256 0.147228956 0.0155352578 0.0741030499 0.147228956 0.0156706758 0.07403256 0.150728956 0.0156706758 0.07403256 0.150728956 0.0155352578 0.0741030499 0.147228956 0.0155352578 0.0741030499 0.150728956 0.0155352578 0.0741030499 0.147228956 0.0153942108 0.0741614774 0.147228956 0.0155352578 0.0741030499 0.150728956 0.0155352578 0.0741030499 0.150728956 0.0153942108 0.0741614774 0.147228956 0.0153942108 0.0741614774 0.150728956 0.0153942108 0.0741614774 0.147228956 0.0152486097 0.0742073804 0.147228956 0.0153942108 0.0741614774 0.150728956 0.0153942108 0.0741614774 0.150728956 0.0152486097 0.0742073804 0.147228956 0.0152486097 0.0742073804 0.150728956 0.0152486097 0.0742073804 0.147228956 0.0150995599 0.0742404237 0.147228956 0.0152486097 0.0742073804 0.150728956 0.0152486097 0.0742073804 0.150728956 0.0150995599 0.0742404237 0.147228956 0.0150995599 0.0742404237 0.150728956 0.0150995599 0.0742404237 0.147228956 0.0149481986 0.074260354 0.147228956 0.0150995599 0.0742404237 0.150728956 0.0150995599 0.0742404237 0.150728956 0.0149481986 0.074260354 0.147228956 0.0149481986 0.074260354 0.150728956 0.0149481986 0.074260354 0.147228956 0.0147956759 0.0742670149 0.147228956 0.0149481986 0.074260354 0.150728956 0.0149481986 0.074260354 0.150728956 0.0147956759 0.0742670149 0.147228956 0.0147956759 0.0742670149 0.150728956 0.0147956759 0.0742670149 0.150728956 0.0147956759 0.0742670149 0.147228956 0.0146431532 0.074260354 0.147228956 0.0147956759 0.0742670149 0.150728956 0.0146431532 0.074260354 0.147228956 0.0146431532 0.074260354 0.150728956 0.0146431532 0.074260354 0.147228956 0.0144917918 0.0742404237 0.147228956 0.0146431532 0.074260354 0.150728956 0.0146431532 0.074260354 0.150728956 0.0144917918 0.0742404237 0.147228956 0.0144917918 0.0742404237 0.150728956 0.0144917918 0.0742404237 0.147228956 0.014342743 0.0742073804 0.147228956 0.0144917918 0.0742404237 0.150728956 0.0144917918 0.0742404237 0.150728956 0.014342743 0.0742073804 0.147228956 0.014342743 0.0742073804 0.150728956 0.014342743 0.0742073804 0.147228956 0.0141971409 0.0741614774 0.147228956 0.014342743 0.0742073804 0.150728956 0.014342743 0.0742073804 0.150728956 0.0141971409 0.0741614774 0.147228956 0.0141971409 0.0741614774 0.150728956 0.0141971409 0.0741614774 0.147228956 0.014056094 0.0741030499 0.147228956 0.0141971409 0.0741614774 0.150728956 0.0141971409 0.0741614774 0.150728956 0.014056094 0.0741030499 0.147228956 0.014056094 0.0741030499 0.150728956 0.014056094 0.0741030499 0.147228956 0.013920676 0.07403256 0.147228956 0.014056094 0.0741030499 0.150728956 0.014056094 0.0741030499 0.150728956 0.013920676 0.07403256 0.147228956 0.013920676 0.07403256 0.150728956 0.013920676 0.07403256 0.147228956 0.0137919169 0.0739505291 0.147228956 0.013920676 0.07403256 0.150728956 0.013920676 0.07403256 0.150728956 0.0137919169 0.0739505291 0.147228956 0.0137919169 0.0739505291 0.150728956 0.0137919169 0.0739505291 0.147228956 0.0136707975 0.0738575906 0.147228956 0.0137919169 0.0739505291 0.150728956 0.0137919169 0.0739505291 0.150728956 0.0136707975 0.0738575906 0.147228956 0.0136707975 0.0738575906 0.150728956 0.0136707975 0.0738575906 0.147228956 0.0135582387 0.0737544522 0.147228956 0.0136707975 0.0738575906 0.150728956 0.0136707975 0.0738575906 0.150728956 0.0135582387 0.0737544522 0.147228956 0.0135582387 0.0737544522 0.150728956 0.0135582387 0.0737544522 0.147228956 0.0134550985 0.0736418888 0.147228956 0.0135582387 0.0737544522 0.150728956 0.0135582387 0.0737544522 0.150728956 0.0134550985 0.0736418888 0.147228956 0.0134550985 0.0736418888 0.150728956 0.0134550985 0.0736418888 0.147228956 0.01336216 0.0735207722 0.147228956 0.0134550985 0.0736418888 0.150728956 0.0134550985 0.0736418888 0.150728956 0.01336216 0.0735207722 0.147228956 0.01336216 0.0735207722 0.150728956 0.01336216 0.0735207722 0.147228956 0.0132801319 0.0733920112 0.147228956 0.01336216 0.0735207722 0.150728956 0.01336216 0.0735207722 0.150728956 0.0132801319 0.0733920112 0.147228956 0.0132801319 0.0733920112 0.150728956 0.0132801319 0.0733920112 0.147228956 0.0132096373 0.0732565969 0.147228956 0.0132801319 0.0733920112 0.150728956 0.0132801319 0.0733920112 0.150728956 0.0132096373 0.0732565969 0.147228956 0.0132096373 0.0732565969 0.150728956 0.0132096373 0.0732565969 0.147228956 0.0131512135 0.07311555 0.147228956 0.0132096373 0.0732565969 0.150728956 0.0132096373 0.0732565969 0.150728956 0.0131512135 0.07311555 0.147228956 0.0131512135 0.07311555 0.150728956 0.0131512135 0.07311555 0.147228956 0.0131053058 0.0729699433 0.147228956 0.0131512135 0.07311555 0.150728956 0.0131512135 0.07311555 0.150728956 0.0131053058 0.0729699433 0.147228956 0.0131053058 0.0729699433 0.150728956 0.0131053058 0.0729699433 0.147228956 0.0130722625 0.0728208944 0.147228956 0.0131053058 0.0729699433 0.150728956 0.0131053058 0.0729699433 0.150728956 0.0130722625 0.0728208944 0.147228956 0.0130722625 0.0728208944 0.150728956 0.0130722625 0.0728208944 0.147228956 0.013052335 0.0726695359 0.147228956 0.0130722625 0.0728208944 0.150728956 0.0130722625 0.0728208944 0.150728956 0.013052335 0.0726695359 0.147228956 0.013052335 0.0726695359 0.150728956 0.013052335 0.0726695359 0.147228956 0.0130456761 0.072517015 0.147228956 0.013052335 0.0726695359 0.150728956 0.013052335 0.0726695359 0.150728956 0.0130456761 0.072517015 0.147228956 0.0130456761 0.072517015 0.150728956 0.0130456761 0.072517015 0.147228956 0.013052335 0.0723644942 0.147228956 0.0130456761 0.072517015 0.150728956 0.0130456761 0.072517015 0.150728956 0.013052335 0.0723644942 0.147228956 0.013052335 0.0723644942 0.150728956 0.013052335 0.0723644942 0.147228956 0.0130722625 0.0722131282 0.147228956 0.013052335 0.0723644942 0.150728956 0.013052335 0.0723644942 0.150728956 0.0130722625 0.0722131282 0.147228956 0.0130722625 0.0722131282 0.150728956 0.0130722625 0.0722131282 0.147228956 0.0131053058 0.0720640793 0.147228956 0.0130722625 0.0722131282 0.150728956 0.0130722625 0.0722131282 0.150728956 0.0131053058 0.0720640793 0.147228956 0.0131053058 0.0720640793 0.150728956 0.0131053058 0.0720640793 0.147228956 0.0131512135 0.0719184801 0.147228956 0.0131053058 0.0720640793 0.150728956 0.0131053058 0.0720640793 0.150728956 0.0131512135 0.0719184801 0.147228956 0.0131512135 0.0719184801 0.150728956 0.0131512135 0.0719184801 0.147228956 0.0132096373 0.0717774332 0.147228956 0.0131512135 0.0719184801 0.150728956 0.0131512135 0.0719184801 0.150728956 0.0132096373 0.0717774332 0.147228956 0.0132096373 0.0717774332 0.150728956 0.0132096373 0.0717774332 0.147228956 0.0132801319 0.0716420114 0.147228956 0.0132096373 0.0717774332 0.150728956 0.0132096373 0.0717774332 0.150728956 0.0132801319 0.0716420114 0.147228956 0.0132801319 0.0716420114 0.150728956 0.0132801319 0.0716420114 0.147228956 0.01336216 0.0715132579 0.147228956 0.0132801319 0.0716420114 0.150728956 0.0132801319 0.0716420114 0.150728956 0.01336216 0.0715132579 0.147228956 0.01336216 0.0715132579 0.150728956 0.01336216 0.0715132579 0.147228956 0.0134550985 0.0713921338 0.147228956 0.01336216 0.0715132579 0.150728956 0.01336216 0.0715132579 0.150728956 0.0134550985 0.0713921338 0.147228956 0.0134550985 0.0713921338 0.150728956 0.0134550985 0.0713921338 0.147228956 0.0135582387 0.0712795779 0.147228956 0.0134550985 0.0713921338 0.150728956 0.0134550985 0.0713921338 0.150728956 0.0135582387 0.0712795779 0.147228956 0.0135582387 0.0712795779 0.150728956 0.0135582387 0.0712795779 0.147228956 0.0136707975 0.0711764321 0.147228956 0.0135582387 0.0712795779 0.150728956 0.0135582387 0.0712795779 0.150728956 0.0136707975 0.0711764321 0.147228956 0.0136707975 0.0711764321 0.150728956 0.0136707975 0.0711764321 0.147228956 0.0137919169 0.0710834935 0.147228956 0.0136707975 0.0711764321 0.150728956 0.0136707975 0.0711764321 0.150728956 0.0137919169 0.0710834935 0.147228956 0.0137919169 0.0710834935 0.150728956 0.0137919169 0.0710834935 0.147228956 0.013920676 0.0710014701 0.147228956 0.0137919169 0.0710834935 0.150728956 0.0137919169 0.0710834935 0.150728956 0.013920676 0.0710014701 0.147228956 0.013920676 0.0710014701 0.150728956 0.013920676 0.0710014701 0.147228956 0.014056094 0.0709309727 0.147228956 0.013920676 0.0710014701 0.150728956 0.013920676 0.0710014701 0.150728956 0.014056094 0.0709309727 0.147228956 0.014056094 0.0709309727 0.150728956 0.014056094 0.0709309727 0.147228956 0.0141971409 0.0708725527 0.147228956 0.014056094 0.0709309727 0.150728956 0.014056094 0.0709309727 0.150728956 0.0141971409 0.0708725527 0.147228956 0.0141971409 0.0708725527 0.150728956 0.0141971409 0.0708725527 0.147228956 0.014342743 0.0708266422 0.147228956 0.0141971409 0.0708725527 0.150728956 0.0141971409 0.0708725527 0.150728956 0.014342743 0.0708266422 0.147228956 0.014342743 0.0708266422 0.150728956 0.014342743 0.0708266422 0.147228956 0.0144917918 0.0707935989 0.147228956 0.014342743 0.0708266422 0.150728956 0.014342743 0.0708266422 0.150728956 0.0144917918 0.0707935989 0.147228956 0.0144917918 0.0707935989 0.150728956 0.0144917918 0.0707935989 0.147228956 0.0146431532 0.070773676 0.147228956 0.0144917918 0.0707935989 0.150728956 0.0144917918 0.0707935989 0.150728956 0.0146431532 0.070773676 0.147228956 0.0146431532 0.070773676 0.150728956 0.0146431532 0.070773676 0.147228956 0.0147956759 0.0707670152 0.147228956 0.0146431532 0.070773676 0.150728956 0.0146431532 0.070773676 0.150728956 0.0147956759 0.0707670152 0.147228956 0.0147956759 0.0707670152 0.150728956 </float_array>
          <technique_common>
            <accessor count="852" offset="0" source="#mesh_0-positions-array" stride="3">
              <param name="X" type="float" />
              <param name="Y" type="float" />
              <param name="Z" type="float" />
            </accessor>
          </technique_common>
        </source>
        <source id="mesh_0-normals" name="mesh_0-normals">
          <float_array id="mesh_0-normals-array" count="2556"> 0 0 1 0 0 1 0 0 1 -0 -0 1 -0 -0 1 -0 -0 1 0 0 1 0 0 1 0 0 1 -0 0 1 -0 0 1 -0 0 1 0 0 1 0 0 1 0 0 1 0 -0 1 0 -0 1 0 -0 1 0 0 1 0 0 1 0 0 1 0 0 1 0 0 1 0 0 1 -0 -0 1 -0 -0 1 -0 -0 1 0 0 1 0 0 1 0 0 1 0 0 1 0 0 1 0 0 1 -0 0 1 -0 0 1 -0 0 1 0 0 1 0 0 1 0 0 1 -0 -0 1 -0 -0 1 -0 -0 1 -0 0 1 -0 0 1 -0 0 1 -0 -0 1 -0 -0 1 -0 -0 1 0 0 1 0 0 1 0 0 1 0 0 1 0 0 1 0 0 1 -0 -0 1 -0 -0 1 -0 -0 1 0 0 1 0 0 1 0 0 1 0 0 1 0 0 1 0 0 1 -0 -0 1 -0 -0 1 -0 -0 1 0 0 1 0 0 1 0 0 1 0 0 1 0 0 1 0 0 1 0 0 1 0 0 1 0 0 1 0 0 1 0 0 1 0 0 1 0 0 1 0 0 1 0 0 1 -0 -0 1 -0 -0 1 -0 -0 1 0 0 1 0 0 1 0 0 1 -0 -0 1 -0 -0 1 -0 -0 1 0 0 1 0 0 1 0 0 1 -0 0 1 -0 0 1 -0 0 1 0 -0 1 0 -0 1 0 -0 1 -0 -0 1 -0 -0 1 -0 -0 1 0 0 1 0 0 1 0 0 1 0 -0 1 0 -0 1 0 -0 1 -0 -0 1 -0 -0 1 -0 -0 1 0 0 1 0 0 1 0 0 1 0 -0 1 0 -0 1 0 -0 1 -0 -0 1 -0 -0 1 -0 -0 1 0 0 1 0 0 1 0 0 1 0 0 1 0 0 1 0 0 1 -0 -0 1 -0 -0 1 -0 -0 1 0 0 1 0 0 1 0 0 1 0 0 1 0 0 1 0 0 1 0 0 1 0 0 1 0 0 1 -0 -0 1 -0 -0 1 -0 -0 1 0 0 1 0 0 1 0 0 1 -0 0 1 -0 0 1 -0 0 1 -0 -0 1 -0 -0 1 -0 -0 1 0 0 1 0 0 1 0 0 1 -0 0 1 -0 0 1 -0 0 1 -0 -0 1 -0 -0 1 -0 -0 1 -0 0 1 -0 0 1 -0 0 1 -0 -0 1 -0 -0 1 -0 -0 1 0 0 1 0 0 1 0 0 1 0 0 1 0 0 1 0 0 1 -0 -0 1 -0 -0 1 -0 -0 1 0 0 1 0 0 1 0 0 1 -0 -0 1 -0 -0 1 -0 -0 1 0 -0 1 0 -0 1 0 -0 1 -0 -0 1 -0 -0 1 -0 -0 1 0 0 1 0 0 1 0 0 1 -0 0 1 -0 0 1 -0 0 1 -0 -0 1 -0 -0 1 -0 -0 1 -0 0 1 -0 0 1 -0 0 1 -0 -0 1 -0 -0 1 -0 -0 1 -0 0 1 -0 0 1 -0 0 1 -0 0 1 -0 0 1 -0 0 1 0 0 1 0 0 1 0 0 1 0 -0 -1 0 -0 -1 0 -0 -1 0 0 -1 0 0 -1 0 0 -1 0 -0 -1 0 -0 -1 0 -0 -1 0 0 -1 0 0 -1 0 0 -1 -0 -0 -1 -0 -0 -1 -0 -0 -1 0 0 -1 0 0 -1 0 0 -1 0 0 -1 0 0 -1 0 0 -1 0 -0 -1 0 -0 -1 0 -0 -1 -0 0 -1 -0 0 -1 -0 0 -1 -0 -0 -1 -0 -0 -1 -0 -0 -1 0 0 -1 0 0 -1 0 0 -1 -0 0 -1 -0 0 -1 -0 0 -1 -0 0 -1 -0 0 -1 -0 0 -1 0 0 -1 0 0 -1 0 0 -1 0 0 -1 0 0 -1 0 0 -1 -0 0 -1 -0 0 -1 -0 0 -1 0 0 -1 0 0 -1 0 0 -1 0 0 -1 0 0 -1 0 0 -1 -0 0 -1 -0 0 -1 -0 0 -1 0 0 -1 0 0 -1 0 0 -1 -0 -0 -1 -0 -0 -1 -0 -0 -1 0 -0 -1 0 -0 -1 0 -0 -1 0 -0 -1 0 -0 -1 0 -0 -1 0 0 -1 0 0 -1 0 0 -1 0 -0 -1 0 -0 -1 0 -0 -1 -0 -0 -1 -0 -0 -1 -0 -0 -1 0 0 -1 0 0 -1 0 0 -1 -0 -0 -1 -0 -0 -1 -0 -0 -1 0 0 -1 0 0 -1 0 0 -1 -0 -0 -1 -0 -0 -1 -0 -0 -1 0 0 -1 0 0 -1 0 0 -1 0 0 -1 0 0 -1 0 0 -1 -0 -0 -1 -0 -0 -1 -0 -0 -1 -0 -0 -1 -0 -0 -1 -0 -0 -1 0 0 -1 0 0 -1 0 0 -1 -0 -0 -1 -0 -0 -1 -0 -0 -1 -0 0 -1 -0 0 -1 -0 0 -1 -0 -0 -1 -0 -0 -1 -0 -0 -1 0 0 -1 0 0 -1 0 0 -1 -0 0 -1 -0 0 -1 -0 0 -1 -0 -0 -1 -0 -0 -1 -0 -0 -1 0 0 -1 0 0 -1 0 0 -1 -0 0 -1 -0 0 -1 -0 0 -1 -0 -0 -1 -0 -0 -1 -0 -0 -1 0 0 -1 0 0 -1 0 0 -1 0 0 -1 0 0 -1 0 0 -1 -0 -0 -1 -0 -0 -1 -0 -0 -1 -0 -0 -1 -0 -0 -1 -0 -0 -1 0 0 -1 0 0 -1 0 0 -1 0 0 -1 0 0 -1 0 0 -1 -0 0 -1 -0 0 -1 -0 0 -1 0 0 -1 0 0 -1 0 0 -1 -0 0 -1 -0 0 -1 -0 0 -1 0 0 -1 0 0 -1 0 0 -1 0 0 -1 0 0 -1 0 0 -1 -0 0 -1 -0 0 -1 -0 0 -1 0 0 -1 0 0 -1 0 0 -1 0 -0 -1 0 -0 -1 0 -0 -1 0 -0 -1 0 -0 -1 0 -0 -1 0 0 -1 0 0 -1 0 0 -1 0 -0 -1 0 -0 -1 0 -0 -1 0 0 -1 0 0 -1 0 0 -1 0 0 -1 0 0 -1 0 0 -1 -0 0 -1 -0 0 -1 -0 0 -1 0 0 -1 0 0 -1 0 0 -1 -0 -0 -1 -0 -0 -1 -0 -0 -1 0 0 -1 0 0 -1 0 0 -1 -0 -0 -1 -0 -0 -1 -0 -0 -1 0 0 -1 0 0 -1 0 0 -1 -0 -0 -1 -0 -0 -1 -0 -0 -1 0.0436294191 -0.999047756 0 0.0436294191 -0.999047756 0 0.0436294191 -0.999047756 0 0.0436294191 -0.999047756 0 0.0436294191 -0.999047756 0 0.0436294191 -0.999047756 0 0.130498856 -0.991448462 -0 0.130498856 -0.991448462 -0 0.130498856 -0.991448462 -0 0.130498856 -0.991448462 0 0.130498856 -0.991448462 0 0.130498856 -0.991448462 0 0.216438249 -0.976296306 -0 0.216438249 -0.976296306 -0 0.216438249 -0.976296306 -0 0.216438249 -0.976296306 0 0.216438249 -0.976296306 0 0.216438249 -0.976296306 0 0.300721437 -0.953712046 -0 0.300721437 -0.953712046 -0 0.300721437 -0.953712046 -0 0.300721437 -0.953712046 0 0.300721437 -0.953712046 0 0.300721437 -0.953712046 0 0.382663578 -0.923887789 -0 0.382663578 -0.923887789 -0 0.382663578 -0.923887789 -0 0.382663578 -0.923887789 0 0.382663578 -0.923887789 0 0.382663578 -0.923887789 0 0.46176526 -0.88700217 -0 0.46176526 -0.88700217 -0 0.46176526 -0.88700217 -0 0.46176526 -0.88700217 0 0.46176526 -0.88700217 0 0.46176526 -0.88700217 0 0.537275672 -0.843406677 -0 0.537275672 -0.843406677 -0 0.537275672 -0.843406677 -0 0.537275672 -0.843406677 0 0.537275672 -0.843406677 0 0.537275672 -0.843406677 0 0.608765721 -0.793350041 -0 0.608765721 -0.793350041 -0 0.608765721 -0.793350041 -0 0.608765721 -0.793350041 0 0.608765721 -0.793350041 0 0.608765721 -0.793350041 0 0.675604165 -0.737264514 -0 0.675604165 -0.737264514 -0 0.675604165 -0.737264514 -0 0.675604165 -0.737264514 0 0.675604165 -0.737264514 0 0.675604165 -0.737264514 0 0.737271607 -0.675596416 -0 0.737271607 -0.675596416 -0 0.737271607 -0.675596416 -0 0.737271607 -0.675596416 0 0.737271607 -0.675596416 0 0.737271607 -0.675596416 0 0.793363571 -0.608748078 -0 0.793363571 -0.608748078 -0 0.793363571 -0.608748078 -0 0.793363571 -0.608748078 0 0.793363571 -0.608748078 0 0.793363571 -0.608748078 0 0.843379557 -0.537318289 -0 0.843379557 -0.537318289 -0 0.843379557 -0.537318289 -0 0.843379557 -0.537318289 0 0.843379557 -0.537318289 0 0.843379557 -0.537318289 0 0.887017369 -0.461736083 -0 0.887017369 -0.461736083 -0 0.887017369 -0.461736083 -0 0.887017369 -0.461736083 0 0.887017369 -0.461736083 0 0.887017369 -0.461736083 0 0.923879147 -0.38268438 -0 0.923879147 -0.38268438 -0 0.923879147 -0.38268438 -0 0.923879147 -0.38268438 0 0.923879147 -0.38268438 0 0.923879147 -0.38268438 0 0.95371443 -0.300713837 -0 0.95371443 -0.300713837 -0 0.95371443 -0.300713837 -0 0.95371443 -0.300713837 0 0.95371443 -0.300713837 0 0.95371443 -0.300713837 0 0.976296008 -0.21643953 -0 0.976296008 -0.21643953 -0 0.976296008 -0.21643953 -0 0.976296008 -0.21643953 0 0.976296008 -0.21643953 0 0.976296008 -0.21643953 0 0.991445839 -0.130518898 -0 0.991445839 -0.130518898 -0 0.991445839 -0.130518898 -0 0.991445839 -0.130518898 0 0.991445839 -0.130518898 0 0.991445839 -0.130518898 0 0.999048293 -0.0436177738 -0 0.999048293 -0.0436177738 -0 0.999048293 -0.0436177738 -0 0.999048293 -0.0436177738 0 0.999048293 -0.0436177738 0 0.999048293 -0.0436177738 0 0.999048293 0.0436177738 -0 0.999048293 0.0436177738 -0 0.999048293 0.0436177738 -0 0.999048293 0.0436177738 0 0.999048293 0.0436177738 0 0.999048293 0.0436177738 0 0.991445005 0.130525216 -0 0.991445005 0.130525216 -0 0.991445005 0.130525216 -0 0.991445005 0.130525216 0 0.991445005 0.130525216 0 0.991445005 0.130525216 0 0.976296008 0.21643953 -0 0.976296008 0.21643953 -0 0.976296008 0.21643953 -0 0.976296008 0.21643953 0 0.976296008 0.21643953 0 0.976296008 0.21643953 0 0.953718841 0.30069983 -0 0.953718841 0.30069983 -0 0.953718841 0.30069983 -0 0.953718841 0.30069983 0 0.953718841 0.30069983 0 0.953718841 0.30069983 0 0.923879147 0.38268438 -0 0.923879147 0.38268438 -0 0.923879147 0.38268438 -0 0.923879147 0.38268438 0 0.923879147 0.38268438 0 0.923879147 0.38268438 0 0.887006938 0.461756051 -0 0.887006938 0.461756051 -0 0.887006938 0.461756051 -0 0.887006938 0.461756051 0 0.887006938 0.461756051 0 0.887006938 0.461756051 0 0.843393624 0.537296176 -0 0.843393624 0.537296176 -0 0.843393624 0.537296176 -0 0.843393624 0.537296176 0 0.843393624 0.537296176 0 0.843393624 0.537296176 0 0.793345511 0.608771622 -0 0.793345511 0.608771622 -0 0.793345511 0.608771622 -0 0.793345511 0.608771622 0 0.793345511 0.608771622 0 0.793345511 0.608771622 0 0.737293899 0.675572157 -0 0.737293899 0.675572157 -0 0.737293899 0.675572157 -0 0.737293899 0.675572157 0 0.737293899 0.675572157 0 0.737293899 0.675572157 0 0.675577641 0.737288833 -0 0.675577641 0.737288833 -0 0.675577641 0.737288833 -0 0.675577641 0.737288833 0 0.675577641 0.737288833 0 0.675577641 0.737288833 0 0.608765721 0.793350041 -0 0.608765721 0.793350041 -0 0.608765721 0.793350041 -0 0.608765721 0.793350041 0 0.608765721 0.793350041 0 0.608765721 0.793350041 0 0.537310421 0.843384564 -0 0.537310421 0.843384564 -0 0.537310421 0.843384564 -0 0.537310421 0.843384564 0 0.537310421 0.843384564 0 0.537310421 0.843384564 0 0.461726874 0.887022138 -0 0.461726874 0.887022138 -0 0.461726874 0.887022138 -0 0.461726874 0.887022138 0 0.461726874 0.887022138 0 0.461726874 0.887022138 0 0.382705212 0.923870504 -0 0.382705212 0.923870504 -0 0.382705212 0.923870504 -0 0.382705212 0.923870504 0 0.382705212 0.923870504 0 0.382705212 0.923870504 0 0.300677031 0.953725994 -0 0.300677031 0.953725994 -0 0.300677031 0.953725994 -0 0.300677031 0.953725994 0 0.300677031 0.953725994 0 0.300677031 0.953725994 0 0.216438249 0.976296306 -0 0.216438249 0.976296306 -0 0.216438249 0.976296306 -0 0.216438249 0.976296306 0 0.216438249 0.976296306 0 0.216438249 0.976296306 0 0.130546823 0.991442144 -0 0.130546823 0.991442144 -0 0.130546823 0.991442144 -0 0.130546823 0.991442144 0 0.130546823 0.991442144 0 0.130546823 0.991442144 0 0.0436294191 0.999047756 -0 0.0436294191 0.999047756 -0 0.0436294191 0.999047756 -0 0.0436294191 0.999047756 0 0.0436294191 0.999047756 0 0.0436294191 0.999047756 0 -0.0436294191 0.999047756 0 -0.0436294191 0.999047756 0 -0.0436294191 0.999047756 0 -0.0436294191 0.999047756 0 -0.0436294191 0.999047756 0 -0.0436294191 0.999047756 0 -0.130546823 0.991442144 -0 -0.130546823 0.991442144 -0 -0.130546823 0.991442144 -0 -0.130546823 0.991442144 0 -0.130546823 0.991442144 0 -0.130546823 0.991442144 0 -0.21643953 0.976296008 -0 -0.21643953 0.976296008 -0 -0.21643953 0.976296008 -0 -0.21643953 0.976296008 0 -0.21643953 0.976296008 0 -0.21643953 0.976296008 0 -0.300675303 0.95372659 -0 -0.300675303 0.95372659 -0 -0.300675303 0.95372659 -0 -0.300675303 0.95372659 0 -0.300675303 0.95372659 0 -0.300675303 0.95372659 0 -0.382705212 0.923870504 -0 -0.382705212 0.923870504 -0 -0.382705212 0.923870504 -0 -0.382705212 0.923870504 0 -0.382705212 0.923870504 0 -0.382705212 0.923870504 0 -0.461726874 0.887022138 -0 -0.461726874 0.887022138 -0 -0.461726874 0.887022138 -0 -0.461726874 0.887022138 0 -0.461726874 0.887022138 0 -0.461726874 0.887022138 0 -0.537310421 0.843384564 -0 -0.537310421 0.843384564 -0 -0.537310421 0.843384564 -0 -0.537310421 0.843384564 0 -0.537310421 0.843384564 0 -0.537310421 0.843384564 0 -0.608762801 0.793352306 -0 -0.608762801 0.793352306 -0 -0.608762801 0.793352306 -0 -0.608762801 0.793352306 0 -0.608762801 0.793352306 0 -0.608762801 0.793352306 0 -0.67558068 0.737286031 -0 -0.67558068 0.737286031 -0 -0.67558068 0.737286031 -0 -0.67558068 0.737286031 0 -0.67558068 0.737286031 0 -0.67558068 0.737286031 0 -0.737293899 0.675572157 -0 -0.737293899 0.675572157 -0 -0.737293899 0.675572157 -0 -0.737293899 0.675572157 0 -0.737293899 0.675572157 0 -0.737293899 0.675572157 0 -0.793345511 0.608771622 -0 -0.793345511 0.608771622 -0 -0.793345511 0.608771622 -0 -0.793345511 0.608771622 0 -0.793345511 0.608771622 0 -0.793345511 0.608771622 0 -0.843396366 0.537291884 -0 -0.843396366 0.537291884 -0 -0.843396366 0.537291884 -0 -0.843396366 0.537291884 0 -0.843396366 0.537291884 0 -0.843396366 0.537291884 0 -0.887004435 0.461760849 -0 -0.887004435 0.461760849 -0 -0.887004435 0.461760849 -0 -0.887004435 0.461760849 0 -0.887004435 0.461760849 0 -0.887004435 0.461760849 0 -0.923879147 0.38268438 -0 -0.923879147 0.38268438 -0 -0.923879147 0.38268438 -0 -0.923879147 0.38268438 0 -0.923879147 0.38268438 0 -0.923879147 0.38268438 0 -0.95372057 0.300694287 -0 -0.95372057 0.300694287 -0 -0.95372057 0.300694287 -0 -0.95372057 0.300694287 0 -0.95372057 0.300694287 0 -0.95372057 0.300694287 0 -0.976296008 0.21643953 -0 -0.976296008 0.21643953 -0 -0.976296008 0.21643953 -0 -0.976296008 0.21643953 0 -0.976296008 0.21643953 0 -0.976296008 0.21643953 0 -0.99144423 0.130531207 -0 -0.99144423 0.130531207 -0 -0.99144423 0.130531207 -0 -0.99144423 0.130531207 0 -0.99144423 0.130531207 0 -0.99144423 0.130531207 0 -0.999048293 0.0436177738 -0 -0.999048293 0.0436177738 -0 -0.999048293 0.0436177738 -0 -0.999048293 0.0436177738 0 -0.999048293 0.0436177738 0 -0.999048293 0.0436177738 0 -0.999048293 -0.0436177738 0 -0.999048293 -0.0436177738 0 -0.999048293 -0.0436177738 0 -0.999048293 -0.0436177738 0 -0.999048293 -0.0436177738 0 -0.999048293 -0.0436177738 0 -0.991445005 -0.130524889 0 -0.991445005 -0.130524889 0 -0.991445005 -0.130524889 0 -0.991445005 -0.130524889 0 -0.991445005 -0.130524889 0 -0.991445005 -0.130524889 0 -0.976296008 -0.21643953 0 -0.976296008 -0.21643953 0 -0.976296008 -0.21643953 0 -0.976296008 -0.21643953 0 -0.976296008 -0.21643953 0 -0.976296008 -0.21643953 0 -0.953716159 -0.300708294 0 -0.953716159 -0.300708294 0 -0.953716159 -0.300708294 0 -0.953716159 -0.300708294 0 -0.953716159 -0.300708294 0 -0.953716159 -0.300708294 0 -0.923879147 -0.38268438 0 -0.923879147 -0.38268438 0 -0.923879147 -0.38268438 0 -0.923879147 -0.38268438 0 -0.923879147 -0.38268438 0 -0.923879147 -0.38268438 0 -0.887014866 -0.461740881 0 -0.887014866 -0.461740881 0 -0.887014866 -0.461740881 0 -0.887014866 -0.461740881 0 -0.887014866 -0.461740881 0 -0.887014866 -0.461740881 0 -0.843382299 -0.537313998 0 -0.843382299 -0.537313998 0 -0.843382299 -0.537313998 0 -0.843382299 -0.537313998 0 -0.843382299 -0.537313998 0 -0.843382299 -0.537313998 0 -0.793363571 -0.608748078 0 -0.793363571 -0.608748078 0 -0.793363571 -0.608748078 0 -0.793363571 -0.608748078 0 -0.793363571 -0.608748078 0 -0.793363571 -0.608748078 0 -0.737271607 -0.675596416 0 -0.737271607 -0.675596416 0 -0.737271607 -0.675596416 0 -0.737271607 -0.675596416 0 -0.737271607 -0.675596416 0 -0.737271607 -0.675596416 0 -0.675607204 -0.737261772 0 -0.675607204 -0.737261772 0 -0.675607204 -0.737261772 0 -0.675607204 -0.737261772 0 -0.675607204 -0.737261772 0 -0.675607204 -0.737261772 0 -0.608762801 -0.793352306 0 -0.608762801 -0.793352306 0 -0.608762801 -0.793352306 0 -0.608762801 -0.793352306 0 -0.608762801 -0.793352306 0 -0.608762801 -0.793352306 0 -0.537275672 -0.843406677 0 -0.537275672 -0.843406677 0 -0.537275672 -0.843406677 0 -0.537275672 -0.843406677 0 -0.537275672 -0.843406677 0 -0.537275672 -0.843406677 0 -0.46176526 -0.88700217 0 -0.46176526 -0.88700217 0 -0.46176526 -0.88700217 0 -0.46176526 -0.88700217 0 -0.46176526 -0.88700217 0 -0.46176526 -0.88700217 0 -0.382663578 -0.923887789 0 -0.382663578 -0.923887789 0 -0.382663578 -0.923887789 0 -0.382663578 -0.923887789 0 -0.382663578 -0.923887789 0 -0.382663578 -0.923887789 0 -0.300719678 -0.953712583 0 -0.300719678 -0.953712583 0 -0.300719678 -0.953712583 0 -0.300719678 -0.953712583 0 -0.300719678 -0.953712583 0 -0.300719678 -0.953712583 0 -0.21643953 -0.976296008 0 -0.21643953 -0.976296008 0 -0.21643953 -0.976296008 0 -0.21643953 -0.976296008 0 -0.21643953 -0.976296008 0 -0.21643953 -0.976296008 0 -0.130498856 -0.991448462 0 -0.130498856 -0.991448462 0 -0.130498856 -0.991448462 0 -0.130498856 -0.991448462 0 -0.130498856 -0.991448462 0 -0.130498856 -0.991448462 0 -0.0436294191 -0.999047756 0 -0.0436294191 -0.999047756 0 -0.0436294191 -0.999047756 0 -0.0436294191 -0.999047756 0 -0.0436294191 -0.999047756 0 -0.0436294191 -0.999047756 0 </float_array>
          <technique_common>
            <accessor count="852" offset="0" source="#mesh_0-normals-array" stride="3">
              <param name="X" type="float" />
              <param name="Y" type="float" />
              <param name="Z" type="float" />
            </accessor>
          </technique_common>
        </source>
        <vertices id="mesh_0-vertices">
          <input semantic="POSITION" source="#mesh_0-positions" />
        </vertices>
        <polylist count="284" material="defaultMaterial">
          <input offset="0" semantic="VERTEX" source="#mesh_0-vertices" />
          <input offset="0" semantic="NORMAL" source="#mesh_0-normals" />
          <vcount>3 3 3 3 3 3 3 3 3 3 3 3 3 3 3 3 3 3 3 3 3 3 3 3 3 3 3 3 3 3 3 3 3 3 3 3 3 3 3 3 3 3 3 3 3 3 3 3 3 3 3 3 3 3 3 3 3 3 3 3 3 3 3 3 3 3 3 3 3 3 3 3 3 3 3 3 3 3 3 3 3 3 3 3 3 3 3 3 3 3 3 3 3 3 3 3 3 3 3 3 3 3 3 3 3 3 3 3 3 3 3 3 3 3 3 3 3 3 3 3 3 3 3 3 3 3 3 3 3 3 3 3 3 3 3 3 3 3 3 3 3 3 3 3 3 3 3 3 3 3 3 3 3 3 3 3 3 3 3 3 3 3 3 3 3 3 3 3 3 3 3 3 3 3 3 3 3 3 3 3 3 3 3 3 3 3 3 3 3 3 3 3 3 3 3 3 3 3 3 3 3 3 3 3 3 3 3 3 3 3 3 3 3 3 3 3 3 3 3 3 3 3 3 3 3 3 3 3 3 3 3 3 3 3 3 3 3 3 3 3 3 3 3 3 3 3 3 3 3 3 3 3 3 3 3 3 3 3 3 3 3 3 3 3 3 3 3 3 3 3 3 3 3 3 3 3 3 3 3 3 3 3 3 3 </vcount>
          <p>0 1 2 3 4 5 6 7 8 9 10 11 12 13 14 15 16 17 18 19 20 21 22 23 24 25 26 27 28 29 30 31 32 33 34 35 36 37 38 39 40 41 42 43 44 45 46 47 48 49 50 51 52 53 54 55 56 57 58 59 60 61 62 63 64 65 66 67 68 69 70 71 72 73 74 75 76 77 78 79 80 81 82 83 84 85 86 87 88 89 90 91 92 93 94 95 96 97 98 99 100 101 102 103 104 105 106 107 108 109 110 111 112 113 114 115 116 117 118 119 120 121 122 123 124 125 126 127 128 129 130 131 132 133 134 135 136 137 138 139 140 141 142 143 144 145 146 147 148 149 150 151 152 153 154 155 156 157 158 159 160 161 162 163 164 165 166 167 168 169 170 171 172 173 174 175 176 177 178 179 180 181 182 183 184 185 186 187 188 189 190 191 192 193 194 195 196 197 198 199 200 201 202 203 204 205 206 207 208 209 210 211 212 213 214 215 216 217 218 219 220 221 222 223 224 225 226 227 228 229 230 231 232 233 234 235 236 237 238 239 240 241 242 243 244 245 246 247 248 249 250 251 252 253 254 255 256 257 258 259 260 261 262 263 264 265 266 267 268 269 270 271 272 273 274 275 276 277 278 279 280 281 282 283 284 285 286 287 288 289 290 291 292 293 294 295 296 297 298 299 300 301 302 303 304 305 306 307 308 309 310 311 312 313 314 315 316 317 318 319 320 321 322 323 324 325 326 327 328 329 330 331 332 333 334 335 336 337 338 339 340 341 342 343 344 345 346 347 348 349 350 351 352 353 354 355 356 357 358 359 360 361 362 363 364 365 366 367 368 369 370 371 372 373 374 375 376 377 378 379 380 381 382 383 384 385 386 387 388 389 390 391 392 393 394 395 396 397 398 399 400 401 402 403 404 405 406 407 408 409 410 411 412 413 414 415 416 417 418 419 420 421 422 423 424 425 426 427 428 429 430 431 432 433 434 435 436 437 438 439 440 441 442 443 444 445 446 447 448 449 450 451 452 453 454 455 456 457 458 459 460 461 462 463 464 465 466 467 468 469 470 471 472 473 474 475 476 477 478 479 480 481 482 483 484 485 486 487 488 489 490 491 492 493 494 495 496 497 498 499 500 501 502 503 504 505 506 507 508 509 510 511 512 513 514 515 516 517 518 519 520 521 522 523 524 525 526 527 528 529 530 531 532 533 534 535 536 537 538 539 540 541 542 543 544 545 546 547 548 549 550 551 552 553 554 555 556 557 558 559 560 561 562 563 564 565 566 567 568 569 570 571 572 573 574 575 576 577 578 579 580 581 582 583 584 585 586 587 588 589 590 591 592 593 594 595 596 597 598 599 600 601 602 603 604 605 606 607 608 609 610 611 612 613 614 615 616 617 618 619 620 621 622 623 624 625 626 627 628 629 630 631 632 633 634 635 636 637 638 639 640 641 642 643 644 645 646 647 648 649 650 651 652 653 654 655 656 657 658 659 660 661 662 663 664 665 666 667 668 669 670 671 672 673 674 675 676 677 678 679 680 681 682 683 684 685 686 687 688 689 690 691 692 693 694 695 696 697 698 699 700 701 702 703 704 705 706 707 708 709 710 711 712 713 714 715 716 717 718 719 720 721 722 723 724 725 726 727 728 729 730 731 732 733 734 735 736 737 738 739 740 741 742 743 744 745 746 747 748 749 750 751 752 753 754 755 756 757 758 759 760 761 762 763 764 765 766 767 768 769 770 771 772 773 774 775 776 777 778 779 780 781 782 783 784 785 786 787 788 789 790 791 792 793 794 795 796 797 798 799 800 801 802 803 804 805 806 807 808 809 810 811 812 813 814 815 816 817 818 819 820 821 822 823 824 825 826 827 828 829 830 831 832 833 834 835 836 837 838 839 840 841 842 843 844 845 846 847 848 849 850 851 </p>
        </polylist>
      </mesh>
    </geometry>
  </library_geometries>
  <library_controllers>
  </library_controllers>
  <library_visual_scenes>
    <visual_scene id="_ySTL_BINARY_" name="&lt;STL_BINARY&gt;">
      <node id="node" name="" type="NODE">
        <matrix sid="matrix">1 0 0 0 0 1 0 0 0 0 1 0 0 0 0 1</matrix>
        <instance_geometry url="#mesh_0">
          <bind_material>
            <technique_common>
              <instance_material symbol="defaultMaterial" target="#DefaultMaterial">
              </instance_material>
            </technique_common>
          </bind_material>
        </instance_geometry>
      </node>
    </visual_scene>
  </library_visual_scenes>
  <scene>
    <instance_visual_scene url="#_ySTL_BINARY_" />
  </scene>
</COLLADA>
