<?xml version="1.0" encoding="UTF-8" standalone="no" ?>
<COLLADA xmlns="http://www.collada.org/2005/11/COLLADASchema" version="1.4.1">
  <asset>
    <contributor>
      <author>Assimp</author>
      <authoring_tool>Assimp Exporter</authoring_tool>
    </contributor>
    <created>2025-12-07T16:35:05</created>
    <modified>2025-12-07T16:35:05</modified>
    <unit name="meter" meter="1" />
    <up_axis>Y_UP</up_axis>
  </asset>
  <library_images>
  </library_images>
  <library_effects>
    <effect id="DefaultMaterial-fx" name="DefaultMaterial">
      <profile_COMMON>
        <technique sid="standard">
          <phong>
            <ambient>
              <color sid="ambient">0.0500000007   0.0500000007   0.0500000007   1</color>
            </ambient>
            <diffuse>
              <color sid="diffuse">1   1   1   1</color>
            </diffuse>
            <specular>
              <color sid="specular">1   1   1   1</color>
            </specular>
          </phong>
        </technique>
      </profile_COMMON>
    </effect>
  </library_effects>
  <library_materials>
    <material id="DefaultMaterial" name="DefaultMaterial">
      <instance_effect url="#DefaultMaterial-fx"/>
    </material>
  </library_materials>
  <library_geometries>
    <geometry id="mesh_0" name="" >
      <mesh>
        <source id="mesh_0-positions" name="mesh_0-positions">
          <float_array id="mesh_0-positions-array" count="2556"> 0.00714751147 0.00509115541 0.0440869294 0.00722823292 0.00511652092 0.0440330245 0.00706261536 0.00506447861 0.0420487449 0.00650333753 0.00488873478 0.0419453755 0.006408446 0.00485891663 0.0419584699 0.00697419047 0.00503669214 0.0441716462 0.006408446 0.00485891663 0.0419584699 0.00631500408 0.00482955389 0.0419801846 0.00697419047 0.00503669214 0.0441716462 0.00697419047 0.00503669214 0.0441716462 0.00631500408 0.00482955389 0.0419801846 0.00622372329 0.00480087055 0.042010352 0.00669457624 0.00494882837 0.0442366228 0.00678946776 0.00497864652 0.0442235284 0.00622372329 0.00480087055 0.042010352 0.00678946776 0.00497864652 0.0442235284 0.00688290969 0.0050080088 0.0442018136 0.00622372329 0.00480087055 0.042010352 0.00622372329 0.00480087055 0.042010352 0.00688290969 0.0050080088 0.0442018136 0.00697419047 0.00503669214 0.0441716462 0.00714751147 0.00509115541 0.0440869294 0.00706261536 0.00506447861 0.0420487449 0.00706261536 0.00506447861 0.0441332534 0.00688290969 0.0050080088 0.0419801846 0.00678946776 0.00497864652 0.0419584699 0.00697419047 0.00503669214 0.0441716462 0.0061352984 0.00477308454 0.0441332534 0.00622372329 0.00480087055 0.042010352 0.0061352984 0.00477308454 0.0420487449 0.00706261536 0.00506447861 0.0441332534 0.00706261536 0.00506447861 0.0420487449 0.00697419047 0.00503669214 0.0441716462 0.00706261536 0.00506447861 0.0420487449 0.00697419047 0.00503669214 0.042010352 0.00697419047 0.00503669214 0.0441716462 0.00697419047 0.00503669214 0.0441716462 0.00697419047 0.00503669214 0.042010352 0.00688290969 0.0050080088 0.0419801846 0.00678946776 0.00497864652 0.0419584699 0.00669457624 0.00494882837 0.0419453755 0.00697419047 0.00503669214 0.0441716462 0.00669457624 0.00494882837 0.0419453755 0.00659895688 0.00491878157 0.0419409983 0.00697419047 0.00503669214 0.0441716462 0.00697419047 0.00503669214 0.0441716462 0.00659895688 0.00491878157 0.0419409983 0.00650333753 0.00488873478 0.0419453755 0.0061352984 0.00477308454 0.0441332534 0.00622372329 0.00480087055 0.0441716462 0.00622372329 0.00480087055 0.042010352 0.00622372329 0.00480087055 0.0441716462 0.00631500408 0.00482955389 0.0442018136 0.00622372329 0.00480087055 0.042010352 0.00622372329 0.00480087055 0.042010352 0.00631500408 0.00482955389 0.0442018136 0.006408446 0.00485891663 0.0442235284 0.00730416505 0.0051403814 0.0439719483 0.00722823292 0.00511652092 0.0421489738 0.00722823292 0.00511652092 0.0440330245 0.00722823292 0.00511652092 0.0421489738 0.00714751147 0.00509115541 0.0420950688 0.00722823292 0.00511652092 0.0440330245 0.00722823292 0.00511652092 0.0440330245 0.00714751147 0.00509115541 0.0420950688 0.00706261536 0.00506447861 0.0420487449 0.0061352984 0.00477308454 0.0420487449 0.0060504023 0.00474640727 0.0420950688 0.0061352984 0.00477308454 0.0441332534 0.0060504023 0.00474640727 0.0420950688 0.00596968085 0.00472104223 0.0421489738 0.0061352984 0.00477308454 0.0441332534 0.0061352984 0.00477308454 0.0441332534 0.00596968085 0.00472104223 0.0421489738 0.00589374872 0.00469718175 0.0422100462 0.00589374872 0.00469718175 0.0422100462 0.00582318334 0.00467500789 0.0422778241 0.0061352984 0.00477308454 0.0441332534 0.00582318334 0.00467500789 0.0422778241 0.00575852254 0.00465468923 0.0423517935 0.0061352984 0.00477308454 0.0441332534 0.0061352984 0.00477308454 0.0441332534 0.00575852254 0.00465468923 0.0423517935 0.0060504023 0.00474640727 0.0440869294 0.006408446 0.00485891663 0.0442235284 0.00650333753 0.00488873478 0.0442366228 0.00622372329 0.00480087055 0.042010352 0.00650333753 0.00488873478 0.0442366228 0.00659895688 0.00491878157 0.044241 0.00622372329 0.00480087055 0.042010352 0.00622372329 0.00480087055 0.042010352 0.00659895688 0.00491878157 0.044241 0.00669457624 0.00494882837 0.0442366228 0.00743939122 0.00518287392 0.0438302048 0.00743939122 0.00518287392 0.0423517935 0.00737473043 0.00516255526 0.0422778241 0.00730416505 0.0051403814 0.0439719483 0.00737473043 0.00516255526 0.0439041704 0.00722823292 0.00511652092 0.0421489738 0.00737473043 0.00516255526 0.0439041704 0.00743939122 0.00518287392 0.0438302048 0.00722823292 0.00511652092 0.0421489738 0.00722823292 0.00511652092 0.0421489738 0.00743939122 0.00518287392 0.0438302048 0.00730416505 0.0051403814 0.0422100462 0.00743939122 0.00518287392 0.0438302048 0.00737473043 0.00516255526 0.0422778241 0.00730416505 0.0051403814 0.0422100462 0.00553923054 0.0045857802 0.0433886424 0.00575852254 0.00465468923 0.0423517935 0.00551851513 0.00457927072 0.0432906933 0.00575852254 0.00465468923 0.0423517935 0.00550602237 0.0045753452 0.0431912281 0.00551851513 0.00457927072 0.0432906933 0.00553923054 0.0045857802 0.0433886424 0.0055680112 0.00459482428 0.0434843227 0.00575852254 0.00465468923 0.0423517935 0.0055680112 0.00459482428 0.0434843227 0.00560463825 0.00460633356 0.0435770079 0.00575852254 0.00465468923 0.0423517935 0.00575852254 0.00465468923 0.0423517935 0.00560463825 0.00460633356 0.0435770079 0.0056488323 0.00462022098 0.0436659977 0.00743939122 0.00518287392 0.0438302048 0.00749765616 0.00520118279 0.0437506102 0.00743939122 0.00518287392 0.0423517935 0.00749765616 0.00520118279 0.0437506102 0.00754908146 0.00521734217 0.0436659977 0.00743939122 0.00518287392 0.0423517935 0.00743939122 0.00518287392 0.0423517935 0.00754908146 0.00521734217 0.0436659977 0.00749765616 0.00520118279 0.0424313843 0.00754908146 0.00521734217 0.0436659977 0.00754908146 0.00521734217 0.0425160006 0.00749765616 0.00520118279 0.0424313843 0.00570025761 0.00463638036 0.0424313843 0.00550602237 0.0045753452 0.0429907702 0.00575852254 0.00465468923 0.0423517935 0.00550602237 0.0045753452 0.0429907702 0.00550184771 0.00457403343 0.0430909991 0.00575852254 0.00465468923 0.0423517935 0.00575852254 0.00465468923 0.0423517935 0.00550184771 0.00457403343 0.0430909991 0.00550602237 0.0045753452 0.0431912281 0.0056488323 0.00462022098 0.0436659977 0.00570025761 0.00463638036 0.0437506102 0.00575852254 0.00465468923 0.0423517935 0.00570025761 0.00463638036 0.0437506102 0.00575852254 0.00465468923 0.0438302048 0.00575852254 0.00465468923 0.0423517935 0.00575852254 0.00465468923 0.0423517935 0.00575852254 0.00465468923 0.0438302048 0.00582318334 0.00467500789 0.0439041704 0.00582318334 0.00467500789 0.0439041704 0.00589374872 0.00469718175 0.0439719483 0.00575852254 0.00465468923 0.0423517935 0.00589374872 0.00469718175 0.0439719483 0.00596968085 0.00472104223 0.0440330245 0.00575852254 0.00465468923 0.0423517935 0.00575852254 0.00465468923 0.0423517935 0.00596968085 0.00472104223 0.0440330245 0.0060504023 0.00474640727 0.0440869294 0.00765868276 0.00525178295 0.0433886424 0.00767939864 0.00525829243 0.0432906933 0.0076918914 0.00526221795 0.0431912281 0.00570025761 0.00463638036 0.0424313843 0.0056488323 0.00462022098 0.0425160006 0.00550602237 0.0045753452 0.0429907702 0.0056488323 0.00462022098 0.0425160006 0.00560463825 0.00460633356 0.0426049866 0.00550602237 0.0045753452 0.0429907702 0.00550602237 0.0045753452 0.0429907702 0.00560463825 0.00460633356 0.0426049866 0.00551851513 0.00457927072 0.0428913049 0.00560463825 0.00460633356 0.0426049866 0.0055680112 0.00459482428 0.0426976755 0.00551851513 0.00457927072 0.0428913049 0.00551851513 0.00457927072 0.0428913049 0.0055680112 0.00459482428 0.0426976755 0.00553923054 0.0045857802 0.0427933559 0.00759327551 0.00523122959 0.0435770079 0.0076299021 0.00524273887 0.0434843227 0.0076918914 0.00526221795 0.0429907702 0.0076299021 0.00524273887 0.0434843227 0.00765868276 0.00525178295 0.0433886424 0.0076918914 0.00526221795 0.0429907702 0.0076918914 0.00526221795 0.0429907702 0.00765868276 0.00525178295 0.0433886424 0.00769606605 0.00526352972 0.0430909991 0.00765868276 0.00525178295 0.0433886424 0.0076918914 0.00526221795 0.0431912281 0.00769606605 0.00526352972 0.0430909991 0.00759327551 0.00523122959 0.0435770079 0.0076918914 0.00526221795 0.0429907702 0.00754908146 0.00521734217 0.0436659977 0.0076918914 0.00526221795 0.0429907702 0.00767939864 0.00525829243 0.0428913049 0.00754908146 0.00521734217 0.0436659977 0.00754908146 0.00521734217 0.0436659977 0.00767939864 0.00525829243 0.0428913049 0.00765868276 0.00525178295 0.0427933559 0.00765868276 0.00525178295 0.0427933559 0.0076299021 0.00524273887 0.0426976755 0.00754908146 0.00521734217 0.0436659977 0.0076299021 0.00524273887 0.0426976755 0.00759327551 0.00523122959 0.0426049866 0.00754908146 0.00521734217 0.0436659977 0.00754908146 0.00521734217 0.0436659977 0.00759327551 0.00523122959 0.0426049866 0.00754908146 0.00521734217 0.0425160006 0.00580162881 0.00362002524 0.0430909991 0.00550184771 0.00457403343 0.0430909991 0.00550602237 0.0045753452 0.0429907702 0.00580162881 0.00362002524 0.0430909991 0.00550602237 0.0045753452 0.0429907702 0.00580580346 0.00362133724 0.0429907702 0.00550602237 0.0045753452 0.0429907702 0.00551851513 0.00457927072 0.0428913049 0.00580580346 0.00362133724 0.0429907702 0.00580580346 0.00362133724 0.0429907702 0.00551851513 0.00457927072 0.0428913049 0.00581829622 0.00362526276 0.0428913049 0.00551851513 0.00457927072 0.0428913049 0.00553923054 0.0045857802 0.0427933559 0.00581829622 0.00362526276 0.0428913049 0.00581829622 0.00362526276 0.0428913049 0.00553923054 0.0045857802 0.0427933559 0.00583901163 0.00363177224 0.0427933559 0.00553923054 0.0045857802 0.0427933559 0.0055680112 0.00459482428 0.0426976755 0.00583901163 0.00363177224 0.0427933559 0.00583901163 0.00363177224 0.0427933559 0.0055680112 0.00459482428 0.0426976755 0.00586779229 0.00364081608 0.0426976755 0.0055680112 0.00459482428 0.0426976755 0.00560463825 0.00460633356 0.0426049866 0.00586779229 0.00364081608 0.0426976755 0.00586779229 0.00364081608 0.0426976755 0.00560463825 0.00460633356 0.0426049866 0.00590441935 0.00365232537 0.0426049866 0.00560463825 0.00460633356 0.0426049866 0.0056488323 0.00462022098 0.0425160006 0.00590441935 0.00365232537 0.0426049866 0.00590441935 0.00365232537 0.0426049866 0.0056488323 0.00462022098 0.0425160006 0.0059486134 0.00366621278 0.0425160006 0.0056488323 0.00462022098 0.0425160006 0.00570025761 0.00463638036 0.0424313843 0.0059486134 0.00366621278 0.0425160006 0.0059486134 0.00366621278 0.0425160006 0.00570025761 0.00463638036 0.0424313843 0.0060000387 0.00368237216 0.0424313843 0.00570025761 0.00463638036 0.0424313843 0.00575852254 0.00465468923 0.0423517935 0.0060000387 0.00368237216 0.0424313843 0.0060000387 0.00368237216 0.0424313843 0.00575852254 0.00465468923 0.0423517935 0.00605830364 0.00370068103 0.0423517935 0.00575852254 0.00465468923 0.0423517935 0.00582318334 0.00467500789 0.0422778241 0.00605830364 0.00370068103 0.0423517935 0.00605830364 0.00370068103 0.0423517935 0.00582318334 0.00467500789 0.0422778241 0.00612296443 0.0037209997 0.0422778241 0.00582318334 0.00467500789 0.0422778241 0.00589374872 0.00469718175 0.0422100462 0.00612296443 0.0037209997 0.0422778241 0.00612296443 0.0037209997 0.0422778241 0.00589374872 0.00469718175 0.0422100462 0.00619352981 0.00374317355 0.0422100462 0.00589374872 0.00469718175 0.0422100462 0.00596968085 0.00472104223 0.0421489738 0.00619352981 0.00374317355 0.0422100462 0.00619352981 0.00374317355 0.0422100462 0.00596968085 0.00472104223 0.0421489738 0.00626946194 0.00376703404 0.0421489738 0.00596968085 0.00472104223 0.0421489738 0.0060504023 0.00474640727 0.0420950688 0.00626946194 0.00376703404 0.0421489738 0.00626946194 0.00376703404 0.0421489738 0.0060504023 0.00474640727 0.0420950688 0.00635018339 0.00379239931 0.0420950688 0.0060504023 0.00474640727 0.0420950688 0.0061352984 0.00477308454 0.0420487449 0.00635018339 0.00379239931 0.0420950688 0.00635018339 0.00379239931 0.0420950688 0.0061352984 0.00477308454 0.0420487449 0.0064350795 0.00381907658 0.0420487449 0.0061352984 0.00477308454 0.0420487449 0.00622372329 0.00480087055 0.042010352 0.0064350795 0.00381907658 0.0420487449 0.0064350795 0.00381907658 0.0420487449 0.00622372329 0.00480087055 0.042010352 0.00652350439 0.00384686259 0.042010352 0.00622372329 0.00480087055 0.042010352 0.00631500408 0.00482955389 0.0419801846 0.00652350439 0.00384686259 0.042010352 0.00652350439 0.00384686259 0.042010352 0.00631500408 0.00482955389 0.0419801846 0.00661478518 0.00387554616 0.0419801846 0.00631500408 0.00482955389 0.0419801846 0.006408446 0.00485891663 0.0419584699 0.00661478518 0.00387554616 0.0419801846 0.00661478518 0.00387554616 0.0419801846 0.006408446 0.00485891663 0.0419584699 0.0067082271 0.00390490866 0.0419584699 0.006408446 0.00485891663 0.0419584699 0.00650333753 0.00488873478 0.0419453755 0.0067082271 0.00390490866 0.0419584699 0.0067082271 0.00390490866 0.0419584699 0.00650333753 0.00488873478 0.0419453755 0.00680311862 0.00393472658 0.0419453755 0.00650333753 0.00488873478 0.0419453755 0.00659895688 0.00491878157 0.0419409983 0.00680311862 0.00393472658 0.0419453755 0.00680311862 0.00393472658 0.0419453755 0.00659895688 0.00491878157 0.0419409983 0.00689873798 0.00396477338 0.0419409983 0.00659895688 0.00491878157 0.0419409983 0.00669457624 0.00494882837 0.0419453755 0.00689873798 0.00396477338 0.0419409983 0.00689873798 0.00396477338 0.0419409983 0.00669457624 0.00494882837 0.0419453755 0.00699435733 0.00399482017 0.0419453755 0.00669457624 0.00494882837 0.0419453755 0.00678946776 0.00497864652 0.0419584699 0.00699435733 0.00399482017 0.0419453755 0.00699435733 0.00399482017 0.0419453755 0.00678946776 0.00497864652 0.0419584699 0.00708924886 0.00402463833 0.0419584699 0.00678946776 0.00497864652 0.0419584699 0.00688290969 0.0050080088 0.0419801846 0.00708924886 0.00402463833 0.0419584699 0.00708924886 0.00402463833 0.0419584699 0.00688290969 0.0050080088 0.0419801846 0.00718269078 0.00405400107 0.0419801846 0.00688290969 0.0050080088 0.0419801846 0.00697419047 0.00503669214 0.042010352 0.00718269078 0.00405400107 0.0419801846 0.00718269078 0.00405400107 0.0419801846 0.00697419047 0.00503669214 0.042010352 0.00727397157 0.00408268441 0.042010352 0.00697419047 0.00503669214 0.042010352 0.00706261536 0.00506447861 0.0420487449 0.00727397157 0.00408268441 0.042010352 0.00727397157 0.00408268441 0.042010352 0.00706261536 0.00506447861 0.0420487449 0.00736239646 0.00411047041 0.0420487449 0.00706261536 0.00506447861 0.0420487449 0.00714751147 0.00509115541 0.0420950688 0.00736239646 0.00411047041 0.0420487449 0.00736239646 0.00411047041 0.0420487449 0.00714751147 0.00509115541 0.0420950688 0.00744729256 0.00413714768 0.0420950688 0.00714751147 0.00509115541 0.0420950688 0.00722823292 0.00511652092 0.0421489738 0.00744729256 0.00413714768 0.0420950688 0.00744729256 0.00413714768 0.0420950688 0.00722823292 0.00511652092 0.0421489738 0.00752801402 0.00416251319 0.0421489738 0.00722823292 0.00511652092 0.0421489738 0.00730416505 0.0051403814 0.0422100462 0.00752801402 0.00416251319 0.0421489738 0.00752801402 0.00416251319 0.0421489738 0.00730416505 0.0051403814 0.0422100462 0.00760394614 0.0041863732 0.0422100462 0.00730416505 0.0051403814 0.0422100462 0.00737473043 0.00516255526 0.0422778241 0.00760394614 0.0041863732 0.0422100462 0.00760394614 0.0041863732 0.0422100462 0.00737473043 0.00516255526 0.0422778241 0.00767451106 0.00420854753 0.0422778241 0.00737473043 0.00516255526 0.0422778241 0.00743939122 0.00518287392 0.0423517935 0.00767451106 0.00420854753 0.0422778241 0.00767451106 0.00420854753 0.0422778241 0.00743939122 0.00518287392 0.0423517935 0.00773917232 0.00422886619 0.0423517935 0.00743939122 0.00518287392 0.0423517935 0.00749765616 0.00520118279 0.0424313843 0.00773917232 0.00422886619 0.0423517935 0.00773917232 0.00422886619 0.0423517935 0.00749765616 0.00520118279 0.0424313843 0.00779743725 0.0042471746 0.0424313843 0.00749765616 0.00520118279 0.0424313843 0.00754908146 0.00521734217 0.0425160006 0.00779743725 0.0042471746 0.0424313843 0.00779743725 0.0042471746 0.0424313843 0.00754908146 0.00521734217 0.0425160006 0.00784886256 0.00426333444 0.0425160006 0.00754908146 0.00521734217 0.0425160006 0.00759327551 0.00523122959 0.0426049866 0.00784886256 0.00426333444 0.0425160006 0.00784886256 0.00426333444 0.0425160006 0.00759327551 0.00523122959 0.0426049866 0.00789305661 0.00427722139 0.0426049866 0.00759327551 0.00523122959 0.0426049866 0.0076299021 0.00524273887 0.0426976755 0.00789305661 0.00427722139 0.0426049866 0.00789305661 0.00427722139 0.0426049866 0.0076299021 0.00524273887 0.0426976755 0.00792968366 0.00428873068 0.0426976755 0.0076299021 0.00524273887 0.0426976755 0.00765868276 0.00525178295 0.0427933559 0.00792968366 0.00428873068 0.0426976755 0.00792968366 0.00428873068 0.0426976755 0.00765868276 0.00525178295 0.0427933559 0.00795846432 0.00429777475 0.0427933559 0.00765868276 0.00525178295 0.0427933559 0.00767939864 0.00525829243 0.0428913049 0.00795846432 0.00429777475 0.0427933559 0.00795846432 0.00429777475 0.0427933559 0.00767939864 0.00525829243 0.0428913049 0.00797917973 0.00430428423 0.0428913049 0.00767939864 0.00525829243 0.0428913049 0.0076918914 0.00526221795 0.0429907702 0.00797917973 0.00430428423 0.0428913049 0.00797917973 0.00430428423 0.0428913049 0.0076918914 0.00526221795 0.0429907702 0.00799167249 0.00430820975 0.0429907702 0.0076918914 0.00526221795 0.0429907702 0.00769606605 0.00526352972 0.0430909991 0.00799167249 0.00430820975 0.0429907702 0.00799167249 0.00430820975 0.0429907702 0.00769606605 0.00526352972 0.0430909991 0.00799584668 0.00430952152 0.0430909991 0.00652350439 0.00384686259 0.042010352 0.00661478518 0.00387554616 0.0419801846 0.00727397157 0.00408268441 0.0441716462 0.00661478518 0.00387554616 0.0419801846 0.0067082271 0.00390490866 0.0419584699 0.00727397157 0.00408268441 0.0441716462 0.00727397157 0.00408268441 0.0441716462 0.0067082271 0.00390490866 0.0419584699 0.00680311862 0.00393472658 0.0419453755 0.00727397157 0.00408268441 0.0441716462 0.00718269078 0.00405400107 0.0442018136 0.00652350439 0.00384686259 0.042010352 0.00718269078 0.00405400107 0.0442018136 0.00708924886 0.00402463833 0.0442235284 0.00652350439 0.00384686259 0.042010352 0.00652350439 0.00384686259 0.042010352 0.00708924886 0.00402463833 0.0442235284 0.00699435733 0.00399482017 0.0442366228 0.00626946194 0.00376703404 0.0421489738 0.00635018339 0.00379239931 0.0420950688 0.0064350795 0.00381907658 0.0441332534 0.00635018339 0.00379239931 0.0420950688 0.0064350795 0.00381907658 0.0420487449 0.0064350795 0.00381907658 0.0441332534 0.0064350795 0.00381907658 0.0441332534 0.0064350795 0.00381907658 0.0420487449 0.00652350439 0.00384686259 0.042010352 0.00699435733 0.00399482017 0.0442366228 0.00689873798 0.00396477338 0.044241 0.00652350439 0.00384686259 0.042010352 0.00689873798 0.00396477338 0.044241 0.00680311862 0.00393472658 0.0442366228 0.00652350439 0.00384686259 0.042010352 0.00652350439 0.00384686259 0.042010352 0.00680311862 0.00393472658 0.0442366228 0.0067082271 0.00390490866 0.0442235284 0.0067082271 0.00390490866 0.0442235284 0.00661478518 0.00387554616 0.0442018136 0.00652350439 0.00384686259 0.042010352 0.00661478518 0.00387554616 0.0442018136 0.00652350439 0.00384686259 0.0441716462 0.00652350439 0.00384686259 0.042010352 0.00652350439 0.00384686259 0.042010352 0.00652350439 0.00384686259 0.0441716462 0.0064350795 0.00381907658 0.0441332534 0.00680311862 0.00393472658 0.0419453755 0.00689873798 0.00396477338 0.0419409983 0.00727397157 0.00408268441 0.0441716462 0.00689873798 0.00396477338 0.0419409983 0.00699435733 0.00399482017 0.0419453755 0.00727397157 0.00408268441 0.0441716462 0.00727397157 0.00408268441 0.0441716462 0.00699435733 0.00399482017 0.0419453755 0.00708924886 0.00402463833 0.0419584699 0.00708924886 0.00402463833 0.0419584699 0.00718269078 0.00405400107 0.0419801846 0.00727397157 0.00408268441 0.0441716462 0.00718269078 0.00405400107 0.0419801846 0.00727397157 0.00408268441 0.042010352 0.00727397157 0.00408268441 0.0441716462 0.00727397157 0.00408268441 0.0441716462 0.00727397157 0.00408268441 0.042010352 0.00736239646 0.00411047041 0.0420487449 0.00752801402 0.00416251319 0.0421489738 0.00752801402 0.00416251319 0.0440330245 0.00744729256 0.00413714768 0.0440869294 0.00605830364 0.00370068103 0.0423517935 0.00612296443 0.0037209997 0.0422778241 0.0064350795 0.00381907658 0.0441332534 0.00612296443 0.0037209997 0.0422778241 0.00619352981 0.00374317355 0.0422100462 0.0064350795 0.00381907658 0.0441332534 0.0064350795 0.00381907658 0.0441332534 0.00619352981 0.00374317355 0.0422100462 0.00626946194 0.00376703404 0.0421489738 0.00736239646 0.00411047041 0.0420487449 0.00744729256 0.00413714768 0.0420950688 0.00727397157 0.00408268441 0.0441716462 0.00744729256 0.00413714768 0.0420950688 0.00752801402 0.00416251319 0.0421489738 0.00727397157 0.00408268441 0.0441716462 0.00727397157 0.00408268441 0.0441716462 0.00752801402 0.00416251319 0.0421489738 0.00736239646 0.00411047041 0.0441332534 0.00752801402 0.00416251319 0.0421489738 0.00744729256 0.00413714768 0.0440869294 0.00736239646 0.00411047041 0.0441332534 0.00767451106 0.00420854753 0.0422778241 0.00773917232 0.00422886619 0.0423517935 0.00789305661 0.00427722139 0.0435770079 0.00773917232 0.00422886619 0.0423517935 0.00779743725 0.0042471746 0.0424313843 0.00789305661 0.00427722139 0.0435770079 0.00789305661 0.00427722139 0.0435770079 0.00779743725 0.0042471746 0.0424313843 0.00784886256 0.00426333444 0.0425160006 0.00784886256 0.00426333444 0.0425160006 0.00799167249 0.00430820975 0.0431912281 0.00797917973 0.00430428423 0.0432906933 0.00773917232 0.00422886619 0.0438302048 0.00752801402 0.00416251319 0.0421489738 0.00779743725 0.0042471746 0.0437506102 0.00752801402 0.00416251319 0.0421489738 0.00784886256 0.00426333444 0.0436659977 0.00779743725 0.0042471746 0.0437506102 0.00773917232 0.00422886619 0.0438302048 0.00767451106 0.00420854753 0.0439041704 0.00752801402 0.00416251319 0.0421489738 0.00767451106 0.00420854753 0.0439041704 0.00760394614 0.0041863732 0.0439719483 0.00752801402 0.00416251319 0.0421489738 0.00752801402 0.00416251319 0.0421489738 0.00760394614 0.0041863732 0.0439719483 0.00752801402 0.00416251319 0.0440330245 0.00581829622 0.00362526276 0.0428913049 0.00583901163 0.00363177224 0.0427933559 0.00626946194 0.00376703404 0.0440330245 0.0064350795 0.00381907658 0.0441332534 0.00635018339 0.00379239931 0.0440869294 0.00605830364 0.00370068103 0.0423517935 0.00635018339 0.00379239931 0.0440869294 0.00626946194 0.00376703404 0.0440330245 0.00605830364 0.00370068103 0.0423517935 0.00605830364 0.00370068103 0.0423517935 0.00626946194 0.00376703404 0.0440330245 0.0060000387 0.00368237216 0.0424313843 0.00626946194 0.00376703404 0.0440330245 0.0059486134 0.00366621278 0.0425160006 0.0060000387 0.00368237216 0.0424313843 0.00784886256 0.00426333444 0.0436659977 0.00752801402 0.00416251319 0.0421489738 0.00789305661 0.00427722139 0.0435770079 0.00752801402 0.00416251319 0.0421489738 0.00760394614 0.0041863732 0.0422100462 0.00789305661 0.00427722139 0.0435770079 0.00789305661 0.00427722139 0.0435770079 0.00760394614 0.0041863732 0.0422100462 0.00767451106 0.00420854753 0.0422778241 0.00586779229 0.00364081608 0.0434843227 0.00626946194 0.00376703404 0.0440330245 0.00590441935 0.00365232537 0.0435770079 0.00626946194 0.00376703404 0.0440330245 0.00619352981 0.00374317355 0.0439719483 0.00590441935 0.00365232537 0.0435770079 0.00590441935 0.00365232537 0.0435770079 0.00619352981 0.00374317355 0.0439719483 0.00612296443 0.0037209997 0.0439041704 0.00799167249 0.00430820975 0.0431912281 0.00784886256 0.00426333444 0.0425160006 0.00799584668 0.00430952152 0.0430909991 0.00784886256 0.00426333444 0.0425160006 0.00789305661 0.00427722139 0.0426049866 0.00799584668 0.00430952152 0.0430909991 0.00799584668 0.00430952152 0.0430909991 0.00789305661 0.00427722139 0.0426049866 0.00792968366 0.00428873068 0.0426976755 0.00797917973 0.00430428423 0.0432906933 0.00795846432 0.00429777475 0.0433886424 0.00784886256 0.00426333444 0.0425160006 0.00795846432 0.00429777475 0.0433886424 0.00792968366 0.00428873068 0.0434843227 0.00784886256 0.00426333444 0.0425160006 0.00784886256 0.00426333444 0.0425160006 0.00792968366 0.00428873068 0.0434843227 0.00789305661 0.00427722139 0.0435770079 0.00612296443 0.0037209997 0.0439041704 0.00605830364 0.00370068103 0.0438302048 0.00590441935 0.00365232537 0.0435770079 0.00605830364 0.00370068103 0.0438302048 0.0060000387 0.00368237216 0.0437506102 0.00590441935 0.00365232537 0.0435770079 0.00590441935 0.00365232537 0.0435770079 0.0060000387 0.00368237216 0.0437506102 0.0059486134 0.00366621278 0.0436659977 0.00586779229 0.00364081608 0.0434843227 0.00583901163 0.00363177224 0.0433886424 0.00626946194 0.00376703404 0.0440330245 0.00583901163 0.00363177224 0.0433886424 0.00581829622 0.00362526276 0.0432906933 0.00626946194 0.00376703404 0.0440330245 0.00626946194 0.00376703404 0.0440330245 0.00581829622 0.00362526276 0.0432906933 0.00580580346 0.00362133724 0.0431912281 0.00580580346 0.00362133724 0.0431912281 0.00580162881 0.00362002524 0.0430909991 0.00626946194 0.00376703404 0.0440330245 0.00580162881 0.00362002524 0.0430909991 0.00580580346 0.00362133724 0.0429907702 0.00626946194 0.00376703404 0.0440330245 0.00626946194 0.00376703404 0.0440330245 0.00580580346 0.00362133724 0.0429907702 0.00581829622 0.00362526276 0.0428913049 0.00583901163 0.00363177224 0.0427933559 0.00586779229 0.00364081608 0.0426976755 0.00626946194 0.00376703404 0.0440330245 0.00586779229 0.00364081608 0.0426976755 0.00590441935 0.00365232537 0.0426049866 0.00626946194 0.00376703404 0.0440330245 0.00626946194 0.00376703404 0.0440330245 0.00590441935 0.00365232537 0.0426049866 0.0059486134 0.00366621278 0.0425160006 0.00792968366 0.00428873068 0.0426976755 0.00795846432 0.00429777475 0.0427933559 0.00799584668 0.00430952152 0.0430909991 0.00795846432 0.00429777475 0.0427933559 0.00797917973 0.00430428423 0.0428913049 0.00799584668 0.00430952152 0.0430909991 0.00799584668 0.00430952152 0.0430909991 0.00797917973 0.00430428423 0.0428913049 0.00799167249 0.00430820975 0.0429907702 0.00799584668 0.00430952152 0.0430909991 0.00769606605 0.00526352972 0.0430909991 0.0076918914 0.00526221795 0.0431912281 0.00799584668 0.00430952152 0.0430909991 0.0076918914 0.00526221795 0.0431912281 0.00799167249 0.00430820975 0.0431912281 0.0076918914 0.00526221795 0.0431912281 0.00767939864 0.00525829243 0.0432906933 0.00799167249 0.00430820975 0.0431912281 0.00799167249 0.00430820975 0.0431912281 0.00767939864 0.00525829243 0.0432906933 0.00797917973 0.00430428423 0.0432906933 0.00767939864 0.00525829243 0.0432906933 0.00765868276 0.00525178295 0.0433886424 0.00797917973 0.00430428423 0.0432906933 0.00797917973 0.00430428423 0.0432906933 0.00765868276 0.00525178295 0.0433886424 0.00795846432 0.00429777475 0.0433886424 0.00765868276 0.00525178295 0.0433886424 0.0076299021 0.00524273887 0.0434843227 0.00795846432 0.00429777475 0.0433886424 0.00795846432 0.00429777475 0.0433886424 0.0076299021 0.00524273887 0.0434843227 0.00792968366 0.00428873068 0.0434843227 0.0076299021 0.00524273887 0.0434843227 0.00759327551 0.00523122959 0.0435770079 0.00792968366 0.00428873068 0.0434843227 0.00792968366 0.00428873068 0.0434843227 0.00759327551 0.00523122959 0.0435770079 0.00789305661 0.00427722139 0.0435770079 0.00759327551 0.00523122959 0.0435770079 0.00754908146 0.00521734217 0.0436659977 0.00789305661 0.00427722139 0.0435770079 0.00789305661 0.00427722139 0.0435770079 0.00754908146 0.00521734217 0.0436659977 0.00784886256 0.00426333444 0.0436659977 0.00754908146 0.00521734217 0.0436659977 0.00749765616 0.00520118279 0.0437506102 0.00784886256 0.00426333444 0.0436659977 0.00784886256 0.00426333444 0.0436659977 0.00749765616 0.00520118279 0.0437506102 0.00779743725 0.0042471746 0.0437506102 0.00749765616 0.00520118279 0.0437506102 0.00743939122 0.00518287392 0.0438302048 0.00779743725 0.0042471746 0.0437506102 0.00779743725 0.0042471746 0.0437506102 0.00743939122 0.00518287392 0.0438302048 0.00773917232 0.00422886619 0.0438302048 0.00743939122 0.00518287392 0.0438302048 0.00737473043 0.00516255526 0.0439041704 0.00773917232 0.00422886619 0.0438302048 0.00773917232 0.00422886619 0.0438302048 0.00737473043 0.00516255526 0.0439041704 0.00767451106 0.00420854753 0.0439041704 0.00737473043 0.00516255526 0.0439041704 0.00730416505 0.0051403814 0.0439719483 0.00767451106 0.00420854753 0.0439041704 0.00767451106 0.00420854753 0.0439041704 0.00730416505 0.0051403814 0.0439719483 0.00760394614 0.0041863732 0.0439719483 0.00730416505 0.0051403814 0.0439719483 0.00722823292 0.00511652092 0.0440330245 0.00760394614 0.0041863732 0.0439719483 0.00760394614 0.0041863732 0.0439719483 0.00722823292 0.00511652092 0.0440330245 0.00752801402 0.00416251319 0.0440330245 0.00722823292 0.00511652092 0.0440330245 0.00714751147 0.00509115541 0.0440869294 0.00752801402 0.00416251319 0.0440330245 0.00752801402 0.00416251319 0.0440330245 0.00714751147 0.00509115541 0.0440869294 0.00744729256 0.00413714768 0.0440869294 0.00714751147 0.00509115541 0.0440869294 0.00706261536 0.00506447861 0.0441332534 0.00744729256 0.00413714768 0.0440869294 0.00744729256 0.00413714768 0.0440869294 0.00706261536 0.00506447861 0.0441332534 0.00736239646 0.00411047041 0.0441332534 0.00706261536 0.00506447861 0.0441332534 0.00697419047 0.00503669214 0.0441716462 0.00736239646 0.00411047041 0.0441332534 0.00736239646 0.00411047041 0.0441332534 0.00697419047 0.00503669214 0.0441716462 0.00727397157 0.00408268441 0.0441716462 0.00697419047 0.00503669214 0.0441716462 0.00688290969 0.0050080088 0.0442018136 0.00727397157 0.00408268441 0.0441716462 0.00727397157 0.00408268441 0.0441716462 0.00688290969 0.0050080088 0.0442018136 0.00718269078 0.00405400107 0.0442018136 0.00688290969 0.0050080088 0.0442018136 0.00678946776 0.00497864652 0.0442235284 0.00718269078 0.00405400107 0.0442018136 0.00718269078 0.00405400107 0.0442018136 0.00678946776 0.00497864652 0.0442235284 0.00708924886 0.00402463833 0.0442235284 0.00678946776 0.00497864652 0.0442235284 0.00669457624 0.00494882837 0.0442366228 0.00708924886 0.00402463833 0.0442235284 0.00708924886 0.00402463833 0.0442235284 0.00669457624 0.00494882837 0.0442366228 0.00699435733 0.00399482017 0.0442366228 0.00669457624 0.00494882837 0.0442366228 0.00659895688 0.00491878157 0.044241 0.00699435733 0.00399482017 0.0442366228 0.00699435733 0.00399482017 0.0442366228 0.00659895688 0.00491878157 0.044241 0.00689873798 0.00396477338 0.044241 0.00659895688 0.00491878157 0.044241 0.00650333753 0.00488873478 0.0442366228 0.00689873798 0.00396477338 0.044241 0.00689873798 0.00396477338 0.044241 0.00650333753 0.00488873478 0.0442366228 0.00680311862 0.00393472658 0.0442366228 0.00650333753 0.00488873478 0.0442366228 0.006408446 0.00485891663 0.0442235284 0.00680311862 0.00393472658 0.0442366228 0.00680311862 0.00393472658 0.0442366228 0.006408446 0.00485891663 0.0442235284 0.0067082271 0.00390490866 0.0442235284 0.006408446 0.00485891663 0.0442235284 0.00631500408 0.00482955389 0.0442018136 0.0067082271 0.00390490866 0.0442235284 0.0067082271 0.00390490866 0.0442235284 0.00631500408 0.00482955389 0.0442018136 0.00661478518 0.00387554616 0.0442018136 0.00631500408 0.00482955389 0.0442018136 0.00622372329 0.00480087055 0.0441716462 0.00661478518 0.00387554616 0.0442018136 0.00661478518 0.00387554616 0.0442018136 0.00622372329 0.00480087055 0.0441716462 0.00652350439 0.00384686259 0.0441716462 0.00622372329 0.00480087055 0.0441716462 0.0061352984 0.00477308454 0.0441332534 0.00652350439 0.00384686259 0.0441716462 0.00652350439 0.00384686259 0.0441716462 0.0061352984 0.00477308454 0.0441332534 0.0064350795 0.00381907658 0.0441332534 0.0061352984 0.00477308454 0.0441332534 0.0060504023 0.00474640727 0.0440869294 0.0064350795 0.00381907658 0.0441332534 0.0064350795 0.00381907658 0.0441332534 0.0060504023 0.00474640727 0.0440869294 0.00635018339 0.00379239931 0.0440869294 0.0060504023 0.00474640727 0.0440869294 0.00596968085 0.00472104223 0.0440330245 0.00635018339 0.00379239931 0.0440869294 0.00635018339 0.00379239931 0.0440869294 0.00596968085 0.00472104223 0.0440330245 0.00626946194 0.00376703404 0.0440330245 0.00596968085 0.00472104223 0.0440330245 0.00589374872 0.00469718175 0.0439719483 0.00626946194 0.00376703404 0.0440330245 0.00626946194 0.00376703404 0.0440330245 0.00589374872 0.00469718175 0.0439719483 0.00619352981 0.00374317355 0.0439719483 0.00589374872 0.00469718175 0.0439719483 0.00582318334 0.00467500789 0.0439041704 0.00619352981 0.00374317355 0.0439719483 0.00619352981 0.00374317355 0.0439719483 0.00582318334 0.00467500789 0.0439041704 0.00612296443 0.0037209997 0.0439041704 0.00582318334 0.00467500789 0.0439041704 0.00575852254 0.00465468923 0.0438302048 0.00612296443 0.0037209997 0.0439041704 0.00612296443 0.0037209997 0.0439041704 0.00575852254 0.00465468923 0.0438302048 0.00605830364 0.00370068103 0.0438302048 0.00575852254 0.00465468923 0.0438302048 0.00570025761 0.00463638036 0.0437506102 0.00605830364 0.00370068103 0.0438302048 0.00605830364 0.00370068103 0.0438302048 0.00570025761 0.00463638036 0.0437506102 0.0060000387 0.00368237216 0.0437506102 0.00570025761 0.00463638036 0.0437506102 0.0056488323 0.00462022098 0.0436659977 0.0060000387 0.00368237216 0.0437506102 0.0060000387 0.00368237216 0.0437506102 0.0056488323 0.00462022098 0.0436659977 0.0059486134 0.00366621278 0.0436659977 0.0056488323 0.00462022098 0.0436659977 0.00560463825 0.00460633356 0.0435770079 0.0059486134 0.00366621278 0.0436659977 0.0059486134 0.00366621278 0.0436659977 0.00560463825 0.00460633356 0.0435770079 0.00590441935 0.00365232537 0.0435770079 0.00560463825 0.00460633356 0.0435770079 0.0055680112 0.00459482428 0.0434843227 0.00590441935 0.00365232537 0.0435770079 0.00590441935 0.00365232537 0.0435770079 0.0055680112 0.00459482428 0.0434843227 0.00586779229 0.00364081608 0.0434843227 0.0055680112 0.00459482428 0.0434843227 0.00553923054 0.0045857802 0.0433886424 0.00586779229 0.00364081608 0.0434843227 0.00586779229 0.00364081608 0.0434843227 0.00553923054 0.0045857802 0.0433886424 0.00583901163 0.00363177224 0.0433886424 0.00553923054 0.0045857802 0.0433886424 0.00551851513 0.00457927072 0.0432906933 0.00583901163 0.00363177224 0.0433886424 0.00583901163 0.00363177224 0.0433886424 0.00551851513 0.00457927072 0.0432906933 0.00581829622 0.00362526276 0.0432906933 0.00551851513 0.00457927072 0.0432906933 0.00550602237 0.0045753452 0.0431912281 0.00581829622 0.00362526276 0.0432906933 0.00581829622 0.00362526276 0.0432906933 0.00550602237 0.0045753452 0.0431912281 0.00580580346 0.00362133724 0.0431912281 0.00550602237 0.0045753452 0.0431912281 0.00550184771 0.00457403343 0.0430909991 0.00580580346 0.00362133724 0.0431912281 0.00580580346 0.00362133724 0.0431912281 0.00550184771 0.00457403343 0.0430909991 0.00580162881 0.00362002524 0.0430909991 </float_array>
          <technique_common>
            <accessor count="852" offset="0" source="#mesh_0-positions-array" stride="3">
              <param name="X" type="float" />
              <param name="Y" type="float" />
              <param name="Z" type="float" />
            </accessor>
          </technique_common>
        </source>
        <source id="mesh_0-normals" name="mesh_0-normals">
          <float_array id="mesh_0-normals-array" count="2556"> -0.299782366 0.954007626 2.36729534e-07 -0.299782366 0.954007626 2.36729534e-07 -0.299782366 0.954007626 2.36729534e-07 -0.29978177 0.954007804 2.93487233e-07 -0.29978177 0.954007804 2.93487233e-07 -0.29978177 0.954007804 2.93487233e-07 -0.299782604 0.954007566 5.28632199e-07 -0.299782604 0.954007566 5.28632199e-07 -0.299782604 0.954007566 5.28632199e-07 -0.299780011 0.954008341 -3.30537716e-07 -0.299780011 0.954008341 -3.30537716e-07 -0.299780011 0.954008341 -3.30537716e-07 -0.299781799 0.954007804 9.95994398e-08 -0.299781799 0.954007804 9.95994398e-08 -0.299781799 0.954007804 9.95994398e-08 -0.299778551 0.954008818 -8.07997424e-07 -0.299778551 0.954008818 -8.07997424e-07 -0.299778551 0.954008818 -8.07997424e-07 -0.299780011 0.954008341 -3.30537716e-07 -0.299780011 0.954008341 -3.30537716e-07 -0.299780011 0.954008341 -3.30537716e-07 -0.29977721 0.954009235 0 -0.29977721 0.954009235 0 -0.29977721 0.954009235 0 -0.299778372 0.954008877 -7.00653402e-08 -0.299778372 0.954008877 -7.00653402e-08 -0.299778372 0.954008877 -7.00653402e-08 -0.299780756 0.954008102 0 -0.299780756 0.954008102 0 -0.299780756 0.954008102 0 -0.299785316 0.954006672 0 -0.299785316 0.954006672 0 -0.299785316 0.954006672 0 -0.299785316 0.954006672 -0 -0.299785316 0.954006672 -0 -0.299785316 0.954006672 -0 -0.299779892 0.9540084 0 -0.299779892 0.9540084 0 -0.299779892 0.9540084 0 -0.299781829 0.954007804 2.47302836e-07 -0.299781829 0.954007804 2.47302836e-07 -0.299781829 0.954007804 2.47302836e-07 -0.299781173 0.954007983 1.57604902e-07 -0.299781173 0.954007983 1.57604902e-07 -0.299781173 0.954007983 1.57604902e-07 -0.299781173 0.954007983 1.55196162e-07 -0.299781173 0.954007983 1.55196162e-07 -0.299781173 0.954007983 1.55196162e-07 -0.299780756 0.954008102 0 -0.299780756 0.954008102 0 -0.299780756 0.954008102 0 -0.299779892 0.9540084 -0 -0.299779892 0.9540084 -0 -0.299779892 0.9540084 -0 -0.299782723 0.954007506 1.29897899e-07 -0.299782723 0.954007506 1.29897899e-07 -0.299782723 0.954007506 1.29897899e-07 -0.299782008 0.954007745 0 -0.299782008 0.954007745 0 -0.299782008 0.954007745 0 -0.299782515 0.954007566 -0 -0.299782515 0.954007566 -0 -0.299782515 0.954007566 -0 -0.299777091 0.954009295 -2.48973862e-07 -0.299777091 0.954009295 -2.48973862e-07 -0.299777091 0.954009295 -2.48973862e-07 -0.299781978 0.954007745 0 -0.299781978 0.954007745 0 -0.299781978 0.954007745 0 -0.299777627 0.954009116 -1.98362471e-07 -0.299777627 0.954009116 -1.98362471e-07 -0.299777627 0.954009116 -1.98362471e-07 -0.299781889 0.954007745 1.91395699e-07 -0.299781889 0.954007745 1.91395699e-07 -0.299781889 0.954007745 1.91395699e-07 -0.299779564 0.95400852 -1.28633587e-07 -0.299779564 0.95400852 -1.28633587e-07 -0.299779564 0.95400852 -1.28633587e-07 -0.299781948 0.954007745 3.15034384e-07 -0.299781948 0.954007745 3.15034384e-07 -0.299781948 0.954007745 3.15034384e-07 -0.299782157 0.954007685 3.56884129e-07 -0.299782157 0.954007685 3.56884129e-07 -0.299782157 0.954007685 3.56884129e-07 -0.299781799 0.954007804 4.42368844e-08 -0.299781799 0.954007804 4.42368844e-08 -0.299781799 0.954007804 4.42368844e-08 -0.299781173 0.954007983 -4.30955573e-08 -0.299781173 0.954007983 -4.30955573e-08 -0.299781173 0.954007983 -4.30955573e-08 -0.299781173 0.954007983 -4.24369091e-08 -0.299781173 0.954007983 -4.24369091e-08 -0.299781173 0.954007983 -4.24369091e-08 -0.299782306 0.954007626 0 -0.299782306 0.954007626 0 -0.299782306 0.954007626 0 -0.299779534 0.95400852 -1.13164901e-07 -0.299779534 0.95400852 -1.13164901e-07 -0.299779534 0.95400852 -1.13164901e-07 -0.299782157 0.954007685 1.26238731e-07 -0.299782157 0.954007685 1.26238731e-07 -0.299782157 0.954007685 1.26238731e-07 -0.299782097 0.954007685 1.19264215e-07 -0.299782097 0.954007685 1.19264215e-07 -0.299782097 0.954007685 1.19264215e-07 -0.299779326 0.954008579 -1.35433481e-07 -0.299779326 0.954008579 -1.35433481e-07 -0.299779326 0.954008579 -1.35433481e-07 -0.299781591 0.954007864 3.9545327e-08 -0.299781591 0.954007864 3.9545327e-08 -0.299781591 0.954007864 3.9545327e-08 -0.299778849 0.954008698 8.1185533e-07 -0.299778849 0.954008698 8.1185533e-07 -0.299778849 0.954008698 8.1185533e-07 -0.299785465 0.954006672 -8.59190891e-07 -0.299785465 0.954006672 -8.59190891e-07 -0.299785465 0.954006672 -8.59190891e-07 -0.299778432 0.954008877 4.43490819e-07 -0.299778432 0.954008877 4.43490819e-07 -0.299778432 0.954008877 4.43490819e-07 -0.299783945 0.954007149 -3.17472995e-07 -0.299783945 0.954007149 -3.17472995e-07 -0.299783945 0.954007149 -3.17472995e-07 -0.299782395 0.954007626 0 -0.299782395 0.954007626 0 -0.299782395 0.954007626 0 -0.299778551 0.954008818 -1.74893302e-07 -0.299778551 0.954008818 -1.74893302e-07 -0.299778551 0.954008818 -1.74893302e-07 -0.299782634 0.954007506 1.98153558e-07 -0.299782634 0.954007506 1.98153558e-07 -0.299782634 0.954007506 1.98153558e-07 -0.299778312 0.954008877 -0 -0.299778312 0.954008877 -0 -0.299778312 0.954008877 -0 -0.299783647 0.954007208 -1.01844489e-06 -0.299783647 0.954007208 -1.01844489e-06 -0.299783647 0.954007208 -1.01844489e-06 -0.299782485 0.954007566 -5.14146052e-07 -0.299782485 0.954007566 -5.14146052e-07 -0.299782485 0.954007566 -5.14146052e-07 -0.299780071 0.954008341 4.04011161e-07 -0.299780071 0.954008341 4.04011161e-07 -0.299780071 0.954008341 4.04011161e-07 -0.299778551 0.954008818 1.74893302e-07 -0.299778551 0.954008818 1.74893302e-07 -0.299778551 0.954008818 1.74893302e-07 -0.299782395 0.954007626 -0 -0.299782395 0.954007626 -0 -0.299782395 0.954007626 -0 -0.299782306 0.954007626 0 -0.299782306 0.954007626 0 -0.299782306 0.954007626 0 -0.299779326 0.954008579 -1.35433822e-07 -0.299779326 0.954008579 -1.35433822e-07 -0.299779326 0.954008579 -1.35433822e-07 -0.299782097 0.954007685 1.19265025e-07 -0.299782097 0.954007685 1.19265025e-07 -0.299782097 0.954007685 1.19265025e-07 -0.29977718 0.954009235 -5.6243465e-07 -0.29977718 0.954009235 -5.6243465e-07 -0.29977718 0.954009235 -5.6243465e-07 -0.2997787 0.954008758 -7.91523007e-07 -0.2997787 0.954008758 -7.91523007e-07 -0.2997787 0.954008758 -7.91523007e-07 -0.299774736 0.95401001 2.38532243e-06 -0.299774736 0.95401001 2.38532243e-06 -0.299774736 0.95401001 2.38532243e-06 -0.299788445 0.954005718 -2.15185128e-06 -0.299788445 0.954005718 -2.15185128e-06 -0.299788445 0.954005718 -2.15185128e-06 -0.299788356 0.954005718 -2.12433201e-06 -0.299788356 0.954005718 -2.12433201e-06 -0.299788356 0.954005718 -2.12433201e-06 -0.299762934 0.954013705 6.27659892e-06 -0.299762934 0.954013705 6.27659892e-06 -0.299762934 0.954013705 6.27659892e-06 -0.299803793 0.95400089 -5.19475179e-06 -0.299803793 0.95400089 -5.19475179e-06 -0.299803793 0.95400089 -5.19475179e-06 -0.299780905 0.954008043 -2.23279599e-08 -0.299780905 0.954008043 -2.23279599e-08 -0.299780905 0.954008043 -2.23279599e-08 -0.299793303 0.954004169 -1.73212118e-06 -0.299793303 0.954004169 -1.73212118e-06 -0.299793303 0.954004169 -1.73212118e-06 -0.299773365 0.954010427 9.66044453e-08 -0.299773365 0.954010427 9.66044453e-08 -0.299773365 0.954010427 9.66044453e-08 -0.299775451 0.954009771 -1.92467539e-07 -0.299775451 0.954009771 -1.92467539e-07 -0.299775451 0.954009771 -1.92467539e-07 -0.299786419 0.954006314 -1.03921275e-06 -0.299786419 0.954006314 -1.03921275e-06 -0.299786419 0.954006314 -1.03921275e-06 -0.29977861 0.954008818 7.77578464e-07 -0.29977861 0.954008818 7.77578464e-07 -0.29977861 0.954008818 7.77578464e-07 -0.29977861 0.954008818 7.73353577e-07 -0.29977861 0.954008818 7.73353577e-07 -0.29977861 0.954008818 7.73353577e-07 -0.299786925 0.954006195 -3.73665756e-07 -0.299786925 0.954006195 -3.73665756e-07 -0.299786925 0.954006195 -3.73665756e-07 -0.299781203 0.954007983 1.51061499e-07 -0.299781203 0.954007983 1.51061499e-07 -0.299781203 0.954007983 1.51061499e-07 -0.299784511 0.95400697 0 -0.299784511 0.95400697 0 -0.299784511 0.95400697 0 -0.953100085 -0.299495757 -0.0436174609 -0.953100085 -0.299495757 -0.0436174609 -0.953100085 -0.299495757 -0.0436174609 -0.953100085 -0.299495816 -0.0436181538 -0.953100085 -0.299495816 -0.0436181538 -0.953100085 -0.299495816 -0.0436181538 -0.94584614 -0.297216386 -0.130527601 -0.94584614 -0.297216386 -0.130527601 -0.94584614 -0.297216386 -0.130527601 -0.94584614 -0.297216386 -0.130527601 -0.94584614 -0.297216386 -0.130527601 -0.94584614 -0.297216386 -0.130527601 -0.93139559 -0.292675555 -0.216432974 -0.93139559 -0.292675555 -0.216432974 -0.93139559 -0.292675555 -0.216432974 -0.93139559 -0.292675555 -0.216432974 -0.93139559 -0.292675555 -0.216432974 -0.93139559 -0.292675555 -0.216432974 -0.909852743 -0.285906047 -0.300708741 -0.909852743 -0.285906047 -0.300708741 -0.909852743 -0.285906047 -0.300708741 -0.909852922 -0.285906047 -0.300708115 -0.909852922 -0.285906047 -0.300708115 -0.909852922 -0.285906047 -0.300708115 -0.88138932 -0.276961833 -0.38268131 -0.88138932 -0.276961833 -0.38268131 -0.88138932 -0.276961833 -0.38268131 -0.88138932 -0.276961833 -0.38268131 -0.88138932 -0.276961833 -0.38268131 -0.88138932 -0.276961833 -0.38268131 -0.846209705 -0.265907228 -0.461760223 -0.846209705 -0.265907228 -0.461760223 -0.846209705 -0.265907228 -0.461760223 -0.846209705 -0.265907228 -0.461760223 -0.846209705 -0.265907228 -0.461760223 -0.846209705 -0.265907228 -0.461760223 -0.804611087 -0.252835572 -0.53728497 -0.804611087 -0.252835572 -0.53728497 -0.804611087 -0.252835572 -0.53728497 -0.804611087 -0.252835572 -0.53728497 -0.804611087 -0.252835572 -0.53728497 -0.804611087 -0.252835572 -0.53728497 -0.756857753 -0.237829864 -0.60877198 -0.756857753 -0.237829864 -0.60877198 -0.756857753 -0.237829864 -0.60877198 -0.756857753 -0.237829864 -0.60877198 -0.756857753 -0.237829864 -0.60877198 -0.756857753 -0.237829864 -0.60877198 -0.703379691 -0.221025288 -0.675577402 -0.703379691 -0.221025288 -0.675577402 -0.703379691 -0.221025288 -0.675577402 -0.703379691 -0.221025288 -0.675577402 -0.703379691 -0.221025288 -0.675577402 -0.703379691 -0.221025288 -0.675577402 -0.644515574 -0.202528238 -0.73728013 -0.644515574 -0.202528238 -0.73728013 -0.644515574 -0.202528238 -0.73728013 -0.644515574 -0.202528238 -0.73728013 -0.644515574 -0.202528238 -0.73728013 -0.644515574 -0.202528238 -0.73728013 -0.580755651 -0.182492733 -0.793359518 -0.580755651 -0.182492733 -0.793359518 -0.580755651 -0.182492733 -0.793359518 -0.580755651 -0.182492733 -0.793359518 -0.580755651 -0.182492733 -0.793359518 -0.580755651 -0.182492733 -0.793359518 -0.512592256 -0.161073521 -0.843388677 -0.512592256 -0.161073521 -0.843388677 -0.512592256 -0.161073521 -0.843388677 -0.512591958 -0.161073461 -0.843388915 -0.512591958 -0.161073461 -0.843388915 -0.512591958 -0.161073461 -0.843388915 -0.440506577 -0.138421848 -0.887013733 -0.440506577 -0.138421848 -0.887013733 -0.440506577 -0.138421848 -0.887013733 -0.440506577 -0.138421848 -0.887013733 -0.440506577 -0.138421848 -0.887013733 -0.440506577 -0.138421848 -0.887013733 -0.365085572 -0.114722051 -0.923878431 -0.365085572 -0.114722051 -0.923878431 -0.365085572 -0.114722051 -0.923878431 -0.365085572 -0.114722051 -0.923878431 -0.365085572 -0.114722051 -0.923878431 -0.365085572 -0.114722051 -0.923878431 -0.286868781 -0.0901437327 -0.953719258 -0.286868781 -0.0901437327 -0.953719258 -0.286868781 -0.0901437327 -0.953719258 -0.286868572 -0.090143688 -0.953719318 -0.286868572 -0.090143688 -0.953719318 -0.286868572 -0.090143688 -0.953719318 -0.20648919 -0.0648858026 -0.976295054 -0.20648919 -0.0648858026 -0.976295054 -0.20648919 -0.0648858026 -0.976295054 -0.206489325 -0.0648858324 -0.976295054 -0.206489325 -0.0648858324 -0.976295054 -0.206489325 -0.0648858324 -0.976295054 -0.124517635 -0.039127592 -0.991445601 -0.124517635 -0.039127592 -0.991445601 -0.124517635 -0.039127592 -0.991445601 -0.124517724 -0.0391276069 -0.991445601 -0.124517724 -0.0391276069 -0.991445601 -0.124517724 -0.0391276069 -0.991445601 -0.0416238718 -0.0130796041 -0.999047756 -0.0416238718 -0.0130796041 -0.999047756 -0.0416238718 -0.0130796041 -0.999047756 -0.0416238718 -0.0130796041 -0.999047756 -0.0416238718 -0.0130796041 -0.999047756 -0.0416238718 -0.0130796041 -0.999047756 0.0416238718 0.0130796041 -0.999047756 0.0416238718 0.0130796041 -0.999047756 0.0416238718 0.0130796041 -0.999047756 0.0416238718 0.0130796041 -0.999047756 0.0416238718 0.0130796041 -0.999047756 0.0416238718 0.0130796041 -0.999047756 0.124517635 0.0391275808 -0.991445601 0.124517635 0.0391275808 -0.991445601 0.124517635 0.0391275808 -0.991445601 0.124517635 0.0391275808 -0.991445601 0.124517635 0.0391275808 -0.991445601 0.124517635 0.0391275808 -0.991445601 0.206489474 0.0648858622 -0.976294994 0.206489474 0.0648858622 -0.976294994 0.206489474 0.0648858622 -0.976294994 0.20648919 0.0648858026 -0.976295054 0.20648919 0.0648858026 -0.976295054 0.20648919 0.0648858026 -0.976295054 0.286868781 0.0901437476 -0.953719258 0.286868781 0.0901437476 -0.953719258 0.286868781 0.0901437476 -0.953719258 0.286868781 0.0901437476 -0.953719258 0.286868781 0.0901437476 -0.953719258 0.286868781 0.0901437476 -0.953719258 0.365085095 0.114721932 -0.92387867 0.365085095 0.114721932 -0.92387867 0.365085095 0.114721932 -0.92387867 0.365085572 0.114722028 -0.923878431 0.365085572 0.114722028 -0.923878431 0.365085572 0.114722028 -0.923878431 0.440507144 0.138421983 -0.887013435 0.440507144 0.138421983 -0.887013435 0.440507144 0.138421983 -0.887013435 0.440506577 0.138421878 -0.887013733 0.440506577 0.138421878 -0.887013733 0.440506577 0.138421878 -0.887013733 0.5125916 0.161073416 -0.843389094 0.5125916 0.161073416 -0.843389094 0.5125916 0.161073416 -0.843389094 0.5125916 0.161073416 -0.843389094 0.5125916 0.161073416 -0.843389094 0.5125916 0.161073416 -0.843389094 0.580755591 0.182492808 -0.793359518 0.580755591 0.182492808 -0.793359518 0.580755591 0.182492808 -0.793359518 0.580756307 0.182492927 -0.793358982 0.580756307 0.182492927 -0.793358982 0.580756307 0.182492927 -0.793358982 0.644515574 0.202528238 -0.73728013 0.644515574 0.202528238 -0.73728013 0.644515574 0.202528238 -0.73728013 0.644517124 0.202528492 -0.7372787 0.644517124 0.202528492 -0.7372787 0.644517124 0.202528492 -0.7372787 0.70337975 0.221025079 -0.675577402 0.70337975 0.221025079 -0.675577402 0.70337975 0.221025079 -0.675577402 0.703377545 0.221024722 -0.675579786 0.703377545 0.221024722 -0.675579786 0.703377545 0.221024722 -0.675579786 0.756857693 0.237829968 -0.60877198 0.756857693 0.237829968 -0.60877198 0.756857693 0.237829968 -0.60877198 0.756858408 0.237830073 -0.608771086 0.756858408 0.237830073 -0.608771086 0.756858408 0.237830073 -0.608771086 0.804611087 0.252835572 -0.53728497 0.804611087 0.252835572 -0.53728497 0.804611087 0.252835572 -0.53728497 0.804610491 0.252835482 -0.537285984 0.804610491 0.252835482 -0.537285984 0.804610491 0.252835482 -0.537285984 0.846209645 0.265907347 -0.461760223 0.846209645 0.265907347 -0.461760223 0.846209645 0.265907347 -0.461760223 0.846210241 0.265907407 -0.46175912 0.846210241 0.265907407 -0.46175912 0.846210241 0.265907407 -0.46175912 0.88139081 0.27696231 -0.382677525 0.88139081 0.27696231 -0.382677525 0.88139081 0.27696231 -0.382677525 0.881389201 0.276962221 -0.38268131 0.881389201 0.276962221 -0.38268131 0.881389201 0.276962221 -0.38268131 0.909852624 0.285906404 -0.300708741 0.909852624 0.285906404 -0.300708741 0.909852624 0.285906404 -0.300708741 0.909852624 0.285906404 -0.300708741 0.909852624 0.285906404 -0.300708741 0.909852624 0.285906404 -0.300708741 0.931394637 0.292675614 -0.216437191 0.931394637 0.292675614 -0.216437191 0.931394637 0.292675614 -0.216437191 0.93139565 0.292675465 -0.216432974 0.93139565 0.292675465 -0.216432974 0.93139565 0.292675465 -0.216432974 0.9458462 0.297216326 -0.130527601 0.9458462 0.297216326 -0.130527601 0.9458462 0.297216326 -0.130527601 0.9458462 0.297216326 -0.130527601 0.9458462 0.297216326 -0.130527601 0.9458462 0.297216326 -0.130527601 0.953100085 0.299495757 -0.0436174609 0.953100085 0.299495757 -0.0436174609 0.953100085 0.299495757 -0.0436174609 0.953100443 0.299495369 -0.043613039 0.953100443 0.299495369 -0.043613039 0.953100443 0.299495369 -0.043613039 0.299782008 -0.954007745 -3.35236876e-07 0.299782008 -0.954007745 -3.35236876e-07 0.299782008 -0.954007745 -3.35236876e-07 0.299780577 -0.954008162 1.39682157e-07 0.299780577 -0.954008162 1.39682157e-07 0.299780577 -0.954008162 1.39682157e-07 0.299779713 -0.95400846 3.81437673e-07 0.299779713 -0.95400846 3.81437673e-07 0.299779713 -0.95400846 3.81437673e-07 0.299780041 -0.954008341 4.22730835e-07 0.299780041 -0.954008341 4.22730835e-07 0.299780041 -0.954008341 4.22730835e-07 0.299782604 -0.954007566 -4.33896389e-07 0.299782604 -0.954007566 -4.33896389e-07 0.299782604 -0.954007566 -4.33896389e-07 0.29978177 -0.954007804 -1.9654334e-07 0.29978177 -0.954007804 -1.9654334e-07 0.29978177 -0.954007804 -1.9654334e-07 0.299780071 -0.954008341 8.6847507e-08 0.299780071 -0.954008341 8.6847507e-08 0.299780071 -0.954008341 8.6847507e-08 0.299781978 -0.954007745 -0 0.299781978 -0.954007745 -0 0.299781978 -0.954007745 -0 0.299780756 -0.954008102 0 0.299780756 -0.954008102 0 0.299780756 -0.954008102 0 0.299781173 -0.954007983 -5.63796263e-08 0.299781173 -0.954007983 -5.63796263e-08 0.299781173 -0.954007983 -5.63796263e-08 0.299781173 -0.954007983 -5.72546739e-08 0.299781173 -0.954007983 -5.72546739e-08 0.299781173 -0.954007983 -5.72546739e-08 0.299779654 -0.95400846 1.53414661e-07 0.299779654 -0.95400846 1.53414661e-07 0.299779654 -0.95400846 1.53414661e-07 0.299780518 -0.954008222 7.2432421e-08 0.299780518 -0.954008222 7.2432421e-08 0.299780518 -0.954008222 7.2432421e-08 0.299782127 -0.954007685 -0 0.299782127 -0.954007685 -0 0.299782127 -0.954007685 -0 0.299780756 -0.954008102 0 0.299780756 -0.954008102 0 0.299780756 -0.954008102 0 0.299781173 -0.954007983 4.24369091e-08 0.299781173 -0.954007983 4.24369091e-08 0.299781173 -0.954007983 4.24369091e-08 0.299781173 -0.954007983 4.30955573e-08 0.299781173 -0.954007983 4.30955573e-08 0.299781173 -0.954007983 4.30955573e-08 0.299781799 -0.954007804 -4.42368844e-08 0.299781799 -0.954007804 -4.42368844e-08 0.299781799 -0.954007804 -4.42368844e-08 0.299782723 -0.954007506 -1.29897899e-07 0.299782723 -0.954007506 -1.29897899e-07 0.299782723 -0.954007506 -1.29897899e-07 0.299779892 -0.9540084 -0 0.299779892 -0.9540084 -0 0.299779892 -0.9540084 -0 0.299780756 -0.954008102 0 0.299780756 -0.954008102 0 0.299780756 -0.954008102 0 0.299782515 -0.954007566 0 0.299782515 -0.954007566 0 0.299782515 -0.954007566 0 0.299782068 -0.954007685 -2.14639073e-07 0.299782068 -0.954007685 -2.14639073e-07 0.299782068 -0.954007685 -2.14639073e-07 0.299779654 -0.95400846 2.31696333e-07 0.299779654 -0.95400846 2.31696333e-07 0.299779654 -0.95400846 2.31696333e-07 0.299781948 -0.954007745 -8.64966765e-08 0.299781948 -0.954007745 -8.64966765e-08 0.299781948 -0.954007745 -8.64966765e-08 0.299781948 -0.954007745 5.47565797e-08 0.299781948 -0.954007745 5.47565797e-08 0.299781948 -0.954007745 5.47565797e-08 0.299782455 -0.954007566 1.02349382e-07 0.299782455 -0.954007566 1.02349382e-07 0.299782455 -0.954007566 1.02349382e-07 0.299780697 -0.954008162 -1.42128386e-07 0.299780697 -0.954008162 -1.42128386e-07 0.299780697 -0.954008162 -1.42128386e-07 0.299781948 -0.954007745 -2.59430983e-08 0.299781948 -0.954007745 -2.59430983e-08 0.299781948 -0.954007745 -2.59430983e-08 0.299780548 -0.954008162 -2.13139373e-07 0.299780548 -0.954008162 -2.13139373e-07 0.299780548 -0.954008162 -2.13139373e-07 0.299774706 -0.95401001 5.92830588e-07 0.299774706 -0.95401001 5.92830588e-07 0.299774706 -0.95401001 5.92830588e-07 0.299786955 -0.954006195 -5.30560271e-07 0.299786955 -0.954006195 -5.30560271e-07 0.299786955 -0.954006195 -5.30560271e-07 0.299776822 -0.954009354 5.32445085e-07 0.299776822 -0.954009354 5.32445085e-07 0.299776822 -0.954009354 5.32445085e-07 0.299776286 -0.954009533 6.83190649e-07 0.299776286 -0.954009533 6.83190649e-07 0.299776286 -0.954009533 6.83190649e-07 0.299784839 -0.954006851 -8.93537788e-07 0.299784839 -0.954006851 -8.93537788e-07 0.299784839 -0.954006851 -8.93537788e-07 0.299780428 -0.954008222 1.10850515e-07 0.299780428 -0.954008222 1.10850515e-07 0.299780428 -0.954008222 1.10850515e-07 0.299786597 -0.954006314 -4.52522272e-07 0.299786597 -0.954006314 -4.52522272e-07 0.299786597 -0.954006314 -4.52522272e-07 0.299776703 -0.954009414 0 0.299776703 -0.954009414 0 0.299776703 -0.954009414 0 0.299781173 -0.954007983 -5.57400028e-08 0.299781173 -0.954007983 -5.57400028e-08 0.299781173 -0.954007983 -5.57400028e-08 0.299782068 -0.954007685 -2.15932033e-07 0.299782068 -0.954007685 -2.15932033e-07 0.299782068 -0.954007685 -2.15932033e-07 0.299779892 -0.9540084 1.85184945e-07 0.299779892 -0.9540084 1.85184945e-07 0.299779892 -0.9540084 1.85184945e-07 0.299782217 -0.954007685 -1.34193442e-07 0.299782217 -0.954007685 -1.34193442e-07 0.299782217 -0.954007685 -1.34193442e-07 0.299778998 -0.954008698 4.61853517e-07 0.299778998 -0.954008698 4.61853517e-07 0.299778998 -0.954008698 4.61853517e-07 0.299777031 -0.954009295 9.15145904e-07 0.299777031 -0.954009295 9.15145904e-07 0.299777031 -0.954009295 9.15145904e-07 0.299775779 -0.954009712 1.27388546e-06 0.299775779 -0.954009712 1.27388546e-06 0.299775779 -0.954009712 1.27388546e-06 0.299788445 -0.954005718 -1.67219071e-06 0.299788445 -0.954005718 -1.67219071e-06 0.299788445 -0.954005718 -1.67219071e-06 0.299785316 -0.954006672 -3.44014097e-06 0.299785316 -0.954006672 -3.44014097e-06 0.299785316 -0.954006672 -3.44014097e-06 0.29978314 -0.954007387 -1.51683128e-06 0.29978314 -0.954007387 -1.51683128e-06 0.29978314 -0.954007387 -1.51683128e-06 0.299775183 -0.954009891 4.86628414e-06 0.299775183 -0.954009891 4.86628414e-06 0.299775183 -0.954009891 4.86628414e-06 0.299782842 -0.954007447 -8.63079777e-07 0.299782842 -0.954007447 -8.63079777e-07 0.299782842 -0.954007447 -8.63079777e-07 0.299770713 -0.954011261 2.54146948e-06 0.299770713 -0.954011261 2.54146948e-06 0.299770713 -0.954011261 2.54146948e-06 0.299772501 -0.954010725 2.1238618e-06 0.299772501 -0.954010725 2.1238618e-06 0.299772501 -0.954010725 2.1238618e-06 0.299780667 -0.954008162 -1.77426713e-07 0.299780667 -0.954008162 -1.77426713e-07 0.299780667 -0.954008162 -1.77426713e-07 0.299785495 -0.954006612 -8.45645559e-07 0.299785495 -0.954006612 -8.45645559e-07 0.299785495 -0.954006612 -8.45645559e-07 0.29977721 -0.954009235 -8.4099895e-08 0.29977721 -0.954009235 -8.4099895e-08 0.29977721 -0.954009235 -8.4099895e-08 0.299783796 -0.954007149 -1.44615183e-06 0.299783796 -0.954007149 -1.44615183e-06 0.299783796 -0.954007149 -1.44615183e-06 0.299786061 -0.954006433 -2.96263943e-06 0.299786061 -0.954006433 -2.96263943e-06 0.299786061 -0.954006433 -2.96263943e-06 0.299750537 -0.954017639 1.85359841e-05 0.299750537 -0.954017639 1.85359841e-05 0.299750537 -0.954017639 1.85359841e-05 0.299781054 -0.954008043 -5.25394728e-10 0.299781054 -0.954008043 -5.25394728e-10 0.299781054 -0.954008043 -5.25394728e-10 0.299780875 -0.954008102 1.31241606e-07 0.299780875 -0.954008102 1.31241606e-07 0.299780875 -0.954008102 1.31241606e-07 0.29978317 -0.954007387 -1.40798511e-06 0.29978317 -0.954007387 -1.40798511e-06 0.29978317 -0.954007387 -1.40798511e-06 0.299777657 -0.954009116 1.9227989e-06 0.299777657 -0.954009116 1.9227989e-06 0.299777657 -0.954009116 1.9227989e-06 0.299784154 -0.95400703 -1.62522747e-06 0.299784154 -0.95400703 -1.62522747e-06 0.299784154 -0.95400703 -1.62522747e-06 0.299779117 -0.954008639 8.47611602e-07 0.299779117 -0.954008639 8.47611602e-07 0.299779117 -0.954008639 8.47611602e-07 0.299781054 -0.954008043 1.54752072e-10 0.299781054 -0.954008043 1.54752072e-10 0.299781054 -0.954008043 1.54752072e-10 0.299778968 -0.954008698 6.84174381e-07 0.299778968 -0.954008698 6.84174381e-07 0.299778968 -0.954008698 6.84174381e-07 0.299783468 -0.954007268 -5.75884144e-07 0.299783468 -0.954007268 -5.75884144e-07 0.299783468 -0.954007268 -5.75884144e-07 0.299793214 -0.954004228 -1.70647183e-06 0.299793214 -0.954004228 -1.70647183e-06 0.299793214 -0.954004228 -1.70647183e-06 0.299782246 -0.954007626 -1.92144e-07 0.299782246 -0.954007626 -1.92144e-07 0.299782246 -0.954007626 -1.92144e-07 0.299758703 -0.954015076 1.96648671e-06 0.299758703 -0.954015076 1.96648671e-06 0.299758703 -0.954015076 1.96648671e-06 0.953100264 0.29949531 0.0436174609 0.953100264 0.29949531 0.0436174609 0.953100264 0.29949531 0.0436174609 0.953100264 0.299495816 0.043613039 0.953100264 0.299495816 0.043613039 0.953100264 0.299495816 0.043613039 0.9458462 0.297216326 0.130527601 0.9458462 0.297216326 0.130527601 0.9458462 0.297216326 0.130527601 0.9458462 0.297216326 0.130527601 0.9458462 0.297216326 0.130527601 0.9458462 0.297216326 0.130527601 0.931394756 0.292675197 0.216437191 0.931394756 0.292675197 0.216437191 0.931394756 0.292675197 0.216437191 0.931395531 0.292675883 0.216432974 0.931395531 0.292675883 0.216432974 0.931395531 0.292675883 0.216432974 0.909852624 0.285906404 0.300708741 0.909852624 0.285906404 0.300708741 0.909852624 0.285906404 0.300708741 0.909852624 0.285906404 0.300708741 0.909852624 0.285906404 0.300708741 0.909852624 0.285906404 0.300708741 0.881385505 0.276961058 0.382690668 0.881385505 0.276961058 0.382690668 0.881385505 0.276961058 0.382690668 0.881384134 0.276960194 0.382694423 0.881384134 0.276960194 0.382694423 0.881384134 0.276960194 0.382694423 0.846217275 0.265909612 0.461744994 0.846217275 0.265909612 0.461744994 0.846217275 0.265909612 0.461744994 0.846217752 0.26590988 0.461743891 0.846217752 0.26590988 0.461743891 0.846217752 0.26590988 0.461743891 0.804600835 0.252832472 0.537301779 0.804600835 0.252832472 0.537301779 0.804600835 0.252832472 0.537301779 0.804600298 0.252832174 0.537302792 0.804600298 0.252832174 0.537302792 0.804600298 0.252832174 0.537302792 0.756870866 0.237833992 0.608754039 0.756870866 0.237833992 0.608754039 0.756870866 0.237833992 0.608754039 0.756871462 0.237834305 0.608753145 0.756871462 0.237834305 0.608753145 0.756871462 0.237834305 0.608753145 0.703363538 0.221020311 0.67559588 0.703363538 0.221020311 0.67559588 0.703363538 0.221020311 0.67559588 0.703361511 0.221019328 0.675598264 0.703361511 0.221019328 0.675598264 0.703361511 0.221019328 0.675598264 0.644515634 0.20252803 0.73728013 0.644515634 0.20252803 0.73728013 0.644515634 0.20252803 0.73728013 0.644517064 0.202528685 0.7372787 0.644517064 0.202528685 0.7372787 0.644517064 0.202528685 0.7372787 0.580777943 0.182499737 0.793341577 0.580777943 0.182499737 0.793341577 0.580777943 0.182499737 0.793341577 0.580778539 0.18250002 0.793341041 0.580778539 0.18250002 0.793341041 0.580778539 0.18250002 0.793341041 0.5125916 0.161073416 0.843389094 0.5125916 0.161073416 0.843389094 0.5125916 0.161073416 0.843389094 0.5125916 0.161073416 0.843389094 0.5125916 0.161073416 0.843389094 0.5125916 0.161073416 0.843389094 0.440507114 0.138422042 0.887013435 0.440507114 0.138422042 0.887013435 0.440507114 0.138422042 0.887013435 0.440506577 0.138421819 0.887013733 0.440506577 0.138421819 0.887013733 0.440506577 0.138421819 0.887013733 0.365085125 0.114721879 0.92387867 0.365085125 0.114721879 0.92387867 0.365085125 0.114721879 0.92387867 0.365085572 0.114722081 0.923878431 0.365085572 0.114722081 0.923878431 0.365085572 0.114722081 0.923878431 0.286868781 0.0901437476 0.953719258 0.286868781 0.0901437476 0.953719258 0.286868781 0.0901437476 0.953719258 0.286868781 0.0901437476 0.953719258 0.286868781 0.0901437476 0.953719258 0.286868781 0.0901437476 0.953719258 0.206489459 0.0648858845 0.976294994 0.206489459 0.0648858845 0.976294994 0.206489459 0.0648858845 0.976294994 0.20648919 0.0648857728 0.976295054 0.20648919 0.0648857728 0.976295054 0.20648919 0.0648857728 0.976295054 0.124517635 0.0391275808 0.991445601 0.124517635 0.0391275808 0.991445601 0.124517635 0.0391275808 0.991445601 0.124517635 0.0391275808 0.991445601 0.124517635 0.0391275808 0.991445601 0.124517635 0.0391275808 0.991445601 0.0416238718 0.0130796041 0.999047756 0.0416238718 0.0130796041 0.999047756 0.0416238718 0.0130796041 0.999047756 0.0416238718 0.0130796041 0.999047756 0.0416238718 0.0130796041 0.999047756 0.0416238718 0.0130796041 0.999047756 -0.0416238718 -0.0130796041 0.999047756 -0.0416238718 -0.0130796041 0.999047756 -0.0416238718 -0.0130796041 0.999047756 -0.0416238718 -0.0130796041 0.999047756 -0.0416238718 -0.0130796041 0.999047756 -0.0416238718 -0.0130796041 0.999047756 -0.124517635 -0.0391275808 0.991445601 -0.124517635 -0.0391275808 0.991445601 -0.124517635 -0.0391275808 0.991445601 -0.124517716 -0.0391276181 0.991445601 -0.124517716 -0.0391276181 0.991445601 -0.124517716 -0.0391276181 0.991445601 -0.20648919 -0.0648857877 0.976295054 -0.20648919 -0.0648857877 0.976295054 -0.20648919 -0.0648857877 0.976295054 -0.206489325 -0.0648858398 0.976295054 -0.206489325 -0.0648858398 0.976295054 -0.206489325 -0.0648858398 0.976295054 -0.286868781 -0.0901437476 0.953719258 -0.286868781 -0.0901437476 0.953719258 -0.286868781 -0.0901437476 0.953719258 -0.286868572 -0.0901436731 0.953719318 -0.286868572 -0.0901436731 0.953719318 -0.286868572 -0.0901436731 0.953719318 -0.365085572 -0.114722051 0.923878431 -0.365085572 -0.114722051 0.923878431 -0.365085572 -0.114722051 0.923878431 -0.365085572 -0.114722051 0.923878431 -0.365085572 -0.114722051 0.923878431 -0.365085572 -0.114722051 0.923878431 -0.440506577 -0.138421848 0.887013733 -0.440506577 -0.138421848 0.887013733 -0.440506577 -0.138421848 0.887013733 -0.440506577 -0.138421848 0.887013733 -0.440506577 -0.138421848 0.887013733 -0.440506577 -0.138421848 0.887013733 -0.512592256 -0.161073565 0.843388677 -0.512592256 -0.161073565 0.843388677 -0.512592256 -0.161073565 0.843388677 -0.512591958 -0.161073431 0.843388915 -0.512591958 -0.161073431 0.843388915 -0.512591958 -0.161073431 0.843388915 -0.580777943 -0.182499737 0.793341577 -0.580777943 -0.182499737 0.793341577 -0.580777943 -0.182499737 0.793341577 -0.580777943 -0.182499737 0.793341577 -0.580777943 -0.182499737 0.793341577 -0.580777943 -0.182499737 0.793341577 -0.644515574 -0.202528238 0.73728013 -0.644515574 -0.202528238 0.73728013 -0.644515574 -0.202528238 0.73728013 -0.644515574 -0.202528238 0.73728013 -0.644515574 -0.202528238 0.73728013 -0.644515574 -0.202528238 0.73728013 -0.703363538 -0.221020207 0.67559588 -0.703363538 -0.221020207 0.67559588 -0.703363538 -0.221020207 0.67559588 -0.703363538 -0.221020207 0.67559588 -0.703363538 -0.221020207 0.67559588 -0.703363538 -0.221020207 0.67559588 -0.756870866 -0.237833992 0.608754039 -0.756870866 -0.237833992 0.608754039 -0.756870866 -0.237833992 0.608754039 -0.756870866 -0.237833992 0.608754039 -0.756870866 -0.237833992 0.608754039 -0.756870866 -0.237833992 0.608754039 -0.804600894 -0.252832353 0.537301779 -0.804600894 -0.252832353 0.537301779 -0.804600894 -0.252832353 0.537301779 -0.804600894 -0.252832353 0.537301779 -0.804600894 -0.252832353 0.537301779 -0.804600894 -0.252832353 0.537301779 -0.846217275 -0.265909612 0.461744994 -0.846217275 -0.265909612 0.461744994 -0.846217275 -0.265909612 0.461744994 -0.846217275 -0.265909612 0.461744994 -0.846217275 -0.265909612 0.461744994 -0.846217275 -0.265909612 0.461744994 -0.881384134 -0.276960194 0.382694423 -0.881384134 -0.276960194 0.382694423 -0.881384134 -0.276960194 0.382694423 -0.881384134 -0.276960194 0.382694423 -0.881384134 -0.276960194 0.382694423 -0.881384134 -0.276960194 0.382694423 -0.909852743 -0.285905987 0.300708741 -0.909852743 -0.285905987 0.300708741 -0.909852743 -0.285905987 0.300708741 -0.909852922 -0.285906106 0.300708115 -0.909852922 -0.285906106 0.300708115 -0.909852922 -0.285906106 0.300708115 -0.93139559 -0.292675555 0.216432974 -0.93139559 -0.292675555 0.216432974 -0.93139559 -0.292675555 0.216432974 -0.93139559 -0.292675555 0.216432974 -0.93139559 -0.292675555 0.216432974 -0.93139559 -0.292675555 0.216432974 -0.94584614 -0.297216386 0.130527601 -0.94584614 -0.297216386 0.130527601 -0.94584614 -0.297216386 0.130527601 -0.94584614 -0.297216386 0.130527601 -0.94584614 -0.297216386 0.130527601 -0.94584614 -0.297216386 0.130527601 -0.953100085 -0.299495816 0.0436174609 -0.953100085 -0.299495816 0.0436174609 -0.953100085 -0.299495816 0.0436174609 -0.953100085 -0.299495727 0.0436181538 -0.953100085 -0.299495727 0.0436181538 -0.953100085 -0.299495727 0.0436181538 </float_array>
          <technique_common>
            <accessor count="852" offset="0" source="#mesh_0-normals-array" stride="3">
              <param name="X" type="float" />
              <param name="Y" type="float" />
              <param name="Z" type="float" />
            </accessor>
          </technique_common>
        </source>
        <vertices id="mesh_0-vertices">
          <input semantic="POSITION" source="#mesh_0-positions" />
        </vertices>
        <polylist count="284" material="defaultMaterial">
          <input offset="0" semantic="VERTEX" source="#mesh_0-vertices" />
          <input offset="0" semantic="NORMAL" source="#mesh_0-normals" />
          <vcount>3 3 3 3 3 3 3 3 3 3 3 3 3 3 3 3 3 3 3 3 3 3 3 3 3 3 3 3 3 3 3 3 3 3 3 3 3 3 3 3 3 3 3 3 3 3 3 3 3 3 3 3 3 3 3 3 3 3 3 3 3 3 3 3 3 3 3 3 3 3 3 3 3 3 3 3 3 3 3 3 3 3 3 3 3 3 3 3 3 3 3 3 3 3 3 3 3 3 3 3 3 3 3 3 3 3 3 3 3 3 3 3 3 3 3 3 3 3 3 3 3 3 3 3 3 3 3 3 3 3 3 3 3 3 3 3 3 3 3 3 3 3 3 3 3 3 3 3 3 3 3 3 3 3 3 3 3 3 3 3 3 3 3 3 3 3 3 3 3 3 3 3 3 3 3 3 3 3 3 3 3 3 3 3 3 3 3 3 3 3 3 3 3 3 3 3 3 3 3 3 3 3 3 3 3 3 3 3 3 3 3 3 3 3 3 3 3 3 3 3 3 3 3 3 3 3 3 3 3 3 3 3 3 3 3 3 3 3 3 3 3 3 3 3 3 3 3 3 3 3 3 3 3 3 3 3 3 3 3 3 3 3 3 3 3 3 3 3 3 3 3 3 3 3 3 3 3 3 3 3 3 3 3 3 </vcount>
          <p>0 1 2 3 4 5 6 7 8 9 10 11 12 13 14 15 16 17 18 19 20 21 22 23 24 25 26 27 28 29 30 31 32 33 34 35 36 37 38 39 40 41 42 43 44 45 46 47 48 49 50 51 52 53 54 55 56 57 58 59 60 61 62 63 64 65 66 67 68 69 70 71 72 73 74 75 76 77 78 79 80 81 82 83 84 85 86 87 88 89 90 91 92 93 94 95 96 97 98 99 100 101 102 103 104 105 106 107 108 109 110 111 112 113 114 115 116 117 118 119 120 121 122 123 124 125 126 127 128 129 130 131 132 133 134 135 136 137 138 139 140 141 142 143 144 145 146 147 148 149 150 151 152 153 154 155 156 157 158 159 160 161 162 163 164 165 166 167 168 169 170 171 172 173 174 175 176 177 178 179 180 181 182 183 184 185 186 187 188 189 190 191 192 193 194 195 196 197 198 199 200 201 202 203 204 205 206 207 208 209 210 211 212 213 214 215 216 217 218 219 220 221 222 223 224 225 226 227 228 229 230 231 232 233 234 235 236 237 238 239 240 241 242 243 244 245 246 247 248 249 250 251 252 253 254 255 256 257 258 259 260 261 262 263 264 265 266 267 268 269 270 271 272 273 274 275 276 277 278 279 280 281 282 283 284 285 286 287 288 289 290 291 292 293 294 295 296 297 298 299 300 301 302 303 304 305 306 307 308 309 310 311 312 313 314 315 316 317 318 319 320 321 322 323 324 325 326 327 328 329 330 331 332 333 334 335 336 337 338 339 340 341 342 343 344 345 346 347 348 349 350 351 352 353 354 355 356 357 358 359 360 361 362 363 364 365 366 367 368 369 370 371 372 373 374 375 376 377 378 379 380 381 382 383 384 385 386 387 388 389 390 391 392 393 394 395 396 397 398 399 400 401 402 403 404 405 406 407 408 409 410 411 412 413 414 415 416 417 418 419 420 421 422 423 424 425 426 427 428 429 430 431 432 433 434 435 436 437 438 439 440 441 442 443 444 445 446 447 448 449 450 451 452 453 454 455 456 457 458 459 460 461 462 463 464 465 466 467 468 469 470 471 472 473 474 475 476 477 478 479 480 481 482 483 484 485 486 487 488 489 490 491 492 493 494 495 496 497 498 499 500 501 502 503 504 505 506 507 508 509 510 511 512 513 514 515 516 517 518 519 520 521 522 523 524 525 526 527 528 529 530 531 532 533 534 535 536 537 538 539 540 541 542 543 544 545 546 547 548 549 550 551 552 553 554 555 556 557 558 559 560 561 562 563 564 565 566 567 568 569 570 571 572 573 574 575 576 577 578 579 580 581 582 583 584 585 586 587 588 589 590 591 592 593 594 595 596 597 598 599 600 601 602 603 604 605 606 607 608 609 610 611 612 613 614 615 616 617 618 619 620 621 622 623 624 625 626 627 628 629 630 631 632 633 634 635 636 637 638 639 640 641 642 643 644 645 646 647 648 649 650 651 652 653 654 655 656 657 658 659 660 661 662 663 664 665 666 667 668 669 670 671 672 673 674 675 676 677 678 679 680 681 682 683 684 685 686 687 688 689 690 691 692 693 694 695 696 697 698 699 700 701 702 703 704 705 706 707 708 709 710 711 712 713 714 715 716 717 718 719 720 721 722 723 724 725 726 727 728 729 730 731 732 733 734 735 736 737 738 739 740 741 742 743 744 745 746 747 748 749 750 751 752 753 754 755 756 757 758 759 760 761 762 763 764 765 766 767 768 769 770 771 772 773 774 775 776 777 778 779 780 781 782 783 784 785 786 787 788 789 790 791 792 793 794 795 796 797 798 799 800 801 802 803 804 805 806 807 808 809 810 811 812 813 814 815 816 817 818 819 820 821 822 823 824 825 826 827 828 829 830 831 832 833 834 835 836 837 838 839 840 841 842 843 844 845 846 847 848 849 850 851 </p>
        </polylist>
      </mesh>
    </geometry>
  </library_geometries>
  <library_controllers>
  </library_controllers>
  <library_visual_scenes>
    <visual_scene id="_ySTL_BINARY_" name="&lt;STL_BINARY&gt;">
      <node id="node" name="" type="NODE">
        <matrix sid="matrix">1 0 0 0 0 1 0 0 0 0 1 0 0 0 0 1</matrix>
        <instance_geometry url="#mesh_0">
          <bind_material>
            <technique_common>
              <instance_material symbol="defaultMaterial" target="#DefaultMaterial">
              </instance_material>
            </technique_common>
          </bind_material>
        </instance_geometry>
      </node>
    </visual_scene>
  </library_visual_scenes>
  <scene>
    <instance_visual_scene url="#_ySTL_BINARY_" />
  </scene>
</COLLADA>
