<?xml version="1.0" encoding="UTF-8" standalone="no" ?>
<COLLADA xmlns="http://www.collada.org/2005/11/COLLADASchema" version="1.4.1">
  <asset>
    <contributor>
      <author>Assimp</author>
      <authoring_tool>Assimp Exporter</authoring_tool>
    </contributor>
    <created>2025-12-07T16:35:05</created>
    <modified>2025-12-07T16:35:05</modified>
    <unit name="meter" meter="1" />
    <up_axis>Y_UP</up_axis>
  </asset>
  <library_images>
  </library_images>
  <library_effects>
    <effect id="DefaultMaterial-fx" name="DefaultMaterial">
      <profile_COMMON>
        <technique sid="standard">
          <phong>
            <ambient>
              <color sid="ambient">0.0500000007   0.0500000007   0.0500000007   1</color>
            </ambient>
            <diffuse>
              <color sid="diffuse">1   1   1   1</color>
            </diffuse>
            <specular>
              <color sid="specular">1   1   1   1</color>
            </specular>
          </phong>
        </technique>
      </profile_COMMON>
    </effect>
  </library_effects>
  <library_materials>
    <material id="DefaultMaterial" name="DefaultMaterial">
      <instance_effect url="#DefaultMaterial-fx"/>
    </material>
  </library_materials>
  <library_geometries>
    <geometry id="mesh_0" name="" >
      <mesh>
        <source id="mesh_0-positions" name="mesh_0-positions">
          <float_array id="mesh_0-positions-array" count="2556"> -0.00112872664 0.00249048602 0.0419453755 -0.00122361828 0.00246066786 0.0419584699 -0.000657873868 0.00263844361 0.0441716462 -0.00122361828 0.00246066786 0.0419584699 -0.00131706009 0.00243130536 0.0419801846 -0.000657873868 0.00263844361 0.0441716462 -0.00131706009 0.00243130536 0.0419801846 -0.00140834076 0.00240262202 0.042010352 -0.000657873868 0.00263844361 0.0441716462 -0.000657873868 0.00263844361 0.0441716462 -0.00140834076 0.00240262202 0.042010352 -0.00074915454 0.00260976027 0.0442018136 -0.00131706009 0.00243130536 0.0442018136 -0.00140834076 0.00240262202 0.042010352 -0.00140834076 0.00240262202 0.0441716462 -0.00140834076 0.00240262202 0.042010352 -0.00149676576 0.00237483601 0.0420487449 -0.00140834076 0.00240262202 0.0441716462 -0.00140834076 0.00240262202 0.0441716462 -0.00149676576 0.00237483601 0.0420487449 -0.00158166199 0.00234815874 0.0420950688 -0.000569448923 0.00266622985 0.0420487449 -0.000657873868 0.00263844361 0.042010352 -0.000657873868 0.00263844361 0.0441716462 -0.000657873868 0.00263844361 0.042010352 -0.00074915454 0.00260976027 0.0419801846 -0.000657873868 0.00263844361 0.0441716462 -0.000657873868 0.00263844361 0.0441716462 -0.00074915454 0.00260976027 0.0419801846 -0.000842596288 0.00258039776 0.0419584699 -0.000842596288 0.00258039776 0.0419584699 -0.00093748793 0.00255057961 0.0419453755 -0.000657873868 0.00263844361 0.0441716462 -0.00093748793 0.00255057961 0.0419453755 -0.00103310728 0.00252053281 0.0419409983 -0.000657873868 0.00263844361 0.0441716462 -0.000657873868 0.00263844361 0.0441716462 -0.00103310728 0.00252053281 0.0419409983 -0.00112872664 0.00249048602 0.0419453755 -0.00173831556 0.00229893299 0.0422100462 -0.00166238332 0.00232279347 0.0440330245 -0.00158166199 0.00234815874 0.0440869294 -0.00131706009 0.00243130536 0.0442018136 -0.00122361828 0.00246066786 0.0442235284 -0.00140834076 0.00240262202 0.042010352 -0.00122361828 0.00246066786 0.0442235284 -0.00112872664 0.00249048602 0.0442366228 -0.00140834076 0.00240262202 0.042010352 -0.00140834076 0.00240262202 0.042010352 -0.00112872664 0.00249048602 0.0442366228 -0.00103310728 0.00252053281 0.044241 -0.00103310728 0.00252053281 0.044241 -0.00093748793 0.00255057961 0.0442366228 -0.00140834076 0.00240262202 0.042010352 -0.00093748793 0.00255057961 0.0442366228 -0.000842596288 0.00258039776 0.0442235284 -0.00140834076 0.00240262202 0.042010352 -0.00140834076 0.00240262202 0.042010352 -0.000842596288 0.00258039776 0.0442235284 -0.00074915454 0.00260976027 0.0442018136 -0.000569448923 0.00266622985 0.0441332534 -0.000403831335 0.00271827239 0.0421489738 -0.000657873868 0.00263844361 0.0441716462 -0.000403831335 0.00271827239 0.0421489738 -0.0004845527 0.00269290688 0.0420950688 -0.000657873868 0.00263844361 0.0441716462 -0.000657873868 0.00263844361 0.0441716462 -0.0004845527 0.00269290688 0.0420950688 -0.000569448923 0.00266622985 0.0420487449 -0.00158166199 0.00234815874 0.0420950688 -0.00166238332 0.00232279347 0.0421489738 -0.00140834076 0.00240262202 0.0441716462 -0.00166238332 0.00232279347 0.0421489738 -0.00173831556 0.00229893299 0.0422100462 -0.00140834076 0.00240262202 0.0441716462 -0.00140834076 0.00240262202 0.0441716462 -0.00173831556 0.00229893299 0.0422100462 -0.00149676576 0.00237483601 0.0441332534 -0.00173831556 0.00229893299 0.0422100462 -0.00158166199 0.00234815874 0.0440869294 -0.00149676576 0.00237483601 0.0441332534 -0.000569448923 0.00266622985 0.0441332534 -0.0004845527 0.00269290688 0.0440869294 -0.000403831335 0.00271827239 0.0421489738 -0.0004845527 0.00269290688 0.0440869294 -0.000403831335 0.00271827239 0.0440330245 -0.000403831335 0.00271827239 0.0421489738 -0.000403831335 0.00271827239 0.0421489738 -0.000403831335 0.00271827239 0.0440330245 -0.000327899121 0.00274213264 0.0439719483 -0.000192672902 0.00278462539 0.0438302048 -0.000192672902 0.00278462539 0.0423517935 -0.000257333944 0.00276430673 0.0422778241 -0.000327899121 0.00274213264 0.0439719483 -0.000257333944 0.00276430673 0.0439041704 -0.000403831335 0.00271827239 0.0421489738 -0.000257333944 0.00276430673 0.0439041704 -0.000192672902 0.00278462539 0.0438302048 -0.000403831335 0.00271827239 0.0421489738 -0.000403831335 0.00271827239 0.0421489738 -0.000192672902 0.00278462539 0.0438302048 -0.000327899121 0.00274213264 0.0422100462 -0.000192672902 0.00278462539 0.0438302048 -0.000257333944 0.00276430673 0.0422778241 -0.000327899121 0.00274213264 0.0422100462 -0.00173831556 0.00229893299 0.0422100462 -0.00180888071 0.0022767589 0.0422778241 -0.00166238332 0.00232279347 0.0440330245 -0.00180888071 0.0022767589 0.0422778241 -0.00187354174 0.00225644046 0.0423517935 -0.00166238332 0.00232279347 0.0440330245 -0.00166238332 0.00232279347 0.0440330245 -0.00187354174 0.00225644046 0.0423517935 -0.00173831556 0.00229893299 0.0439719483 -0.00187354174 0.00225644046 0.0423517935 -0.00180888071 0.0022767589 0.0439041704 -0.00173831556 0.00229893299 0.0439719483 -0.00193180656 0.00223813159 0.0424313843 -0.00198323186 0.00222197198 0.0425160006 -0.00211354904 0.0021810222 0.0428913049 -0.000134408052 0.00280293403 0.0437506102 -8.29828641e-05 0.00281909364 0.0425160006 -0.000192672902 0.00278462539 0.0438302048 -8.29828641e-05 0.00281909364 0.0425160006 -0.000134408052 0.00280293403 0.0424313843 -0.000192672902 0.00278462539 0.0438302048 -0.000192672902 0.00278462539 0.0438302048 -0.000134408052 0.00280293403 0.0424313843 -0.000192672902 0.00278462539 0.0423517935 -2.16188096e-06 0.00284449011 0.0434843227 2.66188108e-05 0.00285353418 0.0433886424 5.98270708e-05 0.00286396919 0.0429907702 2.66188108e-05 0.00285353418 0.0427933559 -2.16188096e-06 0.00284449011 0.0426976755 -3.87886903e-05 0.00283298083 0.0435770079 -0.00193180656 0.00223813159 0.0424313843 -0.00211354904 0.0021810222 0.0428913049 -0.00187354174 0.00225644046 0.0423517935 -0.00211354904 0.0021810222 0.0428913049 -0.0021260418 0.00217709644 0.0429907702 -0.00187354174 0.00225644046 0.0423517935 -0.00187354174 0.00225644046 0.0423517935 -0.0021260418 0.00217709644 0.0429907702 -0.00213021645 0.00217578467 0.0430909991 -0.00213021645 0.00217578467 0.0430909991 -0.0021260418 0.00217709644 0.0431912281 -0.00187354174 0.00225644046 0.0423517935 -0.0021260418 0.00217709644 0.0431912281 -0.00211354904 0.0021810222 0.0432906933 -0.00187354174 0.00225644046 0.0423517935 -0.00187354174 0.00225644046 0.0423517935 -0.00211354904 0.0021810222 0.0432906933 -0.0020928334 0.00218753167 0.0433886424 -0.0020928334 0.00218753167 0.0433886424 -0.00206405274 0.00219657551 0.0434843227 -0.00187354174 0.00225644046 0.0423517935 -0.00206405274 0.00219657551 0.0434843227 -0.00202742592 0.0022080848 0.0435770079 -0.00187354174 0.00225644046 0.0423517935 -0.00187354174 0.00225644046 0.0423517935 -0.00202742592 0.0022080848 0.0435770079 -0.00198323186 0.00222197198 0.0436659977 -0.00198323186 0.00222197198 0.0436659977 -0.00193180656 0.00223813159 0.0437506102 -0.00187354174 0.00225644046 0.0423517935 -0.00193180656 0.00223813159 0.0437506102 -0.00187354174 0.00225644046 0.0438302048 -0.00187354174 0.00225644046 0.0423517935 -0.00187354174 0.00225644046 0.0423517935 -0.00187354174 0.00225644046 0.0438302048 -0.00180888071 0.0022767589 0.0439041704 -0.000134408052 0.00280293403 0.0437506102 -8.29828641e-05 0.00281909364 0.0436659977 -8.29828641e-05 0.00281909364 0.0425160006 -8.29828641e-05 0.00281909364 0.0436659977 -3.87886903e-05 0.00283298083 0.0435770079 -8.29828641e-05 0.00281909364 0.0425160006 -8.29828641e-05 0.00281909364 0.0425160006 -3.87886903e-05 0.00283298083 0.0435770079 -3.87886903e-05 0.00283298083 0.0426049866 -3.87886903e-05 0.00283298083 0.0435770079 -2.16188096e-06 0.00284449011 0.0426976755 -3.87886903e-05 0.00283298083 0.0426049866 -0.00198323186 0.00222197198 0.0425160006 -0.00202742592 0.0022080848 0.0426049866 -0.00211354904 0.0021810222 0.0428913049 -0.00202742592 0.0022080848 0.0426049866 -0.00206405274 0.00219657551 0.0426976755 -0.00211354904 0.0021810222 0.0428913049 -0.00211354904 0.0021810222 0.0428913049 -0.00206405274 0.00219657551 0.0426976755 -0.0020928334 0.00218753167 0.0427933559 2.66188108e-05 0.00285353418 0.0433886424 4.73343462e-05 0.00286004366 0.0432906933 5.98270708e-05 0.00286396919 0.0429907702 4.73343462e-05 0.00286004366 0.0432906933 5.98270708e-05 0.00286396919 0.0431912281 5.98270708e-05 0.00286396919 0.0429907702 5.98270708e-05 0.00286396919 0.0429907702 5.98270708e-05 0.00286396919 0.0431912281 6.40018989e-05 0.00286528119 0.0430909991 -2.16188096e-06 0.00284449011 0.0434843227 5.98270708e-05 0.00286396919 0.0429907702 -3.87886903e-05 0.00283298083 0.0435770079 5.98270708e-05 0.00286396919 0.0429907702 4.73343462e-05 0.00286004366 0.0428913049 -3.87886903e-05 0.00283298083 0.0435770079 -3.87886903e-05 0.00283298083 0.0435770079 4.73343462e-05 0.00286004366 0.0428913049 2.66188108e-05 0.00285353418 0.0427933559 -0.00183043547 0.00122177659 0.0430909991 -0.00213021645 0.00217578467 0.0430909991 -0.0021260418 0.00217709644 0.0429907702 -0.00183043547 0.00122177659 0.0430909991 -0.0021260418 0.00217709644 0.0429907702 -0.00182626059 0.00122308847 0.0429907702 -0.0021260418 0.00217709644 0.0429907702 -0.00211354904 0.0021810222 0.0428913049 -0.00182626059 0.00122308847 0.0429907702 -0.00182626059 0.00122308847 0.0429907702 -0.00211354904 0.0021810222 0.0428913049 -0.00181376794 0.00122701412 0.0428913049 -0.00211354904 0.0021810222 0.0428913049 -0.0020928334 0.00218753167 0.0427933559 -0.00181376794 0.00122701412 0.0428913049 -0.00181376794 0.00122701412 0.0428913049 -0.0020928334 0.00218753167 0.0427933559 -0.00179305242 0.0012335236 0.0427933559 -0.0020928334 0.00218753167 0.0427933559 -0.00206405274 0.00219657551 0.0426976755 -0.00179305242 0.0012335236 0.0427933559 -0.00179305242 0.0012335236 0.0427933559 -0.00206405274 0.00219657551 0.0426976755 -0.00176427164 0.00124256744 0.0426976755 -0.00206405274 0.00219657551 0.0426976755 -0.00202742592 0.0022080848 0.0426049866 -0.00176427164 0.00124256744 0.0426976755 -0.00176427164 0.00124256744 0.0426976755 -0.00202742592 0.0022080848 0.0426049866 -0.00172764482 0.00125407684 0.0426049866 -0.00202742592 0.0022080848 0.0426049866 -0.00198323186 0.00222197198 0.0425160006 -0.00172764482 0.00125407684 0.0426049866 -0.00172764482 0.00125407684 0.0426049866 -0.00198323186 0.00222197198 0.0425160006 -0.00168345065 0.00126796402 0.0425160006 -0.00198323186 0.00222197198 0.0425160006 -0.00193180656 0.00223813159 0.0424313843 -0.00168345065 0.00126796402 0.0425160006 -0.00168345065 0.00126796402 0.0425160006 -0.00193180656 0.00223813159 0.0424313843 -0.00163202547 0.00128412363 0.0424313843 -0.00193180656 0.00223813159 0.0424313843 -0.00187354174 0.00225644046 0.0423517935 -0.00163202547 0.00128412363 0.0424313843 -0.00163202547 0.00128412363 0.0424313843 -0.00187354174 0.00225644046 0.0423517935 -0.00157376064 0.00130243239 0.0423517935 -0.00187354174 0.00225644046 0.0423517935 -0.00180888071 0.0022767589 0.0422778241 -0.00157376064 0.00130243239 0.0423517935 -0.00157376064 0.00130243239 0.0423517935 -0.00180888071 0.0022767589 0.0422778241 -0.00150909962 0.00132275105 0.0422778241 -0.00180888071 0.0022767589 0.0422778241 -0.00173831556 0.00229893299 0.0422100462 -0.00150909962 0.00132275105 0.0422778241 -0.00150909962 0.00132275105 0.0422778241 -0.00173831556 0.00229893299 0.0422100462 -0.00143853447 0.00134492491 0.0422100462 -0.00173831556 0.00229893299 0.0422100462 -0.00166238332 0.00232279347 0.0421489738 -0.00143853447 0.00134492491 0.0422100462 -0.00143853447 0.00134492491 0.0422100462 -0.00166238332 0.00232279347 0.0421489738 -0.00136260223 0.00136878539 0.0421489738 -0.00166238332 0.00232279347 0.0421489738 -0.00158166199 0.00234815874 0.0420950688 -0.00136260223 0.00136878539 0.0421489738 -0.00136260223 0.00136878539 0.0421489738 -0.00158166199 0.00234815874 0.0420950688 -0.00128188089 0.00139415066 0.0420950688 -0.00158166199 0.00234815874 0.0420950688 -0.00149676576 0.00237483601 0.0420487449 -0.00128188089 0.00139415066 0.0420950688 -0.00128188089 0.00139415066 0.0420950688 -0.00149676576 0.00237483601 0.0420487449 -0.00119698467 0.00142082793 0.0420487449 -0.00149676576 0.00237483601 0.0420487449 -0.00140834076 0.00240262202 0.042010352 -0.00119698467 0.00142082793 0.0420487449 -0.00119698467 0.00142082793 0.0420487449 -0.00140834076 0.00240262202 0.042010352 -0.00110855966 0.00144861394 0.042010352 -0.00140834076 0.00240262202 0.042010352 -0.00131706009 0.00243130536 0.0419801846 -0.00110855966 0.00144861394 0.042010352 -0.00110855966 0.00144861394 0.042010352 -0.00131706009 0.00243130536 0.0419801846 -0.00101727899 0.0014772974 0.0419801846 -0.00131706009 0.00243130536 0.0419801846 -0.00122361828 0.00246066786 0.0419584699 -0.00101727899 0.0014772974 0.0419801846 -0.00101727899 0.0014772974 0.0419801846 -0.00122361828 0.00246066786 0.0419584699 -0.000923837244 0.0015066599 0.0419584699 -0.00122361828 0.00246066786 0.0419584699 -0.00112872664 0.00249048602 0.0419453755 -0.000923837244 0.0015066599 0.0419584699 -0.000923837244 0.0015066599 0.0419584699 -0.00112872664 0.00249048602 0.0419453755 -0.000828945602 0.00153647806 0.0419453755 -0.00112872664 0.00249048602 0.0419453755 -0.00103310728 0.00252053281 0.0419409983 -0.000828945602 0.00153647806 0.0419453755 -0.000828945602 0.00153647806 0.0419453755 -0.00103310728 0.00252053281 0.0419409983 -0.000733326247 0.00156652485 0.0419409983 -0.00103310728 0.00252053281 0.0419409983 -0.00093748793 0.00255057961 0.0419453755 -0.000733326247 0.00156652485 0.0419409983 -0.000733326247 0.00156652485 0.0419409983 -0.00093748793 0.00255057961 0.0419453755 -0.000637706893 0.00159657164 0.0419453755 -0.00093748793 0.00255057961 0.0419453755 -0.000842596288 0.00258039776 0.0419584699 -0.000637706893 0.00159657164 0.0419453755 -0.000637706893 0.00159657164 0.0419453755 -0.000842596288 0.00258039776 0.0419584699 -0.000542815193 0.00162638968 0.0419584699 -0.000842596288 0.00258039776 0.0419584699 -0.00074915454 0.00260976027 0.0419801846 -0.000542815193 0.00162638968 0.0419584699 -0.000542815193 0.00162638968 0.0419584699 -0.00074915454 0.00260976027 0.0419801846 -0.000449373474 0.00165575219 0.0419801846 -0.00074915454 0.00260976027 0.0419801846 -0.000657873868 0.00263844361 0.042010352 -0.000449373474 0.00165575219 0.0419801846 -0.000449373474 0.00165575219 0.0419801846 -0.000657873868 0.00263844361 0.042010352 -0.000358092773 0.00168443564 0.042010352 -0.000657873868 0.00263844361 0.042010352 -0.000569448923 0.00266622985 0.0420487449 -0.000358092773 0.00168443564 0.042010352 -0.000358092773 0.00168443564 0.042010352 -0.000569448923 0.00266622985 0.0420487449 -0.000269667857 0.00171222177 0.0420487449 -0.000569448923 0.00266622985 0.0420487449 -0.0004845527 0.00269290688 0.0420950688 -0.000269667857 0.00171222177 0.0420487449 -0.000269667857 0.00171222177 0.0420487449 -0.0004845527 0.00269290688 0.0420950688 -0.000184771619 0.00173889892 0.0420950688 -0.0004845527 0.00269290688 0.0420950688 -0.000403831335 0.00271827239 0.0421489738 -0.000184771619 0.00173889892 0.0420950688 -0.000184771619 0.00173889892 0.0420950688 -0.000403831335 0.00271827239 0.0421489738 -0.000104050239 0.00176426431 0.0421489738 -0.000403831335 0.00271827239 0.0421489738 -0.000327899121 0.00274213264 0.0422100462 -0.000104050239 0.00176426431 0.0421489738 -0.000104050239 0.00176426431 0.0421489738 -0.000327899121 0.00274213264 0.0422100462 -2.81180219e-05 0.00178812467 0.0422100462 -0.000327899121 0.00274213264 0.0422100462 -0.000257333944 0.00276430673 0.0422778241 -2.81180219e-05 0.00178812467 0.0422100462 -2.81180219e-05 0.00178812467 0.0422100462 -0.000257333944 0.00276430673 0.0422778241 4.24471364e-05 0.00181029865 0.0422778241 -0.000257333944 0.00276430673 0.0422778241 -0.000192672902 0.00278462539 0.0423517935 4.24471364e-05 0.00181029865 0.0422778241 4.24471364e-05 0.00181029865 0.0422778241 -0.000192672902 0.00278462539 0.0423517935 0.000107108186 0.00183061732 0.0423517935 -0.000192672902 0.00278462539 0.0423517935 -0.000134408052 0.00280293403 0.0424313843 0.000107108186 0.00183061732 0.0423517935 0.000107108186 0.00183061732 0.0423517935 -0.000134408052 0.00280293403 0.0424313843 0.000165373029 0.00184892607 0.0424313843 -0.000134408052 0.00280293403 0.0424313843 -8.29828641e-05 0.00281909364 0.0425160006 0.000165373029 0.00184892607 0.0424313843 0.000165373029 0.00184892607 0.0424313843 -8.29828641e-05 0.00281909364 0.0425160006 0.000216798217 0.00186508556 0.0425160006 -8.29828641e-05 0.00281909364 0.0425160006 -3.87886903e-05 0.00283298083 0.0426049866 0.000216798217 0.00186508556 0.0425160006 0.000216798217 0.00186508556 0.0425160006 -3.87886903e-05 0.00283298083 0.0426049866 0.000260992383 0.00187897286 0.0426049866 -3.87886903e-05 0.00283298083 0.0426049866 -2.16188096e-06 0.00284449011 0.0426976755 0.000260992383 0.00187897286 0.0426049866 0.000260992383 0.00187897286 0.0426049866 -2.16188096e-06 0.00284449011 0.0426976755 0.000297619205 0.00189048215 0.0426976755 -2.16188096e-06 0.00284449011 0.0426976755 2.66188108e-05 0.00285353418 0.0427933559 0.000297619205 0.00189048215 0.0426976755 0.000297619205 0.00189048215 0.0426976755 2.66188108e-05 0.00285353418 0.0427933559 0.000326399895 0.00189952611 0.0427933559 2.66188108e-05 0.00285353418 0.0427933559 4.73343462e-05 0.00286004366 0.0428913049 0.000326399895 0.00189952611 0.0427933559 0.000326399895 0.00189952611 0.0427933559 4.73343462e-05 0.00286004366 0.0428913049 0.00034711542 0.00190603558 0.0428913049 4.73343462e-05 0.00286004366 0.0428913049 5.98270708e-05 0.00286396919 0.0429907702 0.00034711542 0.00190603558 0.0428913049 0.00034711542 0.00190603558 0.0428913049 5.98270708e-05 0.00286396919 0.0429907702 0.000359608151 0.00190996123 0.0429907702 5.98270708e-05 0.00286396919 0.0429907702 6.40018989e-05 0.00286528119 0.0430909991 0.000359608151 0.00190996123 0.0429907702 0.000359608151 0.00190996123 0.0429907702 6.40018989e-05 0.00286528119 0.0430909991 0.00036378298 0.00191127311 0.0430909991 0.00036378298 0.00191127311 0.0430909991 6.40018989e-05 0.00286528119 0.0430909991 5.98270708e-05 0.00286396919 0.0431912281 0.00036378298 0.00191127311 0.0430909991 5.98270708e-05 0.00286396919 0.0431912281 0.000359608151 0.00190996123 0.0431912281 5.98270708e-05 0.00286396919 0.0431912281 4.73343462e-05 0.00286004366 0.0432906933 0.000359608151 0.00190996123 0.0431912281 0.000359608151 0.00190996123 0.0431912281 4.73343462e-05 0.00286004366 0.0432906933 0.00034711542 0.00190603558 0.0432906933 4.73343462e-05 0.00286004366 0.0432906933 2.66188108e-05 0.00285353418 0.0433886424 0.00034711542 0.00190603558 0.0432906933 0.00034711542 0.00190603558 0.0432906933 2.66188108e-05 0.00285353418 0.0433886424 0.000326399895 0.00189952611 0.0433886424 2.66188108e-05 0.00285353418 0.0433886424 -2.16188096e-06 0.00284449011 0.0434843227 0.000326399895 0.00189952611 0.0433886424 0.000326399895 0.00189952611 0.0433886424 -2.16188096e-06 0.00284449011 0.0434843227 0.000297619205 0.00189048215 0.0434843227 -2.16188096e-06 0.00284449011 0.0434843227 -3.87886903e-05 0.00283298083 0.0435770079 0.000297619205 0.00189048215 0.0434843227 0.000297619205 0.00189048215 0.0434843227 -3.87886903e-05 0.00283298083 0.0435770079 0.000260992383 0.00187897286 0.0435770079 -3.87886903e-05 0.00283298083 0.0435770079 -8.29828641e-05 0.00281909364 0.0436659977 0.000260992383 0.00187897286 0.0435770079 0.000260992383 0.00187897286 0.0435770079 -8.29828641e-05 0.00281909364 0.0436659977 0.000216798217 0.00186508556 0.0436659977 -8.29828641e-05 0.00281909364 0.0436659977 -0.000134408052 0.00280293403 0.0437506102 0.000216798217 0.00186508556 0.0436659977 0.000216798217 0.00186508556 0.0436659977 -0.000134408052 0.00280293403 0.0437506102 0.000165373029 0.00184892607 0.0437506102 -0.000134408052 0.00280293403 0.0437506102 -0.000192672902 0.00278462539 0.0438302048 0.000165373029 0.00184892607 0.0437506102 0.000165373029 0.00184892607 0.0437506102 -0.000192672902 0.00278462539 0.0438302048 0.000107108186 0.00183061732 0.0438302048 -0.000192672902 0.00278462539 0.0438302048 -0.000257333944 0.00276430673 0.0439041704 0.000107108186 0.00183061732 0.0438302048 0.000107108186 0.00183061732 0.0438302048 -0.000257333944 0.00276430673 0.0439041704 4.24471364e-05 0.00181029865 0.0439041704 -0.000257333944 0.00276430673 0.0439041704 -0.000327899121 0.00274213264 0.0439719483 4.24471364e-05 0.00181029865 0.0439041704 4.24471364e-05 0.00181029865 0.0439041704 -0.000327899121 0.00274213264 0.0439719483 -2.81180219e-05 0.00178812467 0.0439719483 -0.000327899121 0.00274213264 0.0439719483 -0.000403831335 0.00271827239 0.0440330245 -2.81180219e-05 0.00178812467 0.0439719483 -2.81180219e-05 0.00178812467 0.0439719483 -0.000403831335 0.00271827239 0.0440330245 -0.000104050239 0.00176426431 0.0440330245 -0.000403831335 0.00271827239 0.0440330245 -0.0004845527 0.00269290688 0.0440869294 -0.000104050239 0.00176426431 0.0440330245 -0.000104050239 0.00176426431 0.0440330245 -0.0004845527 0.00269290688 0.0440869294 -0.000184771619 0.00173889892 0.0440869294 -0.0004845527 0.00269290688 0.0440869294 -0.000569448923 0.00266622985 0.0441332534 -0.000184771619 0.00173889892 0.0440869294 -0.000184771619 0.00173889892 0.0440869294 -0.000569448923 0.00266622985 0.0441332534 -0.000269667857 0.00171222177 0.0441332534 -0.000569448923 0.00266622985 0.0441332534 -0.000657873868 0.00263844361 0.0441716462 -0.000269667857 0.00171222177 0.0441332534 -0.000269667857 0.00171222177 0.0441332534 -0.000657873868 0.00263844361 0.0441716462 -0.000358092773 0.00168443564 0.0441716462 -0.000657873868 0.00263844361 0.0441716462 -0.00074915454 0.00260976027 0.0442018136 -0.000358092773 0.00168443564 0.0441716462 -0.000358092773 0.00168443564 0.0441716462 -0.00074915454 0.00260976027 0.0442018136 -0.000449373474 0.00165575219 0.0442018136 -0.00074915454 0.00260976027 0.0442018136 -0.000842596288 0.00258039776 0.0442235284 -0.000449373474 0.00165575219 0.0442018136 -0.000449373474 0.00165575219 0.0442018136 -0.000842596288 0.00258039776 0.0442235284 -0.000542815193 0.00162638968 0.0442235284 -0.000842596288 0.00258039776 0.0442235284 -0.00093748793 0.00255057961 0.0442366228 -0.000542815193 0.00162638968 0.0442235284 -0.000542815193 0.00162638968 0.0442235284 -0.00093748793 0.00255057961 0.0442366228 -0.000637706893 0.00159657164 0.0442366228 -0.00093748793 0.00255057961 0.0442366228 -0.00103310728 0.00252053281 0.044241 -0.000637706893 0.00159657164 0.0442366228 -0.000637706893 0.00159657164 0.0442366228 -0.00103310728 0.00252053281 0.044241 -0.000733326247 0.00156652485 0.044241 -0.00103310728 0.00252053281 0.044241 -0.00112872664 0.00249048602 0.0442366228 -0.000733326247 0.00156652485 0.044241 -0.000733326247 0.00156652485 0.044241 -0.00112872664 0.00249048602 0.0442366228 -0.000828945602 0.00153647806 0.0442366228 -0.00112872664 0.00249048602 0.0442366228 -0.00122361828 0.00246066786 0.0442235284 -0.000828945602 0.00153647806 0.0442366228 -0.000828945602 0.00153647806 0.0442366228 -0.00122361828 0.00246066786 0.0442235284 -0.000923837244 0.0015066599 0.0442235284 -0.00122361828 0.00246066786 0.0442235284 -0.00131706009 0.00243130536 0.0442018136 -0.000923837244 0.0015066599 0.0442235284 -0.000923837244 0.0015066599 0.0442235284 -0.00131706009 0.00243130536 0.0442018136 -0.00101727899 0.0014772974 0.0442018136 -0.00131706009 0.00243130536 0.0442018136 -0.00140834076 0.00240262202 0.0441716462 -0.00101727899 0.0014772974 0.0442018136 -0.00101727899 0.0014772974 0.0442018136 -0.00140834076 0.00240262202 0.0441716462 -0.00110855966 0.00144861394 0.0441716462 -0.00140834076 0.00240262202 0.0441716462 -0.00149676576 0.00237483601 0.0441332534 -0.00110855966 0.00144861394 0.0441716462 -0.00110855966 0.00144861394 0.0441716462 -0.00149676576 0.00237483601 0.0441332534 -0.00119698467 0.00142082793 0.0441332534 -0.00149676576 0.00237483601 0.0441332534 -0.00158166199 0.00234815874 0.0440869294 -0.00119698467 0.00142082793 0.0441332534 -0.00119698467 0.00142082793 0.0441332534 -0.00158166199 0.00234815874 0.0440869294 -0.00128188089 0.00139415066 0.0440869294 -0.00158166199 0.00234815874 0.0440869294 -0.00166238332 0.00232279347 0.0440330245 -0.00128188089 0.00139415066 0.0440869294 -0.00128188089 0.00139415066 0.0440869294 -0.00166238332 0.00232279347 0.0440330245 -0.00136260223 0.00136878539 0.0440330245 -0.00166238332 0.00232279347 0.0440330245 -0.00173831556 0.00229893299 0.0439719483 -0.00136260223 0.00136878539 0.0440330245 -0.00136260223 0.00136878539 0.0440330245 -0.00173831556 0.00229893299 0.0439719483 -0.00143853447 0.00134492491 0.0439719483 -0.00173831556 0.00229893299 0.0439719483 -0.00180888071 0.0022767589 0.0439041704 -0.00143853447 0.00134492491 0.0439719483 -0.00143853447 0.00134492491 0.0439719483 -0.00180888071 0.0022767589 0.0439041704 -0.00150909962 0.00132275105 0.0439041704 -0.00180888071 0.0022767589 0.0439041704 -0.00187354174 0.00225644046 0.0438302048 -0.00150909962 0.00132275105 0.0439041704 -0.00150909962 0.00132275105 0.0439041704 -0.00187354174 0.00225644046 0.0438302048 -0.00157376064 0.00130243239 0.0438302048 -0.00187354174 0.00225644046 0.0438302048 -0.00193180656 0.00223813159 0.0437506102 -0.00157376064 0.00130243239 0.0438302048 -0.00157376064 0.00130243239 0.0438302048 -0.00193180656 0.00223813159 0.0437506102 -0.00163202547 0.00128412363 0.0437506102 -0.00193180656 0.00223813159 0.0437506102 -0.00198323186 0.00222197198 0.0436659977 -0.00163202547 0.00128412363 0.0437506102 -0.00163202547 0.00128412363 0.0437506102 -0.00198323186 0.00222197198 0.0436659977 -0.00168345065 0.00126796402 0.0436659977 -0.00198323186 0.00222197198 0.0436659977 -0.00202742592 0.0022080848 0.0435770079 -0.00168345065 0.00126796402 0.0436659977 -0.00168345065 0.00126796402 0.0436659977 -0.00202742592 0.0022080848 0.0435770079 -0.00172764482 0.00125407684 0.0435770079 -0.00202742592 0.0022080848 0.0435770079 -0.00206405274 0.00219657551 0.0434843227 -0.00172764482 0.00125407684 0.0435770079 -0.00172764482 0.00125407684 0.0435770079 -0.00206405274 0.00219657551 0.0434843227 -0.00176427164 0.00124256744 0.0434843227 -0.00206405274 0.00219657551 0.0434843227 -0.0020928334 0.00218753167 0.0433886424 -0.00176427164 0.00124256744 0.0434843227 -0.00176427164 0.00124256744 0.0434843227 -0.0020928334 0.00218753167 0.0433886424 -0.00179305242 0.0012335236 0.0433886424 -0.0020928334 0.00218753167 0.0433886424 -0.00211354904 0.0021810222 0.0432906933 -0.00179305242 0.0012335236 0.0433886424 -0.00179305242 0.0012335236 0.0433886424 -0.00211354904 0.0021810222 0.0432906933 -0.00181376794 0.00122701412 0.0432906933 -0.00211354904 0.0021810222 0.0432906933 -0.0021260418 0.00217709644 0.0431912281 -0.00181376794 0.00122701412 0.0432906933 -0.00181376794 0.00122701412 0.0432906933 -0.0021260418 0.00217709644 0.0431912281 -0.00182626059 0.00122308847 0.0431912281 -0.0021260418 0.00217709644 0.0431912281 -0.00213021645 0.00217578467 0.0430909991 -0.00182626059 0.00122308847 0.0431912281 -0.00182626059 0.00122308847 0.0431912281 -0.00213021645 0.00217578467 0.0430909991 -0.00183043547 0.00122177659 0.0430909991 -0.00136260223 0.00136878539 0.0421489738 -0.00128188089 0.00139415066 0.0420950688 -0.00110855966 0.00144861394 0.0441716462 -0.00110855966 0.00144861394 0.042010352 -0.000358092773 0.00168443564 0.0441716462 -0.000449373474 0.00165575219 0.0442018136 -0.00150909962 0.00132275105 0.0422778241 -0.00143853447 0.00134492491 0.0422100462 -0.00136260223 0.00136878539 0.0440330245 -0.00128188089 0.00139415066 0.0420950688 -0.00119698467 0.00142082793 0.0420487449 -0.00110855966 0.00144861394 0.0441716462 -0.00119698467 0.00142082793 0.0420487449 -0.00110855966 0.00144861394 0.042010352 -0.00110855966 0.00144861394 0.0441716462 -0.00110855966 0.00144861394 0.0441716462 -0.00110855966 0.00144861394 0.042010352 -0.00101727899 0.0014772974 0.0442018136 -0.00110855966 0.00144861394 0.042010352 -0.00101727899 0.0014772974 0.0419801846 -0.000358092773 0.00168443564 0.0441716462 -0.00101727899 0.0014772974 0.0419801846 -0.000923837244 0.0015066599 0.0419584699 -0.000358092773 0.00168443564 0.0441716462 -0.000358092773 0.00168443564 0.0441716462 -0.000923837244 0.0015066599 0.0419584699 -0.000828945602 0.00153647806 0.0419453755 -0.00136260223 0.00136878539 0.0440330245 -0.00143853447 0.00134492491 0.0422100462 -0.00128188089 0.00139415066 0.0440869294 -0.000269667857 0.00171222177 0.0420487449 -0.000184771619 0.00173889892 0.0420950688 -0.000358092773 0.00168443564 0.0441716462 -0.000184771619 0.00173889892 0.0420950688 -0.000104050239 0.00176426431 0.0421489738 -0.000358092773 0.00168443564 0.0441716462 -0.000358092773 0.00168443564 0.0441716462 -0.000104050239 0.00176426431 0.0421489738 -0.000269667857 0.00171222177 0.0441332534 -0.000449373474 0.00165575219 0.0442018136 -0.000542815193 0.00162638968 0.0442235284 -0.00110855966 0.00144861394 0.042010352 -0.000542815193 0.00162638968 0.0442235284 -0.000637706893 0.00159657164 0.0442366228 -0.00110855966 0.00144861394 0.042010352 -0.00110855966 0.00144861394 0.042010352 -0.000637706893 0.00159657164 0.0442366228 -0.000733326247 0.00156652485 0.044241 -0.000733326247 0.00156652485 0.044241 -0.000828945602 0.00153647806 0.0442366228 -0.00110855966 0.00144861394 0.042010352 -0.000828945602 0.00153647806 0.0442366228 -0.000923837244 0.0015066599 0.0442235284 -0.00110855966 0.00144861394 0.042010352 -0.00110855966 0.00144861394 0.042010352 -0.000923837244 0.0015066599 0.0442235284 -0.00101727899 0.0014772974 0.0442018136 -0.000828945602 0.00153647806 0.0419453755 -0.000733326247 0.00156652485 0.0419409983 -0.000358092773 0.00168443564 0.0441716462 -0.000733326247 0.00156652485 0.0419409983 -0.000637706893 0.00159657164 0.0419453755 -0.000358092773 0.00168443564 0.0441716462 -0.000358092773 0.00168443564 0.0441716462 -0.000637706893 0.00159657164 0.0419453755 -0.000542815193 0.00162638968 0.0419584699 -0.000542815193 0.00162638968 0.0419584699 -0.000449373474 0.00165575219 0.0419801846 -0.000358092773 0.00168443564 0.0441716462 -0.000449373474 0.00165575219 0.0419801846 -0.000358092773 0.00168443564 0.042010352 -0.000358092773 0.00168443564 0.0441716462 -0.000358092773 0.00168443564 0.0441716462 -0.000358092773 0.00168443564 0.042010352 -0.000269667857 0.00171222177 0.0420487449 -0.00136260223 0.00136878539 0.0421489738 -0.00110855966 0.00144861394 0.0441716462 -0.00143853447 0.00134492491 0.0422100462 -0.00110855966 0.00144861394 0.0441716462 -0.00119698467 0.00142082793 0.0441332534 -0.00143853447 0.00134492491 0.0422100462 -0.00143853447 0.00134492491 0.0422100462 -0.00119698467 0.00142082793 0.0441332534 -0.00128188089 0.00139415066 0.0440869294 -0.00150909962 0.00132275105 0.0439041704 -0.00157376064 0.00130243239 0.0438302048 -0.00157376064 0.00130243239 0.0423517935 -2.81180219e-05 0.00178812467 0.0422100462 -0.000104050239 0.00176426431 0.0440330245 -0.000104050239 0.00176426431 0.0421489738 -0.000104050239 0.00176426431 0.0440330245 -0.000184771619 0.00173889892 0.0440869294 -0.000104050239 0.00176426431 0.0421489738 -0.000104050239 0.00176426431 0.0421489738 -0.000184771619 0.00173889892 0.0440869294 -0.000269667857 0.00171222177 0.0441332534 0.000107108186 0.00183061732 0.0423517935 0.000107108186 0.00183061732 0.0438302048 4.24471364e-05 0.00181029865 0.0439041704 -0.00150909962 0.00132275105 0.0422778241 -0.00136260223 0.00136878539 0.0440330245 -0.00157376064 0.00130243239 0.0423517935 -0.00136260223 0.00136878539 0.0440330245 -0.00143853447 0.00134492491 0.0439719483 -0.00157376064 0.00130243239 0.0423517935 -0.00157376064 0.00130243239 0.0423517935 -0.00143853447 0.00134492491 0.0439719483 -0.00150909962 0.00132275105 0.0439041704 0.000107108186 0.00183061732 0.0423517935 0.000165373029 0.00184892607 0.0424313843 0.000107108186 0.00183061732 0.0438302048 0.000165373029 0.00184892607 0.0424313843 0.000216798217 0.00186508556 0.0425160006 0.000107108186 0.00183061732 0.0438302048 0.000107108186 0.00183061732 0.0438302048 0.000216798217 0.00186508556 0.0425160006 0.000165373029 0.00184892607 0.0437506102 -2.81180219e-05 0.00178812467 0.0422100462 4.24471364e-05 0.00181029865 0.0422778241 -0.000104050239 0.00176426431 0.0440330245 4.24471364e-05 0.00181029865 0.0422778241 0.000107108186 0.00183061732 0.0423517935 -0.000104050239 0.00176426431 0.0440330245 -0.000104050239 0.00176426431 0.0440330245 0.000107108186 0.00183061732 0.0423517935 -2.81180219e-05 0.00178812467 0.0439719483 0.000107108186 0.00183061732 0.0423517935 4.24471364e-05 0.00181029865 0.0439041704 -2.81180219e-05 0.00178812467 0.0439719483 -0.00168345065 0.00126796402 0.0436659977 -0.00172764482 0.00125407684 0.0426049866 -0.00168345065 0.00126796402 0.0425160006 -0.00157376064 0.00130243239 0.0438302048 -0.00163202547 0.00128412363 0.0437506102 -0.00157376064 0.00130243239 0.0423517935 -0.00163202547 0.00128412363 0.0437506102 -0.00168345065 0.00126796402 0.0436659977 -0.00157376064 0.00130243239 0.0423517935 -0.00157376064 0.00130243239 0.0423517935 -0.00168345065 0.00126796402 0.0436659977 -0.00163202547 0.00128412363 0.0424313843 -0.00168345065 0.00126796402 0.0436659977 -0.00168345065 0.00126796402 0.0425160006 -0.00163202547 0.00128412363 0.0424313843 -0.00168345065 0.00126796402 0.0436659977 -0.00172764482 0.00125407684 0.0435770079 -0.00172764482 0.00125407684 0.0426049866 -0.00172764482 0.00125407684 0.0435770079 -0.00176427164 0.00124256744 0.0434843227 -0.00172764482 0.00125407684 0.0426049866 -0.00172764482 0.00125407684 0.0426049866 -0.00176427164 0.00124256744 0.0434843227 -0.00179305242 0.0012335236 0.0433886424 0.000165373029 0.00184892607 0.0437506102 0.000216798217 0.00186508556 0.0425160006 0.000216798217 0.00186508556 0.0436659977 0.000216798217 0.00186508556 0.0425160006 0.000260992383 0.00187897286 0.0426049866 0.000216798217 0.00186508556 0.0436659977 0.000216798217 0.00186508556 0.0436659977 0.000260992383 0.00187897286 0.0426049866 0.000297619205 0.00189048215 0.0426976755 -0.00179305242 0.0012335236 0.0427933559 -0.00182626059 0.00122308847 0.0431912281 -0.00181376794 0.00122701412 0.0428913049 -0.00182626059 0.00122308847 0.0431912281 -0.00183043547 0.00122177659 0.0430909991 -0.00181376794 0.00122701412 0.0428913049 -0.00181376794 0.00122701412 0.0428913049 -0.00183043547 0.00122177659 0.0430909991 -0.00182626059 0.00122308847 0.0429907702 -0.00179305242 0.0012335236 0.0433886424 -0.00181376794 0.00122701412 0.0432906933 -0.00172764482 0.00125407684 0.0426049866 -0.00181376794 0.00122701412 0.0432906933 -0.00182626059 0.00122308847 0.0431912281 -0.00172764482 0.00125407684 0.0426049866 -0.00172764482 0.00125407684 0.0426049866 -0.00182626059 0.00122308847 0.0431912281 -0.00176427164 0.00124256744 0.0426976755 -0.00182626059 0.00122308847 0.0431912281 -0.00179305242 0.0012335236 0.0427933559 -0.00176427164 0.00124256744 0.0426976755 0.000326399895 0.00189952611 0.0433886424 0.000359608151 0.00190996123 0.0429907702 0.00034711542 0.00190603558 0.0432906933 0.000359608151 0.00190996123 0.0429907702 0.00036378298 0.00191127311 0.0430909991 0.00034711542 0.00190603558 0.0432906933 0.00034711542 0.00190603558 0.0432906933 0.00036378298 0.00191127311 0.0430909991 0.000359608151 0.00190996123 0.0431912281 0.000297619205 0.00189048215 0.0426976755 0.000326399895 0.00189952611 0.0427933559 0.000216798217 0.00186508556 0.0436659977 0.000326399895 0.00189952611 0.0427933559 0.00034711542 0.00190603558 0.0428913049 0.000216798217 0.00186508556 0.0436659977 0.000216798217 0.00186508556 0.0436659977 0.00034711542 0.00190603558 0.0428913049 0.000260992383 0.00187897286 0.0435770079 0.00034711542 0.00190603558 0.0428913049 0.000359608151 0.00190996123 0.0429907702 0.000260992383 0.00187897286 0.0435770079 0.000260992383 0.00187897286 0.0435770079 0.000359608151 0.00190996123 0.0429907702 0.000297619205 0.00189048215 0.0434843227 0.000359608151 0.00190996123 0.0429907702 0.000326399895 0.00189952611 0.0433886424 0.000297619205 0.00189048215 0.0434843227 </float_array>
          <technique_common>
            <accessor count="852" offset="0" source="#mesh_0-positions-array" stride="3">
              <param name="X" type="float" />
              <param name="Y" type="float" />
              <param name="Z" type="float" />
            </accessor>
          </technique_common>
        </source>
        <source id="mesh_0-normals" name="mesh_0-normals">
          <float_array id="mesh_0-normals-array" count="2556"> -0.299781442 0.954007924 9.811707e-08 -0.299781442 0.954007924 9.811707e-08 -0.299781442 0.954007924 9.811707e-08 -0.299780905 0.954008102 -5.70057139e-08 -0.299780905 0.954008102 -5.70057139e-08 -0.299780905 0.954008102 -5.70057139e-08 -0.299780309 0.954008281 -2.47661234e-07 -0.299780309 0.954008281 -2.47661234e-07 -0.299780309 0.954008281 -2.47661234e-07 -0.299780309 0.954008281 -2.47661234e-07 -0.299780309 0.954008281 -2.47661234e-07 -0.299780309 0.954008281 -2.47661234e-07 -0.29978025 0.954008281 0 -0.29978025 0.954008281 0 -0.29978025 0.954008281 0 -0.299780369 0.954008222 -0 -0.299780369 0.954008222 -0 -0.299780369 0.954008222 -0 -0.299781561 0.954007864 5.40884564e-08 -0.299781561 0.954007864 5.40884564e-08 -0.299781561 0.954007864 5.40884564e-08 -0.299782842 0.954007447 0 -0.299782842 0.954007447 0 -0.299782842 0.954007447 0 -0.29978025 0.954008281 -0 -0.29978025 0.954008281 -0 -0.29978025 0.954008281 -0 -0.299781054 0.954008043 3.739882e-08 -0.299781054 0.954008043 3.739882e-08 -0.299781054 0.954008043 3.739882e-08 -0.299781471 0.954007924 7.48341336e-08 -0.299781471 0.954007924 7.48341336e-08 -0.299781471 0.954007924 7.48341336e-08 -0.299781173 0.954007983 3.36046284e-08 -0.299781173 0.954007983 3.36046284e-08 -0.299781173 0.954007983 3.36046284e-08 -0.299781173 0.954007983 3.30910339e-08 -0.299781173 0.954007983 3.30910339e-08 -0.299781173 0.954007983 3.30910339e-08 -0.299780369 0.954008222 -5.62322207e-08 -0.299780369 0.954008222 -5.62322207e-08 -0.299780369 0.954008222 -5.62322207e-08 -0.299780905 0.954008102 2.95444345e-08 -0.299780905 0.954008102 2.95444345e-08 -0.299780905 0.954008102 2.95444345e-08 -0.299781471 0.954007924 8.28104021e-08 -0.299781471 0.954007924 8.28104021e-08 -0.299781471 0.954007924 8.28104021e-08 -0.299781173 0.954007983 4.14879757e-08 -0.299781173 0.954007983 4.14879757e-08 -0.299781173 0.954007983 4.14879757e-08 -0.299781173 0.954007983 4.0853898e-08 -0.299781173 0.954007983 4.0853898e-08 -0.299781173 0.954007983 4.0853898e-08 -0.299781442 0.954007924 1.0573283e-07 -0.299781442 0.954007924 1.0573283e-07 -0.299781442 0.954007924 1.0573283e-07 -0.299781054 0.954008043 -4.50399273e-09 -0.299781054 0.954008043 -4.50399273e-09 -0.299781054 0.954008043 -4.50399273e-09 -0.299782932 0.954007447 -1.79040271e-07 -0.299782932 0.954007447 -1.79040271e-07 -0.299782932 0.954007447 -1.79040271e-07 -0.299782723 0.954007506 -1.51862892e-07 -0.299782723 0.954007506 -1.51862892e-07 -0.299782723 0.954007506 -1.51862892e-07 -0.299779296 0.954008579 1.62813535e-07 -0.299779296 0.954008579 1.62813535e-07 -0.299779296 0.954008579 1.62813535e-07 -0.299780428 0.954008222 -4.91787908e-08 -0.299780428 0.954008222 -4.91787908e-08 -0.299780428 0.954008222 -4.91787908e-08 -0.299781531 0.954007864 1.01305567e-07 -0.299781531 0.954007864 1.01305567e-07 -0.299781531 0.954007864 1.01305567e-07 -0.299780339 0.954008281 -1.19265707e-07 -0.299780339 0.954008281 -1.19265707e-07 -0.299780339 0.954008281 -1.19265707e-07 -0.299781621 0.954007864 5.80157291e-08 -0.299781621 0.954007864 5.80157291e-08 -0.299781621 0.954007864 5.80157291e-08 -0.299779117 0.954008639 1.68799374e-07 -0.299779117 0.954008639 1.68799374e-07 -0.299779117 0.954008639 1.68799374e-07 -0.299782813 0.954007447 -0 -0.299782813 0.954007447 -0 -0.299782813 0.954007447 -0 -0.299779058 0.954008639 0 -0.299779058 0.954008639 0 -0.299779058 0.954008639 0 -0.299781233 0.954007983 0 -0.299781233 0.954007983 0 -0.299781233 0.954007983 0 -0.299782962 0.954007447 1.7853236e-07 -0.299782962 0.954007447 1.7853236e-07 -0.299782962 0.954007447 1.7853236e-07 -0.299781233 0.954007983 2.0703931e-08 -0.299781233 0.954007983 2.0703931e-08 -0.299781233 0.954007983 2.0703931e-08 -0.299778819 0.954008758 -3.11610506e-07 -0.299778819 0.954008758 -3.11610506e-07 -0.299778819 0.954008758 -3.11610506e-07 -0.29978317 0.954007387 8.84588047e-08 -0.29978317 0.954007387 8.84588047e-08 -0.29978317 0.954007387 8.84588047e-08 -0.29978314 0.954007387 7.09273351e-08 -0.29978314 0.954007387 7.09273351e-08 -0.29978314 0.954007387 7.09273351e-08 -0.299778551 0.954008818 -3.51404168e-07 -0.299778551 0.954008818 -3.51404168e-07 -0.299778551 0.954008818 -3.51404168e-07 -0.29978165 0.954007864 7.81429534e-08 -0.29978165 0.954007864 7.81429534e-08 -0.29978165 0.954007864 7.81429534e-08 -0.299783438 0.954007268 2.39944711e-07 -0.299783438 0.954007268 2.39944711e-07 -0.299783438 0.954007268 2.39944711e-07 -0.299785614 0.954006612 -2.24965697e-06 -0.299785614 0.954006612 -2.24965697e-06 -0.299785614 0.954006612 -2.24965697e-06 -0.299779117 0.954008639 1.71119183e-07 -0.299779117 0.954008639 1.71119183e-07 -0.299779117 0.954008639 1.71119183e-07 -0.299782634 0.954007506 -1.51030392e-07 -0.299782634 0.954007506 -1.51030392e-07 -0.299782634 0.954007506 -1.51030392e-07 -0.299779326 0.954008579 0 -0.299779326 0.954008579 0 -0.299779326 0.954008579 0 -0.299791723 0.954004705 -1.30496198e-06 -0.299791723 0.954004705 -1.30496198e-06 -0.299791723 0.954004705 -1.30496198e-06 -0.299786747 0.954006255 -3.44037971e-07 -0.299786747 0.954006255 -3.44037971e-07 -0.299786747 0.954006255 -3.44037971e-07 -0.299785882 0.954006493 -2.36786877e-06 -0.299785882 0.954006493 -2.36786877e-06 -0.299785882 0.954006493 -2.36786877e-06 -0.299777836 0.954009056 1.56116027e-06 -0.299777836 0.954009056 1.56116027e-06 -0.299777836 0.954009056 1.56116027e-06 -0.299782634 0.954007506 -5.20581125e-07 -0.299782634 0.954007506 -5.20581125e-07 -0.299782634 0.954007506 -5.20581125e-07 -0.29978019 0.954008281 4.09067724e-07 -0.29978019 0.954008281 4.09067724e-07 -0.29978019 0.954008281 4.09067724e-07 -0.299783707 0.954007208 -7.51263713e-07 -0.299783707 0.954007208 -7.51263713e-07 -0.299783707 0.954007208 -7.51263713e-07 -0.299779832 0.9540084 3.39223021e-07 -0.299779832 0.9540084 3.39223021e-07 -0.299779832 0.9540084 3.39223021e-07 -0.299781144 0.954007983 3.27260743e-08 -0.299781144 0.954007983 3.27260743e-08 -0.299781144 0.954007983 3.27260743e-08 -0.299779773 0.9540084 2.83484724e-07 -0.299779773 0.9540084 2.83484724e-07 -0.299779773 0.9540084 2.83484724e-07 -0.299780309 0.954008281 2.09100634e-07 -0.299780309 0.954008281 2.09100634e-07 -0.299780309 0.954008281 2.09100634e-07 -0.299782276 0.954007626 2.98686693e-08 -0.299782276 0.954007626 2.98686693e-08 -0.299782276 0.954007626 2.98686693e-08 -0.299782932 0.954007447 -0 -0.299782932 0.954007447 -0 -0.299782932 0.954007447 -0 -0.299778193 0.954008937 0 -0.299778193 0.954008937 0 -0.299778193 0.954008937 0 -0.299782842 0.954007447 0 -0.299782842 0.954007447 0 -0.299782842 0.954007447 0 -0.299779177 0.954008639 -0 -0.299779177 0.954008639 -0 -0.299779177 0.954008639 -0 -0.299779177 0.954008639 0 -0.299779177 0.954008639 0 -0.299779177 0.954008639 0 -0.299779207 0.954008579 -0 -0.299779207 0.954008579 -0 -0.299779207 0.954008579 -0 -0.299780488 0.954008222 -2.97709619e-07 -0.299780488 0.954008222 -2.97709619e-07 -0.299780488 0.954008222 -2.97709619e-07 -0.299777687 0.954009116 6.27619841e-07 -0.299777687 0.954009116 6.27619841e-07 -0.299777687 0.954009116 6.27619841e-07 -0.299787372 0.954006016 -2.09738209e-06 -0.299787372 0.954006016 -2.09738209e-06 -0.299787372 0.954006016 -2.09738209e-06 -0.299781233 0.954007983 -3.41425647e-07 -0.299781233 0.954007983 -3.41425647e-07 -0.299781233 0.954007983 -3.41425647e-07 -0.299773753 0.954010308 -0 -0.299773753 0.954010308 -0 -0.299773753 0.954010308 -0 -0.299808264 0.95399946 0 -0.299808264 0.95399946 0 -0.299808264 0.95399946 0 -0.299777806 0.954009056 6.17082776e-07 -0.299777806 0.954009056 6.17082776e-07 -0.299777806 0.954009056 6.17082776e-07 -0.299777985 0.954008996 5.82913572e-07 -0.299777985 0.954008996 5.82913572e-07 -0.299777985 0.954008996 5.82913572e-07 -0.299780667 0.954008162 2.12734065e-07 -0.299780667 0.954008162 2.12734065e-07 -0.299780667 0.954008162 2.12734065e-07 -0.953100145 -0.299495667 -0.0436174609 -0.953100145 -0.299495667 -0.0436174609 -0.953100145 -0.299495667 -0.0436174609 -0.953099966 -0.299495876 -0.0436200164 -0.953099966 -0.299495876 -0.0436200164 -0.953099966 -0.299495876 -0.0436200164 -0.945846021 -0.297216475 -0.130528286 -0.945846021 -0.297216475 -0.130528286 -0.945846021 -0.297216475 -0.130528286 -0.94584626 -0.297216386 -0.130526856 -0.94584626 -0.297216386 -0.130526856 -0.94584626 -0.297216386 -0.130526856 -0.931395173 -0.292675376 -0.216435075 -0.931395173 -0.292675376 -0.216435075 -0.931395173 -0.292675376 -0.216435075 -0.931395411 -0.292675346 -0.216434032 -0.931395411 -0.292675346 -0.216434032 -0.931395411 -0.292675346 -0.216434032 -0.909852982 -0.285905987 -0.300708115 -0.909852982 -0.285905987 -0.300708115 -0.909852982 -0.285905987 -0.300708115 -0.909852624 -0.285905987 -0.300709099 -0.909852624 -0.285905987 -0.300709099 -0.909852624 -0.285905987 -0.300709099 -0.881390095 -0.276962101 -0.382679403 -0.881390095 -0.276962101 -0.382679403 -0.881390095 -0.276962101 -0.382679403 -0.881389976 -0.276962101 -0.382679701 -0.881389976 -0.276962101 -0.382679701 -0.881389976 -0.276962101 -0.382679701 -0.846209943 -0.265907377 -0.461759657 -0.846209943 -0.265907377 -0.461759657 -0.846209943 -0.265907377 -0.461759657 -0.846209466 -0.265907317 -0.461760521 -0.846209466 -0.265907317 -0.461760521 -0.846209466 -0.265907317 -0.461760521 -0.804610789 -0.252835602 -0.537285447 -0.804610789 -0.252835602 -0.537285447 -0.804610789 -0.252835602 -0.537285447 -0.804611266 -0.252835661 -0.537284672 -0.804611266 -0.252835661 -0.537284672 -0.804611266 -0.252835661 -0.537284672 -0.75685823 -0.237830073 -0.608771265 -0.75685823 -0.237830073 -0.608771265 -0.75685823 -0.237830073 -0.608771265 -0.756858408 -0.237830102 -0.608771086 -0.756858408 -0.237830102 -0.608771086 -0.756858408 -0.237830102 -0.608771086 -0.703378975 -0.221025094 -0.675578237 -0.703378975 -0.221025094 -0.675578237 -0.703378975 -0.221025094 -0.675578237 -0.703378618 -0.221025035 -0.675578594 -0.703378618 -0.221025035 -0.675578594 -0.703378618 -0.221025035 -0.675578594 -0.644516289 -0.202528521 -0.737279415 -0.644516289 -0.202528521 -0.737279415 -0.644516289 -0.202528521 -0.737279415 -0.644516647 -0.202528581 -0.737279117 -0.644516647 -0.202528581 -0.737279117 -0.644516647 -0.202528581 -0.737279117 -0.580755115 -0.182492599 -0.793359935 -0.580755115 -0.182492599 -0.793359935 -0.580755115 -0.182492599 -0.793359935 -0.580755115 -0.182492599 -0.793359935 -0.580755115 -0.182492599 -0.793359935 -0.580755115 -0.182492599 -0.793359935 -0.512592435 -0.161073595 -0.843388557 -0.512592435 -0.161073595 -0.843388557 -0.512592435 -0.161073595 -0.843388557 -0.512592435 -0.161073595 -0.843388557 -0.512592435 -0.161073595 -0.843388557 -0.512592435 -0.161073595 -0.843388557 -0.44050616 -0.138421699 -0.887013972 -0.44050616 -0.138421699 -0.887013972 -0.44050616 -0.138421699 -0.887013972 -0.44050616 -0.138421699 -0.887013972 -0.44050616 -0.138421699 -0.887013972 -0.44050616 -0.138421699 -0.887013972 -0.365085214 -0.114721924 -0.92387861 -0.365085214 -0.114721924 -0.92387861 -0.365085214 -0.114721924 -0.92387861 -0.365085214 -0.114721924 -0.92387861 -0.365085214 -0.114721924 -0.92387861 -0.365085214 -0.114721924 -0.92387861 -0.286869079 -0.0901438147 -0.953719139 -0.286869079 -0.0901438147 -0.953719139 -0.286869079 -0.0901438147 -0.953719139 -0.286868989 -0.0901437923 -0.953719199 -0.286868989 -0.0901437923 -0.953719199 -0.286868989 -0.0901437923 -0.953719199 -0.206489548 -0.0648858994 -0.976294994 -0.206489548 -0.0648858994 -0.976294994 -0.206489548 -0.0648858994 -0.976294994 -0.206489667 -0.0648859218 -0.976294935 -0.206489667 -0.0648859218 -0.976294935 -0.206489667 -0.0648859218 -0.976294935 -0.1245175 -0.0391275398 -0.991445601 -0.1245175 -0.0391275398 -0.991445601 -0.1245175 -0.0391275398 -0.991445601 -0.1245175 -0.0391275398 -0.991445601 -0.1245175 -0.0391275398 -0.991445601 -0.1245175 -0.0391275398 -0.991445601 -0.0416238718 -0.0130796051 -0.999047756 -0.0416238718 -0.0130796051 -0.999047756 -0.0416238718 -0.0130796051 -0.999047756 -0.0416238718 -0.0130796051 -0.999047756 -0.0416238718 -0.0130796051 -0.999047756 -0.0416238718 -0.0130796051 -0.999047756 0.0416238718 0.0130796051 -0.999047756 0.0416238718 0.0130796051 -0.999047756 0.0416238718 0.0130796051 -0.999047756 0.0416238718 0.0130796051 -0.999047756 0.0416238718 0.0130796051 -0.999047756 0.0416238718 0.0130796051 -0.999047756 0.1245175 0.0391275398 -0.991445601 0.1245175 0.0391275398 -0.991445601 0.1245175 0.0391275398 -0.991445601 0.124517471 0.0391275361 -0.991445601 0.124517471 0.0391275361 -0.991445601 0.124517471 0.0391275361 -0.991445601 0.206489667 0.0648859292 -0.976294935 0.206489667 0.0648859292 -0.976294935 0.206489667 0.0648859292 -0.976294935 0.206489727 0.0648859367 -0.976294935 0.206489727 0.0648859367 -0.976294935 0.206489727 0.0648859367 -0.976294935 0.286869079 0.0901438072 -0.953719139 0.286869079 0.0901438072 -0.953719139 0.286869079 0.0901438072 -0.953719139 0.2868689 0.09014377 -0.953719199 0.2868689 0.09014377 -0.953719199 0.2868689 0.09014377 -0.953719199 0.365085155 0.114721924 -0.92387861 0.365085155 0.114721924 -0.92387861 0.365085155 0.114721924 -0.92387861 0.365085363 0.114721969 -0.923878551 0.365085363 0.114721969 -0.923878551 0.365085363 0.114721969 -0.923878551 0.440506428 0.138421774 -0.887013793 0.440506428 0.138421774 -0.887013793 0.440506428 0.138421774 -0.887013793 0.44050622 0.138421729 -0.887013912 0.44050622 0.138421729 -0.887013912 0.44050622 0.138421729 -0.887013912 0.512592018 0.161073476 -0.843388855 0.512592018 0.161073476 -0.843388855 0.512592018 0.161073476 -0.843388855 0.512592077 0.161073491 -0.843388796 0.512592077 0.161073491 -0.843388796 0.512592077 0.161073491 -0.843388796 0.580755591 0.182492733 -0.793359518 0.580755591 0.182492733 -0.793359518 0.580755591 0.182492733 -0.793359518 0.580755413 0.182492703 -0.793359697 0.580755413 0.182492703 -0.793359697 0.580755413 0.182492703 -0.793359697 0.64451617 0.202528462 -0.737279534 0.64451617 0.202528462 -0.737279534 0.64451617 0.202528462 -0.737279534 0.644516408 0.202528507 -0.737279296 0.644516408 0.202528507 -0.737279296 0.644516408 0.202528507 -0.737279296 0.703378558 0.22102496 -0.675578654 0.703378558 0.22102496 -0.675578654 0.703378558 0.22102496 -0.675578654 0.703378558 0.221024945 -0.675578713 0.703378558 0.221024945 -0.675578713 0.703378558 0.221024945 -0.675578713 0.756858408 0.237830102 -0.608771026 0.756858408 0.237830102 -0.608771026 0.756858408 0.237830102 -0.608771026 0.756858289 0.237830088 -0.608771205 0.756858289 0.237830088 -0.608771205 0.756858289 0.237830088 -0.608771205 0.804611266 0.252835661 -0.537284672 0.804611266 0.252835661 -0.537284672 0.804611266 0.252835661 -0.537284672 0.804611444 0.252835691 -0.537284434 0.804611444 0.252835691 -0.537284434 0.804611444 0.252835691 -0.537284434 0.846209526 0.265907168 -0.461760581 0.846209526 0.265907168 -0.461760581 0.846209526 0.265907168 -0.461760581 0.846209407 0.265907168 -0.461760819 0.846209407 0.265907168 -0.461760819 0.846209407 0.265907168 -0.461760819 0.881390095 0.276962131 -0.382679313 0.881390095 0.276962131 -0.382679313 0.881390095 0.276962131 -0.382679313 0.881390095 0.276962131 -0.382679403 0.881390095 0.276962131 -0.382679403 0.881390095 0.276962131 -0.382679403 0.909852624 0.285906017 -0.300709009 0.909852624 0.285906017 -0.300709009 0.909852624 0.285906017 -0.300709009 0.909852743 0.285906017 -0.300708681 0.909852743 0.285906017 -0.300708681 0.909852743 0.285906017 -0.300708681 0.931395411 0.292675436 -0.216434121 0.931395411 0.292675436 -0.216434121 0.931395411 0.292675436 -0.216434121 0.931395411 0.292675436 -0.216434032 0.931395411 0.292675436 -0.216434032 0.931395411 0.292675436 -0.216434032 0.9458462 0.297216356 -0.130527258 0.9458462 0.297216356 -0.130527258 0.9458462 0.297216356 -0.130527258 0.94584614 0.297216356 -0.130527675 0.94584614 0.297216356 -0.130527675 0.94584614 0.297216356 -0.130527675 0.953099966 0.299495757 -0.0436198115 0.953099966 0.299495757 -0.0436198115 0.953099966 0.299495757 -0.0436198115 0.953100026 0.299495727 -0.0436194651 0.953100026 0.299495727 -0.0436194651 0.953100026 0.299495727 -0.0436194651 0.953100026 0.299495727 0.0436198115 0.953100026 0.299495727 0.0436198115 0.953100026 0.299495727 0.0436198115 0.953100026 0.299495757 0.0436194651 0.953100026 0.299495757 0.0436194651 0.953100026 0.299495757 0.0436194651 0.9458462 0.297216386 0.130527258 0.9458462 0.297216386 0.130527258 0.9458462 0.297216386 0.130527258 0.9458462 0.297216326 0.130527675 0.9458462 0.297216326 0.130527675 0.9458462 0.297216326 0.130527675 0.931395411 0.292675406 0.216434121 0.931395411 0.292675406 0.216434121 0.931395411 0.292675406 0.216434121 0.931395411 0.292675436 0.216434032 0.931395411 0.292675436 0.216434032 0.931395411 0.292675436 0.216434032 0.909852684 0.285905987 0.300709009 0.909852684 0.285905987 0.300709009 0.909852684 0.285905987 0.300709009 0.909852743 0.285906047 0.300708681 0.909852743 0.285906047 0.300708681 0.909852743 0.285906047 0.300708681 0.881384909 0.276960492 0.382692456 0.881384909 0.276960492 0.382692456 0.881384909 0.276960492 0.382692456 0.881384909 0.276960492 0.382692546 0.881384909 0.276960492 0.382692546 0.881384909 0.276960492 0.382692546 0.846217036 0.265909582 0.461745381 0.846217036 0.265909582 0.461745381 0.846217036 0.265909582 0.461745381 0.846216977 0.265909523 0.46174559 0.846216977 0.265909523 0.46174559 0.846216977 0.265909523 0.46174559 0.804601073 0.252832413 0.537301481 0.804601073 0.252832413 0.537301481 0.804601073 0.252832413 0.537301481 0.804601192 0.252832502 0.537301242 0.804601192 0.252832502 0.537301242 0.804601192 0.252832502 0.537301242 0.756871581 0.23783426 0.608753085 0.756871581 0.23783426 0.608753085 0.756871581 0.23783426 0.608753085 0.756871462 0.2378342 0.608753264 0.756871462 0.2378342 0.608753264 0.756871462 0.2378342 0.608753264 0.703362405 0.221019879 0.675597191 0.703362405 0.221019879 0.675597191 0.703362405 0.221019879 0.675597191 0.703362405 0.221019864 0.675597191 0.703362405 0.221019864 0.675597191 0.703362405 0.221019864 0.675597191 0.64451617 0.202528432 0.737279534 0.64451617 0.202528432 0.737279534 0.64451617 0.202528432 0.737279534 0.644516408 0.202528536 0.737279296 0.644516408 0.202528536 0.737279296 0.644516408 0.202528536 0.737279296 0.580777884 0.182499766 0.793341637 0.580777884 0.182499766 0.793341637 0.580777884 0.182499766 0.793341637 0.580777705 0.182499677 0.793341756 0.580777705 0.182499677 0.793341756 0.580777705 0.182499677 0.793341756 0.512592018 0.161073461 0.843388855 0.512592018 0.161073461 0.843388855 0.512592018 0.161073461 0.843388855 0.512592077 0.161073506 0.843388796 0.512592077 0.161073506 0.843388796 0.512592077 0.161073506 0.843388796 0.440506428 0.138421789 0.887013793 0.440506428 0.138421789 0.887013793 0.440506428 0.138421789 0.887013793 0.44050625 0.138421714 0.887013912 0.44050625 0.138421714 0.887013912 0.44050625 0.138421714 0.887013912 0.365085155 0.114721902 0.92387861 0.365085155 0.114721902 0.92387861 0.365085155 0.114721902 0.92387861 0.365085363 0.114721991 0.923878551 0.365085363 0.114721991 0.923878551 0.365085363 0.114721991 0.923878551 0.286869079 0.0901438221 0.953719139 0.286869079 0.0901438221 0.953719139 0.286869079 0.0901438221 0.953719139 0.2868689 0.0901437551 0.953719199 0.2868689 0.0901437551 0.953719199 0.2868689 0.0901437551 0.953719199 0.206489667 0.0648859218 0.976294935 0.206489667 0.0648859218 0.976294935 0.206489667 0.0648859218 0.976294935 0.206489727 0.0648859441 0.976294935 0.206489727 0.0648859441 0.976294935 0.206489727 0.0648859441 0.976294935 0.1245175 0.0391275436 0.991445601 0.1245175 0.0391275436 0.991445601 0.1245175 0.0391275436 0.991445601 0.124517471 0.0391275324 0.991445601 0.124517471 0.0391275324 0.991445601 0.124517471 0.0391275324 0.991445601 0.0416238718 0.0130796051 0.999047756 0.0416238718 0.0130796051 0.999047756 0.0416238718 0.0130796051 0.999047756 0.0416238718 0.0130796051 0.999047756 0.0416238718 0.0130796051 0.999047756 0.0416238718 0.0130796051 0.999047756 -0.0416238718 -0.0130796051 0.999047756 -0.0416238718 -0.0130796051 0.999047756 -0.0416238718 -0.0130796051 0.999047756 -0.0416238718 -0.0130796051 0.999047756 -0.0416238718 -0.0130796051 0.999047756 -0.0416238718 -0.0130796051 0.999047756 -0.1245175 -0.0391275398 0.991445601 -0.1245175 -0.0391275398 0.991445601 -0.1245175 -0.0391275398 0.991445601 -0.1245175 -0.0391275398 0.991445601 -0.1245175 -0.0391275398 0.991445601 -0.1245175 -0.0391275398 0.991445601 -0.206489563 -0.0648858845 0.976294994 -0.206489563 -0.0648858845 0.976294994 -0.206489563 -0.0648858845 0.976294994 -0.206489667 -0.0648859367 0.976294935 -0.206489667 -0.0648859367 0.976294935 -0.206489667 -0.0648859367 0.976294935 -0.286869079 -0.0901438221 0.953719139 -0.286869079 -0.0901438221 0.953719139 -0.286869079 -0.0901438221 0.953719139 -0.286868989 -0.0901437849 0.953719199 -0.286868989 -0.0901437849 0.953719199 -0.286868989 -0.0901437849 0.953719199 -0.365085214 -0.114721924 0.92387861 -0.365085214 -0.114721924 0.92387861 -0.365085214 -0.114721924 0.92387861 -0.365085214 -0.114721924 0.92387861 -0.365085214 -0.114721924 0.92387861 -0.365085214 -0.114721924 0.92387861 -0.44050616 -0.138421699 0.887013972 -0.44050616 -0.138421699 0.887013972 -0.44050616 -0.138421699 0.887013972 -0.44050616 -0.138421699 0.887013972 -0.44050616 -0.138421699 0.887013972 -0.44050616 -0.138421699 0.887013972 -0.512592435 -0.161073595 0.843388557 -0.512592435 -0.161073595 0.843388557 -0.512592435 -0.161073595 0.843388557 -0.512592435 -0.161073595 0.843388557 -0.512592435 -0.161073595 0.843388557 -0.512592435 -0.161073595 0.843388557 -0.580777407 -0.182499602 0.793341994 -0.580777407 -0.182499602 0.793341994 -0.580777407 -0.182499602 0.793341994 -0.580777407 -0.182499602 0.793341994 -0.580777407 -0.182499602 0.793341994 -0.580777407 -0.182499602 0.793341994 -0.644516289 -0.202528477 0.737279415 -0.644516289 -0.202528477 0.737279415 -0.644516289 -0.202528477 0.737279415 -0.644516647 -0.202528626 0.737279117 -0.644516647 -0.202528626 0.737279117 -0.644516647 -0.202528626 0.737279117 -0.703362823 -0.221020058 0.675596714 -0.703362823 -0.221020058 0.675596714 -0.703362823 -0.221020058 0.675596714 -0.703362465 -0.221019909 0.675597072 -0.703362465 -0.221019909 0.675597072 -0.703362465 -0.221019909 0.675597072 -0.756871343 -0.237834185 0.608753324 -0.756871343 -0.237834185 0.608753324 -0.756871343 -0.237834185 0.608753324 -0.756871521 -0.23783426 0.608753145 -0.756871521 -0.23783426 0.608753145 -0.756871521 -0.23783426 0.608753145 -0.804600537 -0.252832323 0.537302315 -0.804600537 -0.252832323 0.537302315 -0.804600537 -0.252832323 0.537302315 -0.804601014 -0.252832562 0.537301481 -0.804601014 -0.252832562 0.537301481 -0.804601014 -0.252832562 0.537301481 -0.846217453 -0.265909851 0.461744457 -0.846217453 -0.265909851 0.461744457 -0.846217453 -0.265909851 0.461744457 -0.846217096 -0.265909612 0.461745322 -0.846217096 -0.265909612 0.461745322 -0.846217096 -0.265909612 0.461745322 -0.88138485 -0.276960492 0.382692546 -0.88138485 -0.276960492 0.382692546 -0.88138485 -0.276960492 0.382692546 -0.88138479 -0.276960433 0.382692844 -0.88138479 -0.276960433 0.382692844 -0.88138479 -0.276960433 0.382692844 -0.909852922 -0.285906076 0.300708115 -0.909852922 -0.285906076 0.300708115 -0.909852922 -0.285906076 0.300708115 -0.909852684 -0.285905868 0.300709099 -0.909852684 -0.285905868 0.300709099 -0.909852684 -0.285905868 0.300709099 -0.931395233 -0.292675257 0.216435075 -0.931395233 -0.292675257 0.216435075 -0.931395233 -0.292675257 0.216435075 -0.931395411 -0.292675436 0.216434032 -0.931395411 -0.292675436 0.216434032 -0.931395411 -0.292675436 0.216434032 -0.945846081 -0.297216326 0.130528286 -0.945846081 -0.297216326 0.130528286 -0.945846081 -0.297216326 0.130528286 -0.9458462 -0.297216535 0.130526856 -0.9458462 -0.297216535 0.130526856 -0.9458462 -0.297216535 0.130526856 -0.953100026 -0.299495906 0.0436174609 -0.953100026 -0.299495906 0.0436174609 -0.953100026 -0.299495906 0.0436174609 -0.953100026 -0.299495637 0.0436200164 -0.953100026 -0.299495637 0.0436200164 -0.953100026 -0.299495637 0.0436200164 0.299780428 -0.954008222 4.91787908e-08 0.299780428 -0.954008222 4.91787908e-08 0.299780428 -0.954008222 4.91787908e-08 0.299781263 -0.954007983 -5.54540556e-08 0.299781263 -0.954007983 -5.54540556e-08 0.299781263 -0.954007983 -5.54540556e-08 0.299780399 -0.954008222 5.51421557e-08 0.299780399 -0.954008222 5.51421557e-08 0.299780399 -0.954008222 5.51421557e-08 0.299781561 -0.954007864 -5.40884564e-08 0.299781561 -0.954007864 -5.40884564e-08 0.299781561 -0.954007864 -5.40884564e-08 0.299780369 -0.954008222 -0 0.299780369 -0.954008222 -0 0.299780369 -0.954008222 -0 0.299781352 -0.954007924 0 0.299781352 -0.954007924 0 0.299781352 -0.954007924 0 0.299781322 -0.954007924 -8.52264321e-08 0.299781322 -0.954007924 -8.52264321e-08 0.299781322 -0.954007924 -8.52264321e-08 0.299781054 -0.954008043 4.50399273e-09 0.299781054 -0.954008043 4.50399273e-09 0.299781054 -0.954008043 4.50399273e-09 0.299781442 -0.954007924 -1.0573283e-07 0.299781442 -0.954007924 -1.0573283e-07 0.299781442 -0.954007924 -1.0573283e-07 0.299780369 -0.954008222 5.62322207e-08 0.299780369 -0.954008222 5.62322207e-08 0.299780369 -0.954008222 5.62322207e-08 0.299780399 -0.954008222 -6.44922622e-08 0.299780399 -0.954008222 -6.44922622e-08 0.299780399 -0.954008222 -6.44922622e-08 0.299781501 -0.954007864 3.68275224e-08 0.299781501 -0.954007864 3.68275224e-08 0.299781501 -0.954007864 3.68275224e-08 0.299781829 -0.954007804 8.33745659e-08 0.299781829 -0.954007804 8.33745659e-08 0.299781829 -0.954007804 8.33745659e-08 0.299781144 -0.954007983 -1.80257427e-08 0.299781144 -0.954007983 -1.80257427e-08 0.299781144 -0.954007983 -1.80257427e-08 0.29978025 -0.954008281 2.2866233e-07 0.29978025 -0.954008281 2.2866233e-07 0.29978025 -0.954008281 2.2866233e-07 0.299781173 -0.954007983 1.6317232e-08 0.299781173 -0.954007983 1.6317232e-08 0.299781173 -0.954007983 1.6317232e-08 0.299781173 -0.954007983 1.65704872e-08 0.299781173 -0.954007983 1.65704872e-08 0.299781173 -0.954007983 1.65704872e-08 0.299781471 -0.954007924 -2.40676421e-08 0.299781471 -0.954007924 -2.40676421e-08 0.299781471 -0.954007924 -2.40676421e-08 0.299781054 -0.954008043 1.37755585e-08 0.299781054 -0.954008043 1.37755585e-08 0.299781054 -0.954008043 1.37755585e-08 0.299781173 -0.954007983 -4.0853898e-08 0.299781173 -0.954007983 -4.0853898e-08 0.299781173 -0.954007983 -4.0853898e-08 0.299781173 -0.954007983 -4.14879757e-08 0.299781173 -0.954007983 -4.14879757e-08 0.299781173 -0.954007983 -4.14879757e-08 0.29978022 -0.954008281 9.02849138e-08 0.29978022 -0.954008281 9.02849138e-08 0.29978022 -0.954008281 9.02849138e-08 0.299781144 -0.954007983 5.82818638e-09 0.299781144 -0.954007983 5.82818638e-09 0.299781144 -0.954007983 5.82818638e-09 0.299781263 -0.954007983 -0 0.299781263 -0.954007983 -0 0.299781263 -0.954007983 -0 0.299781799 -0.954007804 0 0.299781799 -0.954007804 0 0.299781799 -0.954007804 0 0.299781531 -0.954007864 -1.01305567e-07 0.299781531 -0.954007864 -1.01305567e-07 0.299781531 -0.954007864 -1.01305567e-07 0.299780339 -0.954008281 1.19265707e-07 0.299780339 -0.954008281 1.19265707e-07 0.299780339 -0.954008281 1.19265707e-07 0.299781621 -0.954007864 -5.80157291e-08 0.299781621 -0.954007864 -5.80157291e-08 0.299781621 -0.954007864 -5.80157291e-08 0.299781322 -0.954007924 0 0.299781322 -0.954007924 0 0.299781322 -0.954007924 0 0.299780369 -0.954008222 0 0.299780369 -0.954008222 0 0.299780369 -0.954008222 0 0.299781501 -0.954007864 -0 0.299781501 -0.954007864 -0 0.299781501 -0.954007864 -0 0.299780339 -0.954008281 -5.42873266e-08 0.299780339 -0.954008281 -5.42873266e-08 0.299780339 -0.954008281 -5.42873266e-08 0.299781203 -0.954007983 0 0.299781203 -0.954007983 0 0.299781203 -0.954007983 0 0.299781293 -0.954007983 -2.58440078e-08 0.299781293 -0.954007983 -2.58440078e-08 0.299781293 -0.954007983 -2.58440078e-08 0.29978165 -0.954007864 -7.81429534e-08 0.29978165 -0.954007864 -7.81429534e-08 0.29978165 -0.954007864 -7.81429534e-08 0.299780309 -0.954008281 4.568113e-08 0.299780309 -0.954008281 4.568113e-08 0.299780309 -0.954008281 4.568113e-08 0.299781084 -0.954008043 0 0.299781084 -0.954008043 0 0.299781084 -0.954008043 0 0.299780905 -0.954008102 -8.91891361e-09 0.299780905 -0.954008102 -8.91891361e-09 0.299780905 -0.954008102 -8.91891361e-09 0.299781114 -0.954008043 1.01052215e-08 0.299781114 -0.954008043 1.01052215e-08 0.299781114 -0.954008043 1.01052215e-08 0.29978168 -0.954007804 6.05882775e-08 0.29978168 -0.954007804 6.05882775e-08 0.29978168 -0.954007804 6.05882775e-08 0.299781203 -0.954007983 1.58649112e-08 0.299781203 -0.954007983 1.58649112e-08 0.299781203 -0.954007983 1.58649112e-08 0.299780279 -0.954008281 -1.10714765e-07 0.299780279 -0.954008281 -1.10714765e-07 0.299780279 -0.954008281 -1.10714765e-07 0.29978177 -0.954007804 2.49868251e-08 0.29978177 -0.954007804 2.49868251e-08 0.29978177 -0.954007804 2.49868251e-08 0.299779207 -0.954008579 0 0.299779207 -0.954008579 0 0.299779207 -0.954008579 0 0.299781203 -0.954007983 0 0.299781203 -0.954007983 0 0.299781203 -0.954007983 0 0.299782753 -0.954007506 7.08898256e-08 0.299782753 -0.954007506 7.08898256e-08 0.299782753 -0.954007506 7.08898256e-08 0.299781084 -0.954008043 -8.03180811e-08 0.299781084 -0.954008043 -8.03180811e-08 0.299781084 -0.954008043 -8.03180811e-08 0.299782842 -0.954007447 -0 0.299782842 -0.954007447 -0 0.299782842 -0.954007447 -0 0.299779207 -0.954008579 0 0.299779207 -0.954008579 0 0.299779207 -0.954008579 0 0.299781889 -0.954007745 -0 0.299781889 -0.954007745 -0 0.299781889 -0.954007745 -0 0.29978016 -0.954008281 -7.84989851e-08 0.29978016 -0.954008281 -7.84989851e-08 0.29978016 -0.954008281 -7.84989851e-08 0.299780875 -0.954008102 0 0.299780875 -0.954008102 0 0.299780875 -0.954008102 0 0.299781501 -0.954007864 -0 0.299781501 -0.954007864 -0 0.299781501 -0.954007864 -0 0.299779356 -0.954008579 -9.84195054e-08 0.299779356 -0.954008579 -9.84195054e-08 0.299779356 -0.954008579 -9.84195054e-08 0.299778998 -0.954008698 -2.11112891e-07 0.299778998 -0.954008698 -2.11112891e-07 0.299778998 -0.954008698 -2.11112891e-07 0.299781919 -0.954007745 -7.66324746e-08 0.299781919 -0.954007745 -7.66324746e-08 0.299781919 -0.954007745 -7.66324746e-08 0.299785256 -0.954006732 2.29316996e-07 0.299785256 -0.954006732 2.29316996e-07 0.299785256 -0.954006732 2.29316996e-07 0.29978022 -0.954008281 -7.47201625e-08 0.29978022 -0.954008281 -7.47201625e-08 0.29978022 -0.954008281 -7.47201625e-08 0.299782187 -0.954007685 1.96056376e-07 0.299782187 -0.954007685 1.96056376e-07 0.299782187 -0.954007685 1.96056376e-07 0.299782455 -0.954007566 2.48652782e-07 0.299782455 -0.954007566 2.48652782e-07 0.299782455 -0.954007566 2.48652782e-07 0.299779415 -0.95400852 -1.71441101e-07 0.299779415 -0.95400852 -1.71441101e-07 0.299779415 -0.95400852 -1.71441101e-07 0.299779445 -0.95400852 -1.02440538e-07 0.299779445 -0.95400852 -1.02440538e-07 0.299779445 -0.95400852 -1.02440538e-07 0.299782872 -0.954007447 5.40515437e-08 0.299782872 -0.954007447 5.40515437e-08 0.299782872 -0.954007447 5.40515437e-08 0.299780518 -0.954008222 -1.61742165e-07 0.299780518 -0.954008222 -1.61742165e-07 0.299780518 -0.954008222 -1.61742165e-07 0.299783438 -0.954007268 2.76157863e-07 0.299783438 -0.954007268 2.76157863e-07 0.299783438 -0.954007268 2.76157863e-07 0.299780458 -0.954008222 -1.3384637e-07 0.299780458 -0.954008222 -1.3384637e-07 0.299780458 -0.954008222 -1.3384637e-07 0.29978168 -0.954007864 8.74485124e-08 0.29978168 -0.954007864 8.74485124e-08 0.29978168 -0.954007864 8.74485124e-08 0.299781352 -0.954007924 4.53956979e-08 0.299781352 -0.954007924 4.53956979e-08 0.299781352 -0.954007924 4.53956979e-08 0.299777657 -0.954009116 -6.39493692e-07 0.299777657 -0.954009116 -6.39493692e-07 0.299777657 -0.954009116 -6.39493692e-07 0.299785703 -0.954006553 4.70433548e-07 0.299785703 -0.954006553 4.70433548e-07 0.299785703 -0.954006553 4.70433548e-07 </float_array>
          <technique_common>
            <accessor count="852" offset="0" source="#mesh_0-normals-array" stride="3">
              <param name="X" type="float" />
              <param name="Y" type="float" />
              <param name="Z" type="float" />
            </accessor>
          </technique_common>
        </source>
        <vertices id="mesh_0-vertices">
          <input semantic="POSITION" source="#mesh_0-positions" />
        </vertices>
        <polylist count="284" material="defaultMaterial">
          <input offset="0" semantic="VERTEX" source="#mesh_0-vertices" />
          <input offset="0" semantic="NORMAL" source="#mesh_0-normals" />
          <vcount>3 3 3 3 3 3 3 3 3 3 3 3 3 3 3 3 3 3 3 3 3 3 3 3 3 3 3 3 3 3 3 3 3 3 3 3 3 3 3 3 3 3 3 3 3 3 3 3 3 3 3 3 3 3 3 3 3 3 3 3 3 3 3 3 3 3 3 3 3 3 3 3 3 3 3 3 3 3 3 3 3 3 3 3 3 3 3 3 3 3 3 3 3 3 3 3 3 3 3 3 3 3 3 3 3 3 3 3 3 3 3 3 3 3 3 3 3 3 3 3 3 3 3 3 3 3 3 3 3 3 3 3 3 3 3 3 3 3 3 3 3 3 3 3 3 3 3 3 3 3 3 3 3 3 3 3 3 3 3 3 3 3 3 3 3 3 3 3 3 3 3 3 3 3 3 3 3 3 3 3 3 3 3 3 3 3 3 3 3 3 3 3 3 3 3 3 3 3 3 3 3 3 3 3 3 3 3 3 3 3 3 3 3 3 3 3 3 3 3 3 3 3 3 3 3 3 3 3 3 3 3 3 3 3 3 3 3 3 3 3 3 3 3 3 3 3 3 3 3 3 3 3 3 3 3 3 3 3 3 3 3 3 3 3 3 3 3 3 3 3 3 3 3 3 3 3 3 3 3 3 3 3 3 3 </vcount>
          <p>0 1 2 3 4 5 6 7 8 9 10 11 12 13 14 15 16 17 18 19 20 21 22 23 24 25 26 27 28 29 30 31 32 33 34 35 36 37 38 39 40 41 42 43 44 45 46 47 48 49 50 51 52 53 54 55 56 57 58 59 60 61 62 63 64 65 66 67 68 69 70 71 72 73 74 75 76 77 78 79 80 81 82 83 84 85 86 87 88 89 90 91 92 93 94 95 96 97 98 99 100 101 102 103 104 105 106 107 108 109 110 111 112 113 114 115 116 117 118 119 120 121 122 123 124 125 126 127 128 129 130 131 132 133 134 135 136 137 138 139 140 141 142 143 144 145 146 147 148 149 150 151 152 153 154 155 156 157 158 159 160 161 162 163 164 165 166 167 168 169 170 171 172 173 174 175 176 177 178 179 180 181 182 183 184 185 186 187 188 189 190 191 192 193 194 195 196 197 198 199 200 201 202 203 204 205 206 207 208 209 210 211 212 213 214 215 216 217 218 219 220 221 222 223 224 225 226 227 228 229 230 231 232 233 234 235 236 237 238 239 240 241 242 243 244 245 246 247 248 249 250 251 252 253 254 255 256 257 258 259 260 261 262 263 264 265 266 267 268 269 270 271 272 273 274 275 276 277 278 279 280 281 282 283 284 285 286 287 288 289 290 291 292 293 294 295 296 297 298 299 300 301 302 303 304 305 306 307 308 309 310 311 312 313 314 315 316 317 318 319 320 321 322 323 324 325 326 327 328 329 330 331 332 333 334 335 336 337 338 339 340 341 342 343 344 345 346 347 348 349 350 351 352 353 354 355 356 357 358 359 360 361 362 363 364 365 366 367 368 369 370 371 372 373 374 375 376 377 378 379 380 381 382 383 384 385 386 387 388 389 390 391 392 393 394 395 396 397 398 399 400 401 402 403 404 405 406 407 408 409 410 411 412 413 414 415 416 417 418 419 420 421 422 423 424 425 426 427 428 429 430 431 432 433 434 435 436 437 438 439 440 441 442 443 444 445 446 447 448 449 450 451 452 453 454 455 456 457 458 459 460 461 462 463 464 465 466 467 468 469 470 471 472 473 474 475 476 477 478 479 480 481 482 483 484 485 486 487 488 489 490 491 492 493 494 495 496 497 498 499 500 501 502 503 504 505 506 507 508 509 510 511 512 513 514 515 516 517 518 519 520 521 522 523 524 525 526 527 528 529 530 531 532 533 534 535 536 537 538 539 540 541 542 543 544 545 546 547 548 549 550 551 552 553 554 555 556 557 558 559 560 561 562 563 564 565 566 567 568 569 570 571 572 573 574 575 576 577 578 579 580 581 582 583 584 585 586 587 588 589 590 591 592 593 594 595 596 597 598 599 600 601 602 603 604 605 606 607 608 609 610 611 612 613 614 615 616 617 618 619 620 621 622 623 624 625 626 627 628 629 630 631 632 633 634 635 636 637 638 639 640 641 642 643 644 645 646 647 648 649 650 651 652 653 654 655 656 657 658 659 660 661 662 663 664 665 666 667 668 669 670 671 672 673 674 675 676 677 678 679 680 681 682 683 684 685 686 687 688 689 690 691 692 693 694 695 696 697 698 699 700 701 702 703 704 705 706 707 708 709 710 711 712 713 714 715 716 717 718 719 720 721 722 723 724 725 726 727 728 729 730 731 732 733 734 735 736 737 738 739 740 741 742 743 744 745 746 747 748 749 750 751 752 753 754 755 756 757 758 759 760 761 762 763 764 765 766 767 768 769 770 771 772 773 774 775 776 777 778 779 780 781 782 783 784 785 786 787 788 789 790 791 792 793 794 795 796 797 798 799 800 801 802 803 804 805 806 807 808 809 810 811 812 813 814 815 816 817 818 819 820 821 822 823 824 825 826 827 828 829 830 831 832 833 834 835 836 837 838 839 840 841 842 843 844 845 846 847 848 849 850 851 </p>
        </polylist>
      </mesh>
    </geometry>
  </library_geometries>
  <library_controllers>
  </library_controllers>
  <library_visual_scenes>
    <visual_scene id="_ySTL_BINARY_" name="&lt;STL_BINARY&gt;">
      <node id="node" name="" type="NODE">
        <matrix sid="matrix">1 0 0 0 0 1 0 0 0 0 1 0 0 0 0 1</matrix>
        <instance_geometry url="#mesh_0">
          <bind_material>
            <technique_common>
              <instance_material symbol="defaultMaterial" target="#DefaultMaterial">
              </instance_material>
            </technique_common>
          </bind_material>
        </instance_geometry>
      </node>
    </visual_scene>
  </library_visual_scenes>
  <scene>
    <instance_visual_scene url="#_ySTL_BINARY_" />
  </scene>
</COLLADA>
