<?xml version="1.0" encoding="UTF-8" standalone="no" ?>
<COLLADA xmlns="http://www.collada.org/2005/11/COLLADASchema" version="1.4.1">
  <asset>
    <contributor>
      <author>Assimp</author>
      <authoring_tool>Assimp Exporter</authoring_tool>
    </contributor>
    <created>2025-12-07T16:35:04</created>
    <modified>2025-12-07T16:35:04</modified>
    <unit name="meter" meter="1" />
    <up_axis>Y_UP</up_axis>
  </asset>
  <library_images>
  </library_images>
  <library_effects>
    <effect id="DefaultMaterial-fx" name="DefaultMaterial">
      <profile_COMMON>
        <technique sid="standard">
          <phong>
            <ambient>
              <color sid="ambient">0.0500000007   0.0500000007   0.0500000007   1</color>
            </ambient>
            <diffuse>
              <color sid="diffuse">1   1   1   1</color>
            </diffuse>
            <specular>
              <color sid="specular">1   1   1   1</color>
            </specular>
          </phong>
        </technique>
      </profile_COMMON>
    </effect>
  </library_effects>
  <library_materials>
    <material id="DefaultMaterial" name="DefaultMaterial">
      <instance_effect url="#DefaultMaterial-fx"/>
    </material>
  </library_materials>
  <library_geometries>
    <geometry id="mesh_0" name="" >
      <mesh>
        <source id="mesh_0-positions" name="mesh_0-positions">
          <float_array id="mesh_0-positions-array" count="828"> -0.02990105 0.00730986102 -0.109117858 -0.02990105 0.00730986102 -0.108517855 -0.0273029748 0.00580986124 -0.109117858 -0.02990105 0.00730986102 -0.108517855 -0.0273029748 0.00580986124 -0.108517855 -0.0273029748 0.00580986124 -0.109117858 -0.0318310522 0.00396700297 -0.109117858 -0.0324660502 0.00286715059 -0.109117858 -0.0292329751 0.00246700295 -0.109117858 -0.0324660502 0.00286715059 -0.109117858 -0.029867975 0.00136715069 -0.109117858 -0.0292329751 0.00246700295 -0.109117858 -0.0300660506 0.00702407258 -0.108517855 -0.0300660506 0.00702407258 -0.109817855 -0.0274679754 0.0055240728 -0.108517855 -0.0300660506 0.00702407258 -0.109817855 -0.0274679754 0.0055240728 -0.109817855 -0.0274679754 0.0055240728 -0.108517855 -0.0290679745 0.00275279139 -0.109817855 -0.0290679745 0.00275279139 -0.108517855 -0.0274679754 0.0055240728 -0.109817855 -0.0290679745 0.00275279139 -0.108517855 -0.0274679754 0.0055240728 -0.108517855 -0.0274679754 0.0055240728 -0.109817855 -0.0316660516 0.0042527914 -0.109817855 -0.0316660516 0.0042527914 -0.108517855 -0.0290679745 0.00275279139 -0.109817855 -0.0316660516 0.0042527914 -0.108517855 -0.0290679745 0.00275279139 -0.108517855 -0.0290679745 0.00275279139 -0.109817855 -0.02990105 0.00730986102 -0.108517855 -0.0292660501 0.00840971339 -0.108517855 -0.0273029748 0.00580986124 -0.108517855 -0.0292660501 0.00840971339 -0.108517855 -0.0266679749 0.00690971315 -0.108517855 -0.0273029748 0.00580986124 -0.108517855 -0.0266679749 0.00690971315 -0.109117858 -0.0273029748 0.00580986124 -0.109117858 -0.0266679749 0.00690971315 -0.108517855 -0.0273029748 0.00580986124 -0.109117858 -0.0273029748 0.00580986124 -0.108517855 -0.0266679749 0.00690971315 -0.108517855 -0.0292660501 0.00840971339 -0.109117858 -0.02990105 0.00730986102 -0.109117858 -0.0266679749 0.00690971315 -0.109117858 -0.02990105 0.00730986102 -0.109117858 -0.0273029748 0.00580986124 -0.109117858 -0.0266679749 0.00690971315 -0.109117858 -0.0321160518 0.00347336847 -0.109717853 -0.0318660513 0.00390638132 -0.109717853 -0.0295179747 0.00197336846 -0.109717853 -0.0318660513 0.00390638132 -0.109717853 -0.0292679742 0.00240638107 -0.109717853 -0.0295179747 0.00197336846 -0.109717853 -0.0298660509 0.00737048266 -0.109717853 -0.0296160504 0.00780349551 -0.109717853 -0.0272679739 0.00587048288 -0.109717853 -0.0296160504 0.00780349551 -0.109717853 -0.0270179752 0.00630349573 -0.109717853 -0.0272679739 0.00587048288 -0.109717853 -0.0318660513 0.00390638132 -0.109717853 -0.0318660513 0.00390638132 -0.11017786 -0.0292679742 0.00240638107 -0.109717853 -0.0318660513 0.00390638132 -0.11017786 -0.0292679742 0.00240638107 -0.11017786 -0.0292679742 0.00240638107 -0.109717853 -0.0295179747 0.00197336846 -0.109717853 -0.0292679742 0.00240638107 -0.109717853 -0.0292679742 0.00240638107 -0.11017786 -0.0272679739 0.00587048288 -0.109717853 -0.0270179752 0.00630349573 -0.109717853 -0.0272679739 0.00587048288 -0.11017786 -0.0270179752 0.00630349573 -0.109717853 -0.0270179752 0.00630349573 -0.111747853 -0.0272679739 0.00587048288 -0.11017786 -0.0272679739 0.00587048288 -0.11017786 -0.0270179752 0.00630349573 -0.111747853 -0.0292679742 0.00240638107 -0.11017786 -0.0270179752 0.00630349573 -0.111747853 -0.0295179747 0.00197336846 -0.111747853 -0.0292679742 0.00240638107 -0.11017786 -0.0292679742 0.00240638107 -0.11017786 -0.0295179747 0.00197336846 -0.111747853 -0.0295179747 0.00197336846 -0.109717853 -0.0298660509 0.00737048266 -0.11017786 -0.0298660509 0.00737048266 -0.109717853 -0.0272679739 0.00587048288 -0.11017786 -0.0298660509 0.00737048266 -0.109717853 -0.0272679739 0.00587048288 -0.109717853 -0.0272679739 0.00587048288 -0.11017786 -0.0324660502 0.00286715059 -0.109117858 -0.0324660502 0.00286715059 -0.108517855 -0.029867975 0.00136715069 -0.109117858 -0.0324660502 0.00286715059 -0.108517855 -0.029867975 0.00136715069 -0.108517855 -0.029867975 0.00136715069 -0.109117858 -0.0291160513 0.00866952073 -0.10814786 -0.0291160513 0.00866952073 -0.112447858 -0.0292660501 0.00840971339 -0.109117858 -0.0298660509 0.00737048266 -0.109717853 -0.02990105 0.00730986102 -0.109117858 -0.0296160504 0.00780349551 -0.109717853 -0.02990105 0.00730986102 -0.109117858 -0.0292660501 0.00840971339 -0.109117858 -0.0296160504 0.00780349551 -0.109717853 -0.0296160504 0.00780349551 -0.109717853 -0.0292660501 0.00840971339 -0.109117858 -0.0296160504 0.00780349551 -0.111747853 -0.0292660501 0.00840971339 -0.109117858 -0.0291160513 0.00866952073 -0.112447858 -0.0296160504 0.00780349551 -0.111747853 -0.0296160504 0.00780349551 -0.111747853 -0.0291160513 0.00866952073 -0.112447858 -0.0321160518 0.00347336847 -0.111747853 -0.0291160513 0.00866952073 -0.112447858 -0.0326160491 0.00260734302 -0.112447858 -0.0321160518 0.00347336847 -0.111747853 -0.0321160518 0.00347336847 -0.111747853 -0.0326160491 0.00260734302 -0.112447858 -0.0324660502 0.00286715059 -0.109117858 -0.0326160491 0.00260734302 -0.112447858 -0.0326160491 0.00260734302 -0.10814786 -0.0324660502 0.00286715059 -0.109117858 -0.0324660502 0.00286715059 -0.109117858 -0.0326160491 0.00260734302 -0.10814786 -0.0324660502 0.00286715059 -0.108517855 -0.0318660513 0.00390638132 -0.109717853 -0.0316660516 0.0042527914 -0.108517855 -0.0318660513 0.00390638132 -0.11017786 -0.0316660516 0.0042527914 -0.108517855 -0.0316660516 0.0042527914 -0.109817855 -0.0318660513 0.00390638132 -0.11017786 -0.0318660513 0.00390638132 -0.11017786 -0.0316660516 0.0042527914 -0.109817855 -0.0298660509 0.00737048266 -0.11017786 -0.0316660516 0.0042527914 -0.109817855 -0.0300660506 0.00702407258 -0.109817855 -0.0298660509 0.00737048266 -0.11017786 -0.0298660509 0.00737048266 -0.11017786 -0.0300660506 0.00702407258 -0.109817855 -0.0298660509 0.00737048266 -0.109717853 -0.0300660506 0.00702407258 -0.109817855 -0.0300660506 0.00702407258 -0.108517855 -0.0298660509 0.00737048266 -0.109717853 -0.0298660509 0.00737048266 -0.109717853 -0.0300660506 0.00702407258 -0.108517855 -0.02990105 0.00730986102 -0.109117858 -0.0300660506 0.00702407258 -0.108517855 -0.02990105 0.00730986102 -0.108517855 -0.02990105 0.00730986102 -0.109117858 -0.0292660501 0.00840971339 -0.109117858 -0.0292660501 0.00840971339 -0.108517855 -0.0291160513 0.00866952073 -0.10814786 -0.0292660501 0.00840971339 -0.108517855 -0.02990105 0.00730986102 -0.108517855 -0.0291160513 0.00866952073 -0.10814786 -0.0291160513 0.00866952073 -0.10814786 -0.02990105 0.00730986102 -0.108517855 -0.0326160491 0.00260734302 -0.10814786 -0.02990105 0.00730986102 -0.108517855 -0.0300660506 0.00702407258 -0.108517855 -0.0326160491 0.00260734302 -0.10814786 -0.0326160491 0.00260734302 -0.10814786 -0.0300660506 0.00702407258 -0.108517855 -0.0316660516 0.0042527914 -0.108517855 -0.0324660502 0.00286715059 -0.108517855 -0.0326160491 0.00260734302 -0.10814786 -0.0318310522 0.00396700297 -0.108517855 -0.0326160491 0.00260734302 -0.10814786 -0.0316660516 0.0042527914 -0.108517855 -0.0318310522 0.00396700297 -0.108517855 -0.0318310522 0.00396700297 -0.108517855 -0.0316660516 0.0042527914 -0.108517855 -0.0318310522 0.00396700297 -0.109117858 -0.0316660516 0.0042527914 -0.108517855 -0.0318660513 0.00390638132 -0.109717853 -0.0318310522 0.00396700297 -0.109117858 -0.0318310522 0.00396700297 -0.109117858 -0.0318660513 0.00390638132 -0.109717853 -0.0324660502 0.00286715059 -0.109117858 -0.0318660513 0.00390638132 -0.109717853 -0.0321160518 0.00347336847 -0.109717853 -0.0324660502 0.00286715059 -0.109117858 -0.0324660502 0.00286715059 -0.109117858 -0.0321160518 0.00347336847 -0.109717853 -0.0321160518 0.00347336847 -0.111747853 -0.0291519482 0.0006073431 -0.112447858 -0.0326160491 0.00260734302 -0.112447858 -0.0256519485 0.00666952087 -0.112447858 -0.0326160491 0.00260734302 -0.112447858 -0.0291160513 0.00866952073 -0.112447858 -0.0256519485 0.00666952087 -0.112447858 -0.0291519482 0.0006073431 -0.10814786 -0.0326160491 0.00260734302 -0.10814786 -0.0291519482 0.0006073431 -0.112447858 -0.0326160491 0.00260734302 -0.10814786 -0.0326160491 0.00260734302 -0.112447858 -0.0291519482 0.0006073431 -0.112447858 -0.0256519485 0.00666952087 -0.10814786 -0.0291160513 0.00866952073 -0.10814786 -0.0291519482 0.0006073431 -0.10814786 -0.0291160513 0.00866952073 -0.10814786 -0.0326160491 0.00260734302 -0.10814786 -0.0291519482 0.0006073431 -0.10814786 -0.0291519482 0.0006073431 -0.112447858 -0.0256519485 0.00666952087 -0.112447858 -0.0291519482 0.0006073431 -0.10814786 -0.0256519485 0.00666952087 -0.112447858 -0.0256519485 0.00666952087 -0.10814786 -0.0291519482 0.0006073431 -0.10814786 -0.0256519485 0.00666952087 -0.112447858 -0.0291160513 0.00866952073 -0.112447858 -0.0256519485 0.00666952087 -0.10814786 -0.0291160513 0.00866952073 -0.112447858 -0.0291160513 0.00866952073 -0.10814786 -0.0256519485 0.00666952087 -0.10814786 -0.0324660502 0.00286715059 -0.108517855 -0.0318310522 0.00396700297 -0.108517855 -0.029867975 0.00136715069 -0.108517855 -0.0318310522 0.00396700297 -0.108517855 -0.0292329751 0.00246700295 -0.108517855 -0.029867975 0.00136715069 -0.108517855 -0.0318660513 0.00390638132 -0.11017786 -0.0298660509 0.00737048266 -0.11017786 -0.0292679742 0.00240638107 -0.11017786 -0.0298660509 0.00737048266 -0.11017786 -0.0272679739 0.00587048288 -0.11017786 -0.0292679742 0.00240638107 -0.11017786 -0.0296160504 0.00780349551 -0.109717853 -0.0296160504 0.00780349551 -0.111747853 -0.0270179752 0.00630349573 -0.109717853 -0.0296160504 0.00780349551 -0.111747853 -0.0270179752 0.00630349573 -0.111747853 -0.0270179752 0.00630349573 -0.109717853 -0.0296160504 0.00780349551 -0.111747853 -0.0321160518 0.00347336847 -0.111747853 -0.0270179752 0.00630349573 -0.111747853 -0.0321160518 0.00347336847 -0.111747853 -0.0295179747 0.00197336846 -0.111747853 -0.0270179752 0.00630349573 -0.111747853 -0.0321160518 0.00347336847 -0.111747853 -0.0321160518 0.00347336847 -0.109717853 -0.0295179747 0.00197336846 -0.111747853 -0.0321160518 0.00347336847 -0.109717853 -0.0295179747 0.00197336846 -0.109717853 -0.0295179747 0.00197336846 -0.111747853 -0.0292660501 0.00840971339 -0.108517855 -0.0292660501 0.00840971339 -0.109117858 -0.0266679749 0.00690971315 -0.108517855 -0.0292660501 0.00840971339 -0.109117858 -0.0266679749 0.00690971315 -0.109117858 -0.0266679749 0.00690971315 -0.108517855 -0.0300660506 0.00702407258 -0.109817855 -0.0316660516 0.0042527914 -0.109817855 -0.0274679754 0.0055240728 -0.109817855 -0.0316660516 0.0042527914 -0.109817855 -0.0290679745 0.00275279139 -0.109817855 -0.0274679754 0.0055240728 -0.109817855 -0.0316660516 0.0042527914 -0.108517855 -0.0300660506 0.00702407258 -0.108517855 -0.0290679745 0.00275279139 -0.108517855 -0.0300660506 0.00702407258 -0.108517855 -0.0274679754 0.0055240728 -0.108517855 -0.0290679745 0.00275279139 -0.108517855 -0.0318310522 0.00396700297 -0.108517855 -0.0318310522 0.00396700297 -0.109117858 -0.0292329751 0.00246700295 -0.108517855 -0.0318310522 0.00396700297 -0.109117858 -0.0292329751 0.00246700295 -0.109117858 -0.0292329751 0.00246700295 -0.108517855 -0.0292329751 0.00246700295 -0.108517855 -0.0292329751 0.00246700295 -0.109117858 -0.029867975 0.00136715069 -0.108517855 -0.0292329751 0.00246700295 -0.109117858 -0.029867975 0.00136715069 -0.109117858 -0.029867975 0.00136715069 -0.108517855 </float_array>
          <technique_common>
            <accessor count="276" offset="0" source="#mesh_0-positions-array" stride="3">
              <param name="X" type="float" />
              <param name="Y" type="float" />
              <param name="Z" type="float" />
            </accessor>
          </technique_common>
        </source>
        <source id="mesh_0-normals" name="mesh_0-normals">
          <float_array id="mesh_0-normals-array" count="828"> 0.500000119 0.866025329 -0 0.500000119 0.866025329 -0 0.500000119 0.866025329 -0 0.500000119 0.866025329 -0 0.500000119 0.866025329 -0 0.500000119 0.866025329 -0 0 0 1 0 0 1 0 0 1 -0 -0 1 -0 -0 1 -0 -0 1 -0.500000119 -0.866025329 -0 -0.500000119 -0.866025329 -0 -0.500000119 -0.866025329 -0 -0.500000119 -0.866025329 -0 -0.500000119 -0.866025329 -0 -0.500000119 -0.866025329 -0 -0.866025507 0.499999791 0 -0.866025507 0.499999791 0 -0.866025507 0.499999791 0 -0.866025507 0.499999791 -0 -0.866025507 0.499999791 -0 -0.866025507 0.499999791 -0 0.499999881 0.866025448 -0 0.499999881 0.866025448 -0 0.499999881 0.866025448 -0 0.499999881 0.866025448 -0 0.499999881 0.866025448 -0 0.499999881 0.866025448 -0 0 0 -1 0 0 -1 0 0 -1 -0 -0 -1 -0 -0 -1 -0 -0 -1 -0.866025329 0.50000006 0 -0.866025329 0.50000006 0 -0.866025329 0.50000006 0 -0.866025329 0.50000006 -0 -0.866025329 0.50000006 -0 -0.866025329 0.50000006 -0 0 0 1 0 0 1 0 0 1 -0 -0 1 -0 -0 1 -0 -0 1 0 0 -1 0 0 -1 0 0 -1 -0 -0 -1 -0 -0 -1 -0 -0 -1 0 0 -1 0 0 -1 0 0 -1 -0 -0 -1 -0 -0 -1 -0 -0 -1 -0.49999994 -0.866025448 -0 -0.49999994 -0.866025448 -0 -0.49999994 -0.866025448 -0 -0.49999994 -0.866025448 -0 -0.49999994 -0.866025448 -0 -0.49999994 -0.866025448 -0 -0.866024911 0.500000834 0 -0.866024911 0.500000834 0 -0.866024911 0.500000834 0 -0.86602664 0.499997854 0 -0.86602664 0.499997854 0 -0.86602664 0.499997854 0 -0.86602664 0.499997854 -0 -0.86602664 0.499997854 -0 -0.86602664 0.499997854 -0 -0.866025388 0.50000006 8.07666368e-07 -0.866025388 0.50000006 8.07666368e-07 -0.866025388 0.50000006 8.07666368e-07 -0.866025448 0.499999911 3.45311605e-07 -0.866025448 0.499999911 3.45311605e-07 -0.866025448 0.499999911 3.45311605e-07 -0.866024911 0.500000834 0 -0.866024911 0.500000834 0 -0.866024911 0.500000834 0 0.499999821 0.866025507 -0 0.499999821 0.866025507 -0 0.499999821 0.866025507 -0 0.499999821 0.866025507 -0 0.499999821 0.866025507 -0 0.499999821 0.866025507 -0 0.500000119 0.866025329 -0 0.500000119 0.866025329 -0 0.500000119 0.866025329 -0 0.500000119 0.866025329 -0 0.500000119 0.866025329 -0 0.500000119 0.866025329 -0 -0.866026878 0.499997437 0 -0.866026878 0.499997437 0 -0.866026878 0.499997437 0 -0.866025031 0.500000656 1.27385124e-06 -0.866025031 0.500000656 1.27385124e-06 -0.866025031 0.500000656 1.27385124e-06 -0.866025448 0.49999994 4.95624874e-07 -0.866025448 0.49999994 4.95624874e-07 -0.866025448 0.49999994 4.95624874e-07 -0.866025209 0.500000298 0 -0.866025209 0.500000298 0 -0.866025209 0.500000298 0 -0.866025627 0.499999583 2.21196913e-07 -0.866025627 0.499999583 2.21196913e-07 -0.866025627 0.499999583 2.21196913e-07 -0.866025269 0.500000179 1.24960127e-06 -0.866025269 0.500000179 1.24960127e-06 -0.866025269 0.500000179 1.24960127e-06 -0.866025507 0.499999762 -3.01033106e-06 -0.866025507 0.499999762 -3.01033106e-06 -0.866025507 0.499999762 -3.01033106e-06 -0.86602658 0.499998003 -9.22101648e-08 -0.86602658 0.499998003 -9.22101648e-08 -0.86602658 0.499998003 -9.22101648e-08 -0.866027057 0.499997109 -0 -0.866027057 0.499997109 -0 -0.866027057 0.499997109 -0 -0.866027057 0.499997109 0 -0.866027057 0.499997109 0 -0.866027057 0.499997109 0 -0.866025746 0.499999434 0 -0.866025746 0.499999434 0 -0.866025746 0.499999434 0 -0.866025746 0.499999434 -0 -0.866025746 0.499999434 -0 -0.866025746 0.499999434 -0 -0.866025329 0.500000119 -8.31479667e-07 -0.866025329 0.500000119 -8.31479667e-07 -0.866025329 0.500000119 -8.31479667e-07 -0.866025269 0.500000238 1.03934951e-06 -0.866025269 0.500000238 1.03934951e-06 -0.866025269 0.500000238 1.03934951e-06 -0.866025746 0.499999434 0 -0.866025746 0.499999434 0 -0.866025746 0.499999434 0 -0.866025746 0.499999434 -0 -0.866025746 0.499999434 -0 -0.866025746 0.499999434 -0 -0.866023183 0.500003874 1.71202976e-06 -0.866023183 0.500003874 1.71202976e-06 -0.866023183 0.500003874 1.71202976e-06 -0.866024733 0.500001192 -0 -0.866024733 0.500001192 -0 -0.866024733 0.500001192 -0 -0.866026878 0.499997437 0 -0.866026878 0.499997437 0 -0.866026878 0.499997437 0 -0.866025448 0.49999994 -2.32018829e-06 -0.866025448 0.49999994 -2.32018829e-06 -0.866025448 0.49999994 -2.32018829e-06 -0.866025507 0.499999762 -1.54215547e-06 -0.866025507 0.499999762 -1.54215547e-06 -0.866025507 0.499999762 -1.54215547e-06 -0.866024733 0.500001192 2.26078137e-05 -0.866024733 0.500001192 2.26078137e-05 -0.866024733 0.500001192 2.26078137e-05 -0.866025269 0.500000238 7.61276124e-06 -0.866025269 0.500000238 7.61276124e-06 -0.866025269 0.500000238 7.61276124e-06 -0.866026103 0.499998838 1.60496143e-06 -0.866026103 0.499998838 1.60496143e-06 -0.866026103 0.499998838 1.60496143e-06 -0.866024733 0.500001192 1.3199151e-05 -0.866024733 0.500001192 1.3199151e-05 -0.866024733 0.500001192 1.3199151e-05 -0.866024733 0.500001192 0 -0.866024733 0.500001192 0 -0.866024733 0.500001192 0 -0.866023183 0.500003874 -1.71202976e-06 -0.866023183 0.500003874 -1.71202976e-06 -0.866023183 0.500003874 -1.71202976e-06 -0.866026103 0.499998838 -1.0300954e-06 -0.866026103 0.499998838 -1.0300954e-06 -0.866026103 0.499998838 -1.0300954e-06 -0.866025031 0.500000656 3.14860927e-06 -0.866025031 0.500000656 3.14860927e-06 -0.866025031 0.500000656 3.14860927e-06 -0.866026402 0.499998301 0 -0.866026402 0.499998301 0 -0.866026402 0.499998301 0 0 0 -1 0 0 -1 0 0 -1 -0 -0 -1 -0 -0 -1 -0 -0 -1 -0.50000006 -0.866025388 -0 -0.50000006 -0.866025388 -0 -0.50000006 -0.866025388 -0 -0.50000006 -0.866025388 -0 -0.50000006 -0.866025388 -0 -0.50000006 -0.866025388 -0 0 0 1 0 0 1 0 0 1 -0 -0 1 -0 -0 1 -0 -0 1 0.866025448 -0.49999997 0 0.866025448 -0.49999997 0 0.866025448 -0.49999997 0 0.866025448 -0.49999997 -0 0.866025448 -0.49999997 -0 0.866025448 -0.49999997 -0 0.499999851 0.866025507 -0 0.499999851 0.866025507 -0 0.499999851 0.866025507 -0 0.499999851 0.866025507 -0 0.499999851 0.866025507 -0 0.499999851 0.866025507 -0 0 0 -1 0 0 -1 0 0 -1 -0 -0 -1 -0 -0 -1 -0 -0 -1 0 0 -1 0 0 -1 0 0 -1 -0 -0 -1 -0 -0 -1 -0 -0 -1 -0.500000119 -0.866025329 -0 -0.500000119 -0.866025329 -0 -0.500000119 -0.866025329 -0 -0.500000119 -0.866025329 -0 -0.500000119 -0.866025329 -0 -0.500000119 -0.866025329 -0 0 0 1 0 0 1 0 0 1 -0 -0 1 -0 -0 1 -0 -0 1 0.499999881 0.866025448 -0 0.499999881 0.866025448 -0 0.499999881 0.866025448 -0 0.499999881 0.866025448 -0 0.499999881 0.866025448 -0 0.499999881 0.866025448 -0 -0.500000179 -0.866025269 -0 -0.500000179 -0.866025269 -0 -0.500000179 -0.866025269 -0 -0.500000179 -0.866025269 -0 -0.500000179 -0.866025269 -0 -0.500000179 -0.866025269 -0 0 0 1 0 0 1 0 0 1 -0 -0 1 -0 -0 1 -0 -0 1 0 0 -1 0 0 -1 0 0 -1 -0 -0 -1 -0 -0 -1 -0 -0 -1 -0.499999881 -0.866025448 -0 -0.499999881 -0.866025448 -0 -0.499999881 -0.866025448 -0 -0.499999881 -0.866025448 -0 -0.499999881 -0.866025448 -0 -0.499999881 -0.866025448 -0 -0.866025448 0.49999997 0 -0.866025448 0.49999997 0 -0.866025448 0.49999997 0 -0.866025448 0.49999997 -0 -0.866025448 0.49999997 -0 -0.866025448 0.49999997 -0 </float_array>
          <technique_common>
            <accessor count="276" offset="0" source="#mesh_0-normals-array" stride="3">
              <param name="X" type="float" />
              <param name="Y" type="float" />
              <param name="Z" type="float" />
            </accessor>
          </technique_common>
        </source>
        <vertices id="mesh_0-vertices">
          <input semantic="POSITION" source="#mesh_0-positions" />
        </vertices>
        <polylist count="92" material="defaultMaterial">
          <input offset="0" semantic="VERTEX" source="#mesh_0-vertices" />
          <input offset="0" semantic="NORMAL" source="#mesh_0-normals" />
          <vcount>3 3 3 3 3 3 3 3 3 3 3 3 3 3 3 3 3 3 3 3 3 3 3 3 3 3 3 3 3 3 3 3 3 3 3 3 3 3 3 3 3 3 3 3 3 3 3 3 3 3 3 3 3 3 3 3 3 3 3 3 3 3 3 3 3 3 3 3 3 3 3 3 3 3 3 3 3 3 3 3 3 3 3 3 3 3 3 3 3 3 3 3 </vcount>
          <p>0 1 2 3 4 5 6 7 8 9 10 11 12 13 14 15 16 17 18 19 20 21 22 23 24 25 26 27 28 29 30 31 32 33 34 35 36 37 38 39 40 41 42 43 44 45 46 47 48 49 50 51 52 53 54 55 56 57 58 59 60 61 62 63 64 65 66 67 68 69 70 71 72 73 74 75 76 77 78 79 80 81 82 83 84 85 86 87 88 89 90 91 92 93 94 95 96 97 98 99 100 101 102 103 104 105 106 107 108 109 110 111 112 113 114 115 116 117 118 119 120 121 122 123 124 125 126 127 128 129 130 131 132 133 134 135 136 137 138 139 140 141 142 143 144 145 146 147 148 149 150 151 152 153 154 155 156 157 158 159 160 161 162 163 164 165 166 167 168 169 170 171 172 173 174 175 176 177 178 179 180 181 182 183 184 185 186 187 188 189 190 191 192 193 194 195 196 197 198 199 200 201 202 203 204 205 206 207 208 209 210 211 212 213 214 215 216 217 218 219 220 221 222 223 224 225 226 227 228 229 230 231 232 233 234 235 236 237 238 239 240 241 242 243 244 245 246 247 248 249 250 251 252 253 254 255 256 257 258 259 260 261 262 263 264 265 266 267 268 269 270 271 272 273 274 275 </p>
        </polylist>
      </mesh>
    </geometry>
  </library_geometries>
  <library_controllers>
  </library_controllers>
  <library_visual_scenes>
    <visual_scene id="_ySTL_BINARY_" name="&lt;STL_BINARY&gt;">
      <node id="node" name="" type="NODE">
        <matrix sid="matrix">1 0 0 0 0 1 0 0 0 0 1 0 0 0 0 1</matrix>
        <instance_geometry url="#mesh_0">
          <bind_material>
            <technique_common>
              <instance_material symbol="defaultMaterial" target="#DefaultMaterial">
              </instance_material>
            </technique_common>
          </bind_material>
        </instance_geometry>
      </node>
    </visual_scene>
  </library_visual_scenes>
  <scene>
    <instance_visual_scene url="#_ySTL_BINARY_" />
  </scene>
</COLLADA>
