<?xml version="1.0" encoding="UTF-8" standalone="no" ?>
<COLLADA xmlns="http://www.collada.org/2005/11/COLLADASchema" version="1.4.1">
  <asset>
    <contributor>
      <author>Assimp</author>
      <authoring_tool>Assimp Exporter</authoring_tool>
    </contributor>
    <created>2025-12-07T16:35:04</created>
    <modified>2025-12-07T16:35:04</modified>
    <unit name="meter" meter="1" />
    <up_axis>Y_UP</up_axis>
  </asset>
  <library_images>
  </library_images>
  <library_effects>
    <effect id="DefaultMaterial-fx" name="DefaultMaterial">
      <profile_COMMON>
        <technique sid="standard">
          <phong>
            <ambient>
              <color sid="ambient">0.0500000007   0.0500000007   0.0500000007   1</color>
            </ambient>
            <diffuse>
              <color sid="diffuse">1   1   1   1</color>
            </diffuse>
            <specular>
              <color sid="specular">1   1   1   1</color>
            </specular>
          </phong>
        </technique>
      </profile_COMMON>
    </effect>
  </library_effects>
  <library_materials>
    <material id="DefaultMaterial" name="DefaultMaterial">
      <instance_effect url="#DefaultMaterial-fx"/>
    </material>
  </library_materials>
  <library_geometries>
    <geometry id="mesh_0" name="" >
      <mesh>
        <source id="mesh_0-positions" name="mesh_0-positions">
          <float_array id="mesh_0-positions-array" count="2628"> -0.0191215649 0.0191804785 -0.112147853 -0.0191215649 0.0191804785 -0.112347856 -0.0162465647 0.0241601244 -0.112147853 -0.0191215649 0.0191804785 -0.112347856 -0.0162465647 0.0241601244 -0.112347856 -0.0162465647 0.0241601244 -0.112147853 -0.0167908277 0.0203174334 -0.112147853 -0.0166908279 0.0204906389 -0.112147853 -0.0175702497 0.0207674336 -0.112147853 -0.0166908279 0.0204906389 -0.112147853 -0.0174702499 0.0209406391 -0.112147853 -0.0175702497 0.0207674336 -0.112147853 -0.0167908277 0.0203174334 -0.112147853 -0.0167908277 0.0203174334 -0.112447858 -0.0166908279 0.0204906389 -0.112147853 -0.0167908277 0.0203174334 -0.112447858 -0.0166908279 0.0204906389 -0.112447858 -0.0166908279 0.0204906389 -0.112147853 -0.0167908277 0.0203174334 -0.112447858 -0.0176568534 0.0208174344 -0.112447858 -0.0166908279 0.0204906389 -0.112447858 -0.0176568534 0.0208174344 -0.112447858 -0.0175568536 0.0209906381 -0.112447858 -0.0166908279 0.0204906389 -0.112447858 -0.0176568534 0.0208174344 -0.112447858 -0.0179166608 0.0209674332 -0.112147853 -0.0175568536 0.0209906381 -0.112447858 -0.0179166608 0.0209674332 -0.112147853 -0.0178166609 0.0211406387 -0.112147853 -0.0175568536 0.0209906381 -0.112447858 -0.0162465647 0.0241601244 -0.112147853 -0.0161166601 0.024085125 -0.112147853 -0.0171916597 0.0222231708 -0.112147853 -0.0171916597 0.0222231708 -0.112147853 -0.0172916614 0.0220499653 -0.112147853 -0.0162465647 0.0241601244 -0.112147853 -0.0172916614 0.0220499653 -0.112147853 -0.0178166609 0.0211406387 -0.112147853 -0.0162465647 0.0241601244 -0.112147853 -0.0162465647 0.0241601244 -0.112147853 -0.0178166609 0.0211406387 -0.112147853 -0.0191215649 0.0191804785 -0.112147853 -0.0178166609 0.0211406387 -0.112147853 -0.0179166608 0.0209674332 -0.112147853 -0.0191215649 0.0191804785 -0.112147853 -0.0191215649 0.0191804785 -0.112147853 -0.0179166608 0.0209674332 -0.112147853 -0.0189916603 0.0191054791 -0.112147853 -0.0161658283 0.0213999655 -0.112447858 -0.0170318522 0.0218999647 -0.112447858 -0.0160658266 0.021573171 -0.112447858 -0.0170318522 0.0218999647 -0.112447858 -0.0169318523 0.0220731702 -0.112447858 -0.0160658266 0.021573171 -0.112447858 -0.0161658283 0.0213999655 -0.112147853 -0.0161658283 0.0213999655 -0.112447858 -0.0160658266 0.021573171 -0.112147853 -0.0161658283 0.0213999655 -0.112447858 -0.0160658266 0.021573171 -0.112447858 -0.0160658266 0.021573171 -0.112147853 -0.0170318522 0.0218999647 -0.112447858 -0.0172916614 0.0220499653 -0.112147853 -0.0169318523 0.0220731702 -0.112447858 -0.0172916614 0.0220499653 -0.112147853 -0.0171916597 0.0222231708 -0.112147853 -0.0169318523 0.0220731702 -0.112447858 -0.0161658283 0.0213999655 -0.112147853 -0.0160658266 0.021573171 -0.112147853 -0.0169452503 0.0218499657 -0.112147853 -0.0160658266 0.021573171 -0.112147853 -0.0168452505 0.0220231712 -0.112147853 -0.0169452503 0.0218499657 -0.112147853 -0.018308647 0.0192884915 -0.109097853 -0.0178086478 0.0201545171 -0.109097853 -0.0188282635 0.0195884909 -0.109097853 -0.0178086478 0.0201545171 -0.109097853 -0.0213160515 0.0221795179 -0.109097853 -0.0188282635 0.0195884909 -0.109097853 -0.0188282635 0.0195884909 -0.109097853 -0.0213160515 0.0221795179 -0.109097853 -0.0189032629 0.0194585882 -0.109097853 -0.0213160515 0.0221795179 -0.109097853 -0.02189105 0.0211835876 -0.109097853 -0.0189032629 0.0194585882 -0.109097853 -0.0174924936 0.0243021119 -0.112347856 -0.0172424931 0.0247351248 -0.112347856 -0.0162465647 0.0241601244 -0.112347856 -0.0191215649 0.0191804785 -0.112347856 -0.0201174933 0.0197554789 -0.112347856 -0.0198674928 0.0201884918 -0.112347856 -0.0199367758 0.0202284921 -0.112347856 -0.0175617747 0.0243421122 -0.112347856 -0.0199107956 0.0202134922 -0.112347856 -0.0175617747 0.0243421122 -0.112347856 -0.0175357945 0.0243271124 -0.112347856 -0.0199107956 0.0202134922 -0.112347856 -0.0199107956 0.0202134922 -0.112347856 -0.0175357945 0.0243271124 -0.112347856 -0.0198674928 0.0201884918 -0.112347856 -0.0175357945 0.0243271124 -0.112347856 -0.0174924936 0.0243021119 -0.112347856 -0.0198674928 0.0201884918 -0.112347856 -0.0198674928 0.0201884918 -0.112347856 -0.0174924936 0.0243021119 -0.112347856 -0.0191215649 0.0191804785 -0.112347856 -0.0174924936 0.0243021119 -0.112347856 -0.0162465647 0.0241601244 -0.112347856 -0.0191215649 0.0191804785 -0.112347856 -0.0164336469 0.0225360878 -0.108497858 -0.0164336469 0.0225360878 -0.109097853 -0.0199410506 0.0245610867 -0.108497858 -0.0164336469 0.0225360878 -0.109097853 -0.0199410506 0.0245610867 -0.109097853 -0.0199410506 0.0245610867 -0.108497858 -0.0169452503 0.0218499657 -0.112147853 -0.0169452503 0.0218499657 -0.111397855 -0.0172916614 0.0220499653 -0.111397855 -0.0161658283 0.0213999655 -0.112447858 -0.0161658283 0.0213999655 -0.112147853 -0.0170318522 0.0218999647 -0.112447858 -0.0161658283 0.0213999655 -0.112147853 -0.0169452503 0.0218499657 -0.112147853 -0.0170318522 0.0218999647 -0.112447858 -0.0170318522 0.0218999647 -0.112447858 -0.0169452503 0.0218499657 -0.112147853 -0.0172916614 0.0220499653 -0.112147853 -0.0169452503 0.0218499657 -0.112147853 -0.0172916614 0.0220499653 -0.111397855 -0.0172916614 0.0220499653 -0.112147853 -0.0172916614 0.0220499653 -0.112147853 -0.0172916614 0.0220499653 -0.111397855 -0.0178166609 0.0211406387 -0.112147853 -0.0172916614 0.0220499653 -0.111397855 -0.0178166609 0.0211406387 -0.111397855 -0.0178166609 0.0211406387 -0.112147853 -0.0174702499 0.0209406391 -0.111397855 -0.0174702499 0.0209406391 -0.112147853 -0.0178166609 0.0211406387 -0.111397855 -0.0174702499 0.0209406391 -0.112147853 -0.0178166609 0.0211406387 -0.112147853 -0.0178166609 0.0211406387 -0.111397855 -0.0166908279 0.0204906389 -0.112147853 -0.0166908279 0.0204906389 -0.112447858 -0.0174702499 0.0209406391 -0.112147853 -0.0166908279 0.0204906389 -0.112447858 -0.0175568536 0.0209906381 -0.112447858 -0.0174702499 0.0209406391 -0.112147853 -0.0174702499 0.0209406391 -0.112147853 -0.0175568536 0.0209906381 -0.112447858 -0.0178166609 0.0211406387 -0.112147853 -0.0175702497 0.0207674336 -0.112147853 -0.0174702499 0.0209406391 -0.112147853 -0.0175702497 0.0207674336 -0.111397855 -0.0174702499 0.0209406391 -0.112147853 -0.0174702499 0.0209406391 -0.111397855 -0.0175702497 0.0207674336 -0.111397855 -0.0175702497 0.0207674336 -0.112147853 -0.0175702497 0.0207674336 -0.111397855 -0.0179166608 0.0209674332 -0.111397855 -0.0167908277 0.0203174334 -0.112447858 -0.0167908277 0.0203174334 -0.112147853 -0.0176568534 0.0208174344 -0.112447858 -0.0167908277 0.0203174334 -0.112147853 -0.0175702497 0.0207674336 -0.112147853 -0.0176568534 0.0208174344 -0.112447858 -0.0176568534 0.0208174344 -0.112447858 -0.0175702497 0.0207674336 -0.112147853 -0.0179166608 0.0209674332 -0.112147853 -0.0175702497 0.0207674336 -0.112147853 -0.0179166608 0.0209674332 -0.111397855 -0.0179166608 0.0209674332 -0.112147853 -0.0179166608 0.0209674332 -0.112147853 -0.0179166608 0.0209674332 -0.111397855 -0.0189916603 0.0191054791 -0.112147853 -0.0179166608 0.0209674332 -0.111397855 -0.0189916603 0.0191054791 -0.111397855 -0.0189916603 0.0191054791 -0.112147853 -0.0171916597 0.0222231708 -0.111397855 -0.0171916597 0.0222231708 -0.112147853 -0.0161166601 0.024085125 -0.111397855 -0.0171916597 0.0222231708 -0.112147853 -0.0161166601 0.024085125 -0.112147853 -0.0161166601 0.024085125 -0.111397855 -0.0168452505 0.0220231712 -0.111397855 -0.0168452505 0.0220231712 -0.112147853 -0.0171916597 0.0222231708 -0.111397855 -0.0168452505 0.0220231712 -0.112147853 -0.0171916597 0.0222231708 -0.112147853 -0.0171916597 0.0222231708 -0.111397855 -0.0160658266 0.021573171 -0.112147853 -0.0160658266 0.021573171 -0.112447858 -0.0168452505 0.0220231712 -0.112147853 -0.0160658266 0.021573171 -0.112447858 -0.0169318523 0.0220731702 -0.112447858 -0.0168452505 0.0220231712 -0.112147853 -0.0168452505 0.0220231712 -0.112147853 -0.0169318523 0.0220731702 -0.112447858 -0.0171916597 0.0222231708 -0.112147853 -0.0169452503 0.0218499657 -0.112147853 -0.0168452505 0.0220231712 -0.112147853 -0.0169452503 0.0218499657 -0.111397855 -0.0168452505 0.0220231712 -0.112147853 -0.0168452505 0.0220231712 -0.111397855 -0.0169452503 0.0218499657 -0.111397855 -0.0199107956 0.0202134922 -0.111747853 -0.0199107956 0.0202134922 -0.112347856 -0.0198674928 0.0201884918 -0.111747853 -0.0199107956 0.0202134922 -0.112347856 -0.0198674928 0.0201884918 -0.112347856 -0.0198674928 0.0201884918 -0.111747853 -0.0201160498 0.0242579784 -0.109897859 -0.016608648 0.0222329777 -0.109897859 -0.0201160498 0.0242579784 -0.108497858 -0.016608648 0.0222329777 -0.109897859 -0.016608648 0.0222329777 -0.108497858 -0.0201160498 0.0242579784 -0.108497858 -0.0211410504 0.0224826261 -0.109897859 -0.0211410504 0.0224826261 -0.108497858 -0.0176336486 0.0204576254 -0.109897859 -0.0211410504 0.0224826261 -0.108497858 -0.0176336486 0.0204576254 -0.108497858 -0.0176336486 0.0204576254 -0.109897859 -0.0215660501 0.0217465051 -0.109697856 -0.0213160515 0.0221795179 -0.109697856 -0.0193143841 0.0204465054 -0.109697856 -0.0213160515 0.0221795179 -0.109697856 -0.0190643854 0.0208795164 -0.109697856 -0.0193143841 0.0204465054 -0.109697856 -0.0199410506 0.0245610867 -0.109697856 -0.0196910501 0.0249940995 -0.109697856 -0.0176893845 0.023261087 -0.109697856 -0.0196910501 0.0249940995 -0.109697856 -0.017439384 0.0236940999 -0.109697856 -0.0176893845 0.023261087 -0.109697856 -0.0213160515 0.0221795179 -0.109697856 -0.0213160515 0.0221795179 -0.110197857 -0.0190643854 0.0208795164 -0.109697856 -0.0213160515 0.0221795179 -0.110197857 -0.0190643854 0.0208795164 -0.110197857 -0.0190643854 0.0208795164 -0.109697856 -0.0193143841 0.0204465054 -0.109697856 -0.0190643854 0.0208795164 -0.109697856 -0.0190643854 0.0208795164 -0.110197857 -0.0176893845 0.023261087 -0.109697856 -0.017439384 0.0236940999 -0.109697856 -0.0176893845 0.023261087 -0.110197857 -0.017439384 0.0236940999 -0.109697856 -0.017439384 0.0236940999 -0.111747853 -0.0176893845 0.023261087 -0.110197857 -0.0176893845 0.023261087 -0.110197857 -0.017439384 0.0236940999 -0.111747853 -0.0190643854 0.0208795164 -0.110197857 -0.017439384 0.0236940999 -0.111747853 -0.0193143841 0.0204465054 -0.111747853 -0.0190643854 0.0208795164 -0.110197857 -0.0190643854 0.0208795164 -0.110197857 -0.0193143841 0.0204465054 -0.111747853 -0.0193143841 0.0204465054 -0.109697856 -0.0199410506 0.0245610867 -0.110197857 -0.0199410506 0.0245610867 -0.109697856 -0.0176893845 0.023261087 -0.110197857 -0.0199410506 0.0245610867 -0.109697856 -0.0176893845 0.023261087 -0.109697856 -0.0176893845 0.023261087 -0.110197857 -0.0164336469 0.0225360878 -0.109097853 -0.0159336478 0.0234021116 -0.109097853 -0.0164532624 0.023702113 -0.109097853 -0.016378263 0.0238320157 -0.109097853 -0.0193660501 0.025557017 -0.109097853 -0.0164532624 0.023702113 -0.109097853 -0.0193660501 0.025557017 -0.109097853 -0.0199410506 0.0245610867 -0.109097853 -0.0164532624 0.023702113 -0.109097853 -0.0164532624 0.023702113 -0.109097853 -0.0199410506 0.0245610867 -0.109097853 -0.0164336469 0.0225360878 -0.109097853 -0.0178086478 0.0201545171 -0.109097853 -0.0178086478 0.0201545171 -0.108497858 -0.0213160515 0.0221795179 -0.109097853 -0.0178086478 0.0201545171 -0.108497858 -0.0213160515 0.0221795179 -0.108497858 -0.0213160515 0.0221795179 -0.109097853 -0.0189032629 0.0194585882 -0.108697854 -0.0189032629 0.0194585882 -0.109097853 -0.0200290959 0.020108588 -0.108697854 -0.0189032629 0.0194585882 -0.109097853 -0.02189105 0.0211835876 -0.109097853 -0.0200290959 0.020108588 -0.108697854 -0.0200290959 0.020108588 -0.108697854 -0.02189105 0.0211835876 -0.109097853 -0.0200290959 0.020108588 -0.108497858 -0.02189105 0.0211835876 -0.109097853 -0.02189105 0.0211835876 -0.108497858 -0.0200290959 0.020108588 -0.108497858 -0.0175617747 0.0243421122 -0.112447858 -0.0175617747 0.0243421122 -0.112347856 -0.0199367758 0.0202284921 -0.112447858 -0.0175617747 0.0243421122 -0.112347856 -0.0199367758 0.0202284921 -0.112347856 -0.0199367758 0.0202284921 -0.112447858 -0.0175617747 0.0243421122 -0.112347856 -0.0175617747 0.0243421122 -0.112447858 -0.0175357945 0.0243271124 -0.112347856 -0.0175617747 0.0243421122 -0.112447858 -0.0175357945 0.0243271124 -0.112447858 -0.0175357945 0.0243271124 -0.112347856 -0.0200367756 0.0200552866 -0.112447858 -0.0200107954 0.0200402867 -0.112447858 -0.0200367756 0.0200552866 -0.111747853 -0.0200107954 0.0200402867 -0.112447858 -0.0200107954 0.0200402867 -0.111747853 -0.0200367756 0.0200552866 -0.111747853 -0.0199107956 0.0202134922 -0.111747853 -0.0200107954 0.0200402867 -0.111747853 -0.0199107956 0.0202134922 -0.112347856 -0.0200107954 0.0200402867 -0.111747853 -0.0200107954 0.0200402867 -0.112447858 -0.0199107956 0.0202134922 -0.112347856 -0.0199107956 0.0202134922 -0.112347856 -0.0200107954 0.0200402867 -0.112447858 -0.0199107956 0.0202134922 -0.112447858 -0.0199367758 0.0202284921 -0.112447858 -0.0199367758 0.0202284921 -0.112347856 -0.0199107956 0.0202134922 -0.112447858 -0.0199367758 0.0202284921 -0.112347856 -0.0199107956 0.0202134922 -0.112347856 -0.0199107956 0.0202134922 -0.112447858 -0.0175357945 0.0243271124 -0.112447858 -0.0174357947 0.0245003179 -0.112447858 -0.0175357945 0.0243271124 -0.112347856 -0.0174357947 0.0245003179 -0.112447858 -0.0174357947 0.0245003179 -0.111747853 -0.0175357945 0.0243271124 -0.112347856 -0.0175357945 0.0243271124 -0.112347856 -0.0174357947 0.0245003179 -0.111747853 -0.0175357945 0.0243271124 -0.111747853 -0.0200367756 0.0200552866 -0.112447858 -0.0201867763 0.0197954793 -0.112447858 -0.0220660511 0.0208804794 -0.112447858 -0.0174357947 0.0245003179 -0.112447858 -0.0175357945 0.0243271124 -0.112447858 -0.0174617749 0.0245153178 -0.112447858 -0.0175357945 0.0243271124 -0.112447858 -0.0175617747 0.0243421122 -0.112447858 -0.0174617749 0.0245153178 -0.112447858 -0.0199367758 0.0202284921 -0.112447858 -0.0199107956 0.0202134922 -0.112447858 -0.0200107954 0.0200402867 -0.112447858 -0.0200107954 0.0200402867 -0.112447858 -0.0200367756 0.0200552866 -0.112447858 -0.0199367758 0.0202284921 -0.112447858 -0.0200367756 0.0200552866 -0.112447858 -0.0220660511 0.0208804794 -0.112447858 -0.0199367758 0.0202284921 -0.112447858 -0.0199367758 0.0202284921 -0.112447858 -0.0220660511 0.0208804794 -0.112447858 -0.0175617747 0.0243421122 -0.112447858 -0.0220660511 0.0208804794 -0.112447858 -0.0191910509 0.0258601252 -0.112447858 -0.0175617747 0.0243421122 -0.112447858 -0.0175617747 0.0243421122 -0.112447858 -0.0191910509 0.0258601252 -0.112447858 -0.0174617749 0.0245153178 -0.112447858 -0.0191910509 0.0258601252 -0.112447858 -0.0173117761 0.0247751251 -0.112447858 -0.0174617749 0.0245153178 -0.112447858 -0.0173117761 0.0247751251 -0.112447858 -0.0173117761 0.0247751251 -0.111747853 -0.0174617749 0.0245153178 -0.112447858 -0.0173117761 0.0247751251 -0.111747853 -0.0174617749 0.0245153178 -0.111747853 -0.0174617749 0.0245153178 -0.112447858 -0.0174924936 0.0243021119 -0.111747853 -0.0175357945 0.0243271124 -0.111747853 -0.0174357947 0.0245003179 -0.111747853 -0.0174617749 0.0245153178 -0.111747853 -0.0173117761 0.0247751251 -0.111747853 -0.0174357947 0.0245003179 -0.111747853 -0.0173117761 0.0247751251 -0.111747853 -0.0172424931 0.0247351248 -0.111747853 -0.0174357947 0.0245003179 -0.111747853 -0.0174357947 0.0245003179 -0.111747853 -0.0172424931 0.0247351248 -0.111747853 -0.0174924936 0.0243021119 -0.111747853 -0.0172424931 0.0247351248 -0.112347856 -0.0174924936 0.0243021119 -0.112347856 -0.0172424931 0.0247351248 -0.111747853 -0.0174924936 0.0243021119 -0.112347856 -0.0174924936 0.0243021119 -0.111747853 -0.0172424931 0.0247351248 -0.111747853 -0.0162032638 0.0241351258 -0.11034786 -0.0164532624 0.023702113 -0.11034786 -0.0156836472 0.0238351244 -0.11034786 -0.0164532624 0.023702113 -0.11034786 -0.0159336478 0.0234021116 -0.11034786 -0.0156836472 0.0238351244 -0.11034786 -0.0162032638 0.0241351258 -0.108697854 -0.016378263 0.0238320157 -0.108697854 -0.016378263 0.0238320157 -0.109097853 -0.0164532624 0.023702113 -0.109097853 -0.0164532624 0.023702113 -0.11034786 -0.016378263 0.0238320157 -0.109097853 -0.0164532624 0.023702113 -0.11034786 -0.0162032638 0.0241351258 -0.11034786 -0.016378263 0.0238320157 -0.109097853 -0.016378263 0.0238320157 -0.109097853 -0.0162032638 0.0241351258 -0.11034786 -0.0162032638 0.0241351258 -0.108697854 -0.016378263 0.0238320157 -0.108697854 -0.0162032638 0.0241351258 -0.108697854 -0.017504096 0.0244820155 -0.108697854 -0.0162032638 0.0241351258 -0.108697854 -0.0173290968 0.0247851256 -0.108697854 -0.017504096 0.0244820155 -0.108697854 -0.017504096 0.0244820155 -0.108697854 -0.0173290968 0.0247851256 -0.108697854 -0.017504096 0.0244820155 -0.108497858 -0.0173290968 0.0247851256 -0.108697854 -0.0173290968 0.0247851256 -0.108097859 -0.017504096 0.0244820155 -0.108497858 -0.017504096 0.0244820155 -0.108497858 -0.0173290968 0.0247851256 -0.108097859 -0.0175790954 0.0243521128 -0.108497858 -0.0173290968 0.0247851256 -0.108097859 -0.0175790954 0.0243521128 -0.108097859 -0.0175790954 0.0243521128 -0.108497858 -0.0175790954 0.0243521128 -0.108497858 -0.0175790954 0.0243521128 -0.108097859 -0.0159336478 0.0234021116 -0.108497858 -0.0175790954 0.0243521128 -0.108097859 -0.0159336478 0.0234021116 -0.108097859 -0.0159336478 0.0234021116 -0.108497858 -0.0176336486 0.0204576254 -0.108497858 -0.016608648 0.0222329777 -0.108497858 -0.0159336478 0.0234021116 -0.108097859 -0.018308647 0.0192884915 -0.108097859 -0.018308647 0.0192884915 -0.108497858 -0.0178086478 0.0201545171 -0.108497858 -0.0185586475 0.0188554786 -0.111397855 -0.0156836472 0.0238351244 -0.111397855 -0.0159336478 0.0234021116 -0.11034786 -0.0156836472 0.0238351244 -0.111397855 -0.0156836472 0.0238351244 -0.11034786 -0.0159336478 0.0234021116 -0.11034786 -0.018308647 0.0192884915 -0.11034786 -0.0185586475 0.0188554786 -0.11034786 -0.0185586475 0.0188554786 -0.111397855 -0.0159336478 0.0234021116 -0.108497858 -0.0159336478 0.0234021116 -0.108097859 -0.0164336469 0.0225360878 -0.108497858 -0.0159336478 0.0234021116 -0.108097859 -0.016608648 0.0222329777 -0.108497858 -0.0164336469 0.0225360878 -0.108497858 -0.0164336469 0.0225360878 -0.108497858 -0.016608648 0.0222329777 -0.108497858 -0.0164336469 0.0225360878 -0.109097853 -0.016608648 0.0222329777 -0.108497858 -0.016608648 0.0222329777 -0.109897859 -0.0164336469 0.0225360878 -0.109097853 -0.0159336478 0.0234021116 -0.108097859 -0.018308647 0.0192884915 -0.108097859 -0.0176336486 0.0204576254 -0.108497858 -0.018308647 0.0192884915 -0.108097859 -0.0178086478 0.0201545171 -0.108497858 -0.0176336486 0.0204576254 -0.108497858 -0.0176336486 0.0204576254 -0.108497858 -0.0178086478 0.0201545171 -0.108497858 -0.0176336486 0.0204576254 -0.109897859 -0.0178086478 0.0201545171 -0.108497858 -0.0178086478 0.0201545171 -0.109097853 -0.0176336486 0.0204576254 -0.109897859 -0.0159336478 0.0234021116 -0.109097853 -0.0164336469 0.0225360878 -0.109097853 -0.0159336478 0.0234021116 -0.11034786 -0.0164336469 0.0225360878 -0.109097853 -0.016608648 0.0222329777 -0.109897859 -0.0159336478 0.0234021116 -0.11034786 -0.0159336478 0.0234021116 -0.11034786 -0.016608648 0.0222329777 -0.109897859 -0.0185586475 0.0188554786 -0.111397855 -0.016608648 0.0222329777 -0.109897859 -0.0176336486 0.0204576254 -0.109897859 -0.0185586475 0.0188554786 -0.111397855 -0.0185586475 0.0188554786 -0.111397855 -0.0176336486 0.0204576254 -0.109897859 -0.018308647 0.0192884915 -0.11034786 -0.0176336486 0.0204576254 -0.109897859 -0.0178086478 0.0201545171 -0.109097853 -0.018308647 0.0192884915 -0.11034786 -0.018308647 0.0192884915 -0.11034786 -0.0178086478 0.0201545171 -0.109097853 -0.018308647 0.0192884915 -0.109097853 -0.0173117761 0.0247751251 -0.111747853 -0.0173117761 0.0247751251 -0.112447858 -0.0191910509 0.0258601252 -0.112447858 -0.0173290968 0.0247851256 -0.108697854 -0.0162032638 0.0241351258 -0.108697854 -0.0162032638 0.0241351258 -0.11034786 -0.0156836472 0.0238351244 -0.11034786 -0.0156836472 0.0238351244 -0.111397855 -0.0162032638 0.0241351258 -0.11034786 -0.0156836472 0.0238351244 -0.111397855 -0.0161166601 0.024085125 -0.111397855 -0.0162032638 0.0241351258 -0.11034786 -0.0162465647 0.0241601244 -0.112347856 -0.0172424931 0.0247351248 -0.112347856 -0.0162465647 0.0241601244 -0.112147853 -0.0172424931 0.0247351248 -0.112347856 -0.0172424931 0.0247351248 -0.111747853 -0.0162465647 0.0241601244 -0.112147853 -0.0161166601 0.024085125 -0.112147853 -0.0162465647 0.0241601244 -0.112147853 -0.0161166601 0.024085125 -0.111397855 -0.0162465647 0.0241601244 -0.112147853 -0.0172424931 0.0247351248 -0.111747853 -0.0161166601 0.024085125 -0.111397855 -0.0161166601 0.024085125 -0.111397855 -0.0172424931 0.0247351248 -0.111747853 -0.0162032638 0.0241351258 -0.11034786 -0.0172424931 0.0247351248 -0.111747853 -0.0173117761 0.0247751251 -0.111747853 -0.0162032638 0.0241351258 -0.11034786 -0.0162032638 0.0241351258 -0.11034786 -0.0173117761 0.0247751251 -0.111747853 -0.0173290968 0.0247851256 -0.108697854 -0.0173117761 0.0247751251 -0.111747853 -0.0191910509 0.0258601252 -0.112447858 -0.0173290968 0.0247851256 -0.108697854 -0.0173290968 0.0247851256 -0.108697854 -0.0191910509 0.0258601252 -0.112447858 -0.0173290968 0.0247851256 -0.108097859 -0.0191910509 0.0258601252 -0.112447858 -0.0191910509 0.0258601252 -0.108097859 -0.0173290968 0.0247851256 -0.108097859 -0.0175790954 0.0243521128 -0.108097859 -0.0173290968 0.0247851256 -0.108097859 -0.0191910509 0.0258601252 -0.108097859 -0.0220660511 0.0208804794 -0.108097859 -0.0202040952 0.0198054798 -0.108097859 -0.0199540965 0.0202384926 -0.108097859 -0.018308647 0.0192884915 -0.108097859 -0.0159336478 0.0234021116 -0.108097859 -0.0199540965 0.0202384926 -0.108097859 -0.0159336478 0.0234021116 -0.108097859 -0.0175790954 0.0243521128 -0.108097859 -0.0199540965 0.0202384926 -0.108097859 -0.0199540965 0.0202384926 -0.108097859 -0.0175790954 0.0243521128 -0.108097859 -0.0220660511 0.0208804794 -0.108097859 -0.0175790954 0.0243521128 -0.108097859 -0.0191910509 0.0258601252 -0.108097859 -0.0220660511 0.0208804794 -0.108097859 -0.0211410504 0.0224826261 -0.109897859 -0.0213160515 0.0221795179 -0.110197857 -0.0213160515 0.0221795179 -0.109697856 -0.02189105 0.0211835876 -0.109097853 -0.0213160515 0.0221795179 -0.109097853 -0.0213160515 0.0221795179 -0.109697856 -0.0211410504 0.0224826261 -0.109897859 -0.0213160515 0.0221795179 -0.109697856 -0.0211410504 0.0224826261 -0.108497858 -0.0213160515 0.0221795179 -0.109697856 -0.0213160515 0.0221795179 -0.109097853 -0.0211410504 0.0224826261 -0.108497858 -0.0211410504 0.0224826261 -0.108497858 -0.0213160515 0.0221795179 -0.109097853 -0.0213160515 0.0221795179 -0.108497858 -0.0220660511 0.0208804794 -0.112447858 -0.0220660511 0.0208804794 -0.108097859 -0.02189105 0.0211835876 -0.109097853 -0.0220660511 0.0208804794 -0.108097859 -0.02189105 0.0211835876 -0.108497858 -0.02189105 0.0211835876 -0.109097853 -0.0191910509 0.0258601252 -0.112447858 -0.0220660511 0.0208804794 -0.112447858 -0.0215660501 0.0217465051 -0.111747853 -0.0220660511 0.0208804794 -0.112447858 -0.02189105 0.0211835876 -0.109097853 -0.0215660501 0.0217465051 -0.111747853 -0.0215660501 0.0217465051 -0.111747853 -0.02189105 0.0211835876 -0.109097853 -0.0215660501 0.0217465051 -0.109697856 -0.02189105 0.0211835876 -0.109097853 -0.0213160515 0.0221795179 -0.109697856 -0.0215660501 0.0217465051 -0.109697856 -0.0199410506 0.0245610867 -0.109097853 -0.0201160498 0.0242579784 -0.109897859 -0.0199410506 0.0245610867 -0.108497858 -0.0201160498 0.0242579784 -0.109897859 -0.0201160498 0.0242579784 -0.108497858 -0.0199410506 0.0245610867 -0.108497858 -0.0199410506 0.0245610867 -0.108497858 -0.0201160498 0.0242579784 -0.108497858 -0.0191910509 0.0258601252 -0.108097859 -0.0201160498 0.0242579784 -0.108497858 -0.0211410504 0.0224826261 -0.108497858 -0.0191910509 0.0258601252 -0.108097859 -0.0191910509 0.0258601252 -0.108097859 -0.0211410504 0.0224826261 -0.108497858 -0.0220660511 0.0208804794 -0.108097859 -0.0211410504 0.0224826261 -0.108497858 -0.0213160515 0.0221795179 -0.108497858 -0.0220660511 0.0208804794 -0.108097859 -0.0220660511 0.0208804794 -0.108097859 -0.0213160515 0.0221795179 -0.108497858 -0.02189105 0.0211835876 -0.108497858 -0.0213160515 0.0221795179 -0.110197857 -0.0211410504 0.0224826261 -0.109897859 -0.0199410506 0.0245610867 -0.110197857 -0.0211410504 0.0224826261 -0.109897859 -0.0201160498 0.0242579784 -0.109897859 -0.0199410506 0.0245610867 -0.110197857 -0.0199410506 0.0245610867 -0.110197857 -0.0201160498 0.0242579784 -0.109897859 -0.0199410506 0.0245610867 -0.109697856 -0.0201160498 0.0242579784 -0.109897859 -0.0199410506 0.0245610867 -0.109097853 -0.0199410506 0.0245610867 -0.109697856 -0.0199410506 0.0245610867 -0.109697856 -0.0199410506 0.0245610867 -0.109097853 -0.0196910501 0.0249940995 -0.109697856 -0.0199410506 0.0245610867 -0.109097853 -0.0193660501 0.025557017 -0.109097853 -0.0196910501 0.0249940995 -0.109697856 -0.0196910501 0.0249940995 -0.109697856 -0.0193660501 0.025557017 -0.109097853 -0.0196910501 0.0249940995 -0.111747853 -0.0215660501 0.0217465051 -0.111747853 -0.0196910501 0.0249940995 -0.111747853 -0.0191910509 0.0258601252 -0.112447858 -0.0196910501 0.0249940995 -0.111747853 -0.0193660501 0.025557017 -0.109097853 -0.0191910509 0.0258601252 -0.112447858 -0.0191910509 0.0258601252 -0.112447858 -0.0193660501 0.025557017 -0.109097853 -0.0191910509 0.0258601252 -0.108097859 -0.0193660501 0.025557017 -0.109097853 -0.0193660501 0.025557017 -0.108497858 -0.0191910509 0.0258601252 -0.108097859 -0.0191910509 0.0258601252 -0.108097859 -0.0193660501 0.025557017 -0.108497858 -0.0199410506 0.0245610867 -0.108497858 -0.0202040952 0.0198054798 -0.108697854 -0.0202040952 0.0198054798 -0.108097859 -0.0220660511 0.0208804794 -0.108097859 -0.0201174933 0.0197554789 -0.111747853 -0.0201174933 0.0197554789 -0.112347856 -0.0191215649 0.0191804785 -0.112347856 -0.0220660511 0.0208804794 -0.108097859 -0.0220660511 0.0208804794 -0.112447858 -0.0201867763 0.0197954793 -0.112447858 -0.0201867763 0.0197954793 -0.112447858 -0.0201867763 0.0197954793 -0.111747853 -0.0220660511 0.0208804794 -0.108097859 -0.0201867763 0.0197954793 -0.111747853 -0.0201174933 0.0197554789 -0.111747853 -0.0220660511 0.0208804794 -0.108097859 -0.0220660511 0.0208804794 -0.108097859 -0.0201174933 0.0197554789 -0.111747853 -0.0191215649 0.0191804785 -0.112147853 -0.0201174933 0.0197554789 -0.111747853 -0.0191215649 0.0191804785 -0.112347856 -0.0191215649 0.0191804785 -0.112147853 -0.0185586475 0.0188554786 -0.111397855 -0.0185586475 0.0188554786 -0.11034786 -0.0189916603 0.0191054791 -0.111397855 -0.0185586475 0.0188554786 -0.11034786 -0.0190782622 0.01915548 -0.11034786 -0.0189916603 0.0191054791 -0.111397855 -0.0191215649 0.0191804785 -0.112147853 -0.0189916603 0.0191054791 -0.112147853 -0.0220660511 0.0208804794 -0.108097859 -0.0189916603 0.0191054791 -0.112147853 -0.0189916603 0.0191054791 -0.111397855 -0.0220660511 0.0208804794 -0.108097859 -0.0220660511 0.0208804794 -0.108097859 -0.0189916603 0.0191054791 -0.111397855 -0.0202040952 0.0198054798 -0.108697854 -0.0189916603 0.0191054791 -0.111397855 -0.0190782622 0.01915548 -0.11034786 -0.0202040952 0.0198054798 -0.108697854 -0.0202040952 0.0198054798 -0.108697854 -0.0190782622 0.01915548 -0.11034786 -0.0190782622 0.01915548 -0.108697854 -0.0199540965 0.0202384926 -0.108497858 -0.0199540965 0.0202384926 -0.108097859 -0.0200290959 0.020108588 -0.108497858 -0.0199540965 0.0202384926 -0.108097859 -0.0202040952 0.0198054798 -0.108097859 -0.0200290959 0.020108588 -0.108497858 -0.0200290959 0.020108588 -0.108497858 -0.0202040952 0.0198054798 -0.108097859 -0.0200290959 0.020108588 -0.108697854 -0.0202040952 0.0198054798 -0.108097859 -0.0202040952 0.0198054798 -0.108697854 -0.0200290959 0.020108588 -0.108697854 -0.018308647 0.0192884915 -0.108497858 -0.018308647 0.0192884915 -0.108097859 -0.0199540965 0.0202384926 -0.108497858 -0.018308647 0.0192884915 -0.108097859 -0.0199540965 0.0202384926 -0.108097859 -0.0199540965 0.0202384926 -0.108497858 -0.0200290959 0.020108588 -0.108497858 -0.02189105 0.0211835876 -0.108497858 -0.0199540965 0.0202384926 -0.108497858 -0.02189105 0.0211835876 -0.108497858 -0.0213160515 0.0221795179 -0.108497858 -0.0199540965 0.0202384926 -0.108497858 -0.0199540965 0.0202384926 -0.108497858 -0.0213160515 0.0221795179 -0.108497858 -0.018308647 0.0192884915 -0.108497858 -0.0213160515 0.0221795179 -0.108497858 -0.0178086478 0.0201545171 -0.108497858 -0.018308647 0.0192884915 -0.108497858 -0.016378263 0.0238320157 -0.109097853 -0.016378263 0.0238320157 -0.108697854 -0.017504096 0.0244820155 -0.108697854 -0.017504096 0.0244820155 -0.108497858 -0.0193660501 0.025557017 -0.108497858 -0.017504096 0.0244820155 -0.108697854 -0.0193660501 0.025557017 -0.108497858 -0.0193660501 0.025557017 -0.109097853 -0.017504096 0.0244820155 -0.108697854 -0.017504096 0.0244820155 -0.108697854 -0.0193660501 0.025557017 -0.109097853 -0.016378263 0.0238320157 -0.109097853 -0.0213160515 0.0221795179 -0.110197857 -0.0199410506 0.0245610867 -0.110197857 -0.0190643854 0.0208795164 -0.110197857 -0.0199410506 0.0245610867 -0.110197857 -0.0176893845 0.023261087 -0.110197857 -0.0190643854 0.0208795164 -0.110197857 -0.0196910501 0.0249940995 -0.109697856 -0.0196910501 0.0249940995 -0.111747853 -0.017439384 0.0236940999 -0.109697856 -0.0196910501 0.0249940995 -0.111747853 -0.017439384 0.0236940999 -0.111747853 -0.017439384 0.0236940999 -0.109697856 -0.0196910501 0.0249940995 -0.111747853 -0.0215660501 0.0217465051 -0.111747853 -0.017439384 0.0236940999 -0.111747853 -0.0215660501 0.0217465051 -0.111747853 -0.0193143841 0.0204465054 -0.111747853 -0.017439384 0.0236940999 -0.111747853 -0.0215660501 0.0217465051 -0.111747853 -0.0215660501 0.0217465051 -0.109697856 -0.0193143841 0.0204465054 -0.111747853 -0.0215660501 0.0217465051 -0.109697856 -0.0193143841 0.0204465054 -0.109697856 -0.0193143841 0.0204465054 -0.111747853 -0.0201160498 0.0242579784 -0.109897859 -0.0211410504 0.0224826261 -0.109897859 -0.016608648 0.0222329777 -0.109897859 -0.0211410504 0.0224826261 -0.109897859 -0.0176336486 0.0204576254 -0.109897859 -0.016608648 0.0222329777 -0.109897859 -0.0211410504 0.0224826261 -0.108497858 -0.0201160498 0.0242579784 -0.108497858 -0.0176336486 0.0204576254 -0.108497858 -0.0201160498 0.0242579784 -0.108497858 -0.016608648 0.0222329777 -0.108497858 -0.0176336486 0.0204576254 -0.108497858 -0.0199107956 0.0202134922 -0.111747853 -0.0198674928 0.0201884918 -0.111747853 -0.0200107954 0.0200402867 -0.111747853 -0.0198674928 0.0201884918 -0.111747853 -0.0201174933 0.0197554789 -0.111747853 -0.0200107954 0.0200402867 -0.111747853 -0.0200107954 0.0200402867 -0.111747853 -0.0201174933 0.0197554789 -0.111747853 -0.0200367756 0.0200552866 -0.111747853 -0.0201174933 0.0197554789 -0.111747853 -0.0201867763 0.0197954793 -0.111747853 -0.0200367756 0.0200552866 -0.111747853 -0.0201174933 0.0197554789 -0.112347856 -0.0201174933 0.0197554789 -0.111747853 -0.0198674928 0.0201884918 -0.112347856 -0.0201174933 0.0197554789 -0.111747853 -0.0198674928 0.0201884918 -0.111747853 -0.0198674928 0.0201884918 -0.112347856 -0.0190782622 0.01915548 -0.11034786 -0.0185586475 0.0188554786 -0.11034786 -0.0188282635 0.0195884909 -0.11034786 -0.0185586475 0.0188554786 -0.11034786 -0.018308647 0.0192884915 -0.11034786 -0.0188282635 0.0195884909 -0.11034786 -0.0189032629 0.0194585882 -0.108697854 -0.0190782622 0.01915548 -0.108697854 -0.0189032629 0.0194585882 -0.109097853 -0.0190782622 0.01915548 -0.108697854 -0.0190782622 0.01915548 -0.11034786 -0.0189032629 0.0194585882 -0.109097853 -0.0189032629 0.0194585882 -0.109097853 -0.0190782622 0.01915548 -0.11034786 -0.0188282635 0.0195884909 -0.109097853 -0.0190782622 0.01915548 -0.11034786 -0.0188282635 0.0195884909 -0.11034786 -0.0188282635 0.0195884909 -0.109097853 -0.0189032629 0.0194585882 -0.108697854 -0.0200290959 0.020108588 -0.108697854 -0.0190782622 0.01915548 -0.108697854 -0.0200290959 0.020108588 -0.108697854 -0.0202040952 0.0198054798 -0.108697854 -0.0190782622 0.01915548 -0.108697854 -0.0200367756 0.0200552866 -0.112447858 -0.0200367756 0.0200552866 -0.111747853 -0.0201867763 0.0197954793 -0.112447858 -0.0200367756 0.0200552866 -0.111747853 -0.0201867763 0.0197954793 -0.111747853 -0.0201867763 0.0197954793 -0.112447858 -0.0188282635 0.0195884909 -0.109097853 -0.0188282635 0.0195884909 -0.11034786 -0.018308647 0.0192884915 -0.109097853 -0.0188282635 0.0195884909 -0.11034786 -0.018308647 0.0192884915 -0.11034786 -0.018308647 0.0192884915 -0.109097853 -0.0185586475 0.0188554786 -0.111397855 -0.0189916603 0.0191054791 -0.111397855 -0.0179166608 0.0209674332 -0.111397855 -0.0179166608 0.0209674332 -0.111397855 -0.0175702497 0.0207674336 -0.111397855 -0.0185586475 0.0188554786 -0.111397855 -0.0175702497 0.0207674336 -0.111397855 -0.0174702499 0.0209406391 -0.111397855 -0.0185586475 0.0188554786 -0.111397855 -0.0185586475 0.0188554786 -0.111397855 -0.0174702499 0.0209406391 -0.111397855 -0.0156836472 0.0238351244 -0.111397855 -0.0171916597 0.0222231708 -0.111397855 -0.0161166601 0.024085125 -0.111397855 -0.0168452505 0.0220231712 -0.111397855 -0.0161166601 0.024085125 -0.111397855 -0.0156836472 0.0238351244 -0.111397855 -0.0168452505 0.0220231712 -0.111397855 -0.0168452505 0.0220231712 -0.111397855 -0.0156836472 0.0238351244 -0.111397855 -0.0169452503 0.0218499657 -0.111397855 -0.0156836472 0.0238351244 -0.111397855 -0.0174702499 0.0209406391 -0.111397855 -0.0169452503 0.0218499657 -0.111397855 -0.0169452503 0.0218499657 -0.111397855 -0.0174702499 0.0209406391 -0.111397855 -0.0172916614 0.0220499653 -0.111397855 -0.0174702499 0.0209406391 -0.111397855 -0.0178166609 0.0211406387 -0.111397855 -0.0172916614 0.0220499653 -0.111397855 -0.0159336478 0.0234021116 -0.109097853 -0.0159336478 0.0234021116 -0.11034786 -0.0164532624 0.023702113 -0.109097853 -0.0159336478 0.0234021116 -0.11034786 -0.0164532624 0.023702113 -0.11034786 -0.0164532624 0.023702113 -0.109097853 -0.0159336478 0.0234021116 -0.108497858 -0.0164336469 0.0225360878 -0.108497858 -0.0175790954 0.0243521128 -0.108497858 -0.0164336469 0.0225360878 -0.108497858 -0.0199410506 0.0245610867 -0.108497858 -0.0175790954 0.0243521128 -0.108497858 -0.0175790954 0.0243521128 -0.108497858 -0.0199410506 0.0245610867 -0.108497858 -0.017504096 0.0244820155 -0.108497858 -0.0199410506 0.0245610867 -0.108497858 -0.0193660501 0.025557017 -0.108497858 -0.017504096 0.0244820155 -0.108497858 -0.0174924936 0.0243021119 -0.112347856 -0.0175357945 0.0243271124 -0.112347856 -0.0174924936 0.0243021119 -0.111747853 -0.0175357945 0.0243271124 -0.112347856 -0.0175357945 0.0243271124 -0.111747853 -0.0174924936 0.0243021119 -0.111747853 -0.0174617749 0.0245153178 -0.111747853 -0.0174357947 0.0245003179 -0.111747853 -0.0174617749 0.0245153178 -0.112447858 -0.0174357947 0.0245003179 -0.111747853 -0.0174357947 0.0245003179 -0.112447858 -0.0174617749 0.0245153178 -0.112447858 </float_array>
          <technique_common>
            <accessor count="876" offset="0" source="#mesh_0-positions-array" stride="3">
              <param name="X" type="float" />
              <param name="Y" type="float" />
              <param name="Z" type="float" />
            </accessor>
          </technique_common>
        </source>
        <source id="mesh_0-normals" name="mesh_0-normals">
          <float_array id="mesh_0-normals-array" count="2628"> 0.866025388 -0.50000006 0 0.866025388 -0.50000006 0 0.866025388 -0.50000006 0 0.866025388 -0.50000006 -0 0.866025388 -0.50000006 -0 0.866025388 -0.50000006 -0 0 -0 1 0 -0 1 0 -0 1 -0 -0 1 -0 -0 1 -0 -0 1 0.866026282 -0.49999842 0 0.866026282 -0.49999842 0 0.866026282 -0.49999842 0 0.866026282 -0.49999842 -0 0.866026282 -0.49999842 -0 0.866026282 -0.49999842 -0 0 0 -1 0 0 -1 0 0 -1 0 -0 -1 0 -0 -1 0 -0 -1 -0.612377465 0.35355863 -0.707099795 -0.612377465 0.35355863 -0.707099795 -0.612377465 0.35355863 -0.707099795 -0.61237818 0.353555232 -0.707100928 -0.61237818 0.353555232 -0.707100928 -0.61237818 0.353555232 -0.707100928 0 -0 -1 0 -0 -1 0 -0 -1 -0 0 -1 -0 0 -1 -0 0 -1 -0 0 -1 -0 0 -1 -0 0 -1 0 0 -1 0 0 -1 0 0 -1 -0 -0 -1 -0 -0 -1 -0 -0 -1 0 0 -1 0 0 -1 0 0 -1 0 0 -1 0 0 -1 0 0 -1 0 -0 -1 0 -0 -1 0 -0 -1 0.866022289 -0.500005424 0 0.866022289 -0.500005424 0 0.866022289 -0.500005424 0 0.866022289 -0.500005424 -0 0.866022289 -0.500005424 -0 0.866022289 -0.500005424 -0 -0.612376511 0.353554279 -0.707102776 -0.612376511 0.353554279 -0.707102776 -0.612376511 0.353554279 -0.707102776 -0.612375319 0.35356015 -0.707100928 -0.612375319 0.35356015 -0.707100928 -0.612375319 0.35356015 -0.707100928 0 -0 1 0 -0 1 0 -0 1 -0 -0 1 -0 -0 1 -0 -0 1 0 -0 1 0 -0 1 0 -0 1 0 -0 1 0 -0 1 0 -0 1 0 0 1 0 0 1 0 0 1 -0 0 1 -0 0 1 -0 0 1 0 0 -1 0 0 -1 0 0 -1 0 0 -1 0 0 -1 0 0 -1 0 0 -1 0 0 -1 0 0 -1 -0 -0 -1 -0 -0 -1 -0 -0 -1 0 0 -1 0 0 -1 0 0 -1 -0 -0 -1 -0 -0 -1 -0 -0 -1 0 0 -1 0 0 -1 0 0 -1 -0 -0 -1 -0 -0 -1 -0 -0 -1 0.499999702 0.866025567 0 0.499999702 0.866025567 0 0.499999702 0.866025567 0 0.499999702 0.866025567 -0 0.499999702 0.866025567 -0 0.499999702 0.866025567 -0 -0.49999842 -0.866026282 0 -0.49999842 -0.866026282 0 -0.49999842 -0.866026282 0 -0.50000006 -0.866025388 0 -0.50000006 -0.866025388 0 -0.50000006 -0.866025388 0 -0.500000536 -0.86602509 1.95238044e-06 -0.500000536 -0.86602509 1.95238044e-06 -0.500000536 -0.86602509 1.95238044e-06 -0.49999842 -0.866026282 1.13628084e-06 -0.49999842 -0.866026282 1.13628084e-06 -0.49999842 -0.866026282 1.13628084e-06 -0.49999842 -0.866026282 -0 -0.49999842 -0.866026282 -0 -0.49999842 -0.866026282 -0 0.866025567 -0.499999732 0 0.866025567 -0.499999732 0 0.866025567 -0.499999732 0 0.866025567 -0.499999732 -0 0.866025567 -0.499999732 -0 0.866025567 -0.499999732 -0 0.49999842 0.866026282 0 0.49999842 0.866026282 0 0.49999842 0.866026282 0 0.49999842 0.866026282 -0 0.49999842 0.866026282 -0 0.49999842 0.866026282 -0 0.500000536 0.86602509 0 0.500000536 0.86602509 0 0.500000536 0.86602509 0 0.499999255 0.866025865 -4.55106328e-06 0.499999255 0.866025865 -4.55106328e-06 0.499999255 0.866025865 -4.55106328e-06 0.49999842 0.866026282 -4.24062728e-06 0.49999842 0.866026282 -4.24062728e-06 0.49999842 0.866026282 -4.24062728e-06 0.866026282 -0.49999842 0 0.866026282 -0.49999842 0 0.866026282 -0.49999842 0 0.866026282 -0.49999842 -0 0.866026282 -0.49999842 -0 0.866026282 -0.49999842 -0 -0.49999842 -0.866026282 0 -0.49999842 -0.866026282 0 -0.49999842 -0.866026282 0 -0.500000656 -0.866025031 0 -0.500000656 -0.866025031 0 -0.500000656 -0.866025031 0 -0.500000536 -0.86602509 -3.20160524e-07 -0.500000536 -0.86602509 -3.20160524e-07 -0.500000536 -0.86602509 -3.20160524e-07 -0.49999842 -0.866026282 -1.13628084e-06 -0.49999842 -0.866026282 -1.13628084e-06 -0.49999842 -0.866026282 -1.13628084e-06 -0.49999842 -0.866026282 -0 -0.49999842 -0.866026282 -0 -0.49999842 -0.866026282 -0 0.866025448 -0.49999994 0 0.866025448 -0.49999994 0 0.866025448 -0.49999994 0 0.866025448 -0.49999994 -0 0.866025448 -0.49999994 -0 0.866025448 -0.49999994 -0 0.866025448 -0.49999994 0 0.866025448 -0.49999994 0 0.866025448 -0.49999994 0 0.866025448 -0.49999994 -0 0.866025448 -0.49999994 -0 0.866025448 -0.49999994 -0 0.500000477 0.86602515 0 0.500000477 0.86602515 0 0.500000477 0.86602515 0 0.500000477 0.86602515 -0 0.500000477 0.86602515 -0 0.500000477 0.86602515 -0 0.499999672 0.866025627 0 0.499999672 0.866025627 0 0.499999672 0.866025627 0 0.499999255 0.866025865 -1.44671208e-06 0.499999255 0.866025865 -1.44671208e-06 0.499999255 0.866025865 -1.44671208e-06 0.500000477 0.86602515 -1.91236063e-06 0.500000477 0.86602515 -1.91236063e-06 0.500000477 0.86602515 -1.91236063e-06 0.866026282 -0.49999842 0 0.866026282 -0.49999842 0 0.866026282 -0.49999842 0 0.866026282 -0.49999842 -0 0.866026282 -0.49999842 -0 0.866026282 -0.49999842 -0 -0.499993324 -0.866029263 -0 -0.499993324 -0.866029263 -0 -0.499993324 -0.866029263 -0 -0.499993324 -0.866029263 -0 -0.499993324 -0.866029263 -0 -0.499993324 -0.866029263 -0 -0.500000238 -0.866025269 0 -0.500000238 -0.866025269 0 -0.500000238 -0.866025269 0 -0.500000238 -0.866025269 0 -0.500000238 -0.866025269 0 -0.500000238 -0.866025269 0 0.500000238 0.866025269 -0 0.500000238 0.866025269 -0 0.500000238 0.866025269 -0 0.500000238 0.866025269 -0 0.500000238 0.866025269 -0 0.500000238 0.866025269 -0 0 0 -1 0 0 -1 0 0 -1 -0 -0 -1 -0 -0 -1 -0 -0 -1 0 0 -1 0 0 -1 0 0 -1 -0 -0 -1 -0 -0 -1 -0 -0 -1 -0.500000417 -0.86602515 -0 -0.500000417 -0.86602515 -0 -0.500000417 -0.86602515 -0 -0.500000417 -0.86602515 -0 -0.500000417 -0.86602515 -0 -0.500000417 -0.86602515 -0 -0.866025746 0.499999464 0 -0.866025746 0.499999464 0 -0.866025746 0.499999464 0 -0.866025031 0.500000656 0 -0.866025031 0.500000656 0 -0.866025031 0.500000656 0 -0.866025031 0.500000656 -0 -0.866025031 0.500000656 -0 -0.866025031 0.500000656 -0 -0.866025329 0.500000119 -1.89220131e-07 -0.866025329 0.500000119 -1.89220131e-07 -0.866025329 0.500000119 -1.89220131e-07 -0.866025329 0.500000119 -2.42447044e-07 -0.866025329 0.500000119 -2.42447044e-07 -0.866025329 0.500000119 -2.42447044e-07 -0.866025746 0.499999464 0 -0.866025746 0.499999464 0 -0.866025746 0.499999464 0 0.499999911 0.866025448 -0 0.499999911 0.866025448 -0 0.499999911 0.866025448 -0 0.499999911 0.866025448 -0 0.499999911 0.866025448 -0 0.499999911 0.866025448 -0 0 -0 1 0 -0 1 0 -0 1 0 0 1 0 0 1 0 0 1 -0 0 1 -0 0 1 -0 0 1 0 0 1 0 0 1 0 0 1 -0.50000006 -0.866025388 0 -0.50000006 -0.866025388 0 -0.50000006 -0.866025388 0 -0.50000006 -0.866025388 -0 -0.50000006 -0.866025388 -0 -0.50000006 -0.866025388 -0 0.499999911 0.866025448 0 0.499999911 0.866025448 0 0.499999911 0.866025448 0 0.49999994 0.866025448 1.19314009e-07 0.49999994 0.866025448 1.19314009e-07 0.49999994 0.866025448 1.19314009e-07 0.49999994 0.866025448 -0 0.49999994 0.866025448 -0 0.49999994 0.866025448 -0 0.49999994 0.866025448 -0 0.49999994 0.866025448 -0 0.49999994 0.866025448 -0 0.866025269 -0.500000238 0 0.866025269 -0.500000238 0 0.866025269 -0.500000238 0 0.866025269 -0.500000238 -0 0.866025269 -0.500000238 -0 0.866025269 -0.500000238 -0 -0.500005543 -0.866022229 -0 -0.500005543 -0.866022229 -0 -0.500005543 -0.866022229 -0 -0.500005543 -0.866022229 -0 -0.500005543 -0.866022229 -0 -0.500005543 -0.866022229 -0 -0.500005543 -0.866022229 0 -0.500005543 -0.866022229 0 -0.500005543 -0.866022229 0 -0.500005543 -0.866022229 0 -0.500005543 -0.866022229 0 -0.500005543 -0.866022229 0 0.866026282 -0.49999842 0 0.866026282 -0.49999842 0 0.866026282 -0.49999842 0 0.866026282 -0.49999842 -0 0.866026282 -0.49999842 -0 0.866026282 -0.49999842 -0 0.866026282 -0.49999842 0 0.866026282 -0.49999842 0 0.866026282 -0.49999842 0 0.500005543 0.866022229 -0 0.500005543 0.866022229 -0 0.500005543 0.866022229 -0 0.500005543 0.866022229 -0 0.500005543 0.866022229 -0 0.500005543 0.866022229 -0 0.866026282 -0.49999842 0 0.866026282 -0.49999842 0 0.866026282 -0.49999842 0 0.866026282 -0.49999842 -0 0.866026282 -0.49999842 -0 0.866026282 -0.49999842 -0 0.866026282 -0.49999842 0 0.866026282 -0.49999842 0 0.866026282 -0.49999842 0 -0 0 -1 -0 0 -1 -0 0 -1 -0 0 -1 -0 0 -1 -0 0 -1 -0 0 -1 -0 0 -1 -0 0 -1 0 -0 -1 0 -0 -1 0 -0 -1 0 0 -1 0 0 -1 0 0 -1 -0 0 -1 -0 0 -1 -0 0 -1 0 0 -1 0 0 -1 0 0 -1 -0 -0 -1 -0 -0 -1 -0 -0 -1 0 0 -1 0 0 -1 0 0 -1 -0 -0 -1 -0 -0 -1 -0 -0 -1 0.866026878 -0.499997437 0 0.866026878 -0.499997437 0 0.866026878 -0.499997437 0 0.866026878 -0.499997437 -0 0.866026878 -0.499997437 -0 0.866026878 -0.499997437 -0 0 0 -1 0 0 -1 0 0 -1 0 0 -1 0 0 -1 0 0 -1 -0 -0 -1 -0 -0 -1 -0 -0 -1 0 -0 -1 0 -0 -1 0 -0 -1 -0.866025031 0.500000656 0 -0.866025031 0.500000656 0 -0.866025031 0.500000656 0 -0.866025031 0.500000656 -0 -0.866025031 0.500000656 -0 -0.866025031 0.500000656 -0 0 0 1 0 0 1 0 0 1 -0 -0 1 -0 -0 1 -0 -0 1 0.866027236 -0.499996871 0 0.866027236 -0.499996871 0 0.866027236 -0.499996871 0 0.866025329 -0.500000119 0 0.866025329 -0.500000119 0 0.866025329 -0.500000119 0 0.86602664 -0.499997854 -3.17983279e-07 0.86602664 -0.499997854 -3.17983279e-07 0.86602664 -0.499997854 -3.17983279e-07 0.866027236 -0.499996871 0 0.866027236 -0.499996871 0 0.866027236 -0.499996871 0 0 -0 1 0 -0 1 0 -0 1 -0 -0 1 -0 -0 1 -0 -0 1 0.866027236 -0.499996871 0 0.866027236 -0.499996871 0 0.866027236 -0.499996871 0 0.866027236 -0.499996871 -0 0.866027236 -0.499996871 -0 0.866027236 -0.499996871 -0 0.866025329 -0.500000119 3.31237152e-06 0.866025329 -0.500000119 3.31237152e-06 0.866025329 -0.500000119 3.31237152e-06 0.86602664 -0.499997854 -0 0.86602664 -0.499997854 -0 0.86602664 -0.499997854 -0 0.500000596 0.866025031 -0 0.500000596 0.866025031 -0 0.500000596 0.866025031 -0 0.500000596 0.866025031 -0 0.500000596 0.866025031 -0 0.500000596 0.866025031 -0 0.866025329 -0.500000179 -3.29589483e-07 0.866025329 -0.500000179 -3.29589483e-07 0.866025329 -0.500000179 -3.29589483e-07 0.866025865 -0.499999255 0 0.866025865 -0.499999255 0 0.866025865 -0.499999255 0 0.866025388 -0.50000006 3.23642922e-07 0.866025388 -0.50000006 3.23642922e-07 0.866025388 -0.50000006 3.23642922e-07 0.866025031 -0.500000656 -0 0.866025031 -0.500000656 -0 0.866025031 -0.500000656 -0 0.866025031 -0.500000656 0 0.866025031 -0.500000656 0 0.866025031 -0.500000656 0 0.866025388 -0.50000006 0 0.866025388 -0.50000006 0 0.866025388 -0.50000006 0 0.866024911 -0.500000834 2.32189586e-06 0.866024911 -0.500000834 2.32189586e-06 0.866024911 -0.500000834 2.32189586e-06 0.866024911 -0.500000834 0 0.866024911 -0.500000834 0 0.866024911 -0.500000834 0 0.866024911 -0.500000834 -0 0.866024911 -0.500000834 -0 0.866024911 -0.500000834 -0 0.866025448 -0.499999911 -2.74435774e-06 0.866025448 -0.499999911 -2.74435774e-06 0.866025448 -0.499999911 -2.74435774e-06 0.866025865 -0.499999166 2.1961695e-07 0.866025865 -0.499999166 2.1961695e-07 0.866025865 -0.499999166 2.1961695e-07 0.866025865 -0.499999166 0 0.866025865 -0.499999166 0 0.866025865 -0.499999166 0 0.866025865 -0.499999166 -0 0.866025865 -0.499999166 -0 0.866025865 -0.499999166 -0 0.866025388 -0.50000006 0 0.866025388 -0.50000006 0 0.866025388 -0.50000006 0 0.866025209 -0.500000358 -2.62678014e-07 0.866025209 -0.500000358 -2.62678014e-07 0.866025209 -0.500000358 -2.62678014e-07 0.866025329 -0.500000119 5.68858013e-07 0.866025329 -0.500000119 5.68858013e-07 0.866025329 -0.500000119 5.68858013e-07 0.866025329 -0.500000179 8.07963602e-07 0.866025329 -0.500000179 8.07963602e-07 0.866025329 -0.500000179 8.07963602e-07 0.866025984 -0.499998957 -9.25971506e-07 0.866025984 -0.499998957 -9.25971506e-07 0.866025984 -0.499998957 -9.25971506e-07 0.866025865 -0.499999225 -2.48453063e-08 0.866025865 -0.499999225 -2.48453063e-08 0.866025865 -0.499999225 -2.48453063e-08 0.866025865 -0.499999255 0 0.866025865 -0.499999255 0 0.866025865 -0.499999255 0 0.500000119 0.866025329 0 0.500000119 0.866025329 0 0.500000119 0.866025329 0 0.499999911 0.866025448 0 0.499999911 0.866025448 0 0.499999911 0.866025448 0 0.500000775 0.866024971 0 0.500000775 0.866024971 0 0.500000775 0.866024971 0 0.500000656 0.866025031 -8.23286186e-08 0.500000656 0.866025031 -8.23286186e-08 0.500000656 0.866025031 -8.23286186e-08 0.500000596 0.86602509 -0 0.500000596 0.86602509 -0 0.500000596 0.86602509 -0 0.500000596 0.86602509 -0 0.500000596 0.86602509 -0 0.500000596 0.86602509 -0 0.499994755 0.866028428 -0 0.499994755 0.866028428 -0 0.499994755 0.866028428 -0 0.500000179 0.866025269 -1.25471013e-06 0.500000179 0.866025269 -1.25471013e-06 0.500000179 0.866025269 -1.25471013e-06 0.49999994 0.866025448 -1.59144179e-07 0.49999994 0.866025448 -1.59144179e-07 0.49999994 0.866025448 -1.59144179e-07 0.499997884 0.86602664 1.86518548e-06 0.499997884 0.86602664 1.86518548e-06 0.499997884 0.86602664 1.86518548e-06 0.499999762 0.866025507 -1.1799743e-07 0.499999762 0.866025507 -1.1799743e-07 0.499999762 0.866025507 -1.1799743e-07 0.500000119 0.866025329 -1.15310158e-07 0.500000119 0.866025329 -1.15310158e-07 0.500000119 0.866025329 -1.15310158e-07 0.49999994 0.866025448 -0 0.49999994 0.866025448 -0 0.49999994 0.866025448 -0 0.49999994 0.866025448 -0 0.49999994 0.866025448 -0 0.49999994 0.866025448 -0 0 -0 1 0 -0 1 0 -0 1 0 0 1 0 0 1 0 0 1 0 -0 1 0 -0 1 0 -0 1 0 -0 1 0 -0 1 0 -0 1 0 -0 1 0 -0 1 0 -0 1 0 -0 1 0 -0 1 0 -0 1 -0.8660236 0.500003159 0 -0.8660236 0.500003159 0 -0.8660236 0.500003159 0 -0.866026163 0.499998659 0 -0.866026163 0.499998659 0 -0.866026163 0.499998659 0 -0.8660236 0.500003159 0 -0.8660236 0.500003159 0 -0.8660236 0.500003159 0 -0.8660236 0.500003159 -0 -0.8660236 0.500003159 -0 -0.8660236 0.500003159 -0 -0.8660236 0.500003159 0 -0.8660236 0.500003159 0 -0.8660236 0.500003159 0 -0.8660236 0.500003159 0 -0.8660236 0.500003159 0 -0.8660236 0.500003159 0 -0.8660236 0.500003159 -0 -0.8660236 0.500003159 -0 -0.8660236 0.500003159 -0 -0.866025388 0.50000006 9.7091845e-07 -0.866025388 0.50000006 9.7091845e-07 -0.866025388 0.50000006 9.7091845e-07 -0.86602515 0.500000417 3.27783368e-07 -0.86602515 0.500000417 3.27783368e-07 -0.86602515 0.500000417 3.27783368e-07 -0.866025805 0.499999285 0 -0.866025805 0.499999285 0 -0.866025805 0.499999285 0 -0.86602664 0.499997854 -1.79876338e-06 -0.86602664 0.499997854 -1.79876338e-06 -0.86602664 0.499997854 -1.79876338e-06 -0.866025865 0.499999166 0 -0.866025865 0.499999166 0 -0.866025865 0.499999166 0 -0.866025865 0.499999166 -0 -0.866025865 0.499999166 -0 -0.866025865 0.499999166 -0 -0.866025865 0.499999166 2.34580261e-06 -0.866025865 0.499999166 2.34580261e-06 -0.866025865 0.499999166 2.34580261e-06 -0.866025329 0.500000179 -3.02985973e-06 -0.866025329 0.500000179 -3.02985973e-06 -0.866025329 0.500000179 -3.02985973e-06 -0.866025388 0.50000006 -1.65504673e-06 -0.866025388 0.50000006 -1.65504673e-06 -0.866025388 0.50000006 -1.65504673e-06 -0.8660236 0.500003159 1.49374318e-05 -0.8660236 0.500003159 1.49374318e-05 -0.8660236 0.500003159 1.49374318e-05 -0.866026163 0.499998659 -4.5461743e-06 -0.866026163 0.499998659 -4.5461743e-06 -0.866026163 0.499998659 -4.5461743e-06 -0.86602515 0.500000417 3.68182782e-06 -0.86602515 0.500000417 3.68182782e-06 -0.86602515 0.500000417 3.68182782e-06 -0.866025329 0.500000179 1.35602829e-06 -0.866025329 0.500000179 1.35602829e-06 -0.866025329 0.500000179 1.35602829e-06 -0.866025865 0.499999166 0 -0.866025865 0.499999166 0 -0.866025865 0.499999166 0 -0.866025865 0.499999166 -0 -0.866025865 0.499999166 -0 -0.866025865 0.499999166 -0 -0.866025031 0.500000656 0 -0.866025031 0.500000656 0 -0.866025031 0.500000656 0 -0.866025507 0.499999881 -7.37509879e-07 -0.866025507 0.499999881 -7.37509879e-07 -0.866025507 0.499999881 -7.37509879e-07 -0.866025805 0.499999285 0 -0.866025805 0.499999285 0 -0.866025805 0.499999285 0 -0.866025329 0.500000119 1.43017928e-06 -0.866025329 0.500000119 1.43017928e-06 -0.866025329 0.500000119 1.43017928e-06 -0.866025865 0.499999255 9.90216087e-09 -0.866025865 0.499999255 9.90216087e-09 -0.866025865 0.499999255 9.90216087e-09 -0.866025865 0.499999166 0 -0.866025865 0.499999166 0 -0.866025865 0.499999166 0 -0.866025865 0.499999166 -0 -0.866025865 0.499999166 -0 -0.866025865 0.499999166 -0 -0.866025507 0.499999881 -7.13937254e-07 -0.866025507 0.499999881 -7.13937254e-07 -0.866025507 0.499999881 -7.13937254e-07 -0.499999583 -0.866025627 0 -0.499999583 -0.866025627 0 -0.499999583 -0.866025627 0 -0.500000596 -0.86602509 -0 -0.500000596 -0.86602509 -0 -0.500000596 -0.86602509 -0 -0.500000119 -0.866025329 -0 -0.500000119 -0.866025329 -0 -0.500000119 -0.866025329 -0 -0.500000119 -0.866025329 0 -0.500000119 -0.866025329 0 -0.500000119 -0.866025329 0 -0.499997884 -0.86602664 1.51109475e-06 -0.499997884 -0.86602664 1.51109475e-06 -0.499997884 -0.86602664 1.51109475e-06 -0.500000715 -0.866024971 -5.03582669e-07 -0.500000715 -0.866024971 -5.03582669e-07 -0.500000715 -0.866024971 -5.03582669e-07 -0.500000596 -0.86602509 -0 -0.500000596 -0.86602509 -0 -0.500000596 -0.86602509 -0 -0.500000656 -0.866025031 0 -0.500000656 -0.866025031 0 -0.500000656 -0.866025031 0 -0.500002086 -0.866024196 8.07756635e-07 -0.500002086 -0.866024196 8.07756635e-07 -0.500002086 -0.866024196 8.07756635e-07 -0.499994755 -0.866028428 5.27650627e-06 -0.499994755 -0.866028428 5.27650627e-06 -0.499994755 -0.866028428 5.27650627e-06 -0.49999997 -0.866025448 0 -0.49999997 -0.866025448 0 -0.49999997 -0.866025448 0 -0.499999404 -0.866025746 7.04400236e-07 -0.499999404 -0.866025746 7.04400236e-07 -0.499999404 -0.866025746 7.04400236e-07 -0.499998599 -0.866026223 1.19460617e-06 -0.499998599 -0.866026223 1.19460617e-06 -0.499998599 -0.866026223 1.19460617e-06 -0.499999911 -0.866025448 0 -0.499999911 -0.866025448 0 -0.499999911 -0.866025448 0 0.866028428 -0.499994755 0 0.866028428 -0.499994755 0 0.866028428 -0.499994755 0 0.86602664 -0.499997854 1.33459594e-06 0.86602664 -0.499997854 1.33459594e-06 0.86602664 -0.499997854 1.33459594e-06 0.866025865 -0.499999166 0 0.866025865 -0.499999166 0 0.866025865 -0.499999166 0 0.866025865 -0.499999166 -0 0.866025865 -0.499999166 -0 0.866025865 -0.499999166 -0 -0.500000179 -0.866025329 0 -0.500000179 -0.866025329 0 -0.500000179 -0.866025329 0 -0.500000179 -0.866025329 -0 -0.500000179 -0.866025329 -0 -0.500000179 -0.866025329 -0 0 0 -1 0 0 -1 0 0 -1 0 -0 -1 0 -0 -1 0 -0 -1 0 0 -1 0 0 -1 0 0 -1 -0 -0 -1 -0 -0 -1 -0 -0 -1 -0.499999911 -0.866025448 0 -0.499999911 -0.866025448 0 -0.499999911 -0.866025448 0 -0.500000596 -0.866025031 -0 -0.500000596 -0.866025031 -0 -0.500000596 -0.866025031 -0 -0.500000596 -0.866025031 -0 -0.500000596 -0.866025031 -0 -0.500000596 -0.866025031 -0 -0.500000358 -0.866025209 -1.63890161e-06 -0.500000358 -0.866025209 -1.63890161e-06 -0.500000358 -0.866025209 -1.63890161e-06 0 0 -1 0 0 -1 0 0 -1 -0 -0 -1 -0 -0 -1 -0 -0 -1 -0.499999911 -0.866025448 -0 -0.499999911 -0.866025448 -0 -0.499999911 -0.866025448 -0 -0.499999911 -0.866025448 -0 -0.499999911 -0.866025448 -0 -0.499999911 -0.866025448 -0 0 0 1 0 0 1 0 0 1 -0 -0 1 -0 -0 1 -0 -0 1 0.499999911 0.866025448 -0 0.499999911 0.866025448 -0 0.499999911 0.866025448 -0 0.499999911 0.866025448 -0 0.499999911 0.866025448 -0 0.499999911 0.866025448 -0 0 0 1 0 0 1 0 0 1 -0 -0 1 -0 -0 1 -0 -0 1 0 0 -1 0 0 -1 0 0 -1 -0 -0 -1 -0 -0 -1 -0 -0 -1 0 -0 -1 0 -0 -1 0 -0 -1 -0 -0 -1 -0 -0 -1 -0 -0 -1 -0 0 -1 -0 0 -1 -0 0 -1 -0 0 -1 -0 0 -1 -0 0 -1 -0.866025031 0.500000656 0 -0.866025031 0.500000656 0 -0.866025031 0.500000656 0 -0.866025031 0.500000656 -0 -0.866025031 0.500000656 -0 -0.866025031 0.500000656 -0 -0 0 1 -0 0 1 -0 0 1 -0 -0 1 -0 -0 1 -0 -0 1 0.866025865 -0.499999166 0 0.866025865 -0.499999166 0 0.866025865 -0.499999166 0 0.866025865 -0.499999166 -0 0.866025865 -0.499999166 -0 0.866025865 -0.499999166 -0 0.866025329 -0.500000119 3.1489725e-07 0.866025329 -0.500000119 3.1489725e-07 0.866025329 -0.500000119 3.1489725e-07 0.866025746 -0.499999464 -0 0.866025746 -0.499999464 -0 0.866025746 -0.499999464 -0 0 0 1 0 0 1 0 0 1 -0 0 1 -0 0 1 -0 0 1 0.866024196 -0.500002086 0 0.866024196 -0.500002086 0 0.866024196 -0.500002086 0 0.866024196 -0.500002086 -0 0.866024196 -0.500002086 -0 0.866024196 -0.500002086 -0 -0.49999842 -0.866026282 -0 -0.49999842 -0.866026282 -0 -0.49999842 -0.866026282 -0 -0.49999842 -0.866026282 -0 -0.49999842 -0.866026282 -0 -0.49999842 -0.866026282 -0 0 0 -1 0 0 -1 0 0 -1 0 -0 -1 0 -0 -1 0 -0 -1 0 -0 -1 0 -0 -1 0 -0 -1 0 0 -1 0 0 -1 0 0 -1 0 0 -1 0 0 -1 0 0 -1 -0 -0 -1 -0 -0 -1 -0 -0 -1 0 -0 -1 0 -0 -1 0 -0 -1 -0 -0 -1 -0 -0 -1 -0 -0 -1 -0 0 -1 -0 0 -1 -0 0 -1 -0 0 -1 -0 0 -1 -0 0 -1 0.500002086 0.866024196 0 0.500002086 0.866024196 0 0.500002086 0.866024196 0 0.500002086 0.866024196 -0 0.500002086 0.866024196 -0 0.500002086 0.866024196 -0 -0 0 -1 -0 0 -1 -0 0 -1 -0 -0 -1 -0 -0 -1 -0 -0 -1 0 0 -1 0 0 -1 0 0 -1 0 -0 -1 0 -0 -1 0 -0 -1 0.500009477 0.866019964 -0 0.500009477 0.866019964 -0 0.500009477 0.866019964 -0 0.500009477 0.866019964 -0 0.500009477 0.866019964 -0 0.500009477 0.866019964 -0 0.500005543 0.866022229 0 0.500005543 0.866022229 0 0.500005543 0.866022229 0 0.500005543 0.866022229 0 0.500005543 0.866022229 0 0.500005543 0.866022229 0 </float_array>
          <technique_common>
            <accessor count="876" offset="0" source="#mesh_0-normals-array" stride="3">
              <param name="X" type="float" />
              <param name="Y" type="float" />
              <param name="Z" type="float" />
            </accessor>
          </technique_common>
        </source>
        <vertices id="mesh_0-vertices">
          <input semantic="POSITION" source="#mesh_0-positions" />
        </vertices>
        <polylist count="292" material="defaultMaterial">
          <input offset="0" semantic="VERTEX" source="#mesh_0-vertices" />
          <input offset="0" semantic="NORMAL" source="#mesh_0-normals" />
          <vcount>3 3 3 3 3 3 3 3 3 3 3 3 3 3 3 3 3 3 3 3 3 3 3 3 3 3 3 3 3 3 3 3 3 3 3 3 3 3 3 3 3 3 3 3 3 3 3 3 3 3 3 3 3 3 3 3 3 3 3 3 3 3 3 3 3 3 3 3 3 3 3 3 3 3 3 3 3 3 3 3 3 3 3 3 3 3 3 3 3 3 3 3 3 3 3 3 3 3 3 3 3 3 3 3 3 3 3 3 3 3 3 3 3 3 3 3 3 3 3 3 3 3 3 3 3 3 3 3 3 3 3 3 3 3 3 3 3 3 3 3 3 3 3 3 3 3 3 3 3 3 3 3 3 3 3 3 3 3 3 3 3 3 3 3 3 3 3 3 3 3 3 3 3 3 3 3 3 3 3 3 3 3 3 3 3 3 3 3 3 3 3 3 3 3 3 3 3 3 3 3 3 3 3 3 3 3 3 3 3 3 3 3 3 3 3 3 3 3 3 3 3 3 3 3 3 3 3 3 3 3 3 3 3 3 3 3 3 3 3 3 3 3 3 3 3 3 3 3 3 3 3 3 3 3 3 3 3 3 3 3 3 3 3 3 3 3 3 3 3 3 3 3 3 3 3 3 3 3 3 3 3 3 3 3 3 3 3 3 3 3 3 3 </vcount>
          <p>0 1 2 3 4 5 6 7 8 9 10 11 12 13 14 15 16 17 18 19 20 21 22 23 24 25 26 27 28 29 30 31 32 33 34 35 36 37 38 39 40 41 42 43 44 45 46 47 48 49 50 51 52 53 54 55 56 57 58 59 60 61 62 63 64 65 66 67 68 69 70 71 72 73 74 75 76 77 78 79 80 81 82 83 84 85 86 87 88 89 90 91 92 93 94 95 96 97 98 99 100 101 102 103 104 105 106 107 108 109 110 111 112 113 114 115 116 117 118 119 120 121 122 123 124 125 126 127 128 129 130 131 132 133 134 135 136 137 138 139 140 141 142 143 144 145 146 147 148 149 150 151 152 153 154 155 156 157 158 159 160 161 162 163 164 165 166 167 168 169 170 171 172 173 174 175 176 177 178 179 180 181 182 183 184 185 186 187 188 189 190 191 192 193 194 195 196 197 198 199 200 201 202 203 204 205 206 207 208 209 210 211 212 213 214 215 216 217 218 219 220 221 222 223 224 225 226 227 228 229 230 231 232 233 234 235 236 237 238 239 240 241 242 243 244 245 246 247 248 249 250 251 252 253 254 255 256 257 258 259 260 261 262 263 264 265 266 267 268 269 270 271 272 273 274 275 276 277 278 279 280 281 282 283 284 285 286 287 288 289 290 291 292 293 294 295 296 297 298 299 300 301 302 303 304 305 306 307 308 309 310 311 312 313 314 315 316 317 318 319 320 321 322 323 324 325 326 327 328 329 330 331 332 333 334 335 336 337 338 339 340 341 342 343 344 345 346 347 348 349 350 351 352 353 354 355 356 357 358 359 360 361 362 363 364 365 366 367 368 369 370 371 372 373 374 375 376 377 378 379 380 381 382 383 384 385 386 387 388 389 390 391 392 393 394 395 396 397 398 399 400 401 402 403 404 405 406 407 408 409 410 411 412 413 414 415 416 417 418 419 420 421 422 423 424 425 426 427 428 429 430 431 432 433 434 435 436 437 438 439 440 441 442 443 444 445 446 447 448 449 450 451 452 453 454 455 456 457 458 459 460 461 462 463 464 465 466 467 468 469 470 471 472 473 474 475 476 477 478 479 480 481 482 483 484 485 486 487 488 489 490 491 492 493 494 495 496 497 498 499 500 501 502 503 504 505 506 507 508 509 510 511 512 513 514 515 516 517 518 519 520 521 522 523 524 525 526 527 528 529 530 531 532 533 534 535 536 537 538 539 540 541 542 543 544 545 546 547 548 549 550 551 552 553 554 555 556 557 558 559 560 561 562 563 564 565 566 567 568 569 570 571 572 573 574 575 576 577 578 579 580 581 582 583 584 585 586 587 588 589 590 591 592 593 594 595 596 597 598 599 600 601 602 603 604 605 606 607 608 609 610 611 612 613 614 615 616 617 618 619 620 621 622 623 624 625 626 627 628 629 630 631 632 633 634 635 636 637 638 639 640 641 642 643 644 645 646 647 648 649 650 651 652 653 654 655 656 657 658 659 660 661 662 663 664 665 666 667 668 669 670 671 672 673 674 675 676 677 678 679 680 681 682 683 684 685 686 687 688 689 690 691 692 693 694 695 696 697 698 699 700 701 702 703 704 705 706 707 708 709 710 711 712 713 714 715 716 717 718 719 720 721 722 723 724 725 726 727 728 729 730 731 732 733 734 735 736 737 738 739 740 741 742 743 744 745 746 747 748 749 750 751 752 753 754 755 756 757 758 759 760 761 762 763 764 765 766 767 768 769 770 771 772 773 774 775 776 777 778 779 780 781 782 783 784 785 786 787 788 789 790 791 792 793 794 795 796 797 798 799 800 801 802 803 804 805 806 807 808 809 810 811 812 813 814 815 816 817 818 819 820 821 822 823 824 825 826 827 828 829 830 831 832 833 834 835 836 837 838 839 840 841 842 843 844 845 846 847 848 849 850 851 852 853 854 855 856 857 858 859 860 861 862 863 864 865 866 867 868 869 870 871 872 873 874 875 </p>
        </polylist>
      </mesh>
    </geometry>
  </library_geometries>
  <library_controllers>
  </library_controllers>
  <library_visual_scenes>
    <visual_scene id="_ySTL_BINARY_" name="&lt;STL_BINARY&gt;">
      <node id="node" name="" type="NODE">
        <matrix sid="matrix">1 0 0 0 0 1 0 0 0 0 1 0 0 0 0 1</matrix>
        <instance_geometry url="#mesh_0">
          <bind_material>
            <technique_common>
              <instance_material symbol="defaultMaterial" target="#DefaultMaterial">
              </instance_material>
            </technique_common>
          </bind_material>
        </instance_geometry>
      </node>
    </visual_scene>
  </library_visual_scenes>
  <scene>
    <instance_visual_scene url="#_ySTL_BINARY_" />
  </scene>
</COLLADA>
