<?xml version="1.0" encoding="UTF-8" standalone="no" ?>
<COLLADA xmlns="http://www.collada.org/2005/11/COLLADASchema" version="1.4.1">
  <asset>
    <contributor>
      <author>Assimp</author>
      <authoring_tool>Assimp Exporter</authoring_tool>
    </contributor>
    <created>2025-12-07T16:35:05</created>
    <modified>2025-12-07T16:35:05</modified>
    <unit name="meter" meter="1" />
    <up_axis>Y_UP</up_axis>
  </asset>
  <library_images>
  </library_images>
  <library_effects>
    <effect id="DefaultMaterial-fx" name="DefaultMaterial">
      <profile_COMMON>
        <technique sid="standard">
          <phong>
            <ambient>
              <color sid="ambient">0.0500000007   0.0500000007   0.0500000007   1</color>
            </ambient>
            <diffuse>
              <color sid="diffuse">1   1   1   1</color>
            </diffuse>
            <specular>
              <color sid="specular">1   1   1   1</color>
            </specular>
          </phong>
        </technique>
      </profile_COMMON>
    </effect>
  </library_effects>
  <library_materials>
    <material id="DefaultMaterial" name="DefaultMaterial">
      <instance_effect url="#DefaultMaterial-fx"/>
    </material>
  </library_materials>
  <library_geometries>
    <geometry id="mesh_0" name="" >
      <mesh>
        <source id="mesh_0-positions" name="mesh_0-positions">
          <float_array id="mesh_0-positions-array" count="2412"> 0.0156500004 0.00150000001 0.0102249999 0.0156500004 0.00179999997 0.0102249999 0.0156500004 0.00150000001 0.0100250002 0.0156500004 0.00179999997 0.0102249999 0.0156500004 0.00179999997 0.0100250002 0.0156500004 0.00150000001 0.0100250002 0.0165500008 0.00179999997 0.0100250002 0.0156500004 0.00179999997 0.0100250002 0.0165500008 0.00179999997 0.0102249999 0.0156500004 0.00179999997 0.0100250002 0.0156500004 0.00179999997 0.0102249999 0.0165500008 0.00179999997 0.0102249999 0.0165500008 0.00255000009 0.0102249999 0.0165500008 0.00255000009 0.0100250002 0.0165500008 0.00179999997 0.0102249999 0.0165500008 0.00255000009 0.0100250002 0.0165500008 0.00179999997 0.0100250002 0.0165500008 0.00179999997 0.0102249999 0.0166500006 0.00150000001 0.0102249999 0.0166500006 0.00150000001 0.0100250002 0.0169500001 0.00179999997 0.0102249999 0.0166500006 0.00150000001 0.0100250002 0.0169500001 0.00179999997 0.0100250002 0.0169500001 0.00179999997 0.0102249999 0.0166500006 0.00150000001 0.0114749996 0.0166500006 0.00150000001 0.0112749999 0.0169500001 0.00179999997 0.0114749996 0.0166500006 0.00150000001 0.0112749999 0.0169500001 0.00179999997 0.0112749999 0.0169500001 0.00179999997 0.0114749996 0.0165500008 0.00255000009 0.0114749996 0.0165500008 0.00255000009 0.0112749999 0.0165500008 0.00179999997 0.0114749996 0.0165500008 0.00255000009 0.0112749999 0.0165500008 0.00179999997 0.0112749999 0.0165500008 0.00179999997 0.0114749996 0.0165500008 0.00179999997 0.0112749999 0.0156500004 0.00179999997 0.0112749999 0.0165500008 0.00179999997 0.0114749996 0.0156500004 0.00179999997 0.0112749999 0.0156500004 0.00179999997 0.0114749996 0.0165500008 0.00179999997 0.0114749996 0.0156500004 0.00150000001 0.0114749996 0.0156500004 0.00179999997 0.0114749996 0.0156500004 0.00150000001 0.0112749999 0.0156500004 0.00179999997 0.0114749996 0.0156500004 0.00179999997 0.0112749999 0.0156500004 0.00150000001 0.0112749999 0.0156500004 0.00150000001 0.0114749996 0.0156500004 0.00150000001 0.0112749999 0.0166500006 0.00150000001 0.0114749996 0.0156500004 0.00150000001 0.0112749999 0.0166500006 0.00150000001 0.0112749999 0.0166500006 0.00150000001 0.0114749996 0.0165500008 0.00255000009 0.0114749996 0.0165500008 0.00179999997 0.0114749996 0.0169500001 0.00255000009 0.0114749996 0.0165500008 0.00179999997 0.0114749996 0.0169500001 0.00179999997 0.0114749996 0.0169500001 0.00255000009 0.0114749996 0.0156500004 0.00179999997 0.0114749996 0.0156500004 0.00150000001 0.0114749996 0.0165500008 0.00179999997 0.0114749996 0.0156500004 0.00150000001 0.0114749996 0.0166500006 0.00150000001 0.0114749996 0.0165500008 0.00179999997 0.0114749996 0.0165500008 0.00179999997 0.0114749996 0.0166500006 0.00150000001 0.0114749996 0.0169500001 0.00179999997 0.0114749996 0.0169500001 0.00255000009 0.0136249997 0.0169500001 0.00255000009 0.0114749996 0.0169500001 0.00179999997 0.0136249997 0.0169500001 0.00255000009 0.0114749996 0.0169500001 0.00179999997 0.0114749996 0.0169500001 0.00179999997 0.0136249997 0.0171000008 0.00179999997 0.0136249997 0.0171000008 0.00179999997 0.00787500013 0.0171000008 0.00159999996 0.0136249997 0.0171000008 0.00179999997 0.00787500013 0.0171000008 0.00159999996 0.00787500013 0.0171000008 0.00159999996 0.0136249997 0.0182499997 0.00219999999 0.00837500021 0.0183000006 0.00219999999 0.00837500021 0.0182499997 0.00159999996 0.00837500021 0.0183000006 0.00219999999 0.00837500021 0.0183000006 0.00159999996 0.00837500021 0.0182499997 0.00159999996 0.00837500021 0.0182499997 0.00159999996 0.00837500021 0.0182499997 0.00159999996 0.00787500013 0.0182499997 0.00219999999 0.00837500021 0.0182499997 0.00159999996 0.00787500013 0.0182499997 0.00219999999 0.00787500013 0.0182499997 0.00219999999 0.00837500021 0.0198500007 0.00355000002 0.00787500013 0.0205000006 0.00355000002 0.00787500013 0.0198500007 0.00355000002 0.00817499962 0.0205000006 0.00355000002 0.00787500013 0.0205000006 0.00355000002 0.00817499962 0.0198500007 0.00355000002 0.00817499962 0.0198500007 0.00219999999 0.00787500013 0.0198500007 0.00355000002 0.00787500013 0.0198500007 0.00219999999 0.00817499962 0.0198500007 0.00355000002 0.00787500013 0.0198500007 0.00355000002 0.00817499962 0.0198500007 0.00219999999 0.00817499962 0.0183000006 0.00219999999 0.00837500021 0.0182499997 0.00219999999 0.00837500021 0.0183000006 0.00219999999 0.00817499962 0.0182499997 0.00219999999 0.00837500021 0.0182499997 0.00219999999 0.00787500013 0.0183000006 0.00219999999 0.00817499962 0.0183000006 0.00219999999 0.00817499962 0.0182499997 0.00219999999 0.00787500013 0.0198500007 0.00219999999 0.00817499962 0.0182499997 0.00219999999 0.00787500013 0.0198500007 0.00219999999 0.00787500013 0.0198500007 0.00219999999 0.00817499962 0.0183000006 0.00219999999 0.00837500021 0.0183000006 0.00219999999 0.00817499962 0.0183000006 0.00159999996 0.00837500021 0.0183000006 0.00219999999 0.00817499962 0.0183000006 0.00150000001 0.00817499962 0.0183000006 0.00159999996 0.00837500021 0.0183000006 0.00159999996 0.00837500021 0.0183000006 0.00150000001 0.00817499962 0.0183000006 0.00150000001 0.00837500021 0.0183000006 0.00150000001 0.00817499962 0.0203000009 0.00150000001 0.00817499962 0.0183000006 0.00150000001 0.00837500021 0.0203000009 0.00150000001 0.00817499962 0.0203000009 0.00150000001 0.00837500021 0.0183000006 0.00150000001 0.00837500021 0.0183000006 0.00150000001 0.00837500021 0.0203000009 0.00150000001 0.00837500021 0.0183000006 0.00159999996 0.00837500021 0.0203000009 0.00150000001 0.00837500021 0.0203000009 0.00159999996 0.00837500021 0.0183000006 0.00159999996 0.00837500021 0.0198500007 0.00355000002 0.0136249997 0.0198500007 0.00355000002 0.0133250002 0.0205000006 0.00355000002 0.0136249997 0.0198500007 0.00355000002 0.0133250002 0.0205000006 0.00355000002 0.0133250002 0.0205000006 0.00355000002 0.0136249997 0.0183000006 0.00150000001 0.0131249996 0.0203000009 0.00150000001 0.0131249996 0.0183000006 0.00150000001 0.0133250002 0.0203000009 0.00150000001 0.0131249996 0.0203000009 0.00150000001 0.0133250002 0.0183000006 0.00150000001 0.0133250002 0.0183000006 0.00150000001 0.0133250002 0.0203000009 0.00150000001 0.0133250002 0.0203000009 0.00159999996 0.0133250002 0.0205000006 0.00355000002 0.0133250002 0.0198500007 0.00355000002 0.0133250002 0.0205000006 0.00159999996 0.0133250002 0.0198500007 0.00355000002 0.0133250002 0.0198500007 0.00219999999 0.0133250002 0.0205000006 0.00159999996 0.0133250002 0.0205000006 0.00159999996 0.0133250002 0.0198500007 0.00219999999 0.0133250002 0.0203000009 0.00159999996 0.0133250002 0.0198500007 0.00219999999 0.0133250002 0.0183000006 0.00219999999 0.0133250002 0.0203000009 0.00159999996 0.0133250002 0.0203000009 0.00159999996 0.0133250002 0.0183000006 0.00219999999 0.0133250002 0.0183000006 0.00150000001 0.0133250002 0.0198500007 0.00219999999 0.0136249997 0.0198500007 0.00219999999 0.0133250002 0.0198500007 0.00355000002 0.0136249997 0.0198500007 0.00219999999 0.0133250002 0.0198500007 0.00355000002 0.0133250002 0.0198500007 0.00355000002 0.0136249997 0.0182499997 0.00219999999 0.0131249996 0.0183000006 0.00219999999 0.0131249996 0.0183000006 0.00219999999 0.0133250002 0.0198500007 0.00219999999 0.0133250002 0.0198500007 0.00219999999 0.0136249997 0.0183000006 0.00219999999 0.0133250002 0.0198500007 0.00219999999 0.0136249997 0.0182499997 0.00219999999 0.0136249997 0.0183000006 0.00219999999 0.0133250002 0.0183000006 0.00219999999 0.0133250002 0.0182499997 0.00219999999 0.0136249997 0.0182499997 0.00219999999 0.0131249996 0.0182499997 0.00219999999 0.0131249996 0.0182499997 0.00219999999 0.0136249997 0.0182499997 0.00159999996 0.0131249996 0.0182499997 0.00219999999 0.0136249997 0.0182499997 0.00159999996 0.0136249997 0.0182499997 0.00159999996 0.0131249996 0.0182499997 0.00219999999 0.0131249996 0.0182499997 0.00159999996 0.0131249996 0.0183000006 0.00219999999 0.0131249996 0.0182499997 0.00159999996 0.0131249996 0.0183000006 0.00159999996 0.0131249996 0.0183000006 0.00219999999 0.0131249996 0.0183000006 0.00150000001 0.0131249996 0.0183000006 0.00150000001 0.0133250002 0.0183000006 0.00159999996 0.0131249996 0.0183000006 0.00150000001 0.0133250002 0.0183000006 0.00219999999 0.0133250002 0.0183000006 0.00159999996 0.0131249996 0.0183000006 0.00159999996 0.0131249996 0.0183000006 0.00219999999 0.0133250002 0.0183000006 0.00219999999 0.0131249996 0.0183000006 0.00159999996 0.0131249996 0.0203000009 0.00159999996 0.0131249996 0.0183000006 0.00150000001 0.0131249996 0.0203000009 0.00159999996 0.0131249996 0.0203000009 0.00150000001 0.0131249996 0.0183000006 0.00150000001 0.0131249996 0.0203000009 0.00159999996 0.00817499962 0.0203000009 0.00159999996 0.00837500021 0.0203000009 0.00150000001 0.00817499962 0.0203000009 0.00159999996 0.00837500021 0.0203000009 0.00150000001 0.00837500021 0.0203000009 0.00150000001 0.00817499962 0.0203000009 0.00150000001 0.0133250002 0.0203000009 0.00150000001 0.0131249996 0.0203000009 0.00159999996 0.0133250002 0.0203000009 0.00150000001 0.0131249996 0.0203000009 0.00159999996 0.0131249996 0.0203000009 0.00159999996 0.0133250002 0.0198500007 0.00219999999 0.00817499962 0.0198500007 0.00355000002 0.00817499962 0.0205000006 0.00355000002 0.00817499962 0.0183000006 0.00150000001 0.00817499962 0.0183000006 0.00219999999 0.00817499962 0.0198500007 0.00219999999 0.00817499962 0.0203000009 0.00150000001 0.00817499962 0.0183000006 0.00150000001 0.00817499962 0.0203000009 0.00159999996 0.00817499962 0.0183000006 0.00150000001 0.00817499962 0.0198500007 0.00219999999 0.00817499962 0.0203000009 0.00159999996 0.00817499962 0.0203000009 0.00159999996 0.00817499962 0.0198500007 0.00219999999 0.00817499962 0.0205000006 0.00159999996 0.00817499962 0.0198500007 0.00219999999 0.00817499962 0.0205000006 0.00355000002 0.00817499962 0.0205000006 0.00159999996 0.00817499962 0.0182499997 0.00159999996 0.0131249996 0.0182499997 0.00159999996 0.0136249997 0.0171000008 0.00159999996 0.0136249997 0.0205000006 0.00159999996 0.00817499962 0.0205000006 0.00159999996 0.0133250002 0.0203000009 0.00159999996 0.0131249996 0.0205000006 0.00159999996 0.0133250002 0.0203000009 0.00159999996 0.0133250002 0.0203000009 0.00159999996 0.0131249996 0.0171000008 0.00159999996 0.00787500013 0.0182499997 0.00159999996 0.00787500013 0.0182499997 0.00159999996 0.00837500021 0.0171000008 0.00159999996 0.0136249997 0.0171000008 0.00159999996 0.00787500013 0.0182499997 0.00159999996 0.0131249996 0.0171000008 0.00159999996 0.00787500013 0.0182499997 0.00159999996 0.00837500021 0.0182499997 0.00159999996 0.0131249996 0.0182499997 0.00159999996 0.0131249996 0.0182499997 0.00159999996 0.00837500021 0.0183000006 0.00159999996 0.0131249996 0.0182499997 0.00159999996 0.00837500021 0.0183000006 0.00159999996 0.00837500021 0.0183000006 0.00159999996 0.0131249996 0.0183000006 0.00159999996 0.0131249996 0.0183000006 0.00159999996 0.00837500021 0.0203000009 0.00159999996 0.0131249996 0.0183000006 0.00159999996 0.00837500021 0.0203000009 0.00159999996 0.00837500021 0.0203000009 0.00159999996 0.0131249996 0.0203000009 0.00159999996 0.0131249996 0.0203000009 0.00159999996 0.00837500021 0.0205000006 0.00159999996 0.00817499962 0.0203000009 0.00159999996 0.00837500021 0.0203000009 0.00159999996 0.00817499962 0.0205000006 0.00159999996 0.00817499962 0.0186999999 0.00405000011 0.011225 0.0186999999 0.00444999989 0.011225 0.0186999999 0.00405000011 0.0102749998 0.0186999999 0.00444999989 0.011225 0.0186999999 0.00444999989 0.0102749998 0.0186999999 0.00405000011 0.0102749998 0.0186999999 0.00444999989 0.011225 0.0197000001 0.00444999989 0.011225 0.0186999999 0.00444999989 0.0102749998 0.0197000001 0.00444999989 0.011225 0.0197000001 0.00444999989 0.0102749998 0.0186999999 0.00444999989 0.0102749998 0.0197000001 0.00405000011 0.011225 0.0197000001 0.00444999989 0.011225 0.0186999999 0.00405000011 0.011225 0.0197000001 0.00444999989 0.011225 0.0186999999 0.00444999989 0.011225 0.0186999999 0.00405000011 0.011225 0.0197000001 0.00444999989 0.011225 0.0197000001 0.00405000011 0.011225 0.0197000001 0.00444999989 0.0102749998 0.0197000001 0.00405000011 0.011225 0.0197000001 0.00405000011 0.0102749998 0.0197000001 0.00444999989 0.0102749998 0.0197000001 0.00444999989 0.0102749998 0.0197000001 0.00405000011 0.0102749998 0.0186999999 0.00444999989 0.0102749998 0.0197000001 0.00405000011 0.0102749998 0.0186999999 0.00405000011 0.0102749998 0.0186999999 0.00444999989 0.0102749998 0.0183499996 0.00524999993 0.0131249996 0.0183499996 0.00584999984 0.0131249996 0.0170499999 0.00524999993 0.0131249996 0.0183499996 0.00584999984 0.0131249996 0.0164500009 0.00584999984 0.0131249996 0.0170499999 0.00524999993 0.0131249996 0.0170499999 0.00524999993 0.0131249996 0.0164500009 0.00584999984 0.0131249996 0.0170499999 0.00359999994 0.0131249996 0.0164500009 0.00584999984 0.0131249996 0.0164500009 0.00359999994 0.0131249996 0.0170499999 0.00359999994 0.0131249996 0.0170499999 0.00359999994 0.0131249996 0.0170499999 0.00359999994 0.0136249997 0.0170499999 0.00524999993 0.0131249996 0.0170499999 0.00359999994 0.0136249997 0.0170499999 0.00524999993 0.0136249997 0.0170499999 0.00524999993 0.0131249996 0.0170499999 0.00524999993 0.0131249996 0.0170499999 0.00524999993 0.0136249997 0.0183499996 0.00524999993 0.0131249996 0.0170499999 0.00524999993 0.0136249997 0.0183499996 0.00524999993 0.0136249997 0.0183499996 0.00524999993 0.0131249996 0.0183499996 0.00524999993 0.0131249996 0.0183499996 0.00524999993 0.0136249997 0.0183499996 0.00584999984 0.0131249996 0.0183499996 0.00524999993 0.0136249997 0.0183499996 0.00584999984 0.0136249997 0.0183499996 0.00584999984 0.0131249996 0.0205000006 0.00584999984 0.0136249997 0.0183499996 0.00584999984 0.0136249997 0.0183499996 0.00524999993 0.0136249997 0.0169500001 0.00255000009 0.0136249997 0.0169500001 0.00179999997 0.0136249997 0.0171000008 0.00179999997 0.0136249997 0.0182499997 0.00219999999 0.0136249997 0.0198500007 0.00219999999 0.0136249997 0.0170499999 0.00359999994 0.0136249997 0.0198500007 0.00219999999 0.0136249997 0.0198500007 0.00355000002 0.0136249997 0.0170499999 0.00359999994 0.0136249997 0.0170499999 0.00359999994 0.0136249997 0.0198500007 0.00355000002 0.0136249997 0.0170499999 0.00524999993 0.0136249997 0.0170499999 0.00524999993 0.0136249997 0.0198500007 0.00355000002 0.0136249997 0.0183499996 0.00524999993 0.0136249997 0.0198500007 0.00355000002 0.0136249997 0.0205000006 0.00355000002 0.0136249997 0.0183499996 0.00524999993 0.0136249997 0.0183499996 0.00524999993 0.0136249997 0.0205000006 0.00355000002 0.0136249997 0.0205000006 0.00584999984 0.0136249997 0.0164500009 0.00359999994 0.0136249997 0.0164500009 0.00255000009 0.0136249997 0.0170499999 0.00359999994 0.0136249997 0.0164500009 0.00255000009 0.0136249997 0.0169500001 0.00255000009 0.0136249997 0.0170499999 0.00359999994 0.0136249997 0.0170499999 0.00359999994 0.0136249997 0.0169500001 0.00255000009 0.0136249997 0.0182499997 0.00219999999 0.0136249997 0.0169500001 0.00255000009 0.0136249997 0.0171000008 0.00179999997 0.0136249997 0.0182499997 0.00219999999 0.0136249997 0.0182499997 0.00219999999 0.0136249997 0.0171000008 0.00179999997 0.0136249997 0.0182499997 0.00159999996 0.0136249997 0.0171000008 0.00179999997 0.0136249997 0.0171000008 0.00159999996 0.0136249997 0.0182499997 0.00159999996 0.0136249997 0.0164500009 0.00359999994 0.0131249996 0.0164500009 0.00359999994 0.0136249997 0.0170499999 0.00359999994 0.0131249996 0.0164500009 0.00359999994 0.0136249997 0.0170499999 0.00359999994 0.0136249997 0.0170499999 0.00359999994 0.0131249996 0.0164500009 0.00359999994 0.00787500013 0.0164500009 0.00255000009 0.00787500013 0.0164500009 0.00359999994 0.00837500021 0.0164500009 0.00255000009 0.00787500013 0.0164500009 0.00255000009 0.0136249997 0.0164500009 0.00359999994 0.00837500021 0.0164500009 0.00359999994 0.0136249997 0.0164500009 0.00359999994 0.0131249996 0.0164500009 0.00255000009 0.0136249997 0.0164500009 0.00359999994 0.0131249996 0.0164500009 0.00405000011 0.011775 0.0164500009 0.00255000009 0.0136249997 0.0164500009 0.00255000009 0.0136249997 0.0164500009 0.00405000011 0.011775 0.0164500009 0.00359999994 0.00837500021 0.0164500009 0.00405000011 0.011775 0.0164500009 0.00405000011 0.00972499978 0.0164500009 0.00359999994 0.00837500021 0.0164500009 0.00359999994 0.00837500021 0.0164500009 0.00405000011 0.00972499978 0.0164500009 0.00584999984 0.00837500021 0.0164500009 0.00405000011 0.00972499978 0.0164500009 0.00545000006 0.00972499978 0.0164500009 0.00584999984 0.00837500021 0.0164500009 0.00584999984 0.00837500021 0.0164500009 0.00545000006 0.00972499978 0.0164500009 0.00584999984 0.0131249996 0.0164500009 0.00545000006 0.00972499978 0.0164500009 0.00545000006 0.011775 0.0164500009 0.00584999984 0.0131249996 0.0164500009 0.00584999984 0.0131249996 0.0164500009 0.00545000006 0.011775 0.0164500009 0.00359999994 0.0131249996 0.0164500009 0.00545000006 0.011775 0.0164500009 0.00405000011 0.011775 0.0164500009 0.00359999994 0.0131249996 0.0170499999 0.00359999994 0.00787500013 0.0170499999 0.00524999993 0.00787500013 0.0183499996 0.00524999993 0.00787500013 0.0198500007 0.00355000002 0.00787500013 0.0198500007 0.00219999999 0.00787500013 0.0182499997 0.00219999999 0.00787500013 0.0205000006 0.00584999984 0.00787500013 0.0205000006 0.00355000002 0.00787500013 0.0198500007 0.00355000002 0.00787500013 0.0182499997 0.00159999996 0.00787500013 0.0171000008 0.00159999996 0.00787500013 0.0182499997 0.00219999999 0.00787500013 0.0171000008 0.00159999996 0.00787500013 0.0171000008 0.00179999997 0.00787500013 0.0182499997 0.00219999999 0.00787500013 0.0182499997 0.00219999999 0.00787500013 0.0171000008 0.00179999997 0.00787500013 0.0169500001 0.00179999997 0.00787500013 0.0164500009 0.00255000009 0.00787500013 0.0164500009 0.00359999994 0.00787500013 0.0169500001 0.00255000009 0.00787500013 0.0164500009 0.00359999994 0.00787500013 0.0170499999 0.00359999994 0.00787500013 0.0169500001 0.00255000009 0.00787500013 0.0183499996 0.00584999984 0.00787500013 0.0205000006 0.00584999984 0.00787500013 0.0183499996 0.00524999993 0.00787500013 0.0205000006 0.00584999984 0.00787500013 0.0198500007 0.00355000002 0.00787500013 0.0183499996 0.00524999993 0.00787500013 0.0183499996 0.00524999993 0.00787500013 0.0198500007 0.00355000002 0.00787500013 0.0170499999 0.00359999994 0.00787500013 0.0198500007 0.00355000002 0.00787500013 0.0182499997 0.00219999999 0.00787500013 0.0170499999 0.00359999994 0.00787500013 0.0170499999 0.00359999994 0.00787500013 0.0182499997 0.00219999999 0.00787500013 0.0169500001 0.00255000009 0.00787500013 0.0182499997 0.00219999999 0.00787500013 0.0169500001 0.00179999997 0.00787500013 0.0169500001 0.00255000009 0.00787500013 0.0169500001 0.00179999997 0.0100250002 0.0169500001 0.00179999997 0.00787500013 0.0171000008 0.00179999997 0.00787500013 0.0169500001 0.00179999997 0.0136249997 0.0169500001 0.00179999997 0.0114749996 0.0171000008 0.00179999997 0.0136249997 0.0169500001 0.00179999997 0.0114749996 0.0169500001 0.00179999997 0.0112749999 0.0171000008 0.00179999997 0.0136249997 0.0171000008 0.00179999997 0.0136249997 0.0169500001 0.00179999997 0.0112749999 0.0171000008 0.00179999997 0.00787500013 0.0169500001 0.00179999997 0.0112749999 0.0169500001 0.00179999997 0.0102249999 0.0171000008 0.00179999997 0.00787500013 0.0171000008 0.00179999997 0.00787500013 0.0169500001 0.00179999997 0.0102249999 0.0169500001 0.00179999997 0.0100250002 0.0169500001 0.00179999997 0.00787500013 0.0169500001 0.00179999997 0.0100250002 0.0169500001 0.00255000009 0.00787500013 0.0169500001 0.00179999997 0.0100250002 0.0169500001 0.00255000009 0.0100250002 0.0169500001 0.00255000009 0.00787500013 0.0165500008 0.00179999997 0.0112749999 0.0165500008 0.00255000009 0.0112749999 0.0169500001 0.00255000009 0.0112749999 0.0156500004 0.00150000001 0.0112749999 0.0156500004 0.00179999997 0.0112749999 0.0166500006 0.00150000001 0.0112749999 0.0156500004 0.00179999997 0.0112749999 0.0165500008 0.00179999997 0.0112749999 0.0166500006 0.00150000001 0.0112749999 0.0166500006 0.00150000001 0.0112749999 0.0165500008 0.00179999997 0.0112749999 0.0169500001 0.00179999997 0.0112749999 0.0165500008 0.00179999997 0.0112749999 0.0169500001 0.00255000009 0.0112749999 0.0169500001 0.00179999997 0.0112749999 0.0169500001 0.00179999997 0.0102249999 0.0169500001 0.00179999997 0.0112749999 0.0169500001 0.00255000009 0.0102249999 0.0169500001 0.00179999997 0.0112749999 0.0169500001 0.00255000009 0.0112749999 0.0169500001 0.00255000009 0.0102249999 0.0164500009 0.00255000009 0.00787500013 0.0169500001 0.00255000009 0.00787500013 0.0169500001 0.00255000009 0.0100250002 0.0169500001 0.00255000009 0.0100250002 0.0165500008 0.00255000009 0.0100250002 0.0164500009 0.00255000009 0.00787500013 0.0165500008 0.00255000009 0.0100250002 0.0165500008 0.00255000009 0.0102249999 0.0164500009 0.00255000009 0.00787500013 0.0164500009 0.00255000009 0.00787500013 0.0165500008 0.00255000009 0.0102249999 0.0164500009 0.00255000009 0.0136249997 0.0169500001 0.00255000009 0.0114749996 0.0169500001 0.00255000009 0.0136249997 0.0165500008 0.00255000009 0.0114749996 0.0169500001 0.00255000009 0.0136249997 0.0164500009 0.00255000009 0.0136249997 0.0165500008 0.00255000009 0.0114749996 0.0165500008 0.00255000009 0.0114749996 0.0164500009 0.00255000009 0.0136249997 0.0165500008 0.00255000009 0.0112749999 0.0164500009 0.00255000009 0.0136249997 0.0165500008 0.00255000009 0.0102249999 0.0165500008 0.00255000009 0.0112749999 0.0165500008 0.00255000009 0.0112749999 0.0165500008 0.00255000009 0.0102249999 0.0169500001 0.00255000009 0.0112749999 0.0165500008 0.00255000009 0.0102249999 0.0169500001 0.00255000009 0.0102249999 0.0169500001 0.00255000009 0.0112749999 0.0165500008 0.00255000009 0.0102249999 0.0165500008 0.00179999997 0.0102249999 0.0169500001 0.00255000009 0.0102249999 0.0165500008 0.00179999997 0.0102249999 0.0169500001 0.00179999997 0.0102249999 0.0169500001 0.00255000009 0.0102249999 0.0156500004 0.00179999997 0.0102249999 0.0156500004 0.00150000001 0.0102249999 0.0165500008 0.00179999997 0.0102249999 0.0156500004 0.00150000001 0.0102249999 0.0166500006 0.00150000001 0.0102249999 0.0165500008 0.00179999997 0.0102249999 0.0165500008 0.00179999997 0.0102249999 0.0166500006 0.00150000001 0.0102249999 0.0169500001 0.00179999997 0.0102249999 0.0156500004 0.00150000001 0.0102249999 0.0156500004 0.00150000001 0.0100250002 0.0166500006 0.00150000001 0.0102249999 0.0156500004 0.00150000001 0.0100250002 0.0166500006 0.00150000001 0.0100250002 0.0166500006 0.00150000001 0.0102249999 0.0165500008 0.00179999997 0.0100250002 0.0165500008 0.00255000009 0.0100250002 0.0169500001 0.00255000009 0.0100250002 0.0156500004 0.00150000001 0.0100250002 0.0156500004 0.00179999997 0.0100250002 0.0166500006 0.00150000001 0.0100250002 0.0156500004 0.00179999997 0.0100250002 0.0165500008 0.00179999997 0.0100250002 0.0166500006 0.00150000001 0.0100250002 0.0166500006 0.00150000001 0.0100250002 0.0165500008 0.00179999997 0.0100250002 0.0169500001 0.00179999997 0.0100250002 0.0165500008 0.00179999997 0.0100250002 0.0169500001 0.00255000009 0.0100250002 0.0169500001 0.00179999997 0.0100250002 0.0205000006 0.00584999984 0.00787500013 0.0183499996 0.00584999984 0.00787500013 0.0205000006 0.00584999984 0.0136249997 0.0183499996 0.00584999984 0.00787500013 0.0183499996 0.00584999984 0.00837500021 0.0205000006 0.00584999984 0.0136249997 0.0183499996 0.00584999984 0.0136249997 0.0205000006 0.00584999984 0.0136249997 0.0183499996 0.00584999984 0.0131249996 0.0205000006 0.00584999984 0.0136249997 0.0183499996 0.00584999984 0.00837500021 0.0183499996 0.00584999984 0.0131249996 0.0183499996 0.00584999984 0.0131249996 0.0183499996 0.00584999984 0.00837500021 0.0164500009 0.00584999984 0.0131249996 0.0183499996 0.00584999984 0.00837500021 0.0164500009 0.00584999984 0.00837500021 0.0164500009 0.00584999984 0.0131249996 0.0170499999 0.00359999994 0.00837500021 0.0164500009 0.00359999994 0.00837500021 0.0170499999 0.00524999993 0.00837500021 0.0164500009 0.00359999994 0.00837500021 0.0164500009 0.00584999984 0.00837500021 0.0170499999 0.00524999993 0.00837500021 0.0170499999 0.00524999993 0.00837500021 0.0164500009 0.00584999984 0.00837500021 0.0183499996 0.00524999993 0.00837500021 0.0164500009 0.00584999984 0.00837500021 0.0183499996 0.00584999984 0.00837500021 0.0183499996 0.00524999993 0.00837500021 0.0170499999 0.00359999994 0.00837500021 0.0170499999 0.00359999994 0.00787500013 0.0164500009 0.00359999994 0.00837500021 0.0170499999 0.00359999994 0.00787500013 0.0164500009 0.00359999994 0.00787500013 0.0164500009 0.00359999994 0.00837500021 0.0170499999 0.00524999993 0.00837500021 0.0170499999 0.00524999993 0.00787500013 0.0170499999 0.00359999994 0.00837500021 0.0170499999 0.00524999993 0.00787500013 0.0170499999 0.00359999994 0.00787500013 0.0170499999 0.00359999994 0.00837500021 0.0183499996 0.00524999993 0.00837500021 0.0183499996 0.00524999993 0.00787500013 0.0170499999 0.00524999993 0.00837500021 0.0183499996 0.00524999993 0.00787500013 0.0170499999 0.00524999993 0.00787500013 0.0170499999 0.00524999993 0.00837500021 0.0183499996 0.00584999984 0.00837500021 0.0183499996 0.00584999984 0.00787500013 0.0183499996 0.00524999993 0.00837500021 0.0183499996 0.00584999984 0.00787500013 0.0183499996 0.00524999993 0.00787500013 0.0183499996 0.00524999993 0.00837500021 0.0205000006 0.00355000002 0.00787500013 0.0205000006 0.00584999984 0.00787500013 0.0205000006 0.00355000002 0.00817499962 0.0205000006 0.00584999984 0.00787500013 0.0205000006 0.00425000023 0.00887500029 0.0205000006 0.00355000002 0.00817499962 0.0205000006 0.00355000002 0.00817499962 0.0205000006 0.00425000023 0.00887500029 0.0205000006 0.00159999996 0.00817499962 0.0205000006 0.00425000023 0.00887500029 0.0205000006 0.00219999999 0.00887500029 0.0205000006 0.00159999996 0.00817499962 0.0205000006 0.00159999996 0.00817499962 0.0205000006 0.00219999999 0.00887500029 0.0205000006 0.00159999996 0.0133250002 0.0205000006 0.00219999999 0.00887500029 0.0205000006 0.00219999999 0.0126250004 0.0205000006 0.00159999996 0.0133250002 0.0205000006 0.00159999996 0.0133250002 0.0205000006 0.00219999999 0.0126250004 0.0205000006 0.00355000002 0.0133250002 0.0205000006 0.00219999999 0.0126250004 0.0205000006 0.00425000023 0.0126250004 0.0205000006 0.00355000002 0.0133250002 0.0205000006 0.00425000023 0.00937500037 0.0205000006 0.00545000006 0.00972499978 0.0205000006 0.00374999992 0.00937500037 0.0205000006 0.00545000006 0.00972499978 0.0205000006 0.00405000011 0.00972499978 0.0205000006 0.00374999992 0.00937500037 0.0205000006 0.00374999992 0.00937500037 0.0205000006 0.00405000011 0.00972499978 0.0205000006 0.00374999992 0.0121250004 0.0205000006 0.00405000011 0.00972499978 0.0205000006 0.00405000011 0.011775 0.0205000006 0.00374999992 0.0121250004 0.0205000006 0.00374999992 0.0121250004 0.0205000006 0.00405000011 0.011775 0.0205000006 0.00425000023 0.0121250004 0.0205000006 0.00405000011 0.011775 0.0205000006 0.00545000006 0.011775 0.0205000006 0.00425000023 0.0121250004 0.0205000006 0.00425000023 0.0121250004 0.0205000006 0.00545000006 0.011775 0.0205000006 0.00425000023 0.0126250004 0.0205000006 0.00425000023 0.00937500037 0.0205000006 0.00425000023 0.00887500029 0.0205000006 0.00545000006 0.00972499978 0.0205000006 0.00425000023 0.00887500029 0.0205000006 0.00584999984 0.00787500013 0.0205000006 0.00545000006 0.00972499978 0.0205000006 0.00545000006 0.00972499978 0.0205000006 0.00584999984 0.00787500013 0.0205000006 0.00545000006 0.011775 0.0205000006 0.00584999984 0.00787500013 0.0205000006 0.00584999984 0.0136249997 0.0205000006 0.00545000006 0.011775 0.0205000006 0.00545000006 0.011775 0.0205000006 0.00584999984 0.0136249997 0.0205000006 0.00425000023 0.0126250004 0.0205000006 0.00584999984 0.0136249997 0.0205000006 0.00355000002 0.0136249997 0.0205000006 0.00425000023 0.0126250004 0.0205000006 0.00425000023 0.0126250004 0.0205000006 0.00355000002 0.0136249997 0.0205000006 0.00355000002 0.0133250002 0.0178999994 0.00374999992 0.00937500037 0.0205000006 0.00374999992 0.00937500037 0.0178999994 0.00374999992 0.0121250004 0.0205000006 0.00374999992 0.00937500037 0.0205000006 0.00374999992 0.0121250004 0.0178999994 0.00374999992 0.0121250004 0.0178999994 0.00425000023 0.00937500037 0.0205000006 0.00425000023 0.00937500037 0.0178999994 0.00374999992 0.00937500037 0.0205000006 0.00425000023 0.00937500037 0.0205000006 0.00374999992 0.00937500037 0.0178999994 0.00374999992 0.00937500037 0.0178999994 0.00425000023 0.00887500029 0.0205000006 0.00425000023 0.00887500029 0.0178999994 0.00425000023 0.00937500037 0.0205000006 0.00425000023 0.00887500029 0.0205000006 0.00425000023 0.00937500037 0.0178999994 0.00425000023 0.00937500037 0.0178999994 0.00219999999 0.00887500029 0.0205000006 0.00219999999 0.00887500029 0.0178999994 0.00425000023 0.00887500029 0.0205000006 0.00219999999 0.00887500029 0.0205000006 0.00425000023 0.00887500029 0.0178999994 0.00425000023 0.00887500029 0.0178999994 0.00219999999 0.0126250004 0.0205000006 0.00219999999 0.0126250004 0.0178999994 0.00219999999 0.00887500029 0.0205000006 0.00219999999 0.0126250004 0.0205000006 0.00219999999 0.00887500029 0.0178999994 0.00219999999 0.00887500029 0.0178999994 0.00425000023 0.0126250004 0.0205000006 0.00425000023 0.0126250004 0.0178999994 0.00219999999 0.0126250004 0.0205000006 0.00425000023 0.0126250004 0.0205000006 0.00219999999 0.0126250004 0.0178999994 0.00219999999 0.0126250004 0.0178999994 0.00425000023 0.0121250004 0.0205000006 0.00425000023 0.0121250004 0.0178999994 0.00425000023 0.0126250004 0.0205000006 0.00425000023 0.0121250004 0.0205000006 0.00425000023 0.0126250004 0.0178999994 0.00425000023 0.0126250004 0.0178999994 0.00374999992 0.0121250004 0.0205000006 0.00374999992 0.0121250004 0.0178999994 0.00425000023 0.0121250004 0.0205000006 0.00374999992 0.0121250004 0.0205000006 0.00425000023 0.0121250004 0.0178999994 0.00425000023 0.0121250004 0.0178999994 0.00425000023 0.00887500029 0.0178999994 0.00425000023 0.00937500037 0.0178999994 0.00374999992 0.00937500037 0.0178999994 0.00425000023 0.0121250004 0.0178999994 0.00425000023 0.0126250004 0.0178999994 0.00374999992 0.0121250004 0.0178999994 0.00425000023 0.0126250004 0.0178999994 0.00219999999 0.0126250004 0.0178999994 0.00374999992 0.0121250004 0.0178999994 0.00374999992 0.0121250004 0.0178999994 0.00219999999 0.0126250004 0.0178999994 0.00374999992 0.00937500037 0.0178999994 0.00219999999 0.0126250004 0.0178999994 0.00219999999 0.00887500029 0.0178999994 0.00374999992 0.00937500037 0.0178999994 0.00374999992 0.00937500037 0.0178999994 0.00219999999 0.00887500029 0.0178999994 0.00425000023 0.00887500029 0.0205000006 0.00545000006 0.011775 0.0205000006 0.00405000011 0.011775 0.0164500009 0.00545000006 0.011775 0.0205000006 0.00405000011 0.011775 0.0164500009 0.00405000011 0.011775 0.0164500009 0.00545000006 0.011775 0.0205000006 0.00405000011 0.011775 0.0197000001 0.00405000011 0.011225 0.0186999999 0.00405000011 0.011225 0.0197000001 0.00405000011 0.011225 0.0205000006 0.00405000011 0.011775 0.0197000001 0.00405000011 0.0102749998 0.0205000006 0.00405000011 0.011775 0.0205000006 0.00405000011 0.00972499978 0.0197000001 0.00405000011 0.0102749998 0.0197000001 0.00405000011 0.0102749998 0.0205000006 0.00405000011 0.00972499978 0.0186999999 0.00405000011 0.0102749998 0.0205000006 0.00405000011 0.00972499978 0.0164500009 0.00405000011 0.00972499978 0.0186999999 0.00405000011 0.0102749998 0.0186999999 0.00405000011 0.0102749998 0.0164500009 0.00405000011 0.00972499978 0.0186999999 0.00405000011 0.011225 0.0164500009 0.00405000011 0.00972499978 0.0164500009 0.00405000011 0.011775 0.0186999999 0.00405000011 0.011225 0.0186999999 0.00405000011 0.011225 0.0164500009 0.00405000011 0.011775 0.0205000006 0.00405000011 0.011775 0.0164500009 0.00405000011 0.00972499978 0.0205000006 0.00405000011 0.00972499978 0.0164500009 0.00545000006 0.00972499978 0.0205000006 0.00405000011 0.00972499978 0.0205000006 0.00545000006 0.00972499978 0.0164500009 0.00545000006 0.00972499978 0.0164500009 0.00545000006 0.00972499978 0.0205000006 0.00545000006 0.00972499978 0.0164500009 0.00545000006 0.011775 0.0205000006 0.00545000006 0.00972499978 0.0205000006 0.00545000006 0.011775 0.0164500009 0.00545000006 0.011775 </float_array>
          <technique_common>
            <accessor count="804" offset="0" source="#mesh_0-positions-array" stride="3">
              <param name="X" type="float" />
              <param name="Y" type="float" />
              <param name="Z" type="float" />
            </accessor>
          </technique_common>
        </source>
        <source id="mesh_0-normals" name="mesh_0-normals">
          <float_array id="mesh_0-normals-array" count="2412"> -1 0 0 -1 0 0 -1 0 0 -1 -0 -0 -1 -0 -0 -1 -0 -0 0 1 -0 0 1 -0 0 1 -0 -0 1 -0 -0 1 -0 -0 1 -0 -1 -0 -0 -1 -0 -0 -1 -0 -0 -1 -0 -0 -1 -0 -0 -1 -0 -0 0.707107306 -0.707106233 0 0.707107306 -0.707106233 0 0.707107306 -0.707106233 0 0.707107306 -0.707106233 -0 0.707107306 -0.707106233 -0 0.707107306 -0.707106233 -0 0.707107306 -0.707106233 0 0.707107306 -0.707106233 0 0.707107306 -0.707106233 0 0.707107306 -0.707106233 -0 0.707107306 -0.707106233 -0 0.707107306 -0.707106233 -0 -1 -0 -0 -1 -0 -0 -1 -0 -0 -1 -0 -0 -1 -0 -0 -1 -0 -0 0 1 -0 0 1 -0 0 1 -0 -0 1 -0 -0 1 -0 -0 1 -0 -1 0 0 -1 0 0 -1 0 0 -1 -0 -0 -1 -0 -0 -1 -0 -0 0 -1 0 0 -1 0 0 -1 0 -0 -1 -0 -0 -1 -0 -0 -1 -0 -0 0 1 -0 0 1 -0 0 1 -0 -0 1 -0 -0 1 -0 -0 1 -0 0 1 -0 0 1 -0 0 1 -0 -0 1 -0 -0 1 -0 -0 1 -0 0 1 -0 0 1 -0 0 1 -1 -0 -0 -1 -0 -0 -1 -0 -0 -1 -0 -0 -1 -0 -0 -1 -0 -0 -1 -0 -0 -1 -0 -0 -1 -0 -0 -1 -0 -0 -1 -0 -0 -1 -0 -0 0 0 -1 0 0 -1 0 0 -1 -0 -0 -1 -0 -0 -1 -0 -0 -1 1 -0 0 1 -0 0 1 -0 0 1 -0 -0 1 -0 -0 1 -0 -0 0 -1 0 0 -1 0 0 -1 0 -0 -1 0 -0 -1 0 -0 -1 0 1 0 0 1 0 0 1 0 0 1 -0 -0 1 -0 -0 1 -0 -0 -0 -1 -0 -0 -1 -0 -0 -1 -0 -0 -1 -0 -0 -1 -0 -0 -1 -0 0 -1 -0 0 -1 -0 0 -1 -0 -0 -1 -0 -0 -1 -0 -0 -1 -0 -1 -0 -0 -1 -0 -0 -1 -0 -0 -1 -0 -0 -1 -0 -0 -1 -0 -0 -1 -0 0 -1 -0 0 -1 -0 0 0 -1 0 0 -1 0 0 -1 0 -0 -1 0 -0 -1 0 -0 -1 0 0 0 1 0 0 1 0 0 1 -0 -0 1 -0 -0 1 -0 -0 1 0 -1 0 0 -1 0 0 -1 0 -0 -1 -0 -0 -1 -0 -0 -1 -0 0 -1 0 0 -1 0 0 -1 0 -0 -1 0 -0 -1 0 -0 -1 0 0 0 1 0 0 1 0 0 1 0 0 1 0 0 1 0 0 1 -0 -0 1 -0 -0 1 -0 -0 1 0 0 1 0 0 1 0 0 1 0 0 1 0 0 1 0 0 1 0 0 1 0 0 1 0 0 1 1 -0 0 1 -0 0 1 -0 0 1 -0 -0 1 -0 -0 1 -0 -0 0 -1 0 0 -1 0 0 -1 0 0 -1 0 0 -1 0 0 -1 0 -0 -1 -0 -0 -1 -0 -0 -1 -0 -0 -1 0 -0 -1 0 -0 -1 0 1 0 -0 1 0 -0 1 0 -0 1 0 -0 1 0 -0 1 0 -0 -0 0 1 -0 0 1 -0 0 1 -0 -0 1 -0 -0 1 -0 -0 1 -1 0 0 -1 0 0 -1 0 0 -1 0 -0 -1 0 -0 -1 0 -0 -1 0 0 -1 0 0 -1 0 0 0 0 -1 0 0 -1 0 0 -1 -0 -0 -1 -0 -0 -1 -0 -0 -1 1 0 -0 1 0 -0 1 0 -0 1 0 -0 1 0 -0 1 0 -0 1 -0 0 1 -0 0 1 -0 0 1 -0 -0 1 -0 -0 1 -0 -0 0 0 -1 0 0 -1 0 0 -1 0 0 -1 0 0 -1 0 0 -1 0 0 -1 0 0 -1 0 0 -1 -0 -0 -1 -0 -0 -1 -0 -0 -1 0 0 -1 0 0 -1 0 0 -1 0 -0 -1 0 -0 -1 0 -0 -1 0 -1 0 0 -1 0 0 -1 0 0 -1 0 0 -1 0 0 -1 0 -0 -1 -0 -0 -1 -0 -0 -1 -0 0 -1 0 0 -1 0 0 -1 0 0 -1 0 0 -1 0 0 -1 0 -0 -1 -0 -0 -1 -0 -0 -1 -0 0 -1 0 0 -1 0 0 -1 0 -0 -1 -0 -0 -1 -0 -0 -1 -0 0 -1 0 0 -1 0 0 -1 0 -0 -1 -0 -0 -1 -0 -0 -1 -0 0 -1 0 0 -1 0 0 -1 0 -0 -1 -0 -0 -1 -0 -0 -1 -0 -1 0 0 -1 0 0 -1 0 0 -1 -0 -0 -1 -0 -0 -1 -0 -0 -0 1 0 -0 1 0 -0 1 0 -0 1 0 -0 1 0 -0 1 0 0 -0 1 0 -0 1 0 -0 1 0 -0 1 0 -0 1 0 -0 1 1 0 0 1 0 0 1 0 0 1 -0 -0 1 -0 -0 1 -0 -0 -0 -0 -1 -0 -0 -1 -0 -0 -1 -0 -0 -1 -0 -0 -1 -0 -0 -1 0 -0 1 0 -0 1 0 -0 1 0 -0 1 0 -0 1 0 -0 1 0 0 1 0 0 1 0 0 1 -0 -0 1 -0 -0 1 -0 -0 1 -1 0 0 -1 0 0 -1 0 0 -1 0 -0 -1 0 -0 -1 0 -0 0 1 0 0 1 0 0 1 0 -0 1 -0 -0 1 -0 -0 1 -0 -1 0 0 -1 0 0 -1 0 0 -1 0 -0 -1 0 -0 -1 0 -0 0 0 1 0 0 1 0 0 1 0 0 1 0 0 1 0 0 1 0 -0 1 0 -0 1 0 -0 1 -0 -0 1 -0 -0 1 -0 -0 1 -0 0 1 -0 0 1 -0 0 1 -0 0 1 -0 0 1 -0 0 1 -0 -0 1 -0 -0 1 -0 -0 1 -0 0 1 -0 0 1 -0 0 1 -0 0 1 -0 0 1 -0 0 1 -0 -0 1 -0 -0 1 -0 -0 1 0 0 1 0 0 1 0 0 1 -0 -0 1 -0 -0 1 -0 -0 1 0 0 1 0 0 1 0 0 1 -0 -0 1 -0 -0 1 -0 -0 1 0 1 0 0 1 0 0 1 0 -0 1 -0 -0 1 -0 -0 1 -0 -1 0 0 -1 0 0 -1 0 0 -1 -0 -0 -1 -0 -0 -1 -0 -0 -1 -0 -0 -1 -0 -0 -1 -0 -0 -1 -0 -0 -1 -0 -0 -1 -0 -0 -1 0 0 -1 0 0 -1 0 0 -1 -0 -0 -1 -0 -0 -1 -0 -0 -1 0 0 -1 0 0 -1 0 0 -1 0 -0 -1 0 -0 -1 0 -0 -1 0 0 -1 0 0 -1 0 0 -1 -0 -0 -1 -0 -0 -1 -0 -0 -1 -0 0 -1 -0 0 -1 -0 0 -1 -0 -0 -1 -0 -0 -1 -0 -0 0 0 -1 0 0 -1 0 0 -1 0 -0 -1 0 -0 -1 0 -0 -1 0 -0 -1 0 -0 -1 0 -0 -1 0 0 -1 0 0 -1 0 0 -1 -0 -0 -1 -0 -0 -1 -0 -0 -1 0 0 -1 0 0 -1 0 0 -1 0 0 -1 0 0 -1 0 0 -1 0 -0 -1 0 -0 -1 0 -0 -1 0 0 -1 0 0 -1 0 0 -1 -0 -0 -1 -0 -0 -1 -0 -0 -1 0 -0 -1 0 -0 -1 0 -0 -1 -0 -0 -1 -0 -0 -1 -0 -0 -1 0 -0 -1 0 -0 -1 0 -0 -1 -0 -0 -1 -0 -0 -1 -0 -0 -1 0 -1 0 0 -1 0 0 -1 0 0 -1 0 0 -1 0 0 -1 0 0 -1 -0 0 -1 -0 0 -1 -0 0 -1 -0 0 -1 -0 0 -1 -0 -0 -1 -0 -0 -1 -0 -0 -1 -0 0 -1 0 0 -1 0 0 -1 0 -1 0 0 -1 0 0 -1 0 0 -1 0 -0 -1 0 -0 -1 0 -0 0 0 -1 0 0 -1 0 0 -1 0 0 -1 0 0 -1 0 0 -1 0 -0 -1 0 -0 -1 0 -0 -1 0 0 -1 0 0 -1 0 0 -1 -0 -0 -1 -0 -0 -1 -0 -0 -1 -1 0 0 -1 0 0 -1 0 0 -1 0 -0 -1 0 -0 -1 0 -0 0 -1 0 0 -1 0 0 -1 0 -0 -1 0 -0 -1 0 -0 -1 0 -0 -1 0 -0 -1 0 -0 -1 0 0 -1 0 0 -1 0 0 -1 0 0 -1 0 0 -1 0 0 -1 0 -0 -1 -0 -0 -1 -0 -0 -1 -0 -0 -1 -0 -0 -1 -0 -0 -1 -0 -0 -1 -0 -0 -1 -0 -0 -1 -0 0 -1 0 0 -1 0 0 -1 0 -0 -1 -0 -0 -1 -0 -0 -1 -0 -0 0 1 -0 0 1 -0 0 1 -0 -0 1 -0 -0 1 -0 -0 1 -0 0 1 -0 0 1 -0 0 1 -0 -0 1 -0 -0 1 -0 -0 1 -0 0 1 -0 0 1 -0 0 1 0 -1 0 0 -1 0 0 -1 0 -0 -1 -0 -0 -1 -0 -0 -1 -0 0 0 -1 0 0 -1 0 0 -1 0 0 -1 0 0 -1 0 0 -1 0 -0 -1 0 -0 -1 0 -0 -1 0 0 -1 0 0 -1 0 0 -1 -0 -0 -1 -0 -0 -1 -0 -0 -1 0 1 -0 0 1 -0 0 1 -0 -0 1 -0 -0 1 -0 -0 1 -0 -0 1 0 -0 1 0 -0 1 0 -0 1 -0 -0 1 -0 -0 1 -0 0 1 0 0 1 0 0 1 0 -0 1 -0 -0 1 -0 -0 1 -0 0 0 -1 0 0 -1 0 0 -1 -0 -0 -1 -0 -0 -1 -0 -0 -1 0 0 -1 0 0 -1 0 0 -1 0 -0 -1 0 -0 -1 0 -0 -1 0 1 0 0 1 0 0 1 0 -0 1 -0 -0 1 -0 -0 1 -0 -1 -0 -0 -1 -0 -0 -1 -0 -0 -1 -0 -0 -1 -0 -0 -1 -0 -0 0 1 0 0 1 0 0 1 0 -0 1 -0 -0 1 -0 -0 1 -0 -1 -0 -0 -1 -0 -0 -1 -0 -0 -1 -0 -0 -1 -0 -0 -1 -0 -0 1 0 0 1 0 0 1 0 0 1 -0 -0 1 -0 -0 1 -0 -0 1 0 -0 1 0 -0 1 0 -0 1 0 -0 1 0 -0 1 0 -0 1 0 0 1 0 0 1 0 0 1 -0 -0 1 -0 -0 1 -0 -0 1 -0 0 1 -0 0 1 -0 0 1 -0 -0 1 -0 -0 1 -0 -0 1 0 -0 1 0 -0 1 0 -0 1 0 -0 1 0 -0 1 0 -0 1 0 0 1 0 0 1 0 0 1 -0 -0 1 -0 -0 1 -0 -0 1 -0 0 1 -0 0 1 -0 0 1 -0 -0 1 -0 -0 1 -0 -0 1 -0 0 1 -0 0 1 -0 0 1 -0 0 1 -0 0 1 -0 0 1 -0 -0 1 -0 -0 1 -0 -0 1 -0 0 1 -0 0 1 -0 0 1 -0 -0 1 -0 -0 1 -0 -0 1 0 -0 1 0 -0 1 0 -0 1 0 -0 1 0 -0 1 0 -0 1 0 0 1 0 0 1 0 0 0 -1 0 0 -1 0 0 -1 0 -0 -1 0 -0 -1 0 -0 -1 0 0 0 -1 0 0 -1 0 0 -1 -0 -0 -1 -0 -0 -1 -0 -0 -1 0 -1 0 0 -1 0 0 -1 0 -0 -1 0 -0 -1 0 -0 -1 0 0 0 1 0 0 1 0 0 1 -0 -0 1 -0 -0 1 -0 -0 1 -0 1 0 -0 1 0 -0 1 0 -0 1 0 -0 1 0 -0 1 0 0 0 -1 0 0 -1 0 0 -1 -0 -0 -1 -0 -0 -1 -0 -0 -1 0 -1 0 0 -1 0 0 -1 0 -0 -1 0 -0 -1 0 -0 -1 0 0 0 1 0 0 1 0 0 1 -0 -0 1 -0 -0 1 -0 -0 1 1 0 -0 1 0 -0 1 0 -0 1 0 -0 1 0 -0 1 0 -0 1 0 -0 1 0 -0 1 0 -0 1 0 0 1 0 0 1 0 0 1 -0 -0 1 -0 -0 1 -0 -0 1 0 0 1 0 0 1 0 0 -0 -0 -1 -0 -0 -1 -0 -0 -1 -0 -0 -1 -0 -0 -1 -0 -0 -1 0 1 0 0 1 0 0 1 0 -0 1 0 -0 1 0 -0 1 0 -0 1 0 -0 1 0 -0 1 0 0 1 0 0 1 0 0 1 0 -0 1 -0 -0 1 -0 -0 1 -0 0 1 -0 0 1 -0 0 1 -0 -0 1 -0 -0 1 -0 -0 1 -0 0 1 -0 0 1 -0 0 1 -0 0 0 1 0 0 1 0 0 1 -0 -0 1 -0 -0 1 -0 -0 1 0 -1 0 0 -1 0 0 -1 0 -0 -1 0 -0 -1 0 -0 -1 0 </float_array>
          <technique_common>
            <accessor count="804" offset="0" source="#mesh_0-normals-array" stride="3">
              <param name="X" type="float" />
              <param name="Y" type="float" />
              <param name="Z" type="float" />
            </accessor>
          </technique_common>
        </source>
        <vertices id="mesh_0-vertices">
          <input semantic="POSITION" source="#mesh_0-positions" />
        </vertices>
        <polylist count="268" material="defaultMaterial">
          <input offset="0" semantic="VERTEX" source="#mesh_0-vertices" />
          <input offset="0" semantic="NORMAL" source="#mesh_0-normals" />
          <vcount>3 3 3 3 3 3 3 3 3 3 3 3 3 3 3 3 3 3 3 3 3 3 3 3 3 3 3 3 3 3 3 3 3 3 3 3 3 3 3 3 3 3 3 3 3 3 3 3 3 3 3 3 3 3 3 3 3 3 3 3 3 3 3 3 3 3 3 3 3 3 3 3 3 3 3 3 3 3 3 3 3 3 3 3 3 3 3 3 3 3 3 3 3 3 3 3 3 3 3 3 3 3 3 3 3 3 3 3 3 3 3 3 3 3 3 3 3 3 3 3 3 3 3 3 3 3 3 3 3 3 3 3 3 3 3 3 3 3 3 3 3 3 3 3 3 3 3 3 3 3 3 3 3 3 3 3 3 3 3 3 3 3 3 3 3 3 3 3 3 3 3 3 3 3 3 3 3 3 3 3 3 3 3 3 3 3 3 3 3 3 3 3 3 3 3 3 3 3 3 3 3 3 3 3 3 3 3 3 3 3 3 3 3 3 3 3 3 3 3 3 3 3 3 3 3 3 3 3 3 3 3 3 3 3 3 3 3 3 3 3 3 3 3 3 3 3 3 3 3 3 3 3 3 3 3 3 3 3 3 3 3 3 3 3 3 3 3 3 </vcount>
          <p>0 1 2 3 4 5 6 7 8 9 10 11 12 13 14 15 16 17 18 19 20 21 22 23 24 25 26 27 28 29 30 31 32 33 34 35 36 37 38 39 40 41 42 43 44 45 46 47 48 49 50 51 52 53 54 55 56 57 58 59 60 61 62 63 64 65 66 67 68 69 70 71 72 73 74 75 76 77 78 79 80 81 82 83 84 85 86 87 88 89 90 91 92 93 94 95 96 97 98 99 100 101 102 103 104 105 106 107 108 109 110 111 112 113 114 115 116 117 118 119 120 121 122 123 124 125 126 127 128 129 130 131 132 133 134 135 136 137 138 139 140 141 142 143 144 145 146 147 148 149 150 151 152 153 154 155 156 157 158 159 160 161 162 163 164 165 166 167 168 169 170 171 172 173 174 175 176 177 178 179 180 181 182 183 184 185 186 187 188 189 190 191 192 193 194 195 196 197 198 199 200 201 202 203 204 205 206 207 208 209 210 211 212 213 214 215 216 217 218 219 220 221 222 223 224 225 226 227 228 229 230 231 232 233 234 235 236 237 238 239 240 241 242 243 244 245 246 247 248 249 250 251 252 253 254 255 256 257 258 259 260 261 262 263 264 265 266 267 268 269 270 271 272 273 274 275 276 277 278 279 280 281 282 283 284 285 286 287 288 289 290 291 292 293 294 295 296 297 298 299 300 301 302 303 304 305 306 307 308 309 310 311 312 313 314 315 316 317 318 319 320 321 322 323 324 325 326 327 328 329 330 331 332 333 334 335 336 337 338 339 340 341 342 343 344 345 346 347 348 349 350 351 352 353 354 355 356 357 358 359 360 361 362 363 364 365 366 367 368 369 370 371 372 373 374 375 376 377 378 379 380 381 382 383 384 385 386 387 388 389 390 391 392 393 394 395 396 397 398 399 400 401 402 403 404 405 406 407 408 409 410 411 412 413 414 415 416 417 418 419 420 421 422 423 424 425 426 427 428 429 430 431 432 433 434 435 436 437 438 439 440 441 442 443 444 445 446 447 448 449 450 451 452 453 454 455 456 457 458 459 460 461 462 463 464 465 466 467 468 469 470 471 472 473 474 475 476 477 478 479 480 481 482 483 484 485 486 487 488 489 490 491 492 493 494 495 496 497 498 499 500 501 502 503 504 505 506 507 508 509 510 511 512 513 514 515 516 517 518 519 520 521 522 523 524 525 526 527 528 529 530 531 532 533 534 535 536 537 538 539 540 541 542 543 544 545 546 547 548 549 550 551 552 553 554 555 556 557 558 559 560 561 562 563 564 565 566 567 568 569 570 571 572 573 574 575 576 577 578 579 580 581 582 583 584 585 586 587 588 589 590 591 592 593 594 595 596 597 598 599 600 601 602 603 604 605 606 607 608 609 610 611 612 613 614 615 616 617 618 619 620 621 622 623 624 625 626 627 628 629 630 631 632 633 634 635 636 637 638 639 640 641 642 643 644 645 646 647 648 649 650 651 652 653 654 655 656 657 658 659 660 661 662 663 664 665 666 667 668 669 670 671 672 673 674 675 676 677 678 679 680 681 682 683 684 685 686 687 688 689 690 691 692 693 694 695 696 697 698 699 700 701 702 703 704 705 706 707 708 709 710 711 712 713 714 715 716 717 718 719 720 721 722 723 724 725 726 727 728 729 730 731 732 733 734 735 736 737 738 739 740 741 742 743 744 745 746 747 748 749 750 751 752 753 754 755 756 757 758 759 760 761 762 763 764 765 766 767 768 769 770 771 772 773 774 775 776 777 778 779 780 781 782 783 784 785 786 787 788 789 790 791 792 793 794 795 796 797 798 799 800 801 802 803 </p>
        </polylist>
      </mesh>
    </geometry>
  </library_geometries>
  <library_controllers>
  </library_controllers>
  <library_visual_scenes>
    <visual_scene id="_ySTL_BINARY_" name="&lt;STL_BINARY&gt;">
      <node id="node" name="" type="NODE">
        <matrix sid="matrix">1 0 0 0 0 1 0 0 0 0 1 0 0 0 0 1</matrix>
        <instance_geometry url="#mesh_0">
          <bind_material>
            <technique_common>
              <instance_material symbol="defaultMaterial" target="#DefaultMaterial">
              </instance_material>
            </technique_common>
          </bind_material>
        </instance_geometry>
      </node>
    </visual_scene>
  </library_visual_scenes>
  <scene>
    <instance_visual_scene url="#_ySTL_BINARY_" />
  </scene>
</COLLADA>
